<?xml version="1.0" encoding="utf-8"?>
<?xml-stylesheet type="text/css" href="../css/svg.css" ?>
<!-- Generator: Adobe Illustrator 16.0.0, SVG Export Plug-In . SVG Version: 6.00 Build 0)  -->
<!DOCTYPE svg PUBLIC "-//W3C//DTD SVG 1.1//EN" "http://www.w3.org/Graphics/SVG/1.1/DTD/svg11.dtd">
<svg version="1.1" id="Web_Design" xmlns="http://www.w3.org/2000/svg" xmlns:xlink="http://www.w3.org/1999/xlink" x="0px" y="0px"
	 width="168.001px" height="129.483px" viewBox="6 13.89 168.001 129.483" enable-background="new 6 13.89 168.001 129.483"
	 xml:space="preserve">
<path class="fill" fill="#FFFFFF" d="M173.057,16.783l-1.993-1.995c-1.222-1.218-3.411-1.159-4.508-0.053l-29.092,26.668H24.209
	c-3.626,0-9.104,0-9.104,5.463v81.939h-4.703c-2.427,0-4.402,1.974-4.402,4.401v2.879c0,4.086,3.348,7.287,7.621,7.287h144.997
	c4.273,0,7.622-3.201,7.622-7.287v-2.879c0-2.428-1.975-4.401-4.401-4.401h-4.703l-0.008-83.136
	c-0.022-1.229-0.044-2.39-1.003-3.287c-0.434-0.405-1.014-0.649-1.618-0.792l18.553-20.24
	C174.315,20.09,174.315,18.041,173.057,16.783z"/>
<path d="M104.154,134.269c-0.398,1.109-1.491,1.82-2.793,1.82H70.878c-1.302,0-2.395-0.711-2.795-1.82H7.821v1.817
	c0,3.202,2.596,5.466,5.8,5.466h144.997c3.205,0,5.801-2.264,5.801-5.466v-1.817H104.154z"/>
<rect x="49.702" y="66.896" width="45.523" height="3.642"/>
<rect x="49.702" y="61.433" width="41.881" height="3.643"/>
<rect x="49.702" y="72.358" width="38.239" height="3.642"/>
<g>
	<path d="M171.77,20.063c0.549-0.55,0.549-1.443,0-1.993l-1.992-1.992c-0.551-0.549-1.443-0.549-1.991,0l-47.799,43.814
		c-0.549,0.55-0.549,1.441,0,1.992l5.976,5.974c0.551,0.551,1.441,0.551,1.991,0L171.77,20.063z"/>
</g>
<g>
	<path d="M103.468,87.758c2.707-1.352,3.347,0.921,3.347,0.921s10.517-6.691,16.251-18.163c-1.911-1.912-2.868-2.868-2.868-2.868
		s-1.287-1.287-3.199-3.198c-11.471,5.735-18.121,16.292-18.121,16.292s2.315,0.683,0.964,3.387
		c-1.352,2.705-7.533-0.395-10.399,6.297c-2.383,5.559-5.57,13.55-5.57,13.55s7.825-3.354,13.384-5.736
		C103.948,95.372,100.766,89.111,103.468,87.758z M93.479,94.369c-1.031-1.031-1.031-2.703,0-3.732s2.702-1.029,3.732,0
		c1.031,1.029,1.031,2.701,0,3.732C96.181,95.402,94.51,95.402,93.479,94.369z"/>
</g>
<g>
	<path d="M147.777,51.458c0.146,0.263,0.253,0.549,0.253,0.871v69.193c0,1.005-0.814,1.82-1.821,1.82H26.03
		c-1.005,0-1.821-0.815-1.821-1.82V52.329c0-1.005,0.816-1.821,1.821-1.821h98.972l7.947-7.284H24.209c-3.642,0-7.284,0-7.284,3.642
		v83.761h138.388V46.866c0-1.787-0.005-2.69-0.434-3.154L147.777,51.458z"/>
</g>
<g>
	<path d="M108.771,91.752l-3.526,2.243c-0.446,1.825-1.361,3.929-3.428,5.677h24.363v3.642H94.662l-9.354,4.01l-2.83,1.213v3.882
		H49.702V96.03h32.777v1.669c1.091-2.68,2.453-5.99,3.617-8.707c0.038-0.09,0.085-0.159,0.123-0.246H27.851v30.955h116.538V88.746
		h-31.606C110.536,90.61,108.941,91.643,108.771,91.752z M111.612,108.776H91.583v-3.642h20.029V108.776z"/>
</g>
<script>
	<![CDATA[
	var params = document.defaultView.frameElement.getElementsByTagName("param");
	alert(params);
	]]>
</script>
</svg>
