<?xml version="1.0" encoding="utf-8"?>
<!DOCTYPE svg PUBLIC "-//W3C//DTD SVG 1.1//EN" "http://www.w3.org/Graphics/SVG/1.1/DTD/svg11.dtd">

<svg version="1.1" id="Web_Design" xmlns="http://www.w3.org/2000/svg" xmlns:xlink="http://www.w3.org/1999/xlink" x="0px" y="0px" width="750" height="500" aria-label="A chart." style="overflow: hidden;">
    <defs id="_ABSTRACT_RENDERER_ID_0">
        <filter id="_ABSTRACT_RENDERER_ID_1">
            <feGaussianBlur in="SourceAlpha" stdDeviation="2"></feGaussianBlur>
            <feOffset dx="1" dy="1"></feOffset>
            <feComponentTransfer>
                <feFuncA type="linear" slope="0.1"></feFuncA>
            </feComponentTransfer>
            <feMerge>
                <feMergeNode></feMergeNode>
                <feMergeNode in="SourceGraphic"></feMergeNode>
            </feMerge>
        </filter>
    </defs>
    <rect x="0" y="0" width="900" height="500" stroke="none" stroke-width="0" fill="#ffffff03"></rect>
    <g>
        <text text-anchor="start" x="161" y="70.9" font-family="Arial" font-size="14" font-weight="bold" stroke="none"
            stroke-width="0" fill="#797979">My Daily Activities</text>
        <rect x="161" y="59" width="579" height="14" stroke="none" stroke-width="0" fill-opacity="0" fill="#ffffff">
        </rect>
    </g>
    <g>
        <rect x="542" y="96" width="198" height="106" stroke="none" stroke-width="0" fill-opacity="0" fill="#b39595">
        </rect>
        <g column-id="Work">
            <rect x="542" y="96" width="198" height="14" stroke="none" stroke-width="0" fill-opacity="0" fill="#47805d">
            </rect>
            <g>
                <text text-anchor="start" x="561" y="107.9" font-family="Arial" font-size="14" stroke="none"
                    stroke-width="0" fill="#7e7e7e">Work</text>
            </g>
            <circle cx="549" cy="103" r="7" stroke="none" stroke-width="0" fill="#3366cc"></circle>
        </g>
        <g column-id="Eat">
            <rect x="542" y="119" width="198" height="14" stroke="none" stroke-width="0" fill-opacity="0"
                fill="#ffffff"></rect>
            <g><text text-anchor="start" x="561" y="130.9" font-family="Arial" font-size="14" stroke="none"
                    stroke-width="0" fill="#777777">Eat</text></g>
            <circle cx="549" cy="126" r="7" stroke="none" stroke-width="0" fill="#dc3912"></circle>
        </g>
        <g column-id="Commute">
            <rect x="542" y="142" width="198" height="14" stroke="none" stroke-width="0" fill-opacity="0"
                fill="#ffffff"></rect>
            <g><text text-anchor="start" x="561" y="153.9" font-family="Arial" font-size="14" stroke="none"
                    stroke-width="0" fill="#7e7e7e">Commute</text></g>
            <circle cx="549" cy="149" r="7" stroke="none" stroke-width="0" fill="#ff9900"></circle>
        </g>
        <g column-id="Watch TV">
            <rect x="542" y="165" width="198" height="14" stroke="none" stroke-width="0" fill-opacity="0"
                fill="#ffffff"></rect>
            <g><text text-anchor="start" x="561" y="176.9" font-family="Arial" font-size="14" stroke="none"
                    stroke-width="0" fill="#757575">Watch TV</text></g>
            <circle cx="549" cy="172" r="7" stroke="none" stroke-width="0" fill="#109618"></circle>
        </g>
        <g column-id="Sleep">
            <rect x="542" y="188" width="198" height="14" stroke="none" stroke-width="0" fill-opacity="0"
                fill="#ffffff"></rect>
            <g><text text-anchor="start" x="561" y="199.9" font-family="Arial" font-size="14" stroke="none"
                    stroke-width="0" fill="#919191">Sleep</text></g>
            <circle cx="549" cy="195" r="7" stroke="none" stroke-width="0" fill="#990099"></circle>
        </g>
    </g>
    <g>
        <path d="M340,251L340,97A154,154,0,0,1,379.8581329457882,399.75257724851656L340,251A0,0,0,0,0,340,251"
            stroke="#ffffff" stroke-width="1" fill="#3366cc"></path><text text-anchor="start" x="438.1707648577682"
            y="240.34252366466197" font-family="Arial" font-size="14" stroke="none" stroke-width="0"
            fill="#ffffff">45.8%</text>
    </g>
    <g>
        <path d="M340,251L191.2474227514835,290.8581329457882A154,154,0,0,1,340,97L340,251A0,0,0,0,0,340,251"
            stroke="#ffffff" stroke-width="1" fill="#990099"></path>
        <text text-anchor="start" x="225.02377088259124" y="183.02217618173913" font-family="Arial" font-size="14"
            stroke="none" stroke-width="0" fill="#ffffff">29.2%</text>
    </g>
    <g>
        <path
            d="M340,251L231.1055556972717,359.89444430272835A154,154,0,0,1,191.2474227514835,290.8581329457882L340,251A0,0,0,0,0,340,251"
            stroke="#ffffff" stroke-width="1" fill="#109618"></path><text text-anchor="start" x="217.79914743775038"
            y="317.21509081498266" font-family="Arial" font-size="14" stroke="none" stroke-width="0"
            fill="#ffffff">8.3%</text>
    </g>
    <g>
        <path
            d="M340,251L300.1418670542118,399.75257724851656A154,154,0,0,1,231.1055556972717,359.89444430272835L340,251A0,0,0,0,0,340,251"
            stroke="#ffffff" stroke-width="1" fill="#ff9900"></path><text text-anchor="start" x="261.2228787133989"
            y="364.63316362130666" font-family="Arial" font-size="14" stroke="none" stroke-width="0"
            fill="#ffffff">8.3%</text>
    </g>
    <g>
        <path
            d="M340,251L379.8581329457882,399.75257724851656A154,154,0,0,1,300.1418670542118,399.75257724851656L340,251A0,0,0,0,0,340,251"
            stroke="#ffffff" stroke-width="1" fill="#dc3912"></path><text text-anchor="start" x="324"
            y="387.9827092057096" font-family="Arial" font-size="14" stroke="none" stroke-width="0"
            fill="#ffffff">8.3%</text>
    </g>
    <g></g>
</svg>