<?xml version="1.0" encoding="UTF-8"?>
<!DOCTYPE svg PUBLIC "-//W3C//DTD SVG 1.1//EN" "http://www.w3.org/Graphics/SVG/1.1/DTD/svg11.dtd">
<!-- Creator: CorelDRAW 2020 (64-Bit) -->
<svg xmlns="http://www.w3.org/2000/svg" xml:space="preserve" width="2594px" height="1919px" version="1.1" style="shape-rendering:geometricPrecision; text-rendering:geometricPrecision; image-rendering:optimizeQuality; fill-rule:evenodd; clip-rule:evenodd"
viewBox="0 0 1738.78 1286.28"
 xmlns:xlink="http://www.w3.org/1999/xlink"
 xmlns:xodm="http://www.corel.com/coreldraw/odm/2003">
 <defs>
  <style type="text/css">
   <![CDATA[
    .str7 {stroke:#FFC000;stroke-width:0.6;stroke-miterlimit:22.9256}
    .str5 {stroke:black;stroke-width:2.01;stroke-miterlimit:22.9256}
    .str0 {stroke:#0070C0;stroke-width:0.6;stroke-miterlimit:22.9256}
    .str4 {stroke:#00B050;stroke-width:0.6;stroke-miterlimit:22.9256}
    .str3 {stroke:#42E469;stroke-width:0.6;stroke-miterlimit:22.9256}
    .str1 {stroke:#7F7F7F;stroke-width:0.6;stroke-miterlimit:22.9256}
    .str2 {stroke:#BFBFBF;stroke-width:0.6;stroke-miterlimit:22.9256}
    .str6 {stroke:#FFC000;stroke-width:0.6;stroke-miterlimit:22.9256}
    .fil0 {fill:none}
    .fil14 {fill:none;fill-rule:nonzero}
    .fil11 {fill:#2391FF}
    .fil9 {fill:#482400}
    .fil13 {fill:#542478}
    .fil10 {fill:#DFD6C3}
    .fil5 {fill:#FFC000}
    .fil7 {fill:black;fill-rule:nonzero}
    .fil1 {fill:#0070C0;fill-rule:nonzero}
    .fil15 {fill:#0070C0;fill-rule:nonzero}
    .fil8 {fill:#00B050;fill-rule:nonzero}
    .fil4 {fill:#42E469;fill-rule:nonzero}
    .fil2 {fill:#7F7F7F;fill-rule:nonzero}
    .fil3 {fill:#BFBFBF;fill-rule:nonzero}
    .fil12 {fill:#FFC000;fill-rule:nonzero}
    .fil6 {fill:white;fill-rule:nonzero}
   ]]>
  </style>
 </defs>
 <g id="Capa_x0020_1">
  <metadata id="CorelCorpID_0Corel-Layer"/>
  <rect class="fil0" width="1738.78" height="1286.28"/>
  <path class="fil1 str0" d="M834.43 598.9l0 -348.61 -82.79 0 0 8.38 78.77 0 -4.36 -4.35 0 344.58 8.38 0zm-78.77 -356.99l-25.14 12.41 25.14 12.73 0 -25.14z"/>
  <path class="fil2 str1" d="M949.4 721.91l0 93.18 49.27 0 0 -8.38 -45.25 0 4.36 4.36 0 -89.16 -8.38 0zm44.92 101.56l25.13 -12.4 -25.13 -12.74 0 25.14z"/>
  <path class="fil3 str2" d="M1182.02 610.96l0 53.63 -182.01 0 0 -8.38 177.99 0 -4.36 4.02 0 -49.27 8.38 0zm-177.98 62.01l-25.14 -12.74 25.14 -12.4 0 25.14z"/>
  <path class="fil4 str3" d="M512.98 198.67l0 -50.27 -4.36 4.35 383.13 0 -4.03 -4.35 0 403.9 8.38 0 0 -407.93 -391.5 0 0 54.3 8.38 0zm366.36 349.28l12.41 25.13 12.73 -25.13 -25.14 0z"/>
  <path class="fil1 str0" d="M896.44 747.38l0 289.61 -8.38 0 0 -289.61 8.38 0zm8.38 285.25l-12.74 25.14 -12.4 -25.14 25.14 0z"/>
  <polygon class="fil5" points="1280.57,656.21 1075.43,566.05 1075.43,429.29 1280.57,339.46 "/>
  <path class="fil6" d="M1177.88 460.97c0,10.57 -4.93,15.86 -14.78,15.86 -9.56,0 -14.34,-5.17 -14.34,-15.49l0 -20.33 7.96 0 0 20.42c0,5.7 2.22,8.55 6.67,8.55 4.37,0 6.56,-2.75 6.56,-8.25l0 -20.72 7.93 0 0 19.96z"/>
  <path class="fil6" d="M1185.37 476.21l0 -35.2 12.48 0c12.5,0 18.76,5.72 18.76,17.16 0,5.48 -1.71,9.86 -5.12,13.13 -3.41,3.28 -7.96,4.91 -13.64,4.91l-12.48 0zm7.94 -28.75l0 22.32 3.93 0c3.44,0 6.13,-1.03 8.09,-3.09 1.95,-2.06 2.93,-4.87 2.93,-8.43 0,-3.35 -0.97,-5.99 -2.91,-7.91 -1.94,-1.92 -4.66,-2.89 -8.16,-2.89l-3.88 0z"/>
  <path class="fil6" d="M1230.52 464.09l0 12.12 -7.94 0 0 -35.2 12.43 0c8.87,0 13.31,3.74 13.31,11.22 0,3.54 -1.28,6.39 -3.83,8.58 -2.54,2.18 -5.94,3.28 -10.19,3.28l-3.78 0zm0 -17l0 10.98 3.11 0c4.23,0 6.34,-1.85 6.34,-5.55 0,-3.62 -2.11,-5.43 -6.34,-5.43l-3.11 0z"/>
  <path class="fil7" d="M1188.59 520.12l-5.76 0 -1.67 -5.22 -8.35 0 -1.65 5.22 -5.73 0 8.54 -23.47 6.27 0 8.35 23.47zm-8.65 -9.27l-2.51 -7.89c-0.19,-0.6 -0.32,-1.3 -0.4,-2.12l-0.13 0c-0.06,0.69 -0.19,1.37 -0.41,2.05l-2.55 7.96 6 0z"/>
  <polygon class="fil7" points="1205.39,520.12 1191.41,520.12 1191.41,496.65 1196.7,496.65 1196.7,515.83 1205.39,515.83 "/>
  <path class="fil7" d="M1226.97 509.96c0,7.05 -3.29,10.57 -9.85,10.57 -6.38,0 -9.56,-3.44 -9.56,-10.32l0 -13.56 5.3 0 0 13.62c0,3.8 1.49,5.7 4.45,5.7 2.91,0 4.37,-1.84 4.37,-5.5l0 -13.82 5.29 0 0 13.31z"/>
  <polygon class="fil7" points="1182.52,541.18 1174.24,541.18 1174.24,546.94 1181.85,546.94 1181.85,551.23 1174.24,551.23 1174.24,560.35 1168.95,560.35 1168.95,536.88 1182.52,536.88 "/>
  <path class="fil7" d="M1191.67 552.26l0 8.09 -5.29 0 0 -23.47 8.28 0c5.92,0 8.88,2.49 8.88,7.48 0,2.36 -0.85,4.26 -2.55,5.72 -1.7,1.45 -3.96,2.18 -6.8,2.18l-2.52 0zm0 -11.33l0 7.32 2.08 0c2.81,0 4.22,-1.23 4.22,-3.7 0,-2.41 -1.41,-3.62 -4.22,-3.62l-2.08 0z"/>
  <path class="fil7" d="M1225.96 550.19c0,7.04 -3.28,10.56 -9.85,10.56 -6.37,0 -9.56,-3.44 -9.56,-10.32l0 -13.55 5.31 0 0 13.61c0,3.8 1.48,5.7 4.45,5.7 2.91,0 4.37,-1.83 4.37,-5.5l0 -13.81 5.28 0 0 13.31z"/>
  <path class="fil2 str1" d="M949.4 598.56l0 -278.55 232.62 0 0 43.58 -8.38 0 0 -39.55 4.36 4.35 -224.58 0 4.36 -4.35 0 274.52 -8.38 0zm241 -239.33l-12.4 25.14 -12.74 -25.14 25.14 0z"/>
  <path class="fil8 str4" d="M1182.36 887.49l0 230.28 -58.33 0 0 -8.38 53.97 0 -4.02 4.02 0 -225.92 8.38 0zm-16.76 4.03l12.4 -25.14 12.74 25.14 -25.14 0zm-37.54 234.63l-25.14 -12.74 25.14 -12.4 0 25.14z"/>
  <path class="fil2" d="M985.7 276.84c-1.91,0 -3.38,0.72 -4.43,2.15 -1.05,1.44 -1.57,3.44 -1.57,6 0,5.34 2,8.01 6,8.01 1.68,0 3.72,-0.42 6.1,-1.26l0 4.25c-1.96,0.82 -4.15,1.23 -6.57,1.23 -3.48,0 -6.14,-1.05 -7.99,-3.17 -1.84,-2.11 -2.76,-5.14 -2.76,-9.09 0,-2.49 0.45,-4.67 1.36,-6.54 0.9,-1.87 2.2,-3.3 3.89,-4.3 1.7,-1 3.69,-1.5 5.97,-1.5 2.32,0 4.65,0.56 7,1.69l-1.64 4.12c-0.89,-0.43 -1.79,-0.79 -2.69,-1.11 -0.91,-0.32 -1.8,-0.48 -2.67,-0.48z"/>
  <path id="1" class="fil2" d="M1000.48 287.7c0,1.81 0.3,3.18 0.89,4.11 0.6,0.93 1.57,1.39 2.91,1.39 1.33,0 2.28,-0.46 2.87,-1.38 0.58,-0.92 0.87,-2.3 0.87,-4.12 0,-1.81 -0.29,-3.17 -0.88,-4.07 -0.59,-0.91 -1.56,-1.36 -2.9,-1.36 -1.33,0 -2.29,0.45 -2.87,1.35 -0.6,0.9 -0.89,2.26 -0.89,4.08zm12.65 0.01c0,2.98 -0.79,5.31 -2.36,6.99 -1.57,1.68 -3.76,2.52 -6.56,2.52 -1.76,0 -3.3,-0.38 -4.65,-1.15 -1.34,-0.77 -2.37,-1.88 -3.09,-3.32 -0.72,-1.44 -1.08,-3.12 -1.08,-5.04 0,-2.99 0.78,-5.31 2.34,-6.97 1.56,-1.66 3.75,-2.49 6.58,-2.49 1.75,0 3.3,0.38 4.65,1.15 1.34,0.76 2.37,1.86 3.09,3.29 0.72,1.43 1.08,3.1 1.08,5.02z"/>
  <path id="2" class="fil2" d="M1033.64 296.89l-4.99 0 0 -10.69c0,-1.32 -0.22,-2.31 -0.66,-2.97 -0.45,-0.66 -1.14,-0.99 -2.09,-0.99 -1.28,0 -2.2,0.47 -2.78,1.41 -0.58,0.93 -0.87,2.48 -0.87,4.63l0 8.61 -4.99 0 0 -18.3 3.81 0 0.67 2.34 0.28 0c0.49,-0.84 1.2,-1.5 2.13,-1.97 0.93,-0.48 1.99,-0.71 3.19,-0.71 2.74,0 4.6,0.89 5.57,2.68l0.44 0c0.49,-0.85 1.21,-1.51 2.17,-1.98 0.95,-0.47 2.03,-0.7 3.23,-0.7 2.07,0 3.64,0.53 4.7,1.6 1.07,1.06 1.6,2.76 1.6,5.11l0 11.93 -5.01 0 0 -10.69c0,-1.32 -0.22,-2.31 -0.66,-2.97 -0.44,-0.66 -1.14,-0.99 -2.09,-0.99 -1.22,0 -2.13,0.43 -2.74,1.31 -0.6,0.87 -0.91,2.26 -0.91,4.15l0 9.19z"/>
  <path id="3" class="fil2" d="M1061.8 296.89l-0.97 -2.49 -0.13 0c-0.84,1.06 -1.71,1.8 -2.6,2.21 -0.89,0.4 -2.04,0.61 -3.47,0.61 -1.76,0 -3.14,-0.5 -4.15,-1.51 -1.01,-1 -1.52,-2.43 -1.52,-4.29 0,-1.94 0.68,-3.38 2.04,-4.3 1.36,-0.92 3.41,-1.43 6.15,-1.53l3.17 -0.1 0 -0.8c0,-1.86 -0.95,-2.79 -2.85,-2.79 -1.46,0 -3.18,0.44 -5.15,1.33l-1.65 -3.37c2.1,-1.1 4.44,-1.64 7,-1.64 2.45,0 4.34,0.53 5.64,1.6 1.32,1.07 1.97,2.69 1.97,4.88l0 12.19 -3.48 0zm-1.48 -8.48l-1.93 0.06c-1.45,0.05 -2.53,0.3 -3.24,0.79 -0.71,0.48 -1.06,1.21 -1.06,2.2 0,1.4 0.81,2.11 2.42,2.11 1.16,0 2.08,-0.34 2.77,-1 0.69,-0.67 1.04,-1.56 1.04,-2.66l0 -1.5z"/>
  <path id="4" class="fil2" d="M1087.3 296.89l-4.99 0 0 -10.69c0,-1.32 -0.24,-2.31 -0.7,-2.97 -0.47,-0.66 -1.22,-0.99 -2.24,-0.99 -1.4,0 -2.41,0.46 -3.03,1.4 -0.62,0.93 -0.93,2.48 -0.93,4.64l0 8.61 -4.99 0 0 -18.3 3.81 0 0.67 2.34 0.28 0c0.56,-0.88 1.33,-1.55 2.3,-2 0.97,-0.46 2.09,-0.68 3.33,-0.68 2.13,0 3.74,0.58 4.84,1.73 1.1,1.15 1.65,2.81 1.65,4.98l0 11.93z"/>
  <path id="5" class="fil2" d="M1098.24 297.22c-2.14,0 -3.84,-0.83 -5.07,-2.5 -1.22,-1.67 -1.83,-3.98 -1.83,-6.95 0,-3 0.62,-5.33 1.87,-7.01 1.25,-1.67 2.97,-2.51 5.17,-2.51 2.3,0 4.06,0.89 5.27,2.69l0.16 0c-0.25,-1.37 -0.37,-2.59 -0.37,-3.66l0 -5.87 5 0 0 25.48 -3.82 0 -0.97 -2.37 -0.21 0c-1.14,1.8 -2.87,2.7 -5.2,2.7zm1.76 -3.99c1.28,0 2.21,-0.37 2.81,-1.11 0.59,-0.74 0.91,-2 0.97,-3.78l0 -0.54c0,-1.96 -0.3,-3.37 -0.91,-4.22 -0.61,-0.85 -1.59,-1.27 -2.96,-1.27 -1.11,0 -1.98,0.46 -2.6,1.41 -0.61,0.94 -0.92,2.32 -0.92,4.12 0,1.8 0.32,3.14 0.94,4.04 0.62,0.9 1.51,1.35 2.67,1.35z"/>
  <path id="6" class="fil2" d="M1117.64 287.7c0,1.81 0.29,3.18 0.89,4.11 0.59,0.93 1.56,1.39 2.9,1.39 1.33,0 2.29,-0.46 2.87,-1.38 0.58,-0.92 0.87,-2.3 0.87,-4.12 0,-1.81 -0.29,-3.17 -0.88,-4.07 -0.59,-0.91 -1.55,-1.36 -2.89,-1.36 -1.33,0 -2.29,0.45 -2.88,1.35 -0.59,0.9 -0.88,2.26 -0.88,4.08zm12.64 0.01c0,2.98 -0.78,5.31 -2.35,6.99 -1.57,1.68 -3.76,2.52 -6.57,2.52 -1.75,0 -3.3,-0.38 -4.64,-1.15 -1.34,-0.77 -2.37,-1.88 -3.09,-3.32 -0.72,-1.44 -1.08,-3.12 -1.08,-5.04 0,-2.99 0.78,-5.31 2.33,-6.97 1.57,-1.66 3.76,-2.49 6.58,-2.49 1.76,0 3.31,0.38 4.65,1.15 1.34,0.76 2.37,1.86 3.09,3.29 0.72,1.43 1.08,3.1 1.08,5.02z"/>
  <path id="7" class="fil2" d="M1147.17 291.46c0,1.87 -0.64,3.3 -1.95,4.29 -1.3,0.98 -3.25,1.47 -5.85,1.47 -1.33,0 -2.46,-0.09 -3.4,-0.27 -0.94,-0.18 -1.82,-0.44 -2.64,-0.8l0 -4.12c0.93,0.44 1.97,0.8 3.14,1.1 1.16,0.29 2.18,0.44 3.06,0.44 1.82,0 2.72,-0.53 2.72,-1.58 0,-0.39 -0.12,-0.71 -0.36,-0.95 -0.24,-0.25 -0.65,-0.53 -1.24,-0.84 -0.59,-0.31 -1.37,-0.67 -2.36,-1.09 -1.41,-0.59 -2.44,-1.13 -3.1,-1.64 -0.66,-0.5 -1.14,-1.08 -1.44,-1.72 -0.3,-0.66 -0.45,-1.46 -0.45,-2.41 0,-1.62 0.63,-2.87 1.89,-3.76 1.26,-0.89 3.05,-1.33 5.36,-1.33 2.2,0 4.35,0.48 6.43,1.44l-1.5 3.59c-0.92,-0.39 -1.77,-0.72 -2.57,-0.97 -0.8,-0.25 -1.61,-0.37 -2.44,-0.37 -1.47,0 -2.21,0.39 -2.21,1.19 0,0.45 0.24,0.84 0.71,1.16 0.48,0.33 1.52,0.82 3.12,1.46 1.43,0.58 2.47,1.13 3.14,1.63 0.67,0.5 1.16,1.08 1.48,1.73 0.31,0.66 0.46,1.44 0.46,2.35z"/>
  <polygon class="fil3" points="1057.36,708.84 1043.58,708.84 1043.58,684.9 1057.36,684.9 1057.36,689.06 1048.66,689.06 1048.66,694.32 1056.76,694.32 1056.76,698.48 1048.66,698.48 1048.66,704.65 1057.36,704.65 "/>
  <path id="1" class="fil3" d="M1074.72 703.41c0,1.87 -0.65,3.3 -1.95,4.29 -1.3,0.98 -3.25,1.47 -5.85,1.47 -1.33,0 -2.47,-0.09 -3.4,-0.27 -0.94,-0.18 -1.82,-0.44 -2.64,-0.79l0 -4.13c0.93,0.44 1.97,0.8 3.13,1.1 1.16,0.29 2.19,0.44 3.07,0.44 1.82,0 2.72,-0.53 2.72,-1.58 0,-0.39 -0.12,-0.71 -0.36,-0.95 -0.24,-0.25 -0.66,-0.53 -1.24,-0.84 -0.6,-0.31 -1.38,-0.67 -2.36,-1.09 -1.41,-0.59 -2.44,-1.13 -3.1,-1.64 -0.66,-0.5 -1.14,-1.08 -1.44,-1.72 -0.3,-0.66 -0.45,-1.45 -0.45,-2.41 0,-1.62 0.63,-2.87 1.89,-3.76 1.26,-0.89 3.04,-1.33 5.36,-1.33 2.2,0 4.34,0.48 6.43,1.44l-1.51 3.59c-0.91,-0.39 -1.77,-0.72 -2.57,-0.97 -0.79,-0.25 -1.6,-0.37 -2.43,-0.37 -1.48,0 -2.21,0.39 -2.21,1.19 0,0.45 0.24,0.84 0.71,1.17 0.48,0.32 1.52,0.81 3.12,1.45 1.42,0.58 2.47,1.13 3.14,1.63 0.66,0.5 1.15,1.08 1.47,1.73 0.32,0.66 0.47,1.44 0.47,2.35z"/>
  <path id="2" class="fil3" d="M1086.33 705.18c0.87,0 1.92,-0.19 3.14,-0.57l0 3.72c-1.24,0.56 -2.77,0.84 -4.58,0.84 -2,0 -3.45,-0.5 -4.36,-1.51 -0.91,-1.01 -1.37,-2.53 -1.37,-4.54l0 -8.83 -2.39 0 0 -2.12 2.75 -1.67 1.44 -3.86 3.19 0 0 3.9 5.13 0 0 3.75 -5.13 0 0 8.82c0,0.7 0.2,1.23 0.6,1.57 0.4,0.34 0.92,0.5 1.58,0.5z"/>
  <path id="3" class="fil3" d="M1104.79 708.84l-0.97 -2.49 -0.13 0c-0.84,1.06 -1.71,1.8 -2.59,2.21 -0.89,0.41 -2.05,0.61 -3.48,0.61 -1.76,0 -3.14,-0.5 -4.15,-1.51 -1.01,-1 -1.51,-2.43 -1.51,-4.29 0,-1.94 0.68,-3.38 2.04,-4.3 1.35,-0.92 3.4,-1.43 6.14,-1.53l3.17 -0.1 0 -0.8c0,-1.86 -0.95,-2.79 -2.84,-2.79 -1.46,0 -3.18,0.44 -5.16,1.33l-1.65 -3.37c2.11,-1.1 4.44,-1.64 7.01,-1.64 2.45,0 4.33,0.53 5.64,1.6 1.31,1.07 1.97,2.69 1.97,4.88l0 12.19 -3.49 0zm-1.48 -8.48l-1.92 0.06c-1.46,0.05 -2.54,0.3 -3.25,0.79 -0.71,0.48 -1.06,1.21 -1.06,2.2 0,1.4 0.81,2.11 2.42,2.11 1.16,0 2.08,-0.34 2.78,-1 0.69,-0.67 1.03,-1.56 1.03,-2.65l0 -1.51z"/>
  <path id="4" class="fil3" d="M1119.21 709.17c-2.15,0 -3.84,-0.83 -5.07,-2.5 -1.23,-1.67 -1.84,-3.98 -1.84,-6.95 0,-3 0.62,-5.33 1.87,-7.01 1.26,-1.67 2.98,-2.51 5.17,-2.51 2.3,0 4.06,0.89 5.28,2.69l0.16 0c-0.25,-1.37 -0.38,-2.59 -0.38,-3.66l0 -5.87 5.01 0 0 25.48 -3.83 0 -0.96 -2.37 -0.22 0c-1.14,1.8 -2.86,2.7 -5.19,2.7zm1.75 -3.99c1.28,0 2.21,-0.37 2.81,-1.11 0.59,-0.74 0.92,-2 0.97,-3.78l0 -0.54c0,-1.96 -0.3,-3.37 -0.91,-4.22 -0.6,-0.85 -1.58,-1.27 -2.95,-1.27 -1.11,0 -1.98,0.46 -2.6,1.41 -0.61,0.94 -0.92,2.32 -0.92,4.12 0,1.8 0.31,3.14 0.93,4.04 0.62,0.9 1.52,1.35 2.67,1.35z"/>
  <path id="5" class="fil3" d="M1138.6 699.65c0,1.81 0.3,3.18 0.89,4.11 0.6,0.93 1.57,1.39 2.91,1.39 1.33,0 2.28,-0.46 2.87,-1.38 0.58,-0.92 0.87,-2.3 0.87,-4.12 0,-1.81 -0.29,-3.16 -0.88,-4.07 -0.59,-0.9 -1.55,-1.36 -2.9,-1.36 -1.33,0 -2.29,0.46 -2.87,1.35 -0.59,0.9 -0.89,2.26 -0.89,4.08zm12.65 0.01c0,2.98 -0.79,5.31 -2.36,6.99 -1.56,1.68 -3.75,2.52 -6.56,2.52 -1.75,0 -3.3,-0.38 -4.65,-1.15 -1.34,-0.77 -2.37,-1.88 -3.09,-3.32 -0.72,-1.44 -1.08,-3.12 -1.08,-5.04 0,-2.99 0.78,-5.31 2.34,-6.97 1.56,-1.66 3.75,-2.49 6.58,-2.49 1.75,0 3.3,0.38 4.65,1.15 1.34,0.76 2.37,1.86 3.09,3.29 0.72,1.43 1.08,3.1 1.08,5.02z"/>
  <polygon class="fil9" points="298.12,209.74 298.12,320.69 741.58,320.69 741.58,209.74 "/>
  <path class="fil9" d="M299.13 210.74l0 108.94 441.45 0 0 -108.94 -441.45 0zm-1.01 -2.01l443.46 0 0.67 0.34 0.34 0.67 0 110.95 -0.34 0.66 -0.67 0.34 -443.46 0 -0.67 -0.34 -0.33 -0.66 0 -110.95 0.33 -0.67 0.67 -0.34 0 0z"/>
  <polygon class="fil10" points="287.06,198.67 287.06,309.62 730.52,309.62 730.52,198.67 "/>
  <polygon class="fil0 str5" points="287.06,198.67 730.52,198.67 730.52,309.62 287.06,309.62 "/>
  <path class="fil7" d="M364.07 254.65l-7.83 0 0 -21.06c0,-2.28 0.1,-4.79 0.29,-7.54l-0.19 0c-0.41,2.16 -0.78,3.71 -1.11,4.67l-8.24 23.93 -6.49 0 -8.39 -23.69c-0.23,-0.63 -0.6,-2.28 -1.11,-4.91l-0.22 0c0.21,3.47 0.32,6.51 0.32,9.14l0 19.46 -7.15 0 0 -35.2 11.62 0 7.19 20.86c0.57,1.67 0.99,3.35 1.25,5.04l0.15 0c0.44,-1.95 0.91,-3.65 1.4,-5.09l7.19 -20.81 11.32 0 0 35.2z"/>
  <polygon id="1" class="fil7" points="393.19,254.65 372.07,254.65 372.07,219.45 392.37,219.45 392.37,225.9 380,225.9 380,233.74 391.52,233.74 391.52,240.16 380,240.16 380,248.22 393.19,248.22 "/>
  <path id="2" class="fil7" d="M438.95 254.65l-7.84 0 0 -21.06c0,-2.28 0.1,-4.79 0.3,-7.54l-0.2 0c-0.41,2.16 -0.78,3.71 -1.1,4.67l-8.25 23.93 -6.49 0 -8.39 -23.69c-0.23,-0.63 -0.6,-2.28 -1.11,-4.91l-0.22 0c0.21,3.47 0.32,6.51 0.32,9.14l0 19.46 -7.15 0 0 -35.2 11.62 0 7.2 20.86c0.57,1.67 0.99,3.35 1.25,5.04l0.15 0c0.43,-1.95 0.9,-3.65 1.4,-5.09l7.19 -20.81 11.32 0 0 35.2z"/>
  <path id="3" class="fil7" d="M461.82 255.26c-5.04,0 -9.15,-1.64 -12.32,-4.92 -3.18,-3.28 -4.76,-7.55 -4.76,-12.82 0,-5.57 1.61,-10.07 4.83,-13.5 3.23,-3.44 7.49,-5.17 12.82,-5.17 5.02,0 9.09,1.65 12.19,4.94 3.1,3.29 4.65,7.63 4.65,13.01 0,5.53 -1.61,10 -4.83,13.39 -3.21,3.38 -7.41,5.07 -12.58,5.07zm0.35 -29.58c-2.78,0 -5,1.04 -6.63,3.14 -1.63,2.08 -2.46,4.84 -2.46,8.28 0,3.48 0.83,6.24 2.46,8.28 1.63,2.02 3.78,3.04 6.43,3.04 2.74,0 4.9,-0.99 6.51,-2.96 1.6,-1.98 2.4,-4.71 2.4,-8.21 0,-3.66 -0.78,-6.5 -2.33,-8.52 -1.56,-2.03 -3.68,-3.05 -6.38,-3.05z"/>
  <path id="4" class="fil7" d="M514.61 254.65l-9.11 0 -5.47 -9.06c-0.41,-0.68 -0.81,-1.3 -1.18,-1.84 -0.38,-0.54 -0.76,-1 -1.14,-1.38 -0.39,-0.39 -0.79,-0.68 -1.21,-0.89 -0.42,-0.2 -0.87,-0.3 -1.36,-0.3l-2.13 0 0 13.47 -7.94 0 0 -35.2 12.57 0c8.55,0 12.82,3.19 12.82,9.57 0,1.23 -0.19,2.36 -0.57,3.4 -0.38,1.04 -0.9,1.98 -1.59,2.82 -0.69,0.83 -1.52,1.55 -2.49,2.15 -0.98,0.61 -2.06,1.08 -3.26,1.42l0 0.1c0.53,0.17 1.03,0.43 1.52,0.8 0.5,0.37 0.97,0.8 1.43,1.29 0.46,0.5 0.9,1.02 1.31,1.59 0.42,0.56 0.8,1.11 1.15,1.65l6.65 10.41zm-21.6 -29.26l0 9.8 3.43 0c1.7,0 3.07,-0.5 4.1,-1.48 1.05,-1 1.57,-2.24 1.57,-3.7 0,-3.09 -1.84,-4.62 -5.53,-4.62l-3.57 0z"/>
  <polygon id="5" class="fil7" points="525.83,254.65 517.89,254.65 517.89,219.45 525.83,219.45 "/>
  <path id="6" class="fil7" d="M564.79 254.65l-8.64 0 -2.51 -7.83 -12.52 0 -2.48 7.83 -8.6 0 12.83 -35.2 9.4 0 12.52 35.2zm-12.97 -13.92l-3.78 -11.83c-0.27,-0.89 -0.47,-1.94 -0.59,-3.17l-0.19 0c-0.09,1.03 -0.29,2.06 -0.62,3.07l-3.83 11.93 9.01 0z"/>
  <path id="7" class="fil7" d="M612.59 254.65l-9.11 0 -5.47 -9.06c-0.42,-0.68 -0.81,-1.3 -1.19,-1.84 -0.37,-0.54 -0.75,-1 -1.14,-1.38 -0.38,-0.39 -0.78,-0.68 -1.2,-0.89 -0.42,-0.2 -0.87,-0.3 -1.36,-0.3l-2.14 0 0 13.47 -7.93 0 0 -35.2 12.57 0c8.54,0 12.82,3.19 12.82,9.57 0,1.23 -0.19,2.36 -0.57,3.4 -0.38,1.04 -0.91,1.98 -1.59,2.82 -0.69,0.83 -1.52,1.55 -2.49,2.15 -0.98,0.61 -2.06,1.08 -3.26,1.42l0 0.1c0.52,0.17 1.03,0.43 1.52,0.8 0.5,0.37 0.97,0.8 1.43,1.29 0.46,0.5 0.89,1.02 1.31,1.59 0.42,0.56 0.8,1.11 1.14,1.65l6.66 10.41zm-21.61 -29.26l0 9.8 3.44 0c1.7,0 3.06,-0.5 4.1,-1.48 1.04,-1 1.57,-2.24 1.57,-3.7 0,-3.09 -1.84,-4.62 -5.53,-4.62l-3.58 0z"/>
  <path id="8" class="fil7" d="M630.26 255.26c-5.05,0 -9.15,-1.64 -12.33,-4.92 -3.17,-3.28 -4.76,-7.55 -4.76,-12.82 0,-5.57 1.61,-10.07 4.84,-13.5 3.22,-3.44 7.49,-5.17 12.81,-5.17 5.03,0 9.09,1.65 12.19,4.94 3.1,3.29 4.65,7.63 4.65,13.01 0,5.53 -1.61,10 -4.82,13.39 -3.21,3.38 -7.41,5.07 -12.58,5.07zm0.34 -29.58c-2.78,0 -4.99,1.04 -6.63,3.14 -1.63,2.08 -2.45,4.84 -2.45,8.28 0,3.48 0.82,6.24 2.45,8.28 1.64,2.02 3.78,3.04 6.43,3.04 2.74,0 4.9,-0.99 6.51,-2.96 1.6,-1.98 2.41,-4.71 2.41,-8.21 0,-3.66 -0.78,-6.5 -2.33,-8.52 -1.56,-2.03 -3.69,-3.05 -6.39,-3.05z"/>
  <path id="9" class="fil7" d="M693.63 254.65l-7.84 0 0 -21.06c0,-2.28 0.1,-4.79 0.29,-7.54l-0.19 0c-0.41,2.16 -0.78,3.71 -1.1,4.67l-8.25 23.93 -6.49 0 -8.39 -23.69c-0.23,-0.63 -0.6,-2.28 -1.11,-4.91l-0.22 0c0.21,3.47 0.32,6.51 0.32,9.14l0 19.46 -7.15 0 0 -35.2 11.62 0 7.2 20.86c0.57,1.67 0.99,3.35 1.25,5.04l0.15 0c0.43,-1.95 0.9,-3.65 1.4,-5.09l7.19 -20.81 11.32 0 0 35.2z"/>
  <polygon class="fil7" points="419.69,295.88 414.82,295.88 414.82,274.29 419.69,274.29 "/>
  <path id="1" class="fil7" d="M439.02 295.88l-4.74 0 0 -8.57c0,-2.39 -0.86,-3.58 -2.56,-3.58 -0.83,0 -1.5,0.31 -2.03,0.95 -0.54,0.63 -0.81,1.44 -0.81,2.41l0 8.79 -4.75 0 0 -15.42 4.75 0 0 2.44 0.07 0c1.13,-1.88 2.78,-2.81 4.95,-2.81 3.41,0 5.12,2.11 5.12,6.35l0 9.44z"/>
  <path id="2" class="fil7" d="M441.77 295.47l0 -3.85c0.79,0.47 1.57,0.82 2.35,1.05 0.77,0.24 1.51,0.35 2.2,0.35 0.85,0 1.51,-0.11 2,-0.35 0.49,-0.23 0.73,-0.58 0.73,-1.05 0,-0.3 -0.11,-0.55 -0.33,-0.75 -0.22,-0.21 -0.51,-0.38 -0.86,-0.53 -0.34,-0.15 -0.72,-0.29 -1.13,-0.41 -0.41,-0.12 -0.81,-0.25 -1.19,-0.4 -0.61,-0.23 -1.15,-0.48 -1.62,-0.75 -0.47,-0.26 -0.86,-0.57 -1.17,-0.93 -0.32,-0.35 -0.56,-0.75 -0.72,-1.22 -0.17,-0.46 -0.26,-1 -0.26,-1.63 0,-0.87 0.19,-1.61 0.57,-2.23 0.37,-0.63 0.88,-1.14 1.51,-1.53 0.62,-0.4 1.34,-0.69 2.15,-0.88 0.81,-0.18 1.65,-0.27 2.52,-0.27 0.69,0 1.37,0.05 2.08,0.16 0.7,0.1 1.4,0.25 2.08,0.45l0 3.68c-0.61,-0.36 -1.25,-0.62 -1.94,-0.79 -0.69,-0.18 -1.36,-0.27 -2.02,-0.27 -0.32,0 -0.61,0.03 -0.88,0.09 -0.28,0.05 -0.53,0.13 -0.74,0.24 -0.21,0.1 -0.37,0.24 -0.49,0.4 -0.12,0.17 -0.18,0.36 -0.18,0.57 0,0.28 0.09,0.52 0.27,0.72 0.18,0.2 0.41,0.37 0.71,0.52 0.29,0.15 0.61,0.28 0.97,0.39 0.35,0.12 0.71,0.24 1.06,0.35 0.63,0.23 1.21,0.47 1.72,0.73 0.51,0.26 0.95,0.56 1.31,0.92 0.37,0.35 0.65,0.76 0.85,1.23 0.19,0.48 0.29,1.04 0.29,1.69 0,0.91 -0.2,1.69 -0.6,2.34 -0.39,0.65 -0.92,1.17 -1.57,1.58 -0.66,0.41 -1.42,0.7 -2.28,0.89 -0.86,0.18 -1.75,0.28 -2.67,0.28 -1.7,0 -3.27,-0.27 -4.72,-0.79z"/>
  <path id="3" class="fil7" d="M465.67 295.7c-0.7,0.37 -1.76,0.56 -3.17,0.56 -3.35,0 -5.03,-1.75 -5.03,-5.23l0 -7.06 -2.5 0 0 -3.51 2.5 0 0 -3.32 4.74 -1.36 0 4.68 3.46 0 0 3.51 -3.46 0 0 6.24c0,1.6 0.64,2.4 1.91,2.4 0.51,0 1.02,-0.14 1.55,-0.43l0 3.52z"/>
  <path id="4" class="fil7" d="M478.41 284.75c-0.57,-0.31 -1.24,-0.46 -2,-0.46 -1.03,0 -1.84,0.38 -2.43,1.13 -0.58,0.76 -0.87,1.79 -0.87,3.1l0 7.36 -4.75 0 0 -15.42 4.75 0 0 2.86 0.06 0c0.76,-2.09 2.11,-3.13 4.07,-3.13 0.5,0 0.89,0.06 1.17,0.18l0 4.38z"/>
  <path id="5" class="fil7" d="M495.36 295.88l-4.74 0 0 -2.35 -0.07 0c-1.18,1.82 -2.75,2.73 -4.71,2.73 -3.58,0 -5.37,-2.17 -5.37,-6.49l0 -9.31 4.75 0 0 8.88c0,2.18 0.86,3.27 2.59,3.27 0.85,0 1.53,-0.3 2.05,-0.89 0.51,-0.6 0.76,-1.41 0.76,-2.43l0 -8.83 4.74 0 0 15.42z"/>
  <path id="6" class="fil7" d="M511.06 295.33c-1.08,0.62 -2.63,0.93 -4.66,0.93 -2.36,0 -4.28,-0.72 -5.75,-2.16 -1.46,-1.43 -2.2,-3.28 -2.2,-5.55 0,-2.62 0.79,-4.69 2.36,-6.2 1.57,-1.51 3.67,-2.26 6.3,-2.26 1.82,0 3.13,0.24 3.95,0.72l0 4.04c-1,-0.75 -2.11,-1.12 -3.33,-1.12 -1.37,0 -2.45,0.4 -3.25,1.2 -0.79,0.79 -1.2,1.9 -1.2,3.3 0,1.36 0.39,2.44 1.15,3.22 0.76,0.78 1.81,1.16 3.15,1.16 1.18,0 2.34,-0.37 3.48,-1.11l0 3.83z"/>
  <path id="7" class="fil7" d="M525.86 295.33c-1.08,0.62 -2.63,0.93 -4.65,0.93 -2.37,0 -4.29,-0.72 -5.75,-2.16 -1.47,-1.43 -2.2,-3.28 -2.2,-5.55 0,-2.62 0.78,-4.69 2.35,-6.2 1.57,-1.51 3.67,-2.26 6.31,-2.26 1.81,0 3.13,0.24 3.94,0.72l0 4.04c-0.99,-0.75 -2.1,-1.12 -3.33,-1.12 -1.36,0 -2.44,0.4 -3.25,1.2 -0.79,0.79 -1.19,1.9 -1.19,3.3 0,1.36 0.38,2.44 1.14,3.22 0.76,0.78 1.82,1.16 3.15,1.16 1.19,0 2.34,-0.37 3.48,-1.11l0 3.83z"/>
  <path id="8" class="fil7" d="M531.38 278.02c-0.8,0 -1.46,-0.24 -1.97,-0.71 -0.51,-0.48 -0.77,-1.06 -0.77,-1.76 0,-0.71 0.26,-1.29 0.77,-1.74 0.51,-0.46 1.17,-0.68 1.97,-0.68 0.82,0 1.48,0.22 1.99,0.68 0.5,0.45 0.76,1.03 0.76,1.74 0,0.72 -0.26,1.32 -0.76,1.78 -0.51,0.46 -1.17,0.69 -1.99,0.69zm2.35 17.86l-4.75 0 0 -15.42 4.75 0 0 15.42z"/>
  <path id="9" class="fil7" d="M545.08 296.26c-2.56,0 -4.58,-0.72 -6.05,-2.16 -1.47,-1.44 -2.21,-3.4 -2.21,-5.87 0,-2.55 0.76,-4.55 2.29,-5.98 1.52,-1.44 3.59,-2.16 6.19,-2.16 2.56,0 4.56,0.72 6.02,2.16 1.45,1.43 2.18,3.34 2.18,5.71 0,2.56 -0.75,4.59 -2.25,6.07 -1.5,1.49 -3.55,2.23 -6.17,2.23zm0.13 -12.53c-1.13,0 -2,0.39 -2.62,1.16 -0.62,0.77 -0.94,1.87 -0.94,3.28 0,2.96 1.2,4.44 3.59,4.44 2.28,0 3.42,-1.52 3.42,-4.56 0,-2.88 -1.15,-4.32 -3.45,-4.32z"/>
  <path id="10" class="fil7" d="M571.48 295.88l-4.74 0 0 -8.57c0,-2.39 -0.85,-3.58 -2.56,-3.58 -0.82,0 -1.5,0.31 -2.03,0.95 -0.54,0.63 -0.8,1.44 -0.8,2.41l0 8.79 -4.76 0 0 -15.42 4.76 0 0 2.44 0.06 0c1.13,-1.88 2.78,-2.81 4.95,-2.81 3.42,0 5.12,2.11 5.12,6.35l0 9.44z"/>
  <path id="11" class="fil7" d="M589.1 289.53l-10.06 0c0.16,2.23 1.58,3.35 4.23,3.35 1.7,0 3.19,-0.4 4.47,-1.2l0 3.44c-1.42,0.76 -3.27,1.14 -5.55,1.14 -2.49,0 -4.42,-0.69 -5.8,-2.08 -1.37,-1.37 -2.06,-3.3 -2.06,-5.77 0,-2.56 0.74,-4.59 2.23,-6.08 1.49,-1.5 3.31,-2.24 5.48,-2.24 2.25,0 3.99,0.66 5.22,2 1.22,1.33 1.84,3.15 1.84,5.43l0 2.01zm-4.41 -2.93c0,-2.2 -0.89,-3.31 -2.68,-3.31 -0.76,0 -1.43,0.32 -1.98,0.95 -0.56,0.63 -0.89,1.42 -1.02,2.36l5.68 0z"/>
  <path id="12" class="fil7" d="M590.92 295.47l0 -3.85c0.79,0.47 1.57,0.82 2.34,1.05 0.78,0.24 1.51,0.35 2.21,0.35 0.84,0 1.51,-0.11 1.99,-0.35 0.49,-0.23 0.73,-0.58 0.73,-1.05 0,-0.3 -0.11,-0.55 -0.33,-0.75 -0.22,-0.21 -0.5,-0.38 -0.85,-0.53 -0.34,-0.15 -0.72,-0.29 -1.14,-0.41 -0.41,-0.12 -0.8,-0.25 -1.18,-0.4 -0.61,-0.23 -1.15,-0.48 -1.62,-0.75 -0.47,-0.26 -0.86,-0.57 -1.18,-0.93 -0.31,-0.35 -0.55,-0.75 -0.72,-1.22 -0.16,-0.46 -0.25,-1 -0.25,-1.63 0,-0.87 0.19,-1.61 0.57,-2.23 0.37,-0.63 0.87,-1.14 1.5,-1.53 0.63,-0.4 1.35,-0.69 2.16,-0.88 0.8,-0.18 1.64,-0.27 2.52,-0.27 0.68,0 1.37,0.05 2.07,0.16 0.71,0.1 1.4,0.25 2.09,0.45l0 3.68c-0.61,-0.36 -1.25,-0.62 -1.94,-0.79 -0.69,-0.18 -1.36,-0.27 -2.03,-0.27 -0.31,0 -0.6,0.03 -0.88,0.09 -0.27,0.05 -0.52,0.13 -0.73,0.24 -0.21,0.1 -0.38,0.24 -0.49,0.4 -0.13,0.17 -0.18,0.36 -0.18,0.57 0,0.28 0.08,0.52 0.26,0.72 0.19,0.2 0.42,0.37 0.71,0.52 0.3,0.15 0.62,0.28 0.97,0.39 0.36,0.12 0.71,0.24 1.07,0.35 0.63,0.23 1.2,0.47 1.72,0.73 0.5,0.26 0.95,0.56 1.31,0.92 0.37,0.35 0.65,0.76 0.84,1.23 0.2,0.48 0.3,1.04 0.3,1.69 0,0.91 -0.2,1.69 -0.6,2.34 -0.4,0.65 -0.92,1.17 -1.58,1.58 -0.66,0.41 -1.42,0.7 -2.27,0.89 -0.86,0.18 -1.75,0.28 -2.68,0.28 -1.69,0 -3.26,-0.27 -4.71,-0.79z"/>
  <polygon class="fil4" points="596.77,130.63 596.77,106.7 601.85,106.7 601.85,130.63 "/>
  <path id="1" class="fil4" d="M624.36 130.63l-5 0 0 -10.69c0,-1.31 -0.23,-2.31 -0.7,-2.97 -0.47,-0.66 -1.21,-0.99 -2.24,-0.99 -1.39,0 -2.4,0.47 -3.02,1.4 -0.62,0.93 -0.93,2.48 -0.93,4.64l0 8.61 -4.99 0 0 -18.3 3.81 0 0.67 2.35 0.28 0c0.55,-0.89 1.32,-1.56 2.3,-2.01 0.97,-0.45 2.08,-0.68 3.32,-0.68 2.13,0 3.74,0.58 4.85,1.73 1.1,1.15 1.65,2.81 1.65,4.98l0 11.93z"/>
  <path id="2" class="fil4" d="M642.26 125.2c0,1.88 -0.64,3.31 -1.95,4.29 -1.3,0.98 -3.25,1.48 -5.85,1.48 -1.33,0 -2.46,-0.09 -3.4,-0.27 -0.94,-0.19 -1.82,-0.45 -2.64,-0.8l0 -4.12c0.93,0.43 1.97,0.8 3.13,1.09 1.17,0.3 2.19,0.44 3.07,0.44 1.82,0 2.72,-0.52 2.72,-1.57 0,-0.39 -0.12,-0.71 -0.36,-0.96 -0.24,-0.24 -0.66,-0.52 -1.24,-0.84 -0.59,-0.3 -1.38,-0.67 -2.36,-1.09 -1.41,-0.58 -2.44,-1.13 -3.1,-1.63 -0.66,-0.51 -1.14,-1.08 -1.44,-1.73 -0.3,-0.65 -0.45,-1.45 -0.45,-2.4 0,-1.62 0.63,-2.88 1.89,-3.77 1.26,-0.88 3.04,-1.33 5.36,-1.33 2.2,0 4.34,0.48 6.43,1.44l-1.51 3.59c-0.91,-0.39 -1.77,-0.71 -2.56,-0.96 -0.8,-0.26 -1.61,-0.38 -2.44,-0.38 -1.48,0 -2.21,0.4 -2.21,1.2 0,0.44 0.24,0.83 0.71,1.16 0.48,0.33 1.52,0.81 3.12,1.46 1.42,0.58 2.47,1.12 3.14,1.62 0.66,0.51 1.16,1.08 1.47,1.73 0.32,0.66 0.47,1.45 0.47,2.35z"/>
  <path id="3" class="fil4" d="M653.87 126.98c0.87,0 1.92,-0.19 3.14,-0.58l0 3.73c-1.24,0.56 -2.77,0.84 -4.58,0.84 -2,0 -3.45,-0.51 -4.36,-1.52 -0.91,-1.01 -1.37,-2.52 -1.37,-4.54l0 -8.83 -2.39 0 0 -2.11 2.75 -1.67 1.44 -3.86 3.19 0 0 3.89 5.13 0 0 3.75 -5.13 0 0 8.82c0,0.71 0.2,1.23 0.6,1.57 0.4,0.34 0.92,0.51 1.58,0.51z"/>
  <path id="4" class="fil4" d="M670.92 111.99c0.67,0 1.24,0.05 1.68,0.15l-0.37 4.68c-0.41,-0.11 -0.89,-0.16 -1.48,-0.16 -1.59,0 -2.83,0.41 -3.72,1.23 -0.88,0.81 -1.33,1.96 -1.33,3.43l0 9.31 -4.99 0 0 -18.3 3.78 0 0.73 3.08 0.25 0c0.57,-1.02 1.34,-1.85 2.3,-2.48 0.96,-0.62 2.01,-0.94 3.15,-0.94z"/>
  <path id="5" class="fil4" d="M688.89 130.63l-0.67 -2.34 -0.26 0c-0.54,0.85 -1.3,1.51 -2.28,1.98 -0.98,0.46 -2.1,0.7 -3.35,0.7 -2.15,0 -3.77,-0.58 -4.86,-1.73 -1.09,-1.15 -1.64,-2.81 -1.64,-4.97l0 -11.94 5 0 0 10.69c0,1.31 0.23,2.31 0.7,2.97 0.47,0.66 1.21,0.99 2.24,0.99 1.39,0 2.4,-0.47 3.02,-1.4 0.62,-0.94 0.94,-2.48 0.94,-4.64l0 -8.61 4.99 0 0 18.3 -3.83 0z"/>
  <path id="6" class="fil4" d="M705.39 130.97c-5.7,0 -8.54,-3.13 -8.54,-9.38 0,-3.12 0.77,-5.49 2.32,-7.13 1.55,-1.64 3.77,-2.47 6.66,-2.47 2.11,0 4.01,0.42 5.69,1.24l-1.47 3.86c-0.79,-0.31 -1.51,-0.57 -2.19,-0.77 -0.68,-0.2 -1.35,-0.3 -2.03,-0.3 -2.6,0 -3.89,1.84 -3.89,5.53 0,3.57 1.29,5.36 3.89,5.36 0.96,0 1.85,-0.13 2.67,-0.39 0.81,-0.25 1.63,-0.65 2.45,-1.2l0 4.28c-0.8,0.52 -1.62,0.87 -2.45,1.07 -0.82,0.2 -1.86,0.3 -3.11,0.3z"/>
  <path id="7" class="fil4" d="M722.62 130.97c-5.69,0 -8.54,-3.13 -8.54,-9.38 0,-3.12 0.78,-5.49 2.32,-7.13 1.56,-1.64 3.77,-2.47 6.66,-2.47 2.12,0 4.02,0.42 5.7,1.24l-1.47 3.86c-0.79,-0.31 -1.52,-0.57 -2.19,-0.77 -0.68,-0.2 -1.36,-0.3 -2.03,-0.3 -2.6,0 -3.9,1.84 -3.9,5.53 0,3.57 1.3,5.36 3.9,5.36 0.95,0 1.84,-0.13 2.66,-0.39 0.82,-0.25 1.64,-0.65 2.45,-1.2l0 4.28c-0.8,0.52 -1.62,0.87 -2.44,1.07 -0.82,0.2 -1.86,0.3 -3.12,0.3z"/>
  <path id="8" class="fil4" d="M732.22 107.59c0,-1.62 0.9,-2.43 2.71,-2.43 1.81,0 2.72,0.81 2.72,2.43 0,0.78 -0.23,1.38 -0.68,1.81 -0.45,0.43 -1.13,0.65 -2.04,0.65 -1.81,0 -2.71,-0.82 -2.71,-2.46zm5.2 23.04l-4.99 0 0 -18.3 4.99 0 0 18.3z"/>
  <path id="9" class="fil4" d="M746.64 121.45c0,1.81 0.29,3.18 0.89,4.1 0.59,0.93 1.56,1.39 2.9,1.39 1.33,0 2.28,-0.45 2.87,-1.38 0.58,-0.92 0.87,-2.29 0.87,-4.11 0,-1.81 -0.29,-3.17 -0.88,-4.08 -0.59,-0.9 -1.55,-1.35 -2.89,-1.35 -1.33,0 -2.29,0.45 -2.88,1.35 -0.59,0.9 -0.88,2.26 -0.88,4.08zm12.64 0.01c0,2.98 -0.78,5.3 -2.35,6.99 -1.57,1.68 -3.76,2.52 -6.57,2.52 -1.75,0 -3.3,-0.39 -4.64,-1.16 -1.35,-0.77 -2.37,-1.87 -3.09,-3.31 -0.72,-1.44 -1.08,-3.13 -1.08,-5.04 0,-3 0.77,-5.32 2.33,-6.98 1.57,-1.66 3.76,-2.49 6.58,-2.49 1.76,0 3.31,0.38 4.65,1.15 1.34,0.76 2.37,1.86 3.09,3.29 0.72,1.43 1.08,3.11 1.08,5.03z"/>
  <path id="10" class="fil4" d="M780.3 130.63l-5 0 0 -10.69c0,-1.31 -0.23,-2.31 -0.7,-2.97 -0.47,-0.66 -1.21,-0.99 -2.24,-0.99 -1.39,0 -2.4,0.47 -3.02,1.4 -0.62,0.93 -0.94,2.48 -0.94,4.64l0 8.61 -4.99 0 0 -18.3 3.81 0 0.67 2.35 0.28 0c0.56,-0.89 1.33,-1.56 2.3,-2.01 0.98,-0.45 2.09,-0.68 3.33,-0.68 2.13,0 3.74,0.58 4.84,1.73 1.1,1.15 1.66,2.81 1.66,4.98l0 11.93z"/>
  <path id="11" class="fil4" d="M793.02 115.55c-1.06,0 -1.89,0.33 -2.49,1 -0.6,0.67 -0.94,1.62 -1.03,2.85l7.01 0c-0.02,-1.23 -0.34,-2.18 -0.97,-2.85 -0.62,-0.67 -1.46,-1 -2.52,-1zm0.71 15.42c-2.95,0 -5.26,-0.82 -6.91,-2.45 -1.66,-1.62 -2.49,-3.92 -2.49,-6.9 0,-3.07 0.76,-5.44 2.3,-7.11 1.53,-1.68 3.65,-2.52 6.36,-2.52 2.58,0 4.6,0.74 6.04,2.21 1.44,1.48 2.16,3.5 2.16,6.1l0 2.42 -11.81 0c0.06,1.42 0.48,2.53 1.26,3.33 0.79,0.8 1.9,1.2 3.31,1.2 1.11,0 2.15,-0.12 3.13,-0.35 0.98,-0.23 2.01,-0.59 3.08,-1.1l0 3.87c-0.88,0.44 -1.81,0.77 -2.8,0.98 -0.99,0.21 -2.2,0.32 -3.63,0.32z"/>
  <path id="12" class="fil4" d="M818 125.2c0,1.88 -0.64,3.31 -1.95,4.29 -1.3,0.98 -3.25,1.48 -5.85,1.48 -1.33,0 -2.46,-0.09 -3.4,-0.27 -0.94,-0.19 -1.82,-0.45 -2.64,-0.8l0 -4.12c0.93,0.43 1.97,0.8 3.14,1.09 1.16,0.3 2.18,0.44 3.06,0.44 1.82,0 2.72,-0.52 2.72,-1.57 0,-0.39 -0.12,-0.71 -0.36,-0.96 -0.24,-0.24 -0.65,-0.52 -1.24,-0.84 -0.59,-0.3 -1.37,-0.67 -2.36,-1.09 -1.41,-0.58 -2.44,-1.13 -3.1,-1.63 -0.66,-0.51 -1.14,-1.08 -1.44,-1.73 -0.3,-0.65 -0.45,-1.45 -0.45,-2.4 0,-1.62 0.63,-2.88 1.89,-3.77 1.26,-0.88 3.05,-1.33 5.36,-1.33 2.21,0 4.35,0.48 6.43,1.44l-1.5 3.59c-0.92,-0.39 -1.77,-0.71 -2.57,-0.96 -0.8,-0.26 -1.61,-0.38 -2.44,-0.38 -1.47,0 -2.21,0.4 -2.21,1.2 0,0.44 0.24,0.83 0.71,1.16 0.48,0.33 1.52,0.81 3.12,1.46 1.43,0.58 2.48,1.12 3.14,1.62 0.67,0.51 1.16,1.08 1.48,1.73 0.31,0.66 0.46,1.45 0.46,2.35z"/>
  <polygon class="fil9" points="691.97,1069.17 691.97,1180.12 1113.98,1180.12 1113.98,1069.17 "/>
  <path class="fil9" d="M692.98 1070.17l0 108.94 419.99 0 0 -108.94 -419.99 0zm-1.01 -2.01l422.01 0 0.67 0.34 0.33 0.67 0 110.95 -0.33 0.67 -0.67 0.33 -422.01 0 -0.67 -0.33 -0.33 -0.67 0 -110.95 0.33 -0.67 0.67 -0.34 0 0z"/>
  <polygon class="fil10" points="680.91,1058.11 680.91,1169.06 1102.92,1169.06 1102.92,1058.11 "/>
  <polygon class="fil0 str5" points="680.91,1058.11 1102.92,1058.11 1102.92,1169.06 680.91,1169.06 "/>
  <path class="fil7" d="M748.18 1113.75l-7.83 0 0 -21.07c0,-2.27 0.1,-4.78 0.29,-7.53l-0.19 0c-0.41,2.16 -0.78,3.71 -1.11,4.67l-8.24 23.93 -6.49 0 -8.39 -23.69c-0.23,-0.64 -0.6,-2.28 -1.11,-4.91l-0.22 0c0.21,3.47 0.32,6.51 0.32,9.13l0 19.47 -7.15 0 0 -35.2 11.62 0 7.19 20.86c0.57,1.67 0.99,3.35 1.25,5.04l0.15 0c0.44,-1.95 0.91,-3.65 1.4,-5.09l7.19 -20.81 11.32 0 0 35.2z"/>
  <polygon id="1" class="fil7" points="777.3,1113.75 756.18,1113.75 756.18,1078.55 776.48,1078.55 776.48,1085 764.11,1085 764.11,1092.83 775.63,1092.83 775.63,1099.26 764.11,1099.26 764.11,1107.31 777.3,1107.31 "/>
  <path id="2" class="fil7" d="M823.06 1113.75l-7.84 0 0 -21.07c0,-2.27 0.1,-4.78 0.3,-7.53l-0.2 0c-0.41,2.16 -0.78,3.71 -1.1,4.67l-8.25 23.93 -6.49 0 -8.39 -23.69c-0.23,-0.64 -0.6,-2.28 -1.11,-4.91l-0.22 0c0.21,3.47 0.32,6.51 0.32,9.13l0 19.47 -7.15 0 0 -35.2 11.62 0 7.2 20.86c0.57,1.67 0.99,3.35 1.25,5.04l0.15 0c0.43,-1.95 0.9,-3.65 1.4,-5.09l7.19 -20.81 11.32 0 0 35.2z"/>
  <path id="3" class="fil7" d="M845.93 1114.36c-5.04,0 -9.15,-1.64 -12.32,-4.92 -3.18,-3.28 -4.76,-7.56 -4.76,-12.83 0,-5.56 1.61,-10.06 4.83,-13.5 3.23,-3.43 7.49,-5.16 12.81,-5.16 5.03,0 9.1,1.65 12.2,4.94 3.1,3.29 4.65,7.63 4.65,13.01 0,5.53 -1.61,10 -4.83,13.38 -3.21,3.39 -7.41,5.08 -12.58,5.08zm0.35 -29.58c-2.79,0 -5,1.04 -6.63,3.13 -1.64,2.09 -2.46,4.85 -2.46,8.28 0,3.49 0.82,6.25 2.46,8.28 1.63,2.03 3.78,3.05 6.43,3.05 2.74,0 4.9,-0.99 6.51,-2.96 1.6,-1.98 2.4,-4.71 2.4,-8.22 0,-3.65 -0.78,-6.49 -2.33,-8.52 -1.56,-2.03 -3.69,-3.04 -6.38,-3.04z"/>
  <path id="4" class="fil7" d="M898.72 1113.75l-9.11 0 -5.47 -9.06c-0.41,-0.69 -0.81,-1.3 -1.19,-1.84 -0.37,-0.54 -0.75,-1 -1.13,-1.38 -0.39,-0.39 -0.79,-0.68 -1.21,-0.89 -0.42,-0.2 -0.87,-0.3 -1.36,-0.3l-2.14 0 0 13.47 -7.93 0 0 -35.2 12.57 0c8.55,0 12.82,3.19 12.82,9.57 0,1.23 -0.19,2.36 -0.57,3.4 -0.38,1.04 -0.91,1.98 -1.59,2.81 -0.69,0.83 -1.52,1.55 -2.49,2.16 -0.98,0.61 -2.06,1.08 -3.26,1.42l0 0.1c0.53,0.17 1.03,0.43 1.52,0.8 0.5,0.37 0.97,0.79 1.43,1.29 0.46,0.49 0.9,1.02 1.31,1.58 0.42,0.56 0.8,1.12 1.14,1.66l6.66 10.41zm-21.61 -29.26l0 9.79 3.44 0c1.7,0 3.07,-0.49 4.1,-1.47 1.05,-1 1.57,-2.24 1.57,-3.71 0,-3.08 -1.84,-4.61 -5.53,-4.61l-3.58 0z"/>
  <polygon id="5" class="fil7" points="909.94,1113.75 902,1113.75 902,1078.55 909.94,1078.55 "/>
  <path id="6" class="fil7" d="M948.9 1113.75l-8.64 0 -2.51 -7.84 -12.52 0 -2.48 7.84 -8.6 0 12.82 -35.2 9.41 0 12.52 35.2zm-12.97 -13.92l-3.78 -11.83c-0.27,-0.89 -0.47,-1.95 -0.59,-3.17l-0.2 0c-0.08,1.03 -0.28,2.05 -0.61,3.07l-3.83 11.93 9.01 0z"/>
  <path id="7" class="fil7" d="M996.69 1113.75l-9.1 0 -5.48 -9.06c-0.41,-0.69 -0.8,-1.3 -1.18,-1.84 -0.38,-0.54 -0.75,-1 -1.14,-1.38 -0.38,-0.39 -0.79,-0.68 -1.2,-0.89 -0.42,-0.2 -0.88,-0.3 -1.36,-0.3l-2.14 0 0 13.47 -7.93 0 0 -35.2 12.57 0c8.54,0 12.82,3.19 12.82,9.57 0,1.23 -0.2,2.36 -0.57,3.4 -0.38,1.04 -0.91,1.98 -1.6,2.81 -0.68,0.83 -1.51,1.55 -2.48,2.16 -0.98,0.61 -2.07,1.08 -3.26,1.42l0 0.1c0.52,0.17 1.03,0.43 1.52,0.8 0.5,0.37 0.97,0.79 1.43,1.29 0.46,0.49 0.89,1.02 1.31,1.58 0.42,0.56 0.8,1.12 1.14,1.66l6.65 10.41zm-21.6 -29.26l0 9.79 3.44 0c1.7,0 3.06,-0.49 4.09,-1.47 1.05,-1 1.58,-2.24 1.58,-3.71 0,-3.08 -1.84,-4.61 -5.53,-4.61l-3.58 0z"/>
  <path id="8" class="fil7" d="M1030.94 1113.75l-8.64 0 -2.5 -7.84 -12.52 0 -2.48 7.84 -8.6 0 12.82 -35.2 9.4 0 12.52 35.2zm-12.96 -13.92l-3.78 -11.83c-0.28,-0.89 -0.48,-1.95 -0.59,-3.17l-0.2 0c-0.08,1.03 -0.28,2.05 -0.61,3.07l-3.83 11.93 9.01 0z"/>
  <path id="9" class="fil7" d="M1075.46 1113.75l-7.84 0 0 -21.07c0,-2.27 0.1,-4.78 0.3,-7.53l-0.2 0c-0.41,2.16 -0.78,3.71 -1.1,4.67l-8.25 23.93 -6.49 0 -8.39 -23.69c-0.23,-0.64 -0.6,-2.28 -1.11,-4.91l-0.22 0c0.21,3.47 0.32,6.51 0.32,9.13l0 19.47 -7.15 0 0 -35.2 11.62 0 7.2 20.86c0.57,1.67 0.99,3.35 1.25,5.04l0.15 0c0.43,-1.95 0.9,-3.65 1.4,-5.09l7.19 -20.81 11.32 0 0 35.2z"/>
  <path class="fil7" d="M852.31 1154.98l0 -21.59 7.66 0c7.67,0 11.5,3.5 11.5,10.52 0,3.36 -1.05,6.05 -3.14,8.06 -2.09,2.01 -4.88,3.01 -8.36,3.01l-7.66 0zm4.87 -17.64l0 13.69 2.41 0c2.11,0 3.76,-0.63 4.96,-1.89 1.2,-1.27 1.8,-2.99 1.8,-5.17 0,-2.06 -0.6,-3.68 -1.78,-4.85 -1.2,-1.18 -2.86,-1.78 -5.01,-1.78l-2.38 0z"/>
  <path id="1" class="fil7" d="M887.42 1154.98l-4.5 0 0 -2.22 -0.07 0c-1.03,1.73 -2.56,2.59 -4.59,2.59 -1.5,0 -2.67,-0.42 -3.53,-1.27 -0.86,-0.84 -1.29,-1.98 -1.29,-3.39 0,-2.99 1.78,-4.72 5.32,-5.18l4.19 -0.56c0,-1.68 -0.92,-2.53 -2.75,-2.53 -1.83,0 -3.58,0.55 -5.24,1.64l0 -3.58c0.67,-0.34 1.57,-0.64 2.72,-0.9 1.15,-0.27 2.2,-0.4 3.14,-0.4 4.4,0 6.6,2.2 6.6,6.58l0 9.22zm-4.47 -6.27l0 -1.03 -2.8 0.35c-1.55,0.21 -2.32,0.9 -2.32,2.1 0,0.54 0.18,0.99 0.56,1.33 0.38,0.35 0.89,0.52 1.53,0.52 0.89,0 1.62,-0.31 2.18,-0.92 0.56,-0.62 0.85,-1.4 0.85,-2.35z"/>
  <path id="2" class="fil7" d="M900.5 1154.8c-0.7,0.37 -1.76,0.55 -3.17,0.55 -3.35,0 -5.03,-1.74 -5.03,-5.22l0 -7.06 -2.5 0 0 -3.51 2.5 0 0 -3.33 4.74 -1.35 0 4.68 3.46 0 0 3.51 -3.46 0 0 6.23c0,1.61 0.64,2.41 1.91,2.41 0.5,0 1.02,-0.14 1.55,-0.44l0 3.53z"/>
  <path id="3" class="fil7" d="M910.41 1155.35c-2.57,0 -4.59,-0.72 -6.06,-2.15 -1.47,-1.44 -2.2,-3.4 -2.2,-5.87 0,-2.55 0.76,-4.55 2.28,-5.99 1.53,-1.44 3.6,-2.16 6.19,-2.16 2.56,0 4.57,0.72 6.03,2.16 1.45,1.44 2.18,3.35 2.18,5.72 0,2.56 -0.75,4.58 -2.25,6.07 -1.5,1.48 -3.56,2.22 -6.17,2.22zm0.13 -12.52c-1.13,0 -2,0.38 -2.63,1.15 -0.62,0.78 -0.93,1.88 -0.93,3.29 0,2.96 1.2,4.44 3.59,4.44 2.27,0 3.41,-1.52 3.41,-4.56 0,-2.88 -1.15,-4.32 -3.44,-4.32z"/>
  <path id="4" class="fil7" d="M920.91 1154.57l0 -3.85c0.78,0.47 1.57,0.82 2.34,1.05 0.78,0.23 1.51,0.35 2.21,0.35 0.84,0 1.51,-0.12 1.99,-0.35 0.49,-0.23 0.73,-0.58 0.73,-1.05 0,-0.31 -0.11,-0.56 -0.33,-0.76 -0.22,-0.2 -0.5,-0.37 -0.85,-0.52 -0.35,-0.15 -0.73,-0.29 -1.14,-0.41 -0.41,-0.12 -0.8,-0.26 -1.18,-0.4 -0.62,-0.24 -1.16,-0.49 -1.62,-0.75 -0.47,-0.27 -0.86,-0.57 -1.18,-0.93 -0.31,-0.35 -0.56,-0.75 -0.72,-1.22 -0.17,-0.46 -0.25,-1.01 -0.25,-1.64 0,-0.86 0.19,-1.61 0.56,-2.23 0.38,-0.62 0.88,-1.13 1.51,-1.52 0.63,-0.4 1.35,-0.69 2.15,-0.88 0.81,-0.18 1.65,-0.28 2.53,-0.28 0.68,0 1.37,0.06 2.07,0.16 0.71,0.11 1.4,0.26 2.08,0.46l0 3.68c-0.6,-0.36 -1.24,-0.62 -1.93,-0.8 -0.69,-0.17 -1.37,-0.26 -2.03,-0.26 -0.31,0 -0.61,0.03 -0.88,0.08 -0.28,0.06 -0.52,0.14 -0.73,0.25 -0.21,0.1 -0.38,0.23 -0.5,0.4 -0.12,0.17 -0.18,0.36 -0.18,0.57 0,0.27 0.09,0.52 0.27,0.72 0.19,0.2 0.42,0.37 0.71,0.52 0.29,0.14 0.62,0.27 0.97,0.39 0.36,0.12 0.71,0.23 1.07,0.35 0.63,0.22 1.2,0.46 1.71,0.73 0.51,0.26 0.95,0.56 1.32,0.92 0.36,0.35 0.65,0.76 0.84,1.23 0.2,0.47 0.29,1.03 0.29,1.69 0,0.91 -0.19,1.69 -0.59,2.34 -0.4,0.65 -0.92,1.17 -1.58,1.58 -0.66,0.4 -1.42,0.7 -2.28,0.89 -0.85,0.18 -1.74,0.27 -2.67,0.27 -1.7,0 -3.26,-0.26 -4.71,-0.78z"/>
  <polygon class="fil11" points="1019.79,755.43 1019.79,866.38 1336.21,866.38 1336.21,755.43 "/>
  <path class="fil6" d="M1077.48 829.84l-9.1 0 -5.48 -9.06c-0.41,-0.68 -0.8,-1.3 -1.18,-1.84 -0.38,-0.54 -0.75,-1 -1.14,-1.38 -0.38,-0.39 -0.79,-0.68 -1.2,-0.89 -0.42,-0.2 -0.88,-0.3 -1.36,-0.3l-2.14 0 0 13.47 -7.93 0 0 -35.2 12.57 0c8.54,0 12.82,3.19 12.82,9.57 0,1.23 -0.2,2.36 -0.57,3.4 -0.38,1.04 -0.91,1.98 -1.6,2.82 -0.68,0.83 -1.51,1.55 -2.48,2.15 -0.98,0.61 -2.07,1.08 -3.26,1.42l0 0.1c0.52,0.17 1.03,0.43 1.52,0.8 0.5,0.37 0.97,0.8 1.43,1.29 0.46,0.5 0.89,1.02 1.31,1.58 0.42,0.57 0.8,1.12 1.14,1.66l6.65 10.41zm-21.6 -29.26l0 9.8 3.44 0c1.7,0 3.06,-0.5 4.09,-1.48 1.05,-1 1.58,-2.24 1.58,-3.7 0,-3.09 -1.84,-4.62 -5.53,-4.62l-3.58 0z"/>
  <polygon id="1" class="fil6" points="1101.89,829.84 1080.77,829.84 1080.77,794.64 1101.07,794.64 1101.07,801.09 1088.71,801.09 1088.71,808.93 1100.22,808.93 1100.22,815.35 1088.71,815.35 1088.71,823.41 1101.89,823.41 "/>
  <path id="2" class="fil6" d="M1136.43 827.49c-3.44,1.97 -7.71,2.96 -12.82,2.96 -5.66,0 -10.13,-1.56 -13.39,-4.7 -3.26,-3.13 -4.9,-7.45 -4.9,-12.94 0,-5.54 1.79,-10.04 5.36,-13.53 3.56,-3.49 8.31,-5.24 14.23,-5.24 3.73,0 7.03,0.52 9.87,1.55l0 7.44c-2.72,-1.57 -6.04,-2.35 -9.97,-2.35 -3.29,0 -5.96,1.06 -8.03,3.2 -2.08,2.14 -3.11,4.99 -3.11,8.56 0,3.61 0.93,6.41 2.78,8.39 1.86,1.98 4.37,2.97 7.53,2.97 1.9,0 3.41,-0.27 4.51,-0.81l0 -6.87 -7.04 0 0 -6.34 14.98 0 0 17.71z"/>
  <polygon id="3" class="fil6" points="1151.21,829.84 1143.27,829.84 1143.27,794.64 1151.21,794.64 "/>
  <path id="4" class="fil6" d="M1157.59 828.49l0 -7.86c1.42,1.2 2.97,2.1 4.64,2.69 1.67,0.6 3.35,0.9 5.05,0.9 1.01,0 1.88,-0.09 2.62,-0.27 0.74,-0.18 1.36,-0.43 1.87,-0.75 0.5,-0.32 0.87,-0.7 1.11,-1.13 0.25,-0.43 0.37,-0.9 0.37,-1.41 0,-0.69 -0.19,-1.3 -0.59,-1.84 -0.39,-0.54 -0.93,-1.05 -1.61,-1.5 -0.68,-0.46 -1.48,-0.9 -2.42,-1.32 -0.93,-0.43 -1.93,-0.87 -3.02,-1.31 -2.74,-1.14 -4.8,-2.54 -6.15,-4.2 -1.35,-1.65 -2.02,-3.64 -2.02,-5.98 0,-1.84 0.37,-3.41 1.1,-4.73 0.74,-1.32 1.74,-2.4 3.01,-3.26 1.27,-0.84 2.74,-1.47 4.41,-1.87 1.67,-0.41 3.43,-0.61 5.3,-0.61 1.84,0 3.46,0.12 4.88,0.34 1.41,0.22 2.71,0.56 3.91,1.02l0 7.34c-0.59,-0.41 -1.23,-0.77 -1.92,-1.08 -0.7,-0.31 -1.42,-0.57 -2.16,-0.78 -0.73,-0.2 -1.46,-0.35 -2.19,-0.45 -0.73,-0.09 -1.42,-0.14 -2.07,-0.14 -0.91,0 -1.72,0.08 -2.46,0.25 -0.74,0.17 -1.36,0.42 -1.87,0.73 -0.5,0.31 -0.89,0.68 -1.18,1.11 -0.28,0.44 -0.41,0.92 -0.41,1.46 0,0.59 0.15,1.12 0.46,1.58 0.31,0.47 0.76,0.92 1.33,1.33 0.57,0.42 1.27,0.83 2.09,1.23 0.81,0.4 1.74,0.81 2.77,1.24 1.41,0.59 2.67,1.21 3.79,1.88 1.12,0.66 2.09,1.41 2.88,2.24 0.81,0.84 1.42,1.79 1.85,2.87 0.43,1.06 0.63,2.31 0.63,3.73 0,1.97 -0.36,3.62 -1.11,4.96 -0.74,1.33 -1.75,2.41 -3.03,3.23 -1.28,0.83 -2.76,1.43 -4.45,1.79 -1.7,0.36 -3.49,0.53 -5.37,0.53 -1.93,0 -3.77,-0.16 -5.51,-0.48 -1.74,-0.33 -3.26,-0.82 -4.53,-1.48z"/>
  <polygon id="5" class="fil6" points="1212.11,801.09 1202.07,801.09 1202.07,829.84 1194.11,829.84 1194.11,801.09 1184.13,801.09 1184.13,794.64 1212.11,794.64 "/>
  <path id="6" class="fil6" d="M1246.39 829.84l-9.11 0 -5.47 -9.06c-0.41,-0.68 -0.81,-1.3 -1.18,-1.84 -0.38,-0.54 -0.76,-1 -1.14,-1.38 -0.39,-0.39 -0.79,-0.68 -1.21,-0.89 -0.42,-0.2 -0.87,-0.3 -1.36,-0.3l-2.14 0 0 13.47 -7.93 0 0 -35.2 12.57 0c8.55,0 12.82,3.19 12.82,9.57 0,1.23 -0.19,2.36 -0.57,3.4 -0.38,1.04 -0.91,1.98 -1.59,2.82 -0.69,0.83 -1.52,1.55 -2.49,2.15 -0.98,0.61 -2.06,1.08 -3.26,1.42l0 0.1c0.53,0.17 1.03,0.43 1.52,0.8 0.5,0.37 0.97,0.8 1.43,1.29 0.46,0.5 0.9,1.02 1.31,1.58 0.42,0.57 0.8,1.12 1.14,1.66l6.66 10.41zm-21.61 -29.26l0 9.8 3.44 0c1.7,0 3.07,-0.5 4.1,-1.48 1.05,-1 1.57,-2.24 1.57,-3.7 0,-3.09 -1.84,-4.62 -5.53,-4.62l-3.58 0z"/>
  <path id="7" class="fil6" d="M1264.06 830.45c-5.04,0 -9.15,-1.64 -12.33,-4.92 -3.17,-3.28 -4.76,-7.55 -4.76,-12.83 0,-5.56 1.61,-10.06 4.84,-13.5 3.23,-3.43 7.49,-5.16 12.81,-5.16 5.03,0 9.09,1.65 12.19,4.94 3.1,3.29 4.66,7.63 4.66,13.01 0,5.53 -1.61,10 -4.83,13.38 -3.21,3.39 -7.41,5.08 -12.58,5.08zm0.34 -29.58c-2.78,0 -4.99,1.04 -6.62,3.14 -1.64,2.08 -2.46,4.84 -2.46,8.28 0,3.48 0.82,6.24 2.46,8.27 1.63,2.03 3.78,3.05 6.42,3.05 2.74,0 4.91,-0.99 6.51,-2.96 1.6,-1.98 2.41,-4.71 2.41,-8.21 0,-3.66 -0.78,-6.5 -2.33,-8.53 -1.56,-2.02 -3.69,-3.04 -6.39,-3.04z"/>
  <path id="8" class="fil6" d="M1285.69 828.49l0 -7.86c1.42,1.2 2.97,2.1 4.64,2.69 1.67,0.6 3.35,0.9 5.05,0.9 1.01,0 1.88,-0.09 2.62,-0.27 0.75,-0.18 1.37,-0.43 1.87,-0.75 0.5,-0.32 0.87,-0.7 1.11,-1.13 0.25,-0.43 0.37,-0.9 0.37,-1.41 0,-0.69 -0.19,-1.3 -0.59,-1.84 -0.39,-0.54 -0.93,-1.05 -1.6,-1.5 -0.68,-0.46 -1.49,-0.9 -2.43,-1.32 -0.93,-0.43 -1.93,-0.87 -3.01,-1.31 -2.75,-1.14 -4.8,-2.54 -6.15,-4.2 -1.35,-1.65 -2.02,-3.64 -2.02,-5.98 0,-1.84 0.36,-3.41 1.09,-4.73 0.74,-1.32 1.75,-2.4 3.01,-3.26 1.28,-0.84 2.74,-1.47 4.41,-1.87 1.67,-0.41 3.44,-0.61 5.31,-0.61 1.83,0 3.46,0.12 4.87,0.34 1.41,0.22 2.72,0.56 3.92,1.02l0 7.34c-0.6,-0.41 -1.24,-0.77 -1.93,-1.08 -0.7,-0.31 -1.42,-0.57 -2.16,-0.78 -0.72,-0.2 -1.46,-0.35 -2.19,-0.45 -0.73,-0.09 -1.42,-0.14 -2.07,-0.14 -0.91,0 -1.72,0.08 -2.46,0.25 -0.73,0.17 -1.35,0.42 -1.86,0.73 -0.51,0.31 -0.9,0.68 -1.19,1.11 -0.27,0.44 -0.41,0.92 -0.41,1.46 0,0.59 0.15,1.12 0.46,1.58 0.31,0.47 0.76,0.92 1.34,1.33 0.57,0.42 1.26,0.83 2.08,1.23 0.82,0.4 1.75,0.81 2.78,1.24 1.4,0.59 2.66,1.21 3.78,1.88 1.13,0.66 2.09,1.41 2.89,2.24 0.8,0.84 1.41,1.79 1.84,2.87 0.43,1.06 0.64,2.31 0.64,3.73 0,1.97 -0.37,3.62 -1.12,4.96 -0.74,1.33 -1.75,2.41 -3.03,3.23 -1.27,0.83 -2.76,1.43 -4.45,1.79 -1.7,0.36 -3.49,0.53 -5.37,0.53 -1.93,0 -3.76,-0.16 -5.51,-0.48 -1.74,-0.33 -3.26,-0.82 -4.53,-1.48z"/>
  <path class="fil12 str6" d="M1301.69 493.64l89.16 0 0 321.45 -33.52 0 0 -8.38 29.16 0 -4.02 4.36 0 -313.4 4.02 4.35 -84.8 0 0 -8.38zm4.02 16.76l-25.14 -12.73 25.14 -12.41 0 25.14zm55.64 313.07l-25.14 -12.4 25.14 -12.74 0 25.14z"/>
  <polygon class="fil13" points="804.93,660.23 805.27,651.18 806.61,642.47 808.62,634.09 811.64,626.05 815.32,618.67 819.68,611.3 824.71,604.59 830.41,598.56 836.44,592.86 843.14,587.83 850.18,583.48 857.89,579.79 865.94,576.77 874.32,574.76 883.03,573.42 891.75,573.08 900.8,573.42 909.18,574.76 917.56,576.77 925.6,579.79 933.31,583.48 940.35,587.83 947.05,592.86 953.42,598.56 958.78,604.59 963.81,611.3 968.17,618.67 971.86,626.05 974.87,634.09 976.89,642.47 978.23,651.18 978.9,660.23 978.23,668.95 976.89,677.66 974.87,686.04 971.86,694.09 968.17,701.8 963.81,708.84 958.78,715.54 953.42,721.57 947.05,727.27 940.35,732.3 933.31,736.66 925.6,740.34 917.56,743.36 909.18,745.37 900.8,746.71 891.75,747.38 883.03,746.71 874.32,745.37 865.94,743.36 857.89,740.34 850.18,736.66 843.14,732.3 836.44,727.27 830.41,721.57 824.71,715.54 819.68,708.84 815.32,701.8 811.64,694.09 808.62,686.04 806.61,677.66 805.27,668.95 "/>
  <path class="fil6" d="M890.62 663.76c0,10.57 -4.93,15.86 -14.78,15.86 -9.56,0 -14.34,-5.17 -14.34,-15.49l0 -20.33 7.96 0 0 20.42c0,5.7 2.22,8.55 6.67,8.55 4.37,0 6.56,-2.75 6.56,-8.25l0 -20.72 7.93 0 0 19.96z"/>
  <path id="1" class="fil6" d="M923.51 677.76c-2.56,1.24 -5.92,1.86 -10.06,1.86 -5.4,0 -9.65,-1.59 -12.74,-4.76 -3.1,-3.18 -4.64,-7.41 -4.64,-12.7 0,-5.63 1.73,-10.2 5.21,-13.7 3.48,-3.5 8,-5.25 13.54,-5.25 3.44,0 6.34,0.43 8.69,1.3l0 7.64c-2.35,-1.41 -5.03,-2.11 -8.05,-2.11 -3.3,0 -5.97,1.04 -8,3.11 -2.03,2.08 -3.04,4.9 -3.04,8.45 0,3.4 0.95,6.12 2.87,8.14 1.91,2.02 4.49,3.03 7.73,3.03 3.1,0 5.93,-0.75 8.49,-2.26l0 7.25z"/>
  <polygon class="fil1" points="418.08,375.03 427.08,375.03 430.5,388.46 433.94,375.03 442.9,375.03 442.9,397.11 437.32,397.11 437.32,380.28 433.01,397.11 427.96,397.11 423.66,380.28 423.66,397.11 418.08,397.11 "/>
  <polygon id="1" class="fil1" points="447.24,375.03 465.5,375.03 465.5,379.75 454.09,379.75 454.09,383.26 464.67,383.26 464.67,387.76 454.09,387.76 454.09,392.11 465.84,392.11 465.84,397.11 447.24,397.11 "/>
  <polygon id="2" class="fil1" points="469.45,375.03 478.45,375.03 481.88,388.46 485.32,375.03 494.28,375.03 494.28,397.11 488.69,397.11 488.69,380.28 484.39,397.11 479.33,397.11 475.03,380.28 475.03,397.11 469.45,397.11 "/>
  <path id="3" class="fil1" d="M497.76 386.08c0,-3.6 1,-6.41 3.01,-8.41 2.01,-2.01 4.8,-3.01 8.39,-3.01 3.67,0 6.51,0.99 8.5,2.95 1.98,1.98 2.98,4.74 2.98,8.29 0,2.58 -0.44,4.7 -1.3,6.35 -0.87,1.65 -2.13,2.93 -3.77,3.85 -1.65,0.92 -3.69,1.38 -6.14,1.38 -2.49,0 -4.55,-0.4 -6.19,-1.19 -1.63,-0.8 -2.95,-2.05 -3.96,-3.77 -1.02,-1.71 -1.52,-3.86 -1.52,-6.44zm6.81 0.02c0,2.23 0.42,3.83 1.24,4.8 0.84,0.97 1.97,1.46 3.4,1.46 1.46,0 2.6,-0.48 3.4,-1.43 0.81,-0.96 1.21,-2.66 1.21,-5.13 0,-2.08 -0.42,-3.6 -1.26,-4.55 -0.84,-0.96 -1.98,-1.44 -3.42,-1.44 -1.37,0 -2.48,0.49 -3.32,1.46 -0.83,0.97 -1.25,2.58 -1.25,4.83z"/>
  <path id="4" class="fil1" d="M524.4 397.11l0 -22.08 11.37 0c2.1,0 3.72,0.18 4.83,0.54 1.11,0.36 2.01,1.04 2.7,2.01 0.68,0.98 1.02,2.18 1.02,3.59 0,1.22 -0.26,2.28 -0.79,3.17 -0.52,0.9 -1.24,1.62 -2.16,2.17 -0.58,0.35 -1.38,0.64 -2.39,0.87 0.81,0.28 1.4,0.54 1.77,0.82 0.25,0.18 0.61,0.57 1.09,1.16 0.48,0.59 0.79,1.05 0.95,1.37l3.32 6.38 -7.71 0 -3.64 -6.73c-0.47,-0.88 -0.88,-1.44 -1.24,-1.71 -0.49,-0.33 -1.05,-0.5 -1.67,-0.5l-0.61 0 0 8.94 -6.84 0zm6.84 -13.11l2.89 0c0.31,0 0.91,-0.1 1.81,-0.3 0.45,-0.09 0.82,-0.32 1.1,-0.69 0.29,-0.38 0.43,-0.81 0.43,-1.29 0,-0.71 -0.22,-1.26 -0.67,-1.64 -0.46,-0.39 -1.31,-0.58 -2.55,-0.58l-3.01 0 0 4.5z"/>
  <polygon id="5" class="fil1" points="548.57,375.03 555.42,375.03 555.42,397.11 548.57,397.11 "/>
  <path id="6" class="fil1" d="M573.88 393.47l-7.73 0 -1.11 3.64 -6.97 0 8.31 -22.08 7.47 0 8.28 22.08 -7.15 0 -1.1 -3.64zm-1.45 -4.78l-2.41 -7.94 -2.42 7.94 4.83 0z"/>
  <path id="7" class="fil1" d="M594.66 375.03l10.14 0c1.99,0 3.61,0.27 4.84,0.81 1.23,0.55 2.24,1.32 3.05,2.33 0.8,1.02 1.38,2.2 1.74,3.55 0.37,1.34 0.55,2.77 0.55,4.27 0,2.36 -0.27,4.19 -0.81,5.49 -0.53,1.3 -1.28,2.39 -2.23,3.27 -0.96,0.88 -1.98,1.46 -3.08,1.76 -1.49,0.4 -2.85,0.6 -4.06,0.6l-10.14 0 0 -22.08zm6.81 4.99l0 12.06 1.68 0c1.43,0 2.44,-0.16 3.05,-0.47 0.6,-0.32 1.07,-0.87 1.42,-1.66 0.34,-0.79 0.51,-2.06 0.51,-3.83 0,-2.34 -0.38,-3.94 -1.14,-4.8 -0.77,-0.86 -2.04,-1.3 -3.81,-1.3l-1.71 0z"/>
  <polygon id="8" class="fil1" points="618.55,375.03 636.81,375.03 636.81,379.75 625.4,379.75 625.4,383.26 635.97,383.26 635.97,387.76 625.4,387.76 625.4,392.11 637.15,392.11 637.15,397.11 618.55,397.11 "/>
  <path class="fil1" d="M429.59 411.9l11.35 0c2.47,0 4.32,0.59 5.55,1.76 1.23,1.18 1.85,2.86 1.85,5.03 0,2.23 -0.67,3.98 -2.02,5.23 -1.34,1.26 -3.39,1.89 -6.14,1.89l-3.75 0 0 8.17 -6.84 0 0 -22.08zm6.84 9.44l1.69 0c1.32,0 2.25,-0.23 2.79,-0.69 0.53,-0.46 0.8,-1.05 0.8,-1.76 0,-0.69 -0.23,-1.28 -0.7,-1.76 -0.46,-0.49 -1.34,-0.73 -2.62,-0.73l-1.96 0 0 4.94z"/>
  <path id="1" class="fil1" d="M451.98 433.98l0 -22.08 11.37 0c2.11,0 3.72,0.18 4.83,0.55 1.12,0.35 2.02,1.03 2.7,2 0.68,0.99 1.02,2.18 1.02,3.59 0,1.23 -0.26,2.28 -0.78,3.17 -0.52,0.9 -1.24,1.62 -2.16,2.17 -0.58,0.35 -1.38,0.64 -2.4,0.88 0.81,0.27 1.41,0.54 1.78,0.81 0.24,0.18 0.61,0.57 1.09,1.16 0.47,0.59 0.79,1.05 0.95,1.37l3.31 6.38 -7.71 0 -3.64 -6.73c-0.46,-0.88 -0.88,-1.44 -1.24,-1.7 -0.49,-0.34 -1.05,-0.51 -1.67,-0.51l-0.6 0 0 8.94 -6.85 0zm6.85 -13.11l2.88 0c0.31,0 0.92,-0.1 1.81,-0.3 0.45,-0.09 0.82,-0.32 1.11,-0.69 0.28,-0.38 0.43,-0.8 0.43,-1.29 0,-0.71 -0.23,-1.26 -0.68,-1.64 -0.45,-0.39 -1.3,-0.58 -2.55,-0.58l-3 0 0 4.5z"/>
  <path id="2" class="fil1" d="M474.48 422.96c0,-3.61 1.01,-6.41 3.01,-8.42 2.01,-2.01 4.81,-3.01 8.4,-3.01 3.67,0 6.5,0.99 8.49,2.96 1.99,1.97 2.98,4.73 2.98,8.29 0,2.58 -0.43,4.69 -1.3,6.34 -0.86,1.65 -2.12,2.93 -3.76,3.85 -1.65,0.92 -3.69,1.38 -6.14,1.38 -2.49,0 -4.55,-0.4 -6.19,-1.19 -1.63,-0.79 -2.95,-2.05 -3.97,-3.76 -1.01,-1.72 -1.52,-3.86 -1.52,-6.44zm6.82 0.01c0,2.23 0.41,3.83 1.24,4.8 0.83,0.97 1.97,1.46 3.39,1.46 1.47,0 2.61,-0.48 3.41,-1.43 0.81,-0.95 1.21,-2.66 1.21,-5.13 0,-2.08 -0.42,-3.59 -1.26,-4.55 -0.84,-0.96 -1.98,-1.44 -3.42,-1.44 -1.38,0 -2.49,0.49 -3.32,1.46 -0.84,0.97 -1.25,2.58 -1.25,4.83z"/>
  <path id="3" class="fil1" d="M512.14 425.99l0 -4.59 10.54 0 0 9.39c-2.02,1.38 -3.8,2.32 -5.35,2.81 -1.55,0.5 -3.39,0.75 -5.52,0.75 -2.62,0 -4.76,-0.45 -6.41,-1.34 -1.65,-0.89 -2.93,-2.22 -3.84,-3.99 -0.91,-1.76 -1.36,-3.79 -1.36,-6.08 0,-2.41 0.5,-4.5 1.49,-6.29 0.99,-1.77 2.45,-3.13 4.37,-4.05 1.49,-0.72 3.51,-1.07 6.03,-1.07 2.44,0 4.27,0.22 5.47,0.66 1.22,0.45 2.22,1.13 3.02,2.06 0.79,0.93 1.39,2.11 1.79,3.53l-6.56 1.18c-0.28,-0.84 -0.73,-1.48 -1.38,-1.92 -0.65,-0.45 -1.47,-0.67 -2.48,-0.67 -1.49,0 -2.68,0.52 -3.57,1.56 -0.89,1.04 -1.33,2.68 -1.33,4.93 0,2.38 0.45,4.09 1.34,5.11 0.9,1.02 2.15,1.54 3.76,1.54 0.76,0 1.48,-0.11 2.18,-0.33 0.68,-0.22 1.48,-0.6 2.37,-1.12l0 -2.07 -4.56 0z"/>
  <path id="4" class="fil1" d="M526.81 433.98l0 -22.08 11.37 0c2.11,0 3.72,0.18 4.83,0.55 1.12,0.35 2.02,1.03 2.7,2 0.69,0.99 1.03,2.18 1.03,3.59 0,1.23 -0.27,2.28 -0.79,3.17 -0.52,0.9 -1.24,1.62 -2.16,2.17 -0.58,0.35 -1.38,0.64 -2.39,0.88 0.81,0.27 1.4,0.54 1.77,0.81 0.25,0.18 0.61,0.57 1.09,1.16 0.47,0.59 0.79,1.05 0.95,1.37l3.31 6.38 -7.71 0 -3.64 -6.73c-0.46,-0.88 -0.87,-1.44 -1.23,-1.7 -0.5,-0.34 -1.06,-0.51 -1.68,-0.51l-0.6 0 0 8.94 -6.85 0zm6.85 -13.11l2.88 0c0.31,0 0.92,-0.1 1.81,-0.3 0.46,-0.09 0.83,-0.32 1.11,-0.69 0.29,-0.38 0.43,-0.8 0.43,-1.29 0,-0.71 -0.23,-1.26 -0.68,-1.64 -0.45,-0.39 -1.3,-0.58 -2.55,-0.58l-3 0 0 4.5z"/>
  <path id="5" class="fil1" d="M564.29 430.34l-7.73 0 -1.11 3.64 -6.96 0 8.31 -22.08 7.47 0 8.27 22.08 -7.14 0 -1.11 -3.64zm-1.44 -4.78l-2.41 -7.93 -2.42 7.93 4.83 0z"/>
  <polygon id="6" class="fil1" points="574.63,411.9 583.63,411.9 587.06,425.34 590.5,411.9 599.46,411.9 599.46,433.98 593.88,433.98 593.88,417.15 589.57,433.98 584.51,433.98 580.21,417.15 580.21,433.98 574.63,433.98 "/>
  <path id="7" class="fil1" d="M617.38 430.34l-7.73 0 -1.11 3.64 -6.96 0 8.31 -22.08 7.47 0 8.27 22.08 -7.14 0 -1.11 -3.64zm-1.44 -4.78l-2.41 -7.93 -2.42 7.93 4.83 0z"/>
  <polygon class="fil8" points="1232.65,998.28 1241.65,998.28 1245.08,1011.72 1248.52,998.28 1257.48,998.28 1257.48,1020.36 1251.9,1020.36 1251.9,1003.53 1247.59,1020.36 1242.53,1020.36 1238.23,1003.53 1238.23,1020.36 1232.65,1020.36 "/>
  <polygon id="1" class="fil8" points="1261.82,998.28 1280.08,998.28 1280.08,1003 1268.67,1003 1268.67,1006.52 1279.24,1006.52 1279.24,1011.02 1268.67,1011.02 1268.67,1015.37 1280.41,1015.37 1280.41,1020.36 1261.82,1020.36 "/>
  <polygon id="2" class="fil8" points="1284.03,998.28 1293.03,998.28 1296.46,1011.72 1299.89,998.28 1308.85,998.28 1308.85,1020.36 1303.27,1020.36 1303.27,1003.53 1298.96,1020.36 1293.91,1020.36 1289.61,1003.53 1289.61,1020.36 1284.03,1020.36 "/>
  <path id="3" class="fil8" d="M1312.33 1009.34c0,-3.61 1,-6.41 3.01,-8.42 2.01,-2.01 4.81,-3.01 8.4,-3.01 3.67,0 6.5,0.99 8.49,2.96 1.99,1.97 2.98,4.74 2.98,8.29 0,2.58 -0.43,4.69 -1.3,6.34 -0.87,1.65 -2.13,2.93 -3.77,3.85 -1.64,0.92 -3.69,1.38 -6.14,1.38 -2.48,0 -4.55,-0.39 -6.18,-1.19 -1.63,-0.79 -2.96,-2.05 -3.97,-3.76 -1.01,-1.71 -1.52,-3.86 -1.52,-6.44zm6.82 0.01c0,2.23 0.41,3.83 1.24,4.8 0.83,0.97 1.96,1.46 3.39,1.46 1.47,0 2.61,-0.48 3.41,-1.43 0.81,-0.95 1.21,-2.66 1.21,-5.13 0,-2.08 -0.42,-3.59 -1.26,-4.55 -0.84,-0.96 -1.98,-1.44 -3.42,-1.44 -1.38,0 -2.49,0.49 -3.32,1.46 -0.84,0.97 -1.25,2.59 -1.25,4.83z"/>
  <path id="4" class="fil8" d="M1338.97 1020.36l0 -22.08 11.37 0c2.11,0 3.72,0.18 4.83,0.55 1.12,0.36 2.02,1.03 2.7,2.01 0.69,0.98 1.03,2.18 1.03,3.58 0,1.23 -0.27,2.29 -0.79,3.18 -0.52,0.89 -1.24,1.61 -2.16,2.16 -0.58,0.35 -1.38,0.65 -2.39,0.88 0.81,0.27 1.4,0.54 1.77,0.81 0.25,0.18 0.61,0.57 1.09,1.16 0.47,0.59 0.79,1.05 0.95,1.37l3.31 6.38 -7.71 0 -3.64 -6.73c-0.46,-0.87 -0.87,-1.44 -1.23,-1.7 -0.5,-0.34 -1.06,-0.51 -1.68,-0.51l-0.6 0 0 8.94 -6.85 0zm6.85 -13.1l2.88 0c0.31,0 0.92,-0.11 1.81,-0.31 0.46,-0.08 0.83,-0.32 1.11,-0.69 0.29,-0.38 0.43,-0.8 0.43,-1.29 0,-0.71 -0.23,-1.26 -0.68,-1.64 -0.45,-0.39 -1.3,-0.58 -2.55,-0.58l-3 0 0 4.51z"/>
  <polygon id="5" class="fil8" points="1363.15,998.28 1369.99,998.28 1369.99,1020.36 1363.15,1020.36 "/>
  <path id="6" class="fil8" d="M1388.45 1016.72l-7.73 0 -1.11 3.64 -6.96 0 8.31 -22.08 7.47 0 8.27 22.08 -7.14 0 -1.11 -3.64zm-1.44 -4.78l-2.41 -7.93 -2.42 7.93 4.83 0z"/>
  <path id="7" class="fil8" d="M1409.23 998.28l10.14 0c2,0 3.62,0.27 4.84,0.81 1.23,0.55 2.25,1.33 3.06,2.34 0.8,1.02 1.38,2.19 1.74,3.54 0.36,1.35 0.54,2.77 0.54,4.28 0,2.35 -0.26,4.18 -0.8,5.48 -0.54,1.3 -1.28,2.39 -2.24,3.27 -0.95,0.88 -1.98,1.47 -3.07,1.76 -1.5,0.4 -2.85,0.6 -4.07,0.6l-10.14 0 0 -22.08zm6.82 5l0 12.06 1.67 0c1.43,0 2.45,-0.16 3.06,-0.48 0.6,-0.32 1.07,-0.87 1.41,-1.65 0.35,-0.79 0.52,-2.07 0.52,-3.84 0,-2.34 -0.38,-3.93 -1.15,-4.8 -0.76,-0.86 -2.03,-1.29 -3.81,-1.29l-1.7 0z"/>
  <polygon id="8" class="fil8" points="1433.13,998.28 1451.38,998.28 1451.38,1003 1439.97,1003 1439.97,1006.52 1450.55,1006.52 1450.55,1011.02 1439.97,1011.02 1439.97,1015.37 1451.72,1015.37 1451.72,1020.36 1433.13,1020.36 "/>
  <path class="fil8" d="M1296.6 1035.43l10.14 0c2,0 3.61,0.27 4.84,0.81 1.23,0.54 2.25,1.32 3.06,2.33 0.8,1.02 1.38,2.2 1.74,3.54 0.36,1.35 0.54,2.77 0.54,4.28 0,2.36 -0.26,4.19 -0.8,5.49 -0.54,1.3 -1.28,2.39 -2.24,3.27 -0.95,0.88 -1.98,1.46 -3.07,1.75 -1.5,0.4 -2.85,0.6 -4.07,0.6l-10.14 0 0 -22.07zm6.82 4.99l0 12.06 1.67 0c1.43,0 2.45,-0.16 3.06,-0.47 0.6,-0.32 1.07,-0.87 1.41,-1.66 0.35,-0.79 0.52,-2.07 0.52,-3.83 0,-2.34 -0.38,-3.94 -1.15,-4.8 -0.76,-0.87 -2.03,-1.3 -3.81,-1.3l-1.7 0z"/>
  <path id="1" class="fil8" d="M1332.75 1053.87l-7.73 0 -1.11 3.63 -6.96 0 8.31 -22.07 7.47 0 8.27 22.07 -7.14 0 -1.11 -3.63zm-1.44 -4.78l-2.41 -7.94 -2.42 7.94 4.83 0z"/>
  <polygon id="2" class="fil8" points="1339.49,1035.43 1360.24,1035.43 1360.24,1040.88 1353.28,1040.88 1353.28,1057.5 1346.46,1057.5 1346.46,1040.88 1339.49,1040.88 "/>
  <path id="3" class="fil8" d="M1361.39 1046.48c0,-3.6 1,-6.41 3.01,-8.41 2.01,-2.01 4.8,-3.01 8.39,-3.01 3.68,0 6.51,0.98 8.5,2.95 1.99,1.97 2.98,4.74 2.98,8.29 0,2.58 -0.43,4.69 -1.3,6.34 -0.87,1.65 -2.13,2.94 -3.77,3.86 -1.64,0.92 -3.69,1.37 -6.14,1.37 -2.49,0 -4.55,-0.39 -6.18,-1.18 -1.63,-0.8 -2.96,-2.05 -3.97,-3.77 -1.01,-1.71 -1.52,-3.86 -1.52,-6.44zm6.81 0.02c0,2.22 0.42,3.83 1.25,4.8 0.83,0.97 1.96,1.46 3.39,1.46 1.46,0 2.6,-0.48 3.41,-1.43 0.8,-0.96 1.2,-2.67 1.2,-5.14 0,-2.07 -0.42,-3.59 -1.26,-4.55 -0.84,-0.96 -1.97,-1.43 -3.41,-1.43 -1.38,0 -2.49,0.48 -3.32,1.45 -0.84,0.98 -1.26,2.59 -1.26,4.84z"/>
  <path id="4" class="fil8" d="M1386.77 1050.2l6.47 -0.4c0.14,1.04 0.43,1.85 0.86,2.39 0.7,0.89 1.71,1.34 3.01,1.34 0.97,0 1.72,-0.23 2.25,-0.69 0.53,-0.45 0.79,-0.98 0.79,-1.58 0,-0.58 -0.25,-1.09 -0.75,-1.54 -0.49,-0.45 -1.66,-0.88 -3.48,-1.28 -2.99,-0.67 -5.12,-1.56 -6.39,-2.68 -1.29,-1.11 -1.93,-2.53 -1.93,-4.25 0,-1.14 0.33,-2.2 0.99,-3.21 0.65,-1.01 1.64,-1.81 2.96,-2.38 1.32,-0.58 3.13,-0.86 5.43,-0.86 2.82,0 4.97,0.52 6.45,1.57 1.48,1.05 2.36,2.72 2.64,5.01l-6.41 0.38c-0.17,-1 -0.53,-1.73 -1.08,-2.18 -0.55,-0.46 -1.3,-0.68 -2.26,-0.68 -0.8,0 -1.4,0.17 -1.8,0.5 -0.4,0.33 -0.6,0.75 -0.6,1.23 0,0.35 0.16,0.66 0.49,0.94 0.31,0.3 1.07,0.56 2.28,0.82 2.98,0.64 5.11,1.29 6.39,1.95 1.29,0.66 2.23,1.47 2.82,2.45 0.59,0.97 0.88,2.06 0.88,3.26 0,1.42 -0.39,2.72 -1.17,3.92 -0.79,1.19 -1.88,2.1 -3.29,2.72 -1.4,0.62 -3.17,0.92 -5.31,0.92 -3.75,0 -6.35,-0.72 -7.79,-2.16 -1.45,-1.45 -2.26,-3.28 -2.45,-5.51z"/>
  <path class="fil12" d="M1440.75 685.43l-23.47 0 0 -8.2c0,-4.17 0.95,-7.29 2.85,-9.38 1.91,-2.08 4.77,-3.12 8.59,-3.12 3.65,0 6.57,1.13 8.75,3.42 2.19,2.28 3.28,5.31 3.28,9.09l0 8.19zm-19.28 -5.12l15.11 0 0 -2.69c0,-2.34 -0.7,-4.18 -2.09,-5.51 -1.39,-1.33 -3.29,-2 -5.71,-2 -2.29,0 -4.08,0.66 -5.37,1.97 -1.29,1.32 -1.94,3.18 -1.94,5.58l0 2.65z"/>
  <path id="1" class="fil12" d="M1440.75 646.87l0 4.74 -2.49 0 0 0.07c0.96,0.58 1.68,1.3 2.17,2.16 0.49,0.86 0.73,1.84 0.73,2.93 0,1.53 -0.46,2.82 -1.37,3.87 -0.91,1.04 -2.18,1.57 -3.81,1.57 -1.59,0 -2.88,-0.52 -3.87,-1.57 -1,-1.04 -1.64,-2.65 -1.94,-4.84l-0.57 -4.22 -0.33 0c-0.88,0 -1.54,0.27 -1.99,0.82 -0.45,0.55 -0.67,1.3 -0.67,2.26 0,0.73 0.12,1.52 0.37,2.37 0.24,0.84 0.63,1.69 1.17,2.54l-2.97 1.79c-0.69,-1.13 -1.21,-2.27 -1.54,-3.42 -0.32,-1.15 -0.48,-2.4 -0.48,-3.74 0,-2.5 0.59,-4.35 1.8,-5.54 1.2,-1.19 3.01,-1.79 5.43,-1.79l10.36 0zm-6.97 4.71l-1.23 0 0.41 3.26c0.13,0.92 0.4,1.6 0.81,2.05 0.41,0.44 0.96,0.67 1.64,0.67 0.63,0 1.15,-0.22 1.56,-0.66 0.4,-0.43 0.6,-1.02 0.6,-1.77 0,-1.04 -0.36,-1.9 -1.08,-2.56 -0.72,-0.65 -1.62,-0.99 -2.71,-0.99z"/>
  <path id="2" class="fil12" d="M1440.47 631.88c0.23,0.52 0.4,1.11 0.51,1.75 0.12,0.64 0.18,1.29 0.18,1.94 0,1.84 -0.45,3.22 -1.34,4.16 -0.9,0.93 -2.23,1.4 -4.02,1.4l-8.5 0 -0.02 2.8 -3.7 0.01 0 -2.81 -3.88 0 -1.42 -5 5.3 0.02 0 -3.93 3.72 0 -0.02 3.91 8.22 0.02c0.7,0 1.2,-0.13 1.52,-0.41 0.32,-0.27 0.47,-0.7 0.45,-1.28 0.02,-0.29 -0.02,-0.57 -0.1,-0.84 -0.08,-0.27 -0.18,-0.51 -0.29,-0.74l3.39 -1z"/>
  <path id="3" class="fil12" d="M1441.16 620.93c0,2.82 -0.8,5.05 -2.41,6.67 -1.61,1.63 -3.77,2.44 -6.51,2.44 -2.85,-0.01 -5.08,-0.85 -6.68,-2.53 -1.6,-1.68 -2.4,-3.96 -2.4,-6.83 0,-2.83 0.8,-5.04 2.39,-6.64 1.6,-1.59 3.73,-2.39 6.39,-2.39 2.84,0 5.08,0.82 6.74,2.48 1.65,1.66 2.48,3.93 2.48,6.8zm-3.85 -0.18c0,-1.34 -0.44,-2.34 -1.33,-3.01 -0.88,-0.67 -2.19,-1 -3.94,-1 -1.65,0 -2.91,0.34 -3.76,1.01 -0.84,0.68 -1.26,1.69 -1.26,3.03 0,1.32 0.45,2.35 1.35,3.07 0.91,0.74 2.18,1.1 3.8,1.1 1.71,0 2.99,-0.35 3.85,-1.06 0.86,-0.71 1.29,-1.76 1.29,-3.14z"/>
  <path id="4" class="fil12" d="M1439.31 609.5l-3.36 -2.06c0.45,-0.57 0.83,-1.26 1.14,-2.05 0.31,-0.79 0.47,-1.67 0.47,-2.63 0,-0.73 -0.14,-1.33 -0.4,-1.79 -0.27,-0.47 -0.68,-0.7 -1.22,-0.7 -0.45,0 -0.8,0.18 -1.06,0.55 -0.25,0.35 -0.49,1.02 -0.7,1.99 -0.45,2.13 -1.09,3.65 -1.91,4.58 -0.82,0.93 -1.97,1.39 -3.45,1.39 -1.73,0 -3.1,-0.68 -4.13,-2.05 -1.03,-1.37 -1.53,-3.05 -1.53,-5.05 0,-1.04 0.13,-2.01 0.39,-2.92 0.26,-0.91 0.66,-1.78 1.19,-2.59l3.24 1.88c-0.43,0.69 -0.75,1.33 -0.96,1.94 -0.2,0.6 -0.3,1.23 -0.3,1.87 0,0.75 0.15,1.35 0.43,1.8 0.28,0.45 0.65,0.68 1.1,0.68 0.49,0 0.85,-0.21 1.09,-0.62 0.23,-0.41 0.46,-1.19 0.71,-2.35 0.4,-1.97 1.03,-3.4 1.88,-4.26 0.85,-0.87 2,-1.31 3.47,-1.31 1.73,0 3.13,0.66 4.18,1.97 1.05,1.31 1.58,3.05 1.58,5.2 0,1.18 -0.15,2.3 -0.45,3.38 -0.3,1.06 -0.77,2.12 -1.4,3.15z"/>
  <path id="5" class="fil14 str7" d="M1440.75 685.43l-23.47 0 0 -8.2c0,-4.17 0.95,-7.29 2.85,-9.38 1.91,-2.08 4.77,-3.12 8.59,-3.12 3.65,0 6.57,1.13 8.75,3.42 2.19,2.28 3.28,5.31 3.28,9.09l0 8.19zm-19.28 -5.12l15.11 0 0 -2.69c0,-2.34 -0.7,-4.18 -2.09,-5.51 -1.39,-1.33 -3.29,-2 -5.71,-2 -2.29,0 -4.08,0.66 -5.37,1.97 -1.29,1.32 -1.94,3.18 -1.94,5.58l0 2.65z"/>
  <path id="6" class="fil14 str7" d="M1440.75 646.87l0 4.74 -2.49 0 0 0.07c0.96,0.58 1.68,1.3 2.17,2.16 0.49,0.86 0.73,1.84 0.73,2.93 0,1.53 -0.46,2.82 -1.37,3.87 -0.91,1.04 -2.18,1.57 -3.81,1.57 -1.59,0 -2.88,-0.52 -3.87,-1.57 -1,-1.04 -1.64,-2.65 -1.94,-4.84l-0.57 -4.22 -0.33 0c-0.88,0 -1.54,0.27 -1.99,0.82 -0.45,0.55 -0.67,1.3 -0.67,2.26 0,0.73 0.12,1.52 0.37,2.37 0.24,0.84 0.63,1.69 1.17,2.54l-2.97 1.79c-0.69,-1.13 -1.21,-2.27 -1.54,-3.42 -0.32,-1.15 -0.48,-2.4 -0.48,-3.74 0,-2.5 0.59,-4.35 1.8,-5.54 1.2,-1.19 3.01,-1.79 5.43,-1.79l10.36 0zm-6.97 4.71l-1.23 0 0.41 3.26c0.13,0.92 0.4,1.6 0.81,2.05 0.41,0.44 0.96,0.67 1.64,0.67 0.63,0 1.15,-0.22 1.56,-0.66 0.4,-0.43 0.6,-1.02 0.6,-1.77 0,-1.04 -0.36,-1.9 -1.08,-2.56 -0.72,-0.65 -1.62,-0.99 -2.71,-0.99z"/>
  <path id="7" class="fil14 str7" d="M1440.47 631.88c0.23,0.52 0.4,1.11 0.51,1.75 0.12,0.64 0.18,1.29 0.18,1.94 0,1.84 -0.45,3.22 -1.34,4.16 -0.9,0.93 -2.23,1.4 -4.02,1.4l-8.5 0 -0.02 2.8 -3.7 0.01 0 -2.81 -3.88 0 -1.42 -5 5.3 0.02 0 -3.93 3.72 0 -0.02 3.91 8.22 0.02c0.7,0 1.2,-0.13 1.52,-0.41 0.32,-0.27 0.47,-0.7 0.45,-1.28 0.02,-0.29 -0.02,-0.57 -0.1,-0.84 -0.08,-0.27 -0.18,-0.51 -0.29,-0.74l3.39 -1z"/>
  <path id="8" class="fil14 str7" d="M1441.16 620.93c0,2.82 -0.8,5.05 -2.41,6.67 -1.61,1.63 -3.77,2.44 -6.51,2.44 -2.85,-0.01 -5.08,-0.85 -6.68,-2.53 -1.6,-1.68 -2.4,-3.96 -2.4,-6.83 0,-2.83 0.8,-5.04 2.39,-6.64 1.6,-1.59 3.73,-2.39 6.39,-2.39 2.84,0 5.08,0.82 6.74,2.48 1.65,1.66 2.48,3.93 2.48,6.8zm-3.85 -0.18c0,-1.34 -0.44,-2.34 -1.33,-3.01 -0.88,-0.67 -2.19,-1 -3.94,-1 -1.65,0 -2.91,0.34 -3.76,1.01 -0.84,0.68 -1.26,1.69 -1.26,3.03 0,1.32 0.45,2.35 1.35,3.07 0.91,0.74 2.18,1.1 3.8,1.1 1.71,0 2.99,-0.35 3.85,-1.06 0.86,-0.71 1.29,-1.76 1.29,-3.14z"/>
  <path id="9" class="fil14 str7" d="M1439.31 609.5l-3.36 -2.06c0.45,-0.57 0.83,-1.26 1.14,-2.05 0.31,-0.79 0.47,-1.67 0.47,-2.63 0,-0.73 -0.14,-1.33 -0.4,-1.79 -0.27,-0.47 -0.68,-0.7 -1.22,-0.7 -0.45,0 -0.8,0.18 -1.06,0.55 -0.25,0.35 -0.49,1.02 -0.7,1.99 -0.45,2.13 -1.09,3.65 -1.91,4.58 -0.82,0.93 -1.97,1.39 -3.45,1.39 -1.73,0 -3.1,-0.68 -4.13,-2.05 -1.03,-1.37 -1.53,-3.05 -1.53,-5.05 0,-1.04 0.13,-2.01 0.39,-2.92 0.26,-0.91 0.66,-1.78 1.19,-2.59l3.24 1.88c-0.43,0.69 -0.75,1.33 -0.96,1.94 -0.2,0.6 -0.3,1.23 -0.3,1.87 0,0.75 0.15,1.35 0.43,1.8 0.28,0.45 0.65,0.68 1.1,0.68 0.49,0 0.85,-0.21 1.09,-0.62 0.23,-0.41 0.46,-1.19 0.71,-2.35 0.4,-1.97 1.03,-3.4 1.88,-4.26 0.85,-0.87 2,-1.31 3.47,-1.31 1.73,0 3.13,0.66 4.18,1.97 1.05,1.31 1.58,3.05 1.58,5.2 0,1.18 -0.15,2.3 -0.45,3.38 -0.3,1.06 -0.77,2.12 -1.4,3.15z"/>
  <path class="fil15" d="M875.89 981.48l-23.47 0 0 -8.19c0,-4.17 0.95,-7.3 2.86,-9.38 1.9,-2.08 4.76,-3.13 8.58,-3.13 3.66,0 6.57,1.14 8.76,3.43 2.18,2.28 3.27,5.31 3.27,9.09l0 8.18zm-19.28 -5.12l15.11 0 0 -2.68c0,-2.35 -0.7,-4.18 -2.09,-5.51 -1.39,-1.34 -3.29,-2 -5.7,-2 -2.29,0 -4.09,0.66 -5.38,1.97 -1.29,1.31 -1.94,3.17 -1.94,5.57l0 2.65z"/>
  <path id="1" class="fil15" d="M856.42 954.46c0,0.87 -0.27,1.59 -0.8,2.15 -0.53,0.56 -1.19,0.83 -1.97,0.83 -0.81,0 -1.47,-0.27 -1.99,-0.83 -0.52,-0.56 -0.78,-1.28 -0.78,-2.15 0,-0.87 0.26,-1.58 0.78,-2.13 0.52,-0.55 1.18,-0.83 1.99,-0.83 0.81,0 1.47,0.28 1.99,0.83 0.52,0.55 0.78,1.26 0.78,2.13zm19.47 -2.45l0 4.99 -17.17 0 0 -4.99 17.17 0z"/>
  <path id="2" class="fil15" d="M862.9 936.48c-0.06,0.22 -0.1,0.44 -0.12,0.66 -0.03,0.22 -0.04,0.48 -0.04,0.76 0,1.37 0.43,2.4 1.29,3.09 0.87,0.69 2.07,1.04 3.61,1.04l8.25 0 0 5 -17.17 0 0 -5 3.21 0 0 -0.07c-1.17,-0.41 -2.04,-1 -2.64,-1.76 -0.58,-0.76 -0.88,-1.68 -0.88,-2.78 0,-0.25 0.02,-0.5 0.06,-0.74 0.04,-0.24 0.08,-0.5 0.14,-0.78l4.29 0.58z"/>
  <path id="3" class="fil15" d="M868.71 918.14l0 11.3c1.33,-0.08 2.32,-0.52 2.98,-1.29 0.65,-0.77 0.98,-1.85 0.98,-3.22 0,-0.49 -0.15,-1.17 -0.44,-2.04 -0.29,-0.86 -0.73,-1.7 -1.34,-2.53l2.89 -2.19c0.87,1.16 1.51,2.34 1.92,3.56 0.4,1.22 0.6,2.54 0.6,4 0,2.74 -0.77,4.88 -2.31,6.4 -1.53,1.51 -3.68,2.28 -6.43,2.29 -2.75,0 -4.98,-0.8 -6.69,-2.41 -1.71,-1.61 -2.57,-3.65 -2.57,-6.12 0,-2.36 0.72,-4.25 2.17,-5.65 1.44,-1.41 3.52,-2.1 6.23,-2.1l2.01 0zm-3.13 4.66c-1.36,0 -2.35,0.26 -2.96,0.79 -0.6,0.53 -0.9,1.31 -0.9,2.33 0,0.91 0.35,1.69 1.04,2.34 0.69,0.66 1.63,1.06 2.82,1.2l0 -6.66z"/>
  <path id="4" class="fil15" d="M874.76 900.98c0.54,0.88 0.93,1.76 1.17,2.66 0.25,0.9 0.37,1.88 0.37,2.94 0,2.86 -0.79,5.09 -2.38,6.7 -1.59,1.6 -3.65,2.4 -6.2,2.4 -2.91,0 -5.21,-0.86 -6.89,-2.58 -1.69,-1.71 -2.53,-3.99 -2.53,-6.83 0,-1.04 0.1,-1.97 0.31,-2.77 0.2,-0.81 0.53,-1.6 0.98,-2.4l3.39 1.86c-0.29,0.52 -0.51,1.02 -0.64,1.51 -0.13,0.49 -0.2,1.03 -0.2,1.6 0,1.42 0.46,2.53 1.38,3.33 0.91,0.79 2.2,1.19 3.86,1.19 1.6,0 2.84,-0.43 3.74,-1.28 0.89,-0.86 1.34,-1.93 1.34,-3.22 0,-0.38 -0.08,-0.85 -0.24,-1.42 -0.16,-0.57 -0.42,-1.14 -0.78,-1.72l3.32 -1.97z"/>
  <path id="5" class="fil15" d="M874.76 884.19c0.54,0.87 0.93,1.76 1.17,2.66 0.25,0.9 0.37,1.88 0.37,2.94 0,2.86 -0.79,5.09 -2.38,6.69 -1.59,1.61 -3.65,2.41 -6.2,2.41 -2.91,0 -5.21,-0.86 -6.89,-2.58 -1.69,-1.72 -2.53,-4 -2.53,-6.83 0,-1.05 0.1,-1.98 0.31,-2.77 0.2,-0.81 0.53,-1.61 0.98,-2.41l3.39 1.87c-0.29,0.51 -0.51,1.02 -0.64,1.51 -0.13,0.49 -0.2,1.03 -0.2,1.6 0,1.42 0.46,2.53 1.38,3.32 0.91,0.8 2.2,1.2 3.86,1.2 1.6,0 2.84,-0.43 3.74,-1.28 0.89,-0.86 1.34,-1.93 1.34,-3.22 0,-0.38 -0.08,-0.86 -0.24,-1.43 -0.16,-0.56 -0.42,-1.14 -0.78,-1.71l3.32 -1.97z"/>
  <path id="6" class="fil15" d="M856.42 878.53c0,0.87 -0.27,1.58 -0.8,2.14 -0.53,0.56 -1.19,0.83 -1.97,0.83 -0.81,0 -1.47,-0.27 -1.99,-0.83 -0.52,-0.56 -0.78,-1.27 -0.78,-2.14 0,-0.87 0.26,-1.59 0.78,-2.14 0.52,-0.55 1.18,-0.82 1.99,-0.82 0.81,0 1.47,0.27 1.99,0.82 0.52,0.55 0.78,1.27 0.78,2.14zm19.47 -2.46l0 4.99 -17.17 0 0 -4.99 17.17 0z"/>
  <path id="7" class="fil15" d="M876.3 863c0,2.82 -0.8,5.05 -2.4,6.67 -1.61,1.63 -3.78,2.44 -6.52,2.44 -2.85,-0.01 -5.07,-0.85 -6.68,-2.53 -1.6,-1.68 -2.4,-3.96 -2.4,-6.83 0,-2.83 0.8,-5.04 2.4,-6.64 1.59,-1.59 3.72,-2.39 6.39,-2.39 2.84,0 5.08,0.82 6.73,2.48 1.65,1.66 2.48,3.93 2.48,6.8zm-3.84 -0.18c0,-1.34 -0.45,-2.34 -1.33,-3.01 -0.89,-0.67 -2.2,-1 -3.95,-1 -1.65,0 -2.91,0.34 -3.75,1.01 -0.84,0.68 -1.27,1.69 -1.27,3.03 0,1.32 0.45,2.35 1.36,3.07 0.9,0.74 2.17,1.1 3.8,1.1 1.7,0 2.98,-0.35 3.84,-1.06 0.87,-0.71 1.3,-1.76 1.3,-3.14z"/>
  <path id="8" class="fil15" d="M875.89 833.65l0 5 -9.57 0c-1.38,0 -2.41,0.24 -3.1,0.74 -0.7,0.5 -1.05,1.24 -1.06,2.23 0.01,0.98 0.39,1.77 1.12,2.4 0.74,0.63 1.67,0.94 2.81,0.94l9.8 0.02 0 4.99 -17.17 0.02 0 -5.03 2.74 0.02 0 -0.08c-1.06,-0.63 -1.85,-1.41 -2.37,-2.33 -0.52,-0.93 -0.77,-1.99 -0.77,-3.2 -0.01,-1.9 0.57,-3.33 1.76,-4.28 1.19,-0.96 2.96,-1.44 5.3,-1.44l10.51 0z"/>
  <path id="9" class="fil15" d="M868.71 813.9l0 11.3c1.33,-0.08 2.32,-0.51 2.98,-1.29 0.65,-0.77 0.98,-1.84 0.98,-3.22 0,-0.49 -0.15,-1.17 -0.44,-2.03 -0.29,-0.86 -0.73,-1.71 -1.34,-2.54l2.89 -2.19c0.87,1.16 1.51,2.34 1.92,3.56 0.4,1.22 0.6,2.55 0.6,4 0,2.75 -0.77,4.88 -2.31,6.4 -1.53,1.52 -3.68,2.28 -6.43,2.29 -2.75,0 -4.98,-0.8 -6.69,-2.41 -1.71,-1.61 -2.57,-3.65 -2.57,-6.12 0,-2.36 0.72,-4.25 2.17,-5.65 1.44,-1.4 3.52,-2.1 6.23,-2.1l2.01 0zm-3.13 4.66c-1.36,0 -2.35,0.27 -2.96,0.8 -0.6,0.53 -0.9,1.3 -0.9,2.33 0,0.9 0.35,1.68 1.04,2.34 0.69,0.65 1.63,1.05 2.82,1.19l0 -6.66z"/>
  <path id="10" class="fil15" d="M874.45 812.03l-3.35 -2.06c0.45,-0.57 0.83,-1.26 1.13,-2.06 0.32,-0.78 0.47,-1.66 0.47,-2.62 0,-0.73 -0.13,-1.33 -0.4,-1.79 -0.27,-0.47 -0.68,-0.7 -1.22,-0.7 -0.44,0 -0.8,0.18 -1.05,0.55 -0.26,0.35 -0.5,1.02 -0.7,1.99 -0.46,2.13 -1.1,3.65 -1.92,4.58 -0.81,0.93 -1.96,1.39 -3.45,1.39 -1.72,0 -3.1,-0.68 -4.12,-2.05 -1.03,-1.37 -1.54,-3.05 -1.54,-5.05 0,-1.04 0.13,-2.01 0.39,-2.92 0.26,-0.91 0.66,-1.78 1.2,-2.59l3.24 1.88c-0.44,0.69 -0.76,1.33 -0.96,1.94 -0.2,0.6 -0.31,1.23 -0.31,1.87 0,0.75 0.15,1.35 0.43,1.8 0.28,0.45 0.65,0.67 1.1,0.67 0.49,0 0.85,-0.2 1.09,-0.61 0.23,-0.41 0.47,-1.2 0.71,-2.35 0.4,-1.97 1.03,-3.4 1.88,-4.26 0.85,-0.87 2.01,-1.31 3.47,-1.31 1.74,0 3.13,0.66 4.18,1.97 1.05,1.31 1.58,3.05 1.58,5.2 0,1.18 -0.15,2.3 -0.45,3.38 -0.3,1.06 -0.77,2.12 -1.4,3.15z"/>
  <path class="fil15" d="M813.31 514.32l-23.47 0 0 -8.2c0,-4.17 0.95,-7.29 2.86,-9.38 1.9,-2.08 4.76,-3.13 8.59,-3.13 3.65,0 6.57,1.14 8.75,3.43 2.18,2.28 3.27,5.31 3.27,9.09l0 8.19zm-19.28 -5.12l15.11 0 0 -2.69c0,-2.34 -0.7,-4.18 -2.09,-5.51 -1.39,-1.34 -3.29,-2 -5.7,-2 -2.29,0 -4.09,0.66 -5.38,1.97 -1.29,1.31 -1.94,3.17 -1.94,5.58l0 2.65z"/>
  <path id="1" class="fil15" d="M793.84 487.3c0,0.87 -0.27,1.58 -0.79,2.14 -0.54,0.56 -1.19,0.83 -1.98,0.83 -0.81,0 -1.47,-0.27 -1.99,-0.83 -0.51,-0.56 -0.78,-1.27 -0.78,-2.14 0,-0.88 0.27,-1.59 0.78,-2.14 0.52,-0.55 1.18,-0.82 1.99,-0.82 0.81,0 1.47,0.27 1.99,0.82 0.52,0.55 0.78,1.26 0.78,2.14zm19.47 -2.46l0 4.99 -17.16 0 0 -4.99 17.16 0z"/>
  <path id="2" class="fil15" d="M800.32 469.31c-0.06,0.22 -0.1,0.44 -0.12,0.66 -0.03,0.23 -0.04,0.48 -0.04,0.76 0,1.37 0.43,2.4 1.29,3.09 0.87,0.69 2.08,1.04 3.61,1.04l8.25 0 0 5.01 -17.16 0 0 -5.01 3.2 0 0 -0.07c-1.16,-0.41 -2.04,-1 -2.63,-1.76 -0.59,-0.76 -0.89,-1.68 -0.89,-2.77 0,-0.26 0.03,-0.51 0.06,-0.75 0.04,-0.24 0.08,-0.5 0.14,-0.77l4.29 0.57z"/>
  <path id="3" class="fil15" d="M806.13 450.97l0 11.31c1.33,-0.09 2.32,-0.52 2.98,-1.3 0.65,-0.77 0.98,-1.84 0.98,-3.22 0,-0.49 -0.15,-1.17 -0.44,-2.03 -0.29,-0.86 -0.73,-1.71 -1.34,-2.54l2.89 -2.19c0.87,1.16 1.52,2.34 1.92,3.56 0.4,1.22 0.6,2.55 0.6,4 0,2.75 -0.76,4.88 -2.31,6.4 -1.53,1.52 -3.68,2.28 -6.43,2.29 -2.74,0 -4.98,-0.8 -6.69,-2.41 -1.71,-1.61 -2.57,-3.65 -2.57,-6.12 0,-2.36 0.72,-4.25 2.17,-5.65 1.45,-1.4 3.52,-2.1 6.23,-2.1l2.01 0zm-3.13 4.66c-1.36,0 -2.35,0.27 -2.95,0.8 -0.61,0.53 -0.91,1.3 -0.91,2.33 0,0.9 0.35,1.68 1.04,2.34 0.69,0.65 1.63,1.05 2.82,1.19l0 -6.66z"/>
  <path id="4" class="fil15" d="M812.18 433.82c0.54,0.87 0.93,1.76 1.17,2.66 0.25,0.9 0.37,1.87 0.37,2.94 0,2.86 -0.79,5.09 -2.38,6.69 -1.59,1.6 -3.65,2.41 -6.19,2.41 -2.91,0 -5.22,-0.86 -6.9,-2.58 -1.69,-1.72 -2.53,-4 -2.53,-6.84 0,-1.04 0.1,-1.97 0.31,-2.77 0.2,-0.8 0.54,-1.6 0.98,-2.4l3.39 1.87c-0.29,0.51 -0.51,1.01 -0.64,1.5 -0.13,0.5 -0.2,1.03 -0.2,1.61 0,1.42 0.46,2.52 1.38,3.32 0.92,0.79 2.21,1.2 3.86,1.2 1.6,0 2.84,-0.43 3.74,-1.29 0.89,-0.86 1.34,-1.93 1.34,-3.22 0,-0.38 -0.08,-0.85 -0.24,-1.42 -0.16,-0.57 -0.42,-1.14 -0.78,-1.72l3.32 -1.96z"/>
  <path id="5" class="fil15" d="M812.18 417.02c0.54,0.88 0.93,1.76 1.17,2.66 0.25,0.9 0.37,1.88 0.37,2.94 0,2.86 -0.79,5.09 -2.38,6.7 -1.59,1.6 -3.65,2.4 -6.19,2.4 -2.91,0 -5.22,-0.86 -6.9,-2.58 -1.69,-1.71 -2.53,-3.99 -2.53,-6.83 0,-1.04 0.1,-1.97 0.31,-2.77 0.2,-0.81 0.54,-1.6 0.98,-2.4l3.39 1.86c-0.29,0.52 -0.51,1.02 -0.64,1.51 -0.13,0.49 -0.2,1.03 -0.2,1.6 0,1.42 0.46,2.53 1.38,3.33 0.92,0.79 2.21,1.19 3.86,1.19 1.6,0 2.84,-0.43 3.74,-1.28 0.89,-0.86 1.34,-1.93 1.34,-3.22 0,-0.38 -0.08,-0.85 -0.24,-1.42 -0.16,-0.57 -0.42,-1.14 -0.78,-1.72l3.32 -1.97z"/>
  <path id="6" class="fil15" d="M793.84 411.36c0,0.87 -0.27,1.59 -0.79,2.15 -0.54,0.55 -1.19,0.83 -1.98,0.83 -0.81,0 -1.47,-0.28 -1.99,-0.83 -0.51,-0.56 -0.78,-1.28 -0.78,-2.15 0,-0.87 0.27,-1.59 0.78,-2.13 0.52,-0.56 1.18,-0.83 1.99,-0.83 0.81,0 1.47,0.27 1.99,0.83 0.52,0.54 0.78,1.26 0.78,2.13zm19.47 -2.45l0 4.99 -17.16 0 0 -4.99 17.16 0z"/>
  <path id="7" class="fil15" d="M813.72 395.83c0,2.83 -0.8,5.05 -2.4,6.68 -1.61,1.62 -3.78,2.44 -6.52,2.44 -2.84,-0.01 -5.07,-0.86 -6.68,-2.54 -1.6,-1.68 -2.4,-3.95 -2.4,-6.83 0,-2.82 0.8,-5.03 2.4,-6.63 1.6,-1.6 3.72,-2.4 6.39,-2.4 2.84,0 5.08,0.83 6.73,2.49 1.65,1.66 2.48,3.92 2.48,6.79zm-3.84 -0.18c0,-1.33 -0.44,-2.33 -1.33,-3 -0.88,-0.67 -2.2,-1.01 -3.95,-1.01 -1.65,0 -2.91,0.34 -3.75,1.02 -0.84,0.67 -1.27,1.68 -1.27,3.02 0,1.32 0.45,2.35 1.36,3.08 0.9,0.73 2.17,1.1 3.8,1.1 1.7,0 2.98,-0.36 3.84,-1.07 0.87,-0.71 1.3,-1.75 1.3,-3.14z"/>
  <path id="8" class="fil15" d="M813.31 366.48l0 5 -9.57 0c-1.38,0 -2.41,0.24 -3.1,0.74 -0.7,0.5 -1.05,1.24 -1.06,2.24 0.01,0.97 0.39,1.77 1.12,2.39 0.74,0.63 1.67,0.95 2.81,0.95l9.8 0.01 0 4.99 -17.16 0.02 0 -5.02 2.73 0.01 0 -0.08c-1.06,-0.63 -1.85,-1.41 -2.37,-2.33 -0.51,-0.93 -0.77,-1.99 -0.77,-3.2 -0.01,-1.9 0.57,-3.32 1.76,-4.28 1.19,-0.95 2.96,-1.44 5.31,-1.44l10.5 0z"/>
  <path id="9" class="fil15" d="M806.13 346.73l0 11.31c1.33,-0.09 2.32,-0.52 2.98,-1.29 0.65,-0.78 0.98,-1.85 0.98,-3.23 0,-0.49 -0.15,-1.16 -0.44,-2.03 -0.29,-0.86 -0.73,-1.7 -1.34,-2.54l2.89 -2.19c0.87,1.16 1.52,2.35 1.92,3.56 0.4,1.22 0.6,2.55 0.6,4 0,2.75 -0.76,4.89 -2.31,6.41 -1.53,1.51 -3.68,2.27 -6.43,2.29 -2.74,0 -4.98,-0.81 -6.69,-2.42 -1.71,-1.61 -2.57,-3.65 -2.57,-6.11 0,-2.37 0.72,-4.26 2.17,-5.66 1.45,-1.4 3.52,-2.1 6.23,-2.1l2.01 0zm-3.13 4.67c-1.36,0 -2.35,0.26 -2.95,0.79 -0.61,0.53 -0.91,1.31 -0.91,2.33 0,0.9 0.35,1.69 1.04,2.34 0.69,0.65 1.63,1.06 2.82,1.19l0 -6.65z"/>
  <path id="10" class="fil15" d="M811.87 344.87l-3.35 -2.07c0.45,-0.57 0.83,-1.26 1.13,-2.05 0.32,-0.79 0.47,-1.67 0.47,-2.63 0,-0.73 -0.13,-1.33 -0.4,-1.79 -0.27,-0.46 -0.67,-0.69 -1.22,-0.69 -0.44,0 -0.8,0.18 -1.05,0.54 -0.26,0.36 -0.49,1.02 -0.7,1.99 -0.46,2.13 -1.1,3.66 -1.92,4.58 -0.81,0.93 -1.96,1.39 -3.45,1.39 -1.72,0 -3.09,-0.68 -4.12,-2.05 -1.03,-1.36 -1.54,-3.05 -1.54,-5.05 0,-1.03 0.13,-2.01 0.39,-2.92 0.27,-0.91 0.66,-1.77 1.2,-2.59l3.24 1.88c-0.44,0.69 -0.76,1.33 -0.96,1.94 -0.2,0.61 -0.3,1.23 -0.3,1.87 0,0.76 0.14,1.36 0.42,1.8 0.29,0.45 0.65,0.68 1.1,0.68 0.49,0 0.86,-0.21 1.09,-0.62 0.23,-0.41 0.47,-1.19 0.71,-2.35 0.4,-1.97 1.03,-3.39 1.88,-4.26 0.85,-0.87 2.01,-1.3 3.47,-1.3 1.74,0 3.13,0.65 4.19,1.96 1.05,1.31 1.57,3.05 1.57,5.2 0,1.18 -0.15,2.31 -0.45,3.38 -0.3,1.07 -0.77,2.12 -1.4,3.16z"/>
 </g>
</svg>
