<?xml version="1.0" encoding="UTF-8"?>
<!DOCTYPE svg PUBLIC "-//W3C//DTD SVG 1.1//EN" "http://www.w3.org/Graphics/SVG/1.1/DTD/svg11.dtd">
<!-- Creator: CorelDRAW 2020 (64-Bit) -->
<svg xmlns="http://www.w3.org/2000/svg" xml:space="preserve" width="3635px" height="1810px" version="1.1" style="shape-rendering:geometricPrecision; text-rendering:geometricPrecision; image-rendering:optimizeQuality; fill-rule:evenodd; clip-rule:evenodd"
viewBox="0 0 3635 1810"
 xmlns:xlink="http://www.w3.org/1999/xlink"
 xmlns:xodm="http://www.corel.com/coreldraw/odm/2003">
 <defs>
  <style type="text/css">
   <![CDATA[
    .fil0 {fill:none}
    .fil3 {fill:#0070C0}
    .fil4 {fill:#00C85F}
    .fil1 {fill:gray}
    .fil5 {fill:#D90011}
    .fil2 {fill:#F5643D}
    .fil7 {fill:black;fill-rule:nonzero}
    .fil6 {fill:#999999;fill-rule:nonzero}
    .fil9 {fill:white;fill-rule:nonzero}
    .fil8 {fill:white;fill-rule:nonzero}
   ]]>
  </style>
 </defs>
 <g id="Capa_x0020_1">
  <metadata id="CorelCorpID_0Corel-Layer"/>
  <rect class="fil0" width="3635" height="1810"/>
  <polygon class="fil1" points="1831.96,373.79 1831.96,742.83 2359.1,742.83 2359.1,373.79 "/>
  <polygon class="fil2" points="1870.33,410.04 1870.33,558.5 2320.73,558.5 2320.73,410.04 "/>
  <polygon class="fil3" points="1870.33,558.12 1870.33,706.58 2320.73,706.58 2320.73,558.12 "/>
  <polygon class="fil1" points="2397.66,373.79 2397.66,742.83 2924.8,742.83 2924.8,373.79 "/>
  <polygon class="fil2" points="2436.22,410.04 2436.22,558.5 2886.24,558.5 2886.24,410.04 "/>
  <polygon class="fil3" points="2436.22,558.12 2436.22,706.19 2886.24,706.19 2886.24,558.12 "/>
  <polygon class="fil4" points="1831.96,780.23 1831.96,1011.22 2924.8,1011.22 2924.8,780.23 "/>
  <polygon class="fil5" points="1831.96,1317.4 1831.96,1548.38 2924.8,1548.38 2924.8,1317.4 "/>
  <polygon class="fil3" points="1831.96,1047.85 1831.96,1278.84 2924.8,1278.84 2924.8,1047.85 "/>
  <polygon class="fil1" points="710.2,642.18 710.2,1011.22 1237.72,1011.22 1237.72,642.18 "/>
  <polygon class="fil2" points="748.95,678.82 748.95,826.89 1198.97,826.89 1198.97,678.82 "/>
  <polygon class="fil3" points="748.95,826.89 748.95,974.97 1198.97,974.97 1198.97,826.89 "/>
  <polygon class="fil1" points="1276.29,642.18 1276.29,1011.22 1803.42,1011.22 1803.42,642.18 "/>
  <polygon class="fil2" points="1314.66,678.82 1314.66,826.89 1765.06,826.89 1765.06,678.82 "/>
  <polygon class="fil3" points="1314.66,826.51 1314.66,974.97 1765.06,974.97 1765.06,826.51 "/>
  <polygon class="fil4" points="710.2,1049.01 710.2,1279.99 1803.42,1279.99 1803.42,1049.01 "/>
  <polygon class="fil5" points="710.2,1317.4 710.2,1548.38 1803.42,1548.38 1803.42,1317.4 "/>
  <polygon class="fil6" points="810.31,501.76 790.28,501.76 790.33,559.27 775.01,559.27 774.96,501.76 755.08,501.76 755.08,489.26 810.31,489.26 "/>
  <polygon id="1" class="fil6" points="836.09,559.27 820.81,559.27 820.81,489.26 836.09,489.26 "/>
  <path id="2" class="fil6" d="M868.41 536.12l0 23.15 -15.33 0 0.05 -70.01 24.37 0c8.71,0 15.28,1.9 19.66,5.71 4.4,3.8 6.6,9.5 6.6,17.09 0,7.2 -2.52,13 -7.55,17.43 -5.03,4.43 -11.73,6.63 -20.13,6.63l-7.67 0zm0 -35.05l0 23.39 6.35 0.05c4.28,0 7.52,-1 9.68,-2.99 2.17,-1.98 3.24,-4.96 3.2,-8.93 0,-3.83 -1.06,-6.72 -3.2,-8.63 -2.13,-1.94 -5.33,-2.89 -9.6,-2.89l-6.43 0z"/>
  <path id="3" class="fil6" d="M944.68 560.49c-10.02,0 -18.18,-3.27 -24.48,-9.78 -6.3,-6.54 -9.45,-15.04 -9.45,-25.52 0,-11.07 3.2,-20.02 9.6,-26.85 6.38,-6.83 14.88,-10.25 25.46,-10.25 9.95,0 18.02,3.27 24.17,9.8 6.15,6.55 9.22,15.18 9.22,25.88 0,11 -3.17,19.89 -9.54,26.62 -6.36,6.73 -14.7,10.1 -24.98,10.1zm0.25 -13.18c5.6,0 10.03,-2 13.3,-6 3.27,-4 4.92,-9.55 4.92,-16.65 0,-7.4 -1.6,-13.15 -4.77,-17.27 -3.17,-4.12 -7.52,-6.17 -13.02,-6.17 -5.66,0 -10.16,2.12 -13.52,6.34 -3.36,4.23 -5.03,9.83 -5.03,16.8 0,7.06 1.67,12.66 5,16.78 3.33,4.12 7.72,6.17 13.12,6.17z"/>
  <path id="4" class="fil6" d="M1044.03 559.27l-14.88 0 0 -53.85c-1.77,1.2 -3.75,2.24 -5.97,3.12 -2.2,0.88 -4.6,1.73 -7.17,2.53l-4.05 -11.95c4.39,-1.28 8.59,-2.9 12.57,-4.86 3.98,-1.97 7.53,-4.15 10.62,-6.57l8.88 0 0 71.58z"/>
  <path id="5" class="fil6" d="M1160.23 559.27l0 -70.01 25.13 0c7.69,0 13.62,1.48 17.79,4.43 4.16,2.97 6.25,7.13 6.25,12.5 0,3.75 -1.12,7.03 -3.37,9.87 -2.25,2.83 -5.13,4.8 -8.65,5.91l0 0.19c4.53,0.6 8.13,2.38 10.82,5.35 2.68,2.98 4.03,6.61 4.03,10.91 0,6.39 -2.28,11.45 -6.87,15.22 -4.56,3.75 -10.78,5.63 -18.61,5.63l-26.52 0zm15.28 -58.68l0 17.47 7.04 0c3.31,0 5.93,-0.8 7.88,-2.39 1.93,-1.6 2.9,-3.81 2.9,-6.65 0,-2.83 -0.98,-4.95 -2.93,-6.35 -1.95,-1.38 -4.87,-2.08 -8.74,-2.08l-6.15 0zm0 28.9l0 18.45 8.74 0c3.71,0 6.63,-0.87 8.75,-2.6 2.1,-1.75 3.16,-4.12 3.16,-7.12 0,-2.73 -1.05,-4.86 -3.15,-6.41 -2.1,-1.55 -5.03,-2.32 -8.81,-2.32l-8.69 0z"/>
  <path id="6" class="fil6" d="M1217.31 559.27l25.59 -70.01 18.01 0 25 70.01 -16.6 0 -4.93 -14.9 -25.73 0 -4.79 14.9 -16.55 0zm24.7 -26.85l18.75 0 -7.96 -24.76c-0.25,-0.94 -0.47,-1.75 -0.65,-2.44 -0.19,-0.68 -0.34,-1.56 -0.47,-2.63l-0.38 0c-0.17,0.97 -0.34,1.82 -0.52,2.53 -0.18,0.72 -0.42,1.52 -0.72,2.4l-8.05 24.9z"/>
  <path id="7" class="fil6" d="M1352.11 559.27l-17.23 0 -9.52 -17.43c-1.56,-2.83 -3.1,-4.95 -4.61,-6.37 -1.52,-1.41 -3.27,-2.23 -5.25,-2.41l-4.49 0 0 26.21 -15.28 0 0 -70.01 24.75 0c8.33,0 14.62,1.65 18.85,4.95 4.23,3.3 6.35,8.25 6.35,14.81 0,4.7 -1.37,8.72 -4.08,12.09 -2.72,3.38 -6.45,5.86 -11.2,7.45l0 0.2c2.05,0.65 3.95,1.98 5.71,3.98 1.75,2 3.27,4.12 4.54,6.37l11.46 20.16zm-41.1 -58.5l0 20.7 7.12 0c3.45,0 6.23,-1.05 8.33,-3.15 2.1,-2.1 3.15,-4.68 3.15,-7.78 0,-3.22 -0.93,-5.65 -2.78,-7.3 -1.85,-1.63 -4.65,-2.47 -8.4,-2.47l-7.42 0z"/>
  <polygon id="8" class="fil6" points="1403.1,559.27 1361.4,559.27 1361.35,489.26 1401.48,489.26 1401.48,501.76 1376.68,501.76 1376.68,517.82 1399.76,517.82 1399.73,530.27 1376.68,530.27 1376.68,546.82 1403.1,546.82 "/>
  <path id="9" class="fil6" d="M1522.23 559.27l-15.1 0 0 -42.23c0,-2.22 0.05,-4.57 0.15,-7.07 0.1,-2.48 0.25,-5.1 0.43,-7.83l-0.38 0c-0.42,2.12 -0.8,3.93 -1.15,5.45 -0.33,1.52 -0.67,2.72 -1,3.63l-16.93 48.05 -12.27 0 -17.18 -47.56c-0.24,-0.65 -0.54,-1.77 -0.9,-3.37 -0.39,-1.58 -0.82,-3.65 -1.3,-6.2l-0.44 0c0.22,3.3 0.39,6.43 0.49,9.43 0.1,2.99 0.15,5.8 0.15,8.45l0 39.25 -13.82 0 0 -70.01 22.32 0 14.78 41.98c0.58,1.57 1.08,3.1 1.47,4.62 0.4,1.51 0.73,3.03 1.03,4.56l0.28 0c0.5,-1.75 0.97,-3.41 1.42,-4.98 0.47,-1.55 0.93,-2.98 1.42,-4.3l14.85 -41.88 21.68 0 0 70.01z"/>
  <polygon id="10" class="fil6" points="1580.96,559.27 1539.26,559.27 1539.21,489.26 1579.35,489.26 1579.35,501.76 1554.55,501.76 1554.55,517.82 1577.63,517.82 1577.6,530.27 1554.55,530.27 1554.55,546.82 1580.96,546.82 "/>
  <polygon id="11" class="fil6" points="1642.78,501.76 1622.75,501.76 1622.8,559.27 1607.48,559.27 1607.43,501.76 1587.55,501.76 1587.55,489.26 1642.78,489.26 "/>
  <path id="12" class="fil6" d="M1638.78 559.27l25.59 -70.01 18.01 0 25 70.01 -16.6 0 -4.93 -14.9 -25.74 0 -4.78 14.9 -16.55 0zm24.7 -26.85l18.75 0 -7.96 -24.76c-0.26,-0.94 -0.47,-1.75 -0.66,-2.44 -0.18,-0.68 -0.33,-1.56 -0.46,-2.63l-0.38 0c-0.17,0.97 -0.34,1.82 -0.52,2.53 -0.19,0.72 -0.42,1.52 -0.72,2.4l-8.05 24.9z"/>
  <polygon id="13" class="fil6" points="1758.55,559.27 1717.2,559.27 1717.15,489.26 1732.48,489.26 1732.48,546.82 1758.55,546.82 "/>
  <polygon id="14" class="fil6" points="1090.21,537.44 1090.16,526.96 1116.93,526.96 1116.88,537.44 "/>
  <path class="fil7" d="M2023.88 513.39l19.19 -52.52 13.51 0 18.75 52.52 -12.45 0 -3.7 -11.18 -19.3 0 -3.59 11.18 -12.41 0zm18.53 -20.14l14.06 0 -5.98 -18.58c-0.19,-0.7 -0.35,-1.31 -0.49,-1.82 -0.13,-0.51 -0.24,-1.18 -0.34,-1.98l-0.29 0c-0.13,0.73 -0.25,1.37 -0.39,1.9 -0.14,0.54 -0.31,1.14 -0.54,1.8l-6.03 18.68z"/>
  <path id="1" class="fil7" d="M2094.16 496.02l0 17.37 -11.5 0 0.03 -52.52 18.28 0c6.54,0 11.46,1.43 14.75,4.29 3.3,2.85 4.95,7.13 4.95,12.81 0,5.4 -1.89,9.75 -5.66,13.08 -3.78,3.32 -8.8,4.97 -15.1,4.97l-5.75 0zm0 -26.28l0 17.53 4.76 0.04c3.21,0 5.64,-0.75 7.26,-2.24 1.63,-1.48 2.43,-3.72 2.4,-6.7 0,-2.87 -0.8,-5.03 -2.4,-6.47 -1.6,-1.45 -4,-2.16 -7.2,-2.16l-4.82 0z"/>
  <path id="2" class="fil7" d="M2140.67 496.02l0 17.37 -11.5 0 0.04 -52.52 18.27 0c6.54,0 11.46,1.43 14.75,4.29 3.3,2.85 4.95,7.13 4.95,12.81 0,5.4 -1.89,9.75 -5.66,13.08 -3.78,3.32 -8.8,4.97 -15.1,4.97l-5.75 0zm0 -26.28l0 17.53 4.76 0.04c3.21,0 5.64,-0.75 7.26,-2.24 1.63,-1.48 2.43,-3.72 2.4,-6.7 0,-2.87 -0.8,-5.03 -2.4,-6.47 -1.6,-1.45 -4,-2.16 -7.2,-2.16l-4.82 0z"/>
  <path class="fil8" d="M2073.71 661.99c-7.52,0 -13.64,-2.45 -18.37,-7.34 -4.72,-4.9 -7.08,-11.27 -7.08,-19.14 0,-8.3 2.4,-15.01 7.2,-20.13 4.78,-5.13 11.16,-7.69 19.1,-7.69 7.46,0 13.51,2.45 18.12,7.35 4.61,4.91 6.91,11.39 6.91,19.41 0,8.25 -2.37,14.91 -7.15,19.96 -4.77,5.05 -11.02,7.58 -18.73,7.58zm0.18 -9.89c4.2,0 7.53,-1.5 9.98,-4.5 2.45,-3 3.69,-7.16 3.69,-12.49 0,-5.55 -1.2,-9.86 -3.58,-12.95 -2.37,-3.08 -5.64,-4.62 -9.76,-4.62 -4.25,0 -7.63,1.59 -10.14,4.75 -2.52,3.17 -3.77,7.37 -3.77,12.6 0,5.3 1.25,9.5 3.75,12.59 2.5,3.08 5.78,4.62 9.83,4.62z"/>
  <path id="1" class="fil8" d="M2105.06 657.53l4.71 -8.94c2.64,1.56 4.95,2.62 6.92,3.2 1.98,0.57 4.05,0.86 6.23,0.86 2.81,0 4.91,-0.55 6.32,-1.66 1.4,-1.11 2.1,-2.65 2.1,-4.6 0,-1.85 -0.56,-3.29 -1.7,-4.29 -1.13,-1 -3.17,-1.85 -6.1,-2.56 -5.81,-1.36 -10.03,-3.28 -12.67,-5.73 -2.64,-2.45 -3.95,-5.86 -3.95,-10.23 0,-4.43 1.71,-8.18 5.12,-11.27 3.43,-3.08 8.18,-4.62 14.29,-4.62 2.59,0 5.11,0.29 7.6,0.87 2.48,0.59 4.84,1.44 7.08,2.57l-4.32 9.05c-2,-1.13 -3.9,-1.94 -5.7,-2.44 -1.78,-0.5 -3.48,-0.75 -5.07,-0.75 -2.41,0 -4.3,0.47 -5.65,1.44 -1.36,0.97 -2.04,2.35 -2.04,4.16 0,1.64 0.63,2.9 1.88,3.79 1.23,0.88 3.45,1.71 6.62,2.47 5.66,1.31 9.76,3.25 12.29,5.8 2.52,2.55 3.79,6.14 3.79,10.75 0,4.94 -1.74,8.93 -5.22,12 -3.48,3.06 -8.51,4.59 -15.07,4.59 -2.95,0 -5.99,-0.39 -9.1,-1.18 -3.11,-0.77 -5.9,-1.87 -8.36,-3.28z"/>
  <path class="fil7" d="M2589.58 513l19.19 -52.51 13.51 0 18.75 52.51 -12.45 0 -3.7 -11.18 -19.3 0 -3.59 11.18 -12.41 0zm18.52 -20.14l14.07 0 -5.98 -18.57c-0.19,-0.7 -0.35,-1.32 -0.49,-1.83 -0.13,-0.51 -0.25,-1.17 -0.35,-1.97l-0.28 0c-0.13,0.72 -0.25,1.36 -0.39,1.9 -0.14,0.54 -0.31,1.14 -0.54,1.8l-6.04 18.67z"/>
  <path id="1" class="fil7" d="M2659.85 495.64l0 17.36 -11.49 0 0.03 -52.51 18.28 0c6.53,0 11.46,1.42 14.75,4.28 3.3,2.85 4.95,7.13 4.95,12.82 0,5.4 -1.89,9.75 -5.67,13.07 -3.77,3.33 -8.79,4.98 -15.09,4.98l-5.76 0zm0 -26.29l0 17.54 4.77 0.03c3.21,0 5.64,-0.75 7.26,-2.23 1.62,-1.49 2.43,-3.73 2.4,-6.7 0,-2.88 -0.8,-5.04 -2.4,-6.48 -1.6,-1.45 -4,-2.16 -7.2,-2.16l-4.83 0z"/>
  <path id="2" class="fil7" d="M2706.37 495.64l0 17.36 -11.5 0 0.04 -52.51 18.27 0c6.54,0 11.46,1.42 14.75,4.28 3.3,2.85 4.95,7.13 4.95,12.82 0,5.4 -1.89,9.75 -5.66,13.07 -3.78,3.33 -8.8,4.98 -15.1,4.98l-5.75 0zm0 -26.29l0 17.54 4.76 0.03c3.21,0 5.64,-0.75 7.26,-2.23 1.63,-1.49 2.43,-3.73 2.4,-6.7 0,-2.88 -0.8,-5.04 -2.4,-6.48 -1.6,-1.45 -4,-2.16 -7.2,-2.16l-4.82 0z"/>
  <path class="fil8" d="M2639.41 661.99c-7.52,0 -13.64,-2.45 -18.37,-7.34 -4.72,-4.9 -7.09,-11.27 -7.09,-19.14 0,-8.3 2.4,-15.01 7.2,-20.13 4.79,-5.13 11.17,-7.69 19.11,-7.69 7.46,0 13.51,2.45 18.12,7.35 4.61,4.91 6.91,11.39 6.91,19.41 0,8.25 -2.37,14.91 -7.15,19.96 -4.77,5.05 -11.02,7.58 -18.73,7.58zm0.18 -9.89c4.2,0 7.53,-1.5 9.98,-4.5 2.45,-3 3.68,-7.16 3.68,-12.49 0,-5.55 -1.2,-9.86 -3.57,-12.95 -2.37,-3.08 -5.64,-4.62 -9.76,-4.62 -4.25,0 -7.63,1.59 -10.14,4.75 -2.52,3.17 -3.77,7.37 -3.77,12.6 0,5.3 1.25,9.5 3.75,12.59 2.49,3.08 5.78,4.62 9.83,4.62z"/>
  <path id="1" class="fil8" d="M2670.76 657.53l4.71 -8.94c2.64,1.56 4.95,2.62 6.92,3.2 1.98,0.57 4.05,0.86 6.23,0.86 2.81,0 4.91,-0.55 6.32,-1.66 1.4,-1.11 2.1,-2.65 2.1,-4.6 0,-1.85 -0.56,-3.29 -1.7,-4.29 -1.14,-1 -3.17,-1.85 -6.1,-2.56 -5.81,-1.36 -10.04,-3.28 -12.67,-5.73 -2.64,-2.45 -3.95,-5.86 -3.95,-10.23 0,-4.43 1.71,-8.18 5.12,-11.27 3.43,-3.08 8.18,-4.62 14.29,-4.62 2.59,0 5.11,0.29 7.6,0.87 2.48,0.59 4.84,1.44 7.07,2.57l-4.31 9.05c-2,-1.13 -3.9,-1.94 -5.7,-2.44 -1.78,-0.5 -3.49,-0.75 -5.07,-0.75 -2.41,0 -4.3,0.47 -5.65,1.44 -1.37,0.97 -2.04,2.35 -2.04,4.16 0,1.64 0.63,2.9 1.87,3.79 1.24,0.88 3.45,1.71 6.63,2.47 5.66,1.31 9.76,3.25 12.29,5.8 2.52,2.55 3.78,6.14 3.78,10.75 0,4.94 -1.73,8.93 -5.21,12 -3.49,3.06 -8.51,4.59 -15.07,4.59 -2.95,0 -5.99,-0.39 -9.1,-1.18 -3.11,-0.77 -5.9,-1.87 -8.36,-3.28z"/>
  <polygon class="fil9" points="2133.44,934.48 2118.1,934.48 2118.05,905.76 2088.62,905.71 2088.62,934.48 2073.34,934.48 2073.29,864.46 2088.62,864.46 2088.62,892.58 2118.1,892.58 2118.05,864.46 2133.39,864.46 "/>
  <path id="1" class="fil9" d="M2202.77 864.46l-22.8 45.07 0 24.95 -15.28 0 0 -24.65 -22.22 -45.37 17.43 0 11.59 26.52c0.08,0.22 0.28,0.8 0.55,1.73 0.28,0.92 0.63,2.2 1.05,3.84l0.2 0c0.2,-1.12 0.41,-2.12 0.68,-3.02 0.27,-0.88 0.53,-1.7 0.83,-2.42l11.82 -26.65 16.15 0z"/>
  <path id="2" class="fil9" d="M2227.1 911.33l0 23.15 -15.33 0 0.05 -70.02 24.37 0c8.71,0 15.28,1.9 19.66,5.72 4.4,3.8 6.6,9.5 6.6,17.08 0,7.2 -2.51,13 -7.55,17.44 -5.03,4.43 -11.73,6.63 -20.13,6.63l-7.67 0zm0 -35.05l0 23.38 6.35 0.05c4.29,0 7.52,-1 9.69,-2.98 2.16,-1.98 3.23,-4.97 3.2,-8.93 0,-3.84 -1.07,-6.72 -3.2,-8.64 -2.14,-1.93 -5.34,-2.88 -9.6,-2.88l-6.44 0z"/>
  <polygon id="3" class="fil9" points="2315.54,934.48 2273.84,934.48 2273.79,864.46 2313.92,864.46 2313.92,876.96 2289.12,876.96 2289.12,893.03 2312.2,893.03 2312.17,905.48 2289.12,905.48 2289.12,922.03 2315.54,922.03 "/>
  <path id="4" class="fil9" d="M2384.22 934.48l-17.23 0 -9.52 -17.43c-1.57,-2.84 -3.1,-4.95 -4.62,-6.37 -1.51,-1.42 -3.26,-2.23 -5.25,-2.42l-4.48 0 0 26.22 -15.28 0 0 -70.02 24.75 0c8.33,0 14.61,1.65 18.85,4.95 4.23,3.3 6.35,8.25 6.35,14.82 0,4.7 -1.37,8.72 -4.09,12.08 -2.71,3.39 -6.45,5.87 -11.2,7.45l0 0.2c2.05,0.65 3.95,1.99 5.72,3.99 1.75,2 3.27,4.11 4.53,6.36l11.47 20.17zm-41.1 -58.5l0 20.7 7.12 0c3.45,0 6.23,-1.05 8.33,-3.15 2.1,-2.1 3.15,-4.68 3.15,-7.78 0,-3.22 -0.93,-5.65 -2.78,-7.3 -1.85,-1.64 -4.65,-2.47 -8.4,-2.47l-7.42 0z"/>
  <path id="5" class="fil9" d="M2451.4 864.46l-24.26 70.02 -17.24 0 -23.96 -70.02 16.5 0 14.88 49.22c0.4,1.3 0.7,2.52 0.93,3.67 0.24,1.13 0.39,2.2 0.49,3.21l0.3 0c0.13,-1.03 0.31,-2.16 0.56,-3.36 0.24,-1.2 0.55,-2.45 0.95,-3.72l14.89 -49.02 15.96 0z"/>
  <polygon id="6" class="fil9" points="2476.17,934.48 2460.89,934.48 2460.89,864.46 2476.17,864.46 "/>
  <path id="7" class="fil9" d="M2487.79 929.75l6.28 -11.92c3.52,2.08 6.6,3.5 9.23,4.27 2.64,0.76 5.4,1.15 8.31,1.15 3.75,0 6.54,-0.74 8.43,-2.22 1.86,-1.48 2.8,-3.53 2.8,-6.13 0,-2.47 -0.75,-4.39 -2.27,-5.72 -1.52,-1.33 -4.23,-2.47 -8.13,-3.42 -7.75,-1.81 -13.39,-4.36 -16.9,-7.63 -3.52,-3.27 -5.27,-7.82 -5.27,-13.65 0,-5.9 2.29,-10.9 6.83,-15.02 4.57,-4.11 10.91,-6.16 19.05,-6.16 3.45,0 6.82,0.38 10.14,1.16 3.3,0.79 6.45,1.92 9.43,3.42l-5.75 12.07c-2.67,-1.5 -5.2,-2.59 -7.6,-3.25 -2.38,-0.67 -4.65,-1 -6.77,-1 -3.21,0 -5.73,0.63 -7.53,1.91 -1.82,1.3 -2.72,3.14 -2.72,5.55 0,2.19 0.84,3.87 2.51,5.05 1.65,1.19 4.59,2.29 8.83,3.3 7.55,1.75 13.01,4.34 16.38,7.74 3.37,3.4 5.05,8.18 5.05,14.33 0,6.58 -2.32,11.9 -6.95,16 -4.65,4.08 -11.35,6.12 -20.1,6.12 -3.93,0 -7.98,-0.52 -12.13,-1.57 -4.15,-1.03 -7.87,-2.5 -11.15,-4.38z"/>
  <path id="8" class="fil9" d="M2579.87 935.7c-10.02,0 -18.18,-3.27 -24.48,-9.79 -6.3,-6.53 -9.45,-15.03 -9.45,-25.51 0,-11.07 3.2,-20.02 9.6,-26.85 6.38,-6.84 14.88,-10.25 25.47,-10.25 9.95,0 18.01,3.26 24.16,9.8 6.15,6.55 9.22,15.18 9.22,25.88 0,11 -3.17,19.88 -9.53,26.62 -6.37,6.73 -14.7,10.1 -24.99,10.1zm0.25 -13.19c5.6,0 10.04,-2 13.3,-6 3.27,-4 4.92,-9.55 4.92,-16.65 0,-7.4 -1.6,-13.15 -4.77,-17.26 -3.17,-4.12 -7.52,-6.17 -13.01,-6.17 -5.67,0 -10.17,2.12 -13.52,6.33 -3.37,4.24 -5.03,9.84 -5.03,16.8 0,7.07 1.66,12.67 4.99,16.79 3.34,4.11 7.72,6.16 13.12,6.16z"/>
  <path id="9" class="fil9" d="M2683.47 934.48l-17.23 0 -9.52 -17.43c-1.56,-2.84 -3.1,-4.95 -4.61,-6.37 -1.52,-1.42 -3.27,-2.23 -5.25,-2.42l-4.49 0 0 26.22 -15.28 0 0 -70.02 24.75 0c8.33,0 14.62,1.65 18.85,4.95 4.23,3.3 6.35,8.25 6.35,14.82 0,4.7 -1.37,8.72 -4.08,12.08 -2.72,3.39 -6.45,5.87 -11.2,7.45l0 0.2c2.05,0.65 3.95,1.99 5.71,3.99 1.75,2 3.27,4.11 4.54,6.36l11.46 20.17zm-41.1 -58.5l0 20.7 7.12 0c3.45,0 6.23,-1.05 8.33,-3.15 2.1,-2.1 3.15,-4.68 3.15,-7.78 0,-3.22 -0.93,-5.65 -2.78,-7.3 -1.85,-1.64 -4.65,-2.47 -8.4,-2.47l-7.42 0z"/>
  <polygon class="fil7" points="2156.52,1471.26 2141.19,1471.26 2141.14,1442.54 2111.7,1442.49 2111.7,1471.26 2096.42,1471.26 2096.37,1401.24 2111.7,1401.24 2111.7,1429.36 2141.19,1429.36 2141.14,1401.24 2156.47,1401.24 "/>
  <path id="1" class="fil7" d="M2166.1 1471.26l25.59 -70.02 18.01 0 25 70.02 -16.6 0 -4.93 -14.9 -25.73 0 -4.79 14.9 -16.55 0zm24.7 -26.85l18.75 0 -7.96 -24.77c-0.25,-0.93 -0.47,-1.75 -0.65,-2.43 -0.19,-0.68 -0.34,-1.57 -0.47,-2.63l-0.38 0c-0.17,0.96 -0.34,1.81 -0.52,2.53 -0.18,0.72 -0.42,1.52 -0.72,2.4l-8.05 24.9z"/>
  <path id="2" class="fil7" d="M2300.9 1471.26l-17.23 0 -9.52 -17.43c-1.56,-2.84 -3.1,-4.95 -4.61,-6.37 -1.52,-1.42 -3.27,-2.24 -5.25,-2.42l-4.49 0 0 26.22 -15.28 0 0 -70.02 24.75 0c8.33,0 14.62,1.65 18.85,4.95 4.23,3.3 6.35,8.25 6.35,14.82 0,4.7 -1.37,8.72 -4.08,12.08 -2.72,3.39 -6.45,5.87 -11.2,7.45l0 0.2c2.05,0.65 3.95,1.99 5.71,3.99 1.75,1.99 3.27,4.11 4.54,6.36l11.46 20.17zm-41.1 -58.5l0 20.7 7.12 0c3.45,0 6.23,-1.05 8.33,-3.15 2.1,-2.1 3.15,-4.68 3.15,-7.78 0,-3.22 -0.93,-5.66 -2.78,-7.31 -1.85,-1.63 -4.65,-2.46 -8.4,-2.46l-7.42 0z"/>
  <path id="3" class="fil7" d="M2310.19 1471.26l0 -70.02 24.45 0c12.45,0 21.76,2.84 27.98,8.52 6.22,5.68 9.33,14.22 9.33,25.62 0,10.89 -3.4,19.59 -10.21,26.11 -6.8,6.52 -15.85,9.77 -27.14,9.77l-24.41 0zm15.28 -57.52l0 45.07 8 0c7,0 12.48,-2.08 16.45,-6.24 3.98,-4.14 5.97,-9.81 5.97,-17.01 0,-6.84 -1.97,-12.18 -5.89,-16.03 -3.91,-3.86 -9.46,-5.79 -16.63,-5.79l-7.9 0z"/>
  <path id="4" class="fil7" d="M2475.72 1401.24l-18.62 70.02 -16.93 0 -11.81 -45.37c-0.3,-1.16 -0.54,-2.4 -0.74,-3.7 -0.2,-1.3 -0.33,-2.66 -0.4,-4.1l-0.18 0c-0.14,1.55 -0.3,2.98 -0.52,4.29 -0.22,1.31 -0.47,2.48 -0.77,3.51l-12.1 45.37 -17.63 0 -18.55 -70.02 16.7 0 10.2 47.12c0.23,1.02 0.42,2.17 0.57,3.48 0.15,1.33 0.26,2.82 0.36,4.48l0.3 0c0.05,-1.28 0.22,-2.58 0.45,-3.93 0.25,-1.35 0.57,-2.76 0.95,-4.23l12.9 -46.92 16.3 0 11.69 47.5c0.18,0.85 0.38,1.9 0.58,3.15 0.2,1.27 0.37,2.7 0.53,4.34l0.21 0c0.06,-1.29 0.18,-2.55 0.38,-3.84 0.2,-1.28 0.43,-2.6 0.68,-3.93l9.97 -47.22 15.48 0z"/>
  <path id="5" class="fil7" d="M2474.6 1471.26l25.59 -70.02 18.02 0 24.99 70.02 -16.59 0 -4.94 -14.9 -25.73 0 -4.79 14.9 -16.55 0zm24.71 -26.85l18.75 0 -7.97 -24.77c-0.25,-0.93 -0.47,-1.75 -0.65,-2.43 -0.19,-0.68 -0.34,-1.57 -0.47,-2.63l-0.38 0c-0.17,0.96 -0.34,1.81 -0.52,2.53 -0.18,0.72 -0.42,1.52 -0.72,2.4l-8.04 24.9z"/>
  <path id="6" class="fil7" d="M2609.41 1471.26l-17.24 0 -9.51 -17.43c-1.57,-2.84 -3.1,-4.95 -4.62,-6.37 -1.52,-1.42 -3.27,-2.24 -5.25,-2.42l-4.48 0 0 26.22 -15.29 0 0 -70.02 24.75 0c8.34,0 14.62,1.65 18.85,4.95 4.24,3.3 6.35,8.25 6.35,14.82 0,4.7 -1.36,8.72 -4.08,12.08 -2.72,3.39 -6.45,5.87 -11.2,7.45l0 0.2c2.05,0.65 3.95,1.99 5.71,3.99 1.76,1.99 3.27,4.11 4.54,6.36l11.47 20.17zm-41.1 -58.5l0 20.7 7.11 0c3.45,0 6.24,-1.05 8.34,-3.15 2.1,-2.1 3.15,-4.68 3.15,-7.78 0,-3.22 -0.94,-5.66 -2.79,-7.31 -1.85,-1.63 -4.65,-2.46 -8.4,-2.46l-7.41 0z"/>
  <polygon id="7" class="fil7" points="2660.39,1471.26 2618.69,1471.26 2618.64,1401.24 2658.77,1401.24 2658.77,1413.74 2633.97,1413.74 2633.97,1429.81 2657.06,1429.81 2657.02,1442.26 2633.97,1442.26 2633.97,1458.81 2660.39,1458.81 "/>
  <path class="fil9" d="M1930.16 1202.93c-10.02,0 -18.18,-3.27 -24.48,-9.78 -6.3,-6.54 -9.45,-15.04 -9.45,-25.52 0,-11.07 3.2,-20.02 9.6,-26.85 6.38,-6.83 14.88,-10.25 25.47,-10.25 9.95,0 18.01,3.27 24.16,9.8 6.15,6.55 9.22,15.18 9.22,25.88 0,11 -3.17,19.89 -9.53,26.62 -6.37,6.73 -14.7,10.1 -24.99,10.1zm0.25 -13.18c5.6,0 10.04,-2 13.3,-6 3.27,-4 4.92,-9.55 4.92,-16.65 0,-7.4 -1.6,-13.15 -4.77,-17.27 -3.17,-4.12 -7.52,-6.17 -13.01,-6.17 -5.67,0 -10.17,2.12 -13.52,6.34 -3.37,4.23 -5.03,9.83 -5.03,16.8 0,7.06 1.66,12.66 4.99,16.78 3.34,4.12 7.72,6.17 13.12,6.17z"/>
  <path id="1" class="fil9" d="M1992.66 1178.56l0 23.15 -15.33 0 0.05 -70.01 24.37 0c8.71,0 15.28,1.9 19.66,5.71 4.4,3.8 6.6,9.5 6.6,17.09 0,7.2 -2.51,13 -7.55,17.43 -5.03,4.43 -11.73,6.63 -20.13,6.63l-7.67 0zm0 -35.05l0 23.39 6.35 0.05c4.29,0 7.52,-1 9.69,-2.99 2.16,-1.98 3.23,-4.96 3.2,-8.93 0,-3.83 -1.07,-6.72 -3.2,-8.63 -2.14,-1.94 -5.34,-2.89 -9.6,-2.89l-6.44 0z"/>
  <polygon id="2" class="fil9" points="2081.1,1201.71 2039.4,1201.71 2039.35,1131.7 2079.48,1131.7 2079.48,1144.2 2054.68,1144.2 2054.68,1160.26 2077.76,1160.26 2077.73,1172.71 2054.68,1172.71 2054.68,1189.26 2081.1,1189.26 "/>
  <path id="3" class="fil9" d="M2149.78 1201.71l-17.23 0 -9.52 -17.43c-1.57,-2.83 -3.1,-4.95 -4.62,-6.37 -1.51,-1.41 -3.26,-2.23 -5.25,-2.41l-4.48 0 0 26.21 -15.28 0 0 -70.01 24.75 0c8.33,0 14.61,1.65 18.85,4.95 4.23,3.3 6.35,8.25 6.35,14.81 0,4.7 -1.37,8.72 -4.09,12.09 -2.71,3.38 -6.45,5.86 -11.2,7.45l0 0.2c2.05,0.65 3.95,1.98 5.72,3.98 1.75,2 3.27,4.12 4.53,6.37l11.47 20.16zm-41.1 -58.5l0 20.7 7.12 0c3.45,0 6.23,-1.05 8.33,-3.15 2.1,-2.1 3.15,-4.68 3.15,-7.78 0,-3.22 -0.93,-5.65 -2.78,-7.3 -1.85,-1.63 -4.65,-2.47 -8.4,-2.47l-7.42 0z"/>
  <path id="4" class="fil9" d="M2151.55 1201.71l25.58 -70.01 18.02 0 25 70.01 -16.6 0 -4.94 -14.9 -25.73 0 -4.78 14.9 -16.55 0zm24.7 -26.85l18.75 0 -7.97 -24.76c-0.25,-0.94 -0.47,-1.75 -0.65,-2.44 -0.18,-0.68 -0.33,-1.56 -0.47,-2.63l-0.38 0c-0.17,0.97 -0.33,1.82 -0.52,2.53 -0.18,0.72 -0.41,1.52 -0.71,2.4l-8.05 24.9z"/>
  <polygon id="5" class="fil9" points="2271.61,1144.2 2251.58,1144.2 2251.63,1201.71 2236.31,1201.71 2236.26,1144.2 2216.38,1144.2 2216.38,1131.7 2271.61,1131.7 "/>
  <polygon id="6" class="fil9" points="2297.4,1201.71 2282.11,1201.71 2282.11,1131.7 2297.4,1131.7 "/>
  <path id="7" class="fil9" d="M2376.98 1201.71l-15.53 0 -29.35 -44.78c-0.82,-1.27 -1.5,-2.37 -2.07,-3.32 -0.57,-0.93 -1.02,-1.75 -1.35,-2.43l-0.2 0c0.13,1.23 0.23,2.78 0.3,4.67 0.07,1.86 0.1,4.05 0.1,6.56l0 39.3 -14.45 0 0 -70.01 16.6 0 28.27 43.45c0.61,0.95 1.23,1.9 1.83,2.86 0.6,0.95 1.15,1.87 1.63,2.75l0.2 0c-0.13,-0.81 -0.23,-2.01 -0.3,-3.63 -0.06,-1.62 -0.1,-3.6 -0.1,-5.98l0 -39.45 14.42 0 0 70.01z"/>
  <path id="8" class="fil9" d="M2451.28 1196.45c-3.28,2.01 -7.05,3.6 -11.32,4.75 -4.26,1.16 -8.95,1.73 -14.06,1.73 -11,0 -19.79,-2.93 -26.35,-8.78 -6.55,-5.87 -9.84,-14.64 -9.84,-26.32 0,-10.75 3.35,-19.65 10.04,-26.72 6.68,-7.06 15.93,-10.58 27.71,-10.58 4.35,0 8.4,0.37 12.14,1.13 3.71,0.77 7.53,1.99 11.45,3.65l-4.94 11.82c-3.13,-1.32 -6.13,-2.27 -9.03,-2.88 -2.9,-0.62 -6.1,-0.94 -9.62,-0.94 -6.65,0 -11.91,2 -15.83,6 -3.9,4.02 -5.85,9.94 -5.85,17.79 0,7.88 1.92,13.68 5.77,17.4 3.83,3.73 8.88,5.6 15.13,5.6 1.95,0 3.7,-0.15 5.25,-0.42 1.55,-0.28 2.9,-0.7 4.07,-1.25l0 -14.12 -14.1 0 0 -12.25 29.38 0 0 34.39z"/>
  <path id="9" class="fil9" d="M2488.16 1196.98l6.29 -11.92c3.51,2.09 6.6,3.5 9.23,4.27 2.63,0.77 5.4,1.15 8.3,1.15 3.75,0 6.55,-0.73 8.43,-2.22 1.87,-1.48 2.8,-3.53 2.8,-6.13 0,-2.47 -0.75,-4.38 -2.26,-5.72 -1.52,-1.33 -4.24,-2.46 -8.14,-3.41 -7.75,-1.82 -13.38,-4.37 -16.9,-7.64 -3.51,-3.26 -5.26,-7.81 -5.26,-13.65 0,-5.9 2.28,-10.9 6.83,-15.01 4.57,-4.12 10.9,-6.17 19.05,-6.17 3.45,0 6.82,0.38 10.13,1.17 3.3,0.78 6.45,1.91 9.44,3.41l-5.75 12.07c-2.67,-1.5 -5.2,-2.58 -7.6,-3.25 -2.39,-0.67 -4.65,-1 -6.77,-1 -3.22,0 -5.73,0.63 -7.53,1.92 -1.82,1.3 -2.72,3.13 -2.72,5.55 0,2.18 0.83,3.86 2.5,5.05 1.65,1.18 4.6,2.28 8.83,3.3 7.55,1.75 13.02,4.33 16.39,7.73 3.36,3.4 5.05,8.18 5.05,14.33 0,6.59 -2.32,11.9 -6.95,16 -4.65,4.09 -11.35,6.12 -20.1,6.12 -3.94,0 -7.99,-0.52 -12.14,-1.57 -4.15,-1.03 -7.86,-2.5 -11.15,-4.38z"/>
  <path id="10" class="fil9" d="M2602.95 1131.7l-22.8 45.06 0 24.95 -15.29 0 0 -24.65 -22.21 -45.36 17.43 0 11.58 26.51c0.09,0.22 0.29,0.8 0.55,1.74 0.29,0.91 0.64,2.2 1.05,3.83l0.2 0c0.2,-1.12 0.42,-2.12 0.69,-3.02 0.26,-0.88 0.53,-1.7 0.83,-2.41l11.82 -26.65 16.15 0z"/>
  <path id="11" class="fil9" d="M2605.6 1196.98l6.28 -11.92c3.52,2.09 6.6,3.5 9.23,4.27 2.64,0.77 5.4,1.15 8.3,1.15 3.75,0 6.55,-0.73 8.44,-2.22 1.86,-1.48 2.8,-3.53 2.8,-6.13 0,-2.47 -0.75,-4.38 -2.27,-5.72 -1.52,-1.33 -4.23,-2.46 -8.13,-3.41 -7.75,-1.82 -13.39,-4.37 -16.9,-7.64 -3.52,-3.26 -5.27,-7.81 -5.27,-13.65 0,-5.9 2.28,-10.9 6.83,-15.01 4.57,-4.12 10.9,-6.17 19.05,-6.17 3.45,0 6.82,0.38 10.14,1.17 3.3,0.78 6.45,1.91 9.43,3.41l-5.75 12.07c-2.67,-1.5 -5.2,-2.58 -7.6,-3.25 -2.38,-0.67 -4.65,-1 -6.77,-1 -3.21,0 -5.73,0.63 -7.53,1.92 -1.82,1.3 -2.72,3.13 -2.72,5.55 0,2.18 0.84,3.86 2.5,5.05 1.65,1.18 4.6,2.28 8.84,3.3 7.55,1.75 13.01,4.33 16.38,7.73 3.37,3.4 5.05,8.18 5.05,14.33 0,6.59 -2.32,11.9 -6.95,16 -4.65,4.09 -11.35,6.12 -20.1,6.12 -3.93,0 -7.98,-0.52 -12.13,-1.57 -4.15,-1.03 -7.87,-2.5 -11.15,-4.38z"/>
  <polygon id="12" class="fil9" points="2716.78,1144.2 2696.75,1144.2 2696.8,1201.71 2681.48,1201.71 2681.43,1144.2 2661.55,1144.2 2661.55,1131.7 2716.78,1131.7 "/>
  <polygon id="13" class="fil9" points="2768.98,1201.71 2727.28,1201.71 2727.23,1131.7 2767.36,1131.7 2767.36,1144.2 2742.56,1144.2 2742.56,1160.26 2765.65,1160.26 2765.61,1172.71 2742.56,1172.71 2742.56,1189.26 2768.98,1189.26 "/>
  <path id="14" class="fil9" d="M2860.53 1201.71l-15.1 0 0 -42.23c0,-2.22 0.05,-4.57 0.15,-7.07 0.1,-2.48 0.25,-5.1 0.43,-7.83l-0.38 0c-0.42,2.12 -0.8,3.93 -1.15,5.45 -0.33,1.52 -0.67,2.72 -1,3.63l-16.93 48.05 -12.27 0 -17.18 -47.56c-0.24,-0.65 -0.54,-1.77 -0.9,-3.37 -0.39,-1.58 -0.82,-3.65 -1.3,-6.2l-0.44 0c0.22,3.3 0.39,6.43 0.49,9.43 0.1,2.99 0.15,5.8 0.15,8.45l0 39.25 -13.82 0 0 -70.01 22.32 0 14.78 41.98c0.58,1.57 1.08,3.1 1.47,4.62 0.4,1.51 0.73,3.03 1.03,4.56l0.28 0c0.5,-1.75 0.97,-3.41 1.42,-4.98 0.47,-1.55 0.93,-2.98 1.42,-4.3l14.85 -41.88 21.68 0 0 70.01z"/>
  <path class="fil7" d="M902.31 781.78l19.19 -52.52 13.51 0 18.75 52.52 -12.45 0 -3.7 -11.18 -19.3 0 -3.59 11.18 -12.41 0zm18.53 -20.14l14.06 0 -5.98 -18.58c-0.18,-0.7 -0.34,-1.31 -0.48,-1.82 -0.14,-0.51 -0.25,-1.18 -0.35,-1.98l-0.29 0c-0.12,0.73 -0.25,1.37 -0.39,1.9 -0.14,0.54 -0.31,1.14 -0.54,1.8l-6.03 18.68z"/>
  <path id="1" class="fil7" d="M972.59 764.41l0 17.37 -11.5 0 0.04 -52.52 18.27 0c6.54,0 11.46,1.43 14.75,4.29 3.3,2.85 4.95,7.13 4.95,12.81 0,5.4 -1.89,9.75 -5.66,13.08 -3.78,3.32 -8.8,4.97 -15.1,4.97l-5.75 0zm0 -26.28l0 17.53 4.76 0.04c3.21,0 5.64,-0.75 7.26,-2.24 1.63,-1.48 2.43,-3.72 2.4,-6.7 0,-2.87 -0.8,-5.03 -2.4,-6.47 -1.6,-1.45 -4,-2.16 -7.2,-2.16l-4.82 0z"/>
  <path id="2" class="fil7" d="M1019.1 764.41l0 17.37 -11.5 0 0.04 -52.52 18.27 0c6.54,0 11.47,1.43 14.75,4.29 3.3,2.85 4.95,7.13 4.95,12.81 0,5.4 -1.88,9.75 -5.66,13.08 -3.77,3.32 -8.8,4.97 -15.1,4.97l-5.75 0zm0 -26.28l0 17.53 4.76 0.04c3.22,0 5.64,-0.75 7.27,-2.24 1.62,-1.48 2.42,-3.72 2.4,-6.7 0,-2.87 -0.8,-5.03 -2.4,-6.47 -1.6,-1.45 -4,-2.16 -7.2,-2.16l-4.83 0z"/>
  <path class="fil8" d="M952.14 930.77c-7.51,0 -13.64,-2.45 -18.36,-7.34 -4.73,-4.9 -7.09,-11.28 -7.09,-19.14 0,-8.3 2.4,-15.01 7.2,-20.14 4.79,-5.12 11.16,-7.68 19.1,-7.68 7.46,0 13.51,2.45 18.12,7.35 4.62,4.91 6.92,11.38 6.92,19.41 0,8.25 -2.38,14.91 -7.15,19.96 -4.78,5.05 -11.03,7.58 -18.74,7.58zm0.19 -9.89c4.2,0 7.52,-1.5 9.97,-4.5 2.45,-3 3.69,-7.16 3.69,-12.49 0,-5.55 -1.2,-9.86 -3.58,-12.95 -2.37,-3.09 -5.63,-4.62 -9.76,-4.62 -4.25,0 -7.62,1.58 -10.14,4.75 -2.52,3.17 -3.77,7.37 -3.77,12.6 0,5.3 1.25,9.5 3.75,12.58 2.5,3.09 5.79,4.63 9.84,4.63z"/>
  <path id="1" class="fil8" d="M983.49 926.3l4.71 -8.93c2.64,1.56 4.95,2.62 6.93,3.2 1.97,0.57 4.05,0.86 6.22,0.86 2.81,0 4.91,-0.55 6.32,-1.66 1.41,-1.12 2.1,-2.65 2.1,-4.6 0,-1.85 -0.56,-3.29 -1.69,-4.29 -1.14,-1 -3.18,-1.85 -6.11,-2.56 -5.81,-1.37 -10.03,-3.28 -12.67,-5.73 -2.64,-2.45 -3.95,-5.86 -3.95,-10.24 0,-4.42 1.71,-8.17 5.13,-11.26 3.42,-3.09 8.17,-4.62 14.28,-4.62 2.59,0 5.12,0.28 7.6,0.87 2.48,0.59 4.84,1.44 7.08,2.56l-4.31 9.05c-2,-1.12 -3.9,-1.93 -5.7,-2.43 -1.79,-0.5 -3.49,-0.75 -5.08,-0.75 -2.41,0 -4.3,0.47 -5.65,1.43 -1.36,0.98 -2.04,2.35 -2.04,4.17 0,1.63 0.63,2.9 1.88,3.78 1.24,0.89 3.45,1.72 6.62,2.48 5.66,1.31 9.77,3.25 12.29,5.8 2.52,2.55 3.79,6.14 3.79,10.75 0,4.94 -1.74,8.92 -5.21,12 -3.49,3.06 -8.52,4.59 -15.08,4.59 -2.95,0 -5.99,-0.39 -9.1,-1.18 -3.11,-0.77 -5.9,-1.87 -8.36,-3.29z"/>
  <path class="fil7" d="M1468.21 781.78l19.18 -52.52 13.52 0 18.75 52.52 -12.45 0 -3.7 -11.18 -19.3 0 -3.59 11.18 -12.41 0zm18.52 -20.14l14.06 0 -5.97 -18.58c-0.19,-0.7 -0.35,-1.31 -0.49,-1.82 -0.14,-0.51 -0.25,-1.18 -0.35,-1.98l-0.29 0c-0.12,0.73 -0.25,1.37 -0.38,1.9 -0.14,0.54 -0.32,1.14 -0.54,1.8l-6.04 18.68z"/>
  <path id="1" class="fil7" d="M1538.48 764.41l0 17.37 -11.5 0 0.04 -52.52 18.27 0c6.54,0 11.47,1.43 14.75,4.29 3.3,2.85 4.95,7.13 4.95,12.81 0,5.4 -1.88,9.75 -5.66,13.08 -3.77,3.32 -8.8,4.97 -15.1,4.97l-5.75 0zm0 -26.28l0 17.53 4.76 0.04c3.22,0 5.64,-0.75 7.27,-2.24 1.62,-1.48 2.42,-3.72 2.4,-6.7 0,-2.87 -0.8,-5.03 -2.4,-6.47 -1.6,-1.45 -4,-2.16 -7.2,-2.16l-4.83 0z"/>
  <path id="2" class="fil7" d="M1584.99 764.41l0 17.37 -11.5 0 0.04 -52.52 18.28 0c6.53,0 11.46,1.43 14.75,4.29 3.3,2.85 4.95,7.13 4.95,12.81 0,5.4 -1.89,9.75 -5.67,13.08 -3.77,3.32 -8.8,4.97 -15.1,4.97l-5.75 0zm0 -26.28l0 17.53 4.77 0.04c3.21,0 5.63,-0.75 7.26,-2.24 1.62,-1.48 2.42,-3.72 2.4,-6.7 0,-2.87 -0.8,-5.03 -2.4,-6.47 -1.6,-1.45 -4,-2.16 -7.2,-2.16l-4.83 0z"/>
  <path class="fil8" d="M1518.03 930.77c-7.51,0 -13.64,-2.45 -18.36,-7.34 -4.73,-4.9 -7.09,-11.28 -7.09,-19.14 0,-8.3 2.4,-15.01 7.2,-20.14 4.79,-5.12 11.16,-7.68 19.1,-7.68 7.46,0 13.51,2.45 18.13,7.35 4.61,4.91 6.91,11.38 6.91,19.41 0,8.25 -2.38,14.91 -7.15,19.96 -4.78,5.05 -11.03,7.58 -18.74,7.58zm0.19 -9.89c4.2,0 7.52,-1.5 9.97,-4.5 2.45,-3 3.69,-7.16 3.69,-12.49 0,-5.55 -1.2,-9.86 -3.57,-12.95 -2.38,-3.09 -5.64,-4.62 -9.77,-4.62 -4.25,0 -7.62,1.58 -10.13,4.75 -2.53,3.17 -3.78,7.37 -3.78,12.6 0,5.3 1.25,9.5 3.75,12.58 2.5,3.09 5.79,4.63 9.84,4.63z"/>
  <path id="1" class="fil8" d="M1549.38 926.3l4.71 -8.93c2.64,1.56 4.95,2.62 6.93,3.2 1.97,0.57 4.05,0.86 6.22,0.86 2.82,0 4.92,-0.55 6.33,-1.66 1.4,-1.12 2.1,-2.65 2.1,-4.6 0,-1.85 -0.56,-3.29 -1.7,-4.29 -1.14,-1 -3.18,-1.85 -6.1,-2.56 -5.81,-1.37 -10.04,-3.28 -12.68,-5.73 -2.63,-2.45 -3.95,-5.86 -3.95,-10.24 0,-4.42 1.72,-8.17 5.13,-11.26 3.42,-3.09 8.17,-4.62 14.29,-4.62 2.58,0 5.11,0.28 7.6,0.87 2.47,0.59 4.83,1.44 7.07,2.56l-4.31 9.05c-2,-1.12 -3.9,-1.93 -5.7,-2.43 -1.79,-0.5 -3.49,-0.75 -5.08,-0.75 -2.41,0 -4.3,0.47 -5.65,1.43 -1.36,0.98 -2.03,2.35 -2.03,4.17 0,1.63 0.62,2.9 1.87,3.78 1.24,0.89 3.45,1.72 6.63,2.48 5.66,1.31 9.76,3.25 12.28,5.8 2.53,2.55 3.79,6.14 3.79,10.75 0,4.94 -1.74,8.92 -5.21,12 -3.49,3.06 -8.51,4.59 -15.08,4.59 -2.95,0 -5.98,-0.39 -9.1,-1.18 -3.11,-0.77 -5.9,-1.87 -8.36,-3.29z"/>
  <polygon class="fil9" points="1011.87,1202.87 996.54,1202.87 996.49,1174.15 967.05,1174.1 967.05,1202.87 951.77,1202.87 951.72,1132.85 967.05,1132.85 967.05,1160.97 996.54,1160.97 996.49,1132.85 1011.82,1132.85 "/>
  <path id="1" class="fil9" d="M1081.2 1132.85l-22.8 45.07 0 24.95 -15.28 0 0 -24.65 -22.22 -45.37 17.44 0 11.58 26.52c0.08,0.22 0.28,0.8 0.55,1.73 0.28,0.92 0.63,2.2 1.05,3.84l0.2 0c0.2,-1.12 0.42,-2.12 0.68,-3.02 0.27,-0.88 0.54,-1.7 0.84,-2.42l11.81 -26.65 16.15 0z"/>
  <path id="2" class="fil9" d="M1105.54 1179.72l0 23.15 -15.34 0 0.05 -70.02 24.37 0c8.72,0 15.28,1.9 19.67,5.72 4.4,3.8 6.6,9.5 6.6,17.08 0,7.2 -2.52,13 -7.55,17.44 -5.04,4.43 -11.74,6.63 -20.14,6.63l-7.66 0zm0 -35.05l0 23.38 6.35 0.05c4.28,0 7.51,-1 9.68,-2.98 2.17,-1.98 3.23,-4.97 3.2,-8.93 0,-3.84 -1.07,-6.72 -3.2,-8.64 -2.13,-1.93 -5.33,-2.88 -9.6,-2.88l-6.43 0z"/>
  <polygon id="3" class="fil9" points="1193.97,1202.87 1152.27,1202.87 1152.22,1132.85 1192.35,1132.85 1192.35,1145.35 1167.55,1145.35 1167.55,1161.42 1190.64,1161.42 1190.61,1173.87 1167.55,1173.87 1167.55,1190.42 1193.97,1190.42 "/>
  <path id="4" class="fil9" d="M1262.65 1202.87l-17.23 0 -9.51 -17.43c-1.57,-2.84 -3.11,-4.95 -4.62,-6.37 -1.52,-1.42 -3.27,-2.23 -5.25,-2.42l-4.49 0 0 26.22 -15.28 0 0 -70.02 24.75 0c8.34,0 14.62,1.65 18.85,4.95 4.23,3.3 6.35,8.25 6.35,14.82 0,4.7 -1.37,8.72 -4.08,12.08 -2.72,3.39 -6.45,5.87 -11.2,7.45l0 0.2c2.05,0.65 3.95,1.99 5.71,3.99 1.75,2 3.27,4.11 4.54,6.36l11.46 20.17zm-41.1 -58.5l0 20.7 7.12 0c3.45,0 6.23,-1.05 8.33,-3.15 2.1,-2.1 3.15,-4.68 3.15,-7.78 0,-3.22 -0.93,-5.65 -2.78,-7.3 -1.85,-1.64 -4.65,-2.47 -8.4,-2.47l-7.42 0z"/>
  <path id="5" class="fil9" d="M1329.84 1132.85l-24.27 70.02 -17.23 0 -23.97 -70.02 16.5 0 14.89 49.22c0.4,1.3 0.7,2.52 0.93,3.67 0.23,1.13 0.38,2.2 0.48,3.21l0.3 0c0.13,-1.03 0.32,-2.16 0.57,-3.36 0.23,-1.2 0.55,-2.45 0.95,-3.72l14.88 -49.02 15.97 0z"/>
  <polygon id="6" class="fil9" points="1354.6,1202.87 1339.32,1202.87 1339.32,1132.85 1354.6,1132.85 "/>
  <path id="7" class="fil9" d="M1366.22 1198.14l6.29 -11.92c3.51,2.08 6.6,3.5 9.23,4.27 2.63,0.76 5.4,1.15 8.3,1.15 3.75,0 6.55,-0.74 8.43,-2.22 1.87,-1.48 2.8,-3.53 2.8,-6.13 0,-2.47 -0.75,-4.39 -2.26,-5.72 -1.52,-1.33 -4.24,-2.47 -8.14,-3.42 -7.75,-1.81 -13.38,-4.36 -16.9,-7.63 -3.51,-3.27 -5.27,-7.82 -5.27,-13.65 0,-5.9 2.29,-10.9 6.84,-15.02 4.57,-4.11 10.9,-6.16 19.05,-6.16 3.45,0 6.82,0.38 10.13,1.16 3.3,0.79 6.45,1.92 9.44,3.42l-5.75 12.07c-2.67,-1.5 -5.2,-2.59 -7.6,-3.25 -2.39,-0.67 -4.65,-1 -6.77,-1 -3.22,0 -5.73,0.63 -7.53,1.91 -1.82,1.3 -2.72,3.14 -2.72,5.55 0,2.19 0.83,3.87 2.5,5.05 1.65,1.19 4.6,2.29 8.83,3.3 7.55,1.75 13.02,4.34 16.39,7.74 3.36,3.4 5.05,8.18 5.05,14.33 0,6.58 -2.32,11.9 -6.95,16 -4.65,4.08 -11.35,6.12 -20.1,6.12 -3.94,0 -7.99,-0.52 -12.14,-1.57 -4.15,-1.03 -7.86,-2.5 -11.15,-4.38z"/>
  <path id="8" class="fil9" d="M1458.31 1204.09c-10.02,0 -18.19,-3.27 -24.49,-9.79 -6.3,-6.53 -9.45,-15.03 -9.45,-25.51 0,-11.07 3.2,-20.02 9.6,-26.85 6.39,-6.84 14.89,-10.25 25.47,-10.25 9.95,0 18.02,3.26 24.17,9.8 6.15,6.55 9.21,15.18 9.21,25.88 0,11 -3.16,19.88 -9.53,26.62 -6.37,6.73 -14.7,10.1 -24.98,10.1zm0.25 -13.19c5.6,0 10.03,-2 13.3,-6 3.26,-4 4.91,-9.55 4.91,-16.65 0,-7.4 -1.6,-13.15 -4.76,-17.26 -3.17,-4.12 -7.52,-6.17 -13.02,-6.17 -5.67,0 -10.17,2.12 -13.52,6.33 -3.36,4.24 -5.03,9.84 -5.03,16.8 0,7.07 1.67,12.67 5,16.79 3.33,4.11 7.72,6.16 13.12,6.16z"/>
  <path id="9" class="fil9" d="M1561.91 1202.87l-17.24 0 -9.51 -17.43c-1.57,-2.84 -3.1,-4.95 -4.62,-6.37 -1.52,-1.42 -3.27,-2.23 -5.25,-2.42l-4.48 0 0 26.22 -15.29 0 0 -70.02 24.75 0c8.34,0 14.62,1.65 18.85,4.95 4.24,3.3 6.35,8.25 6.35,14.82 0,4.7 -1.36,8.72 -4.08,12.08 -2.72,3.39 -6.45,5.87 -11.2,7.45l0 0.2c2.05,0.65 3.95,1.99 5.72,3.99 1.75,2 3.26,4.11 4.53,6.36l11.47 20.17zm-41.1 -58.5l0 20.7 7.11 0c3.45,0 6.24,-1.05 8.34,-3.15 2.1,-2.1 3.15,-4.68 3.15,-7.78 0,-3.22 -0.94,-5.65 -2.79,-7.3 -1.85,-1.64 -4.65,-2.47 -8.4,-2.47l-7.41 0z"/>
  <polygon class="fil7" points="1034.95,1471.26 1019.62,1471.26 1019.57,1442.54 990.14,1442.49 990.14,1471.26 974.85,1471.26 974.8,1401.24 990.14,1401.24 990.14,1429.36 1019.62,1429.36 1019.57,1401.24 1034.9,1401.24 "/>
  <path id="1" class="fil7" d="M1044.54 1471.26l25.58 -70.02 18.02 0 25 70.02 -16.6 0 -4.94 -14.9 -25.73 0 -4.78 14.9 -16.55 0zm24.7 -26.85l18.75 0 -7.97 -24.77c-0.25,-0.93 -0.47,-1.75 -0.65,-2.43 -0.18,-0.68 -0.33,-1.57 -0.47,-2.63l-0.38 0c-0.17,0.96 -0.33,1.81 -0.52,2.53 -0.18,0.72 -0.41,1.52 -0.71,2.4l-8.05 24.9z"/>
  <path id="2" class="fil7" d="M1179.34 1471.26l-17.24 0 -9.51 -17.43c-1.57,-2.84 -3.1,-4.95 -4.62,-6.37 -1.52,-1.42 -3.27,-2.24 -5.25,-2.42l-4.48 0 0 26.22 -15.29 0 0 -70.02 24.75 0c8.34,0 14.62,1.65 18.85,4.95 4.24,3.3 6.35,8.25 6.35,14.82 0,4.7 -1.36,8.72 -4.08,12.08 -2.72,3.39 -6.45,5.87 -11.2,7.45l0 0.2c2.05,0.65 3.95,1.99 5.72,3.99 1.75,1.99 3.26,4.11 4.53,6.36l11.47 20.17zm-41.1 -58.5l0 20.7 7.11 0c3.45,0 6.24,-1.05 8.34,-3.15 2.1,-2.1 3.15,-4.68 3.15,-7.78 0,-3.22 -0.94,-5.66 -2.79,-7.31 -1.85,-1.63 -4.65,-2.46 -8.4,-2.46l-7.41 0z"/>
  <path id="3" class="fil7" d="M1188.62 1471.26l0 -70.02 24.45 0c12.45,0 21.77,2.84 27.98,8.52 6.22,5.68 9.34,14.22 9.34,25.62 0,10.89 -3.4,19.59 -10.22,26.11 -6.8,6.52 -15.85,9.77 -27.13,9.77l-24.42 0zm15.28 -57.52l0 45.07 8 0c7,0 12.49,-2.08 16.45,-6.24 3.99,-4.14 5.97,-9.81 5.97,-17.01 0,-6.84 -1.97,-12.18 -5.88,-16.03 -3.92,-3.86 -9.47,-5.79 -16.64,-5.79l-7.9 0z"/>
  <path id="4" class="fil7" d="M1354.15 1401.24l-18.61 70.02 -16.94 0 -11.81 -45.37c-0.3,-1.16 -0.53,-2.4 -0.73,-3.7 -0.21,-1.3 -0.34,-2.66 -0.4,-4.1l-0.19 0c-0.13,1.55 -0.3,2.98 -0.52,4.29 -0.21,1.31 -0.46,2.48 -0.76,3.51l-12.1 45.37 -17.63 0 -18.56 -70.02 16.71 0 10.2 47.12c0.23,1.02 0.41,2.17 0.56,3.48 0.15,1.33 0.27,2.82 0.37,4.48l0.3 0c0.05,-1.28 0.21,-2.58 0.45,-3.93 0.25,-1.35 0.57,-2.76 0.95,-4.23l12.9 -46.92 16.3 0 11.68 47.5c0.19,0.85 0.38,1.9 0.59,3.15 0.2,1.27 0.36,2.7 0.53,4.34l0.2 0c0.07,-1.29 0.18,-2.55 0.38,-3.84 0.2,-1.28 0.44,-2.6 0.69,-3.93l9.96 -47.22 15.48 0z"/>
  <path id="5" class="fil7" d="M1353.04 1471.26l25.58 -70.02 18.02 0 25 70.02 -16.6 0 -4.93 -14.9 -25.74 0 -4.78 14.9 -16.55 0zm24.7 -26.85l18.75 0 -7.97 -24.77c-0.25,-0.93 -0.47,-1.75 -0.65,-2.43 -0.18,-0.68 -0.33,-1.57 -0.46,-2.63l-0.39 0c-0.17,0.96 -0.33,1.81 -0.51,2.53 -0.19,0.72 -0.42,1.52 -0.72,2.4l-8.05 24.9z"/>
  <path id="6" class="fil7" d="M1487.84 1471.26l-17.23 0 -9.52 -17.43c-1.57,-2.84 -3.1,-4.95 -4.62,-6.37 -1.51,-1.42 -3.26,-2.24 -5.25,-2.42l-4.48 0 0 26.22 -15.28 0 0 -70.02 24.75 0c8.33,0 14.61,1.65 18.85,4.95 4.23,3.3 6.35,8.25 6.35,14.82 0,4.7 -1.37,8.72 -4.09,12.08 -2.71,3.39 -6.45,5.87 -11.2,7.45l0 0.2c2.05,0.65 3.95,1.99 5.72,3.99 1.75,1.99 3.27,4.11 4.53,6.36l11.47 20.17zm-41.1 -58.5l0 20.7 7.12 0c3.45,0 6.23,-1.05 8.33,-3.15 2.1,-2.1 3.15,-4.68 3.15,-7.78 0,-3.22 -0.93,-5.66 -2.78,-7.31 -1.85,-1.63 -4.65,-2.46 -8.4,-2.46l-7.42 0z"/>
  <polygon id="7" class="fil7" points="1538.82,1471.26 1497.12,1471.26 1497.07,1401.24 1537.21,1401.24 1537.21,1413.74 1512.41,1413.74 1512.41,1429.81 1535.49,1429.81 1535.46,1442.26 1512.41,1442.26 1512.41,1458.81 1538.82,1458.81 "/>
  <polygon class="fil6" points="2031.04,249.95 2011,249.95 2011.05,307.47 1995.74,307.47 1995.69,249.95 1975.8,249.95 1975.8,237.45 2031.04,237.45 "/>
  <polygon id="1" class="fil6" points="2056.82,307.47 2041.54,307.47 2041.54,237.45 2056.82,237.45 "/>
  <path id="2" class="fil6" d="M2089.14 284.32l0 23.15 -15.34 0 0.05 -70.02 24.37 0c8.72,0 15.28,1.9 19.67,5.72 4.4,3.8 6.6,9.5 6.6,17.08 0,7.2 -2.52,13 -7.55,17.43 -5.04,4.44 -11.74,6.64 -20.14,6.64l-7.66 0zm0 -35.05l0 23.38 6.35 0.05c4.28,0 7.51,-1 9.68,-2.98 2.17,-1.99 3.23,-4.97 3.2,-8.94 0,-3.83 -1.07,-6.71 -3.2,-8.63 -2.13,-1.93 -5.33,-2.88 -9.6,-2.88l-6.43 0z"/>
  <path id="3" class="fil6" d="M2165.4 308.68c-10.01,0 -18.18,-3.26 -24.48,-9.78 -6.3,-6.53 -9.45,-15.03 -9.45,-25.52 0,-11.06 3.2,-20.01 9.6,-26.85 6.38,-6.83 14.88,-10.25 25.47,-10.25 9.95,0 18.01,3.27 24.16,9.8 6.15,6.55 9.22,15.19 9.22,25.89 0,11 -3.17,19.88 -9.53,26.61 -6.37,6.74 -14.7,10.1 -24.99,10.1zm0.25 -13.18c5.6,0 10.04,-2 13.3,-6 3.27,-4 4.92,-9.55 4.92,-16.65 0,-7.4 -1.6,-13.15 -4.77,-17.27 -3.16,-4.11 -7.51,-6.16 -13.01,-6.16 -5.67,0 -10.17,2.11 -13.52,6.33 -3.37,4.23 -5.03,9.83 -5.03,16.8 0,7.07 1.66,12.67 5,16.78 3.33,4.12 7.71,6.17 13.11,6.17z"/>
  <path id="4" class="fil6" d="M2238.1 307.47l0 -5.19c0,-3.5 0.59,-6.66 1.76,-9.48 1.18,-2.82 2.64,-5.37 4.44,-7.65 1.79,-2.22 3.79,-4.2 5.99,-5.98 2.2,-1.77 4.31,-3.39 6.37,-4.85 2.08,-1.47 3.88,-2.87 5.4,-4.2 1.51,-1.34 2.83,-2.64 3.98,-3.92 1.2,-1.3 2.06,-2.68 2.6,-4.15 0.53,-1.47 0.81,-3.17 0.81,-5.12 0,-2.48 -0.78,-4.55 -2.35,-6.23 -1.56,-1.67 -3.84,-2.52 -6.83,-2.52 -2.05,0 -4.5,0.55 -7.35,1.62 -2.85,1.07 -5.63,2.72 -8.33,4.93l-7.57 -9.18c3.85,-3.18 7.82,-5.53 11.92,-7.03 4.1,-1.5 8.65,-2.24 13.61,-2.24 6.72,0 12.04,1.82 15.95,5.47 3.92,3.63 5.89,8.05 5.89,13.23 0,4 -0.48,7.24 -1.47,9.72 -0.96,2.47 -2.28,4.72 -3.9,6.73 -1.63,2.05 -3.52,3.94 -5.65,5.64 -2.13,1.71 -4.35,3.38 -6.65,5.01 -1.7,1.17 -3.28,2.32 -4.77,3.47 -1.48,1.13 -2.8,2.22 -3.93,3.27 -1.1,1.1 -1.98,2.18 -2.63,3.21 -0.65,1.05 -0.98,2.05 -0.98,3.04l30.03 0 0 12.4 -46.34 0z"/>
  <polygon id="5" class="fil6" points="2455.07,307.47 2439.74,307.47 2439.69,278.75 2410.26,278.7 2410.26,307.47 2394.97,307.47 2394.92,237.45 2410.26,237.45 2410.26,265.57 2439.74,265.57 2439.69,237.45 2455.02,237.45 "/>
  <path id="6" class="fil6" d="M2501.71 308.68c-10.02,0 -18.19,-3.26 -24.49,-9.78 -6.3,-6.53 -9.45,-15.03 -9.45,-25.52 0,-11.06 3.2,-20.01 9.6,-26.85 6.39,-6.83 14.89,-10.25 25.47,-10.25 9.95,0 18.02,3.27 24.17,9.8 6.15,6.55 9.21,15.19 9.21,25.89 0,11 -3.16,19.88 -9.53,26.61 -6.37,6.74 -14.7,10.1 -24.98,10.1zm0.25 -13.18c5.6,0 10.03,-2 13.3,-6 3.26,-4 4.91,-9.55 4.91,-16.65 0,-7.4 -1.6,-13.15 -4.76,-17.27 -3.17,-4.11 -7.52,-6.16 -13.02,-6.16 -5.67,0 -10.17,2.11 -13.52,6.33 -3.36,4.23 -5.03,9.83 -5.03,16.8 0,7.07 1.67,12.67 5,16.78 3.33,4.12 7.72,6.17 13.12,6.17z"/>
  <path id="7" class="fil6" d="M2543.51 302.73l6.28 -11.91c3.52,2.08 6.6,3.5 9.23,4.26 2.64,0.77 5.4,1.15 8.3,1.15 3.75,0 6.55,-0.73 8.44,-2.21 1.86,-1.49 2.8,-3.54 2.8,-6.14 0,-2.46 -0.75,-4.38 -2.27,-5.71 -1.52,-1.34 -4.23,-2.47 -8.13,-3.42 -7.75,-1.82 -13.39,-4.37 -16.9,-7.63 -3.52,-3.27 -5.27,-7.82 -5.27,-13.65 0,-5.9 2.28,-10.9 6.83,-15.02 4.57,-4.12 10.9,-6.17 19.05,-6.17 3.45,0 6.82,0.39 10.14,1.17 3.3,0.78 6.45,1.92 9.43,3.42l-5.75 12.06c-2.67,-1.5 -5.2,-2.58 -7.6,-3.25 -2.38,-0.66 -4.65,-1 -6.77,-1 -3.21,0 -5.73,0.64 -7.53,1.92 -1.82,1.3 -2.72,3.13 -2.72,5.55 0,2.18 0.84,3.87 2.5,5.05 1.65,1.18 4.6,2.28 8.84,3.3 7.55,1.75 13.01,4.33 16.38,7.73 3.37,3.4 5.05,8.19 5.05,14.34 0,6.58 -2.32,11.9 -6.95,16 -4.65,4.08 -11.35,6.11 -20.1,6.11 -3.93,0 -7.98,-0.51 -12.13,-1.56 -4.15,-1.04 -7.87,-2.5 -11.15,-4.39z"/>
  <polygon id="8" class="fil6" points="2654.69,249.95 2634.66,249.95 2634.71,307.47 2619.39,307.47 2619.34,249.95 2599.46,249.95 2599.46,237.45 2654.69,237.45 "/>
  <polygon id="9" class="fil6" points="2706.89,307.47 2665.19,307.47 2665.14,237.45 2705.27,237.45 2705.27,249.95 2680.47,249.95 2680.47,266.02 2703.56,266.02 2703.52,278.47 2680.47,278.47 2680.47,295.02 2706.89,295.02 "/>
  <path id="10" class="fil6" d="M2719.19 307.47l0 -70.02 24.45 0c12.45,0 21.77,2.83 27.98,8.52 6.22,5.68 9.34,14.21 9.34,25.61 0,10.9 -3.4,19.6 -10.22,26.12 -6.8,6.52 -15.85,9.77 -27.13,9.77l-24.42 0zm15.28 -57.52l0 45.07 8 0c7,0 12.49,-2.09 16.45,-6.24 3.99,-4.15 5.97,-9.81 5.97,-17.01 0,-6.84 -1.97,-12.19 -5.88,-16.04 -3.92,-3.85 -9.47,-5.78 -16.64,-5.78l-7.9 0z"/>
  <polygon id="11" class="fil6" points="2324.96,285.63 2324.91,275.15 2351.67,275.15 2351.62,285.63 "/>
 </g>
</svg>
