<?xml version="1.0" encoding="UTF-8"?>
<!DOCTYPE svg PUBLIC "-//W3C//DTD SVG 1.1//EN" "http://www.w3.org/Graphics/SVG/1.1/DTD/svg11.dtd">
<!-- Creator: CorelDRAW 2020 (64-Bit) -->
<svg xmlns="http://www.w3.org/2000/svg" xml:space="preserve" width="3201px" height="1340px" version="1.1" style="shape-rendering:geometricPrecision; text-rendering:geometricPrecision; image-rendering:optimizeQuality; fill-rule:evenodd; clip-rule:evenodd"
viewBox="0 0 2824.87 1182.65"
 xmlns:xlink="http://www.w3.org/1999/xlink"
 xmlns:xodm="http://www.corel.com/coreldraw/odm/2003">
 <defs>
  <style type="text/css">
   <![CDATA[
    .str2 {stroke:#C00000;stroke-width:8.83;stroke-miterlimit:22.9256}
    .str0 {stroke:#0070C0;stroke-width:14.12;stroke-miterlimit:22.9256}
    .str1 {stroke:#BFBFBF;stroke-width:0.79;stroke-miterlimit:22.9256}
    .fil0 {fill:none}
    .fil2 {fill:#0070C0}
    .fil4 {fill:red}
    .fil1 {fill:white}
    .fil6 {fill:black;fill-rule:nonzero}
    .fil3 {fill:#BFBFBF;fill-rule:nonzero}
    .fil5 {fill:white;fill-rule:nonzero}
   ]]>
  </style>
 </defs>
 <g id="Capa_x0020_1">
  <metadata id="CorelCorpID_0Corel-Layer"/>
  <rect class="fil0" width="2824.87" height="1182.65"/>
  <g id="_2298359974704">
   <polygon class="fil1 str0" points="2427.8,193.17 911.59,193.17 911.59,702.4 2427.8,702.4 "/>
   <polygon class="fil2" points="971.6,486.17 971.6,645.91 1390.81,645.91 1390.81,486.17 "/>
   <polygon class="fil2" points="1459.65,486.17 1459.65,645.91 1878.42,645.91 1878.42,486.17 "/>
   <polygon class="fil2" points="1947.26,486.17 1947.26,645.91 2366.02,645.91 2366.02,486.17 "/>
   <path class="fil3 str1" d="M1184.52 653.42l0 115.61 -7.06 0 0 -115.61 7.06 0zm-19.42 19.85l15.89 -27.36 15.88 27.36 0.89 1.77 -0.45 1.32 -0.44 1.33 -1.32 0.88 -1.33 0.44 -1.32 0 -1.32 -0.88 -0.88 -0.89 -12.8 -22.06 6.18 0 -12.8 22.06 -0.88 0.89 -1.33 0.88 -1.32 0 -1.33 -0.44 -1.32 -0.88 -0.44 -1.33 0 -1.32 0.44 -1.77 0 0zm31.77 75.46l-15.88 27.36 -15.89 -27.36 -0.44 -1.32 0 -1.33 0.44 -1.32 1.32 -0.88 1.33 -0.44 1.32 0 1.33 0.44 0.88 1.32 12.8 22.06 -6.18 0 12.8 -22.06 0.88 -1.32 1.32 -0.44 1.32 0 1.33 0.44 1.32 0.88 0.44 1.32 0.45 1.33 -0.89 1.32 0 0z"/>
   <path class="fil3 str1" d="M2160.39 653.42l0 115.61 -7.5 0 0 -115.61 7.5 0zm-19.86 20.29l15.89 -27.8 16.33 27.8 0.44 1.33 0 1.32 -0.88 1.33 -0.89 0.88 -1.32 0.44 -1.77 0 -1.32 -0.88 -0.88 -0.89 -12.8 -22.06 6.18 0 -12.8 22.06 -0.88 0.89 -1.32 0.88 -1.33 0 -1.32 -0.44 -1.33 -0.88 -0.44 -1.33 0 -1.32 0.44 -1.33 0 0zm32.22 75.02l-16.33 27.8 -15.89 -27.8 -0.44 -1.32 0 -1.33 0.44 -1.32 1.33 -0.88 1.32 -0.44 1.33 0 1.32 0.44 0.88 1.32 12.8 22.06 -6.18 0 12.8 -22.06 0.88 -1.32 1.32 -0.44 1.77 0 1.32 0.44 0.89 0.88 0.88 1.32 0 1.33 -0.44 1.32 0 0z"/>
   <path class="fil3 str1" d="M1672.34 653.42l0 115.61 -7.06 0 0 -115.61 7.06 0zm-19.41 19.85l15.88 -27.36 15.89 27.36 0.88 1.77 -0.44 1.32 -0.44 1.33 -1.32 0.88 -1.33 0.44 -1.32 0 -1.33 -0.88 -0.88 -0.89 -12.8 -22.06 6.18 0 -12.79 22.06 -0.89 0.89 -1.32 0.88 -1.32 0 -1.33 -0.44 -1.32 -0.88 -0.44 -1.33 0 -1.32 0.44 -1.77 0 0zm31.77 75.46l-15.89 27.36 -15.88 -27.36 -0.44 -1.32 0 -1.33 0.44 -1.32 1.32 -0.88 1.33 -0.44 1.32 0 1.32 0.44 0.89 1.32 12.79 22.06 -6.18 0 12.8 -22.06 0.88 -1.32 1.33 -0.44 1.32 0 1.33 0.44 1.32 0.88 0.44 1.32 0.44 1.33 -0.88 1.32 0 0z"/>
   <path class="fil3 str1" d="M823.34 343.2l39.27 0 0 -3.53 -3.53 3.53 35.74 0 0 -7.06 -39.71 0 0 3.53 3.97 -3.53 -35.74 0 0 7.06zm19.85 -19.42l-27.35 15.89 27.35 15.89 1.77 0.88 1.32 -0.44 1.33 -0.44 0.88 -1.33 0.44 -1.32 0 -1.32 -0.88 -1.33 -0.89 -0.88 -22.06 -12.8 0 6.18 22.06 -12.8 0 0 0.89 -0.88 0.88 -1.32 0 -1.33 -0.44 -1.32 -0.88 -1.33 -1.33 -0.44 -1.32 0 -1.77 0.44 0 0zm31.33 31.78l27.36 -15.89 -27.36 -15.89 -1.32 -0.44 -1.32 0 -1.33 0.44 -0.88 1.33 -0.88 1.32 0.44 1.33 0.44 1.32 1.32 0.88 22.07 12.8 0 -6.18 -22.07 12.8 0 0 -1.32 0.88 -0.44 1.33 -0.44 1.32 0.88 1.32 0.88 1.33 1.33 0.44 1.32 0.44 1.32 -0.88 0 0z"/>
   <path class="fil3 str1" d="M823.34 569.57l39.27 0 0 -3.53 -3.53 3.53 35.74 0 0 -7.06 -39.71 0 0 3.53 3.97 -3.53 -35.74 0 0 7.06zm19.85 -19.41l-27.35 15.88 27.35 15.89 1.77 0.88 1.32 -0.44 1.33 -0.44 0.88 -1.32 0.44 -1.33 0 -1.32 -0.88 -1.33 -0.89 -0.88 -22.06 -12.79 0 6.17 22.06 -12.79 0 0 0.89 -0.89 0.88 -1.32 0 -1.32 -0.44 -1.33 -0.88 -1.32 -1.33 -0.44 -1.32 0 -1.77 0.44 0 0zm31.33 31.77l27.36 -15.89 -27.36 -15.88 -1.32 -0.44 -1.32 0 -1.33 0.44 -0.88 1.32 -0.88 1.33 0.44 1.32 0.44 1.32 1.32 0.89 22.07 12.79 0 -6.17 -22.07 12.79 0 0 -1.32 0.88 -0.44 1.33 -0.44 1.32 0.88 1.33 0.88 1.32 1.33 0.44 1.32 0.44 1.32 -0.88 0 0z"/>
   <polygon class="fil4 str2" points="397.07,259.8 397.07,419.98 815.84,419.98 815.84,259.8 "/>
   <polygon class="fil4 str2" points="397.07,486.17 397.07,645.91 815.84,645.91 815.84,486.17 "/>
   <polygon class="fil4 str2" points="971.6,776.53 971.6,936.27 1390.81,936.27 1390.81,776.53 "/>
   <polygon class="fil4 str2" points="1459.65,776.53 1459.65,936.27 1878.42,936.27 1878.42,776.53 "/>
   <polygon class="fil4 str2" points="1947.26,776.53 1947.26,936.27 2366.02,936.27 2366.02,776.53 "/>
   <path class="fil5" d="M1035.98 577.84c-1.9,0.87 -3.74,1.51 -5.52,1.91 -1.79,0.4 -3.72,0.6 -5.79,0.6 -5.61,0 -10.01,-1.57 -13.23,-4.73 -3.21,-3.15 -4.83,-7.64 -4.83,-13.47 0,-5.49 1.76,-10.05 5.27,-13.66 3.51,-3.61 8.14,-5.41 13.88,-5.41 1.95,0 3.69,0.14 5.24,0.43 1.54,0.29 3.11,0.76 4.73,1.39l-2.42 6.34c-1.22,-0.49 -2.41,-0.84 -3.57,-1.07 -1.15,-0.22 -2.4,-0.33 -3.74,-0.33 -3.04,0 -5.65,1.05 -7.84,3.17 -2.19,2.12 -3.28,4.99 -3.28,8.59 0,3.72 0.97,6.63 2.88,8.72 1.92,2.09 4.55,3.15 7.88,3.15 0.96,0 2.09,-0.16 3.41,-0.46 1.31,-0.3 2.66,-0.79 4.03,-1.45l2.9 6.28z"/>
   <path id="1" class="fil5" d="M1053.45 580.35c-4.35,0 -7.76,-1.23 -10.26,-3.69 -2.49,-2.47 -3.75,-5.8 -3.75,-10.01 0.02,-4.37 1.32,-7.79 3.9,-10.26 2.58,-2.46 6.07,-3.69 10.48,-3.69 4.34,0 7.74,1.23 10.2,3.68 2.45,2.46 3.68,5.73 3.68,9.82 0,4.36 -1.27,7.8 -3.82,10.34 -2.55,2.54 -6.02,3.81 -10.43,3.81zm0.27 -5.9c2.05,0 3.59,-0.68 4.62,-2.05 1.03,-1.35 1.54,-3.37 1.54,-6.05 0,-2.54 -0.52,-4.47 -1.56,-5.77 -1.04,-1.3 -2.58,-1.95 -4.65,-1.95 -2.03,0 -3.6,0.7 -4.72,2.09 -1.12,1.39 -1.69,3.33 -1.69,5.83 0,2.62 0.55,4.58 1.64,5.91 1.09,1.33 2.69,1.99 4.82,1.99z"/>
   <path id="2" class="fil5" d="M1098.52 579.72l-7.67 0 0 -14.7c0,-2.11 -0.38,-3.7 -1.14,-4.77 -0.77,-1.06 -1.91,-1.6 -3.43,-1.62 -1.5,0.02 -2.72,0.59 -3.69,1.73 -0.96,1.13 -1.45,2.56 -1.45,4.3l-0.02 15.06 -7.66 0 -0.03 -26.36 7.71 0 -0.02 4.19 0.13 0c0.97,-1.62 2.16,-2.84 3.58,-3.63 1.42,-0.8 3.05,-1.19 4.91,-1.19 2.92,-0.02 5.11,0.88 6.58,2.71 1.46,1.83 2.2,4.54 2.2,8.14l0 16.14z"/>
   <path id="3" class="fil5" d="M1121.55 579.29c-0.81,0.36 -1.71,0.62 -2.69,0.79 -0.99,0.18 -1.99,0.27 -2.99,0.27 -2.82,0 -4.94,-0.69 -6.37,-2.06 -1.44,-1.37 -2.16,-3.42 -2.16,-6.16l0 -13.07 -4.3 -0.02 -0.02 -5.68 4.32 0 0 -5.97 7.67 -2.18 -0.02 8.15 6.03 0 0 5.7 -6.01 -0.02 -0.02 12.62c0,1.07 0.2,1.84 0.62,2.33 0.42,0.49 1.08,0.72 1.97,0.7 0.45,0.02 0.88,-0.03 1.29,-0.16 0.42,-0.13 0.79,-0.27 1.14,-0.44l1.54 5.2z"/>
   <path id="4" class="fil5" d="M1142.33 559.77c-0.33,-0.09 -0.67,-0.15 -1.01,-0.19 -0.34,-0.05 -0.74,-0.06 -1.17,-0.06 -2.1,0 -3.68,0.66 -4.74,1.99 -1.07,1.34 -1.6,3.18 -1.6,5.54l0 12.67 -7.69 0 0 -26.36 7.69 0 0 4.92 0.11 0c0.63,-1.79 1.53,-3.14 2.7,-4.05 1.17,-0.9 2.58,-1.36 4.26,-1.36 0.4,0 0.78,0.04 1.15,0.09 0.37,0.06 0.77,0.13 1.19,0.22l-0.89 6.59z"/>
   <path id="5" class="fil5" d="M1159.5 580.35c-4.34,0 -7.75,-1.23 -10.25,-3.69 -2.5,-2.47 -3.75,-5.8 -3.75,-10.01 0.02,-4.37 1.31,-7.79 3.89,-10.26 2.59,-2.46 6.08,-3.69 10.49,-3.69 4.34,0 7.74,1.23 10.19,3.68 2.46,2.46 3.69,5.73 3.69,9.82 0,4.36 -1.27,7.8 -3.82,10.34 -2.55,2.54 -6.03,3.81 -10.44,3.81zm0.28 -5.9c2.05,0 3.58,-0.68 4.61,-2.05 1.03,-1.35 1.55,-3.37 1.55,-6.05 0,-2.54 -0.52,-4.47 -1.56,-5.77 -1.04,-1.3 -2.59,-1.95 -4.65,-1.95 -2.03,0 -3.61,0.7 -4.72,2.09 -1.13,1.39 -1.69,3.33 -1.69,5.83 0,2.62 0.55,4.58 1.63,5.91 1.1,1.33 2.7,1.99 4.83,1.99z"/>
   <polygon id="6" class="fil5" points="1179.51,579.72 1179.51,541.62 1187.2,541.62 1187.2,579.72 "/>
   <path id="7" class="fil5" d="M1216.14 579.72l-7.29 0 0 -3.81 -0.1 0c-0.89,1.47 -1.99,2.58 -3.32,3.32 -1.32,0.75 -2.83,1.12 -4.5,1.12 -2.35,0 -4.32,-0.7 -5.94,-2.09 -1.6,-1.4 -2.41,-3.36 -2.41,-5.86 0,-2.44 0.8,-4.42 2.4,-5.95 1.6,-1.53 4.08,-2.52 7.44,-2.97l6.48 -0.88 0 -0.5c0,-1.36 -0.42,-2.38 -1.26,-3.06 -0.84,-0.69 -1.99,-1.03 -3.47,-1.03 -1.12,0 -2.33,0.18 -3.63,0.56 -1.3,0.38 -2.6,0.97 -3.91,1.8l-2.74 -4.55c1.73,-1.07 3.47,-1.86 5.24,-2.37 1.77,-0.5 3.69,-0.75 5.75,-0.75 3.83,0 6.67,0.92 8.5,2.77 1.84,1.84 2.76,4.62 2.76,8.35l0 15.9zm-7.24 -10.71l0 -1.88 -5 0.62c-1.42,0.21 -2.46,0.62 -3.15,1.25 -0.69,0.63 -1.03,1.47 -1.03,2.53 0,0.97 0.33,1.77 1,2.38 0.67,0.63 1.58,0.94 2.72,0.94 1.61,0 2.92,-0.56 3.93,-1.66 1.02,-1.11 1.53,-2.5 1.53,-4.18z"/>
   <path id="8" class="fil5" d="M1240.72 576c-0.94,1.44 -2.09,2.53 -3.47,3.26 -1.37,0.73 -2.97,1.09 -4.8,1.09 -3.28,0 -5.93,-1.17 -7.96,-3.49 -2.01,-2.33 -3.03,-5.57 -3.03,-9.73 0,-4.36 1.12,-7.85 3.35,-10.48 2.23,-2.63 5.13,-3.95 8.72,-3.95 1.71,0 3.16,0.31 4.37,0.93 1.19,0.62 2.13,1.55 2.82,2.79l0.1 0 0 -14.8 7.7 0 0 38.1 -7.7 0 0 -3.72 -0.1 0zm-11.44 -9.1c0,2.4 0.52,4.25 1.55,5.57 1.03,1.32 2.45,1.98 4.26,1.98 1.74,0 3.16,-0.69 4.25,-2.05 1.09,-1.37 1.64,-3.17 1.64,-5.39l0 -2.22c0,-1.76 -0.53,-3.22 -1.58,-4.4 -1.05,-1.17 -2.4,-1.76 -4.06,-1.76 -1.89,0 -3.37,0.73 -4.45,2.2 -1.07,1.47 -1.61,3.49 -1.61,6.07z"/>
   <path id="9" class="fil5" d="M1268.25 580.35c-4.35,0 -7.76,-1.23 -10.26,-3.69 -2.5,-2.47 -3.75,-5.8 -3.75,-10.01 0.02,-4.37 1.32,-7.79 3.9,-10.26 2.58,-2.46 6.07,-3.69 10.48,-3.69 4.34,0 7.74,1.23 10.2,3.68 2.45,2.46 3.68,5.73 3.68,9.82 0,4.36 -1.27,7.8 -3.82,10.34 -2.55,2.54 -6.02,3.81 -10.43,3.81zm0.27 -5.9c2.05,0 3.59,-0.68 4.62,-2.05 1.03,-1.35 1.54,-3.37 1.54,-6.05 0,-2.54 -0.52,-4.47 -1.56,-5.77 -1.04,-1.3 -2.58,-1.95 -4.65,-1.95 -2.03,0 -3.61,0.7 -4.72,2.09 -1.13,1.39 -1.69,3.33 -1.69,5.83 0,2.62 0.55,4.58 1.64,5.91 1.09,1.33 2.69,1.99 4.82,1.99z"/>
   <path id="10" class="fil5" d="M1304.47 559.77c-0.34,-0.09 -0.67,-0.15 -1.02,-0.19 -0.34,-0.05 -0.74,-0.06 -1.16,-0.06 -2.11,0 -3.69,0.66 -4.75,1.99 -1.06,1.34 -1.6,3.18 -1.6,5.54l0 12.67 -7.68 0 0 -26.36 7.68 0 0 4.92 0.11 0c0.63,-1.79 1.53,-3.14 2.7,-4.05 1.17,-0.9 2.58,-1.36 4.27,-1.36 0.39,0 0.78,0.04 1.14,0.09 0.37,0.06 0.77,0.13 1.19,0.22l-0.88 6.59z"/>
   <path id="11" class="fil5" d="M1320.48 579.72l13.18 -36.04 9.27 0 12.87 36.04 -8.54 0 -2.54 -7.67 -13.25 0 -2.47 7.67 -8.52 0zm12.72 -13.82l9.65 0 -4.1 -12.75c-0.13,-0.48 -0.24,-0.9 -0.33,-1.25 -0.1,-0.36 -0.17,-0.81 -0.24,-1.36l-0.2 0c-0.09,0.5 -0.17,0.94 -0.27,1.31 -0.09,0.36 -0.21,0.78 -0.37,1.23l-4.14 12.82z"/>
   <path class="fil5" d="M1526.14 577.84c-1.89,0.87 -3.73,1.51 -5.52,1.91 -1.78,0.4 -3.71,0.6 -5.79,0.6 -5.6,0 -10,-1.57 -13.22,-4.73 -3.22,-3.15 -4.83,-7.64 -4.83,-13.47 0,-5.49 1.76,-10.05 5.27,-13.66 3.51,-3.61 8.14,-5.41 13.88,-5.41 1.95,0 3.69,0.14 5.24,0.43 1.54,0.29 3.11,0.76 4.72,1.39l-2.42 6.34c-1.22,-0.49 -2.41,-0.84 -3.57,-1.07 -1.15,-0.22 -2.4,-0.33 -3.74,-0.33 -3.04,0 -5.64,1.05 -7.83,3.17 -2.19,2.12 -3.28,4.99 -3.28,8.59 0,3.72 0.96,6.63 2.87,8.72 1.93,2.09 4.55,3.15 7.89,3.15 0.95,0 2.09,-0.16 3.41,-0.46 1.31,-0.3 2.66,-0.79 4.03,-1.45l2.89 6.28z"/>
   <path id="1" class="fil5" d="M1543.61 580.35c-4.34,0 -7.76,-1.23 -10.25,-3.69 -2.5,-2.47 -3.75,-5.8 -3.75,-10.01 0.02,-4.37 1.31,-7.79 3.89,-10.26 2.59,-2.46 6.08,-3.69 10.49,-3.69 4.34,0 7.74,1.23 10.19,3.68 2.46,2.46 3.68,5.73 3.68,9.82 0,4.36 -1.27,7.8 -3.81,10.34 -2.55,2.54 -6.03,3.81 -10.44,3.81zm0.28 -5.9c2.05,0 3.58,-0.68 4.61,-2.05 1.03,-1.35 1.55,-3.37 1.55,-6.05 0,-2.54 -0.53,-4.47 -1.56,-5.77 -1.04,-1.3 -2.59,-1.95 -4.66,-1.95 -2.02,0 -3.6,0.7 -4.71,2.09 -1.13,1.39 -1.7,3.33 -1.7,5.83 0,2.62 0.55,4.58 1.64,5.91 1.09,1.33 2.7,1.99 4.83,1.99z"/>
   <path id="2" class="fil5" d="M1588.69 579.72l-7.67 0 0 -14.7c0,-2.11 -0.38,-3.7 -1.15,-4.77 -0.76,-1.06 -1.9,-1.6 -3.43,-1.62 -1.49,0.02 -2.72,0.59 -3.68,1.73 -0.97,1.13 -1.45,2.56 -1.45,4.3l-0.03 15.06 -7.66 0 -0.02 -26.36 7.71 0 -0.03 4.19 0.13 0c0.97,-1.62 2.17,-2.84 3.58,-3.63 1.43,-0.8 3.06,-1.19 4.92,-1.19 2.91,-0.02 5.1,0.88 6.57,2.71 1.47,1.83 2.21,4.54 2.21,8.14l0 16.14z"/>
   <path id="3" class="fil5" d="M1611.72 579.29c-0.81,0.36 -1.71,0.62 -2.7,0.79 -0.98,0.18 -1.98,0.27 -2.98,0.27 -2.83,0 -4.95,-0.69 -6.38,-2.06 -1.43,-1.37 -2.15,-3.42 -2.15,-6.16l0 -13.07 -4.3 -0.02 -0.03 -5.68 4.33 0 0 -5.97 7.67 -2.18 -0.03 8.15 6.03 0 0 5.7 -6 -0.02 -0.03 12.62c0,1.07 0.21,1.84 0.63,2.33 0.42,0.49 1.07,0.72 1.96,0.7 0.46,0.02 0.89,-0.03 1.3,-0.16 0.41,-0.13 0.79,-0.27 1.14,-0.44l1.54 5.2z"/>
   <path id="4" class="fil5" d="M1632.5 559.77c-0.34,-0.09 -0.67,-0.15 -1.01,-0.19 -0.35,-0.05 -0.74,-0.06 -1.17,-0.06 -2.1,0 -3.68,0.66 -4.75,1.99 -1.06,1.34 -1.59,3.18 -1.59,5.54l0 12.67 -7.69 0 0 -26.36 7.69 0 0 4.92 0.1 0c0.64,-1.79 1.54,-3.14 2.7,-4.05 1.17,-0.9 2.59,-1.36 4.27,-1.36 0.39,0 0.78,0.04 1.15,0.09 0.37,0.06 0.76,0.13 1.18,0.22l-0.88 6.59z"/>
   <path id="5" class="fil5" d="M1649.67 580.35c-4.34,0 -7.76,-1.23 -10.26,-3.69 -2.49,-2.47 -3.75,-5.8 -3.75,-10.01 0.02,-4.37 1.32,-7.79 3.9,-10.26 2.58,-2.46 6.08,-3.69 10.49,-3.69 4.34,0 7.74,1.23 10.19,3.68 2.45,2.46 3.68,5.73 3.68,9.82 0,4.36 -1.27,7.8 -3.82,10.34 -2.55,2.54 -6.02,3.81 -10.43,3.81zm0.27 -5.9c2.05,0 3.59,-0.68 4.62,-2.05 1.03,-1.35 1.54,-3.37 1.54,-6.05 0,-2.54 -0.52,-4.47 -1.56,-5.77 -1.04,-1.3 -2.58,-1.95 -4.65,-1.95 -2.02,0 -3.6,0.7 -4.72,2.09 -1.12,1.39 -1.69,3.33 -1.69,5.83 0,2.62 0.55,4.58 1.64,5.91 1.09,1.33 2.7,1.99 4.82,1.99z"/>
   <polygon id="6" class="fil5" points="1669.68,579.72 1669.68,541.62 1677.37,541.62 1677.37,579.72 "/>
   <path id="7" class="fil5" d="M1706.3 579.72l-7.28 0 0 -3.81 -0.11 0c-0.89,1.47 -1.99,2.58 -3.32,3.32 -1.32,0.75 -2.82,1.12 -4.49,1.12 -2.35,0 -4.33,-0.7 -5.94,-2.09 -1.61,-1.4 -2.41,-3.36 -2.41,-5.86 0,-2.44 0.79,-4.42 2.4,-5.95 1.6,-1.53 4.08,-2.52 7.43,-2.97l6.49 -0.88 0 -0.5c0,-1.36 -0.42,-2.38 -1.26,-3.06 -0.85,-0.69 -1.99,-1.03 -3.47,-1.03 -1.12,0 -2.33,0.18 -3.64,0.56 -1.29,0.38 -2.6,0.97 -3.9,1.8l-2.75 -4.55c1.74,-1.07 3.48,-1.86 5.24,-2.37 1.77,-0.5 3.69,-0.75 5.75,-0.75 3.84,0 6.68,0.92 8.51,2.77 1.83,1.84 2.75,4.62 2.75,8.35l0 15.9zm-7.23 -10.71l0 -1.88 -5.01 0.62c-1.41,0.21 -2.46,0.62 -3.14,1.25 -0.69,0.63 -1.03,1.47 -1.03,2.53 0,0.97 0.33,1.77 1,2.38 0.67,0.63 1.58,0.94 2.72,0.94 1.6,0 2.92,-0.56 3.93,-1.66 1.01,-1.11 1.53,-2.5 1.53,-4.18z"/>
   <path id="8" class="fil5" d="M1730.89 576c-0.94,1.44 -2.1,2.53 -3.47,3.26 -1.37,0.73 -2.98,1.09 -4.81,1.09 -3.27,0 -5.93,-1.17 -7.95,-3.49 -2.02,-2.33 -3.03,-5.57 -3.03,-9.73 0,-4.36 1.11,-7.85 3.35,-10.48 2.23,-2.63 5.13,-3.95 8.71,-3.95 1.72,0 3.17,0.31 4.37,0.93 1.19,0.62 2.14,1.55 2.83,2.79l0.1 0 0 -14.8 7.69 0 0 38.1 -7.69 0 0 -3.72 -0.1 0zm-11.44 -9.1c0,2.4 0.51,4.25 1.54,5.57 1.04,1.32 2.46,1.98 4.27,1.98 1.74,0 3.15,-0.69 4.24,-2.05 1.09,-1.37 1.64,-3.17 1.64,-5.39l0 -2.22c0,-1.76 -0.52,-3.22 -1.58,-4.4 -1.04,-1.17 -2.39,-1.76 -4.05,-1.76 -1.89,0 -3.38,0.73 -4.45,2.2 -1.07,1.47 -1.61,3.49 -1.61,6.07z"/>
   <path id="9" class="fil5" d="M1758.41 580.35c-4.34,0 -7.76,-1.23 -10.25,-3.69 -2.5,-2.47 -3.75,-5.8 -3.75,-10.01 0.01,-4.37 1.31,-7.79 3.89,-10.26 2.59,-2.46 6.08,-3.69 10.49,-3.69 4.34,0 7.74,1.23 10.19,3.68 2.46,2.46 3.68,5.73 3.68,9.82 0,4.36 -1.27,7.8 -3.81,10.34 -2.55,2.54 -6.03,3.81 -10.44,3.81zm0.28 -5.9c2.05,0 3.58,-0.68 4.61,-2.05 1.03,-1.35 1.55,-3.37 1.55,-6.05 0,-2.54 -0.53,-4.47 -1.56,-5.77 -1.04,-1.3 -2.59,-1.95 -4.66,-1.95 -2.02,0 -3.6,0.7 -4.71,2.09 -1.13,1.39 -1.7,3.33 -1.7,5.83 0,2.62 0.55,4.58 1.64,5.91 1.09,1.33 2.7,1.99 4.83,1.99z"/>
   <path id="10" class="fil5" d="M1794.63 559.77c-0.33,-0.09 -0.67,-0.15 -1.01,-0.19 -0.35,-0.05 -0.74,-0.06 -1.17,-0.06 -2.1,0 -3.68,0.66 -4.74,1.99 -1.07,1.34 -1.6,3.18 -1.6,5.54l0 12.67 -7.69 0 0 -26.36 7.69 0 0 4.92 0.1 0c0.64,-1.79 1.54,-3.14 2.71,-4.05 1.16,-0.9 2.58,-1.36 4.26,-1.36 0.39,0 0.78,0.04 1.15,0.09 0.37,0.06 0.76,0.13 1.18,0.22l-0.88 6.59z"/>
   <path id="11" class="fil5" d="M1814.52 579.72l0 -36.04 12.94 0c3.96,0 7.01,0.76 9.15,2.28 2.15,1.53 3.22,3.67 3.22,6.43 0,1.93 -0.57,3.62 -1.73,5.08 -1.16,1.46 -2.64,2.47 -4.45,3.05l0 0.09c2.33,0.31 4.18,1.23 5.56,2.76 1.39,1.53 2.08,3.41 2.08,5.62 0,3.29 -1.17,5.89 -3.53,7.83 -2.36,1.93 -5.56,2.9 -9.59,2.9l-13.65 0zm7.87 -30.21l0 8.99 3.62 0c1.71,0 3.05,-0.41 4.06,-1.22 0.99,-0.83 1.49,-1.97 1.49,-3.43 0,-1.46 -0.51,-2.55 -1.51,-3.27 -1,-0.71 -2.51,-1.07 -4.5,-1.07l-3.16 0zm0 14.88l0 9.5 4.49 0c1.92,0 3.42,-0.45 4.51,-1.34 1.08,-0.9 1.63,-2.12 1.63,-3.66 0,-1.41 -0.54,-2.51 -1.62,-3.31 -1.08,-0.8 -2.59,-1.19 -4.54,-1.19l-4.47 0z"/>
   <path class="fil5" d="M2013.58 577.84c-1.89,0.87 -3.73,1.51 -5.51,1.91 -1.79,0.4 -3.72,0.6 -5.8,0.6 -5.6,0 -10,-1.57 -13.22,-4.73 -3.22,-3.15 -4.83,-7.64 -4.83,-13.47 0,-5.49 1.76,-10.05 5.27,-13.66 3.51,-3.61 8.14,-5.41 13.88,-5.41 1.95,0 3.69,0.14 5.24,0.43 1.54,0.29 3.11,0.76 4.72,1.39l-2.42 6.34c-1.21,-0.49 -2.41,-0.84 -3.56,-1.07 -1.15,-0.22 -2.41,-0.33 -3.75,-0.33 -3.03,0 -5.64,1.05 -7.83,3.17 -2.19,2.12 -3.28,4.99 -3.28,8.59 0,3.72 0.96,6.63 2.88,8.72 1.92,2.09 4.54,3.15 7.88,3.15 0.95,0 2.09,-0.16 3.41,-0.46 1.31,-0.3 2.66,-0.79 4.03,-1.45l2.89 6.28z"/>
   <path id="1" class="fil5" d="M2031.05 580.35c-4.34,0 -7.75,-1.23 -10.25,-3.69 -2.5,-2.47 -3.75,-5.8 -3.75,-10.01 0.02,-4.37 1.31,-7.79 3.89,-10.26 2.59,-2.46 6.08,-3.69 10.49,-3.69 4.34,0 7.74,1.23 10.19,3.68 2.46,2.46 3.69,5.73 3.69,9.82 0,4.36 -1.27,7.8 -3.82,10.34 -2.55,2.54 -6.03,3.81 -10.44,3.81zm0.28 -5.9c2.05,0 3.58,-0.68 4.61,-2.05 1.03,-1.35 1.55,-3.37 1.55,-6.05 0,-2.54 -0.52,-4.47 -1.56,-5.77 -1.04,-1.3 -2.59,-1.95 -4.65,-1.95 -2.03,0 -3.61,0.7 -4.72,2.09 -1.13,1.39 -1.69,3.33 -1.69,5.83 0,2.62 0.55,4.58 1.63,5.91 1.1,1.33 2.7,1.99 4.83,1.99z"/>
   <path id="2" class="fil5" d="M2076.13 579.72l-7.67 0 0 -14.7c0,-2.11 -0.38,-3.7 -1.14,-4.77 -0.77,-1.06 -1.91,-1.6 -3.44,-1.62 -1.49,0.02 -2.72,0.59 -3.68,1.73 -0.97,1.13 -1.45,2.56 -1.45,4.3l-0.02 15.06 -7.67 0 -0.02 -26.36 7.71 0 -0.02 4.19 0.13 0c0.96,-1.62 2.16,-2.84 3.57,-3.63 1.43,-0.8 3.06,-1.19 4.92,-1.19 2.92,-0.02 5.11,0.88 6.57,2.71 1.47,1.83 2.21,4.54 2.21,8.14l0 16.14z"/>
   <path id="3" class="fil5" d="M2099.16 579.29c-0.81,0.36 -1.71,0.62 -2.7,0.79 -0.98,0.18 -1.98,0.27 -2.98,0.27 -2.83,0 -4.95,-0.69 -6.38,-2.06 -1.43,-1.37 -2.15,-3.42 -2.15,-6.16l0 -13.07 -4.3 -0.02 -0.03 -5.68 4.33 0 0 -5.97 7.67 -2.18 -0.03 8.15 6.04 0 0 5.7 -6.01 -0.02 -0.03 12.62c0,1.07 0.21,1.84 0.63,2.33 0.42,0.49 1.07,0.72 1.97,0.7 0.45,0.02 0.88,-0.03 1.29,-0.16 0.41,-0.13 0.79,-0.27 1.14,-0.44l1.54 5.2z"/>
   <path id="4" class="fil5" d="M2119.94 559.77c-0.33,-0.09 -0.67,-0.15 -1.01,-0.19 -0.35,-0.05 -0.74,-0.06 -1.17,-0.06 -2.1,0 -3.68,0.66 -4.74,1.99 -1.07,1.34 -1.6,3.18 -1.6,5.54l0 12.67 -7.69 0 0 -26.36 7.69 0 0 4.92 0.1 0c0.64,-1.79 1.54,-3.14 2.71,-4.05 1.16,-0.9 2.58,-1.36 4.26,-1.36 0.39,0 0.78,0.04 1.15,0.09 0.37,0.06 0.76,0.13 1.18,0.22l-0.88 6.59z"/>
   <path id="5" class="fil5" d="M2137.11 580.35c-4.34,0 -7.76,-1.23 -10.25,-3.69 -2.5,-2.47 -3.75,-5.8 -3.75,-10.01 0.01,-4.37 1.31,-7.79 3.89,-10.26 2.59,-2.46 6.08,-3.69 10.49,-3.69 4.34,0 7.74,1.23 10.19,3.68 2.46,2.46 3.68,5.73 3.68,9.82 0,4.36 -1.27,7.8 -3.82,10.34 -2.54,2.54 -6.02,3.81 -10.43,3.81zm0.27 -5.9c2.06,0 3.59,-0.68 4.62,-2.05 1.03,-1.35 1.55,-3.37 1.55,-6.05 0,-2.54 -0.53,-4.47 -1.57,-5.77 -1.03,-1.3 -2.58,-1.95 -4.65,-1.95 -2.02,0 -3.6,0.7 -4.72,2.09 -1.12,1.39 -1.69,3.33 -1.69,5.83 0,2.62 0.55,4.58 1.64,5.91 1.09,1.33 2.7,1.99 4.82,1.99z"/>
   <polygon id="6" class="fil5" points="2157.12,579.72 2157.12,541.62 2164.81,541.62 2164.81,579.72 "/>
   <path id="7" class="fil5" d="M2193.74 579.72l-7.28 0 0 -3.81 -0.11 0c-0.89,1.47 -1.99,2.58 -3.32,3.32 -1.32,0.75 -2.82,1.12 -4.49,1.12 -2.35,0 -4.33,-0.7 -5.94,-2.09 -1.6,-1.4 -2.41,-3.36 -2.41,-5.86 0,-2.44 0.8,-4.42 2.4,-5.95 1.6,-1.53 4.08,-2.52 7.43,-2.97l6.49 -0.88 0 -0.5c0,-1.36 -0.42,-2.38 -1.26,-3.06 -0.84,-0.69 -1.99,-1.03 -3.47,-1.03 -1.12,0 -2.33,0.18 -3.64,0.56 -1.29,0.38 -2.6,0.97 -3.9,1.8l-2.75 -4.55c1.74,-1.07 3.48,-1.86 5.25,-2.37 1.76,-0.5 3.69,-0.75 5.75,-0.75 3.83,0 6.67,0.92 8.5,2.77 1.83,1.84 2.75,4.62 2.75,8.35l0 15.9zm-7.23 -10.71l0 -1.88 -5 0.62c-1.42,0.21 -2.47,0.62 -3.15,1.25 -0.69,0.63 -1.03,1.47 -1.03,2.53 0,0.97 0.33,1.77 1,2.38 0.67,0.63 1.58,0.94 2.72,0.94 1.61,0 2.92,-0.56 3.93,-1.66 1.01,-1.11 1.53,-2.5 1.53,-4.18z"/>
   <path id="8" class="fil5" d="M2218.33 576c-0.94,1.44 -2.1,2.53 -3.47,3.26 -1.37,0.73 -2.98,1.09 -4.8,1.09 -3.28,0 -5.93,-1.17 -7.96,-3.49 -2.02,-2.33 -3.03,-5.57 -3.03,-9.73 0,-4.36 1.12,-7.85 3.35,-10.48 2.23,-2.63 5.13,-3.95 8.72,-3.95 1.71,0 3.16,0.31 4.36,0.93 1.2,0.62 2.14,1.55 2.83,2.79l0.1 0 0 -14.8 7.7 0 0 38.1 -7.7 0 0 -3.72 -0.1 0zm-11.44 -9.1c0,2.4 0.51,4.25 1.54,5.57 1.04,1.32 2.46,1.98 4.27,1.98 1.74,0 3.16,-0.69 4.24,-2.05 1.09,-1.37 1.64,-3.17 1.64,-5.39l0 -2.22c0,-1.76 -0.52,-3.22 -1.58,-4.4 -1.04,-1.17 -2.39,-1.76 -4.05,-1.76 -1.89,0 -3.38,0.73 -4.45,2.2 -1.07,1.47 -1.61,3.49 -1.61,6.07z"/>
   <path id="9" class="fil5" d="M2245.85 580.35c-4.34,0 -7.75,-1.23 -10.25,-3.69 -2.5,-2.47 -3.75,-5.8 -3.75,-10.01 0.02,-4.37 1.31,-7.79 3.89,-10.26 2.59,-2.46 6.08,-3.69 10.49,-3.69 4.34,0 7.74,1.23 10.19,3.68 2.46,2.46 3.69,5.73 3.69,9.82 0,4.36 -1.28,7.8 -3.82,10.34 -2.55,2.54 -6.03,3.81 -10.44,3.81zm0.28 -5.9c2.05,0 3.58,-0.68 4.61,-2.05 1.03,-1.35 1.55,-3.37 1.55,-6.05 0,-2.54 -0.52,-4.47 -1.56,-5.77 -1.04,-1.3 -2.59,-1.95 -4.65,-1.95 -2.03,0 -3.61,0.7 -4.72,2.09 -1.13,1.39 -1.69,3.33 -1.69,5.83 0,2.62 0.55,4.58 1.63,5.91 1.09,1.33 2.7,1.99 4.83,1.99z"/>
   <path id="10" class="fil5" d="M2282.07 559.77c-0.33,-0.09 -0.67,-0.15 -1.01,-0.19 -0.34,-0.05 -0.74,-0.06 -1.17,-0.06 -2.1,0 -3.68,0.66 -4.74,1.99 -1.07,1.34 -1.6,3.18 -1.6,5.54l0 12.67 -7.69 0 0 -26.36 7.69 0 0 4.92 0.1 0c0.64,-1.79 1.54,-3.14 2.71,-4.05 1.16,-0.9 2.58,-1.36 4.26,-1.36 0.4,0 0.78,0.04 1.15,0.09 0.37,0.06 0.77,0.13 1.19,0.22l-0.89 6.59z"/>
   <path id="11" class="fil5" d="M2329.06 577.84c-1.9,0.87 -3.73,1.51 -5.52,1.91 -1.78,0.4 -3.71,0.6 -5.79,0.6 -5.6,0 -10.01,-1.57 -13.22,-4.73 -3.22,-3.15 -4.83,-7.64 -4.83,-13.47 0,-5.49 1.75,-10.05 5.26,-13.66 3.51,-3.61 8.15,-5.41 13.89,-5.41 1.95,0 3.69,0.14 5.23,0.43 1.55,0.29 3.12,0.76 4.73,1.39l-2.42 6.34c-1.22,-0.49 -2.41,-0.84 -3.57,-1.07 -1.15,-0.22 -2.4,-0.33 -3.74,-0.33 -3.04,0 -5.65,1.05 -7.83,3.17 -2.19,2.12 -3.28,4.99 -3.28,8.59 0,3.72 0.96,6.63 2.87,8.72 1.92,2.09 4.55,3.15 7.89,3.15 0.95,0 2.08,-0.16 3.4,-0.46 1.32,-0.3 2.66,-0.79 4.04,-1.45l2.89 6.28z"/>
   <path class="fil5" d="M459.13 347.69l0 13.62 -9.02 0 0.03 -41.2 14.34 0c5.13,0 8.99,1.12 11.57,3.37 2.59,2.23 3.88,5.59 3.88,10.05 0,4.23 -1.48,7.65 -4.44,10.25 -2.96,2.61 -6.9,3.91 -11.84,3.91l-4.52 0zm0 -20.62l0 13.75 3.74 0.03c2.52,0 4.42,-0.59 5.7,-1.75 1.27,-1.17 1.9,-2.92 1.88,-5.26 0,-2.25 -0.63,-3.95 -1.88,-5.08 -1.26,-1.14 -3.14,-1.69 -5.65,-1.69l-3.79 0z"/>
   <path id="1" class="fil5" d="M504.29 338.5c-0.38,-0.1 -0.76,-0.17 -1.15,-0.22 -0.4,-0.05 -0.85,-0.06 -1.34,-0.06 -2.4,0 -4.2,0.75 -5.42,2.27 -1.22,1.53 -1.82,3.64 -1.82,6.33l0 14.49 -8.79 0 0 -30.14 8.79 0 0 5.63 0.11 0c0.73,-2.05 1.76,-3.59 3.09,-4.63 1.34,-1.03 2.95,-1.55 4.88,-1.55 0.45,0 0.89,0.04 1.31,0.1 0.42,0.07 0.87,0.15 1.35,0.25l-1.01 7.53z"/>
   <path id="2" class="fil5" d="M523.92 362.02c-4.97,0 -8.87,-1.4 -11.72,-4.21 -2.86,-2.83 -4.29,-6.63 -4.29,-11.44 0.02,-5 1.5,-8.91 4.45,-11.73 2.96,-2.81 6.95,-4.21 11.99,-4.21 4.96,0 8.84,1.4 11.65,4.21 2.8,2.8 4.2,6.54 4.2,11.21 0,4.99 -1.45,8.92 -4.36,11.82 -2.91,2.9 -6.88,4.35 -11.92,4.35zm0.31 -6.74c2.34,0 4.1,-0.78 5.28,-2.34 1.17,-1.55 1.76,-3.85 1.76,-6.92 0,-2.9 -0.6,-5.11 -1.78,-6.59 -1.19,-1.48 -2.95,-2.23 -5.32,-2.23 -2.31,0 -4.12,0.8 -5.39,2.39 -1.29,1.59 -1.93,3.81 -1.93,6.67 0,2.99 0.62,5.23 1.87,6.74 1.24,1.52 3.08,2.28 5.51,2.28z"/>
   <path id="3" class="fil5" d="M570.8 359.33c-1.53,0.94 -3.09,1.62 -4.67,2.05 -1.58,0.43 -3.29,0.64 -5.15,0.64 -5.03,0 -8.94,-1.39 -11.75,-4.17 -2.82,-2.79 -4.23,-6.42 -4.23,-10.88 0,-5.11 1.51,-9.15 4.53,-12.11 3.01,-2.96 7.01,-4.43 11.99,-4.43 1.84,0 3.47,0.18 4.87,0.54 1.41,0.36 2.81,0.94 4.22,1.72l-3.28 5.95c-0.9,-0.51 -1.79,-0.89 -2.65,-1.12 -0.86,-0.23 -1.8,-0.34 -2.81,-0.34 -2.49,0 -4.44,0.8 -5.84,2.41 -1.39,1.61 -2.1,3.87 -2.1,6.78 0,2.8 0.76,4.98 2.26,6.55 1.51,1.57 3.38,2.36 5.65,2.36 0.66,0 1.5,-0.14 2.5,-0.42 0.99,-0.28 2,-0.73 3.01,-1.37l3.45 5.84z"/>
   <path id="4" class="fil5" d="M603.06 348.7l-19.84 0c0.14,2.33 0.91,4.08 2.26,5.22 1.36,1.15 3.25,1.73 5.66,1.73 0.86,0 2.05,-0.25 3.57,-0.76 1.51,-0.51 2.99,-1.3 4.45,-2.37l3.84 5.08c-2.02,1.53 -4.1,2.66 -6.24,3.37 -2.14,0.7 -4.47,1.05 -7.02,1.05 -4.83,0 -8.57,-1.34 -11.24,-4.04 -2.66,-2.7 -4,-6.47 -4.02,-11.29 0,-4.83 1.41,-8.75 4.23,-11.75 2.83,-3.01 6.41,-4.51 10.74,-4.51 4.15,0 7.46,1.26 9.93,3.8 2.46,2.54 3.68,6.18 3.68,10.94l0 3.53zm-8.19 -5.49c0,-2.4 -0.46,-4.12 -1.39,-5.19 -0.93,-1.06 -2.29,-1.59 -4.09,-1.59 -1.58,0 -2.96,0.61 -4.11,1.82 -1.14,1.22 -1.85,2.87 -2.09,4.96l11.68 0z"/>
   <path id="5" class="fil5" d="M606.34 358.78l3.62 -5.88c1.01,0.78 2.21,1.45 3.61,1.99 1.38,0.54 2.92,0.82 4.6,0.82 1.29,0 2.34,-0.24 3.15,-0.71 0.82,-0.47 1.22,-1.18 1.22,-2.13 0,-0.79 -0.32,-1.41 -0.95,-1.86 -0.63,-0.45 -1.8,-0.86 -3.5,-1.22 -3.74,-0.81 -6.42,-1.93 -8.04,-3.37 -1.63,-1.43 -2.45,-3.45 -2.45,-6.06 0,-3.02 1.2,-5.43 3.6,-7.24 2.4,-1.8 5.37,-2.69 8.87,-2.69 1.82,0 3.53,0.22 5.13,0.69 1.59,0.46 3.11,1.15 4.55,2.09l-3.31 5.69c-1.2,-0.76 -2.33,-1.32 -3.4,-1.69 -1.06,-0.35 -2.16,-0.53 -3.29,-0.53 -1.32,0 -2.37,0.26 -3.15,0.75 -0.79,0.5 -1.19,1.15 -1.19,1.93 0,0.86 0.36,1.5 1.08,1.91 0.72,0.42 2.1,0.83 4.13,1.25 3.46,0.71 5.96,1.81 7.48,3.3 1.52,1.5 2.28,3.52 2.28,6.09 0,3.05 -1.14,5.5 -3.45,7.35 -2.29,1.84 -5.34,2.76 -9.13,2.76 -2.07,0 -4.04,-0.26 -5.92,-0.78 -1.87,-0.53 -3.73,-1.35 -5.54,-2.46z"/>
   <path id="6" class="fil5" d="M660.83 361.31l-8.32 0 0 -4.36 -0.12 0c-1.02,1.68 -2.28,2.95 -3.8,3.8 -1.51,0.85 -3.22,1.27 -5.13,1.27 -2.69,0 -4.95,-0.79 -6.79,-2.39 -1.83,-1.6 -2.76,-3.83 -2.76,-6.69 0,-2.79 0.92,-5.06 2.75,-6.8 1.82,-1.75 4.66,-2.87 8.49,-3.39l7.42 -1.01 0 -0.57c0,-1.55 -0.49,-2.72 -1.45,-3.5 -0.96,-0.79 -2.27,-1.18 -3.96,-1.18 -1.28,0 -2.67,0.21 -4.16,0.65 -1.48,0.43 -2.97,1.1 -4.46,2.05l-3.14 -5.2c1.98,-1.23 3.98,-2.13 6,-2.71 2.02,-0.57 4.21,-0.85 6.57,-0.85 4.38,0 7.63,1.05 9.71,3.16 2.1,2.1 3.15,5.28 3.15,9.54l0 18.18zm-8.26 -12.24l0 -2.16 -5.72 0.72c-1.62,0.23 -2.82,0.7 -3.6,1.42 -0.79,0.73 -1.18,1.69 -1.18,2.89 0,1.11 0.38,2.02 1.15,2.73 0.77,0.72 1.8,1.07 3.11,1.07 1.83,0 3.33,-0.64 4.49,-1.9 1.16,-1.27 1.75,-2.86 1.75,-4.77z"/>
   <path id="7" class="fil5" d="M688.93 357.05c-1.07,1.65 -2.4,2.9 -3.97,3.73 -1.56,0.83 -3.4,1.24 -5.49,1.24 -3.74,0 -6.77,-1.33 -9.09,-3.99 -2.3,-2.65 -3.46,-6.36 -3.46,-11.12 0,-4.98 1.28,-8.97 3.83,-11.97 2.55,-3.01 5.86,-4.51 9.96,-4.51 1.96,0 3.62,0.35 4.99,1.06 1.36,0.7 2.44,1.77 3.23,3.19l0.11 0 0 -16.92 8.8 0 0 43.55 -8.8 0 0 -4.26 -0.11 0zm-13.08 -10.39c0,2.73 0.59,4.85 1.77,6.36 1.19,1.5 2.8,2.26 4.87,2.26 1.99,0 3.61,-0.79 4.86,-2.35 1.24,-1.56 1.87,-3.61 1.87,-6.15l0 -2.53c0,-2.01 -0.6,-3.69 -1.8,-5.04 -1.2,-1.34 -2.74,-2.01 -4.64,-2.01 -2.16,0 -3.86,0.84 -5.08,2.52 -1.23,1.67 -1.85,3.99 -1.85,6.94z"/>
   <path id="8" class="fil5" d="M720.39 362.02c-4.97,0 -8.87,-1.4 -11.72,-4.21 -2.86,-2.83 -4.29,-6.63 -4.29,-11.44 0.02,-5 1.5,-8.91 4.45,-11.73 2.96,-2.81 6.95,-4.21 11.99,-4.21 4.96,0 8.84,1.4 11.65,4.21 2.8,2.8 4.2,6.54 4.2,11.21 0,4.99 -1.45,8.92 -4.36,11.82 -2.91,2.9 -6.88,4.35 -11.92,4.35zm0.31 -6.74c2.34,0 4.1,-0.78 5.27,-2.34 1.18,-1.55 1.77,-3.85 1.77,-6.92 0,-2.9 -0.6,-5.11 -1.78,-6.59 -1.19,-1.48 -2.96,-2.23 -5.32,-2.23 -2.31,0 -4.12,0.8 -5.39,2.39 -1.29,1.59 -1.94,3.81 -1.94,6.67 0,2.99 0.63,5.23 1.88,6.74 1.24,1.52 3.08,2.28 5.51,2.28z"/>
   <path id="9" class="fil5" d="M761.78 338.5c-0.38,-0.1 -0.77,-0.17 -1.16,-0.22 -0.39,-0.05 -0.84,-0.06 -1.33,-0.06 -2.41,0 -4.21,0.75 -5.43,2.27 -1.21,1.53 -1.82,3.64 -1.82,6.33l0 14.49 -8.79 0 0 -30.14 8.79 0 0 5.63 0.12 0c0.72,-2.05 1.75,-3.59 3.09,-4.63 1.33,-1.03 2.95,-1.55 4.87,-1.55 0.45,0 0.89,0.04 1.31,0.1 0.43,0.07 0.88,0.15 1.36,0.25l-1.01 7.53z"/>
   <path class="fil5" d="M529.3 587.64l-8.89 0 0 -24.85c0,-1.31 0.03,-2.69 0.09,-4.16 0.06,-1.46 0.15,-3 0.25,-4.61l-0.22 0c-0.25,1.25 -0.47,2.32 -0.68,3.21 -0.19,0.89 -0.39,1.6 -0.59,2.14l-9.96 28.27 -7.22 0 -10.11 -27.99c-0.13,-0.38 -0.31,-1.04 -0.53,-1.98 -0.22,-0.93 -0.48,-2.15 -0.76,-3.65l-0.26 0c0.13,1.94 0.23,3.79 0.29,5.55 0.06,1.76 0.09,3.41 0.09,4.97l0 23.1 -8.13 0 0 -41.2 13.13 0 8.7 24.7c0.34,0.92 0.63,1.83 0.86,2.72 0.23,0.89 0.43,1.78 0.61,2.69l0.16 0c0.3,-1.03 0.57,-2.01 0.84,-2.94 0.27,-0.91 0.55,-1.75 0.83,-2.53l8.74 -24.64 12.76 0 0 41.2z"/>
   <path id="1" class="fil5" d="M565.25 575.03l-19.84 0c0.14,2.33 0.91,4.08 2.26,5.22 1.37,1.15 3.25,1.73 5.66,1.73 0.86,0 2.05,-0.26 3.57,-0.77 1.51,-0.51 2.99,-1.29 4.45,-2.36l3.85 5.08c-2.03,1.53 -4.11,2.66 -6.25,3.36 -2.14,0.71 -4.47,1.06 -7.02,1.06 -4.83,0 -8.57,-1.34 -11.24,-4.05 -2.66,-2.69 -4,-6.46 -4.02,-11.28 0,-4.83 1.41,-8.75 4.24,-11.75 2.82,-3.01 6.4,-4.51 10.73,-4.51 4.15,0 7.47,1.26 9.93,3.8 2.46,2.54 3.68,6.18 3.68,10.94l0 3.53zm-8.18 -5.5c0,-2.39 -0.46,-4.11 -1.4,-5.18 -0.93,-1.06 -2.29,-1.59 -4.08,-1.59 -1.59,0 -2.97,0.61 -4.11,1.82 -1.15,1.22 -1.86,2.87 -2.1,4.95l11.69 0z"/>
   <path id="2" class="fil5" d="M618.63 587.64l-8.76 0 0 -17.21c0,-2.34 -0.42,-4.07 -1.25,-5.2 -0.83,-1.13 -2.1,-1.7 -3.81,-1.7 -1.59,0 -2.89,0.69 -3.91,2.07 -1.01,1.39 -1.52,3.09 -1.52,5.14l0 16.9 -8.79 0 0 -17.44c0,-2.24 -0.42,-3.91 -1.25,-5.02 -0.83,-1.1 -2.07,-1.65 -3.72,-1.65 -1.66,0 -3,0.66 -3.99,1.97 -1,1.31 -1.5,3.09 -1.5,5.33l0 16.81 -8.79 0 0 -30.14 8.79 0 0 4.71 0.12 0c0.98,-1.65 2.32,-2.97 4.04,-3.96 1.71,-1 3.6,-1.49 5.67,-1.49 2.13,0 3.92,0.47 5.37,1.43 1.46,0.96 2.57,2.37 3.34,4.26 1.14,-1.91 2.56,-3.33 4.25,-4.27 1.68,-0.95 3.64,-1.42 5.86,-1.42 3.29,0 5.76,1.01 7.4,3.04 1.64,2.03 2.45,5.07 2.45,9.11l0 18.73z"/>
   <path id="3" class="fil5" d="M640.72 588.35c-4.96,0 -8.86,-1.4 -11.71,-4.21 -2.86,-2.83 -4.29,-6.63 -4.29,-11.44 0.02,-5 1.5,-8.91 4.45,-11.73 2.95,-2.81 6.94,-4.21 11.99,-4.21 4.96,0 8.84,1.4 11.65,4.2 2.8,2.81 4.2,6.55 4.2,11.22 0,4.98 -1.45,8.92 -4.36,11.82 -2.91,2.9 -6.89,4.35 -11.93,4.35zm0.32 -6.74c2.34,0 4.1,-0.78 5.27,-2.34 1.18,-1.55 1.77,-3.85 1.77,-6.92 0,-2.9 -0.6,-5.11 -1.79,-6.59 -1.18,-1.48 -2.95,-2.23 -5.31,-2.23 -2.32,0 -4.12,0.8 -5.39,2.39 -1.29,1.59 -1.94,3.81 -1.94,6.66 0,3 0.63,5.24 1.88,6.75 1.24,1.52 3.08,2.28 5.51,2.28z"/>
   <path id="4" class="fil5" d="M682.12 564.83c-0.39,-0.1 -0.77,-0.17 -1.16,-0.22 -0.39,-0.05 -0.84,-0.07 -1.33,-0.07 -2.41,0 -4.21,0.76 -5.43,2.28 -1.21,1.53 -1.82,3.64 -1.82,6.33l0 14.49 -8.79 0 0 -30.14 8.79 0 0 5.63 0.12 0c0.72,-2.05 1.75,-3.59 3.09,-4.63 1.33,-1.03 2.95,-1.55 4.87,-1.55 0.45,0 0.89,0.04 1.31,0.1 0.43,0.07 0.88,0.15 1.36,0.25l-1.01 7.53z"/>
   <path id="5" class="fil5" d="M692.46 553.45c-1.53,0 -2.78,-0.47 -3.76,-1.39 -0.98,-0.93 -1.46,-2.09 -1.46,-3.46 0,-1.42 0.48,-2.59 1.46,-3.49 0.98,-0.91 2.23,-1.38 3.76,-1.38 1.53,0 2.79,0.47 3.75,1.38 0.97,0.9 1.45,2.07 1.45,3.49 0,1.41 -0.48,2.58 -1.45,3.49 -0.96,0.9 -2.22,1.36 -3.75,1.36zm4.31 34.19l-8.76 0 0 -30.14 8.76 0 0 30.14z"/>
   <path id="6" class="fil5" d="M730.24 587.64l-8.33 0 0 -4.37 -0.12 0c-1.02,1.69 -2.27,2.95 -3.79,3.81 -1.51,0.85 -3.23,1.27 -5.14,1.27 -2.69,0 -4.94,-0.79 -6.79,-2.39 -1.83,-1.6 -2.75,-3.83 -2.75,-6.69 0,-2.79 0.91,-5.06 2.74,-6.8 1.83,-1.75 4.66,-2.88 8.5,-3.4l7.41 -1 0 -0.58c0,-1.54 -0.48,-2.71 -1.44,-3.5 -0.96,-0.78 -2.28,-1.17 -3.96,-1.17 -1.29,0 -2.67,0.21 -4.16,0.64 -1.48,0.44 -2.97,1.11 -4.46,2.05l-3.14 -5.19c1.98,-1.23 3.97,-2.13 5.99,-2.71 2.02,-0.57 4.22,-0.85 6.57,-0.85 4.38,0 7.63,1.05 9.72,3.15 2.1,2.11 3.15,5.29 3.15,9.55l0 18.18zm-8.27 -12.24l0 -2.16 -5.72 0.72c-1.62,0.23 -2.81,0.7 -3.6,1.42 -0.78,0.73 -1.17,1.69 -1.17,2.89 0,1.11 0.38,2.02 1.14,2.73 0.77,0.71 1.81,1.07 3.11,1.07 1.84,0 3.34,-0.64 4.49,-1.9 1.16,-1.27 1.75,-2.86 1.75,-4.77z"/>
   <path class="fil5" d="M1019.33 869.76l0 -36.05 12.59 0c6.41,0 11.21,1.46 14.41,4.39 3.2,2.93 4.8,7.32 4.8,13.19 0,5.61 -1.75,10.09 -5.26,13.44 -3.5,3.36 -8.16,5.03 -13.97,5.03l-12.57 0zm7.87 -29.61l0 23.2 4.12 0c3.6,0 6.43,-1.07 8.47,-3.21 2.05,-2.13 3.07,-5.05 3.07,-8.76 0,-3.52 -1.01,-6.27 -3.03,-8.25 -2.01,-1.99 -4.87,-2.98 -8.56,-2.98l-4.07 0z"/>
   <path id="1" class="fil5" d="M1060.84 839.85c-1.34,0 -2.44,-0.41 -3.3,-1.22 -0.86,-0.81 -1.28,-1.83 -1.28,-3.03 0,-1.24 0.42,-2.26 1.28,-3.05 0.86,-0.8 1.96,-1.2 3.3,-1.2 1.34,0 2.43,0.4 3.28,1.2 0.85,0.79 1.27,1.81 1.27,3.05 0,1.24 -0.42,2.26 -1.27,3.06 -0.85,0.79 -1.94,1.19 -3.28,1.19zm3.76 29.91l-7.66 0 0 -26.37 7.66 0 0 26.37z"/>
   <path id="2" class="fil5" d="M1069.79 867.55l3.16 -5.15c0.89,0.69 1.94,1.27 3.16,1.74 1.21,0.48 2.56,0.72 4.03,0.72 1.13,0 2.05,-0.2 2.76,-0.62 0.71,-0.41 1.06,-1.03 1.06,-1.87 0,-0.68 -0.27,-1.22 -0.83,-1.62 -0.55,-0.39 -1.57,-0.75 -3.06,-1.07 -3.27,-0.7 -5.61,-1.68 -7.04,-2.94 -1.42,-1.26 -2.14,-3.02 -2.14,-5.31 0,-2.64 1.05,-4.75 3.15,-6.33 2.11,-1.58 4.7,-2.36 7.76,-2.36 1.6,0 3.09,0.2 4.49,0.6 1.4,0.4 2.73,1.01 3.98,1.84l-2.89 4.97c-1.06,-0.66 -2.04,-1.15 -2.98,-1.47 -0.93,-0.31 -1.89,-0.46 -2.87,-0.46 -1.16,0 -2.08,0.22 -2.77,0.65 -0.68,0.43 -1.04,1 -1.04,1.69 0,0.75 0.32,1.31 0.95,1.67 0.63,0.36 1.83,0.72 3.61,1.09 3.03,0.62 5.22,1.59 6.55,2.89 1.33,1.31 2,3.08 2,5.33 0,2.67 -1.01,4.81 -3.02,6.43 -2.01,1.61 -4.68,2.42 -7.99,2.42 -1.81,0 -3.54,-0.23 -5.18,-0.69 -1.64,-0.46 -3.26,-1.18 -4.85,-2.15z"/>
   <path id="3" class="fil5" d="M1103.6 866.62l-0.08 -0.02 -0.03 15 -7.66 0 -0.03 -38.21 7.72 0 -0.03 4.07 0.13 -0.03c1.01,-1.57 2.22,-2.74 3.66,-3.52 1.43,-0.78 3.06,-1.17 4.89,-1.17 3.4,0 6.04,1.17 7.9,3.52 1.87,2.34 2.81,5.53 2.81,9.57 0.01,4.4 -1.07,7.92 -3.25,10.58 -2.18,2.65 -5.07,3.98 -8.67,3.98 -1.61,0 -3.02,-0.31 -4.23,-0.93 -1.22,-0.62 -2.26,-1.57 -3.13,-2.84zm-0.2 -10.81l0 2.29c0,1.85 0.5,3.39 1.52,4.58 1.01,1.2 2.34,1.8 3.98,1.8 1.93,0 3.43,-0.75 4.51,-2.24 1.08,-1.51 1.62,-3.62 1.62,-6.33 0,-2.4 -0.48,-4.2 -1.44,-5.42 -0.97,-1.21 -2.38,-1.81 -4.24,-1.79 -1.76,-0.02 -3.19,0.63 -4.3,1.94 -1.1,1.32 -1.65,3.04 -1.65,5.17z"/>
   <path id="4" class="fil5" d="M1141.08 870.39c-4.35,0 -7.76,-1.23 -10.26,-3.69 -2.5,-2.47 -3.75,-5.8 -3.75,-10.01 0.02,-4.37 1.31,-7.8 3.9,-10.26 2.58,-2.46 6.07,-3.69 10.48,-3.69 4.34,0 7.74,1.23 10.2,3.68 2.45,2.46 3.68,5.73 3.68,9.82 0,4.36 -1.27,7.8 -3.82,10.34 -2.55,2.54 -6.02,3.81 -10.43,3.81zm0.27 -5.91c2.05,0 3.59,-0.67 4.62,-2.04 1.03,-1.35 1.54,-3.37 1.54,-6.06 0,-2.54 -0.52,-4.47 -1.56,-5.76 -1.04,-1.3 -2.58,-1.95 -4.65,-1.95 -2.03,0 -3.61,0.7 -4.72,2.08 -1.13,1.4 -1.69,3.34 -1.69,5.84 0,2.62 0.55,4.58 1.64,5.9 1.09,1.33 2.69,1.99 4.82,1.99z"/>
   <path id="5" class="fil5" d="M1158.62 867.55l3.17 -5.15c0.88,0.69 1.94,1.27 3.16,1.74 1.21,0.48 2.55,0.72 4.03,0.72 1.12,0 2.04,-0.2 2.75,-0.62 0.72,-0.41 1.07,-1.03 1.07,-1.87 0,-0.68 -0.28,-1.22 -0.83,-1.62 -0.55,-0.39 -1.57,-0.75 -3.07,-1.07 -3.27,-0.7 -5.61,-1.68 -7.03,-2.94 -1.43,-1.26 -2.14,-3.02 -2.14,-5.31 0,-2.64 1.05,-4.75 3.15,-6.33 2.1,-1.58 4.69,-2.36 7.76,-2.36 1.59,0 3.08,0.2 4.48,0.6 1.4,0.4 2.73,1.01 3.99,1.84l-2.9 4.97c-1.05,-0.66 -2.04,-1.15 -2.97,-1.47 -0.93,-0.31 -1.89,-0.46 -2.88,-0.46 -1.16,0 -2.07,0.22 -2.76,0.65 -0.69,0.43 -1.04,1 -1.04,1.69 0,0.75 0.32,1.31 0.94,1.67 0.64,0.36 1.84,0.72 3.62,1.09 3.03,0.62 5.21,1.59 6.54,2.89 1.33,1.31 2,3.08 2,5.33 0,2.67 -1,4.81 -3.02,6.43 -2.01,1.61 -4.67,2.42 -7.99,2.42 -1.81,0 -3.53,-0.23 -5.18,-0.69 -1.64,-0.46 -3.26,-1.18 -4.85,-2.15z"/>
   <path id="6" class="fil5" d="M1188.59 839.85c-1.34,0 -2.44,-0.41 -3.3,-1.22 -0.86,-0.81 -1.28,-1.83 -1.28,-3.03 0,-1.24 0.42,-2.26 1.28,-3.05 0.86,-0.8 1.96,-1.2 3.3,-1.2 1.33,0 2.43,0.4 3.27,1.2 0.85,0.79 1.27,1.81 1.27,3.05 0,1.24 -0.42,2.26 -1.27,3.06 -0.84,0.79 -1.94,1.19 -3.27,1.19zm3.76 29.91l-7.66 0 0 -26.37 7.66 0 0 26.37z"/>
   <path id="7" class="fil5" d="M1216.14 869.33c-0.81,0.35 -1.71,0.62 -2.7,0.79 -0.98,0.18 -1.98,0.27 -2.98,0.27 -2.82,0 -4.94,-0.69 -6.38,-2.06 -1.43,-1.37 -2.15,-3.43 -2.15,-6.16l0 -13.07 -4.3 -0.03 -0.02 -5.68 4.32 0 0 -5.96 7.67 -2.18 -0.02 8.14 6.03 0 0 5.71 -6.01 -0.03 -0.02 12.63c0,1.07 0.2,1.84 0.62,2.33 0.42,0.49 1.07,0.72 1.97,0.7 0.45,0.02 0.88,-0.03 1.29,-0.16 0.41,-0.13 0.79,-0.27 1.14,-0.44l1.54 5.2z"/>
   <path id="8" class="fil5" d="M1224.63 839.85c-1.33,0 -2.43,-0.41 -3.29,-1.22 -0.86,-0.81 -1.28,-1.83 -1.28,-3.03 0,-1.24 0.42,-2.26 1.28,-3.05 0.86,-0.8 1.96,-1.2 3.29,-1.2 1.34,0 2.44,0.4 3.28,1.2 0.85,0.79 1.27,1.81 1.27,3.05 0,1.24 -0.42,2.26 -1.27,3.06 -0.84,0.79 -1.94,1.19 -3.28,1.19zm3.77 29.91l-7.66 0 0 -26.37 7.66 0 0 26.37z"/>
   <path id="9" class="fil5" d="M1260.76 843.39l-9.89 26.37 -8.66 0 -9.46 -26.37 8.25 0 4.85 16.59c0.25,0.91 0.45,1.74 0.6,2.51 0.15,0.76 0.25,1.45 0.28,2.07l0.1 0c0.06,-0.62 0.18,-1.3 0.34,-2.04 0.16,-0.74 0.37,-1.53 0.61,-2.39l4.96 -16.74 8.02 0z"/>
   <path id="10" class="fil5" d="M1276.67 870.39c-4.34,0 -7.76,-1.23 -10.26,-3.69 -2.49,-2.47 -3.75,-5.8 -3.75,-10.01 0.02,-4.37 1.32,-7.8 3.9,-10.26 2.58,-2.46 6.07,-3.69 10.48,-3.69 4.35,0 7.74,1.23 10.2,3.68 2.45,2.46 3.68,5.73 3.68,9.82 0,4.36 -1.27,7.8 -3.82,10.34 -2.55,2.54 -6.02,3.81 -10.43,3.81zm0.27 -5.91c2.05,0 3.59,-0.67 4.62,-2.04 1.03,-1.35 1.54,-3.37 1.54,-6.06 0,-2.54 -0.52,-4.47 -1.56,-5.76 -1.04,-1.3 -2.58,-1.95 -4.65,-1.95 -2.03,0 -3.6,0.7 -4.72,2.08 -1.12,1.4 -1.69,3.34 -1.69,5.84 0,2.62 0.55,4.58 1.64,5.9 1.09,1.33 2.69,1.99 4.82,1.99z"/>
   <path id="11" class="fil5" d="M1307.76 869.76l13.18 -36.05 9.27 0 12.87 36.05 -8.54 0 -2.54 -7.67 -13.25 0 -2.47 7.67 -8.52 0zm12.72 -13.82l9.65 0 -4.1 -12.75c-0.13,-0.48 -0.24,-0.9 -0.33,-1.26 -0.1,-0.35 -0.17,-0.8 -0.24,-1.35l-0.2 0c-0.09,0.5 -0.17,0.93 -0.27,1.3 -0.09,0.37 -0.21,0.78 -0.37,1.24l-4.14 12.82z"/>
   <path class="fil5" d="M1509.5 869.76l0 -36.05 12.59 0c6.41,0 11.2,1.46 14.4,4.39 3.2,2.93 4.81,7.32 4.81,13.19 0,5.61 -1.75,10.09 -5.26,13.44 -3.5,3.36 -8.16,5.03 -13.97,5.03l-12.57 0zm7.87 -29.61l0 23.2 4.12 0c3.6,0 6.42,-1.07 8.47,-3.21 2.05,-2.13 3.07,-5.05 3.07,-8.76 0,-3.52 -1.02,-6.27 -3.03,-8.25 -2.02,-1.99 -4.88,-2.98 -8.56,-2.98l-4.07 0z"/>
   <path id="1" class="fil5" d="M1551 839.85c-1.34,0 -2.43,-0.41 -3.29,-1.22 -0.86,-0.81 -1.28,-1.83 -1.28,-3.03 0,-1.24 0.42,-2.26 1.28,-3.05 0.86,-0.8 1.95,-1.2 3.29,-1.2 1.34,0 2.44,0.4 3.28,1.2 0.85,0.79 1.27,1.81 1.27,3.05 0,1.24 -0.42,2.26 -1.27,3.06 -0.84,0.79 -1.94,1.19 -3.28,1.19zm3.77 29.91l-7.66 0 0 -26.37 7.66 0 0 26.37z"/>
   <path id="2" class="fil5" d="M1559.95 867.55l3.17 -5.15c0.88,0.69 1.94,1.27 3.16,1.74 1.21,0.48 2.55,0.72 4.03,0.72 1.12,0 2.04,-0.2 2.75,-0.62 0.72,-0.41 1.07,-1.03 1.07,-1.87 0,-0.68 -0.28,-1.22 -0.83,-1.62 -0.55,-0.39 -1.57,-0.75 -3.07,-1.07 -3.27,-0.7 -5.61,-1.68 -7.03,-2.94 -1.43,-1.26 -2.14,-3.02 -2.14,-5.31 0,-2.64 1.05,-4.75 3.15,-6.33 2.1,-1.58 4.69,-2.36 7.76,-2.36 1.59,0 3.08,0.2 4.48,0.6 1.4,0.4 2.73,1.01 3.99,1.84l-2.9 4.97c-1.05,-0.66 -2.04,-1.15 -2.97,-1.47 -0.93,-0.31 -1.89,-0.46 -2.88,-0.46 -1.16,0 -2.07,0.22 -2.76,0.65 -0.69,0.43 -1.04,1 -1.04,1.69 0,0.75 0.32,1.31 0.94,1.67 0.64,0.36 1.84,0.72 3.62,1.09 3.03,0.62 5.21,1.59 6.54,2.89 1.33,1.31 2,3.08 2,5.33 0,2.67 -1,4.81 -3.02,6.43 -2.01,1.61 -4.67,2.42 -7.99,2.42 -1.81,0 -3.53,-0.23 -5.18,-0.69 -1.64,-0.46 -3.26,-1.18 -4.85,-2.15z"/>
   <path id="3" class="fil5" d="M1593.76 866.62l-0.08 -0.02 -0.02 15 -7.67 0 -0.02 -38.21 7.71 0 -0.02 4.07 0.13 -0.03c1,-1.57 2.22,-2.74 3.65,-3.52 1.43,-0.78 3.07,-1.17 4.89,-1.17 3.41,0 6.04,1.17 7.91,3.52 1.87,2.34 2.8,5.53 2.8,9.57 0.02,4.4 -1.06,7.92 -3.24,10.58 -2.18,2.65 -5.07,3.98 -8.68,3.98 -1.6,0 -3.02,-0.31 -4.23,-0.93 -1.22,-0.62 -2.25,-1.57 -3.13,-2.84zm-0.2 -10.81l0 2.29c0,1.85 0.51,3.39 1.52,4.58 1.01,1.2 2.34,1.8 3.98,1.8 1.93,0 3.44,-0.75 4.52,-2.24 1.08,-1.51 1.62,-3.62 1.62,-6.33 0,-2.4 -0.48,-4.2 -1.44,-5.42 -0.97,-1.21 -2.38,-1.81 -4.24,-1.79 -1.76,-0.02 -3.19,0.63 -4.3,1.94 -1.11,1.32 -1.66,3.04 -1.66,5.17z"/>
   <path id="4" class="fil5" d="M1631.24 870.39c-4.34,0 -7.76,-1.23 -10.25,-3.69 -2.5,-2.47 -3.75,-5.8 -3.75,-10.01 0.01,-4.37 1.31,-7.8 3.89,-10.26 2.59,-2.46 6.08,-3.69 10.49,-3.69 4.34,0 7.74,1.23 10.19,3.68 2.46,2.46 3.68,5.73 3.68,9.82 0,4.36 -1.27,7.8 -3.81,10.34 -2.55,2.54 -6.03,3.81 -10.44,3.81zm0.27 -5.91c2.06,0 3.59,-0.67 4.62,-2.04 1.03,-1.35 1.55,-3.37 1.55,-6.06 0,-2.54 -0.53,-4.47 -1.56,-5.76 -1.04,-1.3 -2.59,-1.95 -4.66,-1.95 -2.02,0 -3.6,0.7 -4.72,2.08 -1.12,1.4 -1.69,3.34 -1.69,5.84 0,2.62 0.55,4.58 1.64,5.9 1.09,1.33 2.7,1.99 4.82,1.99z"/>
   <path id="5" class="fil5" d="M1648.79 867.55l3.16 -5.15c0.89,0.69 1.94,1.27 3.16,1.74 1.21,0.48 2.56,0.72 4.04,0.72 1.12,0 2.04,-0.2 2.75,-0.62 0.71,-0.41 1.06,-1.03 1.06,-1.87 0,-0.68 -0.27,-1.22 -0.83,-1.62 -0.55,-0.39 -1.57,-0.75 -3.06,-1.07 -3.27,-0.7 -5.61,-1.68 -7.04,-2.94 -1.42,-1.26 -2.13,-3.02 -2.13,-5.31 0,-2.64 1.04,-4.75 3.14,-6.33 2.11,-1.58 4.7,-2.36 7.76,-2.36 1.6,0 3.09,0.2 4.49,0.6 1.4,0.4 2.73,1.01 3.98,1.84l-2.89 4.97c-1.06,-0.66 -2.04,-1.15 -2.98,-1.47 -0.93,-0.31 -1.89,-0.46 -2.87,-0.46 -1.16,0 -2.08,0.22 -2.77,0.65 -0.68,0.43 -1.03,1 -1.03,1.69 0,0.75 0.31,1.31 0.94,1.67 0.63,0.36 1.84,0.72 3.61,1.09 3.03,0.62 5.22,1.59 6.55,2.89 1.33,1.31 2,3.08 2,5.33 0,2.67 -1.01,4.81 -3.02,6.43 -2.01,1.61 -4.68,2.42 -7.99,2.42 -1.81,0 -3.54,-0.23 -5.18,-0.69 -1.64,-0.46 -3.26,-1.18 -4.85,-2.15z"/>
   <path id="6" class="fil5" d="M1678.75 839.85c-1.34,0 -2.44,-0.41 -3.29,-1.22 -0.86,-0.81 -1.28,-1.83 -1.28,-3.03 0,-1.24 0.42,-2.26 1.28,-3.05 0.85,-0.8 1.95,-1.2 3.29,-1.2 1.34,0 2.44,0.4 3.28,1.2 0.85,0.79 1.27,1.81 1.27,3.05 0,1.24 -0.42,2.26 -1.27,3.06 -0.84,0.79 -1.94,1.19 -3.28,1.19zm3.77 29.91l-7.66 0 0 -26.37 7.66 0 0 26.37z"/>
   <path id="7" class="fil5" d="M1706.3 869.33c-0.8,0.35 -1.7,0.62 -2.69,0.79 -0.99,0.18 -1.98,0.27 -2.99,0.27 -2.82,0 -4.94,-0.69 -6.37,-2.06 -1.43,-1.37 -2.16,-3.43 -2.16,-6.16l0 -13.07 -4.29 -0.03 -0.03 -5.68 4.32 0 0 -5.96 7.68 -2.18 -0.03 8.14 6.03 0 0 5.71 -6 -0.03 -0.03 12.63c0,1.07 0.21,1.84 0.63,2.33 0.42,0.49 1.07,0.72 1.96,0.7 0.46,0.02 0.89,-0.03 1.3,-0.16 0.41,-0.13 0.79,-0.27 1.14,-0.44l1.53 5.2z"/>
   <path id="8" class="fil5" d="M1714.8 839.85c-1.34,0 -2.44,-0.41 -3.3,-1.22 -0.85,-0.81 -1.27,-1.83 -1.27,-3.03 0,-1.24 0.42,-2.26 1.27,-3.05 0.86,-0.8 1.96,-1.2 3.3,-1.2 1.34,0 2.44,0.4 3.28,1.2 0.85,0.79 1.27,1.81 1.27,3.05 0,1.24 -0.42,2.26 -1.27,3.06 -0.84,0.79 -1.94,1.19 -3.28,1.19zm3.77 29.91l-7.67 0 0 -26.37 7.67 0 0 26.37z"/>
   <path id="9" class="fil5" d="M1750.92 843.39l-9.88 26.37 -8.67 0 -9.45 -26.37 8.24 0 4.85 16.59c0.26,0.91 0.46,1.74 0.61,2.51 0.15,0.76 0.24,1.45 0.28,2.07l0.1 0c0.06,-0.62 0.18,-1.3 0.33,-2.04 0.17,-0.74 0.37,-1.53 0.62,-2.39l4.95 -16.74 8.02 0z"/>
   <path id="10" class="fil5" d="M1766.83 870.39c-4.34,0 -7.75,-1.23 -10.25,-3.69 -2.5,-2.47 -3.75,-5.8 -3.75,-10.01 0.02,-4.37 1.31,-7.8 3.89,-10.26 2.59,-2.46 6.08,-3.69 10.49,-3.69 4.34,0 7.74,1.23 10.19,3.68 2.46,2.46 3.69,5.73 3.69,9.82 0,4.36 -1.28,7.8 -3.82,10.34 -2.55,2.54 -6.03,3.81 -10.44,3.81zm0.28 -5.91c2.05,0 3.58,-0.67 4.61,-2.04 1.03,-1.35 1.55,-3.37 1.55,-6.06 0,-2.54 -0.52,-4.47 -1.56,-5.76 -1.04,-1.3 -2.59,-1.95 -4.65,-1.95 -2.03,0 -3.61,0.7 -4.72,2.08 -1.13,1.4 -1.69,3.34 -1.69,5.84 0,2.62 0.55,4.58 1.63,5.9 1.09,1.33 2.7,1.99 4.83,1.99z"/>
   <path id="11" class="fil5" d="M1801.8 869.76l0 -36.05 12.94 0c3.95,0 7.01,0.77 9.15,2.29 2.15,1.52 3.22,3.67 3.22,6.43 0,1.93 -0.57,3.62 -1.73,5.08 -1.16,1.46 -2.64,2.47 -4.45,3.05l0 0.09c2.33,0.31 4.18,1.23 5.56,2.76 1.39,1.53 2.08,3.4 2.08,5.62 0,3.28 -1.18,5.89 -3.53,7.83 -2.36,1.93 -5.56,2.9 -9.59,2.9l-13.65 0zm7.87 -30.21l0 8.99 3.62 0c1.71,0 3.05,-0.41 4.06,-1.23 0.99,-0.82 1.49,-1.96 1.49,-3.42 0,-1.46 -0.51,-2.55 -1.51,-3.27 -1,-0.71 -2.51,-1.07 -4.5,-1.07l-3.16 0zm0 14.88l0 9.5 4.49 0c1.92,0 3.42,-0.45 4.51,-1.34 1.08,-0.9 1.63,-2.12 1.63,-3.67 0,-1.4 -0.54,-2.5 -1.62,-3.3 -1.08,-0.8 -2.59,-1.19 -4.54,-1.19l-4.47 0z"/>
   <path class="fil5" d="M1996.94 870.1l0 -36.05 12.59 0c6.41,0 11.21,1.46 14.41,4.38 3.2,2.93 4.8,7.32 4.8,13.19 0,5.61 -1.75,10.09 -5.26,13.45 -3.5,3.35 -8.16,5.03 -13.97,5.03l-12.57 0zm7.87 -29.62l0 23.21 4.12 0c3.6,0 6.43,-1.08 8.47,-3.21 2.05,-2.14 3.07,-5.06 3.07,-8.76 0,-3.52 -1.01,-6.28 -3.03,-8.26 -2.02,-1.98 -4.87,-2.98 -8.56,-2.98l-4.07 0z"/>
   <path id="1" class="fil5" d="M2038.44 840.18c-1.33,0 -2.43,-0.41 -3.29,-1.21 -0.86,-0.82 -1.28,-1.83 -1.28,-3.03 0,-1.25 0.42,-2.27 1.28,-3.06 0.86,-0.8 1.96,-1.2 3.29,-1.2 1.34,0 2.44,0.4 3.28,1.2 0.85,0.79 1.27,1.81 1.27,3.06 0,1.23 -0.42,2.25 -1.27,3.05 -0.84,0.79 -1.94,1.19 -3.28,1.19zm3.77 29.92l-7.66 0 0 -26.37 7.66 0 0 26.37z"/>
   <path id="2" class="fil5" d="M2047.39 867.88l3.17 -5.15c0.88,0.69 1.94,1.27 3.16,1.75 1.21,0.48 2.56,0.72 4.03,0.72 1.13,0 2.04,-0.21 2.76,-0.62 0.71,-0.41 1.06,-1.04 1.06,-1.87 0,-0.69 -0.27,-1.23 -0.83,-1.62 -0.55,-0.4 -1.57,-0.76 -3.07,-1.08 -3.26,-0.7 -5.61,-1.68 -7.03,-2.94 -1.43,-1.25 -2.14,-3.02 -2.14,-5.3 0,-2.65 1.05,-4.76 3.15,-6.33 2.1,-1.58 4.69,-2.36 7.76,-2.36 1.59,0 3.09,0.19 4.49,0.6 1.39,0.4 2.72,1.01 3.98,1.83l-2.89 4.98c-1.06,-0.67 -2.05,-1.16 -2.98,-1.48 -0.93,-0.31 -1.89,-0.46 -2.88,-0.46 -1.16,0 -2.07,0.22 -2.76,0.65 -0.69,0.44 -1.04,1.01 -1.04,1.69 0,0.76 0.32,1.31 0.95,1.68 0.63,0.36 1.83,0.72 3.61,1.08 3.03,0.62 5.22,1.59 6.55,2.9 1.33,1.3 2,3.08 2,5.33 0,2.66 -1.01,4.8 -3.03,6.42 -2,1.62 -4.67,2.42 -7.98,2.42 -1.81,0 -3.54,-0.23 -5.19,-0.68 -1.64,-0.47 -3.26,-1.19 -4.85,-2.16z"/>
   <path id="3" class="fil5" d="M2081.2 866.96l-0.07 -0.03 -0.03 15.01 -7.66 0 -0.03 -38.21 7.72 0 -0.03 4.06 0.13 -0.02c1,-1.57 2.22,-2.75 3.65,-3.53 1.44,-0.78 3.07,-1.16 4.89,-1.16 3.41,0 6.05,1.16 7.91,3.51 1.87,2.35 2.8,5.54 2.8,9.58 0.02,4.39 -1.06,7.91 -3.24,10.57 -2.18,2.65 -5.07,3.98 -8.67,3.98 -1.61,0 -3.03,-0.31 -4.24,-0.92 -1.21,-0.62 -2.25,-1.57 -3.13,-2.84zm-0.19 -10.82l0 2.29c0,1.86 0.5,3.39 1.51,4.59 1.02,1.2 2.35,1.8 3.99,1.8 1.93,0 3.43,-0.76 4.51,-2.25 1.08,-1.5 1.62,-3.61 1.62,-6.32 0,-2.41 -0.48,-4.21 -1.44,-5.43 -0.97,-1.21 -2.38,-1.81 -4.24,-1.79 -1.76,-0.02 -3.19,0.64 -4.3,1.95 -1.11,1.31 -1.65,3.04 -1.65,5.16z"/>
   <path id="4" class="fil5" d="M2118.68 870.72c-4.34,0 -7.75,-1.22 -10.25,-3.69 -2.5,-2.47 -3.75,-5.8 -3.75,-10 0.02,-4.38 1.31,-7.8 3.89,-10.26 2.59,-2.47 6.08,-3.69 10.49,-3.69 4.34,0 7.74,1.22 10.19,3.68 2.46,2.45 3.69,5.72 3.69,9.81 0,4.36 -1.28,7.8 -3.82,10.34 -2.55,2.54 -6.03,3.81 -10.44,3.81zm0.28 -5.9c2.05,0 3.58,-0.68 4.61,-2.04 1.03,-1.36 1.55,-3.38 1.55,-6.06 0,-2.54 -0.52,-4.47 -1.56,-5.77 -1.04,-1.29 -2.59,-1.95 -4.65,-1.95 -2.03,0 -3.61,0.7 -4.72,2.09 -1.13,1.39 -1.69,3.34 -1.69,5.83 0,2.62 0.55,4.59 1.63,5.91 1.09,1.33 2.7,1.99 4.83,1.99z"/>
   <path id="5" class="fil5" d="M2136.23 867.88l3.17 -5.15c0.88,0.69 1.94,1.27 3.15,1.75 1.21,0.48 2.56,0.72 4.04,0.72 1.12,0 2.04,-0.21 2.75,-0.62 0.71,-0.41 1.07,-1.04 1.07,-1.87 0,-0.69 -0.28,-1.23 -0.84,-1.62 -0.55,-0.4 -1.57,-0.76 -3.06,-1.08 -3.27,-0.7 -5.61,-1.68 -7.04,-2.94 -1.42,-1.25 -2.13,-3.02 -2.13,-5.3 0,-2.65 1.04,-4.76 3.15,-6.33 2.1,-1.58 4.69,-2.36 7.75,-2.36 1.6,0 3.09,0.19 4.49,0.6 1.4,0.4 2.73,1.01 3.98,1.83l-2.89 4.98c-1.05,-0.67 -2.04,-1.16 -2.98,-1.48 -0.92,-0.31 -1.88,-0.46 -2.87,-0.46 -1.16,0 -2.08,0.22 -2.76,0.65 -0.69,0.44 -1.04,1.01 -1.04,1.69 0,0.76 0.32,1.31 0.94,1.68 0.64,0.36 1.84,0.72 3.61,1.08 3.03,0.62 5.22,1.59 6.55,2.9 1.33,1.3 2,3.08 2,5.33 0,2.66 -1,4.8 -3.02,6.42 -2.01,1.62 -4.68,2.42 -7.99,2.42 -1.81,0 -3.53,-0.23 -5.18,-0.68 -1.64,-0.47 -3.26,-1.19 -4.85,-2.16z"/>
   <path id="6" class="fil5" d="M2166.19 840.18c-1.33,0 -2.43,-0.41 -3.29,-1.21 -0.86,-0.82 -1.28,-1.83 -1.28,-3.03 0,-1.25 0.42,-2.27 1.28,-3.06 0.86,-0.8 1.96,-1.2 3.29,-1.2 1.34,0 2.44,0.4 3.28,1.2 0.85,0.79 1.27,1.81 1.27,3.06 0,1.23 -0.42,2.25 -1.27,3.05 -0.84,0.79 -1.94,1.19 -3.28,1.19zm3.77 29.92l-7.66 0 0 -26.37 7.66 0 0 26.37z"/>
   <path id="7" class="fil5" d="M2193.75 869.67c-0.81,0.35 -1.71,0.61 -2.7,0.79 -0.98,0.18 -1.98,0.26 -2.98,0.26 -2.83,0 -4.95,-0.68 -6.38,-2.06 -1.43,-1.37 -2.15,-3.42 -2.15,-6.16l0 -13.07 -4.3 -0.02 -0.03 -5.68 4.33 0 0 -5.97 7.67 -2.18 -0.03 8.15 6.03 0 0 5.7 -6 -0.02 -0.03 12.62c0,1.07 0.21,1.84 0.63,2.33 0.42,0.49 1.07,0.72 1.96,0.71 0.46,0.01 0.89,-0.04 1.3,-0.17 0.41,-0.12 0.79,-0.27 1.14,-0.43l1.54 5.2z"/>
   <path id="8" class="fil5" d="M2202.24 840.18c-1.34,0 -2.44,-0.41 -3.29,-1.21 -0.86,-0.82 -1.28,-1.83 -1.28,-3.03 0,-1.25 0.42,-2.27 1.28,-3.06 0.85,-0.8 1.95,-1.2 3.29,-1.2 1.34,0 2.44,0.4 3.28,1.2 0.85,0.79 1.27,1.81 1.27,3.06 0,1.23 -0.42,2.25 -1.27,3.05 -0.84,0.79 -1.94,1.19 -3.28,1.19zm3.77 29.92l-7.66 0 0 -26.37 7.66 0 0 26.37z"/>
   <path id="9" class="fil5" d="M2238.37 843.73l-9.89 26.37 -8.66 0 -9.46 -26.37 8.25 0 4.84 16.58c0.26,0.91 0.46,1.75 0.61,2.51 0.15,0.76 0.24,1.45 0.28,2.08l0.1 0c0.06,-0.63 0.18,-1.31 0.33,-2.05 0.17,-0.73 0.37,-1.52 0.62,-2.38l4.95 -16.74 8.03 0z"/>
   <path id="10" class="fil5" d="M2254.27 870.72c-4.34,0 -7.75,-1.22 -10.25,-3.69 -2.5,-2.47 -3.75,-5.8 -3.75,-10 0.02,-4.38 1.31,-7.8 3.9,-10.26 2.58,-2.47 6.07,-3.69 10.48,-3.69 4.34,0 7.74,1.22 10.2,3.68 2.45,2.45 3.68,5.72 3.68,9.81 0,4.36 -1.27,7.8 -3.82,10.34 -2.55,2.54 -6.03,3.81 -10.44,3.81zm0.28 -5.9c2.05,0 3.59,-0.68 4.62,-2.04 1.03,-1.36 1.54,-3.38 1.54,-6.06 0,-2.54 -0.52,-4.47 -1.56,-5.77 -1.04,-1.29 -2.58,-1.95 -4.65,-1.95 -2.03,0 -3.61,0.7 -4.72,2.09 -1.13,1.39 -1.69,3.34 -1.69,5.83 0,2.62 0.55,4.59 1.64,5.91 1.09,1.33 2.69,1.99 4.82,1.99z"/>
   <path id="11" class="fil5" d="M2316.34 868.21c-1.9,0.87 -3.73,1.51 -5.52,1.91 -1.78,0.41 -3.71,0.6 -5.79,0.6 -5.6,0 -10.01,-1.57 -13.22,-4.73 -3.22,-3.15 -4.83,-7.63 -4.83,-13.47 0,-5.49 1.75,-10.04 5.26,-13.66 3.51,-3.61 8.15,-5.41 13.89,-5.41 1.95,0 3.69,0.14 5.23,0.44 1.55,0.29 3.12,0.75 4.73,1.39l-2.42 6.34c-1.22,-0.49 -2.41,-0.84 -3.57,-1.08 -1.15,-0.22 -2.4,-0.33 -3.74,-0.33 -3.04,0 -5.65,1.05 -7.84,3.17 -2.18,2.12 -3.27,4.99 -3.27,8.59 0,3.72 0.96,6.63 2.87,8.72 1.92,2.1 4.55,3.15 7.89,3.15 0.95,0 2.08,-0.15 3.4,-0.45 1.32,-0.3 2.66,-0.79 4.04,-1.46l2.89 6.28z"/>
   <path class="fil6" d="M1286.65 365.03c-2.9,1.78 -6.22,3.18 -9.99,4.19 -3.76,1.03 -7.9,1.53 -12.41,1.53 -9.71,0 -17.46,-2.59 -23.26,-7.75 -5.78,-5.18 -8.68,-12.92 -8.68,-23.23 0,-9.49 2.96,-17.34 8.86,-23.58 5.9,-6.23 14.06,-9.34 24.46,-9.34 3.84,0 7.41,0.33 10.71,1 3.28,0.68 6.65,1.75 10.1,3.22l-4.35 10.43c-2.77,-1.16 -5.41,-2 -7.97,-2.54 -2.56,-0.55 -5.39,-0.83 -8.49,-0.83 -5.87,0 -10.52,1.77 -13.97,5.3 -3.45,3.54 -5.17,8.77 -5.17,15.7 0,6.95 1.69,12.07 5.09,15.35 3.39,3.3 7.84,4.95 13.36,4.95 1.72,0 3.26,-0.14 4.63,-0.37 1.37,-0.25 2.56,-0.62 3.59,-1.11l0 -12.46 -12.44 0 0 -10.81 25.93 0 0 30.35z"/>
   <path id="1" class="fil6" d="M1338.54 350.76l-29.77 0c0.22,3.5 1.37,6.12 3.4,7.84 2.04,1.72 4.87,2.59 8.49,2.59 1.29,0 3.07,-0.38 5.35,-1.15 2.27,-0.76 4.49,-1.94 6.68,-3.54l5.77 7.62c-3.05,2.29 -6.17,3.98 -9.37,5.04 -3.21,1.06 -6.71,1.59 -10.54,1.59 -7.23,0 -12.85,-2.01 -16.85,-6.07 -3.99,-4.05 -6,-9.7 -6.03,-16.94 0,-7.23 2.11,-13.12 6.35,-17.62 4.24,-4.51 9.61,-6.76 16.11,-6.76 6.22,0 11.19,1.89 14.88,5.7 3.7,3.81 5.53,9.27 5.53,16.41l0 5.29zm-12.28 -8.24c0,-3.59 -0.69,-6.18 -2.09,-7.78 -1.39,-1.59 -3.44,-2.38 -6.13,-2.38 -2.38,0 -4.44,0.91 -6.16,2.74 -1.72,1.82 -2.78,4.29 -3.15,7.42l17.53 0z"/>
   <path id="2" class="fil6" d="M1343.46 365.88l5.43 -8.82c1.51,1.17 3.32,2.17 5.41,2.98 2.07,0.83 4.38,1.24 6.91,1.24 1.93,0 3.5,-0.35 4.72,-1.06 1.22,-0.71 1.83,-1.78 1.83,-3.21 0,-1.18 -0.47,-2.1 -1.43,-2.78 -0.94,-0.67 -2.69,-1.29 -5.25,-1.84 -5.6,-1.2 -9.62,-2.88 -12.06,-5.04 -2.44,-2.15 -3.66,-5.18 -3.66,-9.09 0,-4.53 1.79,-8.15 5.39,-10.86 3.61,-2.71 8.05,-4.04 13.3,-4.04 2.74,0 5.3,0.33 7.69,1.03 2.4,0.69 4.68,1.73 6.83,3.14l-4.96 8.54c-1.81,-1.15 -3.5,-1.99 -5.1,-2.53 -1.59,-0.53 -3.24,-0.8 -4.93,-0.8 -1.99,0 -3.56,0.38 -4.74,1.12 -1.17,0.75 -1.78,1.72 -1.78,2.9 0,1.29 0.55,2.25 1.62,2.87 1.09,0.61 3.15,1.23 6.2,1.86 5.19,1.06 8.94,2.73 11.22,4.96 2.28,2.24 3.43,5.28 3.43,9.14 0,4.57 -1.72,8.23 -5.18,11.01 -3.44,2.77 -8.02,4.15 -13.7,4.15 -3.1,0 -6.06,-0.4 -8.88,-1.18 -2.81,-0.79 -5.59,-2.03 -8.31,-3.69z"/>
   <path id="3" class="fil6" d="M1415.77 368.94c-1.38,0.6 -2.93,1.06 -4.62,1.36 -1.69,0.3 -3.4,0.45 -5.12,0.45 -4.84,0 -8.47,-1.18 -10.93,-3.53 -2.45,-2.35 -3.69,-5.87 -3.69,-10.56l0 -22.4 -7.37 -0.05 -0.04 -9.74 7.41 0 0 -10.22 13.15 -3.73 -0.04 13.95 10.34 0 0 9.79 -10.3 -0.05 -0.04 21.64c0,1.84 0.35,3.16 1.07,4 0.72,0.84 1.84,1.24 3.37,1.21 0.78,0.03 1.51,-0.06 2.22,-0.28 0.71,-0.22 1.35,-0.47 1.96,-0.75l2.63 8.91z"/>
   <path id="4" class="fil6" d="M1430.33 318.4c-2.29,0 -4.18,-0.71 -5.65,-2.09 -1.47,-1.4 -2.19,-3.13 -2.19,-5.19 0,-2.14 0.72,-3.89 2.19,-5.24 1.47,-1.37 3.36,-2.06 5.65,-2.06 2.3,0 4.18,0.69 5.62,2.06 1.46,1.35 2.18,3.1 2.18,5.24 0,2.12 -0.72,3.87 -2.18,5.23 -1.44,1.36 -3.32,2.05 -5.62,2.05zm6.46 51.28l-13.14 0 0 -45.21 13.14 0 0 45.21z"/>
   <path id="5" class="fil6" d="M1471.23 370.75c-7.45,0 -13.3,-2.1 -17.58,-6.32 -4.28,-4.24 -6.43,-9.95 -6.43,-17.16 0.03,-7.5 2.25,-13.37 6.68,-17.59 4.43,-4.22 10.41,-6.32 17.97,-6.32 7.45,0 13.27,2.1 17.48,6.31 4.2,4.2 6.31,9.81 6.31,16.82 0,7.48 -2.18,13.38 -6.55,17.73 -4.37,4.35 -10.32,6.53 -17.88,6.53zm0.47 -10.12c3.51,0 6.14,-1.16 7.91,-3.5 1.77,-2.32 2.65,-5.78 2.65,-10.38 0,-4.36 -0.9,-7.67 -2.68,-9.89 -1.78,-2.22 -4.43,-3.34 -7.97,-3.34 -3.47,0 -6.18,1.19 -8.09,3.58 -1.93,2.38 -2.9,5.72 -2.9,10 0,4.48 0.94,7.85 2.81,10.12 1.87,2.28 4.62,3.41 8.27,3.41zm-0.17 -43.14l-9.57 0 11.12 -13.92 11.77 0 -13.32 13.92z"/>
   <path id="6" class="fil6" d="M1548.45 369.68l-13.15 0 0 -25.22c0,-3.61 -0.65,-6.33 -1.96,-8.16 -1.3,-1.82 -3.26,-2.75 -5.88,-2.78 -2.56,0.03 -4.66,1.02 -6.31,2.96 -1.66,1.94 -2.49,4.4 -2.49,7.38l-0.04 25.82 -13.14 0 -0.04 -45.21 13.22 0 -0.04 7.2 0.22 0c1.66,-2.78 3.71,-4.87 6.14,-6.22 2.44,-1.37 5.23,-2.05 8.42,-2.05 5,-0.03 8.76,1.52 11.27,4.65 2.52,3.13 3.78,7.78 3.78,13.96l0 27.67z"/>
   <path id="7" class="fil6" d="M1614.94 363.29c-1.6,2.47 -3.59,4.34 -5.94,5.59 -2.36,1.25 -5.11,1.87 -8.24,1.87 -5.62,0 -10.17,-2 -13.64,-5.99 -3.45,-3.98 -5.19,-9.54 -5.19,-16.68 0,-7.47 1.91,-13.46 5.74,-17.96 3.82,-4.51 8.79,-6.76 14.94,-6.76 2.94,0 5.43,0.53 7.49,1.59 2.04,1.05 3.66,2.66 4.84,4.78l0.18 0 0 -25.38 13.19 0 0 65.33 -13.19 0 0 -6.39 -0.18 0zm-19.61 -15.59c0,4.1 0.88,7.28 2.65,9.55 1.78,2.25 4.21,3.38 7.31,3.38 2.99,0 5.41,-1.18 7.28,-3.51 1.87,-2.34 2.81,-5.43 2.81,-9.24l0 -3.8c0,-3.01 -0.9,-5.53 -2.71,-7.54 -1.79,-2.02 -4.1,-3.02 -6.95,-3.02 -3.24,0 -5.78,1.25 -7.62,3.77 -1.84,2.51 -2.77,5.98 -2.77,10.41z"/>
   <path id="8" class="fil6" d="M1681 350.76l-29.77 0c0.22,3.5 1.37,6.12 3.4,7.84 2.04,1.72 4.87,2.59 8.48,2.59 1.3,0 3.08,-0.38 5.36,-1.15 2.26,-0.76 4.48,-1.94 6.68,-3.54l5.76 7.62c-3.04,2.29 -6.16,3.98 -9.37,5.04 -3.2,1.06 -6.71,1.59 -10.53,1.59 -7.24,0 -12.86,-2.01 -16.86,-6.07 -3.98,-4.05 -6,-9.7 -6.03,-16.94 0,-7.23 2.12,-13.12 6.36,-17.62 4.23,-4.51 9.6,-6.76 16.1,-6.76 6.23,0 11.2,1.89 14.89,5.7 3.69,3.81 5.53,9.27 5.53,16.41l0 5.29zm-12.28 -8.24c0,-3.59 -0.69,-6.18 -2.09,-7.78 -1.4,-1.59 -3.44,-2.38 -6.13,-2.38 -2.39,0 -4.45,0.91 -6.17,2.74 -1.72,1.82 -2.78,4.29 -3.15,7.42l17.54 0z"/>
   <path id="9" class="fil6" d="M1757.18 369.68l-13.09 0 0 -25.73c0,-3.5 -0.65,-6.12 -1.93,-7.83 -1.28,-1.7 -3.19,-2.56 -5.75,-2.56 -2.59,0 -4.69,0.98 -6.34,2.92 -1.63,1.94 -2.44,4.41 -2.41,7.43l-0.04 25.77 -13.14 0 -0.04 -65.33 13.22 0 -0.04 26.94 0.22 -0.05c1.72,-2.65 3.75,-4.62 6.1,-5.93 2.34,-1.31 4.97,-1.95 7.9,-1.95 5.12,0 8.96,1.54 11.5,4.63 2.56,3.07 3.84,7.72 3.84,13.93l0 27.76z"/>
   <path id="10" class="fil6" d="M1806.09 369.68l-12.49 0 0 -6.55 -0.17 0c-1.53,2.53 -3.42,4.43 -5.7,5.71 -2.26,1.28 -4.84,1.91 -7.7,1.91 -4.03,0 -7.42,-1.19 -10.18,-3.59 -2.75,-2.4 -4.14,-5.75 -4.14,-10.03 0,-4.19 1.37,-7.59 4.12,-10.21 2.74,-2.62 6.99,-4.31 12.74,-5.09l11.12 -1.5 0 -0.87c0,-2.32 -0.72,-4.07 -2.16,-5.25 -1.44,-1.17 -3.41,-1.76 -5.94,-1.76 -1.93,0 -4.01,0.32 -6.24,0.97 -2.22,0.65 -4.46,1.66 -6.69,3.07l-4.71 -7.79c2.97,-1.84 5.96,-3.2 8.99,-4.06 3.03,-0.86 6.32,-1.28 9.85,-1.28 6.58,0 11.45,1.57 14.58,4.73 3.15,3.17 4.72,7.93 4.72,14.32l0 27.27zm-12.4 -18.36l0 -3.24 -8.57 1.08c-2.43,0.35 -4.23,1.06 -5.4,2.13 -1.18,1.09 -1.77,2.53 -1.77,4.34 0,1.66 0.58,3.03 1.72,4.09 1.15,1.07 2.71,1.6 4.67,1.6 2.75,0 5,-0.95 6.73,-2.85 1.74,-1.9 2.62,-4.28 2.62,-7.15z"/>
   <path id="11" class="fil6" d="M1845.69 335.46c-0.57,-0.14 -1.15,-0.25 -1.74,-0.32 -0.58,-0.08 -1.26,-0.1 -2,-0.1 -3.6,0 -6.31,1.13 -8.13,3.41 -1.82,2.29 -2.74,5.46 -2.74,9.5l0 21.73 -13.18 0 0 -45.21 13.18 0 0 8.45 0.18 0c1.09,-3.08 2.63,-5.39 4.63,-6.94 2,-1.55 4.43,-2.33 7.31,-2.33 0.68,0 1.34,0.06 1.98,0.15 0.63,0.1 1.3,0.22 2.03,0.37l-1.52 11.29z"/>
   <path id="12" class="fil6" d="M1884.13 363.29c-1.61,2.47 -3.59,4.34 -5.95,5.59 -2.35,1.25 -5.1,1.87 -8.23,1.87 -5.62,0 -10.17,-2 -13.64,-5.99 -3.46,-3.98 -5.19,-9.54 -5.19,-16.68 0,-7.47 1.91,-13.46 5.73,-17.96 3.83,-4.51 8.8,-6.76 14.95,-6.76 2.94,0 5.43,0.53 7.49,1.59 2.04,1.05 3.66,2.66 4.84,4.78l0.17 0 0 -25.38 13.2 0 0 65.33 -13.2 0 0 -6.39 -0.17 0zm-19.61 -15.59c0,4.1 0.88,7.28 2.65,9.55 1.78,2.25 4.2,3.38 7.31,3.38 2.98,0 5.41,-1.18 7.28,-3.51 1.87,-2.34 2.81,-5.43 2.81,-9.24l0 -3.8c0,-3.01 -0.9,-5.53 -2.71,-7.54 -1.79,-2.02 -4.1,-3.02 -6.96,-3.02 -3.23,0 -5.78,1.25 -7.62,3.77 -1.84,2.51 -2.76,5.98 -2.76,10.41z"/>
   <path id="13" class="fil6" d="M1974.66 324.47l-13.09 45.21 -13.84 0 -6.97 -27.2c-0.24,-0.82 -0.41,-1.71 -0.53,-2.65 -0.1,-0.93 -0.18,-1.91 -0.21,-2.94l-0.26 0c-0.09,1.12 -0.19,2.12 -0.34,3.01 -0.15,0.89 -0.34,1.71 -0.56,2.46l-7.46 27.32 -13.66 0 -12.89 -45.21 13.45 0 6.59 30c0.17,0.69 0.32,1.42 0.44,2.23 0.12,0.81 0.19,1.71 0.25,2.73l0.26 0c0.09,-0.99 0.2,-1.9 0.33,-2.77 0.13,-0.85 0.29,-1.63 0.5,-2.33l8.04 -29.86 12.55 0 7.24 30.04c0.09,0.37 0.17,0.99 0.28,1.83 0.1,0.85 0.2,1.91 0.32,3.17l0.31 0c0.09,-0.84 0.18,-1.67 0.28,-2.5 0.1,-0.84 0.25,-1.67 0.46,-2.5l6.23 -30.04 12.28 0z"/>
   <path id="14" class="fil6" d="M2019.18 369.68l-12.49 0 0 -6.55 -0.18 0c-1.53,2.53 -3.41,4.43 -5.69,5.71 -2.27,1.28 -4.84,1.91 -7.71,1.91 -4.03,0 -7.41,-1.19 -10.18,-3.59 -2.75,-2.4 -4.13,-5.75 -4.13,-10.03 0,-4.19 1.37,-7.59 4.12,-10.21 2.73,-2.62 6.98,-4.31 12.74,-5.09l11.12 -1.5 0 -0.87c0,-2.32 -0.73,-4.07 -2.17,-5.25 -1.44,-1.17 -3.41,-1.76 -5.94,-1.76 -1.93,0 -4,0.32 -6.24,0.97 -2.22,0.65 -4.45,1.66 -6.69,3.07l-4.71 -7.79c2.98,-1.84 5.96,-3.2 8.99,-4.06 3.03,-0.86 6.33,-1.28 9.86,-1.28 6.57,0 11.44,1.57 14.57,4.73 3.15,3.17 4.73,7.93 4.73,14.32l0 27.27zm-12.4 -18.36l0 -3.24 -8.58 1.08c-2.43,0.35 -4.22,1.06 -5.4,2.13 -1.18,1.09 -1.76,2.53 -1.76,4.34 0,1.66 0.57,3.03 1.72,4.09 1.15,1.07 2.7,1.6 4.66,1.6 2.75,0 5,-0.95 6.74,-2.85 1.73,-1.9 2.62,-4.28 2.62,-7.15z"/>
   <path id="15" class="fil6" d="M2058.77 335.46c-0.57,-0.14 -1.14,-0.25 -1.73,-0.32 -0.59,-0.08 -1.27,-0.1 -2,-0.1 -3.6,0 -6.31,1.13 -8.13,3.41 -1.83,2.29 -2.74,5.46 -2.74,9.5l0 21.73 -13.18 0 0 -45.21 13.18 0 0 8.45 0.17 0c1.09,-3.08 2.64,-5.39 4.64,-6.94 2,-1.55 4.43,-2.33 7.31,-2.33 0.68,0 1.34,0.06 1.97,0.15 0.63,0.1 1.31,0.22 2.03,0.37l-1.52 11.29z"/>
   <path id="16" class="fil6" d="M2107.08 350.76l-29.77 0c0.22,3.5 1.37,6.12 3.4,7.84 2.04,1.72 4.87,2.59 8.48,2.59 1.3,0 3.08,-0.38 5.36,-1.15 2.26,-0.76 4.49,-1.94 6.68,-3.54l5.76 7.62c-3.04,2.29 -6.16,3.98 -9.37,5.04 -3.2,1.06 -6.7,1.59 -10.53,1.59 -7.24,0 -12.86,-2.01 -16.86,-6.07 -3.98,-4.05 -6,-9.7 -6.03,-16.94 0,-7.23 2.12,-13.12 6.36,-17.62 4.23,-4.51 9.6,-6.76 16.1,-6.76 6.23,0 11.2,1.89 14.89,5.7 3.69,3.81 5.53,9.27 5.53,16.41l0 5.29zm-12.28 -8.24c0,-3.59 -0.69,-6.18 -2.09,-7.78 -1.4,-1.59 -3.44,-2.38 -6.13,-2.38 -2.39,0 -4.45,0.91 -6.17,2.74 -1.72,1.82 -2.78,4.29 -3.14,7.42l17.53 0z"/>
  </g>
 </g>
</svg>
