<?xml version="1.0" encoding="UTF-8"?>
<!DOCTYPE svg PUBLIC "-//W3C//DTD SVG 1.1//EN" "http://www.w3.org/Graphics/SVG/1.1/DTD/svg11.dtd">
<!-- Creator: CorelDRAW 2020 (64-Bit) -->
<svg xmlns="http://www.w3.org/2000/svg" xml:space="preserve" width="3175px" height="1481px" version="1.1" style="shape-rendering:geometricPrecision; text-rendering:geometricPrecision; image-rendering:optimizeQuality; fill-rule:evenodd; clip-rule:evenodd"
viewBox="0 0 3175 1481.25"
 xmlns:xlink="http://www.w3.org/1999/xlink"
 xmlns:xodm="http://www.corel.com/coreldraw/odm/2003">
 <defs>
  <style type="text/css">
   <![CDATA[
    .str1 {stroke:#999999;stroke-width:10;stroke-miterlimit:22.9256}
    .str0 {stroke:#0070C0;stroke-width:8.5;stroke-miterlimit:22.9256}
    .fil0 {fill:none}
    .fil2 {fill:#0070C0}
    .fil7 {fill:red}
    .fil1 {fill:white}
    .fil4 {fill:black;fill-rule:nonzero}
    .fil5 {fill:gray;fill-rule:nonzero}
    .fil6 {fill:#BFBFBF;fill-rule:nonzero}
    .fil3 {fill:white;fill-rule:nonzero}
   ]]>
  </style>
 </defs>
 <g id="Capa_x0020_1">
  <metadata id="CorelCorpID_0Corel-Layer"/>
  <rect class="fil0" width="3175" height="1481.25"/>
  <g id="_2371857589168">
   <polygon class="fil1 str0" points="2737.96,424.62 1020.02,424.62 1020.02,1001.6 2737.96,1001.6 "/>
   <polygon class="fil2" points="1088.02,756.61 1088.02,937.6 1563,937.6 1563,756.61 "/>
   <polygon class="fil0 str0" points="1088.02,756.61 1563,756.61 1563,937.6 1088.02,937.6 "/>
   <path class="fil3" d="M1160.95 860.46c-2.14,1 -4.22,1.71 -6.25,2.17 -2.02,0.46 -4.21,0.68 -6.56,0.68 -6.35,0 -11.34,-1.78 -14.98,-5.36 -3.65,-3.56 -5.47,-8.65 -5.47,-15.26 0,-6.22 1.99,-11.38 5.96,-15.48 3.98,-4.09 9.23,-6.13 15.73,-6.13 2.21,0 4.19,0.16 5.94,0.49 1.75,0.34 3.53,0.86 5.35,1.58l-2.74 7.18c-1.38,-0.55 -2.73,-0.95 -4.04,-1.21 -1.31,-0.25 -2.73,-0.38 -4.24,-0.38 -3.44,0 -6.4,1.2 -8.88,3.6 -2.48,2.4 -3.71,5.65 -3.71,9.73 0,4.21 1.09,7.5 3.25,9.88 2.18,2.37 5.16,3.56 8.94,3.56 1.08,0 2.36,-0.17 3.86,-0.51 1.49,-0.34 3.01,-0.89 4.57,-1.65l3.27 7.11z"/>
   <path id="1" class="fil3" d="M1180.75 863.31c-4.92,0 -8.79,-1.39 -11.62,-4.18 -2.83,-2.8 -4.25,-6.57 -4.25,-11.34 0.02,-4.95 1.49,-8.83 4.42,-11.62 2.92,-2.79 6.88,-4.18 11.88,-4.18 4.92,0 8.77,1.39 11.55,4.17 2.78,2.78 4.17,6.48 4.17,11.12 0,4.94 -1.44,8.84 -4.33,11.72 -2.89,2.87 -6.82,4.31 -11.82,4.31zm0.31 -6.69c2.32,0 4.06,-0.77 5.23,-2.31 1.17,-1.54 1.75,-3.82 1.75,-6.86 0,-2.88 -0.59,-5.07 -1.77,-6.54 -1.17,-1.47 -2.93,-2.2 -5.27,-2.2 -2.29,0 -4.08,0.78 -5.35,2.36 -1.27,1.57 -1.91,3.78 -1.91,6.61 0,2.96 0.62,5.19 1.86,6.69 1.23,1.5 3.05,2.25 5.46,2.25z"/>
   <path id="2" class="fil3" d="M1231.82 862.6l-8.69 0 0 -16.66c0,-2.39 -0.43,-4.19 -1.29,-5.4 -0.87,-1.2 -2.16,-1.82 -3.89,-1.83 -1.7,0.01 -3.09,0.67 -4.17,1.95 -1.1,1.28 -1.65,2.91 -1.65,4.88l-0.03 17.06 -8.68 0 -0.03 -29.87 8.74 0 -0.03 4.75 0.15 0c1.1,-1.84 2.45,-3.22 4.05,-4.11 1.62,-0.91 3.47,-1.35 5.57,-1.35 3.31,-0.02 5.79,1 7.45,3.07 1.66,2.07 2.5,5.14 2.5,9.23l0 18.28z"/>
   <path id="3" class="fil3" d="M1257.91 862.12c-0.91,0.39 -1.93,0.7 -3.05,0.89 -1.12,0.21 -2.24,0.3 -3.38,0.3 -3.2,0 -5.6,-0.78 -7.22,-2.33 -1.63,-1.56 -2.45,-3.88 -2.45,-6.98l0 -14.81 -4.87 -0.03 -0.03 -6.43 4.9 0 0 -6.76 8.7 -2.47 -0.03 9.23 6.83 0 0 6.46 -6.8 -0.03 -0.03 14.3c0,1.22 0.23,2.09 0.71,2.65 0.47,0.55 1.21,0.81 2.22,0.79 0.52,0.02 1,-0.03 1.47,-0.18 0.47,-0.15 0.9,-0.31 1.29,-0.5l1.74 5.9z"/>
   <path id="4" class="fil3" d="M1281.46 839.99c-0.38,-0.1 -0.76,-0.17 -1.15,-0.22 -0.38,-0.04 -0.83,-0.06 -1.32,-0.06 -2.38,0 -4.17,0.75 -5.37,2.25 -1.21,1.52 -1.81,3.61 -1.81,6.28l0 14.36 -8.71 0 0 -29.87 8.71 0 0 5.58 0.11 0c0.72,-2.04 1.74,-3.56 3.07,-4.59 1.32,-1.02 2.92,-1.54 4.83,-1.54 0.45,0 0.88,0.04 1.3,0.1 0.42,0.07 0.87,0.14 1.34,0.24l-1 7.47z"/>
   <path id="5" class="fil3" d="M1300.92 863.31c-4.92,0 -8.79,-1.39 -11.62,-4.18 -2.83,-2.8 -4.25,-6.57 -4.25,-11.34 0.02,-4.95 1.49,-8.83 4.41,-11.62 2.93,-2.79 6.89,-4.18 11.88,-4.18 4.92,0 8.77,1.39 11.55,4.17 2.78,2.78 4.18,6.48 4.18,11.12 0,4.94 -1.44,8.84 -4.33,11.72 -2.89,2.87 -6.83,4.31 -11.82,4.31zm0.31 -6.69c2.32,0 4.06,-0.77 5.23,-2.31 1.16,-1.54 1.75,-3.82 1.75,-6.86 0,-2.88 -0.59,-5.07 -1.77,-6.54 -1.18,-1.47 -2.93,-2.2 -5.27,-2.2 -2.3,0 -4.08,0.78 -5.35,2.36 -1.27,1.57 -1.91,3.78 -1.91,6.61 0,2.96 0.62,5.19 1.85,6.69 1.24,1.5 3.06,2.25 5.47,2.25z"/>
   <polygon id="6" class="fil3" points="1323.59,862.6 1323.59,819.43 1332.3,819.43 1332.3,862.6 "/>
   <path id="7" class="fil3" d="M1365.08 862.6l-8.25 0 0 -4.32 -0.12 0c-1.01,1.67 -2.25,2.92 -3.76,3.77 -1.5,0.84 -3.2,1.26 -5.09,1.26 -2.67,0 -4.9,-0.79 -6.73,-2.37 -1.82,-1.58 -2.73,-3.8 -2.73,-6.63 0,-2.77 0.9,-5.02 2.72,-6.75 1.81,-1.73 4.62,-2.85 8.42,-3.36l7.35 -0.99 0 -0.58c0,-1.53 -0.48,-2.69 -1.43,-3.47 -0.95,-0.78 -2.26,-1.16 -3.93,-1.16 -1.27,0 -2.64,0.21 -4.12,0.64 -1.47,0.43 -2.95,1.1 -4.43,2.03l-3.11 -5.15c1.97,-1.22 3.94,-2.11 5.94,-2.69 2.01,-0.56 4.18,-0.84 6.52,-0.84 4.34,0 7.56,1.04 9.63,3.13 2.08,2.09 3.12,5.24 3.12,9.46l0 18.02zm-8.19 -12.13l0 -2.14 -5.67 0.71c-1.6,0.23 -2.79,0.7 -3.57,1.41 -0.78,0.72 -1.17,1.67 -1.17,2.87 0,1.1 0.38,2 1.14,2.7 0.76,0.71 1.79,1.06 3.08,1.06 1.82,0 3.31,-0.63 4.46,-1.89 1.14,-1.25 1.73,-2.83 1.73,-4.72z"/>
   <path id="8" class="fil3" d="M1392.94 858.38c-1.06,1.64 -2.37,2.87 -3.93,3.7 -1.56,0.82 -3.37,1.23 -5.44,1.23 -3.72,0 -6.72,-1.32 -9.02,-3.95 -2.28,-2.64 -3.43,-6.32 -3.43,-11.03 0,-4.94 1.26,-8.9 3.79,-11.87 2.53,-2.99 5.82,-4.47 9.88,-4.47 1.95,0 3.59,0.35 4.95,1.05 1.35,0.7 2.42,1.76 3.2,3.16l0.12 0 0 -16.77 8.72 0 0 43.17 -8.72 0 0 -4.22 -0.12 0zm-12.96 -10.3c0,2.71 0.58,4.81 1.75,6.31 1.17,1.48 2.78,2.23 4.83,2.23 1.97,0 3.58,-0.77 4.81,-2.32 1.24,-1.55 1.86,-3.59 1.86,-6.11l0 -2.5c0,-2 -0.59,-3.66 -1.79,-4.99 -1.19,-1.33 -2.71,-1.99 -4.6,-1.99 -2.14,0 -3.82,0.82 -5.03,2.48 -1.22,1.67 -1.83,3.96 -1.83,6.89z"/>
   <path id="9" class="fil3" d="M1424.13 863.31c-4.92,0 -8.79,-1.39 -11.62,-4.18 -2.83,-2.8 -4.25,-6.57 -4.25,-11.34 0.02,-4.95 1.49,-8.83 4.41,-11.62 2.93,-2.79 6.89,-4.18 11.88,-4.18 4.92,0 8.77,1.39 11.55,4.17 2.78,2.78 4.18,6.48 4.18,11.12 0,4.94 -1.44,8.84 -4.33,11.72 -2.89,2.87 -6.83,4.31 -11.82,4.31zm0.31 -6.69c2.32,0 4.06,-0.77 5.23,-2.31 1.17,-1.54 1.75,-3.82 1.75,-6.86 0,-2.88 -0.59,-5.07 -1.77,-6.54 -1.18,-1.47 -2.93,-2.2 -5.27,-2.2 -2.3,0 -4.08,0.78 -5.35,2.36 -1.27,1.57 -1.91,3.78 -1.91,6.61 0,2.96 0.62,5.19 1.85,6.69 1.24,1.5 3.06,2.25 5.47,2.25z"/>
   <path id="10" class="fil3" d="M1465.17 839.99c-0.38,-0.1 -0.76,-0.17 -1.15,-0.22 -0.39,-0.04 -0.84,-0.06 -1.32,-0.06 -2.39,0 -4.18,0.75 -5.38,2.25 -1.21,1.52 -1.81,3.61 -1.81,6.28l0 14.36 -8.71 0 0 -29.87 8.71 0 0 5.58 0.12 0c0.72,-2.04 1.74,-3.56 3.06,-4.59 1.32,-1.02 2.93,-1.54 4.83,-1.54 0.45,0 0.89,0.04 1.3,0.1 0.42,0.07 0.87,0.14 1.35,0.24l-1 7.47z"/>
   <path id="11" class="fil3" d="M1483.32 862.6l14.92 -40.84 10.51 0 14.58 40.84 -9.68 0 -2.88 -8.69 -15.01 0 -2.79 8.69 -9.65 0zm14.4 -15.66l10.94 0 -4.65 -14.45c-0.14,-0.54 -0.27,-1.02 -0.38,-1.42 -0.1,-0.4 -0.19,-0.91 -0.27,-1.53l-0.22 0c-0.1,0.56 -0.2,1.06 -0.3,1.47 -0.11,0.42 -0.25,0.89 -0.42,1.4l-4.7 14.53z"/>
   <polygon class="fil2" points="1641,756.61 1641,937.6 2115.48,937.6 2115.48,756.61 "/>
   <polygon class="fil0 str0" points="1641,756.61 2115.48,756.61 2115.48,937.6 1641,937.6 "/>
   <path class="fil3" d="M1716.33 860.46c-2.14,1 -4.22,1.71 -6.25,2.17 -2.02,0.46 -4.21,0.68 -6.56,0.68 -6.35,0 -11.34,-1.78 -14.98,-5.36 -3.65,-3.56 -5.47,-8.65 -5.47,-15.26 0,-6.22 1.99,-11.38 5.96,-15.48 3.98,-4.09 9.23,-6.13 15.73,-6.13 2.21,0 4.19,0.16 5.94,0.49 1.75,0.34 3.53,0.86 5.35,1.58l-2.74 7.18c-1.38,-0.55 -2.73,-0.95 -4.04,-1.21 -1.31,-0.25 -2.73,-0.38 -4.24,-0.38 -3.44,0 -6.4,1.2 -8.88,3.6 -2.48,2.4 -3.71,5.65 -3.71,9.73 0,4.21 1.09,7.5 3.25,9.88 2.18,2.37 5.16,3.56 8.94,3.56 1.08,0 2.36,-0.17 3.86,-0.51 1.49,-0.34 3.01,-0.89 4.57,-1.65l3.27 7.11z"/>
   <path id="1" class="fil3" d="M1736.13 863.31c-4.92,0 -8.79,-1.39 -11.62,-4.18 -2.83,-2.8 -4.25,-6.57 -4.25,-11.34 0.02,-4.95 1.49,-8.83 4.42,-11.62 2.92,-2.79 6.88,-4.18 11.88,-4.18 4.92,0 8.77,1.39 11.55,4.17 2.78,2.78 4.17,6.48 4.17,11.12 0,4.94 -1.44,8.84 -4.33,11.72 -2.89,2.87 -6.82,4.31 -11.82,4.31zm0.31 -6.69c2.32,0 4.06,-0.77 5.23,-2.31 1.17,-1.54 1.75,-3.82 1.75,-6.86 0,-2.88 -0.59,-5.07 -1.77,-6.54 -1.17,-1.47 -2.93,-2.2 -5.27,-2.2 -2.29,0 -4.08,0.78 -5.35,2.36 -1.27,1.57 -1.91,3.78 -1.91,6.61 0,2.96 0.62,5.19 1.86,6.69 1.23,1.5 3.05,2.25 5.46,2.25z"/>
   <path id="2" class="fil3" d="M1787.2 862.6l-8.69 0 0 -16.66c0,-2.39 -0.43,-4.19 -1.29,-5.4 -0.87,-1.2 -2.16,-1.82 -3.89,-1.83 -1.7,0.01 -3.09,0.67 -4.17,1.95 -1.1,1.28 -1.65,2.91 -1.65,4.88l-0.03 17.06 -8.68 0 -0.03 -29.87 8.74 0 -0.03 4.75 0.15 0c1.1,-1.84 2.45,-3.22 4.05,-4.11 1.62,-0.91 3.47,-1.35 5.57,-1.35 3.31,-0.02 5.79,1 7.45,3.07 1.66,2.07 2.5,5.14 2.5,9.23l0 18.28z"/>
   <path id="3" class="fil3" d="M1813.29 862.12c-0.91,0.39 -1.93,0.7 -3.05,0.89 -1.12,0.21 -2.24,0.3 -3.38,0.3 -3.2,0 -5.6,-0.78 -7.22,-2.33 -1.63,-1.56 -2.45,-3.88 -2.45,-6.98l0 -14.81 -4.87 -0.03 -0.03 -6.43 4.9 0 0 -6.76 8.7 -2.47 -0.03 9.23 6.83 0 0 6.46 -6.8 -0.03 -0.03 14.3c0,1.22 0.23,2.09 0.71,2.65 0.47,0.55 1.21,0.81 2.22,0.79 0.52,0.02 1,-0.03 1.47,-0.18 0.47,-0.15 0.9,-0.31 1.29,-0.5l1.74 5.9z"/>
   <path id="4" class="fil3" d="M1836.84 839.99c-0.38,-0.1 -0.76,-0.17 -1.15,-0.22 -0.38,-0.04 -0.83,-0.06 -1.32,-0.06 -2.38,0 -4.17,0.75 -5.37,2.25 -1.21,1.52 -1.81,3.61 -1.81,6.28l0 14.36 -8.71 0 0 -29.87 8.71 0 0 5.58 0.11 0c0.72,-2.04 1.74,-3.56 3.07,-4.59 1.32,-1.02 2.92,-1.54 4.83,-1.54 0.45,0 0.88,0.04 1.3,0.1 0.42,0.07 0.87,0.14 1.34,0.24l-1 7.47z"/>
   <path id="5" class="fil3" d="M1856.3 863.31c-4.92,0 -8.79,-1.39 -11.62,-4.18 -2.83,-2.8 -4.25,-6.57 -4.25,-11.34 0.02,-4.95 1.49,-8.83 4.41,-11.62 2.93,-2.79 6.89,-4.18 11.88,-4.18 4.92,0 8.77,1.39 11.55,4.17 2.78,2.78 4.18,6.48 4.18,11.12 0,4.94 -1.44,8.84 -4.33,11.72 -2.89,2.87 -6.83,4.31 -11.82,4.31zm0.31 -6.69c2.32,0 4.06,-0.77 5.23,-2.31 1.16,-1.54 1.75,-3.82 1.75,-6.86 0,-2.88 -0.59,-5.07 -1.77,-6.54 -1.18,-1.47 -2.93,-2.2 -5.27,-2.2 -2.3,0 -4.08,0.78 -5.35,2.36 -1.27,1.57 -1.91,3.78 -1.91,6.61 0,2.96 0.62,5.19 1.85,6.69 1.24,1.5 3.06,2.25 5.47,2.25z"/>
   <polygon id="6" class="fil3" points="1878.97,862.6 1878.97,819.43 1887.68,819.43 1887.68,862.6 "/>
   <path id="7" class="fil3" d="M1920.46 862.6l-8.25 0 0 -4.32 -0.12 0c-1.01,1.67 -2.25,2.92 -3.76,3.77 -1.5,0.84 -3.2,1.26 -5.09,1.26 -2.67,0 -4.9,-0.79 -6.73,-2.37 -1.82,-1.58 -2.73,-3.8 -2.73,-6.63 0,-2.77 0.9,-5.02 2.72,-6.75 1.81,-1.73 4.62,-2.85 8.42,-3.36l7.35 -0.99 0 -0.58c0,-1.53 -0.48,-2.69 -1.43,-3.47 -0.95,-0.78 -2.26,-1.16 -3.93,-1.16 -1.27,0 -2.64,0.21 -4.12,0.64 -1.47,0.43 -2.95,1.1 -4.43,2.03l-3.11 -5.15c1.97,-1.22 3.94,-2.11 5.94,-2.69 2.01,-0.56 4.18,-0.84 6.52,-0.84 4.34,0 7.56,1.04 9.63,3.13 2.08,2.09 3.12,5.24 3.12,9.46l0 18.02zm-8.19 -12.13l0 -2.14 -5.67 0.71c-1.6,0.23 -2.79,0.7 -3.57,1.41 -0.78,0.72 -1.17,1.67 -1.17,2.87 0,1.1 0.38,2 1.14,2.7 0.76,0.71 1.79,1.06 3.08,1.06 1.82,0 3.31,-0.63 4.46,-1.89 1.14,-1.25 1.73,-2.83 1.73,-4.72z"/>
   <path id="8" class="fil3" d="M1948.32 858.38c-1.06,1.64 -2.37,2.87 -3.93,3.7 -1.56,0.82 -3.37,1.23 -5.44,1.23 -3.72,0 -6.72,-1.32 -9.02,-3.95 -2.28,-2.64 -3.43,-6.32 -3.43,-11.03 0,-4.94 1.26,-8.9 3.79,-11.87 2.53,-2.99 5.82,-4.47 9.88,-4.47 1.95,0 3.59,0.35 4.95,1.05 1.35,0.7 2.42,1.76 3.2,3.16l0.12 0 0 -16.77 8.72 0 0 43.17 -8.72 0 0 -4.22 -0.12 0zm-12.96 -10.3c0,2.71 0.58,4.81 1.75,6.31 1.17,1.48 2.78,2.23 4.83,2.23 1.97,0 3.58,-0.77 4.81,-2.32 1.24,-1.55 1.86,-3.59 1.86,-6.11l0 -2.5c0,-2 -0.59,-3.66 -1.79,-4.99 -1.19,-1.33 -2.71,-1.99 -4.6,-1.99 -2.14,0 -3.82,0.82 -5.03,2.48 -1.22,1.67 -1.83,3.96 -1.83,6.89z"/>
   <path id="9" class="fil3" d="M1979.51 863.31c-4.92,0 -8.79,-1.39 -11.62,-4.18 -2.83,-2.8 -4.25,-6.57 -4.25,-11.34 0.02,-4.95 1.49,-8.83 4.41,-11.62 2.93,-2.79 6.89,-4.18 11.88,-4.18 4.92,0 8.77,1.39 11.55,4.17 2.78,2.78 4.18,6.48 4.18,11.12 0,4.94 -1.44,8.84 -4.33,11.72 -2.89,2.87 -6.83,4.31 -11.82,4.31zm0.31 -6.69c2.32,0 4.06,-0.77 5.23,-2.31 1.17,-1.54 1.75,-3.82 1.75,-6.86 0,-2.88 -0.59,-5.07 -1.77,-6.54 -1.18,-1.47 -2.93,-2.2 -5.27,-2.2 -2.3,0 -4.08,0.78 -5.35,2.36 -1.27,1.57 -1.91,3.78 -1.91,6.61 0,2.96 0.62,5.19 1.85,6.69 1.24,1.5 3.06,2.25 5.47,2.25z"/>
   <path id="10" class="fil3" d="M2020.55 839.99c-0.38,-0.1 -0.76,-0.17 -1.15,-0.22 -0.39,-0.04 -0.84,-0.06 -1.32,-0.06 -2.39,0 -4.18,0.75 -5.38,2.25 -1.21,1.52 -1.81,3.61 -1.81,6.28l0 14.36 -8.71 0 0 -29.87 8.71 0 0 5.58 0.12 0c0.72,-2.04 1.74,-3.56 3.06,-4.59 1.32,-1.02 2.93,-1.54 4.83,-1.54 0.45,0 0.89,0.04 1.3,0.1 0.42,0.07 0.87,0.14 1.35,0.24l-1 7.47z"/>
   <path id="11" class="fil3" d="M2043.08 862.6l0 -40.84 14.66 0c4.48,0 7.94,0.86 10.38,2.59 2.43,1.73 3.64,4.16 3.64,7.29 0,2.18 -0.65,4.1 -1.96,5.75 -1.32,1.66 -3,2.8 -5.05,3.45l0 0.11c2.65,0.35 4.75,1.39 6.31,3.12 1.57,1.74 2.35,3.86 2.35,6.37 0,3.72 -1.33,6.68 -4,8.88 -2.67,2.18 -6.29,3.28 -10.86,3.28l-15.47 0zm8.92 -34.23l0 10.19 4.1 0c1.93,0 3.46,-0.47 4.6,-1.39 1.12,-0.93 1.69,-2.23 1.69,-3.88 0,-1.65 -0.57,-2.89 -1.71,-3.7 -1.14,-0.81 -2.84,-1.22 -5.1,-1.22l-3.58 0zm0 16.86l0 10.76 5.09 0c2.17,0 3.87,-0.5 5.1,-1.52 1.23,-1.02 1.85,-2.4 1.85,-4.15 0,-1.59 -0.61,-2.84 -1.84,-3.74 -1.22,-0.9 -2.93,-1.35 -5.14,-1.35l-5.06 0z"/>
   <polygon class="fil2" points="2193.48,756.61 2193.48,937.6 2667.96,937.6 2667.96,756.61 "/>
   <polygon class="fil0 str0" points="2193.48,756.61 2667.96,756.61 2667.96,937.6 2193.48,937.6 "/>
   <path class="fil3" d="M2268.63 860.46c-2.15,1 -4.23,1.71 -6.25,2.17 -2.03,0.46 -4.21,0.68 -6.57,0.68 -6.34,0 -11.33,-1.78 -14.98,-5.36 -3.64,-3.56 -5.47,-8.65 -5.47,-15.26 0,-6.22 1.99,-11.38 5.97,-15.48 3.97,-4.09 9.22,-6.13 15.73,-6.13 2.21,0 4.18,0.16 5.93,0.49 1.75,0.34 3.53,0.86 5.36,1.58l-2.75 7.18c-1.38,-0.55 -2.73,-0.95 -4.04,-1.21 -1.3,-0.25 -2.72,-0.38 -4.24,-0.38 -3.44,0 -6.4,1.2 -8.88,3.6 -2.47,2.4 -3.71,5.65 -3.71,9.73 0,4.21 1.09,7.5 3.26,9.88 2.18,2.37 5.15,3.56 8.93,3.56 1.08,0 2.36,-0.17 3.86,-0.51 1.49,-0.34 3.02,-0.89 4.57,-1.65l3.28 7.11z"/>
   <path id="1" class="fil3" d="M2288.42 863.31c-4.92,0 -8.79,-1.39 -11.62,-4.18 -2.82,-2.8 -4.24,-6.57 -4.24,-11.34 0.02,-4.95 1.48,-8.83 4.41,-11.62 2.93,-2.79 6.88,-4.18 11.88,-4.18 4.92,0 8.77,1.39 11.55,4.17 2.78,2.78 4.17,6.48 4.17,11.12 0,4.94 -1.44,8.84 -4.32,11.72 -2.89,2.87 -6.83,4.31 -11.83,4.31zm0.31 -6.69c2.33,0 4.07,-0.77 5.23,-2.31 1.17,-1.54 1.75,-3.82 1.75,-6.86 0,-2.88 -0.59,-5.07 -1.76,-6.54 -1.18,-1.47 -2.93,-2.2 -5.27,-2.2 -2.3,0 -4.09,0.78 -5.35,2.36 -1.28,1.57 -1.92,3.78 -1.92,6.61 0,2.96 0.63,5.19 1.86,6.69 1.23,1.5 3.05,2.25 5.46,2.25z"/>
   <path id="2" class="fil3" d="M2339.49 862.6l-8.69 0 0 -16.66c0,-2.39 -0.43,-4.19 -1.29,-5.4 -0.87,-1.2 -2.16,-1.82 -3.89,-1.83 -1.69,0.01 -3.08,0.67 -4.17,1.95 -1.1,1.28 -1.64,2.91 -1.64,4.88l-0.03 17.06 -8.69 0 -0.02 -29.87 8.74 0 -0.03 4.75 0.14 0c1.1,-1.84 2.45,-3.22 4.06,-4.11 1.61,-0.91 3.46,-1.35 5.57,-1.35 3.3,-0.02 5.78,1 7.45,3.07 1.66,2.07 2.49,5.14 2.49,9.23l0 18.28z"/>
   <path id="3" class="fil3" d="M2365.59 862.12c-0.92,0.39 -1.94,0.7 -3.05,0.89 -1.12,0.21 -2.25,0.3 -3.39,0.3 -3.2,0 -5.6,-0.78 -7.22,-2.33 -1.62,-1.56 -2.44,-3.88 -2.44,-6.98l0 -14.81 -4.87 -0.03 -0.03 -6.43 4.9 0 0 -6.76 8.69 -2.47 -0.03 9.23 6.84 0 0 6.46 -6.81 -0.03 -0.03 14.3c0,1.22 0.23,2.09 0.71,2.65 0.48,0.55 1.22,0.81 2.23,0.79 0.51,0.02 1,-0.03 1.47,-0.18 0.46,-0.15 0.89,-0.31 1.29,-0.5l1.74 5.9z"/>
   <path id="4" class="fil3" d="M2389.14 839.99c-0.38,-0.1 -0.76,-0.17 -1.15,-0.22 -0.39,-0.04 -0.84,-0.06 -1.32,-0.06 -2.39,0 -4.17,0.75 -5.38,2.25 -1.21,1.52 -1.81,3.61 -1.81,6.28l0 14.36 -8.71 0 0 -29.87 8.71 0 0 5.58 0.12 0c0.72,-2.04 1.74,-3.56 3.06,-4.59 1.32,-1.02 2.93,-1.54 4.83,-1.54 0.45,0 0.89,0.04 1.31,0.1 0.41,0.07 0.86,0.14 1.34,0.24l-1 7.47z"/>
   <path id="5" class="fil3" d="M2408.59 863.31c-4.92,0 -8.79,-1.39 -11.62,-4.18 -2.83,-2.8 -4.25,-6.57 -4.25,-11.34 0.02,-4.95 1.49,-8.83 4.42,-11.62 2.92,-2.79 6.88,-4.18 11.88,-4.18 4.92,0 8.77,1.39 11.55,4.17 2.78,2.78 4.17,6.48 4.17,11.12 0,4.94 -1.44,8.84 -4.33,11.72 -2.88,2.87 -6.82,4.31 -11.82,4.31zm0.31 -6.69c2.33,0 4.06,-0.77 5.23,-2.31 1.17,-1.54 1.75,-3.82 1.75,-6.86 0,-2.88 -0.59,-5.07 -1.77,-6.54 -1.17,-1.47 -2.92,-2.2 -5.27,-2.2 -2.29,0 -4.08,0.78 -5.34,2.36 -1.28,1.57 -1.92,3.78 -1.92,6.61 0,2.96 0.62,5.19 1.86,6.69 1.23,1.5 3.05,2.25 5.46,2.25z"/>
   <polygon id="6" class="fil3" points="2431.26,862.6 2431.26,819.43 2439.97,819.43 2439.97,862.6 "/>
   <path id="7" class="fil3" d="M2472.76 862.6l-8.26 0 0 -4.32 -0.11 0c-1.01,1.67 -2.26,2.92 -3.77,3.77 -1.49,0.84 -3.19,1.26 -5.09,1.26 -2.66,0 -4.9,-0.79 -6.73,-2.37 -1.82,-1.58 -2.73,-3.8 -2.73,-6.63 0,-2.77 0.9,-5.02 2.72,-6.75 1.81,-1.73 4.62,-2.85 8.42,-3.36l7.35 -0.99 0 -0.58c0,-1.53 -0.47,-2.69 -1.43,-3.47 -0.95,-0.78 -2.25,-1.16 -3.92,-1.16 -1.28,0 -2.65,0.21 -4.13,0.64 -1.47,0.43 -2.94,1.1 -4.42,2.03l-3.11 -5.15c1.96,-1.22 3.94,-2.11 5.94,-2.69 2,-0.56 4.18,-0.84 6.51,-0.84 4.35,0 7.57,1.04 9.64,3.13 2.08,2.09 3.12,5.24 3.12,9.46l0 18.02zm-8.2 -12.13l0 -2.14 -5.67 0.71c-1.6,0.23 -2.79,0.7 -3.56,1.41 -0.78,0.72 -1.17,1.67 -1.17,2.87 0,1.1 0.38,2 1.14,2.7 0.76,0.71 1.79,1.06 3.08,1.06 1.82,0 3.3,-0.63 4.45,-1.89 1.15,-1.25 1.73,-2.83 1.73,-4.72z"/>
   <path id="8" class="fil3" d="M2500.61 858.38c-1.06,1.64 -2.37,2.87 -3.93,3.7 -1.55,0.82 -3.37,1.23 -5.44,1.23 -3.71,0 -6.72,-1.32 -9.01,-3.95 -2.29,-2.64 -3.44,-6.32 -3.44,-11.03 0,-4.94 1.27,-8.9 3.8,-11.87 2.52,-2.99 5.81,-4.47 9.87,-4.47 1.95,0 3.59,0.35 4.95,1.05 1.35,0.7 2.42,1.76 3.2,3.16l0.12 0 0 -16.77 8.72 0 0 43.17 -8.72 0 0 -4.22 -0.12 0zm-12.96 -10.3c0,2.71 0.59,4.81 1.75,6.31 1.18,1.48 2.78,2.23 4.83,2.23 1.98,0 3.58,-0.77 4.82,-2.32 1.23,-1.55 1.85,-3.59 1.85,-6.11l0 -2.5c0,-2 -0.59,-3.66 -1.79,-4.99 -1.18,-1.33 -2.71,-1.99 -4.59,-1.99 -2.14,0 -3.82,0.82 -5.04,2.48 -1.22,1.67 -1.83,3.96 -1.83,6.89z"/>
   <path id="9" class="fil3" d="M2531.8 863.31c-4.92,0 -8.79,-1.39 -11.62,-4.18 -2.83,-2.8 -4.25,-6.57 -4.25,-11.34 0.02,-4.95 1.49,-8.83 4.42,-11.62 2.92,-2.79 6.88,-4.18 11.88,-4.18 4.92,0 8.77,1.39 11.55,4.17 2.78,2.78 4.17,6.48 4.17,11.12 0,4.94 -1.44,8.84 -4.33,11.72 -2.88,2.87 -6.82,4.31 -11.82,4.31zm0.31 -6.69c2.33,0 4.07,-0.77 5.23,-2.31 1.17,-1.54 1.75,-3.82 1.75,-6.86 0,-2.88 -0.59,-5.07 -1.77,-6.54 -1.17,-1.47 -2.92,-2.2 -5.27,-2.2 -2.29,0 -4.08,0.78 -5.34,2.36 -1.28,1.57 -1.92,3.78 -1.92,6.61 0,2.96 0.62,5.19 1.86,6.69 1.23,1.5 3.05,2.25 5.46,2.25z"/>
   <path id="10" class="fil3" d="M2572.84 839.99c-0.38,-0.1 -0.76,-0.17 -1.15,-0.22 -0.39,-0.04 -0.84,-0.06 -1.32,-0.06 -2.38,0 -4.17,0.75 -5.38,2.25 -1.2,1.52 -1.81,3.61 -1.81,6.28l0 14.36 -8.71 0 0 -29.87 8.71 0 0 5.58 0.12 0c0.72,-2.04 1.74,-3.56 3.06,-4.59 1.33,-1.02 2.93,-1.54 4.84,-1.54 0.44,0 0.88,0.04 1.3,0.1 0.42,0.07 0.86,0.14 1.34,0.24l-1 7.47z"/>
   <path id="11" class="fil3" d="M2626.08 860.46c-2.15,1 -4.23,1.71 -6.25,2.17 -2.03,0.46 -4.21,0.68 -6.57,0.68 -6.35,0 -11.33,-1.78 -14.98,-5.36 -3.65,-3.56 -5.47,-8.65 -5.47,-15.26 0,-6.22 1.99,-11.38 5.97,-15.48 3.97,-4.09 9.22,-6.13 15.73,-6.13 2.2,0 4.18,0.16 5.93,0.49 1.75,0.34 3.53,0.86 5.35,1.58l-2.74 7.18c-1.38,-0.55 -2.73,-0.95 -4.04,-1.21 -1.3,-0.25 -2.72,-0.38 -4.24,-0.38 -3.44,0 -6.4,1.2 -8.88,3.6 -2.48,2.4 -3.71,5.65 -3.71,9.73 0,4.21 1.09,7.5 3.26,9.88 2.17,2.37 5.15,3.56 8.93,3.56 1.08,0 2.36,-0.17 3.86,-0.51 1.49,-0.34 3.02,-0.89 4.57,-1.65l3.28 7.11z"/>
   <path class="fil4" d="M1609.94 649.69l-0.09 -0.03 -0.03 18.37 -3.41 0 -0.03 -43.29 3.47 0 -0.03 5.83 0.15 0c1.1,-2.12 2.59,-3.75 4.5,-4.88 1.9,-1.13 4.03,-1.69 6.38,-1.69 3.8,0 6.76,1.32 8.9,3.97 2.13,2.65 3.2,6.22 3.2,10.72 0.02,4.98 -1.18,8.99 -3.62,12.06 -2.44,3.05 -5.71,4.57 -9.79,4.57 -2.12,0 -3.99,-0.46 -5.6,-1.39 -1.6,-0.93 -2.94,-2.35 -4,-4.24zm-0.09 -11.49l0 3.91c0,2.81 0.9,5.21 2.69,7.21 1.77,1.99 4.09,2.99 6.94,2.99 3,0 5.41,-1.23 7.22,-3.7 1.82,-2.47 2.72,-5.79 2.72,-9.95 0,-3.59 -0.84,-6.43 -2.51,-8.52 -1.69,-2.08 -3.93,-3.12 -6.74,-3.1 -3.23,-0.02 -5.77,1.07 -7.6,3.28 -1.83,2.21 -2.74,4.83 -2.72,7.88z"/>
   <polygon id="1" class="fil4" points="1640.88,654.62 1640.88,611.44 1644.32,611.44 1644.32,654.62 "/>
   <path id="2" class="fil4" d="M1675.05 654.62l-3.41 0 0 -5.53 -0.15 0c-0.98,1.98 -2.33,3.5 -4.02,4.6 -1.7,1.09 -3.63,1.63 -5.78,1.63 -2.85,0 -5.1,-0.79 -6.78,-2.4 -1.67,-1.6 -2.5,-3.67 -2.5,-6.2 0,-2.58 0.83,-4.68 2.5,-6.29 1.66,-1.61 4.32,-2.68 8.01,-3.22l8.72 -1.28 0 -0.86c-0.08,-2.73 -0.71,-4.76 -1.91,-6.07 -1.2,-1.32 -2.9,-1.99 -5.13,-1.99 -1.69,0 -3.28,0.31 -4.78,0.92 -1.48,0.6 -2.89,1.53 -4.22,2.79l-2.08 -2.23c1.6,-1.52 3.32,-2.64 5.17,-3.38 1.85,-0.74 3.88,-1.11 6.08,-1.11 3.4,0 5.96,0.94 7.69,2.83 1.73,1.88 2.59,4.68 2.59,8.36l0 19.43zm-3.41 -12.79l0 -2.94 -7.87 1.11c-2.85,0.42 -4.87,1.12 -6.06,2.11 -1.2,0.98 -1.79,2.45 -1.79,4.39 0,1.77 0.56,3.19 1.69,4.26 1.13,1.07 2.64,1.61 4.54,1.61 2.77,0 5.04,-0.99 6.82,-2.97 1.77,-1.97 2.67,-4.5 2.67,-7.57z"/>
   <path id="3" class="fil4" d="M1708.09 654.62l-3.42 0 0 -17.29c0,-3.42 -0.63,-5.99 -1.88,-7.71 -1.25,-1.72 -3.12,-2.59 -5.61,-2.61 -2.69,0.02 -4.91,1.02 -6.65,3.01 -1.73,1.98 -2.61,4.46 -2.61,7.42l-0.03 17.18 -3.41 0 -0.03 -29.88 3.47 0 -0.03 5.27 0.15 -0.03c1.1,-1.98 2.49,-3.46 4.16,-4.46 1.67,-0.99 3.64,-1.49 5.89,-1.49 3.25,0 5.73,1.06 7.44,3.2 1.71,2.14 2.57,5.19 2.59,9.16l-0.03 18.23z"/>
   <path id="4" class="fil4" d="M1719.17 618.04c-0.74,0 -1.37,-0.26 -1.89,-0.8 -0.52,-0.52 -0.78,-1.16 -0.78,-1.9 0,-0.74 0.26,-1.36 0.78,-1.87 0.52,-0.51 1.15,-0.76 1.89,-0.76 0.81,0 1.46,0.25 1.98,0.76 0.53,0.51 0.79,1.13 0.79,1.87 0,0.74 -0.26,1.38 -0.79,1.9 -0.52,0.54 -1.17,0.8 -1.98,0.8zm1.74 36.58l-3.44 0 0 -29.88 3.44 0 0 29.88z"/>
   <path id="5" class="fil4" d="M1743.39 614.26c-0.4,-0.12 -0.79,-0.21 -1.16,-0.26 -0.37,-0.06 -0.78,-0.08 -1.21,-0.06 -1.6,-0.02 -2.79,0.46 -3.57,1.44 -0.79,0.98 -1.19,2.48 -1.19,4.49l0 4.87 7.1 0 0 3.04 -7.1 -0.03 0 26.87 -3.41 0 -0.03 -26.84 -5.13 -0.03 0 -3.01 5.16 0 0 -5.05c0,-2.87 0.75,-5.04 2.26,-6.53 1.51,-1.49 3.5,-2.24 5.99,-2.24 0.58,0 1.09,0.03 1.56,0.09 0.47,0.06 0.95,0.15 1.47,0.28l-0.74 2.97zm5.15 3.67c-0.76,0 -1.38,-0.26 -1.87,-0.77 -0.48,-0.51 -0.73,-1.13 -0.73,-1.85 -0.02,-0.7 0.23,-1.3 0.73,-1.81 0.51,-0.51 1.12,-0.75 1.84,-0.73 0.76,-0.02 1.4,0.22 1.91,0.72 0.51,0.49 0.77,1.1 0.77,1.82 -0.02,0.72 -0.28,1.34 -0.78,1.85 -0.51,0.51 -1.13,0.77 -1.87,0.77zm1.71 36.69l-3.45 0 -0.03 -29.88 3.48 0 0 29.88z"/>
   <path id="6" class="fil4" d="M1780.07 652.88c-1.4,0.87 -2.79,1.5 -4.17,1.88 -1.38,0.38 -2.85,0.56 -4.42,0.56 -4.13,0 -7.48,-1.35 -10.05,-4.07 -2.57,-2.71 -3.86,-6.38 -3.86,-10.99 0,-4.81 1.38,-8.72 4.16,-11.74 2.77,-3.01 6.4,-4.52 10.88,-4.52 1.31,0 2.59,0.14 3.83,0.45 1.25,0.31 2.51,0.79 3.81,1.48l-1.4 2.68c-1.08,-0.57 -2.13,-0.97 -3.14,-1.23 -1.03,-0.24 -2.11,-0.37 -3.27,-0.37 -3.49,0 -6.25,1.21 -8.28,3.62 -2.02,2.41 -3.03,5.52 -3.03,9.31 0,3.84 0.97,6.86 2.92,9.05 1.95,2.19 4.5,3.29 7.65,3.29 1.16,0 2.28,-0.15 3.39,-0.45 1.1,-0.31 2.23,-0.83 3.39,-1.57l1.59 2.62z"/>
   <path id="7" class="fil4" d="M1808.01 654.62l-3.41 0 0 -5.53 -0.15 0c-0.98,1.98 -2.33,3.5 -4.02,4.6 -1.7,1.09 -3.63,1.63 -5.78,1.63 -2.84,0 -5.1,-0.79 -6.77,-2.4 -1.67,-1.6 -2.51,-3.67 -2.51,-6.2 0,-2.58 0.84,-4.68 2.5,-6.29 1.66,-1.61 4.32,-2.68 8.01,-3.22l8.72 -1.28 0 -0.86c-0.08,-2.73 -0.71,-4.76 -1.91,-6.07 -1.2,-1.32 -2.9,-1.99 -5.13,-1.99 -1.69,0 -3.28,0.31 -4.77,0.92 -1.49,0.6 -2.9,1.53 -4.23,2.79l-2.07 -2.23c1.59,-1.52 3.31,-2.64 5.16,-3.38 1.86,-0.74 3.88,-1.11 6.09,-1.11 3.39,0 5.96,0.94 7.69,2.83 1.73,1.88 2.58,4.68 2.58,8.36l0 19.43zm-3.41 -12.79l0 -2.94 -7.87 1.11c-2.84,0.42 -4.87,1.12 -6.06,2.11 -1.2,0.98 -1.79,2.45 -1.79,4.39 0,1.77 0.56,3.19 1.69,4.26 1.13,1.07 2.64,1.61 4.54,1.61 2.77,0 5.05,-0.99 6.83,-2.97 1.77,-1.97 2.66,-4.5 2.66,-7.57z"/>
   <path id="8" class="fil4" d="M1838.4 649.32c-1.04,1.89 -2.47,3.37 -4.29,4.43 -1.83,1.05 -3.93,1.57 -6.3,1.57 -3.71,0 -6.7,-1.33 -9.01,-4.01 -2.29,-2.67 -3.44,-6.36 -3.44,-11.05 0,-4.87 1.27,-8.78 3.78,-11.78 2.53,-2.99 5.84,-4.48 9.92,-4.48 2.17,0 4.03,0.44 5.58,1.32 1.56,0.89 2.81,2.2 3.76,3.95l0.12 0 0 -17.83 3.44 0 0 43.18 -3.44 0 0 -5.3 -0.12 0zm-19.48 -9.29c0,3.87 0.88,6.89 2.64,9.04 1.76,2.16 4.05,3.24 6.88,3.24 3.15,0 5.62,-1.02 7.4,-3.06 1.79,-2.04 2.68,-4.56 2.68,-7.57l0 -5.15c0,-2.66 -0.85,-4.91 -2.56,-6.75 -1.69,-1.84 -3.93,-2.77 -6.72,-2.77 -3.05,0 -5.53,1.16 -7.44,3.46 -1.92,2.31 -2.88,5.5 -2.88,9.56z"/>
   <path id="9" class="fil4" d="M1864.16 655.32c-4.4,0 -7.88,-1.41 -10.44,-4.25 -2.58,-2.84 -3.86,-6.56 -3.86,-11.15 0,-4.99 1.34,-8.89 4.02,-11.69 2.7,-2.8 6.26,-4.21 10.73,-4.23 4.33,0 7.74,1.38 10.21,4.15 2.48,2.77 3.72,6.61 3.72,11.51 0,4.71 -1.3,8.5 -3.87,11.37 -2.59,2.87 -6.09,4.29 -10.51,4.29zm0.16 -3.01c3.43,0 6.06,-1.11 7.91,-3.32 1.85,-2.21 2.78,-5.31 2.78,-9.3 0,-4.08 -0.93,-7.21 -2.76,-9.4 -1.85,-2.19 -4.46,-3.28 -7.84,-3.28 -3.36,0 -6.04,1.14 -8.02,3.43 -1.98,2.27 -2.97,5.42 -2.97,9.45 0,3.78 0.98,6.79 2.94,9.05 1.97,2.24 4.62,3.37 7.96,3.37z"/>
   <path id="10" class="fil4" d="M1900.62 627.75c-0.44,-0.14 -0.86,-0.26 -1.26,-0.34 -0.4,-0.08 -0.81,-0.12 -1.25,-0.12 -2.51,0 -4.51,1.18 -6.01,3.52 -1.51,2.35 -2.26,5.46 -2.26,9.34l0 14.47 -3.38 0 0 -29.88 3.38 0 0 6.38 0.12 0c0.68,-2.21 1.76,-3.9 3.22,-5.1 1.46,-1.19 3.19,-1.8 5.18,-1.8 0.52,0 0.99,0.03 1.44,0.09 0.45,0.06 0.9,0.15 1.32,0.28l-0.5 3.16z"/>
   <path id="11" class="fil4" d="M1943.94 649.32c-1.04,1.89 -2.48,3.37 -4.3,4.43 -1.83,1.05 -3.93,1.57 -6.3,1.57 -3.7,0 -6.7,-1.33 -9,-4.01 -2.29,-2.67 -3.44,-6.36 -3.44,-11.05 0,-4.87 1.26,-8.78 3.78,-11.78 2.53,-2.99 5.83,-4.48 9.92,-4.48 2.16,0 4.02,0.44 5.58,1.32 1.55,0.89 2.81,2.2 3.76,3.95l0.12 0 0 -17.83 3.44 0 0 43.18 -3.44 0 0 -5.3 -0.12 0zm-19.48 -9.29c0,3.87 0.87,6.89 2.63,9.04 1.76,2.16 4.06,3.24 6.89,3.24 3.15,0 5.61,-1.02 7.39,-3.06 1.79,-2.04 2.69,-4.56 2.69,-7.57l0 -5.15c0,-2.66 -0.86,-4.91 -2.56,-6.75 -1.69,-1.84 -3.94,-2.77 -6.73,-2.77 -3.04,0 -5.52,1.16 -7.44,3.46 -1.91,2.31 -2.87,5.5 -2.87,9.56z"/>
   <path id="12" class="fil4" d="M1980.74 640.15l-21.76 0c0.04,4.12 1,7.17 2.91,9.17 1.89,1.99 4.41,2.99 7.54,2.99 1.47,0 2.91,-0.23 4.32,-0.7 1.42,-0.47 2.83,-1.22 4.23,-2.26l1.77 2.48c-1.64,1.19 -3.32,2.08 -5.03,2.64 -1.72,0.57 -3.62,0.85 -5.69,0.85 -4,0 -7.27,-1.29 -9.81,-3.86 -2.53,-2.59 -3.81,-6.51 -3.83,-11.77 0,-4.54 1.26,-8.28 3.76,-11.24 2.5,-2.95 5.76,-4.42 9.77,-4.42 3.78,0 6.69,1.28 8.75,3.85 2.05,2.58 3.07,6.12 3.07,10.64l0 1.63zm-3.56 -2.97c-0.1,-3.2 -0.87,-5.7 -2.32,-7.48 -1.45,-1.79 -3.47,-2.69 -6.02,-2.69 -2.63,0 -4.8,0.89 -6.56,2.67 -1.74,1.78 -2.81,4.28 -3.21,7.5l18.11 0z"/>
   <path id="13" class="fil4" d="M2017.43 654.1c-0.71,0.38 -1.44,0.66 -2.21,0.85 -0.76,0.17 -1.63,0.27 -2.57,0.27 -2.09,0 -3.74,-0.64 -4.93,-1.93 -1.2,-1.28 -1.79,-3.15 -1.77,-5.6l-0.03 -19.91 -5.27 -0.03 0 -3.01 5.3 0 0 -7.21 3.42 -1.14 -0.03 8.35 7.8 0 0 3.04 -7.77 -0.03 -0.03 19.52c0,1.75 0.32,3.01 0.98,3.8 0.65,0.78 1.6,1.18 2.83,1.18 0.67,0 1.28,-0.08 1.81,-0.24 0.55,-0.17 1.03,-0.38 1.47,-0.64l1 2.73z"/>
   <path id="14" class="fil4" d="M2044.51 654.62l-3.42 0 0 -5.53 -0.14 0c-0.98,1.98 -2.34,3.5 -4.03,4.6 -1.7,1.09 -3.62,1.63 -5.77,1.63 -2.85,0 -5.11,-0.79 -6.78,-2.4 -1.67,-1.6 -2.51,-3.67 -2.51,-6.2 0,-2.58 0.84,-4.68 2.5,-6.29 1.66,-1.61 4.33,-2.68 8.01,-3.22l8.72 -1.28 0 -0.86c-0.07,-2.73 -0.71,-4.76 -1.9,-6.07 -1.21,-1.32 -2.91,-1.99 -5.14,-1.99 -1.69,0 -3.27,0.31 -4.77,0.92 -1.49,0.6 -2.9,1.53 -4.23,2.79l-2.07 -2.23c1.59,-1.52 3.32,-2.64 5.16,-3.38 1.86,-0.74 3.88,-1.11 6.09,-1.11 3.39,0 5.96,0.94 7.69,2.83 1.73,1.88 2.59,4.68 2.59,8.36l0 19.43zm-3.42 -12.79l0 -2.94 -7.86 1.11c-2.85,0.42 -4.87,1.12 -6.07,2.11 -1.19,0.98 -1.79,2.45 -1.79,4.39 0,1.77 0.57,3.19 1.69,4.26 1.13,1.07 2.65,1.61 4.54,1.61 2.77,0 5.05,-0.99 6.83,-2.97 1.77,-1.97 2.66,-4.5 2.66,-7.57z"/>
   <path id="15" class="fil4" d="M2068.09 627.75c-0.44,-0.14 -0.85,-0.26 -1.25,-0.34 -0.4,-0.08 -0.82,-0.12 -1.26,-0.12 -2.5,0 -4.51,1.18 -6,3.52 -1.51,2.35 -2.26,5.46 -2.26,9.34l0 14.47 -3.38 0 0 -29.88 3.38 0 0 6.38 0.12 0c0.68,-2.21 1.76,-3.9 3.22,-5.1 1.45,-1.19 3.18,-1.8 5.18,-1.8 0.51,0 0.99,0.03 1.44,0.09 0.44,0.06 0.89,0.15 1.32,0.28l-0.51 3.16z"/>
   <path id="16" class="fil4" d="M2096.57 640.15l-21.76 0c0.04,4.12 1,7.17 2.91,9.17 1.89,1.99 4.41,2.99 7.54,2.99 1.47,0 2.91,-0.23 4.32,-0.7 1.42,-0.47 2.83,-1.22 4.23,-2.26l1.77 2.48c-1.64,1.19 -3.32,2.08 -5.03,2.64 -1.72,0.57 -3.62,0.85 -5.69,0.85 -4,0 -7.27,-1.29 -9.81,-3.86 -2.53,-2.59 -3.81,-6.51 -3.83,-11.77 0,-4.54 1.26,-8.28 3.77,-11.24 2.49,-2.95 5.75,-4.42 9.76,-4.42 3.78,0 6.7,1.28 8.75,3.85 2.05,2.58 3.07,6.12 3.07,10.64l0 1.63zm-3.56 -2.97c-0.1,-3.2 -0.87,-5.7 -2.32,-7.48 -1.45,-1.79 -3.46,-2.69 -6.02,-2.69 -2.63,0 -4.8,0.89 -6.55,2.67 -1.75,1.78 -2.82,4.28 -3.22,7.5l18.11 0z"/>
   <path id="17" class="fil4" d="M2125.1 654.62l-3.41 0 0 -5.53 -0.15 0c-0.98,1.98 -2.33,3.5 -4.02,4.6 -1.7,1.09 -3.63,1.63 -5.77,1.63 -2.85,0 -5.11,-0.79 -6.78,-2.4 -1.67,-1.6 -2.51,-3.67 -2.51,-6.2 0,-2.58 0.84,-4.68 2.5,-6.29 1.66,-1.61 4.32,-2.68 8.01,-3.22l8.72 -1.28 0 -0.86c-0.08,-2.73 -0.71,-4.76 -1.91,-6.07 -1.2,-1.32 -2.9,-1.99 -5.13,-1.99 -1.69,0 -3.27,0.31 -4.77,0.92 -1.49,0.6 -2.9,1.53 -4.23,2.79l-2.07 -2.23c1.59,-1.52 3.31,-2.64 5.16,-3.38 1.86,-0.74 3.88,-1.11 6.09,-1.11 3.39,0 5.96,0.94 7.69,2.83 1.73,1.88 2.58,4.68 2.58,8.36l0 19.43zm-3.41 -12.79l0 -2.94 -7.87 1.11c-2.84,0.42 -4.87,1.12 -6.06,2.11 -1.2,0.98 -1.79,2.45 -1.79,4.39 0,1.77 0.56,3.19 1.69,4.26 1.13,1.07 2.65,1.61 4.54,1.61 2.77,0 5.05,-0.99 6.83,-2.97 1.77,-1.97 2.66,-4.5 2.66,-7.57z"/>
   <path id="18" class="fil4" d="M2131.88 652.48l1.71 -2.77c1.08,0.76 2.26,1.39 3.52,1.87 1.26,0.49 2.66,0.73 4.2,0.73 2.31,0 4.06,-0.5 5.21,-1.5 1.16,-1 1.74,-2.37 1.74,-4.11 0,-1.35 -0.46,-2.48 -1.38,-3.39 -0.92,-0.92 -2.68,-1.76 -5.29,-2.54 -3.28,-0.96 -5.56,-2.14 -6.81,-3.5 -1.27,-1.37 -1.9,-3.04 -1.9,-5.02 0,-2.45 0.9,-4.43 2.67,-5.95 1.79,-1.51 4.17,-2.27 7.13,-2.27 1.42,0 2.81,0.17 4.15,0.52 1.35,0.35 2.72,0.95 4.11,1.78l-1.63 2.71c-1.08,-0.67 -2.18,-1.17 -3.3,-1.51 -1.12,-0.34 -2.27,-0.52 -3.45,-0.52 -2.03,0 -3.59,0.45 -4.7,1.33 -1.1,0.88 -1.64,2.07 -1.64,3.54 0,1.45 0.45,2.56 1.38,3.34 0.91,0.78 2.61,1.55 5.08,2.3 3.11,0.96 5.38,2.1 6.79,3.44 1.42,1.34 2.13,3.15 2.13,5.42 0,2.76 -0.93,4.94 -2.75,6.54 -1.84,1.61 -4.36,2.4 -7.57,2.4 -1.73,0 -3.38,-0.23 -4.96,-0.7 -1.57,-0.48 -3.05,-1.19 -4.44,-2.14z"/>
   <path class="fil5" d="M1329.26 946.1l0 130.99 -8 0 0 -130.99 8 0zm552.73 0l0 130.99 -8 0 0 -130.99 8 0zm-22 22.5l18 -31 18 31 1 2 -0.5 1.5 -0.5 1.5 -1.5 1 -1.5 0.5 -1.5 0 -1.5 -1 -1 -1 -14.5 -25 7 0 -14.5 25 -1 1 -1.5 1 -1.5 0 -1.5 -0.5 -1.5 -1 -0.5 -1.5 0 -1.5 0.5 -2 0 0zm36 85.5l-18 30.99 -18 -30.99 -0.5 -1.5 0 -1.5 0.5 -1.5 1.5 -1 1.5 -0.5 1.5 0 1.5 0.5 1 1.5 14.5 24.99 -7 0 14.5 -24.99 1 -1.5 1.5 -0.5 1.5 0 1.5 0.5 1.5 1 0.5 1.5 0.5 1.5 -1 1.5 0 0zm538.98 -108l0 130.99 -8.5 0 0 -130.99 8.5 0zm-22.5 23l18 -31.5 18.5 31.5 0.5 1.5 0 1.5 -1 1.5 -1 1 -1.5 0.5 -2 0 -1.5 -1 -1 -1 -14.5 -25 7 0 -14.5 25 -1 1 -1.5 1 -1.5 0 -1.5 -0.5 -1.5 -1 -0.5 -1.5 0 -1.5 0.5 -1.5 0 0zm36.5 85l-18.5 31.49 -18 -31.49 -0.5 -1.5 0 -1.5 0.5 -1.5 1.5 -1 1.5 -0.5 1.5 0 1.5 0.5 1 1.5 14.5 24.99 -7 0 14.5 -24.99 1 -1.5 1.5 -0.5 2 0 1.5 0.5 1 1 1 1.5 0 1.5 -0.5 1.5 0 0zm-1141.71 -85.5l18 -31 18 31 1 2 -0.5 1.5 -0.5 1.5 -1.5 1 -1.5 0.5 -1.5 0 -1.5 -1 -1 -1 -14.5 -25 7 0 -14.5 25 -1 1 -1.5 1 -1.5 0 -1.5 -0.5 -1.5 -1 -0.5 -1.5 0 -1.5 0.5 -2 0 0zm36 85.5l-18 30.99 -18 -30.99 -0.5 -1.5 0 -1.5 0.5 -1.5 1.5 -1 1.5 -0.5 1.5 0 1.5 0.5 1 1.5 14.5 24.99 -7 0 14.5 -24.99 1 -1.5 1.5 -0.5 1.5 0 1.5 0.5 1.5 1 0.5 1.5 0.5 1.5 -1 1.5 0 0z"/>
   <path class="fil6" d="M920.02 594.61l44.5 0 0 -4 -4 4 40.5 0 0 -8 -45 0 0 4 4.5 -4 -40.5 0 0 8zm0 256.49l44.5 0 0 -4 -4 4 40.5 0 0 -8 -45 0 0 4 4.5 -4 -40.5 0 0 8zm22.5 -22l-31 18 31 18 2 1 1.5 -0.5 1.5 -0.5 1 -1.5 0.5 -1.5 0 -1.5 -1 -1.5 -1 -1 -25 -14.5 0 7 25 -14.5 0 0 1 -1 1 -1.5 0 -1.5 -0.5 -1.5 -1 -1.5 -1.5 -0.5 -1.5 0 -2 0.5 0 0zm35.5 36l31 -18 -31 -18 -1.5 -0.5 -1.5 0 -1.5 0.5 -1 1.5 -1 1.5 0.5 1.5 0.5 1.5 1.5 1 25 14.5 0 -7 -25 14.5 0 0 -1.5 1 -0.5 1.5 -0.5 1.5 1 1.5 1 1.5 1.5 0.5 1.5 0.5 1.5 -1 0 0zm-35.5 -292.49l-31 18 31 18 2 1 1.5 -0.5 1.5 -0.5 1 -1.5 0.5 -1.5 0 -1.5 -1 -1.5 -1 -1 -25 -14.5 0 7 25 -14.5 0 0 1 -1 1 -1.5 0 -1.5 -0.5 -1.5 -1 -1.5 -1.5 -0.5 -1.5 0 -2 0.5 0 0zm35.5 36l31 -18 -31 -18 -1.5 -0.5 -1.5 0 -1.5 0.5 -1 1.5 -1 1.5 0.5 1.5 0.5 1.5 1.5 1 25 14.5 0 -7 -25 14.5 0 0 -1.5 1 -0.5 1.5 -0.5 1.5 1 1.5 1 1.5 1.5 0.5 1.5 0.5 1.5 -1 0 0z"/>
   <polygon class="fil7 str1" points="437.04,500.12 437.04,681.61 911.52,681.61 911.52,500.12 "/>
   <path class="fil3" d="M507.37 590.68l0 15.43 -10.22 0 0.03 -46.68 16.24 0c5.81,0 10.19,1.27 13.11,3.82 2.94,2.53 4.4,6.33 4.4,11.38 0,4.8 -1.67,8.67 -5.03,11.63 -3.35,2.95 -7.82,4.42 -13.42,4.42l-5.11 0zm0 -23.37l0 15.59 4.23 0.03c2.86,0 5.01,-0.66 6.46,-1.99 1.44,-1.32 2.15,-3.31 2.13,-5.95 0,-2.56 -0.71,-4.48 -2.13,-5.76 -1.43,-1.28 -3.56,-1.92 -6.4,-1.92l-4.29 0z"/>
   <path id="1" class="fil3" d="M558.53 580.27c-0.43,-0.11 -0.86,-0.19 -1.31,-0.25 -0.44,-0.05 -0.95,-0.07 -1.51,-0.07 -2.72,0 -4.76,0.85 -6.14,2.57 -1.38,1.74 -2.07,4.12 -2.07,7.18l0 16.41 -9.95 0 0 -34.14 9.95 0 0 6.38 0.13 0c0.83,-2.33 1.99,-4.07 3.5,-5.25 1.52,-1.17 3.35,-1.76 5.53,-1.76 0.51,0 1.01,0.05 1.48,0.12 0.48,0.07 0.99,0.16 1.54,0.27l-1.15 8.54z"/>
   <path id="2" class="fil3" d="M580.77 606.92c-5.62,0 -10.05,-1.59 -13.28,-4.77 -3.23,-3.21 -4.86,-7.52 -4.86,-12.96 0.03,-5.67 1.7,-10.1 5.05,-13.29 3.34,-3.19 7.86,-4.78 13.58,-4.78 5.62,0 10.02,1.59 13.2,4.77 3.17,3.18 4.76,7.41 4.76,12.71 0,5.65 -1.64,10.1 -4.94,13.39 -3.3,3.29 -7.8,4.93 -13.51,4.93zm0.35 -7.64c2.66,0 4.65,-0.88 5.98,-2.65 1.33,-1.75 2,-4.36 2,-7.84 0,-3.29 -0.68,-5.79 -2.02,-7.47 -1.35,-1.67 -3.35,-2.52 -6.02,-2.52 -2.63,0 -4.67,0.9 -6.12,2.7 -1.45,1.8 -2.18,4.32 -2.18,7.56 0,3.39 0.71,5.93 2.12,7.64 1.41,1.72 3.49,2.58 6.24,2.58z"/>
   <path id="3" class="fil3" d="M633.89 603.87c-1.73,1.06 -3.5,1.83 -5.29,2.32 -1.79,0.49 -3.73,0.73 -5.84,0.73 -5.69,0 -10.13,-1.57 -13.31,-4.73 -3.19,-3.16 -4.79,-7.27 -4.79,-12.32 0,-5.79 1.71,-10.37 5.13,-13.73 3.41,-3.35 7.94,-5.02 13.59,-5.02 2.08,0 3.92,0.2 5.51,0.61 1.6,0.42 3.19,1.07 4.78,1.96l-3.71 6.73c-1.03,-0.57 -2.03,-1 -3,-1.26 -0.98,-0.26 -2.05,-0.39 -3.19,-0.39 -2.82,0 -5.03,0.91 -6.61,2.73 -1.58,1.82 -2.38,4.39 -2.38,7.69 0,3.17 0.85,5.63 2.55,7.42 1.71,1.78 3.84,2.67 6.4,2.67 0.76,0 1.7,-0.16 2.84,-0.48 1.12,-0.31 2.26,-0.82 3.41,-1.54l3.91 6.61z"/>
   <path id="4" class="fil3" d="M670.44 591.82l-22.48 0c0.16,2.65 1.03,4.63 2.56,5.92 1.55,1.31 3.68,1.96 6.41,1.96 0.98,0 2.33,-0.29 4.05,-0.87 1.71,-0.57 3.39,-1.46 5.04,-2.67l4.36 5.75c-2.3,1.74 -4.66,3.01 -7.08,3.81 -2.42,0.8 -5.07,1.2 -7.96,1.2 -5.46,0 -9.71,-1.52 -12.73,-4.59 -3.01,-3.05 -4.53,-7.32 -4.55,-12.78 0,-5.47 1.6,-9.92 4.8,-13.32 3.2,-3.41 7.25,-5.11 12.16,-5.11 4.7,0 8.46,1.44 11.25,4.31 2.79,2.88 4.17,7 4.17,12.39l0 4zm-9.27 -6.22c0,-2.71 -0.53,-4.67 -1.58,-5.88 -1.06,-1.2 -2.6,-1.8 -4.63,-1.8 -1.8,0 -3.36,0.69 -4.66,2.07 -1.3,1.38 -2.1,3.24 -2.38,5.61l13.25 0z"/>
   <path id="5" class="fil3" d="M674.16 603.25l4.1 -6.67c1.14,0.89 2.51,1.64 4.08,2.25 1.57,0.63 3.32,0.94 5.23,0.94 1.45,0 2.64,-0.27 3.56,-0.8 0.92,-0.54 1.38,-1.35 1.38,-2.43 0,-0.88 -0.35,-1.58 -1.08,-2.1 -0.71,-0.51 -2.03,-0.97 -3.96,-1.38 -4.24,-0.91 -7.27,-2.18 -9.11,-3.81 -1.85,-1.63 -2.77,-3.92 -2.77,-6.87 0,-3.42 1.35,-6.16 4.08,-8.2 2.72,-2.05 6.07,-3.06 10.04,-3.06 2.07,0 4,0.26 5.81,0.78 1.81,0.52 3.54,1.31 5.16,2.38l-3.75 6.44c-1.36,-0.86 -2.64,-1.5 -3.85,-1.91 -1.2,-0.4 -2.45,-0.6 -3.73,-0.6 -1.5,0 -2.68,0.29 -3.57,0.85 -0.89,0.56 -1.35,1.3 -1.35,2.18 0,0.98 0.41,1.71 1.23,2.17 0.82,0.47 2.37,0.94 4.67,1.41 3.93,0.8 6.76,2.06 8.48,3.75 1.72,1.69 2.59,3.99 2.59,6.9 0,3.45 -1.3,6.22 -3.91,8.32 -2.6,2.09 -6.06,3.13 -10.35,3.13 -2.34,0 -4.57,-0.3 -6.71,-0.89 -2.12,-0.6 -4.22,-1.53 -6.27,-2.78z"/>
   <path id="6" class="fil3" d="M735.9 606.11l-9.43 0 0 -4.94 -0.14 0c-1.15,1.91 -2.58,3.34 -4.3,4.31 -1.71,0.96 -3.65,1.44 -5.82,1.44 -3.04,0 -5.6,-0.9 -7.69,-2.71 -2.08,-1.81 -3.12,-4.34 -3.12,-7.58 0,-3.16 1.03,-5.73 3.11,-7.71 2.07,-1.98 5.28,-3.25 9.62,-3.84l8.4 -1.14 0 -0.65c0,-1.76 -0.54,-3.08 -1.63,-3.97 -1.09,-0.89 -2.58,-1.33 -4.49,-1.33 -1.46,0 -3.02,0.24 -4.71,0.73 -1.68,0.49 -3.37,1.26 -5.06,2.33l-3.55 -5.89c2.24,-1.39 4.5,-2.41 6.79,-3.07 2.29,-0.64 4.77,-0.97 7.44,-0.97 4.97,0 8.65,1.19 11.01,3.58 2.38,2.39 3.57,5.99 3.57,10.81l0 20.6zm-9.37 -13.86l0 -2.45 -6.47 0.81c-1.84,0.27 -3.19,0.8 -4.08,1.61 -0.89,0.83 -1.34,1.91 -1.34,3.28 0,1.26 0.44,2.29 1.3,3.09 0.87,0.81 2.05,1.21 3.53,1.21 2.07,0 3.77,-0.72 5.09,-2.15 1.31,-1.44 1.97,-3.24 1.97,-5.4z"/>
   <path id="7" class="fil3" d="M767.73 601.29c-1.21,1.87 -2.71,3.28 -4.49,4.22 -1.78,0.95 -3.85,1.41 -6.22,1.41 -4.24,0 -7.68,-1.51 -10.3,-4.52 -2.61,-3.01 -3.92,-7.21 -3.92,-12.6 0,-5.64 1.44,-10.17 4.33,-13.57 2.89,-3.41 6.65,-5.11 11.29,-5.11 2.22,0 4.1,0.4 5.66,1.2 1.54,0.8 2.76,2.01 3.65,3.61l0.13 0 0 -19.16 9.97 0 0 49.34 -9.97 0 0 -4.82 -0.13 0zm-14.81 -11.78c0,3.1 0.67,5.5 2,7.21 1.35,1.7 3.18,2.56 5.52,2.56 2.26,0 4.09,-0.89 5.5,-2.66 1.41,-1.76 2.12,-4.1 2.12,-6.98l0 -2.86c0,-2.28 -0.67,-4.18 -2.04,-5.7 -1.35,-1.52 -3.1,-2.28 -5.25,-2.28 -2.45,0 -4.37,0.94 -5.76,2.85 -1.39,1.9 -2.09,4.52 -2.09,7.86z"/>
   <path id="8" class="fil3" d="M803.38 606.92c-5.63,0 -10.05,-1.59 -13.28,-4.77 -3.24,-3.21 -4.86,-7.52 -4.86,-12.96 0.02,-5.67 1.7,-10.1 5.05,-13.29 3.34,-3.19 7.86,-4.78 13.57,-4.78 5.63,0 10.03,1.59 13.2,4.77 3.18,3.18 4.77,7.41 4.77,12.71 0,5.65 -1.64,10.1 -4.94,13.39 -3.3,3.29 -7.8,4.93 -13.51,4.93zm0.35 -7.64c2.66,0 4.65,-0.88 5.98,-2.65 1.33,-1.75 2,-4.36 2,-7.84 0,-3.29 -0.68,-5.79 -2.02,-7.47 -1.35,-1.67 -3.35,-2.52 -6.03,-2.52 -2.62,0 -4.66,0.9 -6.11,2.7 -1.45,1.8 -2.19,4.32 -2.19,7.56 0,3.39 0.72,5.93 2.13,7.64 1.41,1.72 3.49,2.58 6.24,2.58z"/>
   <path id="9" class="fil3" d="M850.28 580.27c-0.44,-0.11 -0.87,-0.19 -1.31,-0.25 -0.45,-0.05 -0.96,-0.07 -1.52,-0.07 -2.72,0 -4.76,0.85 -6.14,2.57 -1.38,1.74 -2.07,4.12 -2.07,7.18l0 16.41 -9.95 0 0 -34.14 9.95 0 0 6.38 0.14 0c0.82,-2.33 1.98,-4.07 3.5,-5.25 1.51,-1.17 3.34,-1.76 5.52,-1.76 0.51,0 1.01,0.05 1.49,0.12 0.47,0.07 0.99,0.16 1.53,0.27l-1.14 8.54z"/>
   <polygon class="fil7 str1" points="437.04,756.61 437.04,937.6 911.52,937.6 911.52,756.61 "/>
   <path class="fil3" d="M586.86 862.6l-10.06 0 0 -28.15c0,-1.48 0.03,-3.05 0.09,-4.71 0.07,-1.66 0.17,-3.4 0.29,-5.23l-0.25 0c-0.28,1.41 -0.53,2.63 -0.77,3.64 -0.22,1.01 -0.44,1.81 -0.66,2.42l-11.29 32.03 -8.18 0 -11.46 -31.71c-0.15,-0.43 -0.35,-1.18 -0.6,-2.24 -0.25,-1.06 -0.54,-2.44 -0.86,-4.14l-0.29 0c0.14,2.2 0.25,4.29 0.32,6.29 0.07,1.99 0.1,3.87 0.1,5.64l0 26.16 -9.21 0 0 -46.67 14.88 0 9.85 27.98c0.39,1.05 0.72,2.07 0.98,3.08 0.27,1.01 0.49,2.02 0.69,3.05l0.19 0c0.33,-1.17 0.64,-2.28 0.94,-3.33 0.31,-1.03 0.62,-1.98 0.95,-2.86l9.9 -27.92 14.45 0 0 46.67z"/>
   <path id="1" class="fil3" d="M627.61 848.31l-22.49 0c0.16,2.65 1.03,4.63 2.56,5.93 1.55,1.3 3.68,1.95 6.41,1.95 0.98,0 2.33,-0.29 4.05,-0.87 1.71,-0.57 3.39,-1.46 5.04,-2.67l4.36 5.75c-2.3,1.74 -4.66,3.01 -7.08,3.81 -2.42,0.8 -5.06,1.2 -7.95,1.2 -5.47,0 -9.71,-1.52 -12.74,-4.58 -3.01,-3.06 -4.53,-7.33 -4.55,-12.79 0,-5.47 1.6,-9.92 4.8,-13.31 3.2,-3.42 7.25,-5.12 12.16,-5.12 4.7,0 8.46,1.44 11.25,4.31 2.79,2.88 4.18,7 4.18,12.39l0 4zm-9.28 -6.22c0,-2.71 -0.52,-4.67 -1.58,-5.88 -1.05,-1.2 -2.6,-1.8 -4.63,-1.8 -1.8,0 -3.36,0.69 -4.66,2.07 -1.3,1.38 -2.1,3.24 -2.38,5.61l13.25 0z"/>
   <path id="2" class="fil3" d="M688.08 862.6l-9.92 0 0 -19.5c0,-2.64 -0.48,-4.61 -1.42,-5.89 -0.95,-1.27 -2.38,-1.92 -4.31,-1.92 -1.8,0 -3.28,0.78 -4.44,2.35 -1.14,1.56 -1.72,3.5 -1.72,5.82l0 19.14 -9.95 0 0 -19.75c0,-2.55 -0.48,-4.44 -1.43,-5.69 -0.94,-1.25 -2.34,-1.87 -4.21,-1.87 -1.89,0 -3.4,0.75 -4.52,2.24 -1.13,1.47 -1.7,3.49 -1.7,6.03l0 19.04 -9.95 0 0 -34.14 9.95 0 0 5.33 0.13 0c1.12,-1.87 2.64,-3.37 4.58,-4.49 1.94,-1.13 4.08,-1.69 6.42,-1.69 2.42,0 4.45,0.54 6.09,1.63 1.66,1.09 2.91,2.68 3.78,4.82 1.3,-2.16 2.91,-3.77 4.82,-4.84 1.9,-1.07 4.13,-1.61 6.64,-1.61 3.73,0 6.53,1.15 8.38,3.45 1.86,2.3 2.78,5.74 2.78,10.32l0 21.22z"/>
   <path id="3" class="fil3" d="M713.12 863.41c-5.63,0 -10.05,-1.59 -13.28,-4.77 -3.24,-3.2 -4.86,-7.52 -4.86,-12.96 0.03,-5.67 1.7,-10.1 5.05,-13.29 3.34,-3.19 7.86,-4.78 13.58,-4.78 5.62,0 10.02,1.59 13.2,4.77 3.17,3.18 4.76,7.41 4.76,12.71 0,5.65 -1.64,10.1 -4.94,13.39 -3.3,3.29 -7.8,4.93 -13.51,4.93zm0.35 -7.64c2.66,0 4.65,-0.88 5.98,-2.64 1.33,-1.76 2,-4.37 2,-7.85 0,-3.29 -0.68,-5.79 -2.02,-7.47 -1.35,-1.67 -3.35,-2.52 -6.03,-2.52 -2.62,0 -4.66,0.9 -6.11,2.7 -1.45,1.8 -2.19,4.32 -2.19,7.56 0,3.39 0.72,5.93 2.13,7.64 1.41,1.72 3.49,2.58 6.24,2.58z"/>
   <path id="4" class="fil3" d="M760.02 836.76c-0.44,-0.11 -0.87,-0.19 -1.31,-0.25 -0.45,-0.05 -0.96,-0.07 -1.52,-0.07 -2.72,0 -4.76,0.85 -6.14,2.57 -1.38,1.74 -2.07,4.13 -2.07,7.18l0 16.41 -9.95 0 0 -34.14 9.95 0 0 6.38 0.14 0c0.82,-2.33 1.99,-4.07 3.5,-5.25 1.51,-1.17 3.34,-1.75 5.52,-1.75 0.51,0 1.01,0.04 1.49,0.11 0.48,0.07 0.99,0.16 1.53,0.28l-1.14 8.53z"/>
   <path id="5" class="fil3" d="M771.74 823.87c-1.73,0 -3.16,-0.53 -4.27,-1.58 -1.11,-1.05 -1.65,-2.37 -1.65,-3.92 0,-1.61 0.54,-2.93 1.65,-3.96 1.11,-1.03 2.54,-1.55 4.27,-1.55 1.73,0 3.15,0.52 4.24,1.55 1.1,1.03 1.65,2.35 1.65,3.96 0,1.6 -0.55,2.92 -1.65,3.95 -1.09,1.03 -2.51,1.55 -4.24,1.55zm4.88 38.73l-9.93 0 0 -34.14 9.93 0 0 34.14z"/>
   <path id="6" class="fil3" d="M814.54 862.6l-9.43 0 0 -4.94 -0.14 0c-1.15,1.91 -2.58,3.34 -4.3,4.31 -1.71,0.97 -3.65,1.44 -5.82,1.44 -3.05,0 -5.6,-0.9 -7.69,-2.71 -2.08,-1.81 -3.12,-4.34 -3.12,-7.57 0,-3.17 1.03,-5.74 3.11,-7.72 2.07,-1.97 5.28,-3.25 9.62,-3.84l8.4 -1.13 0 -0.66c0,-1.76 -0.54,-3.08 -1.63,-3.97 -1.09,-0.89 -2.58,-1.33 -4.49,-1.33 -1.46,0 -3.02,0.24 -4.71,0.73 -1.68,0.49 -3.37,1.26 -5.06,2.33l-3.55 -5.89c2.24,-1.39 4.5,-2.41 6.79,-3.07 2.28,-0.64 4.77,-0.97 7.44,-0.97 4.97,0 8.64,1.19 11.01,3.58 2.38,2.39 3.57,5.99 3.57,10.81l0 20.6zm-9.37 -13.86l0 -2.45 -6.48 0.81c-1.83,0.27 -3.18,0.8 -4.07,1.61 -0.89,0.83 -1.34,1.91 -1.34,3.28 0,1.26 0.44,2.29 1.3,3.09 0.87,0.81 2.05,1.21 3.52,1.21 2.08,0 3.78,-0.72 5.09,-2.15 1.32,-1.44 1.98,-3.24 1.98,-5.4z"/>
   <polygon class="fil7 str1" points="1088.02,1085.59 1088.02,1266.59 1563,1266.59 1563,1085.59 "/>
   <path class="fil3" d="M1168.31 1191.59l0 -35.01 12.22 0c6.23,0 10.89,1.42 13.99,4.26 3.11,2.84 4.67,7.11 4.67,12.81 0,5.45 -1.7,9.8 -5.11,13.06 -3.4,3.25 -7.92,4.88 -13.56,4.88l-12.21 0zm7.64 -28.76l0 22.54 4 0c3.5,0 6.24,-1.05 8.22,-3.12 2,-2.08 2.99,-4.91 2.99,-8.51 0,-3.42 -0.99,-6.09 -2.94,-8.01 -1.96,-1.93 -4.74,-2.9 -8.32,-2.9l-3.95 0z"/>
   <path id="1" class="fil3" d="M1208.61 1162.54c-1.3,0 -2.36,-0.4 -3.2,-1.18 -0.83,-0.79 -1.24,-1.78 -1.24,-2.94 0,-1.21 0.41,-2.2 1.24,-2.97 0.84,-0.77 1.9,-1.17 3.2,-1.17 1.3,0 2.37,0.4 3.19,1.17 0.82,0.77 1.23,1.76 1.23,2.97 0,1.2 -0.41,2.19 -1.23,2.96 -0.82,0.77 -1.89,1.16 -3.19,1.16zm3.66 29.05l-7.44 0 0 -25.61 7.44 0 0 25.61z"/>
   <path id="2" class="fil3" d="M1217.31 1189.44l3.07 -5c0.86,0.67 1.88,1.23 3.07,1.69 1.17,0.47 2.48,0.7 3.91,0.7 1.09,0 1.99,-0.2 2.68,-0.6 0.69,-0.4 1.03,-1.01 1.03,-1.81 0,-0.67 -0.27,-1.2 -0.81,-1.58 -0.53,-0.38 -1.52,-0.73 -2.97,-1.04 -3.18,-0.68 -5.45,-1.63 -6.84,-2.86 -1.38,-1.22 -2.07,-2.93 -2.07,-5.15 0,-2.57 1.02,-4.61 3.06,-6.15 2.04,-1.53 4.56,-2.29 7.53,-2.29 1.55,0 3,0.19 4.36,0.58 1.36,0.4 2.65,0.99 3.87,1.79l-2.81 4.83c-1.03,-0.65 -1.98,-1.13 -2.89,-1.43 -0.9,-0.3 -1.84,-0.45 -2.8,-0.45 -1.12,0 -2.01,0.21 -2.68,0.63 -0.66,0.42 -1.01,0.97 -1.01,1.64 0,0.73 0.31,1.28 0.92,1.63 0.62,0.35 1.78,0.7 3.51,1.05 2.94,0.6 5.06,1.55 6.36,2.81 1.29,1.27 1.94,2.99 1.94,5.18 0,2.59 -0.98,4.66 -2.94,6.24 -1.94,1.57 -4.54,2.35 -7.75,2.35 -1.76,0 -3.44,-0.23 -5.04,-0.67 -1.59,-0.45 -3.16,-1.15 -4.7,-2.09z"/>
   <path id="3" class="fil3" d="M1250.14 1188.54l-0.08 -0.02 -0.02 14.57 -7.44 0 -0.03 -37.11 7.49 0 -0.02 3.95 0.12 -0.02c0.98,-1.53 2.16,-2.67 3.55,-3.43 1.39,-0.75 2.98,-1.13 4.75,-1.13 3.31,0 5.87,1.13 7.68,3.42 1.81,2.27 2.72,5.37 2.72,9.3 0.02,4.26 -1.03,7.68 -3.15,10.26 -2.12,2.58 -4.92,3.87 -8.42,3.87 -1.56,0 -2.94,-0.3 -4.11,-0.9 -1.18,-0.6 -2.19,-1.53 -3.04,-2.76zm-0.19 -10.5l0 2.23c0,1.8 0.49,3.29 1.47,4.44 0.98,1.17 2.28,1.76 3.87,1.76 1.87,0 3.33,-0.74 4.38,-2.19 1.05,-1.46 1.58,-3.51 1.58,-6.14 0,-2.33 -0.47,-4.08 -1.4,-5.27 -0.95,-1.17 -2.31,-1.75 -4.12,-1.74 -1.71,-0.01 -3.1,0.62 -4.18,1.89 -1.07,1.28 -1.6,2.95 -1.6,5.02z"/>
   <path id="4" class="fil3" d="M1286.54 1192.2c-4.22,0 -7.54,-1.19 -9.96,-3.59 -2.43,-2.4 -3.64,-5.63 -3.64,-9.71 0.01,-4.25 1.27,-7.58 3.78,-9.97 2.51,-2.39 5.9,-3.58 10.18,-3.58 4.22,0 7.52,1.19 9.9,3.57 2.38,2.39 3.58,5.56 3.58,9.54 0,4.23 -1.24,7.57 -3.71,10.04 -2.48,2.47 -5.85,3.7 -10.13,3.7zm0.26 -5.73c1.99,0 3.49,-0.66 4.49,-1.99 1,-1.31 1.5,-3.27 1.5,-5.88 0,-2.47 -0.51,-4.34 -1.52,-5.6 -1.01,-1.26 -2.51,-1.89 -4.52,-1.89 -1.96,0 -3.5,0.67 -4.58,2.02 -1.09,1.35 -1.64,3.24 -1.64,5.67 0,2.54 0.53,4.45 1.59,5.73 1.06,1.29 2.62,1.94 4.68,1.94z"/>
   <path id="5" class="fil3" d="M1303.58 1189.44l3.07 -5c0.86,0.67 1.88,1.23 3.07,1.69 1.17,0.47 2.48,0.7 3.91,0.7 1.1,0 1.99,-0.2 2.68,-0.6 0.69,-0.4 1.03,-1.01 1.03,-1.81 0,-0.67 -0.26,-1.2 -0.81,-1.58 -0.53,-0.38 -1.52,-0.73 -2.97,-1.04 -3.17,-0.68 -5.45,-1.63 -6.83,-2.86 -1.39,-1.22 -2.08,-2.93 -2.08,-5.15 0,-2.57 1.02,-4.61 3.06,-6.15 2.04,-1.53 4.56,-2.29 7.53,-2.29 1.55,0 3,0.19 4.36,0.58 1.36,0.4 2.65,0.99 3.87,1.79l-2.81 4.83c-1.03,-0.65 -1.98,-1.13 -2.89,-1.43 -0.9,-0.3 -1.84,-0.45 -2.79,-0.45 -1.13,0 -2.02,0.21 -2.69,0.63 -0.66,0.42 -1,0.97 -1,1.64 0,0.73 0.3,1.28 0.91,1.63 0.62,0.35 1.79,0.7 3.51,1.05 2.94,0.6 5.07,1.55 6.36,2.81 1.29,1.27 1.94,2.99 1.94,5.18 0,2.59 -0.98,4.66 -2.93,6.24 -1.95,1.57 -4.55,2.35 -7.76,2.35 -1.76,0 -3.44,-0.23 -5.03,-0.67 -1.6,-0.45 -3.17,-1.15 -4.71,-2.09z"/>
   <path id="6" class="fil3" d="M1332.68 1162.54c-1.3,0 -2.37,-0.4 -3.2,-1.18 -0.84,-0.79 -1.25,-1.78 -1.25,-2.94 0,-1.21 0.41,-2.2 1.25,-2.97 0.83,-0.77 1.9,-1.17 3.2,-1.17 1.3,0 2.36,0.4 3.18,1.17 0.82,0.77 1.23,1.76 1.23,2.97 0,1.2 -0.41,2.19 -1.23,2.96 -0.82,0.77 -1.88,1.16 -3.18,1.16zm3.65 29.05l-7.44 0 0 -25.61 7.44 0 0 25.61z"/>
   <path id="7" class="fil3" d="M1359.43 1191.17c-0.78,0.35 -1.66,0.6 -2.61,0.77 -0.96,0.17 -1.93,0.26 -2.9,0.26 -2.74,0 -4.8,-0.67 -6.19,-2 -1.4,-1.33 -2.1,-3.33 -2.1,-5.98l0 -12.7 -4.17 -0.02 -0.03 -5.52 4.2 0 0 -5.79 7.45 -2.11 -0.02 7.9 5.86 0 0 5.54 -5.84 -0.02 -0.02 12.26c0,1.04 0.2,1.79 0.61,2.26 0.41,0.48 1.04,0.7 1.91,0.69 0.44,0.01 0.85,-0.04 1.25,-0.16 0.4,-0.13 0.77,-0.27 1.11,-0.43l1.49 5.05z"/>
   <path id="8" class="fil3" d="M1367.68 1162.54c-1.3,0 -2.36,-0.4 -3.2,-1.18 -0.83,-0.79 -1.24,-1.78 -1.24,-2.94 0,-1.21 0.41,-2.2 1.24,-2.97 0.84,-0.77 1.9,-1.17 3.2,-1.17 1.3,0 2.37,0.4 3.19,1.17 0.82,0.77 1.23,1.76 1.23,2.97 0,1.2 -0.41,2.19 -1.23,2.96 -0.82,0.77 -1.89,1.16 -3.19,1.16zm3.66 29.05l-7.44 0 0 -25.61 7.44 0 0 25.61z"/>
   <path id="9" class="fil3" d="M1402.76 1165.98l-9.59 25.61 -8.42 0 -9.18 -25.61 8 0 4.71 16.11c0.25,0.88 0.44,1.69 0.59,2.43 0.14,0.75 0.24,1.41 0.27,2.02l0.1 0c0.06,-0.61 0.18,-1.27 0.33,-1.98 0.15,-0.72 0.35,-1.49 0.6,-2.32l4.8 -16.26 7.79 0z"/>
   <path id="10" class="fil3" d="M1418.21 1192.2c-4.21,0 -7.53,-1.19 -9.95,-3.59 -2.43,-2.4 -3.65,-5.63 -3.65,-9.71 0.02,-4.25 1.28,-7.58 3.79,-9.97 2.51,-2.39 5.9,-3.58 10.18,-3.58 4.22,0 7.52,1.19 9.9,3.57 2.38,2.39 3.57,5.56 3.57,9.54 0,4.23 -1.23,7.57 -3.7,10.04 -2.48,2.47 -5.85,3.7 -10.14,3.7zm0.27 -5.73c1.99,0 3.48,-0.66 4.48,-1.99 1,-1.31 1.5,-3.27 1.5,-5.88 0,-2.47 -0.51,-4.34 -1.51,-5.6 -1.01,-1.26 -2.51,-1.89 -4.52,-1.89 -1.97,0 -3.5,0.67 -4.58,2.02 -1.1,1.35 -1.64,3.24 -1.64,5.67 0,2.54 0.53,4.45 1.59,5.73 1.05,1.29 2.61,1.94 4.68,1.94z"/>
   <path id="11" class="fil3" d="M1448.41 1191.59l12.79 -35.01 9.01 0 12.5 35.01 -8.3 0 -2.47 -7.45 -12.86 0 -2.39 7.45 -8.28 0zm12.35 -13.42l9.38 0 -3.99 -12.39c-0.12,-0.46 -0.23,-0.87 -0.32,-1.21 -0.09,-0.34 -0.17,-0.79 -0.24,-1.32l-0.19 0c-0.08,0.48 -0.16,0.91 -0.26,1.27 -0.09,0.35 -0.2,0.76 -0.35,1.2l-4.03 12.45z"/>
   <polygon class="fil7 str1" points="1641,1085.59 1641,1266.59 2115.48,1266.59 2115.48,1085.59 "/>
   <path class="fil3" d="M1723.31 1191.59l0 -35.01 12.22 0c6.23,0 10.89,1.42 13.99,4.26 3.11,2.84 4.67,7.11 4.67,12.81 0,5.45 -1.7,9.8 -5.11,13.06 -3.4,3.25 -7.92,4.88 -13.56,4.88l-12.21 0zm7.64 -28.76l0 22.54 4 0c3.5,0 6.24,-1.05 8.23,-3.12 1.99,-2.08 2.98,-4.91 2.98,-8.51 0,-3.42 -0.99,-6.09 -2.94,-8.01 -1.96,-1.93 -4.74,-2.9 -8.32,-2.9l-3.95 0z"/>
   <path id="1" class="fil3" d="M1763.62 1162.54c-1.31,0 -2.37,-0.4 -3.21,-1.18 -0.83,-0.79 -1.24,-1.78 -1.24,-2.94 0,-1.21 0.41,-2.2 1.24,-2.97 0.84,-0.77 1.9,-1.17 3.21,-1.17 1.29,0 2.36,0.4 3.18,1.17 0.82,0.77 1.23,1.76 1.23,2.97 0,1.2 -0.41,2.19 -1.23,2.96 -0.82,0.77 -1.89,1.16 -3.18,1.16zm3.65 29.05l-7.44 0 0 -25.61 7.44 0 0 25.61z"/>
   <path id="2" class="fil3" d="M1772.31 1189.44l3.07 -5c0.86,0.67 1.88,1.23 3.07,1.69 1.17,0.47 2.48,0.7 3.91,0.7 1.1,0 1.99,-0.2 2.68,-0.6 0.69,-0.4 1.03,-1.01 1.03,-1.81 0,-0.67 -0.26,-1.2 -0.81,-1.58 -0.53,-0.38 -1.52,-0.73 -2.97,-1.04 -3.18,-0.68 -5.45,-1.63 -6.83,-2.86 -1.39,-1.22 -2.08,-2.93 -2.08,-5.15 0,-2.57 1.02,-4.61 3.06,-6.15 2.04,-1.53 4.56,-2.29 7.53,-2.29 1.55,0 3,0.19 4.36,0.58 1.36,0.4 2.65,0.99 3.87,1.79l-2.81 4.83c-1.03,-0.65 -1.98,-1.13 -2.89,-1.43 -0.9,-0.3 -1.84,-0.45 -2.79,-0.45 -1.13,0 -2.02,0.21 -2.69,0.63 -0.66,0.42 -1.01,0.97 -1.01,1.64 0,0.73 0.31,1.28 0.92,1.63 0.62,0.35 1.78,0.7 3.51,1.05 2.94,0.6 5.07,1.55 6.36,2.81 1.29,1.27 1.94,2.99 1.94,5.18 0,2.59 -0.98,4.66 -2.93,6.24 -1.95,1.57 -4.55,2.35 -7.76,2.35 -1.76,0 -3.44,-0.23 -5.04,-0.67 -1.59,-0.45 -3.16,-1.15 -4.7,-2.09z"/>
   <path id="3" class="fil3" d="M1805.14 1188.54l-0.08 -0.02 -0.02 14.57 -7.44 0 -0.03 -37.11 7.49 0 -0.02 3.95 0.12 -0.02c0.98,-1.53 2.16,-2.67 3.55,-3.43 1.39,-0.75 2.98,-1.13 4.75,-1.13 3.31,0 5.87,1.13 7.68,3.42 1.81,2.27 2.72,5.37 2.72,9.3 0.02,4.26 -1.03,7.68 -3.15,10.26 -2.11,2.58 -4.92,3.87 -8.42,3.87 -1.56,0 -2.94,-0.3 -4.11,-0.9 -1.18,-0.6 -2.19,-1.53 -3.04,-2.76zm-0.19 -10.5l0 2.23c0,1.8 0.49,3.29 1.47,4.44 0.98,1.17 2.28,1.76 3.87,1.76 1.87,0 3.33,-0.74 4.38,-2.19 1.05,-1.46 1.58,-3.51 1.58,-6.14 0,-2.33 -0.47,-4.08 -1.4,-5.27 -0.95,-1.17 -2.31,-1.75 -4.12,-1.74 -1.71,-0.01 -3.1,0.62 -4.17,1.89 -1.08,1.28 -1.61,2.95 -1.61,5.02z"/>
   <path id="4" class="fil3" d="M1841.54 1192.2c-4.22,0 -7.54,-1.19 -9.96,-3.59 -2.43,-2.4 -3.64,-5.63 -3.64,-9.71 0.01,-4.25 1.27,-7.58 3.78,-9.97 2.51,-2.39 5.9,-3.58 10.18,-3.58 4.22,0 7.52,1.19 9.9,3.57 2.39,2.39 3.58,5.56 3.58,9.54 0,4.23 -1.24,7.57 -3.71,10.04 -2.48,2.47 -5.85,3.7 -10.13,3.7zm0.26 -5.73c1.99,0 3.49,-0.66 4.49,-1.99 1,-1.31 1.5,-3.27 1.5,-5.88 0,-2.47 -0.51,-4.34 -1.52,-5.6 -1.01,-1.26 -2.51,-1.89 -4.52,-1.89 -1.96,0 -3.5,0.67 -4.58,2.02 -1.09,1.35 -1.64,3.24 -1.64,5.67 0,2.54 0.53,4.45 1.59,5.73 1.06,1.29 2.62,1.94 4.68,1.94z"/>
   <path id="5" class="fil3" d="M1858.58 1189.44l3.07 -5c0.86,0.67 1.89,1.23 3.07,1.69 1.17,0.47 2.48,0.7 3.92,0.7 1.09,0 1.98,-0.2 2.67,-0.6 0.69,-0.4 1.03,-1.01 1.03,-1.81 0,-0.67 -0.26,-1.2 -0.81,-1.58 -0.53,-0.38 -1.52,-0.73 -2.97,-1.04 -3.17,-0.68 -5.45,-1.63 -6.83,-2.86 -1.39,-1.22 -2.08,-2.93 -2.08,-5.15 0,-2.57 1.02,-4.61 3.06,-6.15 2.04,-1.53 4.56,-2.29 7.53,-2.29 1.55,0 3,0.19 4.36,0.58 1.36,0.4 2.65,0.99 3.87,1.79l-2.81 4.83c-1.02,-0.65 -1.98,-1.13 -2.89,-1.43 -0.9,-0.3 -1.84,-0.45 -2.79,-0.45 -1.13,0 -2.02,0.21 -2.69,0.63 -0.66,0.42 -1,0.97 -1,1.64 0,0.73 0.3,1.28 0.91,1.63 0.62,0.35 1.79,0.7 3.51,1.05 2.94,0.6 5.07,1.55 6.36,2.81 1.29,1.27 1.94,2.99 1.94,5.18 0,2.59 -0.98,4.66 -2.93,6.24 -1.95,1.57 -4.55,2.35 -7.76,2.35 -1.76,0 -3.43,-0.23 -5.03,-0.67 -1.6,-0.45 -3.17,-1.15 -4.71,-2.09z"/>
   <path id="6" class="fil3" d="M1887.68 1162.54c-1.3,0 -2.37,-0.4 -3.2,-1.18 -0.84,-0.79 -1.25,-1.78 -1.25,-2.94 0,-1.21 0.41,-2.2 1.25,-2.97 0.83,-0.77 1.9,-1.17 3.2,-1.17 1.3,0 2.36,0.4 3.18,1.17 0.82,0.77 1.23,1.76 1.23,2.97 0,1.2 -0.41,2.19 -1.23,2.96 -0.82,0.77 -1.88,1.16 -3.18,1.16zm3.65 29.05l-7.44 0 0 -25.61 7.44 0 0 25.61z"/>
   <path id="7" class="fil3" d="M1914.43 1191.17c-0.78,0.35 -1.65,0.6 -2.61,0.77 -0.96,0.17 -1.93,0.26 -2.9,0.26 -2.74,0 -4.8,-0.67 -6.19,-2 -1.4,-1.33 -2.1,-3.33 -2.1,-5.98l0 -12.7 -4.17 -0.02 -0.03 -5.52 4.2 0 0 -5.79 7.45 -2.11 -0.02 7.9 5.86 0 0 5.54 -5.84 -0.02 -0.02 12.26c0,1.04 0.2,1.79 0.61,2.26 0.41,0.48 1.04,0.7 1.91,0.69 0.44,0.01 0.85,-0.04 1.25,-0.16 0.4,-0.13 0.77,-0.27 1.11,-0.43l1.49 5.05z"/>
   <path id="8" class="fil3" d="M1922.68 1162.54c-1.3,0 -2.36,-0.4 -3.2,-1.18 -0.83,-0.79 -1.24,-1.78 -1.24,-2.94 0,-1.21 0.41,-2.2 1.24,-2.97 0.84,-0.77 1.9,-1.17 3.2,-1.17 1.3,0 2.37,0.4 3.19,1.17 0.82,0.77 1.23,1.76 1.23,2.97 0,1.2 -0.41,2.19 -1.23,2.96 -0.82,0.77 -1.89,1.16 -3.19,1.16zm3.66 29.05l-7.44 0 0 -25.61 7.44 0 0 25.61z"/>
   <path id="9" class="fil3" d="M1957.76 1165.98l-9.59 25.61 -8.42 0 -9.18 -25.61 8 0 4.71 16.11c0.25,0.88 0.44,1.69 0.59,2.43 0.15,0.75 0.24,1.41 0.27,2.02l0.1 0c0.06,-0.61 0.18,-1.27 0.33,-1.98 0.15,-0.72 0.35,-1.49 0.6,-2.32l4.8 -16.26 7.79 0z"/>
   <path id="10" class="fil3" d="M1973.21 1192.2c-4.21,0 -7.53,-1.19 -9.95,-3.59 -2.43,-2.4 -3.65,-5.63 -3.65,-9.71 0.02,-4.25 1.28,-7.58 3.79,-9.97 2.51,-2.39 5.9,-3.58 10.18,-3.58 4.22,0 7.52,1.19 9.9,3.57 2.38,2.39 3.57,5.56 3.57,9.54 0,4.23 -1.23,7.57 -3.7,10.04 -2.48,2.47 -5.85,3.7 -10.14,3.7zm0.27 -5.73c1.99,0 3.48,-0.66 4.48,-1.99 1,-1.31 1.5,-3.27 1.5,-5.88 0,-2.47 -0.51,-4.34 -1.51,-5.6 -1.01,-1.26 -2.51,-1.89 -4.52,-1.89 -1.97,0 -3.5,0.67 -4.58,2.02 -1.09,1.35 -1.64,3.24 -1.64,5.67 0,2.54 0.53,4.45 1.59,5.73 1.06,1.29 2.61,1.94 4.68,1.94z"/>
   <path id="11" class="fil3" d="M2007.17 1191.59l0 -35.01 12.57 0c3.84,0 6.81,0.75 8.89,2.22 2.08,1.48 3.12,3.57 3.12,6.25 0,1.88 -0.56,3.52 -1.68,4.93 -1.13,1.42 -2.57,2.4 -4.33,2.96l0 0.09c2.27,0.3 4.07,1.19 5.41,2.68 1.34,1.49 2.02,3.31 2.02,5.46 0,3.19 -1.14,5.72 -3.43,7.6 -2.29,1.88 -5.4,2.82 -9.31,2.82l-13.26 0zm7.64 -29.34l0 8.73 3.52 0c1.66,0 2.97,-0.4 3.94,-1.19 0.97,-0.8 1.45,-1.91 1.45,-3.32 0,-1.42 -0.49,-2.48 -1.47,-3.18 -0.97,-0.69 -2.43,-1.04 -4.36,-1.04l-3.08 0zm0 14.45l0 9.22 4.37 0c1.86,0 3.32,-0.43 4.37,-1.3 1.05,-0.87 1.59,-2.05 1.59,-3.55 0,-1.37 -0.53,-2.44 -1.58,-3.21 -1.05,-0.78 -2.52,-1.16 -4.41,-1.16l-4.34 0z"/>
   <polygon class="fil7 str1" points="2193.48,1085.59 2193.48,1266.59 2667.96,1266.59 2667.96,1085.59 "/>
   <path class="fil3" d="M2275.63 1191.59l0 -35.01 12.22 0c6.23,0 10.89,1.42 14,4.26 3.1,2.84 4.66,7.11 4.66,12.81 0,5.45 -1.7,9.8 -5.11,13.06 -3.4,3.25 -7.92,4.88 -13.56,4.88l-12.21 0zm7.64 -28.76l0 22.54 4 0c3.5,0 6.24,-1.05 8.23,-3.12 1.99,-2.08 2.98,-4.91 2.98,-8.51 0,-3.42 -0.98,-6.09 -2.94,-8.01 -1.96,-1.93 -4.74,-2.9 -8.32,-2.9l-3.95 0z"/>
   <path id="1" class="fil3" d="M2315.94 1162.54c-1.3,0 -2.37,-0.4 -3.2,-1.18 -0.84,-0.79 -1.25,-1.78 -1.25,-2.94 0,-1.21 0.41,-2.2 1.25,-2.97 0.83,-0.77 1.9,-1.17 3.2,-1.17 1.3,0 2.36,0.4 3.18,1.17 0.82,0.77 1.23,1.76 1.23,2.97 0,1.2 -0.41,2.19 -1.23,2.96 -0.82,0.77 -1.88,1.16 -3.18,1.16zm3.65 29.05l-7.44 0 0 -25.61 7.44 0 0 25.61z"/>
   <path id="2" class="fil3" d="M2324.63 1189.44l3.07 -5c0.86,0.67 1.89,1.23 3.07,1.69 1.17,0.47 2.48,0.7 3.92,0.7 1.09,0 1.98,-0.2 2.67,-0.6 0.69,-0.4 1.03,-1.01 1.03,-1.81 0,-0.67 -0.26,-1.2 -0.81,-1.58 -0.53,-0.38 -1.52,-0.73 -2.97,-1.04 -3.17,-0.68 -5.45,-1.63 -6.83,-2.86 -1.39,-1.22 -2.08,-2.93 -2.08,-5.15 0,-2.57 1.02,-4.61 3.06,-6.15 2.04,-1.53 4.56,-2.29 7.53,-2.29 1.55,0 3,0.19 4.36,0.58 1.36,0.4 2.65,0.99 3.87,1.79l-2.81 4.83c-1.02,-0.65 -1.98,-1.13 -2.89,-1.43 -0.9,-0.3 -1.84,-0.45 -2.79,-0.45 -1.13,0 -2.02,0.21 -2.69,0.63 -0.66,0.42 -1,0.97 -1,1.64 0,0.73 0.3,1.28 0.91,1.63 0.62,0.35 1.79,0.7 3.51,1.05 2.94,0.6 5.07,1.55 6.36,2.81 1.29,1.27 1.94,2.99 1.94,5.18 0,2.59 -0.98,4.66 -2.93,6.24 -1.95,1.57 -4.55,2.35 -7.76,2.35 -1.76,0 -3.43,-0.23 -5.03,-0.67 -1.6,-0.45 -3.17,-1.15 -4.71,-2.09z"/>
   <path id="3" class="fil3" d="M2357.46 1188.54l-0.08 -0.02 -0.02 14.57 -7.44 0 -0.03 -37.11 7.49 0 -0.02 3.95 0.13 -0.02c0.97,-1.53 2.15,-2.67 3.54,-3.43 1.4,-0.75 2.98,-1.13 4.75,-1.13 3.31,0 5.87,1.13 7.68,3.42 1.81,2.27 2.72,5.37 2.72,9.3 0.02,4.26 -1.03,7.68 -3.15,10.26 -2.11,2.58 -4.92,3.87 -8.42,3.87 -1.56,0 -2.93,-0.3 -4.11,-0.9 -1.18,-0.6 -2.19,-1.53 -3.04,-2.76zm-0.19 -10.5l0 2.23c0,1.8 0.49,3.29 1.47,4.44 0.99,1.17 2.28,1.76 3.87,1.76 1.87,0 3.33,-0.74 4.38,-2.19 1.05,-1.46 1.58,-3.51 1.58,-6.14 0,-2.33 -0.47,-4.08 -1.4,-5.27 -0.94,-1.17 -2.31,-1.75 -4.12,-1.74 -1.71,-0.01 -3.1,0.62 -4.17,1.89 -1.08,1.28 -1.61,2.95 -1.61,5.02z"/>
   <path id="4" class="fil3" d="M2393.86 1192.2c-4.22,0 -7.53,-1.19 -9.96,-3.59 -2.43,-2.4 -3.64,-5.63 -3.64,-9.71 0.02,-4.25 1.27,-7.58 3.78,-9.97 2.51,-2.39 5.9,-3.58 10.18,-3.58 4.22,0 7.52,1.19 9.9,3.57 2.39,2.39 3.58,5.56 3.58,9.54 0,4.23 -1.23,7.57 -3.71,10.04 -2.47,2.47 -5.85,3.7 -10.13,3.7zm0.26 -5.73c2,0 3.49,-0.66 4.49,-1.99 1,-1.31 1.5,-3.27 1.5,-5.88 0,-2.47 -0.51,-4.34 -1.52,-5.6 -1.01,-1.26 -2.51,-1.89 -4.52,-1.89 -1.96,0 -3.5,0.67 -4.58,2.02 -1.09,1.35 -1.64,3.24 -1.64,5.67 0,2.54 0.53,4.45 1.59,5.73 1.06,1.29 2.62,1.94 4.68,1.94z"/>
   <path id="5" class="fil3" d="M2410.9 1189.44l3.07 -5c0.86,0.67 1.89,1.23 3.07,1.69 1.17,0.47 2.48,0.7 3.92,0.7 1.09,0 1.98,-0.2 2.67,-0.6 0.69,-0.4 1.03,-1.01 1.03,-1.81 0,-0.67 -0.26,-1.2 -0.8,-1.58 -0.54,-0.38 -1.53,-0.73 -2.98,-1.04 -3.17,-0.68 -5.45,-1.63 -6.83,-2.86 -1.39,-1.22 -2.08,-2.93 -2.08,-5.15 0,-2.57 1.02,-4.61 3.06,-6.15 2.04,-1.53 4.56,-2.29 7.53,-2.29 1.55,0 3,0.19 4.36,0.58 1.36,0.4 2.65,0.99 3.87,1.79l-2.81 4.83c-1.02,-0.65 -1.98,-1.13 -2.89,-1.43 -0.9,-0.3 -1.83,-0.45 -2.79,-0.45 -1.13,0 -2.02,0.21 -2.69,0.63 -0.66,0.42 -1,0.97 -1,1.64 0,0.73 0.31,1.28 0.91,1.63 0.62,0.35 1.79,0.7 3.51,1.05 2.94,0.6 5.07,1.55 6.36,2.81 1.29,1.27 1.94,2.99 1.94,5.18 0,2.59 -0.97,4.66 -2.93,6.24 -1.95,1.57 -4.54,2.35 -7.76,2.35 -1.76,0 -3.43,-0.23 -5.03,-0.67 -1.6,-0.45 -3.17,-1.15 -4.71,-2.09z"/>
   <path id="6" class="fil3" d="M2440 1162.54c-1.3,0 -2.37,-0.4 -3.2,-1.18 -0.84,-0.79 -1.24,-1.78 -1.24,-2.94 0,-1.21 0.4,-2.2 1.24,-2.97 0.83,-0.77 1.9,-1.17 3.2,-1.17 1.3,0 2.36,0.4 3.18,1.17 0.83,0.77 1.23,1.76 1.23,2.97 0,1.2 -0.4,2.19 -1.23,2.96 -0.82,0.77 -1.88,1.16 -3.18,1.16zm3.66 29.05l-7.45 0 0 -25.61 7.45 0 0 25.61z"/>
   <path id="7" class="fil3" d="M2466.75 1191.17c-0.78,0.35 -1.65,0.6 -2.61,0.77 -0.96,0.17 -1.93,0.26 -2.9,0.26 -2.74,0 -4.8,-0.67 -6.19,-2 -1.39,-1.33 -2.09,-3.33 -2.09,-5.98l0 -12.7 -4.18 -0.02 -0.02 -5.52 4.2 0 0 -5.79 7.45 -2.11 -0.03 7.9 5.86 0 0 5.54 -5.83 -0.02 -0.03 12.26c0,1.04 0.2,1.79 0.61,2.26 0.41,0.48 1.04,0.7 1.91,0.69 0.44,0.01 0.85,-0.04 1.26,-0.16 0.4,-0.13 0.76,-0.27 1.1,-0.43l1.49 5.05z"/>
   <path id="8" class="fil3" d="M2475 1162.54c-1.3,0 -2.36,-0.4 -3.2,-1.18 -0.83,-0.79 -1.24,-1.78 -1.24,-2.94 0,-1.21 0.41,-2.2 1.24,-2.97 0.84,-0.77 1.9,-1.17 3.2,-1.17 1.3,0 2.37,0.4 3.19,1.17 0.82,0.77 1.23,1.76 1.23,2.97 0,1.2 -0.41,2.19 -1.23,2.96 -0.82,0.77 -1.89,1.16 -3.19,1.16zm3.66 29.05l-7.44 0 0 -25.61 7.44 0 0 25.61z"/>
   <path id="9" class="fil3" d="M2510.09 1165.98l-9.6 25.61 -8.42 0 -9.18 -25.61 8.01 0 4.7 16.11c0.25,0.88 0.44,1.69 0.59,2.43 0.15,0.75 0.24,1.41 0.27,2.02l0.1 0c0.06,-0.61 0.18,-1.27 0.33,-1.98 0.16,-0.72 0.35,-1.49 0.6,-2.32l4.81 -16.26 7.79 0z"/>
   <path id="10" class="fil3" d="M2525.53 1192.2c-4.21,0 -7.53,-1.19 -9.95,-3.59 -2.43,-2.4 -3.64,-5.63 -3.64,-9.71 0.01,-4.25 1.27,-7.58 3.78,-9.97 2.51,-2.39 5.9,-3.58 10.18,-3.58 4.22,0 7.52,1.19 9.9,3.57 2.38,2.39 3.58,5.56 3.58,9.54 0,4.23 -1.24,7.57 -3.71,10.04 -2.48,2.47 -5.85,3.7 -10.14,3.7zm0.27 -5.73c1.99,0 3.48,-0.66 4.48,-1.99 1.01,-1.31 1.5,-3.27 1.5,-5.88 0,-2.47 -0.5,-4.34 -1.51,-5.6 -1.01,-1.26 -2.51,-1.89 -4.52,-1.89 -1.96,0 -3.5,0.67 -4.58,2.02 -1.09,1.35 -1.64,3.24 -1.64,5.67 0,2.54 0.53,4.45 1.59,5.73 1.06,1.29 2.62,1.94 4.68,1.94z"/>
   <path id="11" class="fil3" d="M2585.81 1189.76c-1.85,0.85 -3.63,1.46 -5.36,1.85 -1.73,0.4 -3.61,0.59 -5.63,0.59 -5.44,0 -9.71,-1.53 -12.84,-4.59 -3.12,-3.06 -4.69,-7.42 -4.69,-13.09 0,-5.33 1.71,-9.75 5.12,-13.26 3.41,-3.51 7.91,-5.26 13.48,-5.26 1.89,0 3.58,0.14 5.08,0.43 1.5,0.28 3.03,0.73 4.6,1.35l-2.36 6.15c-1.18,-0.47 -2.34,-0.81 -3.46,-1.04 -1.12,-0.21 -2.33,-0.32 -3.63,-0.32 -2.95,0 -5.49,1.02 -7.61,3.08 -2.13,2.06 -3.19,4.84 -3.19,8.34 0,3.61 0.94,6.43 2.8,8.47 1.86,2.03 4.41,3.06 7.65,3.06 0.93,0 2.03,-0.15 3.31,-0.45 1.28,-0.29 2.59,-0.76 3.92,-1.41l2.81 6.1z"/>
   <path class="fil4" d="M1553.5 585.66c-2.47,1.51 -5.29,2.7 -8.49,3.56 -3.2,0.87 -6.71,1.3 -10.55,1.3 -8.25,0 -14.84,-2.2 -19.76,-6.59 -4.91,-4.4 -7.38,-10.97 -7.38,-19.74 0,-8.06 2.52,-14.73 7.53,-20.03 5.01,-5.3 11.95,-7.94 20.79,-7.94 3.26,0 6.3,0.28 9.1,0.85 2.78,0.57 5.65,1.49 8.58,2.74l-3.7 8.86c-2.35,-0.99 -4.6,-1.7 -6.77,-2.16 -2.18,-0.47 -4.58,-0.7 -7.21,-0.7 -4.99,0 -8.94,1.5 -11.88,4.5 -2.92,3.01 -4.39,7.45 -4.39,13.33 0,5.92 1.44,10.27 4.33,13.05 2.87,2.8 6.66,4.2 11.35,4.2 1.46,0 2.77,-0.11 3.94,-0.31 1.16,-0.21 2.17,-0.52 3.05,-0.94l0 -10.58 -10.58 0 0 -9.19 22.04 0 0 25.79z"/>
   <path id="1" class="fil4" d="M1597.6 573.53l-25.3 0c0.18,2.98 1.16,5.2 2.88,6.66 1.74,1.46 4.14,2.2 7.22,2.2 1.1,0 2.61,-0.32 4.55,-0.97 1.92,-0.65 3.81,-1.65 5.67,-3.01l4.9 6.47c-2.59,1.95 -5.24,3.39 -7.96,4.29 -2.73,0.9 -5.7,1.35 -8.95,1.35 -6.15,0 -10.93,-1.71 -14.32,-5.16 -3.39,-3.44 -5.1,-8.24 -5.13,-14.39 0,-6.15 1.8,-11.15 5.4,-14.98 3.6,-3.83 8.16,-5.75 13.69,-5.75 5.28,0 9.51,1.62 12.65,4.85 3.13,3.24 4.7,7.88 4.7,13.94l0 4.5zm-10.44 -7c0,-3.05 -0.59,-5.25 -1.78,-6.61 -1.18,-1.35 -2.92,-2.03 -5.21,-2.03 -2.02,0 -3.77,0.78 -5.24,2.33 -1.46,1.55 -2.36,3.65 -2.67,6.31l14.9 0z"/>
   <path id="2" class="fil4" d="M1601.77 586.38l4.61 -7.5c1.29,1 2.83,1.85 4.6,2.54 1.76,0.7 3.73,1.05 5.88,1.05 1.63,0 2.97,-0.3 4.01,-0.9 1.04,-0.6 1.55,-1.51 1.55,-2.73 0,-1 -0.4,-1.78 -1.21,-2.36 -0.8,-0.57 -2.29,-1.1 -4.46,-1.56 -4.77,-1.03 -8.18,-2.45 -10.25,-4.29 -2.08,-1.82 -3.12,-4.4 -3.12,-7.72 0,-3.85 1.53,-6.93 4.59,-9.23 3.06,-2.3 6.84,-3.44 11.3,-3.44 2.32,0 4.5,0.29 6.54,0.88 2.03,0.59 3.97,1.47 5.8,2.67l-4.22 7.25c-1.53,-0.97 -2.97,-1.68 -4.33,-2.15 -1.35,-0.45 -2.75,-0.67 -4.19,-0.67 -1.69,0 -3.02,0.32 -4.03,0.95 -1,0.64 -1.51,1.46 -1.51,2.46 0,1.1 0.46,1.91 1.38,2.44 0.92,0.52 2.67,1.05 5.26,1.59 4.41,0.9 7.6,2.31 9.54,4.21 1.93,1.9 2.91,4.49 2.91,7.76 0,3.89 -1.46,7 -4.4,9.36 -2.93,2.35 -6.81,3.53 -11.64,3.53 -2.63,0 -5.15,-0.34 -7.55,-1 -2.39,-0.68 -4.75,-1.73 -7.06,-3.14z"/>
   <path id="3" class="fil4" d="M1663.22 588.98c-1.18,0.51 -2.49,0.9 -3.93,1.15 -1.43,0.26 -2.88,0.39 -4.35,0.39 -4.11,0 -7.2,-1 -9.28,-3 -2.09,-2 -3.14,-4.99 -3.14,-8.98l0 -19.03 -6.26 -0.04 -0.04 -8.28 6.3 0 0 -8.68 11.17 -3.18 -0.03 11.86 8.78 0 0 8.32 -8.75 -0.04 -0.03 18.39c0,1.56 0.3,2.68 0.91,3.4 0.61,0.71 1.56,1.05 2.86,1.02 0.66,0.03 1.29,-0.05 1.89,-0.24 0.6,-0.18 1.15,-0.4 1.66,-0.63l2.24 7.57z"/>
   <path id="4" class="fil4" d="M1675.59 546.03c-1.95,0 -3.55,-0.6 -4.8,-1.77 -1.25,-1.19 -1.86,-2.67 -1.86,-4.41 0,-1.82 0.61,-3.3 1.86,-4.46 1.25,-1.16 2.85,-1.74 4.8,-1.74 1.95,0 3.55,0.58 4.78,1.74 1.23,1.16 1.85,2.64 1.85,4.46 0,1.8 -0.62,3.28 -1.85,4.44 -1.23,1.15 -2.83,1.74 -4.78,1.74zm5.49 43.57l-11.16 0 0 -38.41 11.16 0 0 38.41z"/>
   <path id="5" class="fil4" d="M1710.34 590.52c-6.32,0 -11.3,-1.79 -14.94,-5.38 -3.63,-3.6 -5.46,-8.45 -5.46,-14.57 0.03,-6.38 1.92,-11.36 5.68,-14.95 3.76,-3.59 8.85,-5.38 15.27,-5.38 6.33,0 11.28,1.79 14.85,5.37 3.58,3.57 5.36,8.33 5.36,14.3 0,6.35 -1.85,11.36 -5.56,15.06 -3.71,3.7 -8.77,5.55 -15.2,5.55zm0.4 -8.6c2.99,0 5.23,-0.99 6.73,-2.98 1.5,-1.97 2.25,-4.91 2.25,-8.82 0,-3.7 -0.77,-6.51 -2.28,-8.4 -1.51,-1.89 -3.76,-2.84 -6.77,-2.84 -2.95,0 -5.25,1.01 -6.88,3.04 -1.64,2.02 -2.46,4.86 -2.46,8.5 0,3.81 0.8,6.67 2.39,8.6 1.58,1.94 3.92,2.9 7.02,2.9zm-0.14 -36.66l-8.13 0 9.45 -11.83 10 0 -11.32 11.83z"/>
   <path id="6" class="fil4" d="M1775.96 589.6l-11.17 0 0 -21.42c0,-3.07 -0.55,-5.39 -1.66,-6.94 -1.12,-1.55 -2.78,-2.33 -5,-2.36 -2.18,0.03 -3.96,0.86 -5.37,2.51 -1.41,1.65 -2.11,3.74 -2.11,6.28l-0.04 21.93 -11.16 0 -0.03 -38.41 11.23 0 -0.04 6.12 0.19 0c1.42,-2.37 3.15,-4.14 5.21,-5.29 2.08,-1.16 4.45,-1.74 7.17,-1.74 4.25,-0.02 7.43,1.29 9.57,3.95 2.14,2.66 3.21,6.61 3.21,11.86l0 23.51z"/>
   <path id="7" class="fil4" d="M1832.46 584.18c-1.36,2.1 -3.05,3.69 -5.05,4.75 -2,1.06 -4.34,1.59 -7,1.59 -4.77,0 -8.64,-1.7 -11.59,-5.09 -2.93,-3.39 -4.41,-8.11 -4.41,-14.17 0,-6.35 1.63,-11.44 4.88,-15.27 3.25,-3.83 7.47,-5.75 12.7,-5.75 2.5,0 4.61,0.45 6.36,1.35 1.74,0.9 3.11,2.27 4.11,4.07l0.15 0 0 -21.56 11.21 0 0 55.5 -11.21 0 0 -5.42 -0.15 0zm-16.66 -13.25c0,3.49 0.75,6.19 2.25,8.11 1.51,1.92 3.57,2.88 6.21,2.88 2.54,0 4.6,-1 6.19,-2.99 1.59,-1.99 2.39,-4.61 2.39,-7.85l0 -3.22c0,-2.57 -0.77,-4.7 -2.3,-6.42 -1.53,-1.71 -3.49,-2.56 -5.92,-2.56 -2.75,0 -4.91,1.06 -6.47,3.2 -1.56,2.14 -2.35,5.09 -2.35,8.85z"/>
   <path id="8" class="fil4" d="M1888.6 573.53l-25.3 0c0.18,2.98 1.16,5.2 2.88,6.66 1.74,1.46 4.14,2.2 7.22,2.2 1.1,0 2.61,-0.32 4.55,-0.97 1.92,-0.65 3.81,-1.65 5.67,-3.01l4.9 6.47c-2.59,1.95 -5.24,3.39 -7.96,4.29 -2.73,0.9 -5.7,1.35 -8.95,1.35 -6.15,0 -10.93,-1.71 -14.33,-5.16 -3.38,-3.44 -5.1,-8.24 -5.12,-14.39 0,-6.15 1.8,-11.15 5.4,-14.98 3.6,-3.83 8.16,-5.75 13.69,-5.75 5.28,0 9.51,1.62 12.65,4.85 3.13,3.24 4.7,7.88 4.7,13.94l0 4.5zm-10.44 -7c0,-3.05 -0.59,-5.25 -1.78,-6.61 -1.18,-1.35 -2.92,-2.03 -5.21,-2.03 -2.02,0 -3.77,0.78 -5.24,2.33 -1.46,1.55 -2.36,3.65 -2.67,6.31l14.9 0z"/>
   <path id="9" class="fil4" d="M1953.33 589.6l-11.12 0 0 -21.86c0,-2.97 -0.55,-5.2 -1.64,-6.65 -1.09,-1.45 -2.71,-2.17 -4.89,-2.17 -2.2,0 -3.99,0.82 -5.39,2.47 -1.38,1.65 -2.07,3.75 -2.05,6.32l-0.03 21.89 -11.16 0 -0.04 -55.5 11.23 0 -0.03 22.88 0.18 -0.04c1.47,-2.25 3.19,-3.92 5.19,-5.03 1.99,-1.12 4.23,-1.67 6.71,-1.67 4.35,0 7.62,1.32 9.78,3.94 2.17,2.61 3.26,6.56 3.26,11.84l0 23.58z"/>
   <path id="10" class="fil4" d="M1994.89 589.6l-10.61 0 0 -5.56 -0.15 0c-1.3,2.15 -2.9,3.76 -4.84,4.85 -1.92,1.09 -4.11,1.63 -6.55,1.63 -3.42,0 -6.3,-1.02 -8.65,-3.05 -2.33,-2.04 -3.51,-4.89 -3.51,-8.53 0,-3.56 1.16,-6.45 3.5,-8.67 2.32,-2.23 5.94,-3.66 10.82,-4.33l9.45 -1.27 0 -0.74c0,-1.97 -0.61,-3.46 -1.83,-4.46 -1.23,-1 -2.9,-1.5 -5.05,-1.5 -1.64,0 -3.4,0.27 -5.3,0.82 -1.89,0.55 -3.79,1.42 -5.69,2.62l-4 -6.63c2.52,-1.56 5.06,-2.71 7.64,-3.45 2.57,-0.72 5.37,-1.09 8.37,-1.09 5.59,0 9.73,1.34 12.39,4.03 2.67,2.69 4.01,6.74 4.01,12.16l0 23.17zm-10.54 -15.59l0 -2.75 -7.28 0.91c-2.07,0.3 -3.59,0.9 -4.59,1.81 -1,0.93 -1.5,2.15 -1.5,3.69 0,1.41 0.49,2.57 1.46,3.47 0.98,0.92 2.3,1.37 3.96,1.37 2.34,0 4.25,-0.82 5.73,-2.43 1.47,-1.61 2.22,-3.64 2.22,-6.07z"/>
   <path id="11" class="fil4" d="M2028.54 560.53c-0.49,-0.12 -0.98,-0.21 -1.48,-0.27 -0.49,-0.07 -1.07,-0.09 -1.69,-0.09 -3.07,0 -5.37,0.96 -6.92,2.9 -1.55,1.95 -2.32,4.64 -2.32,8.07l0 18.46 -11.2 0 0 -38.41 11.2 0 0 7.18 0.15 0c0.92,-2.61 2.23,-4.58 3.94,-5.9 1.7,-1.31 3.76,-1.98 6.21,-1.98 0.57,0 1.13,0.05 1.67,0.13 0.54,0.09 1.11,0.19 1.73,0.31l-1.29 9.6z"/>
   <path id="12" class="fil4" d="M2061.2 584.18c-1.36,2.1 -3.05,3.69 -5.05,4.75 -2,1.06 -4.34,1.59 -7,1.59 -4.77,0 -8.64,-1.7 -11.59,-5.09 -2.93,-3.39 -4.41,-8.11 -4.41,-14.17 0,-6.35 1.63,-11.44 4.88,-15.27 3.25,-3.83 7.47,-5.75 12.7,-5.75 2.5,0 4.61,0.45 6.36,1.35 1.74,0.9 3.11,2.27 4.11,4.07l0.15 0 0 -21.56 11.21 0 0 55.5 -11.21 0 0 -5.42 -0.15 0zm-16.66 -13.25c0,3.49 0.75,6.19 2.25,8.11 1.51,1.92 3.57,2.88 6.21,2.88 2.54,0 4.6,-1 6.19,-2.99 1.59,-1.99 2.39,-4.61 2.39,-7.85l0 -3.22c0,-2.57 -0.77,-4.7 -2.3,-6.42 -1.53,-1.71 -3.49,-2.56 -5.92,-2.56 -2.75,0 -4.91,1.06 -6.47,3.2 -1.56,2.14 -2.35,5.09 -2.35,8.85z"/>
   <path id="13" class="fil4" d="M2138.13 551.19l-11.12 38.41 -11.76 0 -5.93 -23.11c-0.2,-0.7 -0.35,-1.45 -0.45,-2.25 -0.08,-0.78 -0.15,-1.62 -0.17,-2.5l-0.23 0c-0.07,0.95 -0.16,1.8 -0.28,2.57 -0.13,0.75 -0.29,1.45 -0.48,2.08l-6.34 23.21 -11.61 0 -10.95 -38.41 11.43 0 5.6 25.49c0.15,0.59 0.27,1.21 0.37,1.9 0.1,0.69 0.16,1.45 0.21,2.31l0.23 0c0.07,-0.83 0.16,-1.61 0.27,-2.35 0.12,-0.72 0.25,-1.39 0.43,-1.97l6.83 -25.38 10.67 0 6.15 25.53c0.07,0.31 0.15,0.84 0.23,1.55 0.09,0.72 0.18,1.62 0.28,2.7l0.26 0c0.08,-0.71 0.15,-1.43 0.24,-2.13 0.09,-0.71 0.21,-1.42 0.39,-2.12l5.3 -25.53 10.43 0z"/>
   <path id="14" class="fil4" d="M2175.96 589.6l-10.62 0 0 -5.56 -0.15 0c-1.3,2.15 -2.9,3.76 -4.83,4.85 -1.93,1.09 -4.12,1.63 -6.55,1.63 -3.43,0 -6.3,-1.02 -8.65,-3.05 -2.34,-2.04 -3.51,-4.89 -3.51,-8.53 0,-3.56 1.16,-6.45 3.5,-8.67 2.32,-2.23 5.93,-3.66 10.82,-4.33l9.45 -1.27 0 -0.74c0,-1.97 -0.61,-3.46 -1.84,-4.46 -1.22,-1 -2.9,-1.5 -5.05,-1.5 -1.64,0 -3.4,0.27 -5.3,0.82 -1.89,0.55 -3.79,1.42 -5.68,2.62l-4.01 -6.63c2.53,-1.56 5.07,-2.71 7.64,-3.45 2.58,-0.72 5.38,-1.09 8.38,-1.09 5.58,0 9.72,1.34 12.38,4.03 2.68,2.69 4.02,6.74 4.02,12.16l0 23.17zm-10.54 -15.59l0 -2.75 -7.29 0.91c-2.06,0.3 -3.59,0.9 -4.58,1.81 -1.01,0.93 -1.5,2.15 -1.5,3.69 0,1.41 0.48,2.57 1.46,3.47 0.97,0.92 2.3,1.37 3.96,1.37 2.34,0 4.25,-0.82 5.72,-2.43 1.48,-1.61 2.23,-3.64 2.23,-6.07z"/>
   <path id="15" class="fil4" d="M2209.61 560.53c-0.49,-0.12 -0.98,-0.21 -1.48,-0.27 -0.5,-0.07 -1.07,-0.09 -1.7,-0.09 -3.06,0 -5.36,0.96 -6.91,2.9 -1.55,1.95 -2.33,4.64 -2.33,8.07l0 18.46 -11.2 0 0 -38.41 11.2 0 0 7.18 0.15 0c0.93,-2.61 2.24,-4.58 3.94,-5.9 1.7,-1.31 3.76,-1.98 6.21,-1.98 0.58,0 1.14,0.05 1.68,0.13 0.53,0.09 1.11,0.19 1.72,0.31l-1.28 9.6z"/>
   <path id="16" class="fil4" d="M2250.65 573.53l-25.3 0c0.19,2.98 1.17,5.2 2.89,6.66 1.74,1.46 4.14,2.2 7.21,2.2 1.1,0 2.62,-0.32 4.55,-0.97 1.93,-0.65 3.82,-1.65 5.68,-3.01l4.9 6.47c-2.59,1.95 -5.24,3.39 -7.96,4.29 -2.73,0.9 -5.7,1.35 -8.95,1.35 -6.15,0 -10.93,-1.71 -14.33,-5.16 -3.39,-3.44 -5.1,-8.24 -5.12,-14.39 0,-6.15 1.8,-11.15 5.4,-14.98 3.6,-3.83 8.16,-5.75 13.68,-5.75 5.29,0 9.52,1.62 12.65,4.85 3.14,3.24 4.7,7.88 4.7,13.94l0 4.5zm-10.43 -7c0,-3.05 -0.59,-5.25 -1.78,-6.61 -1.19,-1.35 -2.92,-2.03 -5.21,-2.03 -2.03,0 -3.78,0.78 -5.24,2.33 -1.46,1.55 -2.36,3.65 -2.67,6.31l14.9 0z"/>
   <polygon class="fil5" points="1896.99,401.62 1878.99,432.62 1860.99,401.62 1860.49,400.12 1860.49,398.62 1860.99,397.12 1862.49,396.12 1863.99,395.62 1865.49,395.62 1866.99,396.12 1867.99,397.62 1882.49,422.62 1875.49,422.62 1889.99,397.62 1890.99,396.12 1892.49,395.62 1893.99,395.62 1895.49,396.12 1896.99,397.12 1897.49,398.62 1897.99,400.12 1896.99,401.62 "/>
   <polygon class="fil5" points="1883.24,293.62 1883.24,424.62 1875.24,424.62 1875.24,293.62 "/>
   <polygon class="fil5" points="1808.45,224.04 1793.42,224.04 1793.46,267.17 1781.97,267.17 1781.93,224.04 1767.02,224.04 1767.02,214.66 1808.45,214.66 "/>
   <path id="1" class="fil5" d="M1840.37 267.17l-10.61 0 0 -5.56 -0.15 0c-1.3,2.15 -2.9,3.76 -4.84,4.85 -1.92,1.09 -4.11,1.63 -6.55,1.63 -3.42,0 -6.3,-1.02 -8.65,-3.05 -2.34,-2.04 -3.51,-4.89 -3.51,-8.53 0,-3.56 1.16,-6.45 3.5,-8.67 2.32,-2.23 5.94,-3.66 10.82,-4.33l9.45 -1.27 0 -0.74c0,-1.97 -0.61,-3.46 -1.83,-4.46 -1.23,-1 -2.9,-1.5 -5.05,-1.5 -1.64,0 -3.4,0.27 -5.3,0.82 -1.89,0.55 -3.79,1.41 -5.69,2.61l-4 -6.62c2.52,-1.56 5.06,-2.71 7.64,-3.45 2.57,-0.73 5.37,-1.09 8.37,-1.09 5.59,0 9.73,1.34 12.39,4.03 2.67,2.68 4.01,6.73 4.01,12.16l0 23.17zm-10.54 -15.6l0 -2.74 -7.28 0.91c-2.07,0.3 -3.59,0.9 -4.59,1.81 -1,0.92 -1.5,2.15 -1.5,3.69 0,1.41 0.49,2.57 1.46,3.47 0.98,0.92 2.3,1.37 3.96,1.37 2.34,0 4.25,-0.82 5.73,-2.43 1.47,-1.61 2.22,-3.64 2.22,-6.08z"/>
   <path id="2" class="fil5" d="M1874.02 238.1c-0.49,-0.13 -0.97,-0.21 -1.47,-0.28 -0.5,-0.06 -1.08,-0.08 -1.7,-0.08 -3.07,0 -5.37,0.96 -6.92,2.9 -1.55,1.95 -2.32,4.63 -2.32,8.07l0 18.46 -11.2 0 0 -38.41 11.2 0 0 7.18 0.15 0c0.92,-2.62 2.24,-4.58 3.94,-5.9 1.7,-1.31 3.76,-1.98 6.21,-1.98 0.57,0 1.14,0.05 1.67,0.13 0.54,0.09 1.12,0.18 1.73,0.31l-1.29 9.6z"/>
   <path id="3" class="fil5" d="M1915.07 251.1l-25.3 0c0.19,2.98 1.16,5.2 2.89,6.66 1.74,1.46 4.14,2.2 7.21,2.2 1.1,0 2.61,-0.32 4.55,-0.97 1.93,-0.65 3.81,-1.65 5.68,-3.02l4.9 6.48c-2.59,1.95 -5.24,3.39 -7.97,4.29 -2.72,0.9 -5.7,1.35 -8.95,1.35 -6.15,0 -10.92,-1.71 -14.32,-5.16 -3.39,-3.44 -5.1,-8.24 -5.13,-14.39 0,-6.15 1.8,-11.15 5.4,-14.98 3.6,-3.84 8.17,-5.75 13.69,-5.75 5.29,0 9.51,1.61 12.65,4.85 3.14,3.24 4.7,7.88 4.7,13.94l0 4.5zm-10.44 -7c0,-3.05 -0.58,-5.25 -1.77,-6.61 -1.19,-1.35 -2.93,-2.03 -5.21,-2.03 -2.03,0 -3.78,0.78 -5.24,2.33 -1.46,1.55 -2.36,3.65 -2.68,6.31l14.9 0z"/>
   <path id="4" class="fil5" d="M1954.36 267.17l-10.61 0 0 -5.56 -0.15 0c-1.3,2.15 -2.9,3.76 -4.84,4.85 -1.93,1.09 -4.11,1.63 -6.55,1.63 -3.43,0 -6.3,-1.02 -8.65,-3.05 -2.34,-2.04 -3.51,-4.89 -3.51,-8.53 0,-3.56 1.16,-6.45 3.5,-8.67 2.32,-2.23 5.93,-3.66 10.82,-4.33l9.45 -1.27 0 -0.74c0,-1.97 -0.61,-3.46 -1.84,-4.46 -1.22,-1 -2.9,-1.5 -5.05,-1.5 -1.63,0 -3.4,0.27 -5.3,0.82 -1.88,0.55 -3.78,1.41 -5.68,2.61l-4 -6.62c2.52,-1.56 5.06,-2.71 7.63,-3.45 2.58,-0.73 5.38,-1.09 8.38,-1.09 5.59,0 9.72,1.34 12.39,4.03 2.67,2.68 4.01,6.73 4.01,12.16l0 23.17zm-10.54 -15.6l0 -2.74 -7.29 0.91c-2.06,0.3 -3.58,0.9 -4.58,1.81 -1,0.92 -1.5,2.15 -1.5,3.69 0,1.41 0.48,2.57 1.46,3.47 0.97,0.92 2.3,1.37 3.96,1.37 2.34,0 4.25,-0.82 5.73,-2.43 1.47,-1.61 2.22,-3.64 2.22,-6.08z"/>
   <path id="5" class="fil5" d="M1960.81 263.95l4.61 -7.5c1.29,1 2.83,1.85 4.6,2.54 1.76,0.7 3.73,1.05 5.88,1.05 1.63,0 2.97,-0.3 4.01,-0.9 1.04,-0.6 1.55,-1.52 1.55,-2.73 0,-1 -0.4,-1.79 -1.21,-2.36 -0.8,-0.57 -2.29,-1.1 -4.47,-1.56 -4.76,-1.03 -8.17,-2.45 -10.25,-4.29 -2.07,-1.83 -3.11,-4.4 -3.11,-7.73 0,-3.85 1.53,-6.92 4.59,-9.22 3.06,-2.3 6.84,-3.44 11.3,-3.44 2.32,0 4.5,0.29 6.54,0.88 2.03,0.58 3.97,1.47 5.8,2.67l-4.22 7.25c-1.53,-0.97 -2.97,-1.69 -4.33,-2.15 -1.35,-0.45 -2.75,-0.67 -4.19,-0.67 -1.69,0 -3.03,0.32 -4.03,0.95 -1,0.63 -1.51,1.46 -1.51,2.46 0,1.1 0.46,1.91 1.38,2.44 0.92,0.52 2.67,1.05 5.26,1.58 4.41,0.9 7.6,2.32 9.54,4.22 1.93,1.9 2.91,4.48 2.91,7.76 0,3.89 -1.46,7 -4.4,9.36 -2.93,2.35 -6.81,3.53 -11.64,3.53 -2.64,0 -5.15,-0.34 -7.55,-1 -2.39,-0.68 -4.75,-1.73 -7.06,-3.14z"/>
  </g>
 </g>
</svg>
