<?xml version="1.0" encoding="UTF-8"?>
<!DOCTYPE svg PUBLIC "-//W3C//DTD SVG 1.1//EN" "http://www.w3.org/Graphics/SVG/1.1/DTD/svg11.dtd">
<!-- Creator: CorelDRAW 2020 (64-Bit) -->
<svg xmlns="http://www.w3.org/2000/svg" xml:space="preserve" width="3680px" height="1900px" version="1.1" style="shape-rendering:geometricPrecision; text-rendering:geometricPrecision; image-rendering:optimizeQuality; fill-rule:evenodd; clip-rule:evenodd"
viewBox="0 0 3680 1900.05"
 xmlns:xlink="http://www.w3.org/1999/xlink"
 xmlns:xodm="http://www.corel.com/coreldraw/odm/2003">
 <defs>
  <style type="text/css">
   <![CDATA[
    .str1 {stroke:#FFC8D8;stroke-width:3;stroke-miterlimit:22.9256;stroke-dasharray:30.000000 15.000000}
    .str0 {stroke:#999999;stroke-width:3;stroke-miterlimit:22.9256}
    .str2 {stroke:#A00023;stroke-width:3;stroke-miterlimit:22.9256}
    .fil0 {fill:none}
    .fil1 {fill:gray}
    .fil4 {fill:#B10023}
    .fil5 {fill:black;fill-rule:nonzero}
    .fil6 {fill:#B3B3B3;fill-rule:nonzero}
    .fil2 {fill:white;fill-rule:nonzero}
    .fil3 {fill:#C8B4F0;fill-opacity:0.501961}
   ]]>
  </style>
 </defs>
 <g id="Capa_x0020_1">
  <metadata id="CorelCorpID_0Corel-Layer"/>
  <rect class="fil0" width="3680" height="1900.05"/>
  <g id="_2853054492688">
   <polygon class="fil1 str0" points="3440.79,456.25 3390.42,456.25 3390.42,1614.28 3246.64,1614.28 3246.64,456.25 3196.7,456.25 3318.53,285.77 "/>
   <polygon class="fil1 str0" points="239.21,1443.8 289.15,1443.8 289.15,285.77 432.93,285.77 432.93,1443.8 483.3,1443.8 361.04,1614.28 "/>
   <path class="fil2" d="M375.55 1071.04c1.1,2.38 1.9,4.68 2.4,6.92 0.51,2.24 0.75,4.66 0.75,7.27 0,7.02 -1.96,12.55 -5.93,16.58 -3.95,4.04 -9.57,6.06 -16.89,6.06 -6.89,0 -12.61,-2.21 -17.14,-6.61 -4.53,-4.4 -6.79,-10.21 -6.79,-17.41 0,-2.44 0.19,-4.63 0.55,-6.57 0.37,-1.93 0.95,-3.9 1.75,-5.93l7.95 3.04c-0.61,1.53 -1.06,3.02 -1.35,4.48 -0.28,1.44 -0.42,3.01 -0.42,4.69 0,3.81 1.33,7.08 3.99,9.82 2.65,2.75 6.25,4.12 10.77,4.12 4.66,0 8.31,-1.21 10.93,-3.61 2.63,-2.41 3.95,-5.7 3.95,-9.89 0,-1.2 -0.19,-2.62 -0.57,-4.27 -0.37,-1.65 -0.99,-3.34 -1.83,-5.06l7.88 -3.63z"/>
   <path id="1" class="fil2" d="M377.92 1037.59l0 9.14 -4.79 0 0 0.13c1.85,1.12 3.24,2.49 4.18,4.16 0.93,1.66 1.39,3.54 1.39,5.64 0,2.95 -0.87,5.43 -2.62,7.45 -1.76,2.01 -4.21,3.02 -7.34,3.02 -3.07,0 -5.55,-1 -7.47,-3.01 -1.92,-2 -3.15,-5.11 -3.72,-9.32l-1.1 -8.14 -0.64 0c-1.7,0 -2.98,0.53 -3.84,1.59 -0.86,1.05 -1.29,2.49 -1.29,4.34 0,1.41 0.24,2.93 0.71,4.57 0.47,1.62 1.22,3.26 2.25,4.9l-5.71 3.44c-1.34,-2.17 -2.33,-4.36 -2.97,-6.58 -0.62,-2.21 -0.93,-4.62 -0.93,-7.21 0,-4.81 1.15,-8.37 3.46,-10.66 2.32,-2.31 5.8,-3.46 10.48,-3.46l19.95 0zm-13.43 9.07l-2.37 0 0.79 6.28c0.25,1.77 0.77,3.09 1.56,3.95 0.79,0.86 1.85,1.29 3.17,1.29 1.22,0 2.22,-0.42 2.99,-1.26 0.79,-0.84 1.18,-1.98 1.18,-3.41 0,-2.01 -0.7,-3.66 -2.09,-4.93 -1.39,-1.27 -3.13,-1.92 -5.23,-1.92z"/>
   <path id="2" class="fil2" d="M373.98 1019.21l-0.03 0.1 18.82 0.03 0 9.61 -47.92 0.03 0 -9.67 5.1 0.03 -0.03 -0.16c-1.97,-1.26 -3.45,-2.79 -4.43,-4.59 -0.98,-1.79 -1.46,-3.84 -1.46,-6.13 0,-4.27 1.46,-7.58 4.41,-9.91 2.94,-2.35 6.94,-3.52 12.01,-3.52 5.51,-0.03 9.92,1.33 13.26,4.07 3.33,2.73 4.99,6.36 4.99,10.88 0,2.01 -0.38,3.78 -1.16,5.3 -0.77,1.53 -1.97,2.83 -3.56,3.93zm-13.56 0.25l2.87 0c2.33,0 4.25,-0.64 5.75,-1.91 1.51,-1.27 2.26,-2.94 2.26,-4.99 0,-2.42 -0.95,-4.31 -2.82,-5.66 -1.88,-1.36 -4.53,-2.04 -7.93,-2.04 -3.01,0 -5.28,0.61 -6.8,1.81 -1.52,1.22 -2.27,2.98 -2.25,5.32 -0.02,2.2 0.79,4 2.44,5.39 1.65,1.39 3.81,2.08 6.48,2.08z"/>
   <path id="3" class="fil2" d="M377.92 961.29l0 9.13 -4.79 0 0 0.13c1.85,1.12 3.24,2.5 4.18,4.17 0.93,1.65 1.39,3.54 1.39,5.64 0,2.95 -0.87,5.42 -2.62,7.44 -1.76,2.02 -4.21,3.03 -7.34,3.03 -3.07,0 -5.55,-1 -7.47,-3.01 -1.92,-2.01 -3.15,-5.12 -3.72,-9.32l-1.1 -8.14 -0.64 0c-1.7,0 -2.98,0.53 -3.84,1.58 -0.86,1.06 -1.29,2.5 -1.29,4.35 0,1.41 0.24,2.93 0.71,4.56 0.47,1.63 1.22,3.26 2.25,4.9l-5.71 3.44c-1.34,-2.17 -2.33,-4.36 -2.97,-6.57 -0.62,-2.22 -0.93,-4.63 -0.93,-7.21 0,-4.81 1.15,-8.38 3.46,-10.67 2.32,-2.3 5.8,-3.45 10.48,-3.45l19.95 0zm-13.43 9.07l-2.37 0 0.79 6.27c0.25,1.78 0.77,3.09 1.56,3.95 0.79,0.86 1.85,1.29 3.17,1.29 1.22,0 2.22,-0.42 2.99,-1.25 0.79,-0.84 1.18,-1.99 1.18,-3.42 0,-2.01 -0.7,-3.66 -2.09,-4.93 -1.39,-1.27 -3.13,-1.91 -5.23,-1.91z"/>
   <path id="4" class="fil2" d="M375.74 926.29c1.04,1.68 1.78,3.39 2.25,5.12 0.48,1.73 0.71,3.62 0.71,5.66 0,5.51 -1.52,9.8 -4.58,12.89 -3.06,3.09 -7.04,4.64 -11.94,4.64 -5.6,0 -10.04,-1.65 -13.29,-4.97 -3.25,-3.3 -4.86,-7.69 -4.86,-13.16 0,-2.01 0.19,-3.8 0.59,-5.34 0.4,-1.55 1.03,-3.09 1.89,-4.63l6.53 3.6c-0.56,0.99 -0.97,1.96 -1.23,2.9 -0.25,0.95 -0.38,1.98 -0.38,3.09 0,2.74 0.89,4.87 2.65,6.41 1.76,1.52 4.25,2.3 7.45,2.3 3.06,0 5.45,-0.83 7.19,-2.48 1.72,-1.65 2.58,-3.71 2.58,-6.2 0,-0.73 -0.15,-1.64 -0.46,-2.74 -0.3,-1.09 -0.8,-2.2 -1.5,-3.3l6.4 -3.79z"/>
   <path id="5" class="fil2" d="M340.4 915.37c0,1.68 -0.52,3.06 -1.53,4.14 -1.02,1.07 -2.29,1.6 -3.8,1.6 -1.56,0 -2.84,-0.53 -3.83,-1.6 -1,-1.08 -1.5,-2.46 -1.5,-4.14 0,-1.68 0.5,-3.05 1.5,-4.11 0.99,-1.06 2.27,-1.59 3.83,-1.59 1.55,0 2.83,0.53 3.84,1.59 0.98,1.06 1.49,2.43 1.49,4.11zm37.52 -4.72l0 9.61 -33.07 0 0 -9.61 33.07 0z"/>
   <path id="6" class="fil2" d="M373.25 878.87c1.81,1.17 3.17,2.62 4.09,4.35 0.91,1.72 1.36,3.73 1.36,6.02 0,4.11 -1.46,7.44 -4.38,9.98 -2.91,2.53 -6.98,3.8 -12.2,3.8 -5.47,0 -9.85,-1.4 -13.14,-4.2 -3.31,-2.8 -4.95,-6.44 -4.95,-10.93 0,-2.16 0.39,-3.98 1.16,-5.48 0.77,-1.5 1.95,-2.68 3.5,-3.54l0 -0.13 -18.57 0 0 -9.66 47.8 0 0 9.66 -4.67 0 0 0.13zm-11.41 14.34c3,0 5.33,-0.64 6.98,-1.93 1.65,-1.31 2.48,-3.08 2.48,-5.35 0,-2.19 -0.86,-3.96 -2.57,-5.33 -1.71,-1.37 -3.97,-2.06 -6.76,-2.06l-2.78 0c-2.2,0 -4.04,0.66 -5.52,1.98 -1.47,1.32 -2.2,3.01 -2.2,5.1 0,2.36 0.91,4.23 2.75,5.57 1.84,1.35 4.38,2.02 7.62,2.02z"/>
   <path id="7" class="fil2" d="M377.92 832.8l0 9.14 -4.79 0 0 0.13c1.85,1.12 3.24,2.5 4.18,4.17 0.93,1.65 1.39,3.54 1.39,5.63 0,2.95 -0.87,5.43 -2.62,7.45 -1.76,2.01 -4.21,3.03 -7.34,3.03 -3.07,0 -5.55,-1 -7.47,-3.02 -1.92,-2 -3.15,-5.11 -3.72,-9.32l-1.1 -8.13 -0.64 0c-1.7,0 -2.98,0.52 -3.84,1.58 -0.86,1.05 -1.29,2.5 -1.29,4.35 0,1.41 0.24,2.92 0.71,4.56 0.47,1.62 1.22,3.26 2.25,4.9l-5.71 3.44c-1.34,-2.17 -2.33,-4.36 -2.97,-6.58 -0.62,-2.21 -0.93,-4.62 -0.93,-7.21 0,-4.81 1.15,-8.37 3.46,-10.66 2.32,-2.31 5.8,-3.46 10.48,-3.46l19.95 0zm-13.43 9.08l-2.37 0 0.79 6.27c0.25,1.78 0.77,3.09 1.56,3.95 0.79,0.86 1.85,1.29 3.17,1.29 1.22,0 2.22,-0.42 2.99,-1.26 0.79,-0.84 1.18,-1.98 1.18,-3.41 0,-2.01 -0.7,-3.66 -2.09,-4.93 -1.39,-1.27 -3.13,-1.91 -5.23,-1.91z"/>
   <path id="8" class="fil2" d="M373.25 801.97c1.81,1.17 3.17,2.63 4.09,4.35 0.91,1.72 1.36,3.73 1.36,6.02 0,4.12 -1.46,7.44 -4.38,9.98 -2.91,2.53 -6.98,3.8 -12.2,3.8 -5.47,0 -9.85,-1.4 -13.14,-4.2 -3.31,-2.8 -4.95,-6.43 -4.95,-10.93 0,-2.15 0.39,-3.97 1.16,-5.48 0.77,-1.5 1.95,-2.68 3.5,-3.54l0 -0.13 -18.57 0 0 -9.65 47.8 0 0 9.65 -4.67 0 0 0.13zm-11.41 14.35c3,0 5.33,-0.65 6.98,-1.94 1.65,-1.3 2.48,-3.08 2.48,-5.35 0,-2.19 -0.86,-3.96 -2.57,-5.33 -1.71,-1.37 -3.97,-2.05 -6.76,-2.05l-2.78 0c-2.2,0 -4.04,0.65 -5.52,1.98 -1.47,1.31 -2.2,3 -2.2,5.09 0,2.36 0.91,4.23 2.75,5.57 1.84,1.35 4.38,2.03 7.62,2.03z"/>
   <path class="fil2" d="M3297.23 1176.47l45.22 15.67 0 11.13 -45.22 15.48 0 -10.66 31.78 -9.61c0.84,-0.26 1.63,-0.45 2.37,-0.6 0.73,-0.15 1.42,-0.25 2.08,-0.31l0 -0.2c-0.67,-0.08 -1.4,-0.2 -2.17,-0.36 -0.78,-0.15 -1.59,-0.36 -2.4,-0.62l-31.66 -9.61 0 -10.31z"/>
   <path id="1" class="fil2" d="M3328.61 1146.08l0 21.78c2.56,-0.16 4.47,-1 5.73,-2.48 1.26,-1.5 1.9,-3.57 1.9,-6.21 0,-0.95 -0.28,-2.25 -0.84,-3.92 -0.56,-1.66 -1.42,-3.28 -2.6,-4.89l5.58 -4.22c1.68,2.23 2.91,4.51 3.69,6.86 0.77,2.35 1.16,4.91 1.16,7.71 0,5.29 -1.47,9.4 -4.44,12.33 -2.96,2.92 -7.1,4.39 -12.39,4.41 -5.3,0 -9.6,-1.55 -12.89,-4.65 -3.31,-3.1 -4.96,-7.03 -4.96,-11.78 0,-4.56 1.39,-8.19 4.18,-10.89 2.79,-2.71 6.78,-4.05 12,-4.05l3.88 0zm-6.03 8.99c-2.63,0 -4.52,0.5 -5.69,1.52 -1.17,1.03 -1.75,2.52 -1.75,4.49 0,1.75 0.67,3.25 2,4.51 1.34,1.26 3.15,2.04 5.44,2.3l0 -12.82z"/>
   <polygon id="2" class="fil2" points="3342.45,1139.4 3294.65,1139.4 3294.65,1129.75 3342.45,1129.75 "/>
   <path id="3" class="fil2" d="M3343.23 1105c0,5.44 -1.54,9.73 -4.63,12.86 -3.1,3.13 -7.27,4.7 -12.55,4.7 -5.48,-0.02 -9.78,-1.64 -12.87,-4.88 -3.09,-3.24 -4.63,-7.62 -4.63,-13.16 0,-5.44 1.54,-9.7 4.62,-12.78 3.08,-3.08 7.18,-4.62 12.31,-4.62 5.47,0 9.79,1.59 12.97,4.79 3.19,3.2 4.78,7.56 4.78,13.09zm-7.4 -0.35c0,-2.57 -0.85,-4.49 -2.56,-5.79 -1.7,-1.29 -4.23,-1.93 -7.6,-1.93 -3.19,0 -5.61,0.65 -7.24,1.95 -1.62,1.31 -2.44,3.24 -2.44,5.84 0,2.54 0.87,4.52 2.62,5.92 1.74,1.41 4.18,2.12 7.32,2.12 3.28,0 5.74,-0.69 7.4,-2.06 1.67,-1.36 2.5,-3.38 2.5,-6.05z"/>
   <path id="4" class="fil2" d="M3340.27 1053.54c1.04,1.68 1.78,3.39 2.25,5.12 0.48,1.74 0.71,3.62 0.71,5.67 0,5.51 -1.53,9.8 -4.58,12.89 -3.06,3.09 -7.04,4.64 -11.94,4.64 -5.61,0 -10.04,-1.66 -13.29,-4.97 -3.25,-3.31 -4.87,-7.7 -4.87,-13.17 0,-2.01 0.2,-3.8 0.6,-5.33 0.4,-1.56 1.03,-3.09 1.89,-4.63l6.52 3.59c-0.56,0.99 -0.97,1.96 -1.22,2.91 -0.25,0.95 -0.38,1.98 -0.38,3.09 0,2.73 0.88,4.86 2.65,6.4 1.76,1.53 4.25,2.3 7.44,2.3 3.07,0 5.46,-0.83 7.19,-2.47 1.73,-1.66 2.59,-3.72 2.59,-6.2 0,-0.73 -0.15,-1.65 -0.47,-2.75 -0.3,-1.08 -0.79,-2.19 -1.49,-3.3l6.4 -3.79z"/>
   <path id="5" class="fil2" d="M3304.93 1042.63c0,1.68 -0.52,3.06 -1.53,4.13 -1.02,1.08 -2.29,1.61 -3.8,1.61 -1.56,0 -2.84,-0.53 -3.83,-1.61 -1,-1.07 -1.51,-2.45 -1.51,-4.13 0,-1.68 0.51,-3.06 1.51,-4.11 0.99,-1.07 2.27,-1.6 3.83,-1.6 1.55,0 2.83,0.53 3.83,1.6 0.99,1.05 1.5,2.43 1.5,4.11zm37.52 -4.73l0 9.61 -33.08 0 0 -9.61 33.08 0z"/>
   <path id="6" class="fil2" d="M3337.77 1006.12c1.81,1.18 3.18,2.63 4.09,4.35 0.92,1.72 1.37,3.74 1.37,6.03 0,4.11 -1.46,7.43 -4.38,9.97 -2.92,2.53 -6.98,3.8 -12.2,3.8 -5.47,0 -9.85,-1.4 -13.14,-4.19 -3.31,-2.8 -4.96,-6.44 -4.96,-10.94 0,-2.15 0.39,-3.97 1.17,-5.48 0.77,-1.49 1.95,-2.68 3.5,-3.54l0 -0.13 -18.57 0 0 -9.65 47.8 0 0 9.65 -4.68 0 0 0.13zm-11.4 14.35c3,0 5.32,-0.65 6.98,-1.94 1.65,-1.3 2.48,-3.08 2.48,-5.35 0,-2.18 -0.86,-3.96 -2.58,-5.33 -1.71,-1.36 -3.97,-2.05 -6.75,-2.05l-2.78 0c-2.21,0 -4.05,0.66 -5.52,1.98 -1.48,1.31 -2.21,3 -2.21,5.09 0,2.37 0.92,4.23 2.76,5.58 1.84,1.34 4.38,2.02 7.62,2.02z"/>
   <path id="7" class="fil2" d="M3342.45 960.06l0 9.14 -4.79 0 0 0.12c1.85,1.12 3.24,2.5 4.17,4.17 0.94,1.66 1.4,3.54 1.4,5.64 0,2.95 -0.87,5.42 -2.62,7.45 -1.76,2.01 -4.21,3.02 -7.34,3.02 -3.07,0 -5.56,-1 -7.47,-3.01 -1.92,-2 -3.16,-5.11 -3.73,-9.32l-1.09 -8.14 -0.64 0c-1.7,0 -2.98,0.53 -3.84,1.58 -0.86,1.06 -1.29,2.5 -1.29,4.35 0,1.41 0.23,2.93 0.71,4.57 0.47,1.62 1.21,3.26 2.25,4.89l-5.71 3.45c-1.34,-2.18 -2.33,-4.36 -2.97,-6.58 -0.62,-2.22 -0.94,-4.63 -0.94,-7.21 0,-4.81 1.16,-8.37 3.47,-10.67 2.31,-2.3 5.8,-3.45 10.47,-3.45l19.96 0zm-13.44 9.07l-2.36 0 0.78 6.28c0.26,1.77 0.78,3.09 1.56,3.95 0.8,0.86 1.85,1.29 3.18,1.29 1.21,0 2.21,-0.42 2.99,-1.26 0.79,-0.84 1.17,-1.98 1.17,-3.41 0,-2.02 -0.7,-3.66 -2.08,-4.93 -1.39,-1.27 -3.14,-1.92 -5.24,-1.92z"/>
   <path id="8" class="fil2" d="M3337.77 929.22c1.81,1.18 3.18,2.63 4.09,4.35 0.92,1.73 1.37,3.74 1.37,6.03 0,4.11 -1.46,7.44 -4.38,9.98 -2.92,2.53 -6.98,3.8 -12.2,3.8 -5.47,0 -9.85,-1.4 -13.14,-4.2 -3.31,-2.8 -4.96,-6.44 -4.96,-10.94 0,-2.15 0.39,-3.97 1.17,-5.47 0.77,-1.5 1.95,-2.68 3.5,-3.55l0 -0.12 -18.57 0 0 -9.66 47.8 0 0 9.66 -4.68 0 0 0.12zm-11.4 14.35c3,0 5.32,-0.64 6.98,-1.94 1.65,-1.3 2.48,-3.07 2.48,-5.35 0,-2.18 -0.86,-3.96 -2.58,-5.32 -1.71,-1.37 -3.97,-2.06 -6.75,-2.06l-2.78 0c-2.21,0 -4.05,0.66 -5.52,1.98 -1.48,1.31 -2.21,3 -2.21,5.09 0,2.37 0.92,4.23 2.76,5.58 1.84,1.34 4.38,2.02 7.62,2.02z"/>
   <polygon id="9" class="fil2" points="3328.35,892.25 3321.58,892.28 3321.58,874.99 3328.35,875.03 "/>
   <path id="10" class="fil2" d="M3340.08 813.04c1.1,2.38 1.89,4.69 2.4,6.92 0.5,2.24 0.75,4.66 0.75,7.27 0,7.03 -1.97,12.55 -5.93,16.58 -3.95,4.04 -9.58,6.06 -16.9,6.06 -6.88,0 -12.6,-2.2 -17.13,-6.61 -4.53,-4.4 -6.79,-10.21 -6.79,-17.41 0,-2.44 0.18,-4.63 0.55,-6.56 0.36,-1.94 0.95,-3.91 1.74,-5.93l7.96 3.03c-0.62,1.53 -1.06,3.03 -1.35,4.48 -0.28,1.44 -0.42,3.01 -0.42,4.69 0,3.81 1.32,7.08 3.98,9.83 2.66,2.74 6.25,4.11 10.78,4.11 4.66,0 8.3,-1.21 10.93,-3.61 2.63,-2.41 3.95,-5.7 3.95,-9.89 0,-1.19 -0.19,-2.61 -0.57,-4.27 -0.38,-1.65 -0.99,-3.34 -1.83,-5.06l7.88 -3.63z"/>
   <path id="11" class="fil2" d="M3343.23 791.13c0,5.45 -1.54,9.73 -4.63,12.86 -3.1,3.13 -7.27,4.71 -12.55,4.71 -5.48,-0.02 -9.78,-1.65 -12.87,-4.89 -3.09,-3.24 -4.63,-7.62 -4.63,-13.15 0,-5.45 1.54,-9.71 4.62,-12.79 3.08,-3.08 7.18,-4.61 12.31,-4.61 5.47,0 9.79,1.59 12.97,4.78 3.19,3.2 4.78,7.56 4.78,13.09zm-7.4 -0.34c0,-2.57 -0.85,-4.5 -2.56,-5.79 -1.7,-1.29 -4.23,-1.94 -7.6,-1.94 -3.19,0 -5.61,0.66 -7.24,1.96 -1.62,1.3 -2.44,3.24 -2.44,5.83 0,2.54 0.87,4.52 2.62,5.92 1.74,1.41 4.18,2.12 7.32,2.12 3.28,0 5.74,-0.69 7.4,-2.05 1.67,-1.37 2.5,-3.38 2.5,-6.05z"/>
   <path id="12" class="fil2" d="M3339.67 769.12l-6.46 -3.97c0.86,-1.11 1.59,-2.43 2.19,-3.96 0.6,-1.52 0.9,-3.21 0.9,-5.06 0,-1.41 -0.26,-2.56 -0.77,-3.45 -0.52,-0.9 -1.31,-1.34 -2.35,-1.34 -0.86,0 -1.54,0.35 -2.03,1.05 -0.5,0.69 -0.95,1.97 -1.35,3.84 -0.88,4.1 -2.11,7.04 -3.69,8.82 -1.57,1.79 -3.79,2.68 -6.65,2.68 -3.32,0 -5.96,-1.31 -7.95,-3.95 -1.98,-2.63 -2.96,-5.88 -2.96,-9.73 0,-2 0.25,-3.87 0.76,-5.62 0.5,-1.76 1.27,-3.43 2.3,-5l6.24 3.63c-0.84,1.32 -1.45,2.56 -1.85,3.73 -0.38,1.17 -0.58,2.37 -0.58,3.61 0,1.45 0.28,2.6 0.82,3.46 0.55,0.87 1.26,1.31 2.12,1.31 0.95,0 1.65,-0.4 2.1,-1.19 0.45,-0.79 0.9,-2.3 1.36,-4.53 0.78,-3.8 2,-6.54 3.63,-8.21 1.64,-1.67 3.87,-2.51 6.69,-2.51 3.34,0 6.02,1.26 8.06,3.79 2.02,2.52 3.03,5.87 3.03,10.02 0,2.27 -0.29,4.44 -0.86,6.5 -0.58,2.06 -1.48,4.09 -2.7,6.08z"/>
   <path id="13" class="fil2" d="M3341.91 716.21c0.44,1.01 0.77,2.15 0.99,3.38 0.22,1.24 0.33,2.49 0.33,3.75 0,3.54 -0.86,6.2 -2.58,7.99 -1.72,1.8 -4.3,2.71 -7.73,2.71l-16.39 0 -0.03 5.39 -7.13 0.03 0 -5.42 -7.48 0 -2.73 -9.63 10.21 0.04 0 -7.57 7.16 0 -0.03 7.53 15.83 0.04c1.34,0 2.31,-0.26 2.93,-0.79 0.61,-0.53 0.9,-1.34 0.88,-2.46 0.02,-0.57 -0.04,-1.11 -0.21,-1.63 -0.16,-0.52 -0.34,-0.99 -0.54,-1.43l6.52 -1.93z"/>
   <path id="14" class="fil2" d="M3328.61 681.31l0 21.78c2.56,-0.16 4.47,-1 5.73,-2.48 1.26,-1.5 1.9,-3.56 1.9,-6.21 0,-0.95 -0.28,-2.25 -0.84,-3.92 -0.56,-1.66 -1.42,-3.28 -2.6,-4.89l5.58 -4.22c1.68,2.23 2.91,4.51 3.69,6.86 0.77,2.35 1.16,4.91 1.16,7.71 0,5.29 -1.47,9.4 -4.44,12.33 -2.96,2.92 -7.1,4.39 -12.39,4.41 -5.3,0 -9.6,-1.55 -12.89,-4.65 -3.31,-3.1 -4.96,-7.02 -4.96,-11.78 0,-4.55 1.39,-8.19 4.18,-10.89 2.79,-2.7 6.78,-4.05 12,-4.05l3.88 0zm-6.03 8.99c-2.63,0 -4.52,0.5 -5.69,1.53 -1.17,1.02 -1.75,2.51 -1.75,4.48 0,1.75 0.67,3.25 2,4.51 1.34,1.26 3.15,2.04 5.44,2.31l0 -12.83z"/>
   <g>
    <path class="fil3" d="M664.54 259.08l2350.92 0c33.15,0 60.27,27.12 60.27,60.27l0 197.59c0,33.16 -27.12,60.28 -60.27,60.28l-2350.92 0c-33.15,0 -60.27,-27.12 -60.27,-60.28l0 -197.59c0,-33.15 27.12,-60.27 60.27,-60.27z"/>
    <path id="1" class="fil0 str1" d="M664.54 259.08l2350.92 0c33.15,0 60.27,27.12 60.27,60.27l0 197.59c0,33.16 -27.12,60.28 -60.27,60.28l-2350.92 0c-33.15,0 -60.27,-27.12 -60.27,-60.28l0 -197.59c0,-33.15 27.12,-60.27 60.27,-60.27z"/>
   </g>
   <g>
    <path class="fil3" d="M664.54 768.79l2350.92 0c33.15,0 60.27,27.12 60.27,60.27l0 197.59c0,33.15 -27.12,60.27 -60.27,60.27l-2350.92 0c-33.15,0 -60.27,-27.12 -60.27,-60.27l0 -197.59c0,-33.15 27.12,-60.27 60.27,-60.27z"/>
    <path id="1" class="fil0 str1" d="M664.54 768.79l2350.92 0c33.15,0 60.27,27.12 60.27,60.27l0 197.59c0,33.15 -27.12,60.27 -60.27,60.27l-2350.92 0c-33.15,0 -60.27,-27.12 -60.27,-60.27l0 -197.59c0,-33.15 27.12,-60.27 60.27,-60.27z"/>
   </g>
   <g>
    <path class="fil3" d="M664.54 1322.83l2350.92 0c33.15,0 60.27,27.12 60.27,60.27l0 197.6c0,33.15 -27.12,60.27 -60.27,60.27l-2350.92 0c-33.15,0 -60.27,-27.12 -60.27,-60.27l0 -197.6c0,-33.15 27.12,-60.27 60.27,-60.27z"/>
    <path id="1" class="fil0 str1" d="M664.54 1322.83l2350.92 0c33.15,0 60.27,27.12 60.27,60.27l0 197.6c0,33.15 -27.12,60.27 -60.27,60.27l-2350.92 0c-33.15,0 -60.27,-27.12 -60.27,-60.27l0 -197.6c0,-33.15 27.12,-60.27 60.27,-60.27z"/>
   </g>
   <polygon class="fil4 str2" points="1721.4,312.03 1721.4,515.66 2280.61,515.66 2280.61,312.03 "/>
   <polygon class="fil4 str2" points="1302.96,831.21 1302.96,1034.83 1862.17,1034.83 1862.17,831.21 "/>
   <polygon class="fil4 str2" points="2139.84,831.21 2139.84,1034.83 2699.48,1034.83 2699.48,831.21 "/>
   <polygon class="fil4 str2" points="1824.72,1380.52 1824.72,1583.71 2383.93,1583.71 2383.93,1380.52 "/>
   <polygon class="fil4 str2" points="2455.39,1380.52 2455.39,1583.71 3014.6,1583.71 3014.6,1380.52 "/>
   <path class="fil5" d="M682.94 1490.65l0 14.95 -9.9 0 0.03 -45.22 15.73 0c5.63,0 9.87,1.23 12.7,3.7 2.85,2.45 4.27,6.13 4.27,11.03 0,4.65 -1.63,8.39 -4.88,11.26 -3.25,2.86 -7.58,4.28 -13,4.28l-4.95 0zm0 -22.63l0 15.1 4.1 0.03c2.77,0 4.85,-0.65 6.25,-1.93 1.4,-1.28 2.09,-3.21 2.07,-5.77 0,-2.47 -0.69,-4.33 -2.07,-5.57 -1.37,-1.25 -3.44,-1.86 -6.2,-1.86l-4.15 0z"/>
   <path id="1" class="fil5" d="M739.97 1491.76l-21.78 0c0.16,2.56 1,4.48 2.48,5.73 1.5,1.26 3.56,1.9 6.21,1.9 0.95,0 2.25,-0.28 3.92,-0.84 1.66,-0.56 3.28,-1.42 4.89,-2.59l4.21 5.57c-2.22,1.68 -4.5,2.92 -6.85,3.69 -2.35,0.78 -4.91,1.16 -7.71,1.16 -5.29,0 -9.4,-1.47 -12.33,-4.44 -2.92,-2.96 -4.39,-7.09 -4.41,-12.39 0,-5.29 1.55,-9.6 4.65,-12.89 3.1,-3.31 7.02,-4.95 11.78,-4.95 4.55,0 8.19,1.39 10.89,4.17 2.7,2.79 4.05,6.78 4.05,12l0 3.88zm-8.99 -6.03c0,-2.62 -0.5,-4.52 -1.53,-5.69 -1.02,-1.16 -2.51,-1.75 -4.48,-1.75 -1.75,0 -3.25,0.67 -4.51,2.01 -1.26,1.33 -2.04,3.14 -2.31,5.43l12.83 0z"/>
   <path id="2" class="fil5" d="M766.98 1480.56c-0.42,-0.1 -0.84,-0.18 -1.27,-0.23 -0.43,-0.06 -0.92,-0.08 -1.46,-0.08 -2.64,0 -4.62,0.83 -5.95,2.5 -1.34,1.68 -2,3.99 -2,6.95l0 15.9 -9.65 0 0 -33.07 9.65 0 0 6.17 0.13 0c0.79,-2.25 1.92,-3.94 3.39,-5.08 1.46,-1.13 3.24,-1.7 5.34,-1.7 0.5,0 0.98,0.05 1.45,0.11 0.46,0.08 0.95,0.16 1.48,0.27l-1.11 8.26z"/>
   <path id="3" class="fil5" d="M770.46 1502.82l3.97 -6.46c1.11,0.87 2.43,1.6 3.96,2.19 1.52,0.6 3.21,0.9 5.06,0.9 1.41,0 2.56,-0.26 3.46,-0.77 0.89,-0.52 1.33,-1.3 1.33,-2.35 0,-0.86 -0.34,-1.54 -1.04,-2.03 -0.69,-0.5 -1.97,-0.95 -3.85,-1.35 -4.1,-0.88 -7.04,-2.11 -8.82,-3.69 -1.79,-1.57 -2.68,-3.79 -2.68,-6.65 0,-3.32 1.31,-5.96 3.95,-7.94 2.63,-1.98 5.89,-2.96 9.73,-2.96 2,0 3.87,0.25 5.63,0.75 1.75,0.51 3.42,1.27 4.99,2.3l-3.63 6.25c-1.32,-0.84 -2.56,-1.46 -3.73,-1.85 -1.16,-0.39 -2.37,-0.59 -3.61,-0.59 -1.45,0 -2.6,0.28 -3.46,0.82 -0.86,0.55 -1.3,1.26 -1.3,2.12 0,0.95 0.39,1.65 1.18,2.1 0.8,0.45 2.3,0.91 4.53,1.37 3.8,0.77 6.54,1.99 8.21,3.62 1.67,1.64 2.51,3.87 2.51,6.69 0,3.35 -1.26,6.02 -3.79,8.06 -2.52,2.02 -5.86,3.03 -10.02,3.03 -2.27,0 -4.43,-0.29 -6.5,-0.86 -2.06,-0.58 -4.09,-1.48 -6.08,-2.7z"/>
   <path id="4" class="fil5" d="M808.04 1468.08c-1.68,0 -3.05,-0.52 -4.13,-1.53 -1.08,-1.02 -1.6,-2.29 -1.6,-3.8 0,-1.56 0.52,-2.84 1.6,-3.83 1.08,-1 2.45,-1.5 4.13,-1.5 1.68,0 3.06,0.5 4.11,1.5 1.07,0.99 1.6,2.27 1.6,3.83 0,1.55 -0.53,2.83 -1.6,3.83 -1.05,0.99 -2.43,1.5 -4.11,1.5zm4.73 37.52l-9.61 0 0 -33.07 9.61 0 0 33.07z"/>
   <path id="5" class="fil5" d="M819.27 1502.82l3.97 -6.46c1.11,0.87 2.43,1.6 3.96,2.19 1.52,0.6 3.21,0.9 5.06,0.9 1.41,0 2.56,-0.26 3.45,-0.77 0.9,-0.52 1.34,-1.3 1.34,-2.35 0,-0.86 -0.35,-1.54 -1.05,-2.03 -0.69,-0.5 -1.97,-0.95 -3.84,-1.35 -4.1,-0.88 -7.04,-2.11 -8.82,-3.69 -1.79,-1.57 -2.68,-3.79 -2.68,-6.65 0,-3.32 1.31,-5.96 3.95,-7.94 2.63,-1.98 5.88,-2.96 9.73,-2.96 2,0 3.87,0.25 5.62,0.75 1.76,0.51 3.43,1.27 5,2.3l-3.63 6.25c-1.32,-0.84 -2.56,-1.46 -3.73,-1.85 -1.17,-0.39 -2.37,-0.59 -3.61,-0.59 -1.45,0 -2.6,0.28 -3.46,0.82 -0.86,0.55 -1.31,1.26 -1.31,2.12 0,0.95 0.4,1.65 1.19,2.1 0.79,0.45 2.3,0.91 4.53,1.37 3.8,0.77 6.54,1.99 8.21,3.62 1.67,1.64 2.51,3.87 2.51,6.69 0,3.35 -1.26,6.02 -3.79,8.06 -2.52,2.02 -5.87,3.03 -10.02,3.03 -2.27,0 -4.43,-0.29 -6.5,-0.86 -2.06,-0.58 -4.09,-1.48 -6.08,-2.7z"/>
   <path id="6" class="fil5" d="M872.18 1505.06c-1.01,0.44 -2.14,0.77 -3.38,0.99 -1.24,0.23 -2.49,0.33 -3.75,0.33 -3.54,0 -6.2,-0.86 -7.99,-2.58 -1.8,-1.72 -2.71,-4.29 -2.71,-7.73l0 -16.39 -5.39 -0.03 -0.03 -7.12 5.42 0 0 -7.48 9.63 -2.74 -0.04 10.22 7.57 0 0 7.15 -7.53 -0.03 -0.04 15.83c0,1.35 0.26,2.32 0.79,2.93 0.53,0.61 1.34,0.9 2.46,0.88 0.57,0.02 1.11,-0.04 1.63,-0.2 0.52,-0.16 0.99,-0.35 1.43,-0.55l1.93 6.52z"/>
   <path id="7" class="fil5" d="M907.08 1491.76l-21.78 0c0.16,2.56 1,4.48 2.48,5.73 1.5,1.26 3.57,1.9 6.21,1.9 0.95,0 2.25,-0.28 3.92,-0.84 1.66,-0.56 3.28,-1.42 4.89,-2.59l4.22 5.57c-2.23,1.68 -4.51,2.92 -6.86,3.69 -2.35,0.78 -4.91,1.16 -7.71,1.16 -5.29,0 -9.4,-1.47 -12.33,-4.44 -2.92,-2.96 -4.39,-7.09 -4.41,-12.39 0,-5.29 1.55,-9.6 4.65,-12.89 3.1,-3.31 7.02,-4.95 11.78,-4.95 4.55,0 8.19,1.39 10.89,4.17 2.7,2.79 4.05,6.78 4.05,12l0 3.88zm-8.99 -6.03c0,-2.62 -0.5,-4.52 -1.53,-5.69 -1.02,-1.16 -2.51,-1.75 -4.48,-1.75 -1.75,0 -3.25,0.67 -4.51,2.01 -1.26,1.33 -2.04,3.14 -2.31,5.43l12.83 0z"/>
   <path id="8" class="fil5" d="M945.2 1505.6l-9.62 0 0 -18.45c0,-2.65 -0.47,-4.64 -1.43,-5.97 -0.96,-1.34 -2.39,-2.01 -4.31,-2.04 -1.87,0.03 -3.41,0.75 -4.61,2.17 -1.22,1.42 -1.82,3.22 -1.82,5.4l-0.03 18.89 -9.62 0 -0.03 -33.07 9.68 0 -0.03 5.26 0.16 0c1.21,-2.04 2.71,-3.56 4.48,-4.55 1.79,-1 3.84,-1.5 6.17,-1.5 3.66,-0.02 6.4,1.11 8.25,3.4 1.84,2.29 2.76,5.69 2.76,10.21l0 20.25z"/>
   <path id="9" class="fil5" d="M980.2 1503.42c-1.68,1.04 -3.39,1.78 -5.12,2.25 -1.73,0.48 -3.62,0.71 -5.66,0.71 -5.51,0 -9.81,-1.52 -12.9,-4.58 -3.09,-3.06 -4.64,-7.04 -4.64,-11.94 0,-5.6 1.66,-10.04 4.98,-13.29 3.3,-3.25 7.69,-4.86 13.16,-4.86 2.01,0 3.8,0.19 5.34,0.59 1.55,0.4 3.09,1.03 4.63,1.89l-3.6 6.53c-0.99,-0.56 -1.96,-0.97 -2.91,-1.23 -0.94,-0.25 -1.98,-0.38 -3.08,-0.38 -2.74,0 -4.87,0.89 -6.41,2.65 -1.53,1.76 -2.3,4.25 -2.3,7.45 0,3.06 0.83,5.45 2.47,7.19 1.66,1.72 3.72,2.58 6.2,2.58 0.74,0 1.65,-0.15 2.75,-0.46 1.08,-0.3 2.19,-0.8 3.3,-1.5l3.79 6.4z"/>
   <path id="10" class="fil5" d="M991.11 1468.08c-1.68,0 -3.05,-0.52 -4.13,-1.53 -1.07,-1.02 -1.6,-2.29 -1.6,-3.8 0,-1.56 0.53,-2.84 1.6,-3.83 1.08,-1 2.45,-1.5 4.13,-1.5 1.68,0 3.06,0.5 4.12,1.5 1.06,0.99 1.59,2.27 1.59,3.83 0,1.55 -0.53,2.83 -1.59,3.83 -1.06,0.99 -2.44,1.5 -4.12,1.5zm4.73 37.52l-9.61 0 0 -33.07 9.61 0 0 33.07z"/>
   <path id="11" class="fil5" d="M1032.57 1505.6l-9.14 0 0 -4.79 -0.13 0c-1.11,1.85 -2.49,3.24 -4.16,4.18 -1.66,0.93 -3.54,1.39 -5.64,1.39 -2.95,0 -5.42,-0.87 -7.45,-2.62 -2.01,-1.76 -3.02,-4.21 -3.02,-7.34 0,-3.07 1,-5.55 3.01,-7.47 2,-1.92 5.11,-3.15 9.32,-3.72l8.14 -1.1 0 -0.64c0,-1.7 -0.53,-2.98 -1.58,-3.84 -1.06,-0.86 -2.5,-1.29 -4.35,-1.29 -1.41,0 -2.93,0.24 -4.57,0.71 -1.62,0.47 -3.26,1.22 -4.89,2.25l-3.45 -5.71c2.18,-1.34 4.36,-2.33 6.58,-2.97 2.22,-0.62 4.63,-0.93 7.21,-0.93 4.81,0 8.37,1.15 10.67,3.46 2.3,2.32 3.45,5.8 3.45,10.47l0 19.96zm-9.07 -13.43l0 -2.37 -6.28 0.79c-1.77,0.25 -3.09,0.77 -3.95,1.56 -0.86,0.79 -1.29,1.85 -1.29,3.17 0,1.22 0.42,2.22 1.26,2.99 0.84,0.79 1.98,1.17 3.41,1.17 2.02,0 3.66,-0.69 4.93,-2.08 1.27,-1.39 1.92,-3.13 1.92,-5.23z"/>
   <polygon class="fil5" points="680.36,951.55 670.49,951.55 670.49,906.34 680.36,906.34 "/>
   <path id="1" class="fil5" d="M721.85 951.55l-9.63 0 0 -18.44c0,-2.65 -0.47,-4.64 -1.43,-5.98 -0.96,-1.33 -2.39,-2.01 -4.3,-2.03 -1.88,0.02 -3.42,0.74 -4.62,2.16 -1.22,1.42 -1.82,3.22 -1.82,5.4l-0.03 18.89 -9.61 0 -0.03 -33.07 9.67 0 -0.03 5.26 0.16 0c1.22,-2.03 2.71,-3.56 4.49,-4.55 1.79,-1 3.83,-1.49 6.16,-1.49 3.66,-0.03 6.41,1.1 8.25,3.4 1.84,2.29 2.77,5.69 2.77,10.21l0 20.24z"/>
   <path id="2" class="fil5" d="M750.73 951.01c-1.01,0.45 -2.14,0.78 -3.38,1 -1.24,0.22 -2.48,0.33 -3.74,0.33 -3.54,0 -6.2,-0.86 -8,-2.58 -1.8,-1.73 -2.7,-4.3 -2.7,-7.73l0 -16.39 -5.39 -0.03 -0.04 -7.13 5.43 0 0 -7.48 9.62 -2.73 -0.03 10.21 7.56 0 0 7.16 -7.53 -0.03 -0.03 15.83c0,1.34 0.26,2.31 0.78,2.92 0.53,0.62 1.35,0.91 2.47,0.89 0.57,0.02 1.11,-0.05 1.62,-0.21 0.52,-0.16 0.99,-0.34 1.43,-0.55l1.93 6.52z"/>
   <path id="3" class="fil5" d="M785.63 937.71l-21.78 0c0.16,2.56 1,4.48 2.49,5.74 1.49,1.26 3.56,1.89 6.21,1.89 0.94,0 2.25,-0.28 3.91,-0.84 1.66,-0.56 3.29,-1.42 4.89,-2.59l4.22 5.58c-2.23,1.67 -4.51,2.91 -6.86,3.69 -2.34,0.77 -4.9,1.16 -7.7,1.16 -5.3,0 -9.41,-1.48 -12.34,-4.45 -2.91,-2.96 -4.39,-7.09 -4.41,-12.38 0,-5.3 1.55,-9.6 4.65,-12.9 3.1,-3.3 7.03,-4.95 11.79,-4.95 4.55,0 8.19,1.39 10.89,4.18 2.7,2.79 4.04,6.78 4.04,12l0 3.87zm-8.98 -6.02c0,-2.63 -0.51,-4.52 -1.53,-5.7 -1.02,-1.16 -2.52,-1.74 -4.49,-1.74 -1.74,0 -3.25,0.67 -4.51,2 -1.26,1.34 -2.03,3.14 -2.3,5.44l12.83 0z"/>
   <path id="4" class="fil5" d="M812.65 926.52c-0.42,-0.11 -0.84,-0.18 -1.27,-0.24 -0.43,-0.05 -0.93,-0.07 -1.46,-0.07 -2.64,0 -4.62,0.83 -5.96,2.49 -1.33,1.68 -2,4 -2,6.96l0 15.89 -9.64 0 0 -33.07 9.64 0 0 6.18 0.13 0c0.8,-2.25 1.93,-3.94 3.39,-5.08 1.46,-1.13 3.24,-1.7 5.35,-1.7 0.49,0 0.98,0.04 1.44,0.11 0.46,0.07 0.96,0.16 1.49,0.26l-1.11 8.27z"/>
   <path id="5" class="fil5" d="M844.94 949.38c-1.68,1.03 -3.39,1.78 -5.13,2.25 -1.73,0.47 -3.61,0.71 -5.66,0.71 -5.51,0 -9.8,-1.53 -12.89,-4.59 -3.09,-3.05 -4.64,-7.03 -4.64,-11.93 0,-5.61 1.66,-10.04 4.97,-13.29 3.31,-3.25 7.7,-4.87 13.16,-4.87 2.02,0 3.8,0.2 5.34,0.59 1.55,0.4 3.09,1.04 4.63,1.9l-3.59 6.52c-0.99,-0.56 -1.96,-0.97 -2.91,-1.23 -0.95,-0.24 -1.98,-0.37 -3.09,-0.37 -2.73,0 -4.86,0.88 -6.4,2.64 -1.53,1.77 -2.31,4.26 -2.31,7.45 0,3.07 0.83,5.46 2.48,7.19 1.66,1.72 3.71,2.58 6.2,2.58 0.73,0 1.65,-0.15 2.74,-0.46 1.09,-0.3 2.2,-0.79 3.31,-1.49l3.79 6.4z"/>
   <path id="6" class="fil5" d="M878.07 951.55l-9.13 0 0 -4.79 -0.13 0c-1.12,1.85 -2.5,3.24 -4.17,4.18 -1.66,0.94 -3.54,1.4 -5.64,1.4 -2.95,0 -5.42,-0.87 -7.44,-2.63 -2.02,-1.75 -3.03,-4.21 -3.03,-7.34 0,-3.06 1,-5.55 3.01,-7.47 2.01,-1.91 5.12,-3.15 9.32,-3.72l8.14 -1.1 0 -0.63c0,-1.7 -0.53,-2.98 -1.58,-3.84 -1.06,-0.87 -2.5,-1.3 -4.35,-1.3 -1.41,0 -2.93,0.24 -4.56,0.71 -1.63,0.48 -3.26,1.22 -4.9,2.25l-3.44 -5.7c2.17,-1.35 4.36,-2.34 6.57,-2.97 2.22,-0.63 4.63,-0.94 7.21,-0.94 4.81,0 8.38,1.15 10.67,3.47 2.3,2.31 3.45,5.8 3.45,10.47l0 19.95zm-9.07 -13.43l0 -2.37 -6.27 0.79c-1.78,0.26 -3.09,0.77 -3.95,1.56 -0.86,0.8 -1.29,1.85 -1.29,3.18 0,1.21 0.41,2.21 1.25,2.99 0.84,0.78 1.99,1.17 3.42,1.17 2.01,0 3.65,-0.7 4.93,-2.09 1.27,-1.39 1.91,-3.13 1.91,-5.23z"/>
   <path id="7" class="fil5" d="M938.61 951.55l-9.61 0 0 -18.89c0,-2.56 -0.46,-4.46 -1.38,-5.7 -0.91,-1.24 -2.3,-1.86 -4.17,-1.86 -1.75,0 -3.18,0.75 -4.3,2.27 -1.1,1.52 -1.66,3.39 -1.66,5.64l0 18.54 -9.65 0 0 -19.13c0,-2.47 -0.46,-4.3 -1.38,-5.51 -0.91,-1.21 -2.27,-1.81 -4.07,-1.81 -1.83,0 -3.3,0.72 -4.38,2.16 -1.1,1.43 -1.65,3.39 -1.65,5.85l0 18.44 -9.64 0 0 -33.07 9.64 0 0 5.17 0.13 0c1.07,-1.81 2.55,-3.26 4.43,-4.35 1.88,-1.1 3.95,-1.64 6.22,-1.64 2.34,0 4.31,0.52 5.9,1.57 1.6,1.06 2.82,2.61 3.66,4.67 1.26,-2.08 2.82,-3.64 4.67,-4.68 1.84,-1.04 3.99,-1.56 6.43,-1.56 3.61,0 6.32,1.11 8.12,3.34 1.8,2.23 2.69,5.56 2.69,10l0 20.55z"/>
   <path id="8" class="fil5" d="M957.03 947.61l-0.13 0 0 3.94 -9.64 0 0 -47.79 9.64 0 0 19.79 0.13 0c1.26,-1.95 2.79,-3.42 4.6,-4.41 1.81,-0.99 3.89,-1.48 6.25,-1.48 4.26,0 7.55,1.47 9.87,4.39 2.31,2.94 3.46,6.93 3.46,12 0,5.53 -1.34,9.96 -4.05,13.3 -2.7,3.32 -6.3,4.99 -10.8,4.99 -2.06,0 -3.87,-0.39 -5.43,-1.18 -1.55,-0.79 -2.85,-1.97 -3.9,-3.55zm-0.28 -13.9l0 3.53c0,2.21 0.64,4.04 1.94,5.5 1.29,1.46 2.94,2.19 4.96,2.19 2.44,0 4.33,-0.94 5.68,-2.82 1.34,-1.88 2.01,-4.53 2.01,-7.93 0,-2.86 -0.62,-5.09 -1.86,-6.68 -1.24,-1.6 -2.98,-2.4 -5.23,-2.4 -2.19,0 -3.98,0.8 -5.39,2.4 -1.41,1.59 -2.11,3.66 -2.11,6.21z"/>
   <path id="9" class="fil5" d="M993.32 914.04c-1.68,0 -3.06,-0.52 -4.13,-1.53 -1.08,-1.03 -1.61,-2.3 -1.61,-3.8 0,-1.56 0.53,-2.84 1.61,-3.83 1.07,-1 2.45,-1.51 4.13,-1.51 1.68,0 3.06,0.51 4.11,1.51 1.07,0.99 1.59,2.27 1.59,3.83 0,1.55 -0.52,2.83 -1.59,3.83 -1.05,0.99 -2.43,1.5 -4.11,1.5zm4.72 37.51l-9.61 0 0 -33.07 9.61 0 0 33.07z"/>
   <path id="10" class="fil5" d="M1023.24 952.34c-5.45,0 -9.73,-1.54 -12.86,-4.63 -3.13,-3.1 -4.71,-7.27 -4.71,-12.55 0.02,-5.49 1.65,-9.78 4.89,-12.87 3.24,-3.09 7.62,-4.63 13.15,-4.63 5.45,0 9.71,1.54 12.79,4.62 3.08,3.08 4.61,7.18 4.61,12.31 0,5.47 -1.59,9.78 -4.79,12.97 -3.19,3.19 -7.55,4.78 -13.08,4.78zm0.34 -7.41c2.57,0 4.5,-0.85 5.79,-2.56 1.29,-1.7 1.94,-4.23 1.94,-7.6 0,-3.18 -0.66,-5.6 -1.96,-7.23 -1.3,-1.62 -3.24,-2.44 -5.83,-2.44 -2.54,0 -4.52,0.87 -5.92,2.61 -1.41,1.75 -2.12,4.19 -2.12,7.32 0,3.29 0.69,5.75 2.05,7.41 1.37,1.67 3.38,2.49 6.05,2.49z"/>
   <path class="fil5" d="M679.5 426.71l0 14.95 -9.91 0 0.04 -45.22 15.73 0c5.63,0 9.87,1.23 12.7,3.69 2.84,2.46 4.26,6.14 4.26,11.04 0,4.64 -1.62,8.39 -4.87,11.25 -3.25,2.87 -7.58,4.29 -13,4.29l-4.95 0zm0 -22.64l0 15.1 4.1 0.03c2.76,0 4.85,-0.64 6.25,-1.92 1.4,-1.28 2.09,-3.21 2.07,-5.77 0,-2.48 -0.69,-4.34 -2.07,-5.58 -1.38,-1.24 -3.44,-1.86 -6.2,-1.86l-4.15 0z"/>
   <path id="1" class="fil5" d="M729.06 416.62c-0.42,-0.11 -0.84,-0.18 -1.27,-0.23 -0.43,-0.06 -0.93,-0.08 -1.47,-0.08 -2.63,0 -4.61,0.83 -5.95,2.5 -1.33,1.68 -2,3.99 -2,6.95l0 15.9 -9.64 0 0 -33.08 9.64 0 0 6.18 0.13 0c0.8,-2.25 1.93,-3.94 3.39,-5.08 1.46,-1.13 3.24,-1.7 5.35,-1.7 0.49,0 0.98,0.04 1.44,0.11 0.46,0.07 0.96,0.16 1.49,0.27l-1.11 8.26z"/>
   <path id="2" class="fil5" d="M750.59 442.44c-5.44,0 -9.73,-1.54 -12.86,-4.63 -3.13,-3.1 -4.7,-7.27 -4.7,-12.55 0.02,-5.48 1.64,-9.78 4.88,-12.87 3.24,-3.09 7.62,-4.63 13.16,-4.63 5.44,0 9.7,1.54 12.78,4.62 3.08,3.08 4.62,7.18 4.62,12.31 0,5.47 -1.59,9.79 -4.79,12.97 -3.2,3.19 -7.55,4.78 -13.09,4.78zm0.35 -7.4c2.57,0 4.5,-0.85 5.79,-2.57 1.29,-1.7 1.93,-4.23 1.93,-7.59 0,-3.19 -0.65,-5.61 -1.95,-7.24 -1.31,-1.62 -3.24,-2.44 -5.84,-2.44 -2.54,0 -4.52,0.87 -5.92,2.62 -1.41,1.74 -2.12,4.18 -2.12,7.31 0,3.29 0.69,5.75 2.06,7.41 1.37,1.67 3.38,2.5 6.05,2.5z"/>
   <path id="3" class="fil5" d="M802.05 439.48c-1.68,1.03 -3.39,1.78 -5.12,2.25 -1.74,0.47 -3.62,0.71 -5.66,0.71 -5.52,0 -9.81,-1.53 -12.9,-4.58 -3.09,-3.06 -4.64,-7.04 -4.64,-11.94 0,-5.61 1.66,-10.04 4.98,-13.29 3.3,-3.25 7.69,-4.87 13.16,-4.87 2.01,0 3.8,0.2 5.34,0.6 1.55,0.4 3.09,1.03 4.62,1.89l-3.59 6.52c-0.99,-0.56 -1.96,-0.97 -2.91,-1.22 -0.94,-0.25 -1.98,-0.38 -3.09,-0.38 -2.73,0 -4.86,0.88 -6.4,2.65 -1.53,1.76 -2.3,4.25 -2.3,7.44 0,3.07 0.83,5.46 2.47,7.19 1.66,1.73 3.72,2.59 6.2,2.59 0.73,0 1.65,-0.15 2.75,-0.47 1.08,-0.3 2.19,-0.79 3.3,-1.49l3.79 6.4z"/>
   <path id="4" class="fil5" d="M837.46 427.81l-21.79 0c0.17,2.57 1,4.48 2.49,5.74 1.5,1.26 3.56,1.9 6.21,1.9 0.95,0 2.25,-0.28 3.92,-0.84 1.66,-0.56 3.28,-1.42 4.88,-2.6l4.22 5.58c-2.22,1.68 -4.51,2.91 -6.85,3.69 -2.35,0.77 -4.91,1.16 -7.71,1.16 -5.29,0 -9.4,-1.47 -12.33,-4.44 -2.92,-2.96 -4.39,-7.1 -4.42,-12.39 0,-5.3 1.55,-9.6 4.66,-12.89 3.09,-3.31 7.02,-4.96 11.78,-4.96 4.55,0 8.19,1.39 10.89,4.18 2.7,2.79 4.05,6.78 4.05,12l0 3.87zm-8.99 -6.02c0,-2.63 -0.5,-4.52 -1.53,-5.7 -1.02,-1.16 -2.52,-1.74 -4.48,-1.74 -1.75,0 -3.26,0.67 -4.51,2 -1.26,1.34 -2.04,3.15 -2.31,5.44l12.83 0z"/>
   <path id="5" class="fil5" d="M841.05 438.88l3.97 -6.46c1.11,0.86 2.44,1.59 3.96,2.19 1.52,0.6 3.21,0.9 5.06,0.9 1.41,0 2.56,-0.26 3.46,-0.77 0.89,-0.52 1.33,-1.31 1.33,-2.35 0,-0.86 -0.34,-1.54 -1.04,-2.04 -0.69,-0.49 -1.97,-0.94 -3.84,-1.34 -4.1,-0.88 -7.04,-2.11 -8.83,-3.69 -1.79,-1.57 -2.68,-3.79 -2.68,-6.65 0,-3.32 1.31,-5.97 3.95,-7.95 2.64,-1.98 5.89,-2.96 9.73,-2.96 2,0 3.88,0.25 5.63,0.76 1.75,0.5 3.42,1.27 4.99,2.3l-3.62 6.24c-1.33,-0.84 -2.57,-1.45 -3.74,-1.85 -1.16,-0.39 -2.37,-0.58 -3.6,-0.58 -1.46,0 -2.61,0.28 -3.47,0.82 -0.86,0.55 -1.3,1.26 -1.3,2.12 0,0.95 0.4,1.65 1.18,2.1 0.8,0.45 2.3,0.9 4.53,1.36 3.8,0.78 6.55,2 8.21,3.63 1.67,1.64 2.51,3.86 2.51,6.69 0,3.34 -1.26,6.02 -3.79,8.06 -2.51,2.02 -5.86,3.03 -10.02,3.03 -2.27,0 -4.43,-0.29 -6.5,-0.86 -2.05,-0.58 -4.09,-1.48 -6.08,-2.7z"/>
   <path id="6" class="fil5" d="M900.86 441.66l-9.14 0 0 -4.79 -0.13 0c-1.12,1.85 -2.49,3.24 -4.16,4.17 -1.66,0.94 -3.54,1.4 -5.64,1.4 -2.95,0 -5.43,-0.87 -7.45,-2.62 -2.01,-1.76 -3.02,-4.21 -3.02,-7.35 0,-3.06 1,-5.55 3.01,-7.46 2,-1.92 5.11,-3.16 9.32,-3.73l8.14 -1.1 0 -0.63c0,-1.7 -0.53,-2.98 -1.58,-3.84 -1.06,-0.86 -2.5,-1.29 -4.35,-1.29 -1.41,0 -2.93,0.23 -4.57,0.71 -1.62,0.47 -3.26,1.21 -4.89,2.24l-3.45 -5.7c2.18,-1.34 4.36,-2.33 6.58,-2.97 2.22,-0.62 4.63,-0.94 7.21,-0.94 4.81,0 8.37,1.16 10.67,3.47 2.3,2.31 3.45,5.8 3.45,10.47l0 19.96zm-9.07 -13.44l0 -2.36 -6.28 0.78c-1.77,0.26 -3.09,0.78 -3.95,1.56 -0.86,0.8 -1.29,1.85 -1.29,3.18 0,1.21 0.42,2.21 1.26,2.99 0.84,0.78 1.98,1.17 3.41,1.17 2.01,0 3.66,-0.7 4.93,-2.09 1.27,-1.38 1.92,-3.13 1.92,-5.23z"/>
   <path id="7" class="fil5" d="M931.69 436.98c-1.17,1.81 -2.62,3.18 -4.34,4.09 -1.73,0.92 -3.74,1.37 -6.03,1.37 -4.11,0 -7.44,-1.46 -9.98,-4.38 -2.53,-2.92 -3.8,-6.98 -3.8,-12.2 0,-5.47 1.4,-9.85 4.2,-13.14 2.8,-3.31 6.44,-4.96 10.94,-4.96 2.15,0 3.97,0.39 5.47,1.17 1.5,0.77 2.68,1.95 3.54,3.49l0.13 0 0 -18.56 9.66 0 0 47.8 -9.66 0 0 -4.68 -0.13 0zm-14.34 -11.4c0,3 0.64,5.32 1.93,6.98 1.31,1.65 3.08,2.48 5.35,2.48 2.19,0 3.96,-0.86 5.33,-2.58 1.37,-1.71 2.06,-3.97 2.06,-6.75l0 -2.78c0,-2.21 -0.66,-4.05 -1.98,-5.52 -1.32,-1.48 -3.01,-2.21 -5.09,-2.21 -2.37,0 -4.23,0.92 -5.58,2.76 -1.34,1.84 -2.02,4.38 -2.02,7.62z"/>
   <path id="8" class="fil5" d="M966.22 442.44c-5.45,0 -9.73,-1.54 -12.86,-4.63 -3.13,-3.1 -4.7,-7.27 -4.7,-12.55 0.02,-5.48 1.64,-9.78 4.88,-12.87 3.24,-3.09 7.62,-4.63 13.15,-4.63 5.45,0 9.71,1.54 12.79,4.62 3.08,3.08 4.62,7.18 4.62,12.31 0,5.47 -1.6,9.79 -4.79,12.97 -3.2,3.19 -7.56,4.78 -13.09,4.78zm0.35 -7.4c2.57,0 4.49,-0.85 5.79,-2.57 1.29,-1.7 1.93,-4.23 1.93,-7.59 0,-3.19 -0.65,-5.61 -1.96,-7.24 -1.3,-1.62 -3.24,-2.44 -5.83,-2.44 -2.54,0 -4.52,0.87 -5.92,2.62 -1.41,1.74 -2.12,4.18 -2.12,7.31 0,3.29 0.69,5.75 2.06,7.41 1.36,1.67 3.38,2.5 6.05,2.5z"/>
   <path id="9" class="fil5" d="M1011.65 416.62c-0.42,-0.11 -0.84,-0.18 -1.27,-0.23 -0.43,-0.06 -0.93,-0.08 -1.46,-0.08 -2.64,0 -4.62,0.83 -5.96,2.5 -1.33,1.68 -2,3.99 -2,6.95l0 15.9 -9.64 0 0 -33.08 9.64 0 0 6.18 0.13 0c0.8,-2.25 1.93,-3.94 3.39,-5.08 1.47,-1.13 3.24,-1.7 5.35,-1.7 0.5,0 0.98,0.04 1.44,0.11 0.47,0.07 0.96,0.16 1.49,0.27l-1.11 8.26z"/>
   <path class="fil2" d="M1896.35 430.35l-11.13 0 -6.14 -11.25c-1.01,-1.83 -2,-3.2 -2.98,-4.11 -0.98,-0.92 -2.11,-1.45 -3.39,-1.56l-2.9 0 0 16.92 -9.87 0 0 -45.21 15.99 0c5.38,0 9.43,1.07 12.17,3.2 2.73,2.13 4.1,5.32 4.1,9.57 0,3.03 -0.88,5.62 -2.64,7.8 -1.75,2.18 -4.16,3.79 -7.23,4.81l0 0.13c1.32,0.42 2.55,1.28 3.69,2.57 1.13,1.29 2.11,2.66 2.93,4.11l7.4 13.02zm-26.54 -37.77l0 13.37 4.6 0c2.23,0 4.02,-0.68 5.38,-2.04 1.35,-1.35 2.03,-3.02 2.03,-5.02 0,-2.08 -0.6,-3.65 -1.79,-4.72 -1.2,-1.05 -3.01,-1.59 -5.43,-1.59l-4.79 0z"/>
   <path id="1" class="fil2" d="M1929.21 416.51l-21.78 0c0.16,2.57 1,4.48 2.48,5.74 1.5,1.26 3.57,1.89 6.21,1.89 0.95,0 2.25,-0.28 3.92,-0.83 1.66,-0.56 3.28,-1.43 4.89,-2.6l4.22 5.58c-2.23,1.67 -4.51,2.91 -6.86,3.69 -2.35,0.77 -4.91,1.16 -7.71,1.16 -5.29,0 -9.4,-1.47 -12.33,-4.44 -2.92,-2.96 -4.39,-7.1 -4.41,-12.39 0,-5.3 1.55,-9.6 4.65,-12.9 3.1,-3.3 7.03,-4.95 11.78,-4.95 4.56,0 8.19,1.39 10.89,4.18 2.71,2.79 4.05,6.78 4.05,12l0 3.87zm-8.99 -6.02c0,-2.63 -0.5,-4.52 -1.52,-5.7 -1.03,-1.16 -2.52,-1.74 -4.49,-1.74 -1.75,0 -3.25,0.67 -4.51,2 -1.26,1.34 -2.04,3.14 -2.3,5.44l12.82 0z"/>
   <path id="2" class="fil2" d="M1967.92 426.42c0,5.52 -1.69,10.09 -5.07,13.7 -3.39,3.6 -8.31,5.4 -14.78,5.4 -2.4,0 -4.63,-0.23 -6.68,-0.68 -2.04,-0.45 -4.09,-1.15 -6.13,-2.1l2.91 -6.55c1.65,0.75 3.26,1.31 4.81,1.66 1.54,0.34 3.29,0.51 5.24,0.51 3.26,0 5.75,-0.95 7.48,-2.84 1.72,-1.88 2.58,-4.42 2.58,-7.6l0 -2.42 -0.13 0c-1.17,1.89 -2.64,3.3 -4.38,4.24 -1.74,0.94 -3.77,1.4 -6.06,1.4 -4.22,0 -7.56,-1.48 -10.04,-4.46 -2.46,-2.98 -3.7,-6.94 -3.7,-11.9 0,-5.62 1.38,-10.07 4.13,-13.37 2.76,-3.3 6.39,-4.95 10.91,-4.95 2.04,0 3.82,0.39 5.36,1.18 1.53,0.79 2.79,1.98 3.78,3.55l0.13 0 0 -3.91 9.64 0 0 29.14zm-9.51 -11.86l0 -2.87c0,-2.17 -0.66,-4 -1.96,-5.52 -1.3,-1.52 -2.98,-2.27 -5.05,-2.27 -2.36,0 -4.24,0.91 -5.59,2.74 -1.36,1.83 -2.04,4.42 -2.04,7.76 0,2.88 0.65,5.16 1.93,6.83 1.28,1.67 3.03,2.51 5.26,2.51 2.25,0 4.06,-0.84 5.42,-2.53 1.35,-1.68 2.03,-3.9 2.03,-6.65z"/>
   <path id="3" class="fil2" d="M1981.93 392.84c-1.68,0 -3.06,-0.52 -4.14,-1.53 -1.07,-1.02 -1.6,-2.29 -1.6,-3.8 0,-1.56 0.53,-2.84 1.6,-3.83 1.08,-1 2.46,-1.51 4.14,-1.51 1.67,0 3.05,0.51 4.11,1.51 1.06,0.99 1.59,2.27 1.59,3.83 0,1.55 -0.53,2.83 -1.59,3.83 -1.06,0.99 -2.44,1.5 -4.11,1.5zm4.72 37.51l-9.61 0 0 -33.07 9.61 0 0 33.07z"/>
   <path id="4" class="fil2" d="M1993.15 427.58l3.97 -6.46c1.11,0.86 2.43,1.59 3.96,2.19 1.52,0.6 3.21,0.9 5.06,0.9 1.41,0 2.56,-0.26 3.46,-0.78 0.89,-0.51 1.33,-1.3 1.33,-2.34 0,-0.86 -0.34,-1.54 -1.04,-2.04 -0.69,-0.49 -1.97,-0.94 -3.85,-1.34 -4.1,-0.88 -7.03,-2.11 -8.82,-3.69 -1.79,-1.57 -2.68,-3.79 -2.68,-6.65 0,-3.32 1.31,-5.97 3.95,-7.95 2.64,-1.98 5.89,-2.96 9.73,-2.96 2,0 3.87,0.25 5.63,0.76 1.75,0.5 3.42,1.27 4.99,2.3l-3.63 6.24c-1.32,-0.84 -2.56,-1.45 -3.73,-1.85 -1.16,-0.39 -2.37,-0.58 -3.61,-0.58 -1.45,0 -2.6,0.28 -3.46,0.82 -0.86,0.55 -1.3,1.26 -1.3,2.12 0,0.94 0.39,1.64 1.18,2.1 0.8,0.45 2.3,0.9 4.53,1.36 3.8,0.78 6.55,1.99 8.21,3.63 1.67,1.64 2.51,3.86 2.51,6.68 0,3.35 -1.26,6.03 -3.79,8.07 -2.52,2.02 -5.86,3.03 -10.02,3.03 -2.27,0 -4.43,-0.29 -6.5,-0.86 -2.05,-0.58 -4.09,-1.49 -6.08,-2.7z"/>
   <path id="5" class="fil2" d="M2046.06 429.82c-1.01,0.44 -2.14,0.77 -3.38,0.99 -1.24,0.22 -2.49,0.33 -3.75,0.33 -3.54,0 -6.19,-0.86 -7.99,-2.58 -1.8,-1.73 -2.7,-4.3 -2.7,-7.73l0 -16.39 -5.39 -0.03 -0.04 -7.13 5.43 0 0 -7.48 9.62 -2.73 -0.03 10.21 7.56 0 0 7.16 -7.53 -0.03 -0.03 15.83c0,1.34 0.25,2.31 0.78,2.92 0.53,0.62 1.35,0.91 2.47,0.89 0.57,0.02 1.11,-0.05 1.62,-0.21 0.52,-0.16 0.99,-0.34 1.43,-0.55l1.93 6.53z"/>
   <path id="6" class="fil2" d="M2072.13 405.32c-0.42,-0.11 -0.84,-0.18 -1.27,-0.24 -0.43,-0.05 -0.93,-0.07 -1.47,-0.07 -2.63,0 -4.61,0.83 -5.95,2.5 -1.33,1.67 -2,3.99 -2,6.95l0 15.89 -9.64 0 0 -33.07 9.64 0 0 6.18 0.13 0c0.8,-2.25 1.92,-3.94 3.39,-5.08 1.46,-1.13 3.24,-1.7 5.35,-1.7 0.49,0 0.98,0.04 1.44,0.11 0.46,0.07 0.96,0.16 1.48,0.26l-1.1 8.27z"/>
   <path id="7" class="fil2" d="M2093.66 431.14c-5.44,0 -9.73,-1.54 -12.86,-4.63 -3.13,-3.1 -4.7,-7.27 -4.7,-12.55 0.02,-5.49 1.64,-9.78 4.88,-12.87 3.24,-3.09 7.62,-4.63 13.16,-4.63 5.44,0 9.7,1.54 12.78,4.62 3.08,3.08 4.62,7.18 4.62,12.31 0,5.47 -1.6,9.79 -4.79,12.97 -3.2,3.19 -7.56,4.78 -13.09,4.78zm0.35 -7.4c2.57,0 4.49,-0.86 5.79,-2.57 1.29,-1.7 1.93,-4.23 1.93,-7.59 0,-3.19 -0.65,-5.61 -1.95,-7.24 -1.31,-1.62 -3.24,-2.44 -5.84,-2.44 -2.54,0 -4.52,0.87 -5.92,2.62 -1.41,1.74 -2.12,4.18 -2.12,7.31 0,3.29 0.69,5.75 2.06,7.41 1.36,1.67 3.38,2.5 6.05,2.5z"/>
   <path id="8" class="fil2" d="M2115.67 427.58l3.97 -6.46c1.11,0.86 2.43,1.59 3.96,2.19 1.52,0.6 3.21,0.9 5.06,0.9 1.41,0 2.56,-0.26 3.46,-0.78 0.89,-0.51 1.33,-1.3 1.33,-2.34 0,-0.86 -0.34,-1.54 -1.04,-2.04 -0.69,-0.49 -1.97,-0.94 -3.84,-1.34 -4.11,-0.88 -7.04,-2.11 -8.83,-3.69 -1.79,-1.57 -2.68,-3.79 -2.68,-6.65 0,-3.32 1.31,-5.97 3.95,-7.95 2.64,-1.98 5.89,-2.96 9.73,-2.96 2,0 3.87,0.25 5.63,0.76 1.75,0.5 3.42,1.27 4.99,2.3l-3.63 6.24c-1.32,-0.84 -2.56,-1.45 -3.73,-1.85 -1.16,-0.39 -2.37,-0.58 -3.61,-0.58 -1.45,0 -2.6,0.28 -3.46,0.82 -0.86,0.55 -1.3,1.26 -1.3,2.12 0,0.94 0.39,1.64 1.18,2.1 0.8,0.45 2.3,0.9 4.53,1.36 3.8,0.78 6.55,1.99 8.21,3.63 1.67,1.64 2.51,3.86 2.51,6.68 0,3.35 -1.26,6.03 -3.79,8.07 -2.52,2.02 -5.86,3.03 -10.02,3.03 -2.27,0 -4.43,-0.29 -6.5,-0.86 -2.05,-0.58 -4.09,-1.49 -6.08,-2.7z"/>
   <path class="fil2" d="M1529.11 954.16c-2.38,1.1 -4.69,1.89 -6.92,2.4 -2.24,0.5 -4.66,0.75 -7.27,0.75 -7.03,0 -12.55,-1.97 -16.58,-5.93 -4.04,-3.95 -6.06,-9.58 -6.06,-16.9 0,-6.88 2.2,-12.6 6.6,-17.13 4.41,-4.53 10.22,-6.79 17.42,-6.79 2.44,0 4.63,0.18 6.56,0.55 1.94,0.36 3.91,0.95 5.93,1.74l-3.03 7.95c-1.53,-0.61 -3.03,-1.05 -4.48,-1.34 -1.44,-0.28 -3.01,-0.42 -4.69,-0.42 -3.81,0 -7.08,1.32 -9.83,3.98 -2.74,2.66 -4.11,6.25 -4.11,10.78 0,4.66 1.21,8.3 3.61,10.93 2.41,2.63 5.7,3.95 9.89,3.95 1.19,0 2.61,-0.19 4.27,-0.57 1.65,-0.38 3.34,-0.99 5.06,-1.83l3.63 7.88z"/>
   <path id="1" class="fil2" d="M1562.56 956.53l-9.14 0 0 -4.79 -0.13 0c-1.12,1.85 -2.5,3.24 -4.17,4.17 -1.65,0.94 -3.54,1.4 -5.64,1.4 -2.94,0 -5.42,-0.87 -7.44,-2.62 -2.02,-1.76 -3.03,-4.21 -3.03,-7.34 0,-3.07 1,-5.56 3.02,-7.47 2,-1.92 5.11,-3.16 9.32,-3.73l8.13 -1.09 0 -0.64c0,-1.7 -0.53,-2.98 -1.58,-3.84 -1.05,-0.86 -2.5,-1.29 -4.35,-1.29 -1.41,0 -2.93,0.23 -4.56,0.71 -1.63,0.47 -3.26,1.21 -4.9,2.25l-3.44 -5.71c2.17,-1.34 4.36,-2.33 6.57,-2.97 2.22,-0.62 4.63,-0.94 7.21,-0.94 4.82,0 8.38,1.16 10.67,3.47 2.3,2.31 3.46,5.8 3.46,10.47l0 19.96zm-9.08 -13.44l0 -2.36 -6.27 0.78c-1.78,0.26 -3.09,0.78 -3.95,1.56 -0.86,0.8 -1.29,1.85 -1.29,3.18 0,1.21 0.42,2.21 1.26,2.99 0.84,0.79 1.98,1.17 3.41,1.17 2.01,0 3.66,-0.7 4.93,-2.08 1.27,-1.39 1.91,-3.14 1.91,-5.24z"/>
   <path id="2" class="fil2" d="M1597.55 954.35c-1.68,1.04 -3.39,1.78 -5.12,2.25 -1.73,0.48 -3.61,0.71 -5.66,0.71 -5.51,0 -9.8,-1.53 -12.89,-4.58 -3.09,-3.06 -4.64,-7.04 -4.64,-11.94 0,-5.61 1.66,-10.04 4.97,-13.29 3.3,-3.25 7.7,-4.87 13.16,-4.87 2.02,0 3.8,0.2 5.34,0.6 1.55,0.4 3.09,1.03 4.63,1.89l-3.6 6.52c-0.99,-0.56 -1.95,-0.97 -2.9,-1.22 -0.95,-0.25 -1.98,-0.38 -3.09,-0.38 -2.73,0 -4.87,0.88 -6.4,2.65 -1.53,1.76 -2.31,4.25 -2.31,7.44 0,3.07 0.83,5.46 2.48,7.19 1.66,1.73 3.71,2.59 6.2,2.59 0.73,0 1.64,-0.15 2.74,-0.47 1.09,-0.3 2.2,-0.79 3.31,-1.49l3.78 6.4z"/>
   <path id="3" class="fil2" d="M1634.79 956.53l-9.58 0 0 -18.83c0,-2.56 -0.47,-4.47 -1.41,-5.72 -0.93,-1.25 -2.33,-1.88 -4.2,-1.88 -1.9,0 -3.44,0.71 -4.64,2.13 -1.2,1.43 -1.79,3.23 -1.77,5.44l-0.03 18.86 -9.61 0 -0.03 -47.8 9.67 0 -0.03 19.71 0.16 -0.04c1.26,-1.93 2.75,-3.38 4.47,-4.33 1.71,-0.96 3.64,-1.44 5.78,-1.44 3.74,0 6.55,1.13 8.41,3.4 1.88,2.24 2.81,5.64 2.81,10.19l0 20.31z"/>
   <path id="4" class="fil2" d="M1672.85 942.69l-21.78 0c0.16,2.56 1,4.47 2.48,5.73 1.5,1.26 3.56,1.9 6.21,1.9 0.95,0 2.25,-0.28 3.92,-0.84 1.66,-0.56 3.28,-1.42 4.89,-2.6l4.21 5.58c-2.22,1.68 -4.51,2.91 -6.85,3.69 -2.35,0.77 -4.91,1.16 -7.71,1.16 -5.29,0 -9.4,-1.47 -12.33,-4.44 -2.92,-2.96 -4.39,-7.1 -4.41,-12.39 0,-5.3 1.55,-9.6 4.65,-12.89 3.1,-3.31 7.02,-4.96 11.78,-4.96 4.55,0 8.19,1.39 10.89,4.18 2.7,2.79 4.05,6.78 4.05,12l0 3.88zm-8.99 -6.03c0,-2.63 -0.5,-4.52 -1.53,-5.69 -1.02,-1.17 -2.51,-1.75 -4.48,-1.75 -1.75,0 -3.25,0.67 -4.51,2 -1.26,1.34 -2.04,3.15 -2.31,5.44l12.83 0z"/>
   <path class="fil2" d="M2334.99 919.62l-9.75 0 0 -27.27c0,-1.43 0.03,-2.95 0.1,-4.56 0.06,-1.61 0.16,-3.3 0.28,-5.06l-0.25 0c-0.27,1.37 -0.51,2.54 -0.74,3.52 -0.22,0.98 -0.43,1.75 -0.65,2.34l-10.93 31.03 -7.92 0 -11.1 -30.71c-0.15,-0.42 -0.34,-1.14 -0.58,-2.18 -0.25,-1.02 -0.53,-2.35 -0.84,-4l-0.28 0c0.14,2.13 0.25,4.15 0.31,6.09 0.07,1.93 0.1,3.75 0.1,5.46l0 25.34 -8.92 0 0 -45.21 14.41 0 9.55 27.11c0.37,1.01 0.69,2 0.94,2.98 0.26,0.98 0.48,1.96 0.67,2.95l0.18 0c0.33,-1.13 0.63,-2.21 0.92,-3.22 0.3,-1 0.6,-1.92 0.91,-2.77l9.59 -27.05 14 0 0 45.21z"/>
   <path id="1" class="fil2" d="M2374.46 905.78l-21.78 0c0.16,2.56 1,4.48 2.48,5.74 1.5,1.26 3.56,1.89 6.21,1.89 0.95,0 2.25,-0.28 3.92,-0.84 1.66,-0.56 3.28,-1.42 4.89,-2.59l4.21 5.57c-2.22,1.68 -4.5,2.92 -6.85,3.7 -2.35,0.77 -4.91,1.16 -7.71,1.16 -5.29,0 -9.4,-1.48 -12.33,-4.45 -2.92,-2.96 -4.39,-7.09 -4.41,-12.38 0,-5.3 1.55,-9.6 4.65,-12.9 3.1,-3.3 7.02,-4.95 11.78,-4.95 4.55,0 8.19,1.39 10.89,4.18 2.7,2.79 4.05,6.78 4.05,12l0 3.87zm-8.99 -6.03c0,-2.62 -0.5,-4.52 -1.53,-5.69 -1.02,-1.16 -2.51,-1.74 -4.48,-1.74 -1.75,0 -3.25,0.67 -4.51,2 -1.26,1.34 -2.04,3.14 -2.31,5.43l12.83 0z"/>
   <path id="2" class="fil2" d="M2433.04 919.62l-9.61 0 0 -18.89c0,-2.56 -0.46,-4.46 -1.38,-5.7 -0.91,-1.24 -2.3,-1.86 -4.17,-1.86 -1.75,0 -3.18,0.75 -4.3,2.27 -1.11,1.52 -1.67,3.39 -1.67,5.64l0 18.54 -9.64 0 0 -19.13c0,-2.47 -0.46,-4.3 -1.38,-5.51 -0.91,-1.21 -2.27,-1.81 -4.08,-1.81 -1.83,0 -3.29,0.72 -4.38,2.16 -1.09,1.43 -1.64,3.39 -1.64,5.85l0 18.44 -9.65 0 0 -33.07 9.65 0 0 5.17 0.13 0c1.07,-1.81 2.55,-3.27 4.43,-4.35 1.87,-1.1 3.95,-1.64 6.22,-1.64 2.34,0 4.31,0.52 5.9,1.57 1.6,1.06 2.82,2.61 3.66,4.67 1.26,-2.08 2.82,-3.65 4.67,-4.68 1.84,-1.04 3.99,-1.56 6.42,-1.56 3.62,0 6.33,1.11 8.13,3.34 1.8,2.23 2.69,5.56 2.69,10l0 20.55z"/>
   <path id="3" class="fil2" d="M2457.29 920.41c-5.45,0 -9.73,-1.54 -12.86,-4.63 -3.13,-3.1 -4.71,-7.28 -4.71,-12.55 0.02,-5.49 1.65,-9.78 4.89,-12.87 3.24,-3.09 7.62,-4.63 13.15,-4.63 5.45,0 9.71,1.54 12.79,4.62 3.08,3.08 4.61,7.18 4.61,12.31 0,5.47 -1.59,9.78 -4.79,12.97 -3.19,3.19 -7.55,4.78 -13.08,4.78zm0.34 -7.41c2.57,0 4.5,-0.85 5.79,-2.56 1.29,-1.7 1.94,-4.23 1.94,-7.6 0,-3.18 -0.66,-5.6 -1.96,-7.23 -1.3,-1.62 -3.24,-2.44 -5.83,-2.44 -2.54,0 -4.52,0.87 -5.92,2.61 -1.41,1.75 -2.12,4.19 -2.12,7.32 0,3.28 0.69,5.75 2.05,7.41 1.37,1.66 3.38,2.49 6.05,2.49z"/>
   <path id="4" class="fil2" d="M2502.72 894.59c-0.42,-0.11 -0.84,-0.18 -1.27,-0.24 -0.43,-0.05 -0.93,-0.07 -1.47,-0.07 -2.63,0 -4.61,0.83 -5.95,2.49 -1.33,1.68 -2,4 -2,6.96l0 15.89 -9.64 0 0 -33.07 9.64 0 0 6.18 0.13 0c0.8,-2.25 1.92,-3.94 3.39,-5.08 1.46,-1.13 3.24,-1.7 5.35,-1.7 0.49,0 0.98,0.04 1.44,0.1 0.46,0.08 0.96,0.17 1.49,0.27l-1.11 8.27z"/>
   <path id="5" class="fil2" d="M2514.07 882.11c-1.68,0 -3.05,-0.52 -4.13,-1.53 -1.08,-1.03 -1.6,-2.3 -1.6,-3.8 0,-1.56 0.52,-2.84 1.6,-3.83 1.08,-1.01 2.45,-1.51 4.13,-1.51 1.68,0 3.06,0.5 4.11,1.51 1.07,0.99 1.6,2.27 1.6,3.83 0,1.55 -0.53,2.83 -1.6,3.83 -1.05,0.99 -2.43,1.5 -4.11,1.5zm4.73 37.51l-9.61 0 0 -33.07 9.61 0 0 33.07z"/>
   <path id="6" class="fil2" d="M2555.53 919.62l-9.14 0 0 -4.79 -0.13 0c-1.12,1.85 -2.49,3.24 -4.16,4.18 -1.66,0.94 -3.54,1.4 -5.64,1.4 -2.95,0 -5.43,-0.87 -7.45,-2.63 -2.01,-1.75 -3.02,-4.21 -3.02,-7.34 0,-3.06 1,-5.55 3.01,-7.47 2,-1.91 5.11,-3.15 9.32,-3.72l8.14 -1.1 0 -0.63c0,-1.7 -0.53,-2.98 -1.59,-3.85 -1.05,-0.86 -2.49,-1.29 -4.34,-1.29 -1.41,0 -2.93,0.24 -4.57,0.71 -1.62,0.48 -3.26,1.22 -4.9,2.25l-3.44 -5.7c2.18,-1.35 4.36,-2.34 6.58,-2.97 2.21,-0.63 4.62,-0.94 7.21,-0.94 4.81,0 8.37,1.15 10.66,3.47 2.31,2.31 3.46,5.8 3.46,10.47l0 19.95zm-9.07 -13.43l0 -2.37 -6.28 0.79c-1.77,0.26 -3.09,0.77 -3.95,1.56 -0.86,0.8 -1.29,1.85 -1.29,3.17 0,1.22 0.42,2.22 1.26,3 0.84,0.78 1.98,1.17 3.41,1.17 2.01,0 3.66,-0.7 4.93,-2.09 1.27,-1.39 1.92,-3.13 1.92,-5.23z"/>
   <path id="7" class="fil2" d="M2293.69 964.8l0 14.95 -9.9 0 0.03 -45.21 15.73 0c5.63,0 9.87,1.22 12.7,3.69 2.84,2.45 4.26,6.13 4.26,11.03 0,4.65 -1.62,8.39 -4.87,11.26 -3.25,2.86 -7.58,4.28 -13,4.28l-4.95 0zm0 -22.63l0 15.1 4.1 0.03c2.76,0 4.85,-0.65 6.25,-1.93 1.4,-1.28 2.09,-3.2 2.07,-5.77 0,-2.47 -0.69,-4.33 -2.07,-5.57 -1.38,-1.25 -3.44,-1.86 -6.2,-1.86l-4.15 0z"/>
   <path id="8" class="fil2" d="M2343.25 954.72c-0.42,-0.11 -0.84,-0.19 -1.27,-0.24 -0.43,-0.06 -0.93,-0.08 -1.47,-0.08 -2.63,0 -4.61,0.83 -5.95,2.5 -1.33,1.68 -2,3.99 -2,6.95l0 15.9 -9.64 0 0 -33.07 9.64 0 0 6.17 0.13 0c0.8,-2.25 1.93,-3.94 3.39,-5.08 1.46,-1.13 3.24,-1.7 5.35,-1.7 0.49,0 0.98,0.05 1.44,0.11 0.46,0.08 0.96,0.16 1.49,0.27l-1.11 8.27z"/>
   <path id="9" class="fil2" d="M2354.6 942.23c-1.68,0 -3.05,-0.52 -4.13,-1.53 -1.08,-1.02 -1.6,-2.29 -1.6,-3.8 0,-1.56 0.52,-2.84 1.6,-3.83 1.08,-1 2.45,-1.5 4.13,-1.5 1.68,0 3.06,0.5 4.12,1.5 1.06,0.99 1.59,2.27 1.59,3.83 0,1.55 -0.53,2.83 -1.59,3.84 -1.06,0.99 -2.44,1.49 -4.12,1.49zm4.73 37.52l-9.61 0 0 -33.07 9.61 0 0 33.07z"/>
   <path id="10" class="fil2" d="M2400.35 979.75l-9.62 0 0 -18.45c0,-2.65 -0.47,-4.64 -1.43,-5.97 -0.96,-1.34 -2.39,-2.01 -4.3,-2.03 -1.88,0.02 -3.42,0.74 -4.62,2.16 -1.22,1.42 -1.82,3.22 -1.82,5.4l-0.03 18.89 -9.61 0 -0.04 -33.07 9.68 0 -0.03 5.26 0.16 0c1.22,-2.04 2.71,-3.56 4.49,-4.55 1.78,-1 3.83,-1.5 6.16,-1.5 3.66,-0.02 6.41,1.11 8.25,3.4 1.84,2.29 2.76,5.69 2.76,10.21l0 20.25z"/>
   <path id="11" class="fil2" d="M2435.35 977.57c-1.68,1.04 -3.39,1.78 -5.12,2.26 -1.73,0.47 -3.62,0.7 -5.66,0.7 -5.51,0 -9.8,-1.52 -12.89,-4.58 -3.09,-3.06 -4.64,-7.04 -4.64,-11.94 0,-5.6 1.65,-10.04 4.97,-13.29 3.3,-3.25 7.7,-4.86 13.16,-4.86 2.02,0 3.8,0.19 5.34,0.59 1.55,0.4 3.09,1.03 4.63,1.89l-3.6 6.53c-0.99,-0.56 -1.95,-0.97 -2.9,-1.23 -0.95,-0.25 -1.98,-0.38 -3.09,-0.38 -2.73,0 -4.87,0.89 -6.4,2.65 -1.53,1.77 -2.31,4.25 -2.31,7.45 0,3.07 0.83,5.45 2.48,7.19 1.65,1.72 3.71,2.58 6.2,2.58 0.73,0 1.64,-0.15 2.74,-0.46 1.09,-0.3 2.2,-0.8 3.31,-1.5l3.78 6.4z"/>
   <path id="12" class="fil2" d="M2446.27 942.23c-1.68,0 -3.06,-0.52 -4.13,-1.53 -1.08,-1.02 -1.61,-2.29 -1.61,-3.8 0,-1.56 0.53,-2.84 1.61,-3.83 1.07,-1 2.45,-1.5 4.13,-1.5 1.68,0 3.05,0.5 4.11,1.5 1.06,0.99 1.59,2.27 1.59,3.83 0,1.55 -0.53,2.83 -1.59,3.84 -1.06,0.99 -2.43,1.49 -4.11,1.49zm4.72 37.52l-9.61 0 0 -33.07 9.61 0 0 33.07z"/>
   <path id="13" class="fil2" d="M2470.32 975.81l-0.1 -0.03 -0.03 18.82 -9.61 0 -0.03 -47.92 9.67 0 -0.03 5.1 0.16 -0.03c1.26,-1.97 2.79,-3.45 4.59,-4.43 1.8,-0.98 3.84,-1.46 6.13,-1.46 4.28,0 7.58,1.46 9.92,4.41 2.34,2.94 3.52,6.94 3.52,12.01 0.02,5.51 -1.34,9.92 -4.07,13.26 -2.74,3.33 -6.36,4.99 -10.88,4.99 -2.02,0 -3.79,-0.38 -5.31,-1.16 -1.53,-0.77 -2.83,-1.97 -3.93,-3.56zm-0.25 -13.56l0 2.87c0,2.33 0.64,4.25 1.91,5.75 1.27,1.51 2.94,2.26 4.99,2.26 2.42,0 4.31,-0.95 5.66,-2.82 1.36,-1.88 2.04,-4.53 2.04,-7.93 0,-3.01 -0.6,-5.28 -1.81,-6.8 -1.22,-1.52 -2.98,-2.27 -5.32,-2.25 -2.2,-0.02 -4,0.79 -5.39,2.44 -1.39,1.65 -2.08,3.81 -2.08,6.48z"/>
   <path id="14" class="fil2" d="M2528.25 979.75l-9.14 0 0 -4.79 -0.13 0c-1.12,1.85 -2.5,3.24 -4.17,4.18 -1.65,0.93 -3.54,1.39 -5.64,1.39 -2.94,0 -5.42,-0.87 -7.44,-2.62 -2.02,-1.75 -3.03,-4.21 -3.03,-7.34 0,-3.07 1,-5.55 3.02,-7.47 2,-1.92 5.11,-3.15 9.32,-3.72l8.13 -1.1 0 -0.64c0,-1.7 -0.52,-2.98 -1.58,-3.84 -1.05,-0.86 -2.5,-1.29 -4.35,-1.29 -1.41,0 -2.93,0.24 -4.56,0.71 -1.63,0.47 -3.26,1.22 -4.9,2.25l-3.44 -5.7c2.17,-1.35 4.36,-2.34 6.57,-2.98 2.22,-0.62 4.63,-0.93 7.22,-0.93 4.81,0 8.37,1.15 10.66,3.46 2.3,2.32 3.46,5.81 3.46,10.48l0 19.95zm-9.08 -13.43l0 -2.37 -6.27 0.79c-1.78,0.25 -3.09,0.77 -3.95,1.56 -0.86,0.79 -1.29,1.85 -1.29,3.17 0,1.22 0.42,2.22 1.26,2.99 0.84,0.79 1.98,1.18 3.41,1.18 2.01,0 3.66,-0.7 4.93,-2.09 1.27,-1.39 1.91,-3.13 1.91,-5.23z"/>
   <polygon id="15" class="fil2" points="2536.89,979.75 2536.89,931.95 2546.53,931.95 2546.53,979.75 "/>
   <path class="fil2" d="M1895.11 1475.75l0 -45.21 15.79 0c8.04,0 14.06,1.83 18.07,5.5 4.01,3.67 6.03,9.18 6.03,16.54 0,7.04 -2.2,12.66 -6.6,16.86 -4.39,4.21 -10.24,6.31 -17.52,6.31l-15.77 0zm9.87 -37.14l0 29.1 5.17 0c4.52,0 8.06,-1.35 10.62,-4.03 2.57,-2.67 3.85,-6.33 3.85,-10.98 0,-4.42 -1.27,-7.87 -3.8,-10.36 -2.53,-2.48 -6.11,-3.73 -10.74,-3.73l-5.1 0z"/>
   <path id="1" class="fil2" d="M1947.17 1438.23c-1.68,0 -3.06,-0.51 -4.13,-1.53 -1.08,-1.02 -1.61,-2.29 -1.61,-3.8 0,-1.56 0.53,-2.84 1.61,-3.83 1.07,-1 2.45,-1.5 4.13,-1.5 1.68,0 3.06,0.5 4.11,1.5 1.07,0.99 1.59,2.27 1.59,3.83 0,1.55 -0.52,2.84 -1.59,3.84 -1.05,0.99 -2.43,1.49 -4.11,1.49zm4.72 37.52l-9.61 0 0 -33.07 9.61 0 0 33.07z"/>
   <path id="2" class="fil2" d="M1958.39 1472.97l3.98 -6.45c1.1,0.86 2.43,1.59 3.96,2.18 1.51,0.6 3.2,0.9 5.05,0.9 1.41,0 2.57,-0.25 3.46,-0.77 0.89,-0.52 1.33,-1.3 1.33,-2.35 0,-0.86 -0.34,-1.53 -1.04,-2.03 -0.69,-0.5 -1.97,-0.95 -3.84,-1.35 -4.1,-0.88 -7.04,-2.11 -8.83,-3.69 -1.78,-1.57 -2.68,-3.79 -2.68,-6.65 0,-3.31 1.32,-5.96 3.95,-7.94 2.64,-1.98 5.89,-2.96 9.73,-2.96 2,0 3.88,0.25 5.63,0.75 1.75,0.51 3.42,1.27 4.99,2.31l-3.62 6.24c-1.33,-0.84 -2.56,-1.46 -3.74,-1.85 -1.16,-0.39 -2.36,-0.58 -3.6,-0.58 -1.46,0 -2.61,0.28 -3.47,0.81 -0.86,0.55 -1.3,1.26 -1.3,2.12 0,0.95 0.4,1.65 1.18,2.1 0.8,0.45 2.31,0.91 4.53,1.37 3.8,0.77 6.55,1.99 8.22,3.63 1.66,1.63 2.5,3.86 2.5,6.68 0,3.35 -1.26,6.03 -3.78,8.06 -2.52,2.02 -5.87,3.04 -10.03,3.04 -2.27,0 -4.43,-0.3 -6.5,-0.87 -2.05,-0.58 -4.09,-1.48 -6.08,-2.7z"/>
   <path id="3" class="fil2" d="M2017.42 1473.58c-1.68,1.03 -3.39,1.77 -5.13,2.25 -1.73,0.47 -3.61,0.71 -5.66,0.71 -5.51,0 -9.8,-1.53 -12.89,-4.59 -3.09,-3.06 -4.64,-7.04 -4.64,-11.93 0,-5.61 1.66,-10.05 4.97,-13.3 3.31,-3.25 7.7,-4.86 13.16,-4.86 2.02,0 3.8,0.19 5.34,0.59 1.55,0.4 3.09,1.03 4.63,1.89l-3.59 6.53c-0.99,-0.56 -1.96,-0.97 -2.91,-1.23 -0.95,-0.25 -1.98,-0.38 -3.09,-0.38 -2.73,0 -4.86,0.89 -6.4,2.65 -1.53,1.77 -2.31,4.25 -2.31,7.45 0,3.07 0.83,5.46 2.48,7.19 1.66,1.72 3.71,2.58 6.2,2.58 0.73,0 1.65,-0.15 2.74,-0.46 1.09,-0.3 2.2,-0.8 3.31,-1.5l3.79 6.41z"/>
   <path id="4" class="fil2" d="M2039.02 1476.54c-5.45,0 -9.73,-1.54 -12.87,-4.63 -3.13,-3.1 -4.7,-7.28 -4.7,-12.55 0.02,-5.49 1.65,-9.78 4.89,-12.87 3.24,-3.09 7.62,-4.63 13.15,-4.63 5.45,0 9.71,1.54 12.79,4.62 3.07,3.07 4.61,7.17 4.61,12.31 0,5.47 -1.59,9.78 -4.79,12.97 -3.19,3.18 -7.55,4.78 -13.08,4.78zm0.34 -7.41c2.57,0 4.5,-0.85 5.79,-2.56 1.29,-1.7 1.94,-4.23 1.94,-7.6 0,-3.18 -0.66,-5.61 -1.96,-7.23 -1.3,-1.63 -3.24,-2.44 -5.83,-2.44 -2.54,0 -4.52,0.87 -5.92,2.61 -1.41,1.74 -2.12,4.19 -2.12,7.32 0,3.28 0.68,5.75 2.05,7.4 1.37,1.67 3.38,2.5 6.05,2.5z"/>
   <path id="5" class="fil2" d="M2061.03 1472.97l3.97 -6.45c1.11,0.86 2.43,1.59 3.96,2.18 1.52,0.6 3.2,0.9 5.06,0.9 1.41,0 2.56,-0.25 3.45,-0.77 0.89,-0.52 1.34,-1.3 1.34,-2.35 0,-0.86 -0.35,-1.53 -1.05,-2.03 -0.69,-0.5 -1.97,-0.95 -3.84,-1.35 -4.1,-0.88 -7.04,-2.11 -8.83,-3.69 -1.78,-1.57 -2.68,-3.79 -2.68,-6.65 0,-3.31 1.32,-5.96 3.95,-7.94 2.64,-1.98 5.89,-2.96 9.73,-2.96 2.01,0 3.88,0.25 5.63,0.75 1.76,0.51 3.42,1.27 5,2.31l-3.63 6.24c-1.32,-0.84 -2.56,-1.46 -3.74,-1.85 -1.16,-0.39 -2.36,-0.58 -3.6,-0.58 -1.45,0 -2.6,0.28 -3.47,0.81 -0.86,0.55 -1.3,1.26 -1.3,2.12 0,0.95 0.4,1.65 1.18,2.1 0.8,0.45 2.31,0.91 4.54,1.37 3.8,0.77 6.54,1.99 8.21,3.63 1.67,1.63 2.51,3.86 2.51,6.68 0,3.35 -1.26,6.03 -3.79,8.06 -2.52,2.02 -5.87,3.04 -10.02,3.04 -2.27,0 -4.44,-0.3 -6.5,-0.87 -2.06,-0.58 -4.09,-1.48 -6.08,-2.7z"/>
   <path id="6" class="fil2" d="M2140.92 1461.91l-21.79 0c0.16,2.56 1,4.48 2.49,5.74 1.49,1.26 3.56,1.89 6.21,1.89 0.95,0 2.25,-0.28 3.92,-0.84 1.65,-0.56 3.28,-1.42 4.88,-2.59l4.22 5.57c-2.23,1.68 -4.51,2.92 -6.85,3.69 -2.35,0.78 -4.91,1.17 -7.71,1.17 -5.3,0 -9.41,-1.48 -12.33,-4.45 -2.92,-2.96 -4.4,-7.09 -4.42,-12.39 0,-5.29 1.55,-9.6 4.65,-12.89 3.1,-3.3 7.03,-4.95 11.79,-4.95 4.55,0 8.19,1.39 10.89,4.18 2.7,2.78 4.05,6.77 4.05,12l0 3.87zm-8.99 -6.03c0,-2.62 -0.51,-4.52 -1.53,-5.69 -1.02,-1.16 -2.52,-1.74 -4.49,-1.74 -1.74,0 -3.25,0.66 -4.51,2 -1.26,1.33 -2.03,3.14 -2.3,5.43l12.83 0z"/>
   <path id="7" class="fil2" d="M2144.51 1472.97l3.97 -6.45c1.11,0.86 2.43,1.59 3.96,2.18 1.52,0.6 3.21,0.9 5.06,0.9 1.41,0 2.56,-0.25 3.46,-0.77 0.89,-0.52 1.33,-1.3 1.33,-2.35 0,-0.86 -0.34,-1.53 -1.04,-2.03 -0.69,-0.5 -1.97,-0.95 -3.85,-1.35 -4.1,-0.88 -7.03,-2.11 -8.82,-3.69 -1.79,-1.57 -2.68,-3.79 -2.68,-6.65 0,-3.31 1.31,-5.96 3.95,-7.94 2.64,-1.98 5.89,-2.96 9.73,-2.96 2,0 3.87,0.25 5.63,0.75 1.75,0.51 3.42,1.27 4.99,2.31l-3.63 6.24c-1.32,-0.84 -2.56,-1.46 -3.73,-1.85 -1.16,-0.39 -2.37,-0.58 -3.61,-0.58 -1.45,0 -2.6,0.28 -3.46,0.81 -0.86,0.55 -1.3,1.26 -1.3,2.12 0,0.95 0.39,1.65 1.18,2.1 0.8,0.45 2.3,0.91 4.53,1.37 3.8,0.77 6.55,1.99 8.21,3.63 1.67,1.63 2.51,3.86 2.51,6.68 0,3.35 -1.26,6.03 -3.79,8.06 -2.52,2.02 -5.86,3.04 -10.02,3.04 -2.27,0 -4.43,-0.3 -6.5,-0.87 -2.05,-0.58 -4.09,-1.48 -6.08,-2.7z"/>
   <path id="8" class="fil2" d="M2197.42 1475.21c-1.01,0.44 -2.14,0.78 -3.38,0.99 -1.24,0.23 -2.49,0.34 -3.75,0.34 -3.54,0 -6.19,-0.87 -7.99,-2.59 -1.8,-1.72 -2.7,-4.29 -2.7,-7.72l0 -16.4 -5.39 -0.03 -0.04 -7.12 5.43 0 0 -7.48 9.62 -2.74 -0.03 10.22 7.56 0 0 7.15 -7.53 -0.03 -0.03 15.83c0,1.35 0.25,2.32 0.78,2.93 0.53,0.61 1.35,0.91 2.47,0.88 0.57,0.03 1.11,-0.04 1.62,-0.2 0.52,-0.16 0.99,-0.35 1.43,-0.55l1.93 6.52z"/>
   <path id="9" class="fil2" d="M2230.3 1475.75l-9.14 0 0 -4.79 -0.13 0c-1.12,1.85 -2.49,3.24 -4.16,4.18 -1.66,0.93 -3.54,1.4 -5.64,1.4 -2.95,0 -5.43,-0.88 -7.45,-2.63 -2.01,-1.75 -3.02,-4.21 -3.02,-7.34 0,-3.07 1,-5.55 3.01,-7.47 2,-1.91 5.11,-3.15 9.32,-3.72l8.14 -1.1 0 -0.64c0,-1.7 -0.53,-2.98 -1.59,-3.84 -1.05,-0.86 -2.49,-1.29 -4.34,-1.29 -1.41,0 -2.93,0.24 -4.57,0.71 -1.62,0.47 -3.26,1.22 -4.9,2.25l-3.44 -5.7c2.18,-1.35 4.36,-2.34 6.58,-2.97 2.21,-0.63 4.63,-0.94 7.21,-0.94 4.81,0 8.37,1.15 10.66,3.46 2.31,2.32 3.46,5.81 3.46,10.48l0 19.95zm-9.07 -13.43l0 -2.37 -6.28 0.79c-1.77,0.25 -3.09,0.77 -3.95,1.56 -0.86,0.79 -1.29,1.85 -1.29,3.17 0,1.22 0.42,2.22 1.26,2.99 0.84,0.79 1.98,1.18 3.41,1.18 2.01,0 3.66,-0.7 4.93,-2.09 1.27,-1.39 1.92,-3.13 1.92,-5.23z"/>
   <path id="10" class="fil2" d="M2261.13 1471.08c-1.17,1.81 -2.62,3.17 -4.35,4.09 -1.72,0.91 -3.73,1.37 -6.02,1.37 -4.11,0 -7.44,-1.47 -9.98,-4.38 -2.53,-2.92 -3.8,-6.99 -3.8,-12.21 0,-5.47 1.4,-9.85 4.2,-13.14 2.8,-3.3 6.44,-4.95 10.93,-4.95 2.16,0 3.98,0.39 5.48,1.16 1.5,0.78 2.68,1.95 3.54,3.5l0.13 0 0 -18.57 9.66 0 0 47.8 -9.66 0 0 -4.67 -0.13 0zm-14.34 -11.41c0,3 0.64,5.33 1.93,6.99 1.31,1.64 3.08,2.47 5.35,2.47 2.19,0 3.96,-0.86 5.33,-2.57 1.37,-1.71 2.06,-3.97 2.06,-6.76l0 -2.78c0,-2.2 -0.66,-4.04 -1.99,-5.52 -1.31,-1.47 -3,-2.2 -5.09,-2.2 -2.36,0 -4.23,0.91 -5.57,2.75 -1.35,1.84 -2.02,4.38 -2.02,7.62z"/>
   <path id="11" class="fil2" d="M2295.66 1476.54c-5.45,0 -9.73,-1.54 -12.86,-4.63 -3.13,-3.1 -4.71,-7.28 -4.71,-12.55 0.03,-5.49 1.65,-9.78 4.89,-12.87 3.24,-3.09 7.62,-4.63 13.15,-4.63 5.45,0 9.71,1.54 12.79,4.62 3.08,3.07 4.62,7.17 4.62,12.31 0,5.47 -1.6,9.78 -4.79,12.97 -3.2,3.18 -7.56,4.78 -13.09,4.78zm0.34 -7.41c2.58,0 4.5,-0.85 5.79,-2.56 1.29,-1.7 1.94,-4.23 1.94,-7.6 0,-3.18 -0.66,-5.61 -1.96,-7.23 -1.3,-1.63 -3.24,-2.44 -5.83,-2.44 -2.54,0 -4.52,0.87 -5.92,2.61 -1.41,1.74 -2.12,4.19 -2.12,7.32 0,3.28 0.69,5.75 2.06,7.4 1.36,1.67 3.37,2.5 6.04,2.5z"/>
   <path id="12" class="fil2" d="M2009.31 1533.1l3.97 -6.46c1.11,0.86 2.43,1.59 3.96,2.19 1.52,0.6 3.21,0.9 5.06,0.9 1.41,0 2.56,-0.26 3.46,-0.77 0.89,-0.52 1.33,-1.31 1.33,-2.35 0,-0.86 -0.34,-1.54 -1.04,-2.03 -0.69,-0.5 -1.97,-0.95 -3.84,-1.35 -4.11,-0.88 -7.04,-2.11 -8.83,-3.69 -1.79,-1.57 -2.68,-3.79 -2.68,-6.65 0,-3.32 1.31,-5.96 3.95,-7.94 2.64,-1.98 5.89,-2.96 9.73,-2.96 2,0 3.87,0.24 5.63,0.75 1.75,0.5 3.42,1.27 4.99,2.3l-3.63 6.24c-1.32,-0.84 -2.56,-1.45 -3.73,-1.85 -1.16,-0.38 -2.37,-0.58 -3.61,-0.58 -1.45,0 -2.6,0.28 -3.46,0.82 -0.86,0.55 -1.3,1.26 -1.3,2.12 0,0.95 0.39,1.65 1.18,2.1 0.8,0.45 2.3,0.9 4.53,1.37 3.8,0.77 6.55,1.99 8.21,3.62 1.67,1.64 2.51,3.87 2.51,6.69 0,3.34 -1.26,6.02 -3.79,8.06 -2.52,2.02 -5.86,3.03 -10.02,3.03 -2.27,0 -4.43,-0.29 -6.5,-0.86 -2.05,-0.58 -4.09,-1.48 -6.08,-2.7z"/>
   <path id="13" class="fil2" d="M2057.58 1536.66c-5.44,0 -9.73,-1.54 -12.86,-4.63 -3.13,-3.09 -4.7,-7.27 -4.7,-12.54 0.02,-5.49 1.64,-9.79 4.88,-12.88 3.24,-3.09 7.62,-4.62 13.16,-4.62 5.44,0 9.7,1.53 12.78,4.61 3.08,3.08 4.62,7.18 4.62,12.31 0,5.47 -1.6,9.79 -4.79,12.97 -3.2,3.19 -7.56,4.78 -13.09,4.78zm0.35 -7.4c2.57,0 4.49,-0.85 5.79,-2.56 1.29,-1.7 1.93,-4.23 1.93,-7.6 0,-3.19 -0.65,-5.61 -1.96,-7.23 -1.3,-1.63 -3.23,-2.45 -5.83,-2.45 -2.54,0 -4.52,0.87 -5.92,2.62 -1.41,1.74 -2.12,4.18 -2.12,7.32 0,3.28 0.69,5.74 2.06,7.4 1.36,1.67 3.38,2.5 6.05,2.5z"/>
   <polygon id="14" class="fil2" points="2082.68,1535.88 2082.68,1488.08 2092.32,1488.08 2092.32,1535.88 "/>
   <path id="15" class="fil2" d="M2106.39 1498.36c-1.68,0 -3.06,-0.52 -4.13,-1.53 -1.08,-1.02 -1.61,-2.29 -1.61,-3.8 0,-1.56 0.53,-2.84 1.61,-3.83 1.07,-1 2.45,-1.51 4.13,-1.51 1.68,0 3.06,0.51 4.11,1.51 1.07,0.99 1.59,2.27 1.59,3.83 0,1.55 -0.52,2.83 -1.59,3.83 -1.05,0.99 -2.43,1.5 -4.11,1.5zm4.73 37.52l-9.62 0 0 -33.08 9.62 0 0 33.08z"/>
   <path id="16" class="fil2" d="M2142.9 1531.21c-1.18,1.8 -2.63,3.17 -4.35,4.09 -1.72,0.91 -3.74,1.36 -6.03,1.36 -4.11,0 -7.44,-1.46 -9.98,-4.38 -2.53,-2.91 -3.79,-6.98 -3.79,-12.2 0,-5.47 1.39,-9.85 4.19,-13.14 2.8,-3.31 6.44,-4.95 10.94,-4.95 2.15,0 3.97,0.38 5.48,1.16 1.49,0.77 2.68,1.95 3.54,3.5l0.13 0 0 -18.57 9.65 0 0 47.8 -9.65 0 0 -4.67 -0.13 0zm-14.35 -11.41c0,3 0.65,5.33 1.94,6.98 1.3,1.65 3.07,2.48 5.35,2.48 2.18,0 3.96,-0.86 5.32,-2.57 1.37,-1.71 2.06,-3.98 2.06,-6.76l0 -2.78c0,-2.21 -0.66,-4.05 -1.98,-5.52 -1.31,-1.48 -3,-2.21 -5.09,-2.21 -2.37,0 -4.23,0.92 -5.58,2.76 -1.34,1.84 -2.02,4.38 -2.02,7.62z"/>
   <path id="17" class="fil2" d="M2177.42 1536.66c-5.44,0 -9.73,-1.54 -12.86,-4.63 -3.13,-3.09 -4.7,-7.27 -4.7,-12.54 0.02,-5.49 1.64,-9.79 4.88,-12.88 3.24,-3.09 7.62,-4.62 13.16,-4.62 5.44,0 9.7,1.53 12.78,4.61 3.08,3.08 4.62,7.18 4.62,12.31 0,5.47 -1.59,9.79 -4.79,12.97 -3.2,3.19 -7.55,4.78 -13.09,4.78zm0.35 -7.4c2.57,0 4.5,-0.85 5.79,-2.56 1.29,-1.7 1.93,-4.23 1.93,-7.6 0,-3.19 -0.65,-5.61 -1.95,-7.23 -1.31,-1.63 -3.24,-2.45 -5.84,-2.45 -2.54,0 -4.52,0.87 -5.92,2.62 -1.41,1.74 -2.12,4.18 -2.12,7.32 0,3.28 0.69,5.74 2.06,7.4 1.37,1.67 3.38,2.5 6.05,2.5z"/>
   <path class="fil2" d="M2634.37 1475.75l-9.75 0 0 -27.27c0,-1.43 0.03,-2.95 0.1,-4.57 0.06,-1.6 0.16,-3.29 0.28,-5.05l-0.25 0c-0.27,1.36 -0.52,2.54 -0.74,3.52 -0.22,0.98 -0.43,1.75 -0.65,2.34l-10.93 31.03 -7.92 0 -11.1 -30.72c-0.15,-0.42 -0.34,-1.14 -0.58,-2.17 -0.25,-1.02 -0.53,-2.36 -0.84,-4l-0.28 0c0.14,2.13 0.25,4.15 0.31,6.09 0.07,1.92 0.1,3.74 0.1,5.45l0 25.35 -8.92 0 0 -45.21 14.41 0 9.54 27.11c0.38,1.01 0.7,2 0.95,2.98 0.26,0.98 0.47,1.96 0.67,2.95l0.18 0c0.32,-1.13 0.62,-2.21 0.92,-3.22 0.3,-1 0.6,-1.93 0.91,-2.78l9.59 -27.04 14 0 0 45.21z"/>
   <path id="1" class="fil2" d="M2673.84 1461.91l-21.79 0c0.17,2.56 1,4.48 2.49,5.74 1.5,1.26 3.56,1.89 6.21,1.89 0.95,0 2.25,-0.28 3.92,-0.84 1.66,-0.56 3.28,-1.42 4.88,-2.59l4.22 5.57c-2.22,1.68 -4.51,2.92 -6.85,3.69 -2.35,0.78 -4.91,1.17 -7.71,1.17 -5.29,0 -9.4,-1.48 -12.33,-4.45 -2.92,-2.96 -4.39,-7.09 -4.42,-12.39 0,-5.29 1.55,-9.6 4.65,-12.89 3.1,-3.3 7.03,-4.95 11.79,-4.95 4.55,0 8.19,1.39 10.89,4.18 2.7,2.78 4.05,6.77 4.05,12l0 3.87zm-8.99 -6.03c0,-2.62 -0.5,-4.52 -1.53,-5.69 -1.02,-1.16 -2.52,-1.74 -4.48,-1.74 -1.75,0 -3.26,0.66 -4.51,2 -1.26,1.33 -2.04,3.14 -2.31,5.43l12.83 0z"/>
   <path id="2" class="fil2" d="M2732.42 1475.75l-9.61 0 0 -18.89c0,-2.56 -0.47,-4.46 -1.38,-5.7 -0.91,-1.24 -2.3,-1.86 -4.18,-1.86 -1.74,0 -3.17,0.75 -4.29,2.27 -1.11,1.51 -1.67,3.39 -1.67,5.64l0 18.54 -9.64 0 0 -19.14c0,-2.46 -0.46,-4.29 -1.38,-5.51 -0.91,-1.2 -2.27,-1.8 -4.08,-1.8 -1.83,0 -3.29,0.72 -4.38,2.16 -1.1,1.43 -1.65,3.39 -1.65,5.84l0 18.45 -9.64 0 0 -33.07 9.64 0 0 5.16 0.13 0c1.08,-1.8 2.55,-3.26 4.44,-4.35 1.87,-1.09 3.95,-1.63 6.22,-1.63 2.33,0 4.3,0.52 5.9,1.57 1.6,1.06 2.82,2.61 3.66,4.67 1.26,-2.09 2.82,-3.65 4.67,-4.68 1.84,-1.04 3.99,-1.56 6.42,-1.56 3.62,0 6.33,1.11 8.13,3.34 1.79,2.22 2.69,5.56 2.69,9.99l0 20.56z"/>
   <path id="3" class="fil2" d="M2756.67 1476.54c-5.45,0 -9.73,-1.54 -12.87,-4.63 -3.13,-3.1 -4.7,-7.28 -4.7,-12.55 0.02,-5.49 1.65,-9.78 4.89,-12.87 3.24,-3.09 7.62,-4.63 13.15,-4.63 5.45,0 9.71,1.54 12.79,4.62 3.07,3.07 4.61,7.17 4.61,12.31 0,5.47 -1.59,9.78 -4.79,12.97 -3.19,3.18 -7.55,4.78 -13.08,4.78zm0.34 -7.41c2.57,0 4.5,-0.85 5.79,-2.56 1.29,-1.7 1.94,-4.23 1.94,-7.6 0,-3.18 -0.66,-5.61 -1.96,-7.23 -1.3,-1.63 -3.24,-2.44 -5.83,-2.44 -2.54,0 -4.52,0.87 -5.92,2.61 -1.41,1.74 -2.12,4.19 -2.12,7.32 0,3.28 0.68,5.75 2.05,7.4 1.37,1.67 3.38,2.5 6.05,2.5z"/>
   <path id="4" class="fil2" d="M2802.1 1450.72c-0.42,-0.11 -0.84,-0.19 -1.27,-0.24 -0.44,-0.05 -0.93,-0.08 -1.47,-0.08 -2.64,0 -4.62,0.83 -5.95,2.5 -1.33,1.68 -2,3.99 -2,6.95l0 15.9 -9.64 0 0 -33.07 9.64 0 0 6.17 0.13 0c0.79,-2.24 1.92,-3.93 3.39,-5.08 1.46,-1.13 3.24,-1.7 5.35,-1.7 0.49,0 0.98,0.05 1.44,0.11 0.46,0.08 0.96,0.16 1.48,0.27l-1.1 8.27z"/>
   <path id="5" class="fil2" d="M2813.45 1438.23c-1.68,0 -3.06,-0.51 -4.13,-1.53 -1.08,-1.02 -1.61,-2.29 -1.61,-3.8 0,-1.56 0.53,-2.84 1.61,-3.83 1.07,-1 2.45,-1.5 4.13,-1.5 1.68,0 3.06,0.5 4.11,1.5 1.07,0.99 1.59,2.27 1.59,3.83 0,1.55 -0.52,2.84 -1.59,3.84 -1.05,0.99 -2.43,1.49 -4.11,1.49zm4.72 37.52l-9.61 0 0 -33.07 9.61 0 0 33.07z"/>
   <path id="6" class="fil2" d="M2854.91 1475.75l-9.14 0 0 -4.79 -0.13 0c-1.12,1.85 -2.5,3.24 -4.16,4.18 -1.66,0.93 -3.55,1.4 -5.64,1.4 -2.95,0 -5.43,-0.88 -7.45,-2.63 -2.01,-1.75 -3.03,-4.21 -3.03,-7.34 0,-3.07 1,-5.55 3.02,-7.47 2,-1.91 5.11,-3.15 9.32,-3.72l8.13 -1.1 0 -0.64c0,-1.7 -0.52,-2.98 -1.58,-3.84 -1.05,-0.86 -2.49,-1.29 -4.35,-1.29 -1.41,0 -2.92,0.24 -4.56,0.71 -1.62,0.47 -3.26,1.22 -4.9,2.25l-3.44 -5.7c2.17,-1.35 4.36,-2.34 6.58,-2.97 2.21,-0.63 4.62,-0.94 7.21,-0.94 4.81,0 8.37,1.15 10.66,3.46 2.31,2.32 3.46,5.81 3.46,10.48l0 19.95zm-9.08 -13.43l0 -2.37 -6.27 0.79c-1.78,0.25 -3.09,0.77 -3.95,1.56 -0.86,0.79 -1.29,1.85 -1.29,3.17 0,1.22 0.42,2.22 1.26,2.99 0.84,0.79 1.98,1.18 3.41,1.18 2.01,0 3.66,-0.7 4.93,-2.09 1.27,-1.39 1.91,-3.13 1.91,-5.23z"/>
   <path id="7" class="fil2" d="M2860.46 1472.97l3.97 -6.45c1.11,0.86 2.43,1.59 3.96,2.18 1.52,0.6 3.21,0.9 5.06,0.9 1.41,0 2.56,-0.25 3.46,-0.77 0.89,-0.52 1.33,-1.3 1.33,-2.35 0,-0.86 -0.34,-1.53 -1.04,-2.03 -0.69,-0.5 -1.97,-0.95 -3.85,-1.35 -4.1,-0.88 -7.04,-2.11 -8.82,-3.69 -1.79,-1.57 -2.68,-3.79 -2.68,-6.65 0,-3.31 1.31,-5.96 3.95,-7.94 2.63,-1.98 5.89,-2.96 9.73,-2.96 2,0 3.87,0.25 5.63,0.75 1.75,0.51 3.42,1.27 4.99,2.31l-3.63 6.24c-1.32,-0.84 -2.56,-1.46 -3.73,-1.85 -1.16,-0.39 -2.37,-0.58 -3.61,-0.58 -1.45,0 -2.6,0.28 -3.46,0.81 -0.86,0.55 -1.3,1.26 -1.3,2.12 0,0.95 0.39,1.65 1.18,2.1 0.8,0.45 2.3,0.91 4.53,1.37 3.8,0.77 6.54,1.99 8.21,3.63 1.67,1.63 2.51,3.86 2.51,6.68 0,3.35 -1.26,6.03 -3.79,8.06 -2.52,2.02 -5.86,3.04 -10.02,3.04 -2.27,0 -4.43,-0.3 -6.5,-0.87 -2.06,-0.58 -4.09,-1.48 -6.08,-2.7z"/>
   <path id="8" class="fil2" d="M2614.52 1522.04l-21.79 0c0.16,2.56 1,4.47 2.49,5.73 1.49,1.26 3.56,1.9 6.21,1.9 0.94,0 2.25,-0.28 3.92,-0.84 1.65,-0.56 3.28,-1.42 4.88,-2.6l4.22 5.58c-2.23,1.68 -4.51,2.92 -6.85,3.69 -2.35,0.77 -4.91,1.16 -7.71,1.16 -5.3,0 -9.41,-1.47 -12.33,-4.44 -2.92,-2.96 -4.4,-7.09 -4.42,-12.39 0,-5.3 1.55,-9.6 4.65,-12.89 3.1,-3.31 7.03,-4.95 11.79,-4.95 4.55,0 8.19,1.38 10.89,4.17 2.7,2.79 4.05,6.78 4.05,12l0 3.88zm-8.99 -6.03c0,-2.63 -0.51,-4.52 -1.53,-5.69 -1.02,-1.17 -2.52,-1.75 -4.49,-1.75 -1.74,0 -3.25,0.67 -4.51,2 -1.26,1.34 -2.03,3.15 -2.3,5.44l12.83 0z"/>
   <path id="9" class="fil2" d="M2652.38 1502.8l-10.94 16.11 10.84 16.97 -11.09 0 -4.99 -9.12c-0.18,-0.38 -0.4,-0.81 -0.64,-1.29 -0.24,-0.48 -0.5,-1.03 -0.77,-1.67l-0.13 0c-0.15,0.42 -0.33,0.86 -0.55,1.34 -0.22,0.47 -0.48,0.99 -0.77,1.53l-5.05 9.21 -11.06 0 11.19 -16.46 -10.54 -16.62 11.16 0 4.92 9.5c0.33,0.6 0.6,1.16 0.81,1.64 0.23,0.5 0.4,0.97 0.52,1.41l0.13 0c0.19,-0.5 0.41,-1.01 0.64,-1.52 0.25,-0.52 0.51,-1.05 0.78,-1.6l5.04 -9.43 10.5 0z"/>
   <path id="10" class="fil2" d="M2677.83 1535.34c-1.01,0.44 -2.14,0.77 -3.38,0.99 -1.24,0.22 -2.48,0.33 -3.74,0.33 -3.54,0 -6.2,-0.86 -8,-2.58 -1.8,-1.72 -2.7,-4.29 -2.7,-7.73l0 -16.39 -5.39 -0.03 -0.04 -7.13 5.43 0 0 -7.48 9.62 -2.73 -0.03 10.21 7.56 0 0 7.16 -7.53 -0.03 -0.03 15.83c0,1.35 0.26,2.31 0.78,2.93 0.53,0.61 1.35,0.9 2.47,0.88 0.57,0.02 1.11,-0.04 1.62,-0.2 0.52,-0.17 0.99,-0.35 1.44,-0.55l1.92 6.52z"/>
   <path id="11" class="fil2" d="M2703.9 1510.84c-0.42,-0.1 -0.84,-0.18 -1.27,-0.23 -0.43,-0.06 -0.93,-0.08 -1.47,-0.08 -2.63,0 -4.61,0.83 -5.95,2.5 -1.33,1.68 -2,3.99 -2,6.95l0 15.9 -9.64 0 0 -33.08 9.64 0 0 6.18 0.13 0c0.8,-2.25 1.93,-3.94 3.39,-5.08 1.46,-1.13 3.24,-1.7 5.35,-1.7 0.49,0 0.98,0.04 1.44,0.11 0.46,0.07 0.96,0.16 1.49,0.27l-1.11 8.26z"/>
   <path id="12" class="fil2" d="M2737.23 1535.88l-9.14 0 0 -4.79 -0.13 0c-1.12,1.85 -2.49,3.24 -4.16,4.17 -1.66,0.94 -3.54,1.4 -5.64,1.4 -2.95,0 -5.43,-0.87 -7.45,-2.62 -2.01,-1.76 -3.02,-4.21 -3.02,-7.34 0,-3.07 1,-5.56 3.01,-7.47 2,-1.92 5.11,-3.16 9.32,-3.73l8.14 -1.09 0 -0.64c0,-1.7 -0.53,-2.98 -1.59,-3.84 -1.05,-0.86 -2.49,-1.29 -4.34,-1.29 -1.41,0 -2.93,0.23 -4.57,0.71 -1.62,0.47 -3.26,1.21 -4.89,2.25l-3.45 -5.71c2.18,-1.34 4.36,-2.33 6.58,-2.97 2.22,-0.62 4.63,-0.93 7.21,-0.93 4.81,0 8.37,1.15 10.66,3.46 2.31,2.31 3.46,5.8 3.46,10.47l0 19.96zm-9.07 -13.43l0 -2.37 -6.28 0.78c-1.77,0.26 -3.09,0.78 -3.95,1.56 -0.86,0.8 -1.29,1.85 -1.29,3.18 0,1.22 0.42,2.22 1.26,2.99 0.84,0.79 1.98,1.17 3.41,1.17 2.01,0 3.66,-0.7 4.93,-2.08 1.27,-1.39 1.92,-3.14 1.92,-5.23z"/>
   <path id="13" class="fil2" d="M2745.84 1535.88l0.03 -33.08 9.61 0 0.03 33.08 -9.67 0zm4.92 -38.19l-7 0 8.13 -10.18 8.61 0 -9.74 10.18z"/>
   <path id="14" class="fil2" d="M2774.44 1531.94l-0.13 0 0 3.94 -9.65 0 0 -47.8 9.65 0 0 19.79 0.13 0c1.25,-1.95 2.79,-3.42 4.6,-4.41 1.81,-0.99 3.89,-1.47 6.24,-1.47 4.27,0 7.56,1.46 9.87,4.39 2.32,2.94 3.47,6.93 3.47,12 0,5.53 -1.35,9.95 -4.05,13.29 -2.7,3.32 -6.3,4.99 -10.8,4.99 -2.06,0 -3.87,-0.39 -5.43,-1.18 -1.55,-0.79 -2.85,-1.97 -3.9,-3.54zm-0.28 -13.91l0 3.53c0,2.21 0.64,4.04 1.93,5.5 1.29,1.47 2.95,2.2 4.96,2.2 2.45,0 4.34,-0.95 5.69,-2.82 1.34,-1.89 2.01,-4.53 2.01,-7.93 0,-2.87 -0.62,-5.09 -1.86,-6.69 -1.24,-1.6 -2.98,-2.4 -5.23,-2.4 -2.19,0 -3.98,0.8 -5.4,2.4 -1.4,1.6 -2.1,3.66 -2.1,6.21z"/>
   <polygon id="15" class="fil2" points="2805.81,1535.88 2805.81,1488.08 2815.45,1488.08 2815.45,1535.88 "/>
   <path id="16" class="fil2" d="M2854.01 1522.04l-21.78 0c0.16,2.56 1,4.47 2.49,5.73 1.49,1.26 3.56,1.9 6.21,1.9 0.94,0 2.25,-0.28 3.91,-0.84 1.66,-0.56 3.29,-1.42 4.89,-2.6l4.22 5.58c-2.23,1.68 -4.51,2.92 -6.86,3.69 -2.34,0.77 -4.9,1.16 -7.7,1.16 -5.3,0 -9.41,-1.47 -12.34,-4.44 -2.91,-2.96 -4.39,-7.09 -4.41,-12.39 0,-5.3 1.55,-9.6 4.65,-12.89 3.1,-3.31 7.03,-4.95 11.79,-4.95 4.55,0 8.19,1.38 10.89,4.17 2.7,2.79 4.04,6.78 4.04,12l0 3.88zm-8.98 -6.03c0,-2.63 -0.51,-4.52 -1.53,-5.69 -1.02,-1.17 -2.52,-1.75 -4.49,-1.75 -1.74,0 -3.25,0.67 -4.51,2 -1.26,1.34 -2.03,3.15 -2.3,5.44l12.83 0z"/>
   <path id="17" class="fil2" d="M2857.61 1533.1l3.97 -6.46c1.11,0.86 2.43,1.59 3.96,2.19 1.52,0.6 3.21,0.9 5.06,0.9 1.41,0 2.56,-0.26 3.45,-0.77 0.9,-0.52 1.34,-1.31 1.34,-2.35 0,-0.86 -0.35,-1.54 -1.05,-2.03 -0.68,-0.5 -1.97,-0.95 -3.84,-1.35 -4.1,-0.88 -7.04,-2.11 -8.82,-3.69 -1.79,-1.57 -2.68,-3.79 -2.68,-6.65 0,-3.32 1.31,-5.96 3.95,-7.94 2.63,-1.98 5.88,-2.96 9.73,-2.96 2,0 3.87,0.24 5.63,0.75 1.75,0.5 3.42,1.27 4.99,2.3l-3.63 6.24c-1.32,-0.84 -2.56,-1.45 -3.73,-1.85 -1.17,-0.38 -2.37,-0.58 -3.61,-0.58 -1.45,0 -2.6,0.28 -3.46,0.82 -0.86,0.55 -1.31,1.26 -1.31,2.12 0,0.95 0.4,1.65 1.19,2.1 0.79,0.45 2.3,0.9 4.53,1.37 3.8,0.77 6.54,1.99 8.21,3.62 1.67,1.64 2.51,3.87 2.51,6.69 0,3.34 -1.26,6.02 -3.79,8.06 -2.52,2.02 -5.87,3.03 -10.02,3.03 -2.27,0 -4.43,-0.29 -6.5,-0.86 -2.06,-0.58 -4.09,-1.48 -6.08,-2.7z"/>
   <path class="fil6" d="M2006.82 515.66l0 163.15 -424.04 0 5.6 -5.16 0 130.87 -10.77 0 0 -136.47 423.61 0 -5.17 5.6 0 -157.99 10.77 0zm-407.68 283.26l-16.36 32.29 -15.93 -32.29 32.29 0z"/>
   <path class="fil6" d="M1862.17 927.64l250.98 0 0 10.76 -250.98 0 0 -10.76zm245.38 -10.76l32.29 15.93 -32.29 16.35 0 -32.28z"/>
   <path class="fil6" d="M2425.26 1034.83l0 178.23 -320.72 0 5.59 -5.17 0 145.94 -10.76 0 0 -151.54 320.72 0 -5.6 5.6 0 -173.06 10.77 0zm-304.36 313.4l-16.36 32.29 -15.93 -32.29 32.29 0z"/>
   <path class="fil6" d="M2414.49 1034.83l0 178.23 320.72 0 -5.59 -5.17 0 145.94 10.76 0 0 -151.54 -320.72 0 5.6 5.6 0 -173.06 -10.77 0zm304.36 313.4l16.36 32.29 15.93 -32.29 -32.29 0z"/>
  </g>
 </g>
</svg>
