<?xml version="1.0" encoding="UTF-8"?>
<!DOCTYPE svg PUBLIC "-//W3C//DTD SVG 1.1//EN" "http://www.w3.org/Graphics/SVG/1.1/DTD/svg11.dtd">
<!-- Creator: CorelDRAW 2020 (64-Bit) -->
<svg xmlns="http://www.w3.org/2000/svg" xml:space="preserve" width="2689px" height="2275px" version="1.1" style="shape-rendering:geometricPrecision; text-rendering:geometricPrecision; image-rendering:optimizeQuality; fill-rule:evenodd; clip-rule:evenodd"
viewBox="0 0 2689 2275.15"
 xmlns:xlink="http://www.w3.org/1999/xlink"
 xmlns:xodm="http://www.corel.com/coreldraw/odm/2003">
 <defs>
  <style type="text/css">
   <![CDATA[
    .str4 {stroke:#0070D2;stroke-width:10;stroke-miterlimit:22.9256}
    .str1 {stroke:#02B948;stroke-width:3;stroke-miterlimit:22.9256}
    .str3 {stroke:#F00000;stroke-width:3;stroke-miterlimit:22.9256}
    .str2 {stroke:#F06600;stroke-width:3;stroke-miterlimit:22.9256}
    .str0 {stroke:#FFC8D8;stroke-width:3;stroke-miterlimit:22.9256;stroke-dasharray:30.000000 15.000000}
    .fil0 {fill:none}
    .fil9 {fill:#0070C0}
    .fil5 {fill:#00C85F}
    .fil7 {fill:red}
    .fil6 {fill:#FF6600}
    .fil4 {fill:#666666;fill-rule:nonzero}
    .fil3 {fill:#B3B3B3;fill-rule:nonzero}
    .fil2 {fill:#B3B3B3;fill-rule:nonzero}
    .fil10 {fill:#FFC8D8;fill-rule:nonzero}
    .fil8 {fill:white;fill-rule:nonzero}
    .fil1 {fill:#C8B4F0;fill-opacity:0.301961}
   ]]>
  </style>
 </defs>
 <g id="Capa_x0020_1">
  <metadata id="CorelCorpID_0Corel-Layer"/>
  <rect class="fil0" width="2689" height="2275.15"/>
  <g>
   <path class="fil1" d="M284.43 1552.95l2120.14 0c38.5,0 70,31.5 70,70l0 405.03c0,38.5 -31.5,70 -70,70l-2120.14 0c-38.5,0 -70,-31.5 -70,-70l0 -405.03c0,-38.5 31.5,-70 70,-70z"/>
   <path id="1" class="fil0 str0" d="M284.43 1552.95l2120.14 0c38.5,0 70,31.5 70,70l0 405.03c0,38.5 -31.5,70 -70,70l-2120.14 0c-38.5,0 -70,-31.5 -70,-70l0 -405.03c0,-38.5 31.5,-70 70,-70z"/>
  </g>
  <g>
   <path class="fil1" d="M284.43 351.1l2120.14 0c38.5,0 70,31.5 70,70l0 915.58c0,38.5 -31.5,70.01 -70,70.01l-2120.14 0c-38.5,0 -70,-31.51 -70,-70.01l0 -915.58c0,-38.5 31.5,-70 70,-70z"/>
   <path id="1" class="fil0 str0" d="M284.43 351.1l2120.14 0c38.5,0 70,31.5 70,70l0 915.58c0,38.5 -31.5,70.01 -70,70.01l-2120.14 0c-38.5,0 -70,-31.51 -70,-70.01l0 -915.58c0,-38.5 31.5,-70 70,-70z"/>
  </g>
  <g>
   <path class="fil2" d="M471.48 929.36l-30 -70.02 0 0 1.87 0.91 1.88 0.85 1.87 0.79 1.88 0.74 1.87 0.67 1.88 0.62 1.87 0.55 1.88 0.5 1.87 0.44 1.88 0.38 1.87 0.32 1.88 0.27 1.88 0.2 1.87 0.15 1.88 0.09 1.87 0.03 1.88 -0.03 1.87 -0.09 1.88 -0.15 1.87 -0.2 1.88 -0.27 1.87 -0.32 1.88 -0.38 1.88 -0.44 1.87 -0.5 1.88 -0.55 1.87 -0.62 1.88 -0.67 1.87 -0.74 1.88 -0.79 1.87 -0.85 1.88 -0.91 -30.01 70.02zm5 -660.46l0 625.27 -10 0 0 -625.27 10 0z"/>
  </g>
  <g>
   <path class="fil2" d="M1099.12 228.86l30.01 70.02 0 0 -1.88 -0.91 -1.87 -0.85 -1.88 -0.79 -1.87 -0.73 -1.88 -0.68 -1.87 -0.61 -1.88 -0.56 -1.87 -0.5 -1.88 -0.43 -1.87 -0.39 -1.88 -0.32 -1.87 -0.26 -1.88 -0.21 -1.88 -0.14 -1.87 -0.09 -1.88 -0.03 -1.87 0.03 -1.88 0.09 -1.87 0.14 -1.88 0.21 -1.87 0.26 -1.88 0.32 -1.87 0.39 -1.88 0.43 -1.88 0.5 -1.87 0.56 -1.88 0.61 -1.87 0.68 -1.88 0.73 -1.87 0.79 -1.88 0.85 -1.87 0.91 30 -70.02zm-5 244.47l0 -209.28 10 0 0 209.28 -10 0z"/>
  </g>
  <g>
   <path class="fil3" d="M1581.17 1003.63l-74.28 -16.89 0 0 1.84 -0.98 1.79 -1.02 1.74 -1.05 1.69 -1.09 1.65 -1.12 1.6 -1.15 1.55 -1.19 1.51 -1.23 1.46 -1.25 1.41 -1.3 1.36 -1.33 1.32 -1.36 1.27 -1.39 1.22 -1.44 1.17 -1.46 1.13 -1.5 1.08 -1.53 1.03 -1.57 0.98 -1.61 0.94 -1.63 0.89 -1.68 0.84 -1.7 0.79 -1.74 0.75 -1.78 0.7 -1.81 0.65 -1.84 0.61 -1.88 0.55 -1.92 0.51 -1.94 0.47 -1.99 0.41 -2.01 0.37 -2.05 39 65.43zm-333.47 -248.51l307.94 223.78 -5.88 8.09 -307.94 -223.78 5.88 -8.09z"/>
  </g>
  <g>
   <path class="fil4" d="M651.49 1109.46l70.02 -30.01 0 0 -0.91 1.88 -0.85 1.87 -0.79 1.88 -0.73 1.87 -0.68 1.88 -0.61 1.87 -0.56 1.88 -0.5 1.87 -0.44 1.88 -0.38 1.87 -0.32 1.88 -0.26 1.87 -0.21 1.88 -0.15 1.87 -0.08 1.88 -0.03 1.88 0.03 1.87 0.08 1.88 0.15 1.87 0.21 1.88 0.26 1.87 0.32 1.88 0.38 1.87 0.44 1.88 0.5 1.88 0.56 1.87 0.61 1.88 0.68 1.87 0.73 1.88 0.79 1.87 0.85 1.88 0.91 1.87 -70.02 -30zm895.26 5l-860.07 0 0 -10 860.07 0 0 10z"/>
  </g>
  <circle class="fil5 str1" cx="1099.12" cy="653.34" r="180.01"/>
  <circle class="fil6 str2" cx="471.48" cy="1109.37" r="180.01"/>
  <circle class="fil7 str3" cx="1726.77" cy="1109.46" r="180.01"/>
  <g>
   <path class="fil3" d="M918.91 755.83l-75.47 10.24 0 0 1.37 -1.57 1.32 -1.58 1.26 -1.59 1.21 -1.62 1.15 -1.62 1.09 -1.65 1.04 -1.65 0.98 -1.68 0.92 -1.69 0.87 -1.7 0.81 -1.73 0.76 -1.73 0.7 -1.76 0.64 -1.76 0.58 -1.79 0.53 -1.8 0.47 -1.81 0.42 -1.83 0.36 -1.85 0.3 -1.86 0.25 -1.88 0.19 -1.89 0.13 -1.91 0.08 -1.92 0.02 -1.94 -0.04 -1.96 -0.09 -1.97 -0.15 -1.99 -0.21 -2 -0.26 -2.02 -0.32 -2.03 -0.37 -2.05 59.46 47.59zm-243.27 169.85l-9.93 1.22 -0.69 -9.27 0.17 -9.34 0.99 -9.35 1.77 -9.35 2.51 -9.3 3.2 -9.24 3.87 -9.14 4.48 -9.03 5.07 -8.89 5.62 -8.71 6.13 -8.52 6.61 -8.3 7.05 -8.05 7.46 -7.78 7.84 -7.47 8.17 -7.15 8.49 -6.79 8.76 -6.41 9 -6 9.2 -5.56 9.39 -5.1 9.53 -4.59 9.64 -4.07 9.71 -3.52 9.77 -2.93 9.78 -2.32 9.76 -1.66 9.71 -0.99 9.63 -0.27 9.5 0.48 9.36 1.26 9.15 2.08 -2.67 9.64 -8.26 -1.87 -8.49 -1.15 -8.7 -0.44 -8.87 0.25 -9.01 0.92 -9.12 1.55 -9.18 2.18 -9.22 2.76 -9.2 3.34 -9.17 3.87 -9.09 4.39 -8.97 4.86 -8.82 5.33 -8.64 5.75 -8.4 6.16 -8.15 6.52 -7.85 6.86 -7.52 7.17 -7.15 7.46 -6.74 7.7 -6.32 7.93 -5.83 8.11 -5.34 8.28 -4.79 8.4 -4.23 8.49 -3.61 8.56 -2.99 8.59 -2.32 8.6 -1.62 8.57 -0.9 8.51 -0.16 8.43 0.63 8.34z"/>
  </g>
  <g>
   <path class="fil4" d="M672.15 983.97l75.48 -10.24 0 0 -1.38 1.56 -1.32 1.59 -1.26 1.59 -1.21 1.61 -1.15 1.63 -1.09 1.64 -1.04 1.66 -0.98 1.68 -0.92 1.69 -0.87 1.7 -0.81 1.72 -0.76 1.74 -0.69 1.75 -0.65 1.77 -0.58 1.78 -0.53 1.81 -0.47 1.81 -0.42 1.83 -0.36 1.85 -0.3 1.86 -0.25 1.88 -0.18 1.89 -0.14 1.91 -0.07 1.92 -0.02 1.94 0.03 1.96 0.09 1.97 0.15 1.99 0.21 2 0.26 2.02 0.32 2.03 0.38 2.05 -59.47 -47.59zm243.27 -169.85l9.93 -1.22 0.69 9.27 -0.16 9.34 -1 9.35 -1.77 9.34 -2.5 9.31 -3.21 9.24 -3.86 9.14 -4.49 9.03 -5.07 8.88 -5.62 8.72 -6.13 8.52 -6.61 8.3 -7.05 8.05 -7.46 7.78 -7.84 7.47 -8.17 7.15 -8.49 6.79 -8.75 6.41 -9.01 6 -9.2 5.56 -9.39 5.09 -9.52 4.6 -9.64 4.07 -9.72 3.52 -9.77 2.93 -9.77 2.31 -9.77 1.67 -9.71 0.99 -9.63 0.27 -9.5 -0.48 -9.35 -1.26 -9.16 -2.09 2.67 -9.63 8.26 1.87 8.5 1.15 8.69 0.44 8.87 -0.25 9.01 -0.92 9.12 -1.55 9.18 -2.18 9.22 -2.77 9.21 -3.33 9.16 -3.87 9.09 -4.39 8.97 -4.87 8.82 -5.32 8.64 -5.76 8.4 -6.15 8.15 -6.52 7.85 -6.86 7.52 -7.18 7.15 -7.45 6.75 -7.7 6.31 -7.93 5.84 -8.11 5.33 -8.28 4.79 -8.4 4.23 -8.49 3.62 -8.56 2.98 -8.6 2.32 -8.59 1.62 -8.57 0.9 -8.51 0.16 -8.44 -0.63 -8.33z"/>
  </g>
  <path class="fil8" d="M978.72 669.88c-2.9,1.04 -6.24,1.56 -10.03,1.56 -3.72,0 -6.94,-0.71 -9.64,-2.14 -2.7,-1.42 -4.77,-3.45 -6.19,-6.08 -1.43,-2.62 -2.14,-5.66 -2.14,-9.09 0,-3.69 0.8,-6.99 2.4,-9.86 1.59,-2.88 3.85,-5.11 6.76,-6.68 2.91,-1.57 6.26,-2.35 10.05,-2.35 3.04,0 5.96,0.36 8.79,1.1l0 9.75c-0.97,-0.59 -2.14,-1.05 -3.49,-1.37 -1.35,-0.33 -2.71,-0.48 -4.1,-0.48 -2.86,0 -5.12,0.82 -6.78,2.46 -1.65,1.64 -2.48,3.87 -2.48,6.69 0,2.8 0.83,5.01 2.48,6.62 1.66,1.62 3.87,2.43 6.63,2.43 2.56,0 5.14,-0.65 7.74,-1.95l0 9.39z"/>
  <path id="1" class="fil8" d="M1017.47 653.23c0,3.52 -0.76,6.66 -2.27,9.43 -1.51,2.78 -3.63,4.94 -6.35,6.47 -2.71,1.54 -5.76,2.31 -9.13,2.31 -3.28,0 -6.28,-0.74 -8.97,-2.24 -2.69,-1.49 -4.79,-3.58 -6.29,-6.27 -1.49,-2.69 -2.24,-5.74 -2.24,-9.14 0,-3.57 0.76,-6.77 2.26,-9.62 1.52,-2.85 3.65,-5.05 6.38,-6.6 2.73,-1.56 5.84,-2.33 9.33,-2.33 3.35,0 6.35,0.74 8.99,2.23 2.65,1.49 4.69,3.62 6.13,6.37 1.44,2.76 2.16,5.89 2.16,9.39zm-11.2 0.3c0,-2.88 -0.55,-5.14 -1.66,-6.8 -1.11,-1.66 -2.62,-2.49 -4.53,-2.49 -2.1,0 -3.74,0.8 -4.9,2.39 -1.18,1.59 -1.76,3.84 -1.76,6.76 0,2.84 0.58,5.06 1.74,6.66 1.17,1.59 2.74,2.39 4.74,2.39 1.23,0 2.32,-0.36 3.29,-1.08 0.98,-0.71 1.74,-1.74 2.27,-3.07 0.54,-1.34 0.81,-2.92 0.81,-4.76z"/>
  <path id="2" class="fil8" d="M1040.6 670.84l-2.62 -7.54c-0.5,-1.49 -1.16,-2.65 -1.96,-3.5 -0.81,-0.84 -1.68,-1.26 -2.62,-1.26l-0.42 0 0 12.3 -10.55 0 0 -35 14 0c4.9,0 8.52,0.8 10.85,2.4 2.33,1.6 3.5,4.01 3.5,7.21 0,2.41 -0.68,4.43 -2.03,6.05 -1.36,1.64 -3.39,2.81 -6.07,3.55l0 0.09c1.48,0.45 2.72,1.2 3.7,2.22 0.99,1.03 1.87,2.55 2.65,4.57l3.45 8.91 -11.88 0zm-1.02 -23.89c0,-1.18 -0.36,-2.11 -1.08,-2.79 -0.7,-0.68 -1.83,-1.02 -3.35,-1.02l-2.17 0 0 8 1.9 0c1.42,0 2.55,-0.4 3.41,-1.19 0.86,-0.8 1.29,-1.8 1.29,-3z"/>
  <path id="3" class="fil8" d="M1074.71 670.84l-2.62 -7.54c-0.5,-1.49 -1.16,-2.65 -1.96,-3.5 -0.81,-0.84 -1.68,-1.26 -2.62,-1.26l-0.42 0 0 12.3 -10.55 0 0 -35 14 0c4.9,0 8.52,0.8 10.85,2.4 2.33,1.6 3.5,4.01 3.5,7.21 0,2.41 -0.68,4.43 -2.03,6.05 -1.36,1.64 -3.39,2.81 -6.07,3.55l0 0.09c1.48,0.45 2.72,1.2 3.7,2.22 0.99,1.03 1.87,2.55 2.65,4.57l3.45 8.91 -11.88 0zm-1.02 -23.89c0,-1.18 -0.36,-2.11 -1.08,-2.79 -0.7,-0.68 -1.83,-1.02 -3.35,-1.02l-2.17 0 0 8 1.9 0c1.42,0 2.55,-0.4 3.41,-1.19 0.86,-0.8 1.29,-1.8 1.29,-3z"/>
  <polygon id="4" class="fil8" points="1090.65,670.84 1090.65,635.84 1101.2,635.84 1101.2,670.84 "/>
  <polygon id="5" class="fil8" points="1108.08,670.84 1108.08,635.84 1129.88,635.84 1129.88,644.09 1118.63,644.09 1118.63,649.19 1129.18,649.19 1129.18,657.44 1118.63,657.44 1118.63,662.59 1130.68,662.59 1130.68,670.84 "/>
  <path id="6" class="fil8" d="M1160.13 670.84l-12.36 -16.89c-0.98,-1.34 -1.78,-2.54 -2.39,-3.61l-0.1 0c0.1,1.72 0.15,3.66 0.15,5.81l0 14.69 -9.75 0 0 -35 9.96 0 11.85 16.06c0.14,0.2 0.32,0.45 0.53,0.75 0.21,0.3 0.42,0.6 0.63,0.9 0.22,0.31 0.42,0.61 0.6,0.9 0.19,0.3 0.34,0.56 0.43,0.79l0.1 0c-0.1,-0.72 -0.15,-1.95 -0.15,-3.71l0 -15.69 9.75 0 0 35 -9.25 0z"/>
  <path id="7" class="fil8" d="M1209.28 652.9c0,3.55 -0.74,6.68 -2.23,9.4 -1.5,2.73 -3.62,4.84 -6.39,6.31 -2.76,1.49 -5.96,2.23 -9.56,2.23l-14.82 0 0 -35 14.5 0c12.33,0 18.5,5.68 18.5,17.06zm-11.2 0.1c0,-1.71 -0.34,-3.25 -1.03,-4.62 -0.7,-1.37 -1.69,-2.42 -2.97,-3.17 -1.28,-0.75 -2.8,-1.12 -4.54,-1.12l-2.71 0 0 18.5 2.95 0c2.52,0 4.54,-0.87 6.04,-2.6 1.51,-1.74 2.26,-4.07 2.26,-6.99z"/>
  <path id="8" class="fil8" d="M1247.52 653.23c0,3.52 -0.75,6.66 -2.26,9.43 -1.52,2.78 -3.64,4.94 -6.35,6.47 -2.72,1.54 -5.76,2.31 -9.14,2.31 -3.28,0 -6.27,-0.74 -8.96,-2.24 -2.7,-1.49 -4.8,-3.58 -6.3,-6.27 -1.49,-2.69 -2.24,-5.74 -2.24,-9.14 0,-3.57 0.76,-6.77 2.27,-9.62 1.52,-2.85 3.64,-5.05 6.37,-6.6 2.74,-1.56 5.85,-2.33 9.33,-2.33 3.35,0 6.35,0.74 8.99,2.23 2.65,1.49 4.69,3.62 6.13,6.37 1.45,2.76 2.16,5.89 2.16,9.39zm-11.2 0.3c0,-2.88 -0.55,-5.14 -1.66,-6.8 -1.1,-1.66 -2.61,-2.49 -4.53,-2.49 -2.1,0 -3.73,0.8 -4.9,2.39 -1.17,1.59 -1.76,3.84 -1.76,6.76 0,2.84 0.59,5.06 1.74,6.66 1.17,1.59 2.75,2.39 4.75,2.39 1.22,0 2.31,-0.36 3.29,-1.08 0.97,-0.71 1.73,-1.74 2.27,-3.07 0.54,-1.34 0.8,-2.92 0.8,-4.76z"/>
  <polygon class="fil8" points="402.39,1126.87 402.39,1091.87 412.94,1091.87 412.94,1118.62 424.99,1118.62 424.99,1126.87 "/>
  <polygon id="1" class="fil8" points="429.44,1126.87 429.44,1091.87 439.99,1091.87 439.99,1126.87 "/>
  <path id="2" class="fil8" d="M471.17 1116.27c0,2.33 -0.62,4.35 -1.86,6.08 -1.24,1.72 -3,3 -5.24,3.86 -2.24,0.84 -4.94,1.26 -8.1,1.26 -3.66,0 -7.01,-0.61 -10.05,-1.86l0 -9.59c1.47,1.08 3.09,1.95 4.86,2.61 1.78,0.66 3.43,0.99 4.96,0.99 1.15,0 2.05,-0.21 2.68,-0.62 0.64,-0.42 0.95,-1.02 0.95,-1.82 0,-0.57 -0.16,-1.08 -0.47,-1.5 -0.32,-0.43 -0.8,-0.83 -1.44,-1.21 -0.65,-0.37 -1.84,-0.89 -3.59,-1.54 -5.63,-2.17 -8.45,-5.67 -8.45,-10.5 0,-3.38 1.29,-6.09 3.86,-8.12 2.57,-2.02 6.02,-3.04 10.35,-3.04 1.22,0 2.34,0.05 3.37,0.15 1.02,0.09 1.96,0.22 2.8,0.36 0.83,0.15 2.01,0.42 3.52,0.83l0 8.91c-2.95,-1.6 -5.84,-2.4 -8.69,-2.4 -1.17,0 -2.11,0.22 -2.83,0.66 -0.72,0.44 -1.08,1.04 -1.08,1.81 0,0.72 0.3,1.33 0.87,1.81 0.57,0.48 1.78,1.1 3.62,1.87 3.63,1.46 6.2,3.07 7.71,4.81 1.5,1.73 2.25,3.8 2.25,6.19z"/>
  <polygon id="3" class="fil8" points="493.17,1100.12 493.17,1126.87 482.57,1126.87 482.57,1100.12 472.77,1100.12 472.77,1091.87 503.07,1091.87 503.07,1100.12 "/>
  <path id="4" class="fil8" d="M540.58 1109.26c0,3.52 -0.76,6.66 -2.27,9.44 -1.52,2.77 -3.63,4.93 -6.35,6.46 -2.72,1.55 -5.76,2.31 -9.13,2.31 -3.29,0 -6.28,-0.74 -8.97,-2.23 -2.69,-1.49 -4.79,-3.59 -6.29,-6.28 -1.49,-2.69 -2.24,-5.74 -2.24,-9.14 0,-3.57 0.75,-6.77 2.26,-9.62 1.52,-2.85 3.64,-5.05 6.38,-6.6 2.73,-1.56 5.84,-2.33 9.32,-2.33 3.35,0 6.35,0.74 9,2.23 2.65,1.5 4.69,3.62 6.13,6.38 1.44,2.76 2.16,5.88 2.16,9.38zm-11.2 0.3c0,-2.87 -0.55,-5.14 -1.66,-6.8 -1.11,-1.66 -2.62,-2.49 -4.54,-2.49 -2.1,0 -3.73,0.8 -4.9,2.39 -1.17,1.59 -1.75,3.84 -1.75,6.76 0,2.84 0.58,5.07 1.74,6.66 1.16,1.59 2.74,2.39 4.74,2.39 1.22,0 2.32,-0.36 3.29,-1.07 0.98,-0.72 1.73,-1.75 2.27,-3.08 0.54,-1.33 0.81,-2.92 0.81,-4.76z"/>
  <path class="fil8" d="M1600.93 1114.16c0,3.44 -1.2,6.09 -3.61,7.96 -2.41,1.85 -5.85,2.79 -10.33,2.79l-15.96 0 0 -35 14.86 0c9.3,0 13.94,2.82 13.94,8.46 0,1.23 -0.29,2.34 -0.88,3.36 -0.59,1.02 -1.48,1.91 -2.68,2.68 -1.19,0.76 -2.51,1.28 -3.94,1.55l0 0.11c1.66,0.19 3.15,0.68 4.47,1.47 1.32,0.79 2.34,1.77 3.05,2.95 0.72,1.18 1.08,2.41 1.08,3.67zm-12.3 -13.96c0,-2.16 -1.7,-3.24 -5.1,-3.24l-1.95 0 0 6.6 3.05 0c1.16,0 2.13,-0.32 2.87,-0.95 0.75,-0.62 1.13,-1.42 1.13,-2.41zm1.1 13.92c0,-1.01 -0.37,-1.84 -1.1,-2.49 -0.74,-0.65 -1.7,-0.97 -2.9,-0.97l-4.15 0 0 7.15 3.52 0c1.42,0 2.55,-0.34 3.39,-0.99 0.82,-0.66 1.24,-1.56 1.24,-2.7z"/>
  <polygon id="1" class="fil8" points="1605.58,1124.91 1605.58,1089.91 1616.13,1089.91 1616.13,1116.66 1628.18,1116.66 1628.18,1124.91 "/>
  <path id="2" class="fil8" d="M1665.93 1107.3c0,3.51 -0.76,6.66 -2.26,9.43 -1.52,2.78 -3.64,4.93 -6.36,6.47 -2.71,1.54 -5.75,2.31 -9.13,2.31 -3.28,0 -6.27,-0.74 -8.97,-2.24 -2.69,-1.49 -4.79,-3.58 -6.29,-6.27 -1.49,-2.69 -2.24,-5.74 -2.24,-9.14 0,-3.57 0.76,-6.77 2.27,-9.62 1.51,-2.85 3.64,-5.05 6.37,-6.6 2.74,-1.56 5.84,-2.33 9.33,-2.33 3.35,0 6.35,0.74 8.99,2.23 2.65,1.49 4.69,3.62 6.13,6.37 1.45,2.76 2.16,5.89 2.16,9.39zm-11.2 0.3c0,-2.88 -0.55,-5.14 -1.66,-6.8 -1.1,-1.66 -2.61,-2.49 -4.53,-2.49 -2.1,0 -3.73,0.8 -4.9,2.39 -1.18,1.59 -1.76,3.84 -1.76,6.76 0,2.84 0.58,5.06 1.74,6.65 1.17,1.6 2.74,2.4 4.74,2.4 1.23,0 2.32,-0.36 3.3,-1.08 0.97,-0.72 1.73,-1.74 2.26,-3.07 0.54,-1.34 0.81,-2.92 0.81,-4.76z"/>
  <path id="3" class="fil8" d="M1704.19 1107.3c0,5.42 -1.75,9.87 -5.25,13.37l9.25 8.94 -13.23 0 -4.44 -4.5c-1.3,0.26 -2.66,0.4 -4.08,0.4 -3.28,0 -6.27,-0.74 -8.96,-2.24 -2.7,-1.49 -4.8,-3.58 -6.3,-6.27 -1.49,-2.69 -2.24,-5.74 -2.24,-9.14 0,-3.57 0.76,-6.77 2.27,-9.62 1.51,-2.85 3.64,-5.05 6.37,-6.6 2.74,-1.56 5.84,-2.33 9.33,-2.33 3.35,0 6.35,0.74 8.99,2.23 2.65,1.49 4.69,3.62 6.13,6.37 1.45,2.75 2.16,5.89 2.16,9.39zm-11.2 0.3c0,-2.88 -0.55,-5.14 -1.66,-6.8 -1.1,-1.66 -2.61,-2.49 -4.53,-2.49 -2.1,0 -3.73,0.8 -4.9,2.39 -1.18,1.59 -1.76,3.84 -1.76,6.76 0,2.84 0.58,5.06 1.74,6.65 1.17,1.6 2.74,2.4 4.75,2.4 1.9,0 3.44,-0.81 4.6,-2.42 1.18,-1.61 1.76,-3.77 1.76,-6.49z"/>
  <path id="4" class="fil8" d="M1739.65 1108.91c0,5.61 -1.28,9.79 -3.84,12.51 -2.57,2.73 -6.52,4.09 -11.85,4.09 -4.98,0 -8.76,-1.36 -11.34,-4.09 -2.58,-2.72 -3.87,-6.83 -3.87,-12.31l0 -19.2 10.6 0 0 19.6c0,2.24 0.42,3.96 1.26,5.18 0.84,1.21 2.04,1.82 3.61,1.82 1.57,0 2.77,-0.57 3.6,-1.71 0.82,-1.14 1.23,-2.83 1.23,-5.05l0 -19.84 10.6 0 0 19z"/>
  <polygon id="5" class="fil8" points="1746.16,1124.91 1746.16,1089.91 1767.95,1089.91 1767.95,1098.16 1756.71,1098.16 1756.71,1103.26 1767.26,1103.26 1767.26,1111.51 1756.71,1111.51 1756.71,1116.66 1768.76,1116.66 1768.76,1124.91 "/>
  <path id="6" class="fil8" d="M1795.71 1124.91l-1.55 -6.45 -10.45 0 -1.65 6.45 -11.41 0 12.06 -35 13.1 0 11.35 35 -11.45 0zm-6.66 -27.4l-0.24 0c-0.04,0.39 -0.15,1.03 -0.35,1.92 -0.19,0.9 -1.18,4.74 -2.95,11.53l6.7 0 -2.45 -9.52c-0.34,-1.4 -0.58,-2.72 -0.71,-3.93z"/>
  <path id="7" class="fil8" d="M1844.26 1106.97c0,3.54 -0.74,6.68 -2.23,9.4 -1.5,2.73 -3.62,4.84 -6.39,6.31 -2.76,1.49 -5.96,2.23 -9.56,2.23l-14.82 0 0 -35 14.5 0c12.33,0 18.5,5.68 18.5,17.06zm-11.2 0.09c0,-1.7 -0.34,-3.24 -1.03,-4.61 -0.7,-1.37 -1.69,-2.42 -2.97,-3.17 -1.28,-0.75 -2.8,-1.12 -4.54,-1.12l-2.71 0 0 18.5 2.95 0c2.52,0 4.54,-0.87 6.04,-2.6 1.51,-1.74 2.26,-4.07 2.26,-7z"/>
  <path id="8" class="fil8" d="M1882.5 1107.3c0,3.51 -0.75,6.66 -2.26,9.43 -1.52,2.78 -3.64,4.93 -6.35,6.47 -2.72,1.54 -5.76,2.31 -9.14,2.31 -3.28,0 -6.27,-0.74 -8.96,-2.24 -2.7,-1.49 -4.8,-3.58 -6.3,-6.27 -1.49,-2.69 -2.24,-5.74 -2.24,-9.14 0,-3.57 0.76,-6.77 2.27,-9.62 1.51,-2.85 3.64,-5.05 6.37,-6.6 2.74,-1.56 5.85,-2.33 9.33,-2.33 3.35,0 6.35,0.74 8.99,2.23 2.65,1.49 4.69,3.62 6.13,6.37 1.45,2.76 2.16,5.89 2.16,9.39zm-11.2 0.3c0,-2.88 -0.55,-5.14 -1.66,-6.8 -1.1,-1.66 -2.61,-2.49 -4.53,-2.49 -2.1,0 -3.73,0.8 -4.9,2.39 -1.17,1.59 -1.76,3.84 -1.76,6.76 0,2.84 0.59,5.06 1.74,6.65 1.17,1.6 2.75,2.4 4.75,2.4 1.22,0 2.31,-0.36 3.29,-1.08 0.97,-0.72 1.73,-1.74 2.26,-3.07 0.55,-1.34 0.81,-2.92 0.81,-4.76z"/>
  <polygon class="fil2" points="1007.68,187.41 1007.68,193.71 1018.09,193.71 1018.09,201.96 1007.68,201.96 1007.68,214.17 997.13,214.17 997.13,179.16 1019.09,179.16 1019.09,187.41 "/>
  <path id="1" class="fil2" d="M1034.24 182.43c0,1.47 -0.53,2.65 -1.6,3.57 -1.06,0.9 -2.46,1.36 -4.2,1.36 -1.7,0 -3.09,-0.47 -4.16,-1.41 -1.09,-0.94 -1.63,-2.12 -1.63,-3.52 0,-1.43 0.53,-2.6 1.58,-3.48 1.05,-0.89 2.45,-1.34 4.21,-1.34 1.74,0 3.14,0.45 4.2,1.34 1.07,0.88 1.6,2.05 1.6,3.48zm-11 31.74l0 -25.01 10.4 0 0 25.01 -10.4 0z"/>
  <path id="2" class="fil2" d="M1054.85 214.17l0 -13.66c0,-1.55 -0.24,-2.65 -0.7,-3.33 -0.46,-0.67 -1.21,-1.02 -2.25,-1.02 -0.9,0 -1.6,0.35 -2.1,1.05 -0.5,0.7 -0.75,1.6 -0.75,2.69l0 14.27 -10.4 0 0 -25.01 10.4 0 0 3.9 0.1 0c0.82,-1.42 1.94,-2.53 3.34,-3.31 1.4,-0.79 2.91,-1.19 4.56,-1.19 5.46,0 8.2,3.45 8.2,10.35l0 15.26 -10.4 0z"/>
  <path id="3" class="fil2" d="M1083.8 214.17l0 -3.8 -0.1 0c-1.66,2.93 -4.19,4.4 -7.61,4.4 -2.36,0 -4.21,-0.71 -5.54,-2.1 -1.34,-1.4 -2,-3.27 -2,-5.61 0,-4.91 3.01,-7.76 9.05,-8.54l6.2 -0.81c0,-0.81 -0.37,-1.49 -1.1,-2.01 -0.73,-0.53 -1.71,-0.79 -2.95,-0.79 -2.79,0 -5.74,0.8 -8.85,2.4l0 -6.75c1.35,-0.58 3.04,-1.06 5.07,-1.44 2.04,-0.37 3.78,-0.56 5.23,-0.56 4.24,0 7.32,0.91 9.23,2.73 1.91,1.81 2.87,4.84 2.87,9.08l0 13.8 -9.5 0zm-6.15 -8.5c0,0.69 0.21,1.25 0.65,1.69 0.42,0.44 1.04,0.65 1.84,0.65 1.09,0 1.97,-0.4 2.64,-1.22 0.68,-0.81 1.02,-1.85 1.02,-3.13l0 -0.95 -3.52 0.5c-1.76,0.29 -2.63,1.1 -2.63,2.46z"/>
  <polygon id="4" class="fil2" points="1098,214.17 1098,177.16 1108.4,177.16 1108.4,214.17 "/>
  <path id="5" class="fil2" d="M1124.42 182.43c0,1.47 -0.54,2.65 -1.6,3.57 -1.07,0.9 -2.47,1.36 -4.21,1.36 -1.69,0 -3.08,-0.47 -4.16,-1.41 -1.08,-0.94 -1.62,-2.12 -1.62,-3.52 0,-1.43 0.52,-2.6 1.57,-3.48 1.05,-0.89 2.45,-1.34 4.21,-1.34 1.74,0 3.14,0.45 4.21,1.34 1.06,0.88 1.6,2.05 1.6,3.48zm-11.01 31.74l0 -25.01 10.4 0 0 25.01 -10.4 0z"/>
  <polygon id="6" class="fil2" points="1140.57,206.96 1150.87,206.96 1150.87,214.17 1126.92,214.17 1126.92,209.36 1138.17,196.36 1127.97,196.36 1127.97,189.16 1150.65,189.16 1150.65,195.07 "/>
  <path id="7" class="fil2" d="M1168.11 214.17l0 -3.8 -0.1 0c-1.66,2.93 -4.19,4.4 -7.61,4.4 -2.36,0 -4.21,-0.71 -5.54,-2.1 -1.33,-1.4 -2,-3.27 -2,-5.61 0,-4.91 3.02,-7.76 9.05,-8.54l6.2 -0.81c0,-0.81 -0.37,-1.49 -1.1,-2.01 -0.72,-0.53 -1.71,-0.79 -2.95,-0.79 -2.79,0 -5.74,0.8 -8.85,2.4l0 -6.75c1.35,-0.58 3.04,-1.06 5.08,-1.44 2.03,-0.37 3.77,-0.56 5.22,-0.56 4.24,0 7.33,0.91 9.23,2.73 1.91,1.81 2.87,4.84 2.87,9.08l0 13.8 -9.5 0zm-6.15 -8.5c0,0.69 0.22,1.25 0.65,1.69 0.43,0.44 1.04,0.65 1.84,0.65 1.09,0 1.97,-0.4 2.64,-1.22 0.68,-0.81 1.02,-1.85 1.02,-3.13l0 -0.95 -3.52 0.5c-1.75,0.29 -2.63,1.1 -2.63,2.46z"/>
  <path id="8" class="fil2" d="M1201.11 198.06c-0.39,-0.17 -0.91,-0.34 -1.58,-0.48 -0.68,-0.14 -1.23,-0.22 -1.67,-0.22 -3.43,0 -5.15,1.99 -5.15,5.96l0 10.85 -10.4 0 0 -25.01 10.4 0 0 4.4 0.1 0c0.64,-1.58 1.54,-2.79 2.71,-3.61 1.18,-0.83 2.54,-1.24 4.1,-1.24 0.58,0 1.07,0.1 1.49,0.29l0 9.06z"/>
  <path class="fil3" d="M616.46 767.77c-2.42,0.87 -5.2,1.3 -8.36,1.3 -3.11,0 -5.79,-0.59 -8.04,-1.78 -2.25,-1.19 -3.97,-2.88 -5.16,-5.07 -1.18,-2.19 -1.78,-4.72 -1.78,-7.58 0,-3.07 0.67,-5.82 2,-8.21 1.32,-2.41 3.21,-4.26 5.64,-5.57 2.42,-1.31 5.21,-1.96 8.37,-1.96 2.53,0 4.97,0.3 7.33,0.92l0 8.12c-0.81,-0.49 -1.78,-0.87 -2.91,-1.14 -1.12,-0.27 -2.26,-0.4 -3.42,-0.4 -2.39,0 -4.27,0.69 -5.65,2.05 -1.38,1.37 -2.06,3.23 -2.06,5.57 0,2.34 0.68,4.18 2.06,5.53 1.38,1.34 3.22,2.02 5.53,2.02 2.13,0 4.28,-0.54 6.45,-1.63l0 7.83z"/>
  <path id="1" class="fil3" d="M643.37 757.78c0,3.52 -1.06,6.27 -3.18,8.28 -2.13,2.01 -5.09,3.01 -8.9,3.01 -3.79,0 -6.73,-0.98 -8.84,-2.94 -2.11,-1.96 -3.16,-4.66 -3.16,-8.1 0,-2.21 0.49,-4.13 1.48,-5.76 0.99,-1.62 2.4,-2.87 4.23,-3.74 1.84,-0.87 3.94,-1.3 6.33,-1.3 2.46,0 4.6,0.45 6.42,1.36 1.81,0.91 3.2,2.17 4.17,3.79 0.97,1.61 1.45,3.41 1.45,5.4zm-8.79 0.04c0,-2.84 -1.08,-4.25 -3.25,-4.25 -2.17,0 -3.25,1.48 -3.25,4.46 0,3.13 1.1,4.7 3.29,4.7 2.14,0 3.21,-1.64 3.21,-4.91z"/>
  <path id="2" class="fil3" d="M662.28 755.15c-0.32,-0.15 -0.76,-0.29 -1.32,-0.4 -0.56,-0.12 -1.02,-0.18 -1.39,-0.18 -2.86,0 -4.29,1.65 -4.29,4.96l0 9.04 -8.67 0 0 -20.84 8.67 0 0 3.67 0.08 0c0.53,-1.32 1.28,-2.33 2.26,-3.01 0.98,-0.69 2.12,-1.03 3.42,-1.03 0.48,0 0.89,0.08 1.24,0.24l0 7.55z"/>
  <path id="3" class="fil3" d="M680.45 755.15c-0.33,-0.15 -0.76,-0.29 -1.32,-0.4 -0.56,-0.12 -1.02,-0.18 -1.39,-0.18 -2.86,0 -4.29,1.65 -4.29,4.96l0 9.04 -8.67 0 0 -20.84 8.67 0 0 3.67 0.08 0c0.53,-1.32 1.28,-2.33 2.26,-3.01 0.98,-0.69 2.12,-1.03 3.42,-1.03 0.48,0 0.89,0.08 1.24,0.24l0 7.55z"/>
  <path id="4" class="fil3" d="M690.41 760.61c0.15,0.89 0.67,1.6 1.55,2.11 0.88,0.51 2.05,0.76 3.5,0.76 2.02,0 3.94,-0.39 5.74,-1.16l0 5.48c-2.1,0.84 -4.65,1.27 -7.65,1.27 -3.63,0 -6.46,-0.93 -8.48,-2.79 -2.02,-1.85 -3.04,-4.41 -3.04,-7.67 0,-2.23 0.45,-4.2 1.34,-5.91 0.88,-1.7 2.2,-3.04 3.94,-4.02 1.74,-0.96 3.66,-1.45 5.76,-1.45 2.16,0 4.01,0.42 5.54,1.26 1.53,0.84 2.7,2.02 3.49,3.54 0.79,1.52 1.18,3.29 1.18,5.33l0 3.25 -12.87 0zm5.21 -4.54c0,-2.39 -0.86,-3.59 -2.59,-3.59 -0.72,0 -1.32,0.33 -1.81,0.98 -0.49,0.66 -0.77,1.52 -0.85,2.61l5.25 0z"/>
  <path id="5" class="fil3" d="M721.95 755.15c-0.32,-0.15 -0.76,-0.29 -1.32,-0.4 -0.56,-0.12 -1.02,-0.18 -1.39,-0.18 -2.86,0 -4.29,1.65 -4.29,4.96l0 9.04 -8.66 0 0 -20.84 8.66 0 0 3.67 0.09 0c0.52,-1.32 1.27,-2.33 2.25,-3.01 0.98,-0.69 2.12,-1.03 3.42,-1.03 0.48,0 0.89,0.08 1.24,0.24l0 7.55z"/>
  <polygon class="fil2" points="396.37,213.94 396.37,178.94 406.92,178.94 406.92,213.94 "/>
  <path id="1" class="fil2" d="M429.06 213.94l0 -13.65c0,-1.55 -0.23,-2.66 -0.69,-3.33 -0.47,-0.68 -1.22,-1.02 -2.26,-1.02 -0.89,0 -1.59,0.35 -2.09,1.05 -0.51,0.7 -0.76,1.6 -0.76,2.68l0 14.27 -10.4 0 0 -25 10.4 0 0 3.9 0.1 0c0.82,-1.43 1.94,-2.53 3.34,-3.32 1.4,-0.79 2.92,-1.18 4.56,-1.18 5.47,0 8.2,3.45 8.2,10.35l0 15.25 -10.4 0z"/>
  <path id="2" class="fil2" d="M455.17 182.2c0,1.47 -0.54,2.65 -1.6,3.57 -1.07,0.91 -2.47,1.37 -4.21,1.37 -1.69,0 -3.08,-0.48 -4.16,-1.42 -1.08,-0.94 -1.62,-2.12 -1.62,-3.52 0,-1.43 0.52,-2.6 1.57,-3.48 1.05,-0.89 2.45,-1.33 4.21,-1.33 1.74,0 3.14,0.44 4.21,1.33 1.06,0.88 1.6,2.05 1.6,3.48zm-11.01 31.74l0 -25 10.4 0 0 25 -10.4 0z"/>
  <path id="3" class="fil2" d="M480.17 213.22c-0.67,0.39 -1.72,0.71 -3.15,0.95 -1.43,0.24 -3.08,0.37 -4.95,0.37 -2.64,0 -5,-0.53 -7.07,-1.6 -2.07,-1.07 -3.68,-2.56 -4.82,-4.48 -1.14,-1.91 -1.71,-4.07 -1.71,-6.46 0,-2.86 0.61,-5.31 1.81,-7.35 1.22,-2.04 2.95,-3.61 5.2,-4.69 2.24,-1.08 4.85,-1.62 7.81,-1.62 1.62,0 3.09,0.11 4.38,0.32 1.29,0.2 2.12,0.45 2.5,0.73l0 8.1c-0.52,-0.41 -1.27,-0.77 -2.24,-1.09 -0.98,-0.3 -1.89,-0.46 -2.71,-0.46 -2.03,0 -3.58,0.48 -4.63,1.46 -1.05,0.96 -1.57,2.33 -1.57,4.09 0,1.72 0.52,3.07 1.55,4.02 1.03,0.95 2.45,1.43 4.26,1.43 1.93,0 3.71,-0.47 5.34,-1.4l0 7.68z"/>
  <path id="4" class="fil2" d="M495.34 182.2c0,1.47 -0.54,2.65 -1.6,3.57 -1.07,0.91 -2.47,1.37 -4.21,1.37 -1.69,0 -3.08,-0.48 -4.16,-1.42 -1.08,-0.94 -1.62,-2.12 -1.62,-3.52 0,-1.43 0.52,-2.6 1.57,-3.48 1.05,-0.89 2.45,-1.33 4.21,-1.33 1.74,0 3.14,0.44 4.21,1.33 1.06,0.88 1.6,2.05 1.6,3.48zm-11.01 31.74l0 -25 10.4 0 0 25 -10.4 0z"/>
  <path id="5" class="fil2" d="M513.59 213.94l0 -3.8 -0.1 0c-1.66,2.93 -4.19,4.4 -7.61,4.4 -2.36,0 -4.21,-0.7 -5.54,-2.1 -1.34,-1.4 -2,-3.27 -2,-5.61 0,-4.91 3.01,-7.76 9.05,-8.53l6.2 -0.81c0,-0.82 -0.37,-1.49 -1.1,-2.02 -0.73,-0.52 -1.71,-0.78 -2.95,-0.78 -2.79,0 -5.74,0.8 -8.85,2.4l0 -6.75c1.35,-0.59 3.04,-1.07 5.07,-1.44 2.04,-0.38 3.78,-0.56 5.23,-0.56 4.24,0 7.32,0.91 9.23,2.72 1.91,1.81 2.87,4.85 2.87,9.09l0 13.79 -9.5 0zm-6.15 -8.49c0,0.68 0.21,1.24 0.65,1.68 0.42,0.44 1.04,0.66 1.84,0.66 1.09,0 1.97,-0.41 2.64,-1.23 0.68,-0.8 1.02,-1.85 1.02,-3.12l0 -0.95 -3.52 0.49c-1.76,0.29 -2.63,1.11 -2.63,2.47z"/>
  <path id="6" class="fil2" d="M546.59 197.84c-0.39,-0.18 -0.92,-0.34 -1.58,-0.48 -0.68,-0.15 -1.23,-0.22 -1.67,-0.22 -3.43,0 -5.15,1.98 -5.15,5.96l0 10.84 -10.4 0 0 -25 10.4 0 0 4.4 0.1 0c0.63,-1.59 1.53,-2.79 2.71,-3.62 1.17,-0.82 2.54,-1.23 4.1,-1.23 0.57,0 1.07,0.1 1.49,0.29l0 9.06z"/>
  <path class="fil3" d="M1352.77 761.01c0,2.87 -1,5.07 -3.01,6.63 -2.01,1.55 -4.87,2.33 -8.6,2.33l-13.31 0 0 -29.17 12.39 0c7.74,0 11.61,2.35 11.61,7.05 0,1.02 -0.24,1.96 -0.74,2.8 -0.48,0.85 -1.23,1.59 -2.22,2.23 -1,0.64 -2.09,1.07 -3.29,1.3l0 0.08c1.38,0.16 2.63,0.57 3.73,1.23 1.1,0.66 1.94,1.48 2.54,2.46 0.6,0.99 0.9,2.01 0.9,3.06zm-10.25 -11.63c0,-1.8 -1.42,-2.71 -4.25,-2.71l-1.63 0 0 5.5 2.54 0c0.98,0 1.78,-0.26 2.4,-0.78 0.62,-0.52 0.94,-1.19 0.94,-2.01zm0.91 11.6c0,-0.84 -0.3,-1.53 -0.91,-2.08 -0.61,-0.54 -1.42,-0.81 -2.42,-0.81l-3.46 0 0 5.96 2.93 0c1.19,0 2.13,-0.28 2.83,-0.83 0.69,-0.55 1.03,-1.3 1.03,-2.24z"/>
  <polygon id="1" class="fil3" points="1355.85,769.97 1355.85,739.13 1364.52,739.13 1364.52,769.97 "/>
  <path id="2" class="fil3" d="M1391.86 759.18c0,3.52 -1.06,6.27 -3.18,8.28 -2.13,2.01 -5.09,3.01 -8.9,3.01 -3.79,0 -6.73,-0.98 -8.84,-2.94 -2.11,-1.96 -3.16,-4.66 -3.16,-8.1 0,-2.21 0.49,-4.13 1.48,-5.76 0.99,-1.62 2.4,-2.87 4.23,-3.74 1.84,-0.87 3.94,-1.3 6.33,-1.3 2.46,0 4.6,0.45 6.42,1.36 1.81,0.91 3.2,2.17 4.17,3.79 0.97,1.61 1.45,3.41 1.45,5.4zm-8.79 0.04c0,-2.84 -1.08,-4.25 -3.25,-4.25 -2.17,0 -3.25,1.48 -3.25,4.46 0,3.13 1.1,4.7 3.29,4.7 2.14,0 3.21,-1.64 3.21,-4.91z"/>
  <path id="3" class="fil3" d="M1409.02 779.55l0 -11.96 -0.08 0c-0.65,0.86 -1.53,1.56 -2.63,2.09 -1.11,0.52 -2.25,0.79 -3.41,0.79 -1.73,0 -3.24,-0.41 -4.55,-1.22 -1.31,-0.82 -2.33,-2 -3.07,-3.55 -0.73,-1.55 -1.09,-3.47 -1.09,-5.74 0,-2.25 0.41,-4.24 1.22,-5.96 0.81,-1.72 1.94,-3.05 3.4,-3.97 1.45,-0.93 3.05,-1.4 4.8,-1.4 2.37,0 4.15,0.89 5.33,2.67l0.08 0 0 -2.17 8.67 0 0 30.42 -8.67 0zm0.18 -20.55c0,-1.26 -0.27,-2.25 -0.82,-2.96 -0.55,-0.72 -1.28,-1.07 -2.18,-1.07 -0.96,0 -1.73,0.43 -2.32,1.3 -0.6,0.87 -0.9,2.03 -0.9,3.48 0,1.35 0.25,2.41 0.75,3.2 0.51,0.79 1.26,1.18 2.26,1.18 1,0 1.79,-0.39 2.36,-1.18 0.57,-0.79 0.85,-1.88 0.85,-3.28l0 -0.67z"/>
  <path id="4" class="fil3" d="M1435.11 769.97l0 -3.21 -0.08 0c-0.72,0.99 -1.36,1.71 -1.94,2.17 -0.57,0.45 -1.23,0.83 -1.95,1.11 -0.73,0.29 -1.57,0.43 -2.53,0.43 -2.28,0 -4.02,-0.74 -5.21,-2.22 -1.19,-1.48 -1.79,-3.66 -1.79,-6.55l0 -12.57 8.67 0 0 11.93c0,2.05 0.76,3.07 2.29,3.07 0.84,0 1.47,-0.27 1.9,-0.83 0.43,-0.56 0.64,-1.35 0.64,-2.36l0 -11.81 8.67 0 0 20.84 -8.67 0z"/>
  <path id="5" class="fil3" d="M1455.41 762.01c0.15,0.89 0.66,1.6 1.55,2.11 0.88,0.51 2.04,0.76 3.5,0.76 2.02,0 3.93,-0.39 5.74,-1.16l0 5.48c-2.11,0.84 -4.65,1.27 -7.65,1.27 -3.64,0 -6.46,-0.93 -8.48,-2.79 -2.03,-1.85 -3.04,-4.41 -3.04,-7.67 0,-2.23 0.45,-4.2 1.33,-5.91 0.89,-1.7 2.21,-3.04 3.95,-4.02 1.74,-0.96 3.66,-1.45 5.76,-1.45 2.16,0 4,0.42 5.54,1.26 1.53,0.84 2.69,2.02 3.48,3.54 0.8,1.51 1.19,3.29 1.19,5.33l0 3.25 -12.87 0zm5.2 -4.54c0,-2.39 -0.86,-3.59 -2.58,-3.59 -0.72,0 -1.32,0.33 -1.81,0.98 -0.49,0.66 -0.77,1.52 -0.86,2.61l5.25 0z"/>
  <path id="6" class="fil3" d="M1482.83 769.97l0 -3.17 -0.09 0c-1.38,2.45 -3.49,3.67 -6.34,3.67 -1.96,0 -3.51,-0.59 -4.62,-1.75 -1.11,-1.17 -1.66,-2.73 -1.66,-4.68 0,-4.09 2.51,-6.46 7.54,-7.11l5.17 -0.67c0,-0.68 -0.31,-1.25 -0.92,-1.68 -0.61,-0.44 -1.43,-0.66 -2.46,-0.66 -2.33,0 -4.79,0.67 -7.38,2l0 -5.62c1.13,-0.49 2.54,-0.89 4.23,-1.2 1.7,-0.32 3.15,-0.47 4.36,-0.47 3.53,0 6.1,0.76 7.69,2.27 1.59,1.51 2.39,4.04 2.39,7.57l0 11.5 -7.91 0zm-5.13 -7.08c0,0.57 0.18,1.04 0.54,1.4 0.36,0.37 0.87,0.55 1.54,0.55 0.91,0 1.63,-0.34 2.2,-1.02 0.56,-0.67 0.85,-1.54 0.85,-2.6l0 -0.8 -2.94 0.41c-1.46,0.25 -2.19,0.93 -2.19,2.06z"/>
  <path id="7" class="fil3" d="M1510.33 756.55c-0.33,-0.15 -0.77,-0.29 -1.32,-0.4 -0.56,-0.12 -1.02,-0.18 -1.39,-0.18 -2.86,0 -4.29,1.65 -4.29,4.96l0 9.04 -8.67 0 0 -20.84 8.67 0 0 3.67 0.08 0c0.53,-1.32 1.28,-2.33 2.26,-3.01 0.98,-0.69 2.11,-1.03 3.41,-1.03 0.48,0 0.89,0.08 1.25,0.24l0 7.55z"/>
  <path class="fil4" d="M1262.79 1067.97c0,2.96 -0.62,5.57 -1.86,7.84 -1.24,2.27 -3.01,4.03 -5.32,5.26 -2.31,1.24 -4.97,1.85 -7.97,1.85l-12.35 0 0 -29.16 12.08 0c10.28,0 15.42,4.73 15.42,14.21zm-9.33 0.09c0,-1.43 -0.29,-2.71 -0.86,-3.85 -0.58,-1.14 -1.41,-2.02 -2.48,-2.64 -1.07,-0.63 -2.33,-0.94 -3.78,-0.94l-2.26 0 0 15.42 2.46 0c2.11,0 3.79,-0.72 5.04,-2.17 1.25,-1.44 1.88,-3.39 1.88,-5.82z"/>
  <path id="1" class="fil4" d="M1273.58 1074.97c0.15,0.89 0.66,1.59 1.55,2.11 0.88,0.5 2.04,0.76 3.5,0.76 2.02,0 3.93,-0.39 5.74,-1.17l0 5.49c-2.11,0.84 -4.65,1.26 -7.65,1.26 -3.64,0 -6.46,-0.93 -8.48,-2.78 -2.02,-1.85 -3.04,-4.41 -3.04,-7.67 0,-2.23 0.45,-4.21 1.34,-5.91 0.88,-1.71 2.2,-3.05 3.94,-4.02 1.74,-0.96 3.66,-1.45 5.76,-1.45 2.16,0 4,0.42 5.54,1.26 1.53,0.84 2.69,2.02 3.49,3.54 0.79,1.51 1.18,3.29 1.18,5.33l0 3.25 -12.87 0zm5.21 -4.55c0,-2.39 -0.87,-3.58 -2.59,-3.58 -0.72,0 -1.32,0.33 -1.81,0.98 -0.49,0.66 -0.77,1.52 -0.86,2.6l5.26 0z"/>
  <path id="2" class="fil4" d="M1306.37 1076c0,2.35 -0.89,4.19 -2.69,5.48 -1.8,1.3 -4.3,1.94 -7.52,1.94 -0.94,0 -2.09,-0.09 -3.46,-0.28 -1.38,-0.19 -2.5,-0.42 -3.37,-0.69l0 -6.07c2.56,1.14 4.7,1.71 6.42,1.71 1.69,0 2.54,-0.44 2.54,-1.32 0,-0.37 -0.2,-0.67 -0.59,-0.91 -0.39,-0.23 -1.43,-0.63 -3.09,-1.19 -1.84,-0.58 -3.18,-1.36 -4.02,-2.32 -0.84,-0.96 -1.26,-2.22 -1.26,-3.76 0,-2.16 0.86,-3.86 2.57,-5.12 1.72,-1.25 4.13,-1.88 7.23,-1.88 1.82,0 3.75,0.26 5.78,0.79l0 5.84c-0.85,-0.37 -1.79,-0.68 -2.81,-0.93 -1.01,-0.24 -1.87,-0.37 -2.56,-0.37 -0.57,0 -1.03,0.1 -1.37,0.29 -0.34,0.19 -0.51,0.45 -0.51,0.79 0,0.4 0.18,0.72 0.55,0.96 0.37,0.24 1.1,0.53 2.2,0.87 2.13,0.63 3.66,1.43 4.58,2.41 0.92,0.97 1.38,2.23 1.38,3.76z"/>
  <path id="3" class="fil4" d="M1333.07 1071.87c0,2.28 -0.37,4.3 -1.13,6.05 -0.75,1.76 -1.82,3.12 -3.2,4.07 -1.38,0.96 -2.95,1.43 -4.7,1.43 -1.34,0 -2.5,-0.24 -3.45,-0.74 -0.95,-0.49 -1.71,-1.14 -2.27,-1.92l-0.08 0 0 2.16 -8.67 0 0 -30.83 8.67 0 0 12.83 0.08 0c0.68,-1.02 1.6,-1.84 2.76,-2.43 1.16,-0.6 2.44,-0.9 3.83,-0.9 2.64,0 4.66,0.88 6.06,2.62 1.4,1.75 2.1,4.3 2.1,7.66zm-8.79 0.27c0,-1.4 -0.27,-2.45 -0.8,-3.15 -0.54,-0.71 -1.31,-1.07 -2.31,-1.07 -0.88,0 -1.62,0.37 -2.21,1.12 -0.59,0.73 -0.88,1.7 -0.88,2.88l0 1.26c0,1.2 0.26,2.15 0.79,2.85 0.53,0.71 1.24,1.06 2.13,1.06 1.05,0 1.86,-0.43 2.43,-1.29 0.57,-0.86 0.85,-2.08 0.85,-3.66z"/>
  <polygon id="4" class="fil4" points="1336.33,1082.92 1336.33,1052.09 1345,1052.09 1345,1082.92 "/>
  <path id="5" class="fil4" d="M1372.34 1072.14c0,3.51 -1.06,6.27 -3.18,8.28 -2.13,2.01 -5.09,3 -8.9,3 -3.79,0 -6.73,-0.97 -8.84,-2.93 -2.11,-1.96 -3.16,-4.66 -3.16,-8.11 0,-2.21 0.49,-4.12 1.48,-5.75 0.99,-1.62 2.4,-2.87 4.23,-3.74 1.84,-0.87 3.94,-1.3 6.33,-1.3 2.46,0 4.6,0.45 6.42,1.36 1.81,0.91 3.2,2.17 4.17,3.79 0.96,1.61 1.45,3.41 1.45,5.4zm-8.79 0.04c0,-2.84 -1.08,-4.26 -3.25,-4.26 -2.17,0 -3.25,1.49 -3.25,4.46 0,3.14 1.09,4.71 3.29,4.71 2.14,0 3.21,-1.64 3.21,-4.91z"/>
  <path id="6" class="fil4" d="M1389.5 1092.51l0 -11.96 -0.08 0c-0.65,0.86 -1.53,1.55 -2.63,2.08 -1.11,0.53 -2.25,0.79 -3.41,0.79 -1.73,0 -3.24,-0.41 -4.55,-1.22 -1.31,-0.81 -2.33,-1.99 -3.07,-3.54 -0.73,-1.55 -1.09,-3.47 -1.09,-5.74 0,-2.25 0.41,-4.24 1.22,-5.96 0.81,-1.72 1.94,-3.05 3.4,-3.97 1.45,-0.93 3.05,-1.4 4.8,-1.4 2.37,0 4.15,0.89 5.33,2.67l0.08 0 0 -2.17 8.67 0 0 30.42 -8.67 0zm0.18 -20.55c0,-1.27 -0.27,-2.25 -0.82,-2.97 -0.55,-0.71 -1.28,-1.07 -2.18,-1.07 -0.96,0 -1.73,0.44 -2.32,1.31 -0.6,0.87 -0.9,2.03 -0.9,3.48 0,1.35 0.25,2.41 0.75,3.2 0.51,0.79 1.26,1.18 2.26,1.18 1,0 1.79,-0.39 2.36,-1.18 0.57,-0.79 0.85,-1.88 0.85,-3.28l0 -0.67z"/>
  <path id="7" class="fil4" d="M1415.59 1082.92l0 -3.2 -0.08 0c-0.72,0.98 -1.36,1.7 -1.94,2.16 -0.57,0.46 -1.23,0.84 -1.95,1.12 -0.73,0.29 -1.57,0.42 -2.53,0.42 -2.28,0 -4.02,-0.73 -5.21,-2.21 -1.19,-1.48 -1.79,-3.66 -1.79,-6.55l0 -12.57 8.67 0 0 11.92c0,2.05 0.76,3.08 2.29,3.08 0.84,0 1.47,-0.28 1.9,-0.83 0.43,-0.56 0.64,-1.35 0.64,-2.36l0 -11.81 8.67 0 0 20.83 -8.67 0z"/>
  <path id="8" class="fil4" d="M1435.89 1074.97c0.15,0.89 0.66,1.59 1.55,2.11 0.88,0.5 2.04,0.76 3.49,0.76 2.03,0 3.94,-0.39 5.75,-1.17l0 5.49c-2.11,0.84 -4.65,1.26 -7.66,1.26 -3.63,0 -6.45,-0.93 -8.47,-2.78 -2.03,-1.85 -3.04,-4.41 -3.04,-7.67 0,-2.23 0.44,-4.21 1.33,-5.91 0.89,-1.71 2.21,-3.05 3.95,-4.02 1.74,-0.96 3.66,-1.45 5.76,-1.45 2.16,0 4,0.42 5.54,1.26 1.53,0.84 2.69,2.02 3.48,3.54 0.8,1.51 1.19,3.29 1.19,5.33l0 3.25 -12.87 0zm5.2 -4.55c0,-2.39 -0.86,-3.58 -2.58,-3.58 -0.72,0 -1.32,0.33 -1.81,0.98 -0.49,0.66 -0.77,1.52 -0.86,2.6l5.25 0z"/>
  <path id="9" class="fil4" d="M1463.31 1082.92l0 -3.16 -0.09 0c-1.38,2.44 -3.49,3.66 -6.34,3.66 -1.96,0 -3.51,-0.58 -4.62,-1.74 -1.11,-1.17 -1.66,-2.73 -1.66,-4.68 0,-4.09 2.51,-6.46 7.54,-7.11l5.17 -0.67c0,-0.69 -0.31,-1.25 -0.92,-1.68 -0.61,-0.44 -1.43,-0.66 -2.46,-0.66 -2.33,0 -4.79,0.67 -7.38,2l0 -5.62c1.13,-0.49 2.54,-0.89 4.23,-1.2 1.7,-0.32 3.15,-0.47 4.36,-0.47 3.53,0 6.1,0.76 7.69,2.27 1.59,1.51 2.39,4.04 2.39,7.57l0 11.49 -7.91 0zm-5.13 -7.07c0,0.57 0.18,1.03 0.54,1.4 0.36,0.37 0.87,0.55 1.54,0.55 0.91,0 1.63,-0.34 2.2,-1.02 0.56,-0.68 0.85,-1.54 0.85,-2.61l0 -0.79 -2.94 0.41c-1.46,0.25 -2.19,0.93 -2.19,2.06z"/>
  <path id="10" class="fil4" d="M1490.81 1069.51c-0.33,-0.15 -0.77,-0.29 -1.32,-0.41 -0.57,-0.11 -1.02,-0.18 -1.39,-0.18 -2.86,0 -4.29,1.66 -4.29,4.97l0 9.03 -8.67 0 0 -20.83 8.67 0 0 3.67 0.08 0c0.53,-1.32 1.28,-2.33 2.26,-3.02 0.98,-0.68 2.11,-1.03 3.41,-1.03 0.48,0 0.89,0.09 1.25,0.25l0 7.55z"/>
  <polygon class="fil4" points="926.6,941.37 926.6,912.2 944.76,912.2 944.76,919.07 935.39,919.07 935.39,923.32 944.19,923.32 944.19,930.2 935.39,930.2 935.39,934.49 945.44,934.49 945.44,941.37 "/>
  <path id="1" class="fil4" d="M965.72 934.44c0,2.36 -0.89,4.19 -2.69,5.48 -1.8,1.3 -4.3,1.94 -7.52,1.94 -0.93,0 -2.09,-0.09 -3.46,-0.28 -1.38,-0.19 -2.5,-0.42 -3.37,-0.69l0 -6.07c2.56,1.14 4.7,1.71 6.42,1.71 1.69,0 2.54,-0.44 2.54,-1.32 0,-0.37 -0.2,-0.67 -0.59,-0.91 -0.39,-0.23 -1.42,-0.63 -3.09,-1.19 -1.84,-0.58 -3.18,-1.36 -4.02,-2.32 -0.84,-0.96 -1.26,-2.22 -1.26,-3.76 0,-2.16 0.86,-3.86 2.58,-5.12 1.71,-1.25 4.12,-1.88 7.23,-1.88 1.82,0 3.74,0.26 5.77,0.79l0 5.84c-0.85,-0.37 -1.79,-0.68 -2.81,-0.93 -1.01,-0.24 -1.87,-0.37 -2.56,-0.37 -0.57,0 -1.03,0.1 -1.37,0.29 -0.34,0.19 -0.51,0.45 -0.51,0.79 0,0.4 0.19,0.72 0.55,0.96 0.37,0.24 1.1,0.53 2.2,0.87 2.13,0.63 3.66,1.43 4.58,2.41 0.93,0.97 1.38,2.23 1.38,3.76z"/>
  <path id="2" class="fil4" d="M992.43 930.32c0,2.27 -0.39,4.29 -1.16,6.04 -0.77,1.74 -1.87,3.1 -3.28,4.06 -1.41,0.97 -3,1.44 -4.76,1.44 -2.44,0 -4.3,-0.88 -5.56,-2.66l-0.08 0 0 11.75 -8.67 0 0 -30.42 8.67 0 0 2.83 0.08 0c0.69,-1.04 1.59,-1.86 2.69,-2.45 1.1,-0.59 2.34,-0.88 3.75,-0.88 2.68,0 4.74,0.9 6.17,2.68 1.43,1.79 2.15,4.33 2.15,7.61zm-8.8 0.26c0,-1.31 -0.25,-2.35 -0.76,-3.1 -0.51,-0.74 -1.29,-1.12 -2.35,-1.12 -0.92,0 -1.66,0.4 -2.23,1.18 -0.57,0.8 -0.86,1.87 -0.86,3.25l0 0.4c0,1.32 0.24,2.37 0.73,3.16 0.49,0.79 1.22,1.18 2.2,1.18 1.04,0 1.85,-0.43 2.42,-1.29 0.57,-0.86 0.85,-2.08 0.85,-3.66z"/>
  <path id="3" class="fil4" d="M1003.14 933.41c0.15,0.89 0.67,1.59 1.55,2.11 0.88,0.51 2.05,0.76 3.5,0.76 2.02,0 3.94,-0.39 5.74,-1.17l0 5.49c-2.1,0.84 -4.65,1.26 -7.65,1.26 -3.63,0 -6.46,-0.93 -8.48,-2.78 -2.02,-1.85 -3.03,-4.41 -3.03,-7.67 0,-2.23 0.44,-4.21 1.33,-5.91 0.89,-1.71 2.2,-3.05 3.94,-4.02 1.75,-0.96 3.66,-1.45 5.77,-1.45 2.15,0 4,0.42 5.53,1.26 1.53,0.84 2.7,2.02 3.49,3.54 0.79,1.51 1.19,3.29 1.19,5.33l0 3.25 -12.88 0zm5.21 -4.55c0,-2.38 -0.86,-3.58 -2.58,-3.58 -0.73,0 -1.32,0.33 -1.82,0.98 -0.48,0.66 -0.77,1.52 -0.85,2.6l5.25 0z"/>
  <path id="4" class="fil4" d="M1034.69 927.95c-0.33,-0.15 -0.77,-0.29 -1.32,-0.41 -0.57,-0.11 -1.02,-0.18 -1.39,-0.18 -2.86,0 -4.29,1.66 -4.29,4.97l0 9.04 -8.67 0 0 -20.84 8.67 0 0 3.67 0.08 0c0.53,-1.32 1.28,-2.33 2.26,-3.02 0.97,-0.68 2.11,-1.03 3.41,-1.03 0.48,0 0.89,0.09 1.25,0.25l0 7.55z"/>
  <path id="5" class="fil4" d="M1048.73 941.37l0 -3.17 -0.09 0c-1.38,2.44 -3.49,3.66 -6.34,3.66 -1.96,0 -3.5,-0.58 -4.61,-1.74 -1.12,-1.17 -1.67,-2.73 -1.67,-4.68 0,-4.09 2.51,-6.46 7.54,-7.11l5.17 -0.67c0,-0.68 -0.31,-1.25 -0.92,-1.68 -0.6,-0.44 -1.42,-0.66 -2.46,-0.66 -2.32,0 -4.78,0.67 -7.37,2l0 -5.62c1.12,-0.49 2.53,-0.89 4.23,-1.2 1.69,-0.32 3.14,-0.47 4.35,-0.47 3.54,0 6.11,0.76 7.7,2.27 1.59,1.51 2.39,4.04 2.39,7.57l0 11.5 -7.92 0zm-5.13 -7.08c0,0.57 0.18,1.03 0.54,1.4 0.36,0.37 0.87,0.55 1.54,0.55 0.91,0 1.64,-0.34 2.2,-1.02 0.56,-0.67 0.85,-1.54 0.85,-2.6l0 -0.8 -2.93 0.41c-1.47,0.25 -2.2,0.93 -2.2,2.06z"/>
  <path id="6" class="fil4" d="M1076.23 927.95c-0.33,-0.15 -0.76,-0.29 -1.32,-0.41 -0.56,-0.11 -1.02,-0.18 -1.39,-0.18 -2.86,0 -4.29,1.66 -4.29,4.97l0 9.04 -8.67 0 0 -20.84 8.67 0 0 3.67 0.08 0c0.53,-1.32 1.28,-2.33 2.26,-3.02 0.98,-0.68 2.12,-1.03 3.42,-1.03 0.48,0 0.89,0.09 1.24,0.25l0 7.55z"/>
  <g>
   <path class="fil3" d="M1645.12 1644.68l51.24 -56.36 0 0 -0.05 2.08 0.01 2.06 0.06 2.03 0.11 2.01 0.17 1.99 0.21 1.96 0.28 1.94 0.32 1.91 0.38 1.89 0.43 1.86 0.49 1.84 0.54 1.82 0.59 1.79 0.64 1.77 0.7 1.74 0.75 1.72 0.81 1.69 0.86 1.67 0.91 1.65 0.96 1.62 1.02 1.6 1.07 1.57 1.13 1.55 1.18 1.52 1.23 1.5 1.28 1.47 1.34 1.46 1.39 1.42 1.45 1.4 1.5 1.38 1.55 1.36 1.6 1.32 -76.15 1.77zm77.19 -286.49l6.82 -7.31 6.49 6.66 5.87 7.25 5.25 7.81 4.65 8.29 4.06 8.74 3.48 9.14 2.92 9.49 2.37 9.8 1.82 10.06 1.3 10.29 0.78 10.47 0.27 10.6 -0.22 10.7 -0.72 10.76 -1.2 10.76 -1.67 10.73 -2.13 10.66 -2.59 10.54 -3.03 10.38 -3.49 10.18 -3.91 9.93 -4.34 9.65 -4.77 9.31 -5.19 8.94 -5.59 8.52 -6 8.06 -6.41 7.55 -6.81 7 -7.2 6.4 -7.59 5.74 -7.97 5.04 -8.35 4.29 -4.15 -9.1 7.53 -3.87 7.24 -4.58 6.95 -5.25 6.63 -5.9 6.31 -6.49 5.99 -7.05 5.63 -7.57 5.29 -8.04 4.91 -8.48 4.53 -8.86 4.14 -9.2 3.75 -9.5 3.33 -9.74 2.91 -9.96 2.49 -10.12 2.05 -10.23 1.6 -10.3 1.15 -10.33 0.69 -10.31 0.21 -10.24 -0.26 -10.12 -0.74 -9.97 -1.23 -9.77 -1.73 -9.52 -2.22 -9.22 -2.74 -8.88 -3.24 -8.5 -3.74 -8.08 -4.27 -7.6 -4.78 -7.11 -5.3 -6.55 -5.83 -5.99z"/>
  </g>
  <g>
   <path class="fil4" d="M1687.51 1311.3l-51.24 56.36 0 0 0.05 -2.08 -0.01 -2.06 -0.06 -2.04 -0.11 -2.01 -0.16 -1.98 -0.22 -1.96 -0.27 -1.94 -0.33 -1.92 -0.38 -1.88 -0.43 -1.87 -0.49 -1.84 -0.53 -1.81 -0.6 -1.79 -0.64 -1.77 -0.7 -1.74 -0.75 -1.72 -0.81 -1.7 -0.85 -1.67 -0.92 -1.64 -0.96 -1.62 -1.02 -1.6 -1.07 -1.57 -1.13 -1.55 -1.17 -1.52 -1.24 -1.5 -1.28 -1.48 -1.34 -1.45 -1.39 -1.43 -1.45 -1.4 -1.5 -1.38 -1.55 -1.35 -1.6 -1.33 76.15 -1.76zm-77.18 286.48l-6.82 7.32 -6.49 -6.66 -5.87 -7.26 -5.26 -7.8 -4.65 -8.3 -4.06 -8.74 -3.48 -9.13 -2.92 -9.49 -2.36 -9.8 -1.83 -10.07 -1.3 -10.29 -0.78 -10.46 -0.27 -10.61 0.23 -10.7 0.71 -10.75 1.2 -10.76 1.67 -10.73 2.13 -10.66 2.59 -10.54 3.04 -10.38 3.48 -10.18 3.91 -9.93 4.35 -9.65 4.76 -9.31 5.19 -8.94 5.59 -8.52 6.01 -8.07 6.4 -7.55 6.81 -6.99 7.2 -6.4 7.59 -5.74 7.98 -5.05 8.35 -4.29 4.15 9.1 -7.54 3.87 -7.24 4.58 -6.94 5.26 -6.64 5.89 -6.31 6.5 -5.99 7.05 -5.63 7.57 -5.28 8.04 -4.92 8.47 -4.53 8.86 -4.14 9.2 -3.75 9.5 -3.33 9.75 -2.91 9.96 -2.49 10.11 -2.05 10.24 -1.6 10.3 -1.15 10.33 -0.68 10.3 -0.22 10.24 0.26 10.13 0.74 9.97 1.23 9.77 1.73 9.51 2.23 9.22 2.73 8.89 3.24 8.5 3.75 8.07 4.26 7.61 4.78 7.1 5.3 6.56 5.84 5.98z"/>
  </g>
  <g>
   <path class="fil3" d="M500.73 1314.09l-28.87 70.48 0 0 -0.67 -1.97 -0.7 -1.93 -0.76 -1.89 -0.79 -1.86 -0.83 -1.81 -0.88 -1.76 -0.92 -1.73 -0.96 -1.69 -1 -1.64 -1.04 -1.61 -1.09 -1.56 -1.12 -1.52 -1.17 -1.48 -1.21 -1.44 -1.26 -1.4 -1.29 -1.36 -1.34 -1.31 -1.37 -1.28 -1.42 -1.23 -1.46 -1.2 -1.51 -1.15 -1.54 -1.11 -1.59 -1.07 -1.63 -1.03 -1.67 -0.98 -1.71 -0.95 -1.75 -0.91 -1.8 -0.86 -1.84 -0.82 -1.87 -0.79 -1.92 -0.74 -1.97 -0.7 70.95 -27.7zm25.46 295.61l-3.91 9.2 -8.38 -4.03 -7.99 -4.82 -7.61 -5.53 -7.21 -6.21 -6.8 -6.82 -6.4 -7.4 -5.98 -7.92 -5.58 -8.4 -5.16 -8.83 -4.74 -9.22 -4.31 -9.57 -3.88 -9.87 -3.45 -10.14 -3 -10.34 -2.56 -10.53 -2.1 -10.65 -1.64 -10.75 -1.18 -10.79 -0.69 -10.79 -0.21 -10.76 0.28 -10.67 0.78 -10.55 1.3 -10.38 1.81 -10.17 2.34 -9.93 2.89 -9.62 3.43 -9.29 4.01 -8.9 4.58 -8.48 5.17 -7.99 5.76 -7.47 6.38 -6.88 7.02 7.13 -5.76 6.21 -5.24 6.78 -4.73 7.32 -4.22 7.8 -3.71 8.26 -3.21 8.68 -2.71 9.04 -2.21 9.36 -1.72 9.64 -1.23 9.88 -0.74 10.06 -0.27 10.21 0.2 10.3 0.67 10.35 1.12 10.36 1.58 10.31 2.02 10.23 2.45 10.1 2.88 9.92 3.3 9.7 3.71 9.43 4.1 9.11 4.5 8.75 4.88 8.36 5.24 7.9 5.61 7.41 5.95 6.89 6.29 6.3 6.6 5.69 6.92 5.04 7.23 4.35 7.53 3.63z"/>
  </g>
  <g>
   <path class="fil4" d="M574.93 1641.86l28.87 -70.48 0 0 0.66 1.97 0.71 1.94 0.75 1.89 0.8 1.85 0.83 1.81 0.88 1.77 0.92 1.72 0.96 1.69 1 1.64 1.04 1.61 1.09 1.56 1.12 1.52 1.17 1.48 1.21 1.44 1.25 1.4 1.3 1.36 1.33 1.31 1.38 1.28 1.42 1.23 1.46 1.2 1.51 1.15 1.54 1.11 1.59 1.07 1.63 1.03 1.66 0.99 1.72 0.94 1.75 0.91 1.8 0.86 1.83 0.83 1.88 0.78 1.92 0.74 1.96 0.7 -70.94 27.7zm-25.46 -295.6l3.91 -9.21 8.37 4.04 8 4.81 7.61 5.53 7.2 6.21 6.81 6.82 6.4 7.4 5.98 7.92 5.58 8.4 5.16 8.83 4.74 9.22 4.31 9.57 3.88 9.88 3.45 10.13 3 10.35 2.56 10.52 2.1 10.65 1.64 10.75 1.18 10.79 0.69 10.79 0.21 10.76 -0.28 10.67 -0.78 10.55 -1.3 10.38 -1.81 10.18 -2.34 9.92 -2.89 9.62 -3.44 9.29 -4 8.9 -4.58 8.48 -5.17 7.99 -5.77 7.47 -6.37 6.88 -7.02 -7.13 5.76 -6.21 5.24 -6.78 4.73 -7.31 4.21 -7.81 3.72 -8.26 3.21 -8.68 2.7 -9.04 2.22 -9.36 1.71 -9.64 1.23 -9.88 0.75 -10.06 0.27 -10.21 -0.2 -10.3 -0.67 -10.35 -1.12 -10.36 -1.58 -10.31 -2.02 -10.23 -2.45 -10.1 -2.88 -9.92 -3.3 -9.7 -3.71 -9.42 -4.1 -9.12 -4.5 -8.75 -4.88 -8.36 -5.25 -7.9 -5.6 -7.41 -5.95 -6.88 -6.29 -6.31 -6.6 -5.69 -6.93 -5.04 -7.22 -4.35 -7.53 -3.62z"/>
  </g>
  <circle class="fil9 str4" cx="591.36" cy="1847.65" r="180.01"/>
  <circle class="fil9 str4" cx="1606.89" cy="1847.65" r="180.01"/>
  <g>
   <path class="fil3" d="M771.37 1847.65l70.02 -30.01 0 0 -0.91 1.88 -0.85 1.87 -0.79 1.88 -0.74 1.87 -0.67 1.88 -0.61 1.87 -0.56 1.88 -0.5 1.87 -0.44 1.88 -0.38 1.87 -0.32 1.88 -0.27 1.87 -0.2 1.88 -0.15 1.87 -0.09 1.88 -0.02 1.88 0.02 1.87 0.09 1.88 0.15 1.87 0.2 1.88 0.27 1.87 0.32 1.88 0.38 1.87 0.44 1.88 0.5 1.88 0.56 1.87 0.61 1.88 0.67 1.87 0.74 1.88 0.79 1.87 0.85 1.88 0.91 1.87 -70.02 -30zm655.51 5l-620.32 0 0 -10 620.32 0 0 10z"/>
  </g>
  <path class="fil8" d="M455.48 1854.55c0,2.32 -0.62,4.35 -1.87,6.07 -1.24,1.73 -2.99,3.01 -5.23,3.86 -2.24,0.84 -4.94,1.27 -8.1,1.27 -3.66,0 -7.01,-0.62 -10.05,-1.86l0 -9.59c1.47,1.07 3.08,1.95 4.86,2.6 1.77,0.66 3.42,1 4.96,1 1.15,0 2.05,-0.21 2.68,-0.63 0.63,-0.42 0.95,-1.02 0.95,-1.82 0,-0.56 -0.16,-1.07 -0.47,-1.5 -0.32,-0.43 -0.8,-0.83 -1.45,-1.2 -0.64,-0.38 -1.83,-0.9 -3.58,-1.55 -5.63,-2.16 -8.45,-5.66 -8.45,-10.5 0,-3.38 1.28,-6.09 3.86,-8.11 2.57,-2.03 6.02,-3.05 10.35,-3.05 1.22,0 2.34,0.05 3.37,0.15 1.02,0.1 1.95,0.22 2.8,0.36 0.83,0.15 2,0.43 3.52,0.84l0 8.9c-2.95,-1.59 -5.84,-2.4 -8.69,-2.4 -1.18,0 -2.12,0.22 -2.83,0.66 -0.72,0.45 -1.08,1.05 -1.08,1.81 0,0.73 0.29,1.33 0.87,1.82 0.57,0.47 1.78,1.1 3.62,1.87 3.63,1.45 6.2,3.06 7.7,4.8 1.51,1.74 2.26,3.8 2.26,6.2z"/>
  <path id="1" class="fil8" d="M490.27 1849.15c0,5.61 -1.28,9.79 -3.84,12.51 -2.56,2.73 -6.51,4.09 -11.85,4.09 -4.98,0 -8.76,-1.36 -11.34,-4.09 -2.57,-2.72 -3.87,-6.83 -3.87,-12.31l0 -19.21 10.6 0 0 19.61c0,2.24 0.42,3.96 1.26,5.18 0.84,1.21 2.04,1.82 3.61,1.82 1.58,0 2.78,-0.57 3.6,-1.71 0.83,-1.14 1.23,-2.83 1.23,-5.05l0 -19.85 10.6 0 0 19.01z"/>
  <path id="2" class="fil8" d="M521.08 1854.55c0,2.32 -0.62,4.35 -1.86,6.07 -1.24,1.73 -2.99,3.01 -5.24,3.86 -2.24,0.84 -4.94,1.27 -8.1,1.27 -3.66,0 -7,-0.62 -10.05,-1.86l0 -9.59c1.47,1.07 3.09,1.95 4.86,2.6 1.78,0.66 3.43,1 4.96,1 1.15,0 2.05,-0.21 2.68,-0.63 0.64,-0.42 0.95,-1.02 0.95,-1.82 0,-0.56 -0.15,-1.07 -0.47,-1.5 -0.32,-0.43 -0.8,-0.83 -1.44,-1.2 -0.64,-0.38 -1.84,-0.9 -3.59,-1.55 -5.63,-2.16 -8.45,-5.66 -8.45,-10.5 0,-3.38 1.29,-6.09 3.86,-8.11 2.57,-2.03 6.02,-3.05 10.35,-3.05 1.22,0 2.34,0.05 3.37,0.15 1.02,0.1 1.96,0.22 2.8,0.36 0.83,0.15 2.01,0.43 3.52,0.84l0 8.9c-2.95,-1.59 -5.84,-2.4 -8.69,-2.4 -1.17,0 -2.11,0.22 -2.83,0.66 -0.72,0.45 -1.08,1.05 -1.08,1.81 0,0.73 0.3,1.33 0.87,1.82 0.58,0.47 1.78,1.1 3.62,1.87 3.63,1.45 6.2,3.06 7.71,4.8 1.5,1.74 2.25,3.8 2.25,6.2z"/>
  <path id="3" class="fil8" d="M553.98 1841.69c0,2.39 -0.61,4.51 -1.82,6.37 -1.21,1.86 -2.94,3.29 -5.18,4.31 -2.24,1.02 -4.86,1.53 -7.84,1.53l-3.21 0 0 11.25 -10.55 0 0 -35.01 14.35 0c4.92,0 8.53,0.94 10.82,2.81 2.29,1.87 3.43,4.79 3.43,8.74zm-11.15 0.36c0,-1.44 -0.42,-2.52 -1.24,-3.25 -0.84,-0.74 -2.06,-1.11 -3.66,-1.11l-2 0 0 8.66 2.36 0c3.03,0 4.54,-1.44 4.54,-4.3z"/>
  <polygon id="4" class="fil8" points="558.17,1865.15 558.17,1830.14 579.96,1830.14 579.96,1838.4 568.72,1838.4 568.72,1843.5 579.27,1843.5 579.27,1851.75 568.72,1851.75 568.72,1856.9 580.77,1856.9 580.77,1865.15 "/>
  <path id="5" class="fil8" d="M610.21 1865.15l-12.35 -16.9c-0.98,-1.33 -1.78,-2.53 -2.4,-3.61l-0.1 0c0.1,1.73 0.15,3.66 0.15,5.81l0 14.7 -9.75 0 0 -35.01 9.97 0 11.84 16.06c0.14,0.21 0.33,0.46 0.54,0.76 0.2,0.29 0.42,0.59 0.63,0.9 0.21,0.31 0.42,0.61 0.6,0.9 0.18,0.29 0.33,0.56 0.42,0.79l0.1 0c-0.1,-0.72 -0.15,-1.95 -0.15,-3.71l0 -15.7 9.75 0 0 35.01 -9.25 0z"/>
  <path id="6" class="fil8" d="M659.37 1847.2c0,3.55 -0.75,6.69 -2.24,9.41 -1.49,2.73 -3.61,4.84 -6.38,6.31 -2.77,1.48 -5.96,2.23 -9.57,2.23l-14.82 0 0 -35.01 14.51 0c12.33,0 18.5,5.69 18.5,17.06zm-11.2 0.1c0,-1.7 -0.35,-3.25 -1.04,-4.61 -0.69,-1.37 -1.68,-2.42 -2.96,-3.17 -1.29,-0.75 -2.8,-1.12 -4.55,-1.12l-2.71 0 0 18.5 2.96 0c2.52,0 4.54,-0.87 6.04,-2.6 1.51,-1.74 2.26,-4.07 2.26,-7z"/>
  <polygon id="7" class="fil8" points="664.31,1865.15 664.31,1830.14 674.86,1830.14 674.86,1865.15 "/>
  <path id="8" class="fil8" d="M714.74 1847.2c0,3.55 -0.74,6.69 -2.23,9.41 -1.49,2.73 -3.62,4.84 -6.38,6.31 -2.77,1.48 -5.96,2.23 -9.57,2.23l-14.82 0 0 -35.01 14.5 0c12.34,0 18.5,5.69 18.5,17.06zm-11.2 0.1c0,-1.7 -0.34,-3.25 -1.03,-4.61 -0.69,-1.37 -1.68,-2.42 -2.97,-3.17 -1.28,-0.75 -2.8,-1.12 -4.54,-1.12l-2.71 0 0 18.5 2.95 0c2.53,0 4.55,-0.87 6.05,-2.6 1.5,-1.74 2.25,-4.07 2.25,-7z"/>
  <path id="9" class="fil8" d="M752.99 1847.54c0,3.51 -0.76,6.66 -2.27,9.43 -1.51,2.78 -3.63,4.93 -6.35,6.47 -2.72,1.54 -5.76,2.31 -9.13,2.31 -3.29,0 -6.28,-0.75 -8.97,-2.24 -2.69,-1.49 -4.79,-3.58 -6.29,-6.27 -1.49,-2.69 -2.24,-5.74 -2.24,-9.15 0,-3.56 0.75,-6.76 2.26,-9.61 1.52,-2.85 3.64,-5.05 6.38,-6.6 2.73,-1.56 5.84,-2.34 9.32,-2.34 3.35,0 6.35,0.75 9,2.24 2.65,1.49 4.69,3.61 6.13,6.37 1.44,2.76 2.16,5.89 2.16,9.39zm-11.2 0.3c0,-2.88 -0.55,-5.15 -1.66,-6.8 -1.11,-1.66 -2.62,-2.49 -4.53,-2.49 -2.1,0 -3.74,0.79 -4.9,2.39 -1.18,1.59 -1.76,3.84 -1.76,6.76 0,2.84 0.58,5.06 1.74,6.65 1.17,1.6 2.74,2.4 4.74,2.4 1.23,0 2.32,-0.36 3.29,-1.08 0.98,-0.72 1.74,-1.74 2.27,-3.07 0.54,-1.34 0.81,-2.92 0.81,-4.76z"/>
  <path class="fil8" d="M1487.47 1823.36c0,3.14 -1.1,5.57 -3.31,7.28 -2.21,1.71 -5.36,2.56 -9.46,2.56l-14.64 0 0 -32.08 13.63 0c8.52,0 12.77,2.59 12.77,7.76 0,1.12 -0.27,2.14 -0.81,3.08 -0.53,0.93 -1.35,1.75 -2.45,2.45 -1.09,0.7 -2.3,1.18 -3.61,1.43l0 0.09c1.52,0.18 2.88,0.63 4.1,1.35 1.2,0.73 2.14,1.63 2.79,2.71 0.66,1.08 0.99,2.2 0.99,3.37zm-11.28 -12.81c0,-1.98 -1.55,-2.97 -4.67,-2.97l-1.79 0 0 6.05 2.8 0c1.07,0 1.95,-0.29 2.63,-0.86 0.69,-0.58 1.03,-1.31 1.03,-2.22zm1.01 12.77c0,-0.93 -0.33,-1.69 -1.01,-2.29 -0.67,-0.59 -1.55,-0.89 -2.65,-0.89l-3.81 0 0 6.55 3.22 0c1.31,0 2.35,-0.3 3.11,-0.91 0.76,-0.6 1.14,-1.42 1.14,-2.46z"/>
  <polygon id="1" class="fil8" points="1491.73,1833.2 1491.73,1801.12 1501.4,1801.12 1501.4,1825.64 1512.45,1825.64 1512.45,1833.2 "/>
  <path id="2" class="fil8" d="M1547.06 1817.06c0,3.22 -0.7,6.1 -2.08,8.65 -1.39,2.54 -3.33,4.52 -5.82,5.93 -2.49,1.41 -5.28,2.11 -8.38,2.11 -3,0 -5.75,-0.68 -8.22,-2.05 -2.46,-1.36 -4.39,-3.28 -5.76,-5.75 -1.37,-2.46 -2.06,-5.26 -2.06,-8.38 0,-3.27 0.7,-6.2 2.08,-8.81 1.39,-2.62 3.34,-4.63 5.84,-6.05 2.51,-1.43 5.36,-2.14 8.55,-2.14 3.07,0 5.82,0.68 8.25,2.04 2.43,1.37 4.3,3.32 5.62,5.85 1.32,2.53 1.98,5.39 1.98,8.6zm-10.27 0.28c0,-2.64 -0.5,-4.72 -1.52,-6.24 -1.02,-1.52 -2.4,-2.28 -4.16,-2.28 -1.92,0 -3.42,0.73 -4.49,2.19 -1.08,1.46 -1.61,3.52 -1.61,6.2 0,2.6 0.53,4.64 1.6,6.1 1.07,1.46 2.51,2.19 4.34,2.19 1.13,0 2.13,-0.33 3.02,-0.98 0.89,-0.66 1.59,-1.6 2.08,-2.82 0.5,-1.22 0.74,-2.68 0.74,-4.36z"/>
  <path id="3" class="fil8" d="M1582.13 1817.06c0,4.97 -1.6,9.05 -4.81,12.26l8.48 8.19 -12.14 0 -4.07 -4.12c-1.19,0.24 -2.43,0.36 -3.73,0.36 -3.01,0 -5.75,-0.68 -8.22,-2.05 -2.47,-1.36 -4.4,-3.28 -5.77,-5.75 -1.37,-2.46 -2.06,-5.26 -2.06,-8.38 0,-3.27 0.7,-6.2 2.08,-8.81 1.39,-2.62 3.34,-4.63 5.85,-6.05 2.5,-1.43 5.35,-2.14 8.54,-2.14 3.08,0 5.83,0.68 8.25,2.04 2.43,1.37 4.3,3.32 5.62,5.85 1.32,2.52 1.98,5.39 1.98,8.6zm-10.27 0.28c0,-2.64 -0.5,-4.72 -1.52,-6.24 -1.01,-1.52 -2.4,-2.28 -4.15,-2.28 -1.93,0 -3.43,0.73 -4.5,2.19 -1.07,1.46 -1.61,3.52 -1.61,6.2 0,2.6 0.54,4.64 1.6,6.1 1.07,1.46 2.51,2.19 4.35,2.19 1.75,0 3.15,-0.74 4.22,-2.21 1.08,-1.48 1.61,-3.46 1.61,-5.95z"/>
  <path id="4" class="fil8" d="M1614.64 1818.54c0,5.14 -1.18,8.97 -3.53,11.47 -2.35,2.5 -5.97,3.74 -10.86,3.74 -4.57,0 -8.03,-1.24 -10.4,-3.74 -2.36,-2.5 -3.54,-6.26 -3.54,-11.29l0 -17.6 9.72 0 0 17.97c0,2.05 0.38,3.63 1.15,4.75 0.77,1.1 1.87,1.66 3.31,1.66 1.44,0 2.54,-0.52 3.3,-1.56 0.75,-1.05 1.13,-2.59 1.13,-4.63l0 -18.19 9.72 0 0 17.42z"/>
  <polygon id="5" class="fil8" points="1620.6,1833.2 1620.6,1801.12 1640.58,1801.12 1640.58,1808.68 1630.27,1808.68 1630.27,1813.36 1639.95,1813.36 1639.95,1820.92 1630.27,1820.92 1630.27,1825.64 1641.32,1825.64 1641.32,1833.2 "/>
  <path id="6" class="fil8" d="M1666.02 1833.2l-1.42 -5.91 -9.58 0 -1.52 5.91 -10.45 0 11.06 -32.08 12 0 10.4 32.08 -10.49 0zm-6.11 -25.12l-0.22 0c-0.03,0.36 -0.13,0.95 -0.31,1.77 -0.18,0.82 -1.08,4.35 -2.71,10.56l6.14 0 -2.24 -8.72c-0.31,-1.28 -0.53,-2.49 -0.66,-3.61z"/>
  <path id="7" class="fil8" d="M1710.53 1816.75c0,3.26 -0.68,6.13 -2.05,8.63 -1.37,2.5 -3.32,4.43 -5.85,5.78 -2.54,1.36 -5.47,2.04 -8.77,2.04l-13.59 0 0 -32.08 13.3 0c11.3,0 16.96,5.21 16.96,15.63zm-10.27 0.1c0,-1.57 -0.32,-2.98 -0.95,-4.24 -0.63,-1.25 -1.54,-2.21 -2.72,-2.9 -1.18,-0.69 -2.57,-1.03 -4.16,-1.03l-2.49 0 0 16.96 2.71 0c2.31,0 4.16,-0.8 5.54,-2.38 1.38,-1.59 2.07,-3.73 2.07,-6.41z"/>
  <path id="8" class="fil8" d="M1745.58 1817.06c0,3.22 -0.69,6.1 -2.08,8.65 -1.39,2.54 -3.33,4.52 -5.82,5.93 -2.49,1.41 -5.28,2.11 -8.37,2.11 -3.01,0 -5.75,-0.68 -8.22,-2.05 -2.47,-1.36 -4.39,-3.28 -5.77,-5.75 -1.37,-2.46 -2.05,-5.26 -2.05,-8.38 0,-3.27 0.69,-6.2 2.07,-8.81 1.4,-2.62 3.34,-4.63 5.85,-6.05 2.51,-1.43 5.35,-2.14 8.55,-2.14 3.07,0 5.82,0.68 8.24,2.04 2.43,1.37 4.3,3.32 5.62,5.85 1.33,2.53 1.98,5.39 1.98,8.6zm-10.27 0.28c0,-2.64 -0.5,-4.72 -1.52,-6.24 -1.01,-1.52 -2.39,-2.28 -4.15,-2.28 -1.93,0 -3.42,0.73 -4.49,2.19 -1.08,1.46 -1.61,3.52 -1.61,6.2 0,2.6 0.53,4.64 1.59,6.1 1.07,1.46 2.51,2.19 4.35,2.19 1.12,0 2.12,-0.33 3.02,-0.98 0.89,-0.66 1.59,-1.6 2.07,-2.82 0.5,-1.22 0.74,-2.68 0.74,-4.36z"/>
  <path id="9" class="fil8" d="M1482.34 1884.46c0,2.13 -0.58,3.98 -1.72,5.56 -1.13,1.59 -2.74,2.76 -4.79,3.54 -2.06,0.77 -4.53,1.16 -7.43,1.16 -3.35,0 -6.42,-0.56 -9.21,-1.7l0 -8.79c1.34,0.98 2.82,1.78 4.45,2.39 1.63,0.6 3.14,0.91 4.55,0.91 1.05,0 1.88,-0.2 2.46,-0.58 0.58,-0.38 0.87,-0.93 0.87,-1.66 0,-0.52 -0.15,-0.99 -0.44,-1.38 -0.29,-0.39 -0.73,-0.76 -1.32,-1.1 -0.59,-0.35 -1.68,-0.82 -3.28,-1.42 -5.17,-1.98 -7.75,-5.19 -7.75,-9.62 0,-3.11 1.18,-5.59 3.54,-7.44 2.35,-1.86 5.51,-2.79 9.49,-2.79 1.11,0 2.14,0.04 3.08,0.13 0.94,0.09 1.8,0.2 2.57,0.33 0.76,0.14 1.84,0.39 3.23,0.77l0 8.16c-2.7,-1.46 -5.36,-2.2 -7.97,-2.2 -1.08,0 -1.94,0.2 -2.6,0.61 -0.65,0.4 -0.98,0.95 -0.98,1.65 0,0.67 0.27,1.23 0.79,1.67 0.53,0.44 1.64,1.01 3.33,1.71 3.32,1.34 5.67,2.81 7.06,4.41 1.38,1.59 2.07,3.48 2.07,5.68z"/>
  <path id="10" class="fil8" d="M1514.23 1879.51c0,5.14 -1.18,8.97 -3.52,11.47 -2.35,2.5 -5.98,3.74 -10.86,3.74 -4.57,0 -8.03,-1.24 -10.4,-3.74 -2.36,-2.5 -3.55,-6.26 -3.55,-11.29l0 -17.6 9.72 0 0 17.97c0,2.05 0.38,3.63 1.16,4.75 0.77,1.1 1.87,1.66 3.3,1.66 1.45,0 2.55,-0.52 3.3,-1.56 0.76,-1.05 1.13,-2.59 1.13,-4.63l0 -18.19 9.72 0 0 17.42z"/>
  <path id="11" class="fil8" d="M1542.47 1884.46c0,2.13 -0.57,3.98 -1.71,5.56 -1.14,1.59 -2.74,2.76 -4.79,3.54 -2.06,0.77 -4.53,1.16 -7.43,1.16 -3.35,0 -6.43,-0.56 -9.21,-1.7l0 -8.79c1.34,0.98 2.82,1.78 4.45,2.39 1.63,0.6 3.14,0.91 4.55,0.91 1.05,0 1.87,-0.2 2.46,-0.58 0.58,-0.38 0.87,-0.93 0.87,-1.66 0,-0.52 -0.15,-0.99 -0.44,-1.38 -0.29,-0.39 -0.73,-0.76 -1.32,-1.1 -0.59,-0.35 -1.68,-0.82 -3.29,-1.42 -5.16,-1.98 -7.74,-5.19 -7.74,-9.62 0,-3.11 1.17,-5.59 3.54,-7.44 2.35,-1.86 5.51,-2.79 9.48,-2.79 1.12,0 2.15,0.04 3.09,0.13 0.94,0.09 1.79,0.2 2.57,0.33 0.76,0.14 1.84,0.39 3.23,0.77l0 8.16c-2.71,-1.46 -5.36,-2.2 -7.97,-2.2 -1.08,0 -1.94,0.2 -2.6,0.61 -0.65,0.4 -0.98,0.95 -0.98,1.65 0,0.67 0.26,1.23 0.79,1.67 0.53,0.44 1.64,1.01 3.32,1.71 3.33,1.34 5.68,2.81 7.06,4.41 1.39,1.59 2.07,3.48 2.07,5.68z"/>
  <path id="12" class="fil8" d="M1572.63 1872.67c0,2.19 -0.56,4.14 -1.67,5.84 -1.11,1.71 -2.69,3.02 -4.75,3.95 -2.05,0.93 -4.45,1.4 -7.18,1.4l-2.95 0 0 10.31 -9.67 0 0 -32.08 13.15 0c4.52,0 7.83,0.85 9.93,2.57 2.09,1.71 3.14,4.39 3.14,8.01zm-10.22 0.33c0,-1.32 -0.39,-2.31 -1.14,-2.98 -0.77,-0.68 -1.88,-1.01 -3.36,-1.01l-1.83 0 0 7.93 2.17 0c2.77,0 4.16,-1.32 4.16,-3.94z"/>
  <polygon id="13" class="fil8" points="1576.47,1894.17 1576.47,1862.09 1596.45,1862.09 1596.45,1869.65 1586.14,1869.65 1586.14,1874.33 1595.81,1874.33 1595.81,1881.89 1586.14,1881.89 1586.14,1886.61 1597.19,1886.61 1597.19,1894.17 "/>
  <path id="14" class="fil8" d="M1624.18 1894.17l-11.33 -15.48c-0.9,-1.23 -1.63,-2.32 -2.19,-3.31l-0.1 0c0.1,1.58 0.14,3.35 0.14,5.32l0 13.47 -8.94 0 0 -32.08 9.14 0 10.86 14.72c0.13,0.19 0.29,0.42 0.48,0.69 0.2,0.27 0.39,0.55 0.59,0.83 0.19,0.28 0.38,0.56 0.55,0.82 0.16,0.27 0.3,0.52 0.38,0.72l0.1 0c-0.1,-0.66 -0.14,-1.79 -0.14,-3.4l0 -14.38 8.94 0 0 32.08 -8.48 0z"/>
  <path id="15" class="fil8" d="M1669.24 1877.72c0,3.26 -0.69,6.13 -2.05,8.63 -1.37,2.5 -3.32,4.43 -5.85,5.78 -2.54,1.36 -5.47,2.04 -8.77,2.04l-13.59 0 0 -32.08 13.29 0c11.31,0 16.97,5.21 16.97,15.63zm-10.27 0.1c0,-1.57 -0.32,-2.98 -0.95,-4.24 -0.63,-1.25 -1.54,-2.21 -2.72,-2.9 -1.18,-0.69 -2.57,-1.03 -4.16,-1.03l-2.49 0 0 16.96 2.71 0c2.31,0 4.16,-0.8 5.54,-2.38 1.38,-1.59 2.07,-3.73 2.07,-6.41z"/>
  <polygon id="16" class="fil8" points="1673.77,1894.17 1673.77,1862.09 1683.44,1862.09 1683.44,1894.17 "/>
  <path id="17" class="fil8" d="M1720 1877.72c0,3.26 -0.68,6.13 -2.05,8.63 -1.37,2.5 -3.32,4.43 -5.85,5.78 -2.54,1.36 -5.46,2.04 -8.77,2.04l-13.58 0 0 -32.08 13.29 0c11.31,0 16.96,5.21 16.96,15.63zm-10.27 0.1c0,-1.57 -0.31,-2.98 -0.95,-4.24 -0.63,-1.25 -1.54,-2.21 -2.72,-2.9 -1.17,-0.69 -2.56,-1.03 -4.16,-1.03l-2.48 0 0 16.96 2.7 0c2.32,0 4.17,-0.8 5.54,-2.38 1.38,-1.59 2.07,-3.73 2.07,-6.41z"/>
  <path id="18" class="fil8" d="M1755.05 1878.03c0,3.22 -0.69,6.1 -2.07,8.65 -1.39,2.54 -3.33,4.52 -5.82,5.93 -2.49,1.41 -5.28,2.11 -8.38,2.11 -3.01,0 -5.75,-0.68 -8.22,-2.05 -2.46,-1.36 -4.39,-3.28 -5.76,-5.75 -1.37,-2.46 -2.06,-5.26 -2.06,-8.38 0,-3.27 0.7,-6.2 2.08,-8.81 1.39,-2.62 3.34,-4.63 5.84,-6.05 2.51,-1.43 5.36,-2.14 8.55,-2.14 3.07,0 5.82,0.68 8.24,2.04 2.43,1.37 4.3,3.32 5.63,5.85 1.32,2.53 1.97,5.39 1.97,8.6zm-10.26 0.28c0,-2.64 -0.51,-4.72 -1.52,-6.24 -1.02,-1.52 -2.4,-2.28 -4.16,-2.28 -1.92,0 -3.42,0.73 -4.49,2.19 -1.08,1.46 -1.61,3.52 -1.61,6.2 0,2.6 0.53,4.64 1.59,6.1 1.07,1.46 2.52,2.19 4.35,2.19 1.12,0 2.13,-0.33 3.02,-0.98 0.89,-0.66 1.59,-1.6 2.08,-2.82 0.49,-1.22 0.74,-2.68 0.74,-4.36z"/>
  <polygon class="fil2" points="942.56,1498.02 942.56,1463.01 953.11,1463.01 953.11,1498.02 "/>
  <path id="1" class="fil2" d="M975.24 1498.02l0 -13.65c0,-1.55 -0.23,-2.66 -0.69,-3.34 -0.46,-0.67 -1.21,-1.01 -2.26,-1.01 -0.89,0 -1.59,0.34 -2.09,1.05 -0.51,0.7 -0.76,1.6 -0.76,2.68l0 14.27 -10.4 0 0 -25.01 10.4 0 0 3.9 0.1 0c0.83,-1.42 1.95,-2.53 3.35,-3.31 1.39,-0.79 2.91,-1.18 4.55,-1.18 5.47,0 8.2,3.44 8.2,10.35l0 15.25 -10.4 0z"/>
  <path id="2" class="fil2" d="M1007.94 1497.67c-0.47,0.22 -1.24,0.44 -2.31,0.64 -1.08,0.21 -2.37,0.31 -3.89,0.31 -2.89,0 -5.15,-0.8 -6.8,-2.4 -1.63,-1.59 -2.45,-3.86 -2.45,-6.8l0 -9.21 -3.95 0 0 -7.2 3.95 0 0 -4.91 10.25 -2.84 0 7.75 5.2 0 0 7.2 -5.2 0 0 7.51c0,2.2 0.88,3.3 2.62,3.3 0.81,0 1.68,-0.19 2.58,-0.55l0 7.2z"/>
  <path id="3" class="fil2" d="M1020.15 1488.47c0.18,1.07 0.8,1.91 1.85,2.53 1.06,0.61 2.46,0.92 4.2,0.92 2.43,0 4.73,-0.47 6.9,-1.4l0 6.58c-2.53,1.01 -5.59,1.52 -9.19,1.52 -4.36,0 -7.75,-1.12 -10.17,-3.35 -2.43,-2.22 -3.65,-5.29 -3.65,-9.2 0,-2.68 0.54,-5.05 1.6,-7.1 1.07,-2.04 2.65,-3.65 4.74,-4.81 2.09,-1.16 4.39,-1.74 6.92,-1.74 2.58,0 4.8,0.5 6.64,1.5 1.83,1.01 3.23,2.43 4.18,4.25 0.95,1.82 1.43,3.95 1.43,6.4l0 3.9 -15.45 0zm6.25 -5.45c0,-2.87 -1.04,-4.31 -3.1,-4.31 -0.87,0 -1.59,0.4 -2.18,1.18 -0.58,0.79 -0.92,1.83 -1.02,3.13l6.3 0z"/>
  <path id="4" class="fil2" d="M1058 1481.92c-0.4,-0.18 -0.92,-0.35 -1.59,-0.49 -0.67,-0.14 -1.22,-0.21 -1.66,-0.21 -3.44,0 -5.15,1.98 -5.15,5.95l0 10.85 -10.4 0 0 -25.01 10.4 0 0 4.41 0.1 0c0.63,-1.59 1.53,-2.8 2.71,-3.62 1.17,-0.83 2.54,-1.23 4.1,-1.23 0.57,0 1.06,0.09 1.49,0.29l0 9.06z"/>
  <path id="5" class="fil2" d="M1081.6 1497.3c-0.67,0.39 -1.72,0.71 -3.15,0.95 -1.44,0.24 -3.09,0.37 -4.95,0.37 -2.64,0 -5,-0.54 -7.07,-1.6 -2.07,-1.07 -3.68,-2.56 -4.82,-4.48 -1.15,-1.92 -1.71,-4.07 -1.71,-6.47 0,-2.85 0.6,-5.3 1.81,-7.35 1.22,-2.04 2.95,-3.61 5.2,-4.68 2.24,-1.08 4.85,-1.62 7.8,-1.62 1.63,0 3.1,0.1 4.39,0.31 1.29,0.21 2.12,0.46 2.5,0.73l0 8.11c-0.52,-0.41 -1.27,-0.77 -2.24,-1.09 -0.98,-0.31 -1.89,-0.46 -2.71,-0.46 -2.04,0 -3.58,0.48 -4.63,1.45 -1.05,0.97 -1.57,2.34 -1.57,4.1 0,1.72 0.51,3.06 1.55,4.01 1.03,0.96 2.45,1.44 4.26,1.44 1.93,0 3.71,-0.47 5.34,-1.4l0 7.68z"/>
  <path id="6" class="fil2" d="M1099.61 1498.02l0 -3.8 -0.1 0c-1.66,2.93 -4.19,4.4 -7.61,4.4 -2.36,0 -4.21,-0.7 -5.54,-2.1 -1.34,-1.4 -2,-3.27 -2,-5.61 0,-4.91 3.01,-7.76 9.05,-8.54l6.2 -0.8c0,-0.82 -0.37,-1.5 -1.1,-2.02 -0.73,-0.53 -1.71,-0.78 -2.95,-0.78 -2.79,0 -5.74,0.8 -8.85,2.4l0 -6.75c1.35,-0.59 3.04,-1.07 5.07,-1.45 2.04,-0.37 3.78,-0.55 5.23,-0.55 4.24,0 7.32,0.9 9.23,2.72 1.91,1.81 2.87,4.84 2.87,9.08l0 13.8 -9.5 0zm-6.15 -8.5c0,0.69 0.21,1.25 0.65,1.69 0.42,0.44 1.04,0.66 1.84,0.66 1.09,0 1.97,-0.41 2.64,-1.23 0.68,-0.81 1.02,-1.85 1.02,-3.12l0 -0.95 -3.52 0.49c-1.76,0.29 -2.63,1.11 -2.63,2.46z"/>
  <path id="7" class="fil2" d="M1146.21 1498.02l0 -14.41c0,-1.21 -0.22,-2.11 -0.64,-2.7 -0.44,-0.59 -1.13,-0.89 -2.11,-0.89 -0.96,0 -1.71,0.35 -2.24,1.08 -0.54,0.72 -0.81,1.73 -0.81,3.02l0 13.9 -10.4 0 0 -14.17c0,-2.56 -0.87,-3.83 -2.61,-3.83 -1.06,0 -1.85,0.36 -2.38,1.1 -0.54,0.75 -0.81,1.81 -0.81,3.2l0 13.7 -10.4 0 0 -25.01 10.4 0 0 3.96 0.1 0c0.39,-0.7 1.01,-1.41 1.87,-2.13 0.85,-0.72 1.81,-1.31 2.89,-1.76 1.06,-0.44 2.23,-0.66 3.48,-0.66 1.78,0 3.27,0.35 4.48,1.04 1.21,0.7 2.22,1.8 3.04,3.31 0.88,-1.4 2.05,-2.47 3.52,-3.22 1.46,-0.76 3.1,-1.13 4.89,-1.13 2.61,0 4.63,0.84 6.03,2.55 1.4,1.71 2.1,4.18 2.1,7.4l0 15.65 -10.4 0z"/>
  <path id="8" class="fil2" d="M1189.52 1484.76c0,2.73 -0.45,5.15 -1.36,7.26 -0.9,2.1 -2.18,3.73 -3.84,4.88 -1.66,1.14 -3.54,1.72 -5.64,1.72 -1.61,0 -2.99,-0.3 -4.14,-0.9 -1.15,-0.59 -2.05,-1.36 -2.72,-2.3l-0.1 0 0 2.6 -10.4 0 0 -37.01 10.4 0 0 15.41 0.1 0c0.81,-1.24 1.92,-2.21 3.31,-2.93 1.39,-0.72 2.92,-1.07 4.6,-1.07 3.16,0 5.58,1.04 7.27,3.14 1.68,2.1 2.52,5.16 2.52,9.2zm-10.55 0.31c0,-1.67 -0.33,-2.94 -0.97,-3.78 -0.64,-0.85 -1.56,-1.27 -2.76,-1.27 -1.06,0 -1.95,0.44 -2.65,1.33 -0.71,0.88 -1.06,2.04 -1.06,3.46l0 1.51c0,1.44 0.31,2.58 0.95,3.42 0.63,0.85 1.48,1.28 2.56,1.28 1.25,0 2.22,-0.52 2.9,-1.55 0.69,-1.04 1.03,-2.5 1.03,-4.4z"/>
  <path id="9" class="fil2" d="M1204.44 1466.28c0,1.47 -0.54,2.65 -1.6,3.57 -1.07,0.91 -2.47,1.37 -4.21,1.37 -1.69,0 -3.08,-0.48 -4.16,-1.42 -1.08,-0.94 -1.62,-2.12 -1.62,-3.52 0,-1.43 0.52,-2.6 1.57,-3.48 1.05,-0.89 2.45,-1.34 4.21,-1.34 1.74,0 3.14,0.45 4.21,1.34 1.06,0.88 1.6,2.05 1.6,3.48zm-11.01 31.74l0 -25.01 10.4 0 0 25.01 -10.4 0z"/>
  <path id="10" class="fil2" d="M1222.69 1498.02l0 -3.8 -0.1 0c-1.66,2.93 -4.19,4.4 -7.61,4.4 -2.36,0 -4.21,-0.7 -5.54,-2.1 -1.33,-1.4 -2,-3.27 -2,-5.61 0,-4.91 3.02,-7.76 9.05,-8.54l6.2 -0.8c0,-0.82 -0.37,-1.5 -1.1,-2.02 -0.73,-0.53 -1.71,-0.78 -2.95,-0.78 -2.79,0 -5.74,0.8 -8.85,2.4l0 -6.75c1.35,-0.59 3.04,-1.07 5.07,-1.45 2.04,-0.37 3.78,-0.55 5.23,-0.55 4.24,0 7.32,0.9 9.23,2.72 1.91,1.81 2.87,4.84 2.87,9.08l0 13.8 -9.5 0zm-6.15 -8.5c0,0.69 0.22,1.25 0.65,1.69 0.42,0.44 1.04,0.66 1.84,0.66 1.09,0 1.97,-0.41 2.64,-1.23 0.68,-0.81 1.02,-1.85 1.02,-3.12l0 -0.95 -3.52 0.49c-1.76,0.29 -2.63,1.11 -2.63,2.46z"/>
  <path id="11" class="fil2" d="M1255.69 1481.92c-0.39,-0.18 -0.91,-0.35 -1.58,-0.49 -0.68,-0.14 -1.23,-0.21 -1.67,-0.21 -3.43,0 -5.15,1.98 -5.15,5.95l0 10.85 -10.4 0 0 -25.01 10.4 0 0 4.41 0.1 0c0.63,-1.59 1.54,-2.8 2.71,-3.62 1.17,-0.83 2.54,-1.23 4.1,-1.23 0.58,0 1.07,0.09 1.49,0.29l0 9.06z"/>
  <path class="fil3" d="M1153.32 1803.65c0,2.96 -0.61,5.57 -1.86,7.84 -1.24,2.27 -3.01,4.03 -5.32,5.26 -2.3,1.23 -4.96,1.85 -7.97,1.85l-12.35 0 0 -29.17 12.09 0c10.27,0 15.41,4.74 15.41,14.22zm-9.33 0.08c0,-1.42 -0.29,-2.71 -0.86,-3.85 -0.58,-1.13 -1.4,-2.01 -2.47,-2.63 -1.07,-0.63 -2.34,-0.94 -3.79,-0.94l-2.26 0 0 15.42 2.46 0c2.11,0 3.79,-0.73 5.04,-2.17 1.25,-1.45 1.88,-3.39 1.88,-5.83z"/>
  <path id="1" class="fil3" d="M1164.11 1810.64c0.15,0.9 0.67,1.6 1.55,2.11 0.88,0.51 2.05,0.77 3.5,0.77 2.02,0 3.94,-0.39 5.74,-1.17l0 5.49c-2.1,0.84 -4.65,1.26 -7.65,1.26 -3.63,0 -6.46,-0.93 -8.48,-2.78 -2.02,-1.86 -3.04,-4.41 -3.04,-7.67 0,-2.24 0.45,-4.21 1.34,-5.92 0.89,-1.7 2.2,-3.04 3.94,-4.01 1.74,-0.97 3.66,-1.45 5.77,-1.45 2.15,0 4,0.41 5.53,1.25 1.53,0.84 2.7,2.02 3.49,3.55 0.79,1.51 1.19,3.29 1.19,5.32l0 3.25 -12.88 0zm5.21 -4.54c0,-2.39 -0.86,-3.58 -2.59,-3.58 -0.72,0 -1.32,0.32 -1.81,0.98 -0.48,0.66 -0.77,1.52 -0.85,2.6l5.25 0z"/>
  <path id="2" class="fil3" d="M1196.9 1811.68c0,2.35 -0.89,4.18 -2.69,5.48 -1.8,1.3 -4.3,1.94 -7.52,1.94 -0.93,0 -2.09,-0.1 -3.46,-0.28 -1.38,-0.19 -2.5,-0.42 -3.37,-0.69l0 -6.07c2.56,1.14 4.7,1.71 6.42,1.71 1.69,0 2.54,-0.44 2.54,-1.32 0,-0.37 -0.2,-0.68 -0.59,-0.91 -0.39,-0.24 -1.42,-0.63 -3.09,-1.19 -1.84,-0.58 -3.18,-1.36 -4.02,-2.32 -0.84,-0.96 -1.26,-2.22 -1.26,-3.76 0,-2.16 0.86,-3.87 2.58,-5.12 1.71,-1.26 4.12,-1.88 7.23,-1.88 1.82,0 3.74,0.26 5.77,0.79l0 5.83c-0.85,-0.37 -1.79,-0.67 -2.81,-0.92 -1.01,-0.25 -1.87,-0.37 -2.56,-0.37 -0.57,0 -1.03,0.1 -1.37,0.28 -0.34,0.19 -0.51,0.46 -0.51,0.8 0,0.39 0.19,0.71 0.55,0.95 0.37,0.25 1.1,0.54 2.2,0.88 2.13,0.62 3.66,1.42 4.58,2.4 0.93,0.97 1.38,2.23 1.38,3.77z"/>
  <path id="3" class="fil3" d="M1223.61 1807.55c0,2.28 -0.38,4.29 -1.14,6.05 -0.75,1.76 -1.82,3.11 -3.2,4.07 -1.38,0.95 -2.95,1.43 -4.7,1.43 -1.34,0 -2.49,-0.25 -3.45,-0.74 -0.95,-0.49 -1.71,-1.14 -2.27,-1.93l-0.08 0 0 2.17 -8.67 0 0 -30.83 8.67 0 0 12.83 0.08 0c0.68,-1.03 1.6,-1.84 2.76,-2.44 1.16,-0.6 2.44,-0.89 3.84,-0.89 2.63,0 4.65,0.87 6.05,2.62 1.4,1.74 2.11,4.3 2.11,7.66zm-8.8 0.27c0,-1.4 -0.27,-2.46 -0.8,-3.16 -0.54,-0.71 -1.31,-1.06 -2.31,-1.06 -0.88,0 -1.62,0.37 -2.21,1.11 -0.59,0.74 -0.88,1.7 -0.88,2.88l0 1.27c0,1.19 0.27,2.14 0.79,2.84 0.53,0.71 1.24,1.07 2.14,1.07 1.04,0 1.85,-0.43 2.42,-1.3 0.57,-0.86 0.85,-2.08 0.85,-3.65z"/>
  <polygon id="4" class="fil3" points="1226.86,1818.6 1226.86,1787.77 1235.53,1787.77 1235.53,1818.6 "/>
  <path id="5" class="fil3" d="M1262.87 1807.82c0,3.51 -1.06,6.27 -3.18,8.27 -2.12,2.01 -5.09,3.01 -8.9,3.01 -3.79,0 -6.73,-0.98 -8.84,-2.94 -2.11,-1.96 -3.16,-4.66 -3.16,-8.1 0,-2.21 0.49,-4.13 1.48,-5.75 0.99,-1.63 2.4,-2.88 4.23,-3.75 1.84,-0.86 3.94,-1.29 6.33,-1.29 2.47,0 4.6,0.45 6.42,1.36 1.81,0.91 3.2,2.16 4.17,3.78 0.97,1.61 1.45,3.41 1.45,5.41zm-8.79 0.04c0,-2.84 -1.08,-4.26 -3.25,-4.26 -2.17,0 -3.25,1.49 -3.25,4.46 0,3.14 1.1,4.71 3.29,4.71 2.14,0 3.21,-1.64 3.21,-4.91z"/>
  <path id="6" class="fil3" d="M1280.03 1828.19l0 -11.96 -0.08 0c-0.65,0.86 -1.53,1.55 -2.63,2.08 -1.11,0.53 -2.24,0.79 -3.41,0.79 -1.72,0 -3.24,-0.41 -4.55,-1.22 -1.31,-0.81 -2.33,-1.99 -3.06,-3.54 -0.73,-1.56 -1.1,-3.48 -1.1,-5.75 0,-2.25 0.41,-4.23 1.22,-5.95 0.81,-1.73 1.95,-3.05 3.4,-3.98 1.45,-0.93 3.05,-1.39 4.8,-1.39 2.37,0 4.15,0.88 5.33,2.66l0.08 0 0 -2.16 8.67 0 0 30.42 -8.67 0zm0.18 -20.56c0,-1.26 -0.27,-2.25 -0.82,-2.96 -0.54,-0.72 -1.27,-1.07 -2.18,-1.07 -0.95,0 -1.73,0.44 -2.32,1.31 -0.6,0.86 -0.9,2.02 -0.9,3.47 0,1.35 0.25,2.41 0.75,3.21 0.51,0.78 1.26,1.18 2.27,1.18 1,0 1.78,-0.4 2.35,-1.18 0.57,-0.8 0.85,-1.89 0.85,-3.28l0 -0.68z"/>
  <path id="7" class="fil3" d="M1306.12 1818.6l0 -3.21 -0.08 0c-0.71,0.99 -1.36,1.71 -1.94,2.17 -0.57,0.46 -1.22,0.83 -1.95,1.12 -0.73,0.28 -1.57,0.42 -2.53,0.42 -2.28,0 -4.02,-0.74 -5.2,-2.21 -1.2,-1.48 -1.8,-3.66 -1.8,-6.55l0 -12.57 8.67 0 0 11.92c0,2.05 0.77,3.08 2.29,3.08 0.84,0 1.48,-0.28 1.91,-0.84 0.42,-0.55 0.63,-1.34 0.63,-2.36l0 -11.8 8.67 0 0 20.83 -8.67 0z"/>
  <path id="8" class="fil3" d="M1326.42 1810.64c0.15,0.9 0.66,1.6 1.55,2.11 0.88,0.51 2.05,0.77 3.5,0.77 2.02,0 3.93,-0.39 5.74,-1.17l0 5.49c-2.1,0.84 -4.65,1.26 -7.65,1.26 -3.64,0 -6.46,-0.93 -8.48,-2.78 -2.02,-1.86 -3.04,-4.41 -3.04,-7.67 0,-2.24 0.45,-4.21 1.34,-5.92 0.88,-1.7 2.2,-3.04 3.94,-4.01 1.74,-0.97 3.66,-1.45 5.76,-1.45 2.16,0 4.01,0.41 5.54,1.25 1.53,0.84 2.69,2.02 3.49,3.55 0.79,1.51 1.18,3.29 1.18,5.32l0 3.25 -12.87 0zm5.21 -4.54c0,-2.39 -0.86,-3.58 -2.59,-3.58 -0.72,0 -1.32,0.32 -1.81,0.98 -0.49,0.66 -0.77,1.52 -0.85,2.6l5.25 0z"/>
  <path id="9" class="fil3" d="M1353.84 1818.6l0 -3.17 -0.09 0c-1.38,2.45 -3.49,3.67 -6.34,3.67 -1.96,0 -3.5,-0.58 -4.62,-1.75 -1.11,-1.17 -1.66,-2.72 -1.66,-4.67 0,-4.09 2.51,-6.47 7.54,-7.11l5.17 -0.68c0,-0.68 -0.31,-1.24 -0.92,-1.68 -0.6,-0.44 -1.42,-0.65 -2.46,-0.65 -2.32,0 -4.78,0.66 -7.37,2l0 -5.63c1.12,-0.48 2.53,-0.89 4.23,-1.2 1.69,-0.31 3.14,-0.46 4.35,-0.46 3.54,0 6.11,0.75 7.7,2.27 1.59,1.5 2.38,4.03 2.38,7.57l0 11.49 -7.91 0zm-5.13 -7.08c0,0.57 0.18,1.04 0.54,1.41 0.36,0.37 0.87,0.55 1.54,0.55 0.91,0 1.64,-0.34 2.2,-1.03 0.56,-0.67 0.85,-1.54 0.85,-2.6l0 -0.79 -2.93 0.41c-1.47,0.24 -2.2,0.92 -2.2,2.05z"/>
  <path id="10" class="fil3" d="M1381.34 1805.18c-0.33,-0.14 -0.76,-0.28 -1.32,-0.4 -0.56,-0.12 -1.02,-0.18 -1.39,-0.18 -2.86,0 -4.29,1.65 -4.29,4.97l0 9.03 -8.67 0 0 -20.83 8.67 0 0 3.66 0.08 0c0.53,-1.32 1.28,-2.32 2.26,-3.01 0.98,-0.69 2.12,-1.03 3.42,-1.03 0.48,0 0.89,0.08 1.24,0.24l0 7.55z"/>
  <path class="fil10" d="M1929.7 452.85l0 -19.18c0,-1.81 0.06,-3.79 0.17,-5.96l0.07 -1.61 -0.29 0c-0.51,2.75 -0.91,4.65 -1.19,5.71l-5.16 21.04 -9.91 0 -5.39 -20.79c-0.15,-0.53 -0.53,-2.51 -1.15,-5.96l-0.29 0c0.23,5.47 0.34,8.88 0.34,10.25l0 16.5 -9.25 0 0 -35 15.79 0 4.81 19c0.12,0.39 0.27,1.18 0.46,2.38 0.18,1.2 0.3,2.12 0.35,2.77l0.15 0c0.18,-1.48 0.46,-3.22 0.85,-5.24l4.49 -18.91 15.55 0 0 35 -10.4 0z"/>
  <path id="1" class="fil10" d="M1955 443.3c0.18,1.08 0.8,1.92 1.86,2.53 1.05,0.61 2.45,0.92 4.2,0.92 2.42,0 4.72,-0.47 6.89,-1.4l0 6.59c-2.53,1 -5.59,1.51 -9.19,1.51 -4.36,0 -7.75,-1.11 -10.17,-3.34 -2.43,-2.23 -3.64,-5.29 -3.64,-9.2 0,-2.68 0.53,-5.05 1.6,-7.1 1.06,-2.04 2.64,-3.65 4.73,-4.82 2.09,-1.16 4.39,-1.74 6.92,-1.74 2.58,0 4.8,0.5 6.64,1.51 1.83,1.01 3.23,2.42 4.18,4.25 0.95,1.82 1.43,3.95 1.43,6.39l0 3.9 -15.45 0zm6.25 -5.45c0,-2.87 -1.04,-4.3 -3.1,-4.3 -0.87,0 -1.59,0.39 -2.18,1.18 -0.58,0.79 -0.92,1.82 -1.02,3.12l6.3 0z"/>
  <path id="2" class="fil10" d="M2006.45 452.85l0 -14.41c0,-1.21 -0.22,-2.11 -0.64,-2.7 -0.44,-0.59 -1.14,-0.89 -2.11,-0.89 -0.96,0 -1.71,0.36 -2.24,1.08 -0.54,0.73 -0.81,1.74 -0.81,3.02l0 13.9 -10.4 0 0 -14.17c0,-2.55 -0.87,-3.83 -2.61,-3.83 -1.06,0 -1.85,0.37 -2.38,1.11 -0.55,0.74 -0.81,1.81 -0.81,3.19l0 13.7 -10.4 0 0 -25 10.4 0 0 3.95 0.1 0c0.39,-0.7 1.01,-1.41 1.86,-2.12 0.85,-0.73 1.82,-1.31 2.9,-1.76 1.06,-0.44 2.23,-0.67 3.48,-0.67 1.77,0 3.27,0.35 4.48,1.05 1.21,0.69 2.22,1.8 3.04,3.31 0.88,-1.4 2.05,-2.48 3.51,-3.23 1.47,-0.75 3.1,-1.13 4.9,-1.13 2.61,0 4.63,0.85 6.03,2.56 1.4,1.71 2.1,4.17 2.1,7.4l0 15.64 -10.4 0z"/>
  <path id="3" class="fil10" d="M2049.36 439.91c0,4.22 -1.28,7.52 -3.82,9.93 -2.55,2.41 -6.11,3.61 -10.68,3.61 -4.54,0 -8.08,-1.17 -10.61,-3.52 -2.53,-2.35 -3.79,-5.6 -3.79,-9.73 0,-2.65 0.59,-4.95 1.78,-6.9 1.18,-1.95 2.88,-3.45 5.08,-4.49 2.2,-1.04 4.72,-1.56 7.59,-1.56 2.96,0 5.52,0.54 7.7,1.63 2.17,1.1 3.84,2.6 5.01,4.55 1.16,1.93 1.74,4.09 1.74,6.48zm-10.55 0.05c0,-3.41 -1.3,-5.11 -3.9,-5.11 -2.6,0 -3.9,1.78 -3.9,5.35 0,3.77 1.31,5.65 3.95,5.65 2.57,0 3.85,-1.97 3.85,-5.89z"/>
  <path id="4" class="fil10" d="M2072.05 436.75c-0.39,-0.17 -0.91,-0.34 -1.58,-0.48 -0.68,-0.14 -1.23,-0.22 -1.67,-0.22 -3.43,0 -5.15,1.98 -5.15,5.96l0 10.84 -10.4 0 0 -25 10.4 0 0 4.4 0.1 0c0.64,-1.58 1.54,-2.79 2.71,-3.62 1.17,-0.82 2.54,-1.23 4.1,-1.23 0.58,0 1.07,0.1 1.49,0.29l0 9.06z"/>
  <path id="5" class="fil10" d="M2086.06 421.12c0,1.46 -0.53,2.65 -1.6,3.56 -1.07,0.91 -2.47,1.37 -4.21,1.37 -1.69,0 -3.08,-0.48 -4.16,-1.42 -1.08,-0.94 -1.62,-2.11 -1.62,-3.51 0,-1.44 0.52,-2.6 1.57,-3.49 1.05,-0.89 2.45,-1.33 4.21,-1.33 1.74,0 3.14,0.44 4.21,1.33 1.07,0.89 1.6,2.05 1.6,3.49zm-11.01 31.73l0 -25 10.4 0 0 25 -10.4 0z"/>
  <path id="6" class="fil10" d="M2104.31 452.85l0 -3.8 -0.1 0c-1.66,2.93 -4.19,4.4 -7.61,4.4 -2.35,0 -4.2,-0.7 -5.54,-2.1 -1.33,-1.4 -2,-3.27 -2,-5.61 0,-4.91 3.02,-7.76 9.05,-8.53l6.2 -0.81c0,-0.82 -0.36,-1.49 -1.1,-2.02 -0.72,-0.52 -1.71,-0.78 -2.95,-0.78 -2.79,0 -5.74,0.8 -8.85,2.4l0 -6.75c1.35,-0.58 3.04,-1.07 5.08,-1.44 2.03,-0.38 3.77,-0.56 5.22,-0.56 4.24,0 7.33,0.91 9.24,2.73 1.9,1.8 2.86,4.84 2.86,9.08l0 13.79 -9.5 0zm-6.15 -8.49c0,0.68 0.22,1.24 0.65,1.68 0.43,0.45 1.04,0.66 1.84,0.66 1.1,0 1.97,-0.41 2.65,-1.22 0.67,-0.81 1.01,-1.85 1.01,-3.13l0 -0.95 -3.52 0.49c-1.75,0.29 -2.63,1.11 -2.63,2.47z"/>
  <path id="7" class="fil10" d="M2161.96 429.39c0,2.39 -0.61,4.52 -1.82,6.38 -1.21,1.86 -2.94,3.29 -5.18,4.31 -2.24,1.01 -4.86,1.52 -7.84,1.52l-3.21 0 0 11.25 -10.55 0 0 -35 14.35 0c4.92,0 8.53,0.93 10.82,2.81 2.29,1.86 3.43,4.78 3.43,8.73zm-11.15 0.36c0,-1.43 -0.42,-2.52 -1.24,-3.25 -0.84,-0.73 -2.05,-1.1 -3.66,-1.1l-2 0 0 8.65 2.36 0c3.03,0 4.54,-1.43 4.54,-4.3z"/>
  <path id="8" class="fil10" d="M2184 436.75c-0.39,-0.17 -0.92,-0.34 -1.58,-0.48 -0.68,-0.14 -1.23,-0.22 -1.67,-0.22 -3.43,0 -5.15,1.98 -5.15,5.96l0 10.84 -10.4 0 0 -25 10.4 0 0 4.4 0.1 0c0.63,-1.58 1.53,-2.79 2.71,-3.62 1.17,-0.82 2.54,-1.23 4.1,-1.23 0.57,0 1.07,0.1 1.49,0.29l0 9.06z"/>
  <path id="9" class="fil10" d="M2198.01 421.12c0,1.46 -0.53,2.65 -1.6,3.56 -1.07,0.91 -2.47,1.37 -4.21,1.37 -1.69,0 -3.08,-0.48 -4.16,-1.42 -1.08,-0.94 -1.62,-2.11 -1.62,-3.51 0,-1.44 0.52,-2.6 1.57,-3.49 1.05,-0.89 2.45,-1.33 4.21,-1.33 1.74,0 3.14,0.44 4.21,1.33 1.07,0.89 1.6,2.05 1.6,3.49zm-11.01 31.73l0 -25 10.4 0 0 25 -10.4 0z"/>
  <path id="10" class="fil10" d="M2218.61 452.85l0 -13.65c0,-1.55 -0.23,-2.66 -0.69,-3.33 -0.47,-0.68 -1.22,-1.02 -2.26,-1.02 -0.89,0 -1.59,0.35 -2.09,1.05 -0.51,0.7 -0.76,1.6 -0.76,2.68l0 14.27 -10.4 0 0 -25 10.4 0 0 3.9 0.1 0c0.83,-1.42 1.94,-2.53 3.34,-3.32 1.4,-0.79 2.92,-1.18 4.56,-1.18 5.47,0 8.2,3.45 8.2,10.35l0 15.25 -10.4 0z"/>
  <path id="11" class="fil10" d="M2254.31 452.13c-0.66,0.4 -1.71,0.71 -3.15,0.96 -1.43,0.24 -3.08,0.36 -4.95,0.36 -2.64,0 -5,-0.53 -7.06,-1.6 -2.08,-1.07 -3.69,-2.56 -4.83,-4.47 -1.14,-1.92 -1.71,-4.08 -1.71,-6.47 0,-2.86 0.61,-5.31 1.82,-7.35 1.22,-2.04 2.94,-3.61 5.19,-4.69 2.24,-1.08 4.85,-1.62 7.81,-1.62 1.62,0 3.09,0.11 4.38,0.32 1.29,0.21 2.13,0.46 2.5,0.73l0 8.1c-0.51,-0.41 -1.26,-0.77 -2.24,-1.08 -0.97,-0.31 -1.88,-0.47 -2.71,-0.47 -2.03,0 -3.57,0.48 -4.62,1.46 -1.05,0.97 -1.58,2.33 -1.58,4.09 0,1.73 0.52,3.07 1.55,4.02 1.04,0.96 2.45,1.43 4.26,1.43 1.93,0 3.72,-0.47 5.34,-1.4l0 7.68z"/>
  <path id="12" class="fil10" d="M2269.48 421.12c0,1.46 -0.53,2.65 -1.6,3.56 -1.07,0.91 -2.47,1.37 -4.21,1.37 -1.69,0 -3.08,-0.48 -4.16,-1.42 -1.08,-0.94 -1.62,-2.11 -1.62,-3.51 0,-1.44 0.52,-2.6 1.57,-3.49 1.05,-0.89 2.45,-1.33 4.21,-1.33 1.74,0 3.14,0.44 4.21,1.33 1.07,0.89 1.6,2.05 1.6,3.49zm-11.01 31.73l0 -25 10.4 0 0 25 -10.4 0z"/>
  <path id="13" class="fil10" d="M2302.08 439.59c0,2.74 -0.46,5.15 -1.39,7.25 -0.92,2.09 -2.24,3.73 -3.93,4.88 -1.69,1.16 -3.59,1.73 -5.71,1.73 -2.94,0 -5.16,-1.06 -6.67,-3.2l-0.1 0 0 14.1 -10.4 0 0 -36.5 10.4 0 0 3.4 0.1 0c0.83,-1.25 1.9,-2.23 3.22,-2.94 1.32,-0.71 2.82,-1.06 4.5,-1.06 3.21,0 5.69,1.08 7.41,3.22 1.71,2.15 2.57,5.19 2.57,9.12zm-10.55 0.32c0,-1.58 -0.31,-2.82 -0.92,-3.72 -0.6,-0.89 -1.54,-1.34 -2.81,-1.34 -1.11,0 -2,0.48 -2.69,1.42 -0.68,0.95 -1.02,2.24 -1.02,3.89l0 0.48c0,1.59 0.29,2.84 0.87,3.79 0.59,0.95 1.47,1.42 2.64,1.42 1.26,0 2.22,-0.52 2.91,-1.55 0.68,-1.03 1.02,-2.5 1.02,-4.39z"/>
  <path id="14" class="fil10" d="M2319.84 452.85l0 -3.8 -0.1 0c-1.66,2.93 -4.19,4.4 -7.61,4.4 -2.36,0 -4.21,-0.7 -5.54,-2.1 -1.33,-1.4 -2,-3.27 -2,-5.61 0,-4.91 3.02,-7.76 9.05,-8.53l6.2 -0.81c0,-0.82 -0.37,-1.49 -1.1,-2.02 -0.72,-0.52 -1.71,-0.78 -2.95,-0.78 -2.79,0 -5.74,0.8 -8.85,2.4l0 -6.75c1.35,-0.58 3.04,-1.07 5.08,-1.44 2.03,-0.38 3.77,-0.56 5.22,-0.56 4.24,0 7.33,0.91 9.24,2.73 1.9,1.8 2.86,4.84 2.86,9.08l0 13.79 -9.5 0zm-6.15 -8.49c0,0.68 0.22,1.24 0.65,1.68 0.43,0.45 1.04,0.66 1.84,0.66 1.1,0 1.97,-0.41 2.64,-1.22 0.68,-0.81 1.02,-1.85 1.02,-3.13l0 -0.95 -3.52 0.49c-1.75,0.29 -2.63,1.11 -2.63,2.47z"/>
  <polygon id="15" class="fil10" points="2334.04,452.85 2334.04,415.85 2344.44,415.85 2344.44,452.85 "/>
  <path class="fil10" d="M1929.7 1657.23l0 -19.18c0,-1.81 0.06,-3.79 0.17,-5.96l0.07 -1.61 -0.29 0c-0.51,2.75 -0.91,4.65 -1.19,5.71l-5.16 21.04 -9.91 0 -5.39 -20.79c-0.15,-0.53 -0.53,-2.51 -1.15,-5.96l-0.29 0c0.23,5.47 0.34,8.88 0.34,10.25l0 16.5 -9.25 0 0 -35 15.79 0 4.81 19c0.12,0.39 0.27,1.18 0.46,2.38 0.18,1.2 0.3,2.12 0.35,2.77l0.15 0c0.18,-1.48 0.46,-3.22 0.85,-5.24l4.49 -18.91 15.55 0 0 35 -10.4 0z"/>
  <path id="1" class="fil10" d="M1955 1647.68c0.18,1.08 0.8,1.92 1.86,2.53 1.05,0.61 2.45,0.92 4.2,0.92 2.42,0 4.72,-0.47 6.89,-1.4l0 6.59c-2.53,1 -5.59,1.51 -9.19,1.51 -4.36,0 -7.75,-1.11 -10.17,-3.34 -2.43,-2.22 -3.64,-5.29 -3.64,-9.2 0,-2.68 0.53,-5.05 1.6,-7.1 1.06,-2.04 2.64,-3.65 4.73,-4.82 2.09,-1.16 4.39,-1.74 6.92,-1.74 2.58,0 4.8,0.5 6.64,1.51 1.83,1.01 3.23,2.42 4.18,4.25 0.95,1.82 1.43,3.95 1.43,6.39l0 3.9 -15.45 0zm6.25 -5.45c0,-2.87 -1.04,-4.3 -3.1,-4.3 -0.87,0 -1.59,0.39 -2.18,1.18 -0.58,0.79 -0.92,1.82 -1.02,3.12l6.3 0z"/>
  <path id="2" class="fil10" d="M2006.45 1657.23l0 -14.41c0,-1.21 -0.22,-2.11 -0.64,-2.7 -0.44,-0.59 -1.14,-0.89 -2.11,-0.89 -0.96,0 -1.71,0.36 -2.24,1.08 -0.54,0.73 -0.81,1.74 -0.81,3.02l0 13.9 -10.4 0 0 -14.16c0,-2.56 -0.87,-3.84 -2.61,-3.84 -1.06,0 -1.85,0.37 -2.38,1.11 -0.55,0.74 -0.81,1.81 -0.81,3.19l0 13.7 -10.4 0 0 -25 10.4 0 0 3.95 0.1 0c0.39,-0.7 1.01,-1.41 1.86,-2.12 0.85,-0.73 1.82,-1.31 2.9,-1.76 1.06,-0.44 2.23,-0.67 3.48,-0.67 1.77,0 3.27,0.35 4.48,1.05 1.21,0.69 2.22,1.8 3.04,3.31 0.88,-1.4 2.05,-2.48 3.51,-3.23 1.47,-0.75 3.1,-1.13 4.9,-1.13 2.61,0 4.63,0.85 6.03,2.56 1.4,1.71 2.1,4.17 2.1,7.4l0 15.64 -10.4 0z"/>
  <path id="3" class="fil10" d="M2049.36 1644.29c0,4.22 -1.28,7.53 -3.82,9.93 -2.55,2.41 -6.11,3.61 -10.68,3.61 -4.54,0 -8.08,-1.17 -10.61,-3.52 -2.53,-2.35 -3.79,-5.6 -3.79,-9.73 0,-2.65 0.59,-4.95 1.78,-6.9 1.18,-1.95 2.88,-3.45 5.08,-4.49 2.2,-1.04 4.72,-1.56 7.59,-1.56 2.96,0 5.52,0.54 7.7,1.63 2.17,1.1 3.84,2.6 5.01,4.55 1.16,1.93 1.74,4.09 1.74,6.48zm-10.55 0.05c0,-3.41 -1.3,-5.11 -3.9,-5.11 -2.6,0 -3.9,1.78 -3.9,5.35 0,3.77 1.31,5.65 3.95,5.65 2.57,0 3.85,-1.97 3.85,-5.89z"/>
  <path id="4" class="fil10" d="M2072.05 1641.13c-0.39,-0.17 -0.91,-0.34 -1.58,-0.48 -0.68,-0.14 -1.23,-0.22 -1.67,-0.22 -3.43,0 -5.15,1.98 -5.15,5.96l0 10.84 -10.4 0 0 -25 10.4 0 0 4.4 0.1 0c0.64,-1.58 1.54,-2.79 2.71,-3.62 1.17,-0.82 2.54,-1.23 4.1,-1.23 0.58,0 1.07,0.1 1.49,0.29l0 9.06z"/>
  <path id="5" class="fil10" d="M2086.06 1625.5c0,1.46 -0.53,2.65 -1.6,3.56 -1.07,0.91 -2.47,1.37 -4.21,1.37 -1.69,0 -3.08,-0.47 -4.16,-1.42 -1.08,-0.94 -1.62,-2.11 -1.62,-3.51 0,-1.44 0.52,-2.6 1.57,-3.49 1.05,-0.89 2.45,-1.33 4.21,-1.33 1.74,0 3.14,0.44 4.21,1.33 1.07,0.89 1.6,2.05 1.6,3.49zm-11.01 31.73l0 -25 10.4 0 0 25 -10.4 0z"/>
  <path id="6" class="fil10" d="M2104.31 1657.23l0 -3.8 -0.1 0c-1.66,2.94 -4.19,4.4 -7.61,4.4 -2.35,0 -4.2,-0.7 -5.54,-2.1 -1.33,-1.4 -2,-3.27 -2,-5.61 0,-4.91 3.02,-7.76 9.05,-8.53l6.2 -0.81c0,-0.82 -0.36,-1.49 -1.1,-2.02 -0.72,-0.52 -1.71,-0.78 -2.95,-0.78 -2.79,0 -5.74,0.8 -8.85,2.4l0 -6.75c1.35,-0.58 3.04,-1.07 5.08,-1.44 2.03,-0.38 3.77,-0.56 5.22,-0.56 4.24,0 7.33,0.91 9.24,2.73 1.9,1.8 2.86,4.84 2.86,9.08l0 13.79 -9.5 0zm-6.15 -8.49c0,0.68 0.22,1.24 0.65,1.68 0.43,0.45 1.04,0.66 1.84,0.66 1.1,0 1.97,-0.41 2.65,-1.22 0.67,-0.81 1.01,-1.85 1.01,-3.13l0 -0.95 -3.52 0.49c-1.75,0.29 -2.63,1.11 -2.63,2.47z"/>
  <path id="7" class="fil10" d="M2157.66 1646.63c0,2.33 -0.63,4.35 -1.87,6.08 -1.24,1.72 -2.99,3.01 -5.23,3.86 -2.24,0.84 -4.94,1.26 -8.1,1.26 -3.66,0 -7.01,-0.61 -10.05,-1.86l0 -9.59c1.46,1.08 3.08,1.95 4.85,2.61 1.78,0.66 3.43,0.99 4.96,0.99 1.15,0 2.05,-0.21 2.69,-0.62 0.63,-0.42 0.95,-1.02 0.95,-1.82 0,-0.57 -0.16,-1.08 -0.48,-1.5 -0.31,-0.43 -0.8,-0.83 -1.44,-1.21 -0.64,-0.37 -1.83,-0.89 -3.58,-1.54 -5.64,-2.17 -8.45,-5.67 -8.45,-10.5 0,-3.38 1.28,-6.09 3.85,-8.12 2.57,-2.02 6.02,-3.04 10.36,-3.04 1.21,0 2.34,0.05 3.36,0.15 1.03,0.09 1.96,0.22 2.8,0.36 0.84,0.15 2.01,0.42 3.53,0.83l0 8.91c-2.95,-1.6 -5.84,-2.4 -8.69,-2.4 -1.18,0 -2.12,0.22 -2.84,0.66 -0.71,0.44 -1.07,1.04 -1.07,1.81 0,0.72 0.29,1.33 0.86,1.81 0.58,0.48 1.79,1.1 3.63,1.87 3.62,1.46 6.19,3.07 7.7,4.81 1.51,1.73 2.26,3.8 2.26,6.19z"/>
  <path id="8" class="fil10" d="M2169.95 1647.68c0.18,1.08 0.8,1.92 1.86,2.53 1.06,0.61 2.46,0.92 4.2,0.92 2.42,0 4.72,-0.47 6.89,-1.4l0 6.59c-2.52,1 -5.58,1.51 -9.18,1.51 -4.36,0 -7.75,-1.11 -10.18,-3.34 -2.42,-2.22 -3.64,-5.29 -3.64,-9.2 0,-2.68 0.53,-5.05 1.6,-7.1 1.07,-2.04 2.64,-3.65 4.73,-4.82 2.09,-1.16 4.39,-1.74 6.92,-1.74 2.58,0 4.8,0.5 6.64,1.51 1.84,1.01 3.23,2.42 4.19,4.25 0.95,1.82 1.42,3.95 1.42,6.39l0 3.9 -15.45 0zm6.25 -5.45c0,-2.87 -1.03,-4.3 -3.1,-4.3 -0.87,0 -1.58,0.39 -2.18,1.18 -0.58,0.79 -0.92,1.82 -1.02,3.12l6.3 0z"/>
  <path id="9" class="fil10" d="M2209.6 1656.52c-0.67,0.39 -1.72,0.7 -3.15,0.95 -1.43,0.24 -3.08,0.36 -4.95,0.36 -2.64,0 -5,-0.53 -7.07,-1.6 -2.07,-1.06 -3.68,-2.56 -4.82,-4.47 -1.14,-1.92 -1.71,-4.08 -1.71,-6.47 0,-2.86 0.61,-5.31 1.82,-7.35 1.21,-2.04 2.94,-3.61 5.19,-4.68 2.24,-1.09 4.85,-1.63 7.81,-1.63 1.62,0 3.09,0.11 4.38,0.32 1.29,0.21 2.13,0.46 2.5,0.73l0 8.1c-0.52,-0.41 -1.27,-0.77 -2.24,-1.08 -0.98,-0.31 -1.88,-0.47 -2.71,-0.47 -2.03,0 -3.57,0.48 -4.62,1.46 -1.05,0.97 -1.58,2.33 -1.58,4.09 0,1.73 0.52,3.07 1.55,4.02 1.03,0.96 2.45,1.43 4.26,1.43 1.93,0 3.72,-0.47 5.34,-1.4l0 7.69z"/>
  <path id="10" class="fil10" d="M2229.66 1657.23l0 -3.85 -0.1 0c-0.86,1.18 -1.63,2.05 -2.32,2.6 -0.7,0.55 -1.48,1 -2.35,1.34 -0.87,0.35 -1.88,0.51 -3.04,0.51 -2.73,0 -4.82,-0.88 -6.24,-2.66 -1.43,-1.77 -2.15,-4.39 -2.15,-7.86l0 -15.08 10.4 0 0 14.31c0,2.46 0.92,3.69 2.75,3.69 1.01,0 1.77,-0.33 2.28,-1 0.51,-0.67 0.77,-1.62 0.77,-2.83l0 -14.17 10.4 0 0 25 -10.4 0z"/>
  <path id="11" class="fil10" d="M2261.26 1657.23l0 -13.65c0,-1.55 -0.23,-2.66 -0.69,-3.33 -0.47,-0.68 -1.22,-1.02 -2.26,-1.02 -0.89,0 -1.59,0.35 -2.09,1.05 -0.51,0.7 -0.76,1.6 -0.76,2.68l0 14.27 -10.4 0 0 -25 10.4 0 0 3.9 0.1 0c0.83,-1.42 1.94,-2.53 3.34,-3.32 1.4,-0.79 2.92,-1.18 4.56,-1.18 5.47,0 8.2,3.45 8.2,10.35l0 15.25 -10.4 0z"/>
  <path id="12" class="fil10" d="M2293.06 1657.23l0 -2.9 -0.1 0c-0.82,1.09 -1.91,1.94 -3.24,2.57 -1.34,0.62 -2.66,0.93 -3.96,0.93 -2.13,0 -4.01,-0.52 -5.64,-1.57 -1.62,-1.05 -2.84,-2.52 -3.65,-4.4 -0.81,-1.89 -1.21,-4.12 -1.21,-6.69 0,-2.65 0.49,-5 1.44,-7.05 0.96,-2.05 2.31,-3.64 4.05,-4.78 1.75,-1.14 3.71,-1.71 5.86,-1.71 1.04,0 1.98,0.15 2.85,0.44 0.87,0.29 1.63,0.69 2.27,1.19 0.64,0.49 1.06,0.98 1.23,1.47l0.1 0 0 -14.5 10.4 0 0 37 -10.4 0zm0.22 -13.26c0,-1.5 -0.33,-2.66 -0.98,-3.49 -0.66,-0.83 -1.55,-1.25 -2.68,-1.25 -1.12,0 -2.04,0.52 -2.75,1.55 -0.71,1.03 -1.06,2.42 -1.06,4.14 0,3.55 1.22,5.31 3.66,5.31 1.16,0 2.09,-0.47 2.78,-1.43 0.69,-0.95 1.03,-2.34 1.03,-4.17l0 -0.66z"/>
  <path id="13" class="fil10" d="M2322.32 1657.23l0 -3.8 -0.1 0c-1.66,2.94 -4.19,4.4 -7.6,4.4 -2.36,0 -4.21,-0.7 -5.55,-2.1 -1.33,-1.4 -2,-3.27 -2,-5.61 0,-4.91 3.02,-7.76 9.05,-8.53l6.2 -0.81c0,-0.82 -0.36,-1.49 -1.1,-2.02 -0.72,-0.52 -1.71,-0.78 -2.95,-0.78 -2.79,0 -5.74,0.8 -8.85,2.4l0 -6.75c1.35,-0.58 3.04,-1.07 5.08,-1.44 2.03,-0.38 3.77,-0.56 5.22,-0.56 4.25,0 7.33,0.91 9.24,2.73 1.91,1.8 2.86,4.84 2.86,9.08l0 13.79 -9.5 0zm-6.15 -8.49c0,0.68 0.22,1.24 0.65,1.68 0.43,0.45 1.04,0.66 1.85,0.66 1.09,0 1.96,-0.41 2.64,-1.22 0.67,-0.81 1.01,-1.85 1.01,-3.13l0 -0.95 -3.51 0.49c-1.76,0.29 -2.64,1.11 -2.64,2.47z"/>
  <path id="14" class="fil10" d="M2355.33 1641.13c-0.4,-0.17 -0.92,-0.34 -1.59,-0.48 -0.67,-0.14 -1.22,-0.22 -1.66,-0.22 -3.44,0 -5.15,1.98 -5.15,5.96l0 10.84 -10.41 0 0 -25 10.41 0 0 4.4 0.1 0c0.63,-1.58 1.53,-2.79 2.7,-3.62 1.18,-0.82 2.55,-1.23 4.1,-1.23 0.58,0 1.07,0.1 1.5,0.29l0 9.06z"/>
  <path id="15" class="fil10" d="M2369.33 1625.5c0,1.46 -0.53,2.65 -1.6,3.56 -1.06,0.91 -2.46,1.37 -4.2,1.37 -1.7,0 -3.09,-0.47 -4.16,-1.42 -1.09,-0.94 -1.63,-2.11 -1.63,-3.51 0,-1.44 0.53,-2.6 1.58,-3.49 1.05,-0.89 2.45,-1.33 4.21,-1.33 1.74,0 3.14,0.44 4.2,1.33 1.07,0.89 1.6,2.05 1.6,3.49zm-11 31.73l0 -25 10.4 0 0 25 -10.4 0z"/>
  <path id="16" class="fil10" d="M2387.59 1657.23l0 -3.8 -0.1 0c-1.66,2.94 -4.2,4.4 -7.61,4.4 -2.36,0 -4.21,-0.7 -5.54,-2.1 -1.34,-1.4 -2.01,-3.27 -2.01,-5.61 0,-4.91 3.02,-7.76 9.06,-8.53l6.2 -0.81c0,-0.82 -0.37,-1.49 -1.1,-2.02 -0.73,-0.52 -1.71,-0.78 -2.95,-0.78 -2.8,0 -5.75,0.8 -8.85,2.4l0 -6.75c1.35,-0.58 3.04,-1.07 5.07,-1.44 2.03,-0.38 3.78,-0.56 5.23,-0.56 4.24,0 7.32,0.91 9.23,2.73 1.91,1.8 2.87,4.84 2.87,9.08l0 13.79 -9.5 0zm-6.15 -8.49c0,0.68 0.21,1.24 0.65,1.68 0.42,0.45 1.04,0.66 1.84,0.66 1.09,0 1.96,-0.41 2.64,-1.22 0.67,-0.81 1.02,-1.85 1.02,-3.13l0 -0.95 -3.52 0.49c-1.76,0.29 -2.63,1.11 -2.63,2.47z"/>
 </g>
</svg>
