<?xml version="1.0" encoding="UTF-8"?>
<!DOCTYPE svg PUBLIC "-//W3C//DTD SVG 1.1//EN" "http://www.w3.org/Graphics/SVG/1.1/DTD/svg11.dtd">
<!-- Creator: CorelDRAW 2020 (64-Bit) -->
<svg xmlns="http://www.w3.org/2000/svg" xml:space="preserve" width="3800px" height="2200px" version="1.1" style="shape-rendering:geometricPrecision; text-rendering:geometricPrecision; image-rendering:optimizeQuality; fill-rule:evenodd; clip-rule:evenodd"
viewBox="0 0 3800 2200"
 xmlns:xlink="http://www.w3.org/1999/xlink"
 xmlns:xodm="http://www.corel.com/coreldraw/odm/2003">
 <defs>
  <style type="text/css">
   <![CDATA[
    .str4 {stroke:#0070D2;stroke-width:10;stroke-miterlimit:22.9256}
    .str1 {stroke:#02B948;stroke-width:3;stroke-miterlimit:22.9256}
    .str3 {stroke:#F00000;stroke-width:3;stroke-miterlimit:22.9256}
    .str2 {stroke:#F06600;stroke-width:3;stroke-miterlimit:22.9256}
    .str0 {stroke:#FFC8D8;stroke-width:3;stroke-miterlimit:22.9256;stroke-dasharray:30.000000 15.000000}
    .fil0 {fill:none}
    .fil12 {fill:#0070C0}
    .fil6 {fill:#00C85F}
    .fil8 {fill:red}
    .fil7 {fill:#FF6600}
    .fil10 {fill:blue;fill-rule:nonzero}
    .fil5 {fill:#666666;fill-rule:nonzero}
    .fil4 {fill:#B3B3B3;fill-rule:nonzero}
    .fil3 {fill:#B3B3B3;fill-rule:nonzero}
    .fil11 {fill:red;fill-rule:nonzero}
    .fil13 {fill:#FFC8D8;fill-rule:nonzero}
    .fil9 {fill:white;fill-rule:nonzero}
    .fil2 {fill:#C8B4F0;fill-opacity:0.050980}
    .fil1 {fill:#C8B4F0;fill-opacity:0.101961}
   ]]>
  </style>
 </defs>
 <g id="Capa_x0020_1">
  <metadata id="CorelCorpID_0Corel-Layer"/>
  <rect class="fil0" width="3800" height="2200"/>
  <g>
   <path class="fil1" d="M970 1515.35l1860 0c38.5,0 70,31.5 70,70l0 405c0,38.5 -31.5,70 -70,70l-1860 0c-38.5,0 -70,-31.5 -70,-70l0 -405c0,-38.5 31.5,-70 70,-70z"/>
   <path id="1" class="fil0 str0" d="M970 1515.35l1860 0c38.5,0 70,31.5 70,70l0 405c0,38.5 -31.5,70 -70,70l-1860 0c-38.5,0 -70,-31.5 -70,-70l0 -405c0,-38.5 31.5,-70 70,-70z"/>
  </g>
  <g>
   <path class="fil2" d="M970 313.57l1860 0c38.5,0 70,31.5 70,70l0 915.53c0,38.5 -31.5,69.99 -70,69.99l-1860 0c-38.5,0 -70,-31.49 -70,-69.99l0 -915.53c0,-38.5 31.5,-70 70,-70z"/>
   <path id="1" class="fil0 str0" d="M970 313.57l1860 0c38.5,0 70,31.5 70,70l0 915.53c0,38.5 -31.5,69.99 -70,69.99l-1860 0c-38.5,0 -70,-31.49 -70,-69.99l0 -915.53c0,-38.5 31.5,-70 70,-70z"/>
  </g>
  <g>
   <path class="fil3" d="M1162.61 891.8l-30.01 -70.01 0 0 1.88 0.91 1.87 0.85 1.88 0.79 1.87 0.73 1.88 0.67 1.87 0.62 1.88 0.56 1.87 0.49 1.88 0.44 1.87 0.38 1.88 0.33 1.88 0.26 1.87 0.21 1.88 0.14 1.87 0.09 1.88 0.03 1.87 -0.03 1.88 -0.09 1.87 -0.14 1.88 -0.21 1.87 -0.26 1.88 -0.33 1.87 -0.38 1.88 -0.44 1.88 -0.49 1.87 -0.56 1.88 -0.62 1.87 -0.67 1.88 -0.73 1.87 -0.79 1.88 -0.85 1.87 -0.91 -30 70.01zm5 -660.42l0 625.23 -10 0 0 -625.23 10 0z"/>
  </g>
  <g>
   <path class="fil3" d="M1790.21 191.35l30 70.01 0 0 -1.87 -0.91 -1.88 -0.85 -1.87 -0.79 -1.88 -0.73 -1.87 -0.68 -1.88 -0.61 -1.87 -0.56 -1.88 -0.5 -1.87 -0.43 -1.88 -0.39 -1.87 -0.32 -1.88 -0.26 -1.88 -0.21 -1.87 -0.14 -1.88 -0.09 -1.87 -0.03 -1.88 0.03 -1.87 0.09 -1.88 0.14 -1.87 0.21 -1.88 0.26 -1.87 0.32 -1.88 0.39 -1.87 0.43 -1.88 0.5 -1.88 0.56 -1.87 0.61 -1.88 0.68 -1.87 0.73 -1.88 0.79 -1.87 0.85 -1.88 0.91 30.01 -70.01zm-5 244.45l0 -209.27 10 0 0 209.27 -10 0z"/>
  </g>
  <g>
   <path class="fil4" d="M2272.22 966.06l-74.27 -16.88 0 0 1.83 -0.98 1.8 -1.02 1.74 -1.05 1.69 -1.09 1.65 -1.12 1.6 -1.15 1.55 -1.19 1.51 -1.23 1.46 -1.26 1.41 -1.29 1.36 -1.33 1.32 -1.36 1.26 -1.4 1.22 -1.43 1.18 -1.46 1.12 -1.5 1.08 -1.54 1.03 -1.57 0.99 -1.6 0.94 -1.64 0.88 -1.67 0.85 -1.71 0.79 -1.74 0.75 -1.77 0.7 -1.81 0.65 -1.85 0.6 -1.88 0.56 -1.91 0.51 -1.95 0.46 -1.98 0.42 -2.01 0.36 -2.06 39 65.43zm-333.45 -248.49l307.93 223.76 -5.88 8.1 -307.93 -223.77 5.88 -8.09z"/>
  </g>
  <g>
   <path class="fil5" d="M1342.61 1071.88l70.01 -30 0 0 -0.91 1.88 -0.85 1.87 -0.79 1.88 -0.73 1.87 -0.68 1.88 -0.61 1.87 -0.56 1.88 -0.5 1.87 -0.44 1.88 -0.38 1.87 -0.32 1.88 -0.26 1.87 -0.21 1.88 -0.15 1.87 -0.08 1.88 -0.03 1.87 0.03 1.88 0.08 1.87 0.15 1.88 0.21 1.88 0.26 1.87 0.32 1.88 0.38 1.87 0.44 1.88 0.5 1.87 0.56 1.88 0.61 1.87 0.68 1.88 0.73 1.87 0.79 1.88 0.85 1.87 0.91 1.88 -70.01 -30.01zm895.2 5.01l-860.02 0 0 -10.01 860.02 0 0 10.01z"/>
  </g>
  <circle class="fil6 str1" cx="1790.21" cy="615.79" r="180"/>
  <circle class="fil7 str2" cx="1162.61" cy="1071.8" r="180"/>
  <circle class="fil8 str3" cx="2417.81" cy="1071.88" r="180"/>
  <path class="fil9" d="M1669.82 632.34c-2.9,1.04 -6.24,1.55 -10.03,1.55 -3.73,0 -6.95,-0.7 -9.65,-2.13 -2.7,-1.42 -4.76,-3.45 -6.19,-6.08 -1.42,-2.63 -2.13,-5.66 -2.13,-9.09 0,-3.7 0.8,-6.99 2.39,-9.86 1.59,-2.89 3.85,-5.11 6.77,-6.68 2.9,-1.57 6.26,-2.36 10.05,-2.36 3.03,0 5.96,0.37 8.79,1.1l0 9.75c-0.98,-0.58 -2.14,-1.04 -3.49,-1.36 -1.35,-0.33 -2.72,-0.49 -4.1,-0.49 -2.87,0 -5.13,0.83 -6.79,2.47 -1.65,1.64 -2.47,3.87 -2.47,6.68 0,2.8 0.82,5.01 2.47,6.63 1.66,1.62 3.87,2.42 6.64,2.42 2.55,0 5.13,-0.65 7.74,-1.95l0 9.4z"/>
  <path id="1" class="fil9" d="M1708.56 615.69c0,3.51 -0.76,6.65 -2.27,9.43 -1.51,2.77 -3.63,4.93 -6.35,6.47 -2.71,1.54 -5.76,2.3 -9.13,2.3 -3.28,0 -6.27,-0.74 -8.97,-2.23 -2.69,-1.49 -4.79,-3.58 -6.29,-6.27 -1.49,-2.7 -2.24,-5.75 -2.24,-9.15 0,-3.56 0.76,-6.76 2.27,-9.61 1.51,-2.85 3.64,-5.05 6.37,-6.6 2.74,-1.56 5.84,-2.34 9.33,-2.34 3.35,0 6.35,0.75 8.99,2.24 2.65,1.49 4.69,3.61 6.13,6.37 1.44,2.76 2.16,5.89 2.16,9.39zm-11.2 0.3c0,-2.88 -0.55,-5.15 -1.66,-6.8 -1.11,-1.66 -2.61,-2.5 -4.53,-2.5 -2.1,0 -3.74,0.8 -4.9,2.4 -1.18,1.59 -1.76,3.84 -1.76,6.75 0,2.85 0.58,5.07 1.74,6.66 1.17,1.59 2.74,2.39 4.74,2.39 1.23,0 2.32,-0.35 3.3,-1.07 0.97,-0.72 1.73,-1.74 2.26,-3.08 0.54,-1.33 0.81,-2.91 0.81,-4.75z"/>
  <path id="2" class="fil9" d="M1731.68 633.29l-2.61 -7.54c-0.5,-1.48 -1.16,-2.64 -1.96,-3.49 -0.81,-0.84 -1.68,-1.27 -2.63,-1.27l-0.41 0 0 12.3 -10.55 0 0 -35 14 0c4.9,0 8.51,0.8 10.85,2.41 2.33,1.6 3.5,4 3.5,7.21 0,2.41 -0.68,4.43 -2.04,6.05 -1.35,1.63 -3.38,2.81 -6.06,3.54l0 0.1c1.48,0.45 2.71,1.19 3.7,2.22 0.99,1.02 1.87,2.55 2.65,4.57l3.45 8.9 -11.89 0zm-1.01 -23.89c0,-1.17 -0.36,-2.1 -1.08,-2.78 -0.71,-0.68 -1.83,-1.03 -3.35,-1.03l-2.17 0 0 8 1.9 0c1.41,0 2.55,-0.4 3.41,-1.19 0.85,-0.8 1.29,-1.8 1.29,-3z"/>
  <path id="3" class="fil9" d="M1765.79 633.29l-2.61 -7.54c-0.5,-1.48 -1.16,-2.64 -1.96,-3.49 -0.81,-0.84 -1.69,-1.27 -2.63,-1.27l-0.41 0 0 12.3 -10.55 0 0 -35 14 0c4.9,0 8.51,0.8 10.85,2.41 2.33,1.6 3.5,4 3.5,7.21 0,2.41 -0.68,4.43 -2.04,6.05 -1.36,1.63 -3.38,2.81 -6.06,3.54l0 0.1c1.48,0.45 2.71,1.19 3.7,2.22 0.99,1.02 1.87,2.55 2.65,4.57l3.45 8.9 -11.89 0zm-1.01 -23.89c0,-1.17 -0.36,-2.1 -1.08,-2.78 -0.71,-0.68 -1.83,-1.03 -3.36,-1.03l-2.16 0 0 8 1.9 0c1.41,0 2.55,-0.4 3.4,-1.19 0.86,-0.8 1.3,-1.8 1.3,-3z"/>
  <polygon id="4" class="fil9" points="1781.73,633.29 1781.73,598.29 1792.28,598.29 1792.28,633.29 "/>
  <polygon id="5" class="fil9" points="1799.17,633.29 1799.17,598.29 1820.96,598.29 1820.96,606.54 1809.72,606.54 1809.72,611.64 1820.27,611.64 1820.27,619.89 1809.72,619.89 1809.72,625.04 1821.77,625.04 1821.77,633.29 "/>
  <path id="6" class="fil9" d="M1851.21 633.29l-12.36 -16.89c-0.97,-1.33 -1.77,-2.53 -2.39,-3.61l-0.1 0c0.1,1.73 0.15,3.66 0.15,5.81l0 14.69 -9.75 0 0 -35 9.96 0 11.85 16.06c0.14,0.21 0.32,0.46 0.53,0.76 0.21,0.29 0.43,0.59 0.63,0.9 0.22,0.31 0.42,0.61 0.6,0.9 0.19,0.29 0.34,0.56 0.43,0.78l0.1 0c-0.1,-0.71 -0.15,-1.95 -0.15,-3.7l0 -15.7 9.75 0 0 35 -9.25 0z"/>
  <path id="7" class="fil9" d="M1900.36 615.35c0,3.55 -0.74,6.69 -2.24,9.41 -1.49,2.73 -3.61,4.83 -6.38,6.31 -2.77,1.48 -5.96,2.22 -9.57,2.22l-14.81 0 0 -35 14.5 0c12.33,0 18.5,5.69 18.5,17.06zm-11.2 0.1c0,-1.71 -0.34,-3.25 -1.04,-4.61 -0.69,-1.37 -1.68,-2.42 -2.96,-3.17 -1.29,-0.75 -2.8,-1.13 -4.54,-1.13l-2.71 0 0 18.5 2.95 0c2.52,0 4.54,-0.86 6.04,-2.6 1.51,-1.73 2.26,-4.06 2.26,-6.99z"/>
  <path id="8" class="fil9" d="M1938.6 615.69c0,3.51 -0.76,6.65 -2.27,9.43 -1.51,2.77 -3.63,4.93 -6.35,6.47 -2.71,1.54 -5.76,2.3 -9.13,2.3 -3.28,0 -6.28,-0.74 -8.97,-2.23 -2.69,-1.49 -4.79,-3.58 -6.29,-6.27 -1.49,-2.7 -2.24,-5.75 -2.24,-9.15 0,-3.56 0.76,-6.76 2.27,-9.61 1.51,-2.85 3.64,-5.05 6.37,-6.6 2.73,-1.56 5.84,-2.34 9.33,-2.34 3.35,0 6.35,0.75 8.99,2.24 2.65,1.49 4.69,3.61 6.13,6.37 1.44,2.76 2.16,5.89 2.16,9.39zm-11.2 0.3c0,-2.88 -0.55,-5.15 -1.66,-6.8 -1.11,-1.66 -2.62,-2.5 -4.53,-2.5 -2.1,0 -3.74,0.8 -4.9,2.4 -1.18,1.59 -1.76,3.84 -1.76,6.75 0,2.85 0.58,5.07 1.74,6.66 1.17,1.59 2.74,2.39 4.74,2.39 1.23,0 2.32,-0.35 3.29,-1.07 0.98,-0.72 1.74,-1.74 2.27,-3.08 0.54,-1.33 0.81,-2.91 0.81,-4.75z"/>
  <polygon class="fil9" points="1093.52,1089.3 1093.52,1054.3 1104.07,1054.3 1104.07,1081.05 1116.12,1081.05 1116.12,1089.3 "/>
  <polygon id="1" class="fil9" points="1120.57,1089.3 1120.57,1054.3 1131.12,1054.3 1131.12,1089.3 "/>
  <path id="2" class="fil9" d="M1162.3 1078.7c0,2.32 -0.63,4.35 -1.87,6.07 -1.24,1.73 -2.99,3.01 -5.23,3.86 -2.24,0.84 -4.94,1.27 -8.1,1.27 -3.66,0 -7.01,-0.62 -10.05,-1.86l0 -9.59c1.47,1.07 3.08,1.95 4.86,2.61 1.77,0.65 3.42,0.99 4.96,0.99 1.15,0 2.05,-0.21 2.68,-0.63 0.63,-0.41 0.95,-1.01 0.95,-1.81 0,-0.57 -0.16,-1.08 -0.48,-1.5 -0.31,-0.44 -0.8,-0.84 -1.44,-1.21 -0.64,-0.38 -1.83,-0.89 -3.58,-1.54 -5.63,-2.17 -8.45,-5.67 -8.45,-10.5 0,-3.39 1.28,-6.09 3.86,-8.12 2.56,-2.02 6.01,-3.04 10.35,-3.04 1.21,0 2.34,0.05 3.36,0.15 1.03,0.09 1.96,0.22 2.8,0.36 0.84,0.15 2.01,0.42 3.53,0.83l0 8.91c-2.95,-1.6 -5.84,-2.4 -8.69,-2.4 -1.18,0 -2.12,0.22 -2.84,0.66 -0.71,0.44 -1.07,1.04 -1.07,1.81 0,0.72 0.29,1.33 0.87,1.81 0.57,0.48 1.78,1.1 3.62,1.87 3.63,1.46 6.19,3.07 7.7,4.81 1.51,1.73 2.26,3.8 2.26,6.19z"/>
  <polygon id="3" class="fil9" points="1184.29,1062.55 1184.29,1089.3 1173.69,1089.3 1173.69,1062.55 1163.89,1062.55 1163.89,1054.3 1194.19,1054.3 1194.19,1062.55 "/>
  <path id="4" class="fil9" d="M1231.7 1071.69c0,3.52 -0.76,6.66 -2.27,9.43 -1.51,2.78 -3.63,4.94 -6.35,6.47 -2.72,1.54 -5.76,2.31 -9.13,2.31 -3.28,0 -6.28,-0.74 -8.97,-2.23 -2.69,-1.5 -4.79,-3.59 -6.29,-6.28 -1.49,-2.69 -2.24,-5.74 -2.24,-9.14 0,-3.57 0.76,-6.77 2.26,-9.62 1.52,-2.85 3.65,-5.05 6.38,-6.6 2.73,-1.56 5.84,-2.33 9.33,-2.33 3.34,0 6.34,0.74 8.99,2.23 2.65,1.49 4.69,3.62 6.13,6.38 1.44,2.76 2.16,5.88 2.16,9.38zm-11.2 0.3c0,-2.87 -0.55,-5.14 -1.66,-6.8 -1.11,-1.66 -2.62,-2.49 -4.53,-2.49 -2.1,0 -3.74,0.8 -4.9,2.39 -1.18,1.59 -1.76,3.84 -1.76,6.76 0,2.84 0.58,5.07 1.74,6.66 1.17,1.59 2.74,2.39 4.74,2.39 1.23,0 2.32,-0.36 3.29,-1.08 0.98,-0.71 1.74,-1.74 2.27,-3.07 0.54,-1.33 0.81,-2.92 0.81,-4.76z"/>
  <path class="fil9" d="M2291.98 1076.59c0,3.44 -1.2,6.09 -3.61,7.95 -2.4,1.86 -5.85,2.79 -10.32,2.79l-15.97 0 0 -35 14.87 0c9.29,0 13.93,2.83 13.93,8.47 0,1.23 -0.29,2.34 -0.88,3.36 -0.58,1.02 -1.48,1.91 -2.68,2.67 -1.19,0.77 -2.51,1.29 -3.94,1.56l0 0.1c1.66,0.19 3.15,0.69 4.48,1.48 1.31,0.79 2.33,1.77 3.05,2.95 0.71,1.18 1.07,2.41 1.07,3.67zm-12.3 -13.96c0,-2.16 -1.7,-3.25 -5.1,-3.25l-1.95 0 0 6.6 3.05 0c1.17,0 2.14,-0.31 2.88,-0.94 0.75,-0.62 1.12,-1.42 1.12,-2.41zm1.1 13.92c0,-1.01 -0.36,-1.84 -1.1,-2.49 -0.73,-0.65 -1.7,-0.98 -2.9,-0.98l-4.15 0 0 7.15 3.52 0c1.42,0 2.56,-0.33 3.39,-0.99 0.83,-0.66 1.24,-1.56 1.24,-2.69z"/>
  <polygon id="1" class="fil9" points="2296.63,1087.33 2296.63,1052.33 2307.18,1052.33 2307.18,1079.08 2319.23,1079.08 2319.23,1087.33 "/>
  <path id="2" class="fil9" d="M2356.98 1069.73c0,3.51 -0.76,6.65 -2.27,9.43 -1.51,2.77 -3.63,4.93 -6.35,6.47 -2.71,1.54 -5.75,2.3 -9.13,2.3 -3.28,0 -6.27,-0.74 -8.97,-2.23 -2.69,-1.49 -4.79,-3.58 -6.29,-6.27 -1.49,-2.7 -2.24,-5.75 -2.24,-9.15 0,-3.56 0.76,-6.76 2.27,-9.61 1.51,-2.85 3.64,-5.05 6.37,-6.6 2.74,-1.56 5.84,-2.34 9.33,-2.34 3.35,0 6.35,0.75 8.99,2.24 2.65,1.49 4.69,3.61 6.13,6.37 1.44,2.76 2.16,5.89 2.16,9.39zm-11.2 0.3c0,-2.88 -0.55,-5.15 -1.66,-6.8 -1.11,-1.66 -2.61,-2.5 -4.53,-2.5 -2.1,0 -3.73,0.8 -4.9,2.4 -1.18,1.59 -1.76,3.84 -1.76,6.75 0,2.85 0.58,5.07 1.74,6.66 1.17,1.59 2.74,2.39 4.74,2.39 1.23,0 2.32,-0.35 3.3,-1.07 0.97,-0.72 1.73,-1.74 2.26,-3.08 0.54,-1.33 0.81,-2.91 0.81,-4.75z"/>
  <path id="3" class="fil9" d="M2395.24 1069.73c0,5.41 -1.75,9.87 -5.25,13.37l9.25 8.93 -13.23 0 -4.45 -4.5c-1.3,0.27 -2.65,0.4 -4.07,0.4 -3.28,0 -6.28,-0.74 -8.97,-2.23 -2.69,-1.49 -4.79,-3.58 -6.29,-6.27 -1.49,-2.7 -2.24,-5.75 -2.24,-9.15 0,-3.56 0.76,-6.76 2.27,-9.61 1.51,-2.85 3.64,-5.05 6.37,-6.6 2.73,-1.56 5.84,-2.34 9.33,-2.34 3.35,0 6.35,0.75 8.99,2.24 2.65,1.49 4.69,3.61 6.13,6.37 1.44,2.75 2.16,5.89 2.16,9.39zm-11.2 0.3c0,-2.88 -0.55,-5.15 -1.66,-6.8 -1.11,-1.66 -2.62,-2.5 -4.53,-2.5 -2.1,0 -3.74,0.8 -4.9,2.4 -1.18,1.59 -1.76,3.84 -1.76,6.75 0,2.85 0.58,5.07 1.74,6.66 1.17,1.59 2.74,2.39 4.74,2.39 1.91,0 3.44,-0.8 4.61,-2.41 1.18,-1.61 1.76,-3.78 1.76,-6.49z"/>
  <path id="4" class="fil9" d="M2430.7 1071.34c0,5.61 -1.29,9.79 -3.84,12.51 -2.57,2.73 -6.52,4.08 -11.85,4.08 -4.99,0 -8.76,-1.35 -11.35,-4.08 -2.57,-2.72 -3.86,-6.83 -3.86,-12.32l0 -19.2 10.6 0 0 19.6c0,2.25 0.41,3.97 1.26,5.19 0.84,1.21 2.04,1.81 3.6,1.81 1.58,0 2.78,-0.56 3.6,-1.7 0.83,-1.15 1.24,-2.83 1.24,-5.05l0 -19.85 10.6 0 0 19.01z"/>
  <polygon id="5" class="fil9" points="2437.21,1087.33 2437.21,1052.33 2459,1052.33 2459,1060.58 2447.76,1060.58 2447.76,1065.68 2458.31,1065.68 2458.31,1073.93 2447.76,1073.93 2447.76,1079.08 2459.8,1079.08 2459.8,1087.33 "/>
  <path id="6" class="fil9" d="M2486.75 1087.33l-1.54 -6.45 -10.46 0 -1.65 6.45 -11.4 0 12.06 -35 13.09 0 11.35 35 -11.45 0zm-6.66 -27.39l-0.24 0c-0.04,0.39 -0.15,1.03 -0.34,1.92 -0.2,0.9 -1.19,4.74 -2.96,11.52l6.7 0 -2.44 -9.51c-0.35,-1.4 -0.59,-2.72 -0.72,-3.93z"/>
  <path id="7" class="fil9" d="M2535.3 1069.39c0,3.55 -0.74,6.69 -2.24,9.41 -1.49,2.73 -3.61,4.83 -6.38,6.31 -2.77,1.48 -5.96,2.22 -9.57,2.22l-14.81 0 0 -35 14.5 0c12.33,0 18.5,5.69 18.5,17.06zm-11.2 0.1c0,-1.71 -0.34,-3.25 -1.04,-4.61 -0.69,-1.37 -1.68,-2.42 -2.96,-3.17 -1.29,-0.75 -2.8,-1.13 -4.55,-1.13l-2.7 0 0 18.5 2.95 0c2.52,0 4.54,-0.86 6.04,-2.6 1.51,-1.73 2.26,-4.06 2.26,-6.99z"/>
  <path id="8" class="fil9" d="M2573.54 1069.73c0,3.51 -0.76,6.65 -2.27,9.43 -1.51,2.77 -3.63,4.93 -6.35,6.47 -2.72,1.54 -5.76,2.3 -9.13,2.3 -3.28,0 -6.28,-0.74 -8.97,-2.23 -2.69,-1.49 -4.79,-3.58 -6.29,-6.27 -1.49,-2.7 -2.24,-5.75 -2.24,-9.15 0,-3.56 0.76,-6.76 2.27,-9.61 1.51,-2.85 3.64,-5.05 6.37,-6.6 2.73,-1.56 5.84,-2.34 9.33,-2.34 3.35,0 6.35,0.75 8.99,2.24 2.65,1.49 4.69,3.61 6.13,6.37 1.44,2.76 2.16,5.89 2.16,9.39zm-11.2 0.3c0,-2.88 -0.55,-5.15 -1.66,-6.8 -1.11,-1.66 -2.62,-2.5 -4.53,-2.5 -2.1,0 -3.74,0.8 -4.9,2.4 -1.18,1.59 -1.76,3.84 -1.76,6.75 0,2.85 0.58,5.07 1.74,6.66 1.17,1.59 2.74,2.39 4.74,2.39 1.23,0 2.32,-0.35 3.29,-1.07 0.98,-0.72 1.74,-1.74 2.27,-3.08 0.54,-1.33 0.81,-2.91 0.81,-4.75z"/>
  <polygon class="fil3" points="1698.78,149.9 1698.78,156.2 1709.18,156.2 1709.18,164.45 1698.78,164.45 1698.78,176.65 1688.23,176.65 1688.23,141.65 1710.18,141.65 1710.18,149.9 "/>
  <path id="1" class="fil3" d="M1725.33 144.92c0,1.46 -0.53,2.65 -1.6,3.56 -1.06,0.91 -2.46,1.37 -4.2,1.37 -1.7,0 -3.09,-0.47 -4.16,-1.42 -1.09,-0.94 -1.63,-2.11 -1.63,-3.51 0,-1.44 0.53,-2.6 1.58,-3.49 1.05,-0.89 2.45,-1.33 4.21,-1.33 1.74,0 3.14,0.44 4.2,1.33 1.07,0.89 1.6,2.05 1.6,3.49zm-11 31.73l0 -25 10.4 0 0 25 -10.4 0z"/>
  <path id="2" class="fil3" d="M1745.93 176.65l0 -13.65c0,-1.55 -0.23,-2.66 -0.69,-3.33 -0.46,-0.68 -1.21,-1.02 -2.26,-1.02 -0.89,0 -1.59,0.35 -2.09,1.05 -0.51,0.7 -0.76,1.6 -0.76,2.68l0 14.27 -10.4 0 0 -25 10.4 0 0 3.9 0.1 0c0.83,-1.42 1.95,-2.53 3.35,-3.32 1.4,-0.79 2.91,-1.18 4.55,-1.18 5.47,0 8.2,3.45 8.2,10.35l0 15.25 -10.4 0z"/>
  <path id="3" class="fil3" d="M1774.88 176.65l0 -3.8 -0.1 0c-1.66,2.93 -4.19,4.4 -7.6,4.4 -2.36,0 -4.21,-0.7 -5.55,-2.1 -1.33,-1.4 -2,-3.27 -2,-5.61 0,-4.91 3.02,-7.76 9.05,-8.53l6.2 -0.81c0,-0.82 -0.36,-1.49 -1.1,-2.02 -0.72,-0.52 -1.71,-0.78 -2.95,-0.78 -2.79,0 -5.74,0.8 -8.85,2.4l0 -6.75c1.35,-0.58 3.04,-1.07 5.08,-1.44 2.03,-0.38 3.77,-0.56 5.22,-0.56 4.25,0 7.33,0.91 9.24,2.73 1.91,1.8 2.86,4.84 2.86,9.08l0 13.79 -9.5 0zm-6.15 -8.49c0,0.68 0.22,1.24 0.65,1.68 0.43,0.44 1.04,0.66 1.85,0.66 1.09,0 1.96,-0.41 2.64,-1.22 0.67,-0.81 1.01,-1.85 1.01,-3.13l0 -0.95 -3.51 0.49c-1.76,0.29 -2.64,1.11 -2.64,2.47z"/>
  <polygon id="4" class="fil3" points="1789.08,176.65 1789.08,139.65 1799.48,139.65 1799.48,176.65 "/>
  <path id="5" class="fil3" d="M1815.5 144.92c0,1.46 -0.53,2.65 -1.6,3.56 -1.07,0.91 -2.47,1.37 -4.21,1.37 -1.69,0 -3.08,-0.47 -4.16,-1.42 -1.08,-0.94 -1.62,-2.11 -1.62,-3.51 0,-1.44 0.52,-2.6 1.57,-3.49 1.05,-0.89 2.45,-1.33 4.21,-1.33 1.74,0 3.14,0.44 4.21,1.33 1.07,0.89 1.6,2.05 1.6,3.49zm-11.01 31.73l0 -25 10.4 0 0 25 -10.4 0z"/>
  <polygon id="6" class="fil3" points="1831.65,169.45 1841.95,169.45 1841.95,176.65 1818,176.65 1818,171.84 1829.25,158.85 1819.05,158.85 1819.05,151.65 1841.73,151.65 1841.73,157.56 "/>
  <path id="7" class="fil3" d="M1859.19 176.65l0 -3.8 -0.1 0c-1.66,2.93 -4.19,4.4 -7.61,4.4 -2.35,0 -4.2,-0.7 -5.54,-2.1 -1.33,-1.4 -2,-3.27 -2,-5.61 0,-4.91 3.02,-7.76 9.05,-8.53l6.2 -0.81c0,-0.82 -0.37,-1.49 -1.1,-2.02 -0.72,-0.52 -1.71,-0.78 -2.95,-0.78 -2.79,0 -5.74,0.8 -8.85,2.4l0 -6.75c1.35,-0.58 3.04,-1.07 5.08,-1.44 2.03,-0.38 3.77,-0.56 5.22,-0.56 4.24,0 7.33,0.91 9.23,2.73 1.91,1.8 2.87,4.84 2.87,9.08l0 13.79 -9.5 0zm-6.15 -8.49c0,0.68 0.22,1.24 0.65,1.68 0.43,0.44 1.04,0.66 1.84,0.66 1.1,0 1.97,-0.41 2.64,-1.22 0.68,-0.81 1.02,-1.85 1.02,-3.13l0 -0.95 -3.52 0.49c-1.75,0.29 -2.63,1.11 -2.63,2.47z"/>
  <path id="8" class="fil3" d="M1892.19 160.55c-0.39,-0.17 -0.91,-0.34 -1.58,-0.48 -0.68,-0.14 -1.23,-0.22 -1.67,-0.22 -3.43,0 -5.15,1.98 -5.15,5.96l0 10.84 -10.4 0 0 -25 10.4 0 0 4.4 0.1 0c0.64,-1.58 1.54,-2.79 2.71,-3.62 1.17,-0.82 2.54,-1.23 4.1,-1.23 0.58,0 1.07,0.1 1.49,0.29l0 9.06z"/>
  <path class="fil10" d="M1277.57 770.23c-2.42,0.86 -5.2,1.29 -8.36,1.29 -3.1,0 -5.79,-0.59 -8.04,-1.77 -2.25,-1.19 -3.97,-2.88 -5.15,-5.07 -1.19,-2.19 -1.78,-4.72 -1.78,-7.58 0,-3.08 0.66,-5.82 1.99,-8.22 1.33,-2.4 3.21,-4.25 5.64,-5.56 2.42,-1.31 5.22,-1.96 8.37,-1.96 2.53,0 4.97,0.3 7.33,0.91l0 8.13c-0.81,-0.49 -1.78,-0.87 -2.91,-1.14 -1.12,-0.27 -2.26,-0.4 -3.41,-0.4 -2.39,0 -4.28,0.68 -5.66,2.05 -1.37,1.37 -2.06,3.22 -2.06,5.57 0,2.34 0.69,4.18 2.06,5.52 1.38,1.35 3.22,2.02 5.53,2.02 2.13,0 4.28,-0.54 6.45,-1.62l0 7.83z"/>
  <path id="1" class="fil10" d="M1304.48 760.24c0,3.51 -1.06,6.27 -3.18,8.28 -2.13,2 -5.09,3 -8.9,3 -3.79,0 -6.73,-0.98 -8.84,-2.93 -2.11,-1.96 -3.16,-4.66 -3.16,-8.11 0,-2.21 0.49,-4.12 1.48,-5.75 0.99,-1.62 2.4,-2.87 4.23,-3.74 1.84,-0.87 3.94,-1.3 6.33,-1.3 2.46,0 4.6,0.45 6.42,1.36 1.81,0.91 3.2,2.17 4.17,3.79 0.96,1.61 1.45,3.41 1.45,5.4zm-8.79 0.04c0,-2.84 -1.08,-4.26 -3.25,-4.26 -2.17,0 -3.25,1.49 -3.25,4.46 0,3.14 1.1,4.71 3.29,4.71 2.14,0 3.21,-1.64 3.21,-4.91z"/>
  <path id="2" class="fil10" d="M1323.39 757.61c-0.33,-0.15 -0.76,-0.29 -1.32,-0.41 -0.56,-0.11 -1.02,-0.18 -1.39,-0.18 -2.86,0 -4.29,1.66 -4.29,4.97l0 9.03 -8.67 0 0 -20.83 8.67 0 0 3.67 0.08 0c0.53,-1.32 1.28,-2.33 2.26,-3.02 0.98,-0.68 2.12,-1.03 3.42,-1.03 0.48,0 0.89,0.09 1.24,0.25l0 7.55z"/>
  <path id="3" class="fil10" d="M1341.56 757.61c-0.33,-0.15 -0.77,-0.29 -1.32,-0.41 -0.57,-0.11 -1.02,-0.18 -1.39,-0.18 -2.86,0 -4.29,1.66 -4.29,4.97l0 9.03 -8.67 0 0 -20.83 8.67 0 0 3.67 0.08 0c0.53,-1.32 1.28,-2.33 2.26,-3.02 0.98,-0.68 2.11,-1.03 3.41,-1.03 0.48,0 0.89,0.09 1.25,0.25l0 7.55z"/>
  <path id="4" class="fil10" d="M1351.52 763.07c0.15,0.89 0.66,1.59 1.54,2.11 0.89,0.5 2.05,0.76 3.5,0.76 2.02,0 3.94,-0.39 5.75,-1.17l0 5.49c-2.11,0.84 -4.66,1.26 -7.66,1.26 -3.63,0 -6.46,-0.93 -8.48,-2.78 -2.02,-1.86 -3.03,-4.41 -3.03,-7.67 0,-2.23 0.44,-4.21 1.33,-5.91 0.89,-1.71 2.2,-3.05 3.95,-4.02 1.74,-0.96 3.66,-1.45 5.76,-1.45 2.15,0 4,0.42 5.54,1.26 1.52,0.84 2.69,2.02 3.48,3.54 0.79,1.51 1.19,3.29 1.19,5.32l0 3.26 -12.87 0zm5.2 -4.55c0,-2.39 -0.86,-3.58 -2.58,-3.58 -0.72,0 -1.32,0.33 -1.81,0.98 -0.49,0.66 -0.77,1.52 -0.86,2.6l5.25 0z"/>
  <path id="5" class="fil10" d="M1383.06 757.61c-0.33,-0.15 -0.77,-0.29 -1.32,-0.41 -0.57,-0.11 -1.02,-0.18 -1.39,-0.18 -2.86,0 -4.29,1.66 -4.29,4.97l0 9.03 -8.67 0 0 -20.83 8.67 0 0 3.67 0.08 0c0.53,-1.32 1.28,-2.33 2.26,-3.02 0.98,-0.68 2.11,-1.03 3.41,-1.03 0.48,0 0.89,0.09 1.25,0.25l0 7.55z"/>
  <polygon class="fil3" points="1087.5,176.42 1087.5,141.43 1098.05,141.43 1098.05,176.42 "/>
  <path id="1" class="fil3" d="M1120.19 176.42l0 -13.65c0,-1.54 -0.24,-2.65 -0.7,-3.33 -0.46,-0.67 -1.21,-1.02 -2.25,-1.02 -0.9,0 -1.6,0.35 -2.1,1.05 -0.5,0.71 -0.75,1.61 -0.75,2.69l0 14.26 -10.4 0 0 -25 10.4 0 0 3.9 0.1 0c0.82,-1.42 1.94,-2.53 3.34,-3.31 1.4,-0.79 2.91,-1.18 4.56,-1.18 5.46,0 8.2,3.44 8.2,10.34l0 15.25 -10.4 0z"/>
  <path id="2" class="fil3" d="M1146.29 144.69c0,1.47 -0.53,2.65 -1.6,3.57 -1.06,0.91 -2.46,1.37 -4.2,1.37 -1.7,0 -3.09,-0.48 -4.16,-1.42 -1.09,-0.94 -1.63,-2.12 -1.63,-3.52 0,-1.43 0.53,-2.6 1.58,-3.48 1.05,-0.89 2.45,-1.33 4.21,-1.33 1.74,0 3.14,0.44 4.2,1.33 1.07,0.88 1.6,2.05 1.6,3.48zm-11 31.73l0 -25 10.4 0 0 25 -10.4 0z"/>
  <path id="3" class="fil3" d="M1171.29 175.71c-0.66,0.39 -1.71,0.71 -3.15,0.95 -1.43,0.24 -3.08,0.36 -4.95,0.36 -2.64,0 -5,-0.53 -7.06,-1.6 -2.08,-1.06 -3.69,-2.55 -4.83,-4.47 -1.14,-1.92 -1.71,-4.08 -1.71,-6.47 0,-2.86 0.61,-5.31 1.82,-7.35 1.22,-2.04 2.94,-3.61 5.19,-4.68 2.24,-1.08 4.85,-1.62 7.81,-1.62 1.63,0 3.09,0.1 4.38,0.31 1.3,0.21 2.13,0.46 2.5,0.73l0 8.1c-0.51,-0.4 -1.26,-0.76 -2.24,-1.08 -0.97,-0.31 -1.88,-0.47 -2.71,-0.47 -2.03,0 -3.57,0.49 -4.62,1.46 -1.05,0.97 -1.58,2.34 -1.58,4.09 0,1.73 0.52,3.07 1.55,4.02 1.04,0.96 2.45,1.43 4.26,1.43 1.94,0 3.72,-0.46 5.34,-1.4l0 7.69z"/>
  <path id="4" class="fil3" d="M1186.46 144.69c0,1.47 -0.53,2.65 -1.6,3.57 -1.07,0.91 -2.47,1.37 -4.21,1.37 -1.69,0 -3.08,-0.48 -4.16,-1.42 -1.08,-0.94 -1.62,-2.12 -1.62,-3.52 0,-1.43 0.52,-2.6 1.57,-3.48 1.05,-0.89 2.45,-1.33 4.21,-1.33 1.74,0 3.14,0.44 4.21,1.33 1.07,0.88 1.6,2.05 1.6,3.48zm-11.01 31.73l0 -25 10.4 0 0 25 -10.4 0z"/>
  <path id="5" class="fil3" d="M1204.71 176.42l0 -3.79 -0.1 0c-1.66,2.93 -4.19,4.39 -7.61,4.39 -2.36,0 -4.2,-0.7 -5.54,-2.1 -1.33,-1.39 -2,-3.26 -2,-5.6 0,-4.91 3.02,-7.76 9.05,-8.54l6.2 -0.81c0,-0.81 -0.37,-1.49 -1.1,-2.01 -0.72,-0.53 -1.71,-0.78 -2.95,-0.78 -2.79,0 -5.74,0.79 -8.85,2.4l0 -6.75c1.35,-0.59 3.04,-1.07 5.08,-1.45 2.03,-0.37 3.77,-0.55 5.22,-0.55 4.24,0 7.33,0.9 9.23,2.72 1.91,1.81 2.87,4.84 2.87,9.08l0 13.79 -9.5 0zm-6.15 -8.49c0,0.69 0.22,1.25 0.65,1.69 0.43,0.44 1.04,0.65 1.84,0.65 1.09,0 1.97,-0.4 2.64,-1.22 0.68,-0.81 1.02,-1.85 1.02,-3.13l0 -0.94 -3.52 0.49c-1.75,0.29 -2.63,1.1 -2.63,2.46z"/>
  <path id="6" class="fil3" d="M1237.71 160.33c-0.39,-0.18 -0.92,-0.35 -1.58,-0.49 -0.68,-0.14 -1.23,-0.22 -1.67,-0.22 -3.43,0 -5.15,1.99 -5.15,5.96l0 10.84 -10.4 0 0 -25 10.4 0 0 4.41 0.1 0c0.63,-1.59 1.53,-2.8 2.71,-3.62 1.17,-0.83 2.54,-1.23 4.1,-1.23 0.57,0 1.07,0.09 1.49,0.29l0 9.06z"/>
  <path class="fil4" d="M2043.84 723.47c0,2.86 -1,5.06 -3.01,6.62 -2.01,1.55 -4.88,2.33 -8.6,2.33l-13.31 0 0 -29.17 12.39 0c7.74,0 11.61,2.35 11.61,7.06 0,1.02 -0.24,1.95 -0.74,2.79 -0.48,0.85 -1.23,1.59 -2.23,2.23 -0.99,0.64 -2.09,1.07 -3.28,1.3l0 0.09c1.38,0.15 2.62,0.56 3.73,1.22 1.1,0.66 1.94,1.48 2.54,2.46 0.6,0.99 0.9,2.01 0.9,3.07zm-10.25 -11.64c0,-1.8 -1.42,-2.7 -4.25,-2.7l-1.63 0 0 5.49 2.54 0c0.98,0 1.78,-0.26 2.4,-0.78 0.62,-0.52 0.94,-1.19 0.94,-2.01zm0.91 11.6c0,-0.84 -0.3,-1.53 -0.91,-2.08 -0.61,-0.54 -1.42,-0.81 -2.42,-0.81l-3.46 0 0 5.96 2.93 0c1.19,0 2.13,-0.28 2.83,-0.83 0.69,-0.55 1.03,-1.3 1.03,-2.24z"/>
  <polygon id="1" class="fil4" points="2046.92,732.42 2046.92,701.58 2055.59,701.58 2055.59,732.42 "/>
  <path id="2" class="fil4" d="M2082.93 721.63c0,3.52 -1.07,6.27 -3.18,8.28 -2.13,2.01 -5.09,3.01 -8.91,3.01 -3.78,0 -6.73,-0.98 -8.84,-2.94 -2.1,-1.96 -3.16,-4.66 -3.16,-8.1 0,-2.21 0.5,-4.13 1.49,-5.76 0.99,-1.62 2.4,-2.87 4.23,-3.74 1.83,-0.87 3.94,-1.3 6.33,-1.3 2.46,0 4.6,0.45 6.41,1.36 1.82,0.91 3.2,2.17 4.18,3.79 0.96,1.61 1.45,3.41 1.45,5.4zm-8.79 0.04c0,-2.84 -1.09,-4.25 -3.25,-4.25 -2.17,0 -3.25,1.48 -3.25,4.46 0,3.13 1.09,4.7 3.29,4.7 2.14,0 3.21,-1.64 3.21,-4.91z"/>
  <path id="3" class="fil4" d="M2100.09 742l0 -11.96 -0.09 0c-0.64,0.86 -1.52,1.56 -2.63,2.09 -1.1,0.52 -2.24,0.79 -3.41,0.79 -1.72,0 -3.23,-0.41 -4.55,-1.22 -1.3,-0.82 -2.32,-2 -3.06,-3.55 -0.73,-1.55 -1.1,-3.47 -1.1,-5.74 0,-2.25 0.41,-4.24 1.23,-5.96 0.81,-1.72 1.94,-3.05 3.39,-3.97 1.45,-0.93 3.06,-1.4 4.81,-1.4 2.36,0 4.14,0.89 5.32,2.67l0.09 0 0 -2.17 8.66 0 0 30.42 -8.66 0zm0.18 -20.55c0,-1.26 -0.27,-2.25 -0.82,-2.96 -0.55,-0.72 -1.28,-1.07 -2.19,-1.07 -0.95,0 -1.72,0.43 -2.32,1.3 -0.6,0.87 -0.9,2.03 -0.9,3.48 0,1.35 0.25,2.41 0.75,3.2 0.51,0.79 1.26,1.18 2.27,1.18 1,0 1.78,-0.39 2.35,-1.18 0.57,-0.79 0.86,-1.88 0.86,-3.28l0 -0.67z"/>
  <path id="4" class="fil4" d="M2126.18 732.42l0 -3.21 -0.09 0c-0.71,0.99 -1.36,1.71 -1.93,2.17 -0.58,0.45 -1.23,0.83 -1.96,1.11 -0.72,0.29 -1.57,0.43 -2.53,0.43 -2.28,0 -4.01,-0.74 -5.2,-2.22 -1.2,-1.48 -1.79,-3.66 -1.79,-6.55l0 -12.57 8.66 0 0 11.93c0,2.05 0.77,3.07 2.29,3.07 0.85,0 1.48,-0.27 1.91,-0.83 0.42,-0.56 0.64,-1.35 0.64,-2.36l0 -11.81 8.66 0 0 20.84 -8.66 0z"/>
  <path id="5" class="fil4" d="M2146.47 724.46c0.15,0.89 0.66,1.6 1.55,2.11 0.88,0.51 2.05,0.76 3.5,0.76 2.02,0 3.93,-0.39 5.74,-1.16l0 5.48c-2.1,0.84 -4.65,1.27 -7.65,1.27 -3.63,0 -6.46,-0.93 -8.48,-2.79 -2.02,-1.85 -3.04,-4.41 -3.04,-7.67 0,-2.23 0.45,-4.2 1.34,-5.91 0.89,-1.7 2.2,-3.04 3.94,-4.01 1.74,-0.97 3.66,-1.46 5.76,-1.46 2.16,0 4,0.42 5.54,1.26 1.53,0.84 2.69,2.02 3.49,3.54 0.79,1.52 1.18,3.29 1.18,5.33l0 3.25 -12.87 0zm5.21 -4.54c0,-2.39 -0.86,-3.59 -2.59,-3.59 -0.72,0 -1.32,0.33 -1.81,0.98 -0.49,0.66 -0.77,1.52 -0.85,2.61l5.25 0z"/>
  <path id="6" class="fil4" d="M2173.89 732.42l0 -3.17 -0.09 0c-1.38,2.45 -3.49,3.67 -6.34,3.67 -1.96,0 -3.5,-0.59 -4.62,-1.75 -1.11,-1.17 -1.66,-2.73 -1.66,-4.68 0,-4.09 2.51,-6.46 7.54,-7.11l5.17 -0.67c0,-0.68 -0.31,-1.24 -0.92,-1.68 -0.61,-0.44 -1.43,-0.65 -2.46,-0.65 -2.33,0 -4.78,0.66 -7.37,1.99l0 -5.62c1.12,-0.49 2.53,-0.89 4.22,-1.2 1.7,-0.31 3.15,-0.47 4.36,-0.47 3.53,0 6.1,0.76 7.69,2.27 1.59,1.51 2.39,4.04 2.39,7.57l0 11.5 -7.91 0zm-5.13 -7.08c0,0.57 0.18,1.04 0.54,1.4 0.36,0.37 0.87,0.55 1.54,0.55 0.91,0 1.64,-0.34 2.2,-1.02 0.56,-0.67 0.85,-1.54 0.85,-2.6l0 -0.8 -2.93 0.41c-1.47,0.25 -2.2,0.93 -2.2,2.06z"/>
  <path id="7" class="fil4" d="M2201.39 719c-0.33,-0.15 -0.77,-0.29 -1.32,-0.4 -0.57,-0.12 -1.02,-0.18 -1.39,-0.18 -2.86,0 -4.29,1.65 -4.29,4.96l0 9.04 -8.67 0 0 -20.84 8.67 0 0 3.67 0.08 0c0.53,-1.32 1.28,-2.33 2.26,-3.01 0.98,-0.69 2.11,-1.03 3.41,-1.03 0.48,0 0.89,0.08 1.25,0.24l0 7.55z"/>
  <path class="fil5" d="M1953.87 1030.4c0,2.96 -0.62,5.57 -1.86,7.84 -1.25,2.27 -3.02,4.03 -5.32,5.26 -2.31,1.24 -4.97,1.85 -7.98,1.85l-12.34 0 0 -29.16 12.08 0c10.28,0 15.42,4.73 15.42,14.21zm-9.34 0.09c0,-1.43 -0.28,-2.71 -0.86,-3.85 -0.58,-1.14 -1.4,-2.02 -2.47,-2.64 -1.07,-0.62 -2.33,-0.94 -3.79,-0.94l-2.25 0 0 15.42 2.46 0c2.1,0 3.78,-0.72 5.03,-2.17 1.26,-1.44 1.88,-3.39 1.88,-5.82z"/>
  <path id="1" class="fil5" d="M1964.65 1037.4c0.15,0.89 0.67,1.59 1.55,2.11 0.88,0.5 2.05,0.76 3.5,0.76 2.02,0 3.94,-0.39 5.74,-1.17l0 5.49c-2.1,0.84 -4.65,1.26 -7.65,1.26 -3.63,0 -6.46,-0.93 -8.48,-2.78 -2.02,-1.85 -3.03,-4.41 -3.03,-7.67 0,-2.23 0.44,-4.21 1.33,-5.91 0.89,-1.71 2.2,-3.04 3.94,-4.02 1.75,-0.96 3.66,-1.45 5.77,-1.45 2.15,0 4,0.42 5.53,1.26 1.53,0.84 2.7,2.02 3.49,3.54 0.79,1.51 1.19,3.29 1.19,5.33l0 3.25 -12.88 0zm5.21 -4.55c0,-2.38 -0.86,-3.58 -2.58,-3.58 -0.73,0 -1.32,0.33 -1.82,0.98 -0.48,0.66 -0.77,1.52 -0.85,2.6l5.25 0z"/>
  <path id="2" class="fil5" d="M1997.44 1038.43c0,2.35 -0.89,4.19 -2.69,5.48 -1.8,1.3 -4.3,1.94 -7.51,1.94 -0.94,0 -2.1,-0.09 -3.47,-0.28 -1.38,-0.19 -2.5,-0.42 -3.37,-0.69l0 -6.07c2.56,1.14 4.7,1.71 6.42,1.71 1.69,0 2.54,-0.44 2.54,-1.32 0,-0.37 -0.2,-0.67 -0.59,-0.91 -0.39,-0.23 -1.42,-0.63 -3.08,-1.19 -1.85,-0.58 -3.19,-1.36 -4.03,-2.32 -0.84,-0.96 -1.26,-2.22 -1.26,-3.76 0,-2.16 0.86,-3.86 2.58,-5.12 1.71,-1.25 4.12,-1.88 7.23,-1.88 1.82,0 3.74,0.26 5.77,0.79l0 5.84c-0.85,-0.37 -1.79,-0.68 -2.81,-0.93 -1.01,-0.24 -1.87,-0.37 -2.56,-0.37 -0.57,0 -1.03,0.1 -1.37,0.29 -0.34,0.19 -0.5,0.45 -0.5,0.79 0,0.4 0.18,0.72 0.54,0.96 0.37,0.24 1.1,0.53 2.2,0.87 2.13,0.63 3.66,1.43 4.58,2.41 0.93,0.97 1.38,2.23 1.38,3.76z"/>
  <path id="3" class="fil5" d="M2024.14 1034.31c0,2.27 -0.37,4.29 -1.13,6.04 -0.75,1.76 -1.82,3.12 -3.2,4.07 -1.38,0.96 -2.95,1.43 -4.7,1.43 -1.34,0 -2.49,-0.25 -3.45,-0.74 -0.95,-0.49 -1.71,-1.14 -2.27,-1.92l-0.08 0 0 2.16 -8.67 0 0 -30.83 8.67 0 0 12.83 0.08 0c0.68,-1.02 1.6,-1.84 2.76,-2.43 1.16,-0.6 2.44,-0.9 3.83,-0.9 2.64,0 4.66,0.88 6.06,2.63 1.4,1.74 2.1,4.3 2.1,7.66zm-8.79 0.26c0,-1.4 -0.27,-2.45 -0.8,-3.15 -0.54,-0.71 -1.31,-1.07 -2.31,-1.07 -0.88,0 -1.62,0.37 -2.21,1.12 -0.59,0.73 -0.88,1.7 -0.88,2.88l0 1.26c0,1.2 0.26,2.15 0.79,2.85 0.53,0.71 1.24,1.06 2.13,1.06 1.05,0 1.86,-0.43 2.43,-1.29 0.57,-0.86 0.85,-2.08 0.85,-3.66z"/>
  <polygon id="4" class="fil5" points="2027.4,1045.35 2027.4,1014.52 2036.07,1014.52 2036.07,1045.35 "/>
  <path id="5" class="fil5" d="M2063.41 1034.57c0,3.51 -1.06,6.27 -3.18,8.28 -2.13,2 -5.09,3 -8.9,3 -3.79,0 -6.73,-0.98 -8.85,-2.93 -2.1,-1.96 -3.15,-4.66 -3.15,-8.11 0,-2.21 0.49,-4.12 1.48,-5.75 0.99,-1.62 2.4,-2.87 4.23,-3.74 1.83,-0.87 3.94,-1.3 6.33,-1.3 2.46,0 4.6,0.45 6.41,1.36 1.82,0.91 3.2,2.17 4.18,3.79 0.96,1.61 1.45,3.41 1.45,5.4zm-8.79 0.04c0,-2.84 -1.09,-4.26 -3.25,-4.26 -2.17,0 -3.25,1.49 -3.25,4.46 0,3.14 1.09,4.71 3.29,4.71 2.14,0 3.21,-1.64 3.21,-4.91z"/>
  <path id="6" class="fil5" d="M2080.57 1054.94l0 -11.96 -0.09 0c-0.64,0.86 -1.52,1.55 -2.63,2.08 -1.1,0.53 -2.24,0.79 -3.41,0.79 -1.72,0 -3.23,-0.41 -4.55,-1.22 -1.3,-0.81 -2.32,-1.99 -3.06,-3.54 -0.73,-1.55 -1.1,-3.47 -1.1,-5.74 0,-2.25 0.41,-4.24 1.23,-5.96 0.81,-1.72 1.94,-3.05 3.39,-3.97 1.45,-0.93 3.06,-1.4 4.81,-1.4 2.37,0 4.14,0.89 5.32,2.67l0.09 0 0 -2.17 8.67 0 0 30.42 -8.67 0zm0.18 -20.55c0,-1.26 -0.27,-2.25 -0.82,-2.97 -0.55,-0.71 -1.28,-1.07 -2.19,-1.07 -0.95,0 -1.72,0.44 -2.32,1.31 -0.6,0.87 -0.89,2.03 -0.89,3.48 0,1.35 0.25,2.41 0.75,3.2 0.5,0.79 1.25,1.18 2.26,1.18 1,0 1.78,-0.39 2.35,-1.18 0.57,-0.79 0.86,-1.88 0.86,-3.28l0 -0.67z"/>
  <path id="7" class="fil5" d="M2106.66 1045.35l0 -3.2 -0.09 0c-0.71,0.98 -1.36,1.7 -1.93,2.16 -0.58,0.46 -1.23,0.84 -1.95,1.12 -0.73,0.29 -1.57,0.42 -2.54,0.42 -2.28,0 -4.01,-0.73 -5.2,-2.21 -1.19,-1.48 -1.79,-3.66 -1.79,-6.55l0 -12.57 8.66 0 0 11.92c0,2.05 0.77,3.08 2.3,3.08 0.84,0 1.47,-0.28 1.9,-0.83 0.42,-0.56 0.64,-1.35 0.64,-2.36l0 -11.81 8.66 0 0 20.83 -8.66 0z"/>
  <path id="8" class="fil5" d="M2126.95 1037.4c0.15,0.89 0.67,1.59 1.55,2.11 0.88,0.5 2.05,0.76 3.5,0.76 2.02,0 3.94,-0.39 5.74,-1.17l0 5.49c-2.1,0.84 -4.65,1.26 -7.65,1.26 -3.63,0 -6.46,-0.93 -8.48,-2.78 -2.02,-1.85 -3.04,-4.41 -3.04,-7.67 0,-2.23 0.45,-4.21 1.34,-5.91 0.89,-1.71 2.2,-3.04 3.94,-4.02 1.75,-0.96 3.66,-1.45 5.77,-1.45 2.15,0 4,0.42 5.53,1.26 1.53,0.84 2.7,2.02 3.49,3.54 0.79,1.51 1.19,3.29 1.19,5.33l0 3.25 -12.88 0zm5.21 -4.55c0,-2.38 -0.86,-3.58 -2.59,-3.58 -0.72,0 -1.31,0.33 -1.81,0.98 -0.48,0.66 -0.77,1.52 -0.85,2.6l5.25 0z"/>
  <path id="9" class="fil5" d="M2154.37 1045.35l0 -3.16 -0.09 0c-1.38,2.44 -3.49,3.66 -6.34,3.66 -1.96,0 -3.5,-0.58 -4.62,-1.75 -1.11,-1.16 -1.66,-2.72 -1.66,-4.67 0,-4.09 2.51,-6.46 7.54,-7.11l5.17 -0.67c0,-0.68 -0.31,-1.25 -0.92,-1.68 -0.6,-0.44 -1.42,-0.66 -2.46,-0.66 -2.32,0 -4.78,0.67 -7.37,2l0 -5.62c1.12,-0.49 2.53,-0.89 4.23,-1.2 1.69,-0.32 3.14,-0.47 4.35,-0.47 3.53,0 6.1,0.76 7.69,2.27 1.6,1.51 2.39,4.04 2.39,7.57l0 11.49 -7.91 0zm-5.13 -7.07c0,0.57 0.18,1.03 0.54,1.4 0.36,0.37 0.87,0.55 1.54,0.55 0.91,0 1.64,-0.34 2.2,-1.02 0.56,-0.68 0.85,-1.54 0.85,-2.61l0 -0.79 -2.93 0.41c-1.47,0.25 -2.2,0.93 -2.2,2.06z"/>
  <path id="10" class="fil5" d="M2181.87 1031.94c-0.33,-0.15 -0.77,-0.29 -1.32,-0.41 -0.57,-0.11 -1.02,-0.18 -1.39,-0.18 -2.86,0 -4.29,1.66 -4.29,4.97l0 9.03 -8.67 0 0 -20.83 8.67 0 0 3.67 0.08 0c0.53,-1.32 1.28,-2.33 2.26,-3.02 0.98,-0.68 2.11,-1.02 3.41,-1.02 0.48,0 0.89,0.08 1.25,0.24l0 7.55z"/>
  <polygon class="fil11" points="1627.7,868.8 1627.7,839.63 1645.86,839.63 1645.86,846.51 1636.49,846.51 1636.49,850.76 1645.28,850.76 1645.28,857.63 1636.49,857.63 1636.49,861.92 1646.53,861.92 1646.53,868.8 "/>
  <path id="1" class="fil11" d="M1666.82 861.88c0,2.35 -0.9,4.18 -2.7,5.47 -1.79,1.3 -4.29,1.95 -7.51,1.95 -0.94,0 -2.09,-0.1 -3.47,-0.29 -1.38,-0.18 -2.5,-0.41 -3.36,-0.68l0 -6.07c2.56,1.14 4.7,1.71 6.41,1.71 1.7,0 2.55,-0.44 2.55,-1.32 0,-0.37 -0.2,-0.68 -0.6,-0.91 -0.38,-0.24 -1.42,-0.64 -3.08,-1.19 -1.85,-0.58 -3.19,-1.36 -4.03,-2.32 -0.84,-0.97 -1.25,-2.22 -1.25,-3.77 0,-2.15 0.86,-3.86 2.57,-5.11 1.72,-1.26 4.13,-1.88 7.23,-1.88 1.82,0 3.74,0.26 5.78,0.79l0 5.83c-0.85,-0.37 -1.79,-0.67 -2.81,-0.92 -1.02,-0.25 -1.87,-0.37 -2.57,-0.37 -0.56,0 -1.02,0.1 -1.36,0.28 -0.34,0.19 -0.51,0.45 -0.51,0.8 0,0.39 0.18,0.71 0.55,0.95 0.37,0.25 1.1,0.54 2.2,0.88 2.12,0.62 3.65,1.42 4.58,2.4 0.92,0.97 1.38,2.23 1.38,3.77z"/>
  <path id="2" class="fil11" d="M1693.52 857.75c0,2.28 -0.39,4.29 -1.16,6.04 -0.77,1.75 -1.87,3.11 -3.28,4.06 -1.41,0.97 -2.99,1.45 -4.76,1.45 -2.44,0 -4.29,-0.89 -5.55,-2.67l-0.08 0 0 11.75 -8.67 0 0 -30.41 8.67 0 0 2.83 0.08 0c0.69,-1.04 1.58,-1.86 2.68,-2.45 1.1,-0.59 2.35,-0.88 3.75,-0.88 2.68,0 4.74,0.89 6.17,2.68 1.43,1.79 2.15,4.32 2.15,7.6zm-8.79 0.26c0,-1.31 -0.26,-2.34 -0.77,-3.09 -0.5,-0.75 -1.29,-1.12 -2.34,-1.12 -0.93,0 -1.67,0.39 -2.24,1.18 -0.57,0.79 -0.85,1.87 -0.85,3.24l0 0.4c0,1.32 0.24,2.37 0.73,3.17 0.48,0.78 1.22,1.18 2.19,1.18 1.05,0 1.85,-0.43 2.42,-1.3 0.57,-0.86 0.86,-2.08 0.86,-3.66z"/>
  <path id="3" class="fil11" d="M1704.23 860.84c0.16,0.9 0.67,1.6 1.55,2.11 0.89,0.51 2.05,0.77 3.5,0.77 2.02,0 3.94,-0.39 5.75,-1.17l0 5.48c-2.11,0.85 -4.66,1.27 -7.66,1.27 -3.63,0 -6.46,-0.93 -8.48,-2.79 -2.02,-1.85 -3.03,-4.41 -3.03,-7.66 0,-2.24 0.44,-4.21 1.33,-5.92 0.89,-1.7 2.2,-3.04 3.95,-4.01 1.74,-0.97 3.66,-1.45 5.76,-1.45 2.15,0 4,0.41 5.54,1.25 1.52,0.84 2.69,2.02 3.48,3.54 0.79,1.52 1.19,3.29 1.19,5.33l0 3.25 -12.88 0zm5.21 -4.54c0,-2.39 -0.86,-3.58 -2.58,-3.58 -0.72,0 -1.32,0.32 -1.81,0.97 -0.49,0.66 -0.77,1.52 -0.86,2.61l5.25 0z"/>
  <path id="4" class="fil11" d="M1735.78 855.38c-0.33,-0.14 -0.77,-0.28 -1.32,-0.4 -0.57,-0.12 -1.02,-0.18 -1.39,-0.18 -2.86,0 -4.29,1.65 -4.29,4.96l0 9.04 -8.67 0 0 -20.83 8.67 0 0 3.66 0.08 0c0.53,-1.32 1.28,-2.32 2.26,-3.01 0.98,-0.69 2.11,-1.03 3.41,-1.03 0.48,0 0.89,0.08 1.25,0.24l0 7.55z"/>
  <path id="5" class="fil11" d="M1749.82 868.8l0 -3.17 -0.09 0c-1.38,2.45 -3.49,3.67 -6.34,3.67 -1.96,0 -3.5,-0.59 -4.61,-1.75 -1.12,-1.17 -1.67,-2.72 -1.67,-4.67 0,-4.09 2.51,-6.47 7.54,-7.12l5.17 -0.67c0,-0.68 -0.31,-1.24 -0.92,-1.68 -0.6,-0.44 -1.42,-0.65 -2.46,-0.65 -2.32,0 -4.78,0.66 -7.37,2l0 -5.63c1.12,-0.48 2.53,-0.89 4.23,-1.2 1.69,-0.31 3.14,-0.46 4.35,-0.46 3.54,0 6.11,0.75 7.7,2.27 1.59,1.5 2.39,4.03 2.39,7.57l0 11.49 -7.92 0zm-5.13 -7.08c0,0.57 0.18,1.04 0.54,1.4 0.36,0.37 0.87,0.55 1.54,0.55 0.91,0 1.64,-0.34 2.2,-1.02 0.56,-0.67 0.85,-1.54 0.85,-2.6l0 -0.79 -2.93 0.41c-1.47,0.24 -2.2,0.92 -2.2,2.05z"/>
  <path id="6" class="fil11" d="M1777.32 855.38c-0.33,-0.14 -0.77,-0.28 -1.32,-0.4 -0.56,-0.12 -1.02,-0.18 -1.39,-0.18 -2.86,0 -4.29,1.65 -4.29,4.96l0 9.04 -8.67 0 0 -20.83 8.67 0 0 3.66 0.08 0c0.53,-1.32 1.28,-2.32 2.26,-3.01 0.98,-0.69 2.12,-1.03 3.42,-1.03 0.47,0 0.88,0.08 1.24,0.24l0 7.55z"/>
  <g>
   <path class="fil4" d="M2336.17 1607.07l51.24 -56.36 0 0 -0.05 2.09 0.01 2.05 0.05 2.04 0.12 2.01 0.16 1.99 0.22 1.96 0.27 1.93 0.33 1.92 0.38 1.89 0.43 1.86 0.48 1.84 0.54 1.82 0.59 1.79 0.65 1.76 0.7 1.75 0.75 1.71 0.8 1.7 0.86 1.67 0.91 1.64 0.97 1.62 1.02 1.6 1.07 1.57 1.12 1.55 1.18 1.52 1.23 1.5 1.29 1.48 1.34 1.45 1.39 1.43 1.44 1.4 1.5 1.38 1.55 1.35 1.61 1.33 -76.15 1.76zm77.18 -286.46l6.82 -7.32 6.49 6.66 5.87 7.25 5.26 7.81 4.65 8.29 4.05 8.74 3.49 9.14 2.91 9.49 2.37 9.8 1.83 10.06 1.29 10.29 0.78 10.46 0.27 10.61 -0.22 10.7 -0.72 10.75 -1.19 10.76 -1.67 10.73 -2.14 10.66 -2.58 10.54 -3.04 10.38 -3.48 10.18 -3.92 9.93 -4.34 9.64 -4.77 9.32 -5.18 8.94 -5.6 8.52 -6 8.06 -6.41 7.55 -6.8 7 -7.2 6.39 -7.59 5.74 -7.98 5.05 -8.35 4.29 -4.15 -9.1 7.54 -3.87 7.24 -4.58 6.94 -5.26 6.64 -5.89 6.31 -6.49 5.98 -7.05 5.64 -7.57 5.28 -8.04 4.91 -8.48 4.54 -8.86 4.14 -9.2 3.74 -9.49 3.33 -9.75 2.92 -9.96 2.48 -10.11 2.05 -10.24 1.6 -10.3 1.15 -10.33 0.69 -10.3 0.22 -10.24 -0.26 -10.13 -0.75 -9.97 -1.23 -9.76 -1.72 -9.52 -2.23 -9.22 -2.73 -8.88 -3.24 -8.5 -3.75 -8.08 -4.26 -7.6 -4.78 -7.1 -5.3 -6.56 -5.84 -5.98z"/>
  </g>
  <g>
   <path class="fil5" d="M2378.56 1273.71l-51.24 56.36 0 0 0.05 -2.08 -0.01 -2.06 -0.05 -2.03 -0.12 -2.02 -0.16 -1.98 -0.22 -1.96 -0.27 -1.94 -0.33 -1.91 -0.38 -1.89 -0.43 -1.87 -0.48 -1.84 -0.54 -1.81 -0.59 -1.79 -0.65 -1.77 -0.7 -1.74 -0.75 -1.72 -0.8 -1.69 -0.86 -1.67 -0.91 -1.65 -0.97 -1.62 -1.02 -1.6 -1.07 -1.57 -1.12 -1.55 -1.18 -1.52 -1.24 -1.5 -1.28 -1.47 -1.34 -1.45 -1.39 -1.43 -1.44 -1.4 -1.5 -1.38 -1.55 -1.35 -1.61 -1.33 76.15 -1.77zm-77.18 286.47l-6.82 7.32 -6.49 -6.66 -5.87 -7.26 -5.26 -7.8 -4.65 -8.3 -4.05 -8.74 -3.49 -9.13 -2.91 -9.49 -2.37 -9.8 -1.83 -10.07 -1.29 -10.28 -0.78 -10.47 -0.28 -10.6 0.23 -10.7 0.72 -10.76 1.19 -10.76 1.67 -10.73 2.14 -10.66 2.58 -10.53 3.04 -10.38 3.48 -10.18 3.92 -9.93 4.34 -9.65 4.77 -9.31 5.18 -8.94 5.6 -8.52 6 -8.06 6.41 -7.55 6.8 -7 7.2 -6.4 7.59 -5.74 7.98 -5.04 8.34 -4.29 4.16 9.1 -7.54 3.87 -7.24 4.58 -6.94 5.25 -6.64 5.9 -6.31 6.49 -5.98 7.05 -5.64 7.57 -5.28 8.04 -4.91 8.47 -4.54 8.86 -4.14 9.2 -3.74 9.5 -3.34 9.75 -2.91 9.95 -2.48 10.12 -2.05 10.23 -1.6 10.3 -1.15 10.33 -0.69 10.31 -0.22 10.23 0.26 10.13 0.75 9.97 1.23 9.77 1.72 9.51 2.23 9.22 2.73 8.89 3.24 8.5 3.75 8.07 4.26 7.61 4.78 7.1 5.3 6.56 5.84 5.98z"/>
  </g>
  <g>
   <path class="fil4" d="M1191.86 1276.51l-28.87 70.47 0 0 -0.67 -1.97 -0.71 -1.93 -0.75 -1.89 -0.79 -1.85 -0.84 -1.81 -0.87 -1.77 -0.92 -1.73 -0.96 -1.69 -1 -1.64 -1.05 -1.6 -1.08 -1.57 -1.13 -1.52 -1.17 -1.48 -1.21 -1.44 -1.25 -1.4 -1.29 -1.35 -1.34 -1.32 -1.38 -1.28 -1.42 -1.23 -1.46 -1.19 -1.5 -1.16 -1.54 -1.11 -1.59 -1.07 -1.63 -1.03 -1.67 -0.98 -1.71 -0.95 -1.75 -0.9 -1.8 -0.87 -1.84 -0.82 -1.88 -0.78 -1.92 -0.74 -1.96 -0.71 70.95 -27.69zm25.45 295.58l-3.9 9.21 -8.38 -4.04 -8 -4.81 -7.61 -5.53 -7.2 -6.21 -6.81 -6.82 -6.39 -7.4 -5.99 -7.92 -5.58 -8.4 -5.15 -8.83 -4.74 -9.22 -4.31 -9.57 -3.89 -9.87 -3.44 -10.13 -3.01 -10.35 -2.55 -10.52 -2.11 -10.66 -1.64 -10.74 -1.17 -10.79 -0.69 -10.79 -0.21 -10.76 0.28 -10.67 0.78 -10.55 1.29 -10.38 1.82 -10.17 2.34 -9.93 2.88 -9.62 3.44 -9.29 4 -8.9 4.58 -8.47 5.17 -8 5.77 -7.46 6.38 -6.89 7.01 7.13 -5.75 6.22 -5.24 6.78 -4.73 7.31 -4.22 7.81 -3.71 8.26 -3.21 8.67 -2.71 9.04 -2.21 9.36 -1.72 9.64 -1.23 9.88 -0.75 10.06 -0.27 10.2 0.21 10.31 0.67 10.35 1.12 10.35 1.57 10.32 2.02 10.23 2.46 10.09 2.88 9.92 3.29 9.7 3.71 9.43 4.11 9.11 4.5 8.75 4.87 8.36 5.25 7.9 5.6 7.41 5.95 6.88 6.29 6.31 6.61 5.69 6.92 5.04 7.22 4.35 7.53 3.62z"/>
  </g>
  <g>
   <path class="fil5" d="M1266.04 1604.25l28.87 -70.47 0 0 0.67 1.97 0.71 1.93 0.75 1.89 0.79 1.86 0.84 1.81 0.87 1.76 0.92 1.73 0.96 1.69 1 1.64 1.05 1.61 1.08 1.56 1.13 1.52 1.17 1.48 1.21 1.44 1.25 1.4 1.29 1.36 1.34 1.31 1.38 1.28 1.42 1.23 1.46 1.19 1.5 1.16 1.55 1.11 1.58 1.07 1.63 1.03 1.67 0.98 1.71 0.95 1.75 0.9 1.8 0.87 1.84 0.82 1.88 0.78 1.92 0.75 1.96 0.7 -70.95 27.69zm-25.45 -295.58l3.91 -9.21 8.37 4.04 8 4.81 7.61 5.54 7.2 6.2 6.81 6.82 6.39 7.4 5.99 7.92 5.58 8.4 5.15 8.83 4.74 9.22 4.31 9.57 3.89 9.87 3.44 10.13 3.01 10.35 2.55 10.53 2.11 10.65 1.64 10.74 1.17 10.79 0.69 10.8 0.21 10.75 -0.28 10.67 -0.78 10.55 -1.29 10.38 -1.82 10.18 -2.34 9.92 -2.89 9.62 -3.43 9.29 -4 8.9 -4.58 8.48 -5.17 7.99 -5.77 7.47 -6.38 6.88 -7.01 -7.13 5.76 -6.21 5.23 -6.79 4.73 -7.31 4.22 -7.8 3.71 -8.26 3.21 -8.68 2.71 -9.04 2.21 -9.36 1.72 -9.64 1.23 -9.88 0.75 -10.06 0.26 -10.2 -0.2 -10.3 -0.66 -10.36 -1.13 -10.35 -1.57 -10.32 -2.02 -10.22 -2.46 -10.1 -2.88 -9.92 -3.29 -9.7 -3.71 -9.43 -4.11 -9.11 -4.5 -8.75 -4.87 -8.36 -5.25 -7.9 -5.6 -7.41 -5.95 -6.88 -6.29 -6.31 -6.61 -5.69 -6.92 -5.04 -7.22 -4.34 -7.53 -3.63z"/>
  </g>
  <circle class="fil12 str4" cx="1282.48" cy="1810.03" r="180"/>
  <circle class="fil12 str4" cx="2297.94" cy="1810.03" r="180"/>
  <g>
   <path class="fil4" d="M1462.48 1810.03l70.01 -30.01 0 0 -0.91 1.88 -0.85 1.87 -0.79 1.88 -0.73 1.87 -0.68 1.88 -0.61 1.87 -0.56 1.88 -0.5 1.87 -0.44 1.88 -0.38 1.87 -0.32 1.88 -0.26 1.88 -0.21 1.87 -0.15 1.88 -0.08 1.87 -0.03 1.88 0.03 1.87 0.08 1.88 0.15 1.87 0.21 1.88 0.26 1.87 0.32 1.88 0.38 1.87 0.44 1.88 0.5 1.88 0.56 1.87 0.61 1.88 0.68 1.87 0.73 1.88 0.79 1.87 0.85 1.88 0.91 1.87 -70.01 -30zm655.46 5l-620.28 0 0 -10 620.28 0 0 10z"/>
  </g>
  <path class="fil9" d="M1146.61 1816.93c0,2.32 -0.63,4.35 -1.87,6.07 -1.24,1.73 -2.99,3.01 -5.23,3.86 -2.24,0.84 -4.94,1.27 -8.1,1.27 -3.66,0 -7.01,-0.62 -10.05,-1.86l0 -9.59c1.46,1.07 3.08,1.95 4.86,2.6 1.77,0.66 3.42,1 4.95,1 1.15,0 2.05,-0.21 2.69,-0.63 0.63,-0.41 0.95,-1.01 0.95,-1.82 0,-0.56 -0.16,-1.07 -0.48,-1.5 -0.31,-0.43 -0.8,-0.83 -1.44,-1.2 -0.64,-0.38 -1.83,-0.9 -3.58,-1.55 -5.64,-2.16 -8.45,-5.66 -8.45,-10.5 0,-3.38 1.28,-6.09 3.86,-8.11 2.56,-2.03 6.01,-3.04 10.35,-3.04 1.21,0 2.34,0.05 3.36,0.15 1.03,0.09 1.96,0.21 2.8,0.35 0.84,0.15 2.01,0.43 3.53,0.84l0 8.91c-2.95,-1.6 -5.84,-2.4 -8.69,-2.4 -1.18,0 -2.12,0.21 -2.84,0.66 -0.71,0.44 -1.07,1.04 -1.07,1.8 0,0.73 0.29,1.34 0.86,1.82 0.58,0.48 1.79,1.1 3.63,1.87 3.62,1.46 6.19,3.06 7.7,4.8 1.51,1.74 2.26,3.8 2.26,6.2z"/>
  <path id="1" class="fil9" d="M1181.4 1811.53c0,5.61 -1.28,9.79 -3.84,12.51 -2.57,2.73 -6.52,4.09 -11.85,4.09 -4.99,0 -8.76,-1.36 -11.34,-4.09 -2.58,-2.72 -3.87,-6.83 -3.87,-12.31l0 -19.2 10.6 0 0 19.6c0,2.24 0.42,3.96 1.26,5.18 0.84,1.21 2.04,1.82 3.61,1.82 1.57,0 2.77,-0.57 3.6,-1.71 0.82,-1.14 1.23,-2.83 1.23,-5.05l0 -19.84 10.6 0 0 19z"/>
  <path id="2" class="fil9" d="M1212.21 1816.93c0,2.32 -0.63,4.35 -1.87,6.07 -1.24,1.73 -2.99,3.01 -5.23,3.86 -2.24,0.84 -4.94,1.27 -8.1,1.27 -3.66,0 -7.01,-0.62 -10.05,-1.86l0 -9.59c1.46,1.07 3.08,1.95 4.85,2.6 1.78,0.66 3.43,1 4.96,1 1.15,0 2.05,-0.21 2.69,-0.63 0.63,-0.41 0.95,-1.01 0.95,-1.82 0,-0.56 -0.16,-1.07 -0.48,-1.5 -0.32,-0.43 -0.8,-0.83 -1.44,-1.2 -0.64,-0.38 -1.83,-0.9 -3.58,-1.55 -5.64,-2.16 -8.45,-5.66 -8.45,-10.5 0,-3.38 1.28,-6.09 3.85,-8.11 2.57,-2.03 6.02,-3.04 10.35,-3.04 1.22,0 2.35,0.05 3.37,0.15 1.03,0.09 1.96,0.21 2.8,0.35 0.84,0.15 2.01,0.43 3.53,0.84l0 8.91c-2.95,-1.6 -5.84,-2.4 -8.69,-2.4 -1.18,0 -2.12,0.21 -2.84,0.66 -0.72,0.44 -1.07,1.04 -1.07,1.8 0,0.73 0.29,1.34 0.86,1.82 0.58,0.48 1.79,1.1 3.63,1.87 3.62,1.46 6.19,3.06 7.7,4.8 1.51,1.74 2.26,3.8 2.26,6.2z"/>
  <path id="3" class="fil9" d="M1245.1 1804.07c0,2.39 -0.61,4.52 -1.82,6.37 -1.21,1.86 -2.94,3.29 -5.18,4.31 -2.24,1.02 -4.86,1.53 -7.84,1.53l-3.21 0 0 11.25 -10.55 0 0 -35 14.35 0c4.92,0 8.53,0.93 10.82,2.81 2.29,1.86 3.43,4.78 3.43,8.73zm-11.15 0.36c0,-1.44 -0.42,-2.52 -1.24,-3.25 -0.84,-0.74 -2.05,-1.1 -3.66,-1.1l-2 0 0 8.65 2.36 0c3.03,0 4.54,-1.44 4.54,-4.3z"/>
  <polygon id="4" class="fil9" points="1249.29,1827.53 1249.29,1792.53 1271.08,1792.53 1271.08,1800.78 1259.84,1800.78 1259.84,1805.88 1270.39,1805.88 1270.39,1814.13 1259.84,1814.13 1259.84,1819.28 1271.89,1819.28 1271.89,1827.53 "/>
  <path id="5" class="fil9" d="M1301.33 1827.53l-12.36 -16.89c-0.97,-1.34 -1.77,-2.54 -2.39,-3.61l-0.1 0c0.1,1.72 0.15,3.66 0.15,5.8l0 14.7 -9.75 0 0 -35 9.97 0 11.84 16.06c0.14,0.2 0.32,0.45 0.53,0.75 0.21,0.3 0.43,0.6 0.63,0.9 0.22,0.31 0.42,0.61 0.6,0.9 0.19,0.3 0.34,0.56 0.43,0.79l0.1 0c-0.1,-0.72 -0.15,-1.95 -0.15,-3.71l0 -15.69 9.75 0 0 35 -9.25 0z"/>
  <path id="6" class="fil9" d="M1350.48 1809.59c0,3.54 -0.74,6.68 -2.23,9.4 -1.5,2.73 -3.62,4.84 -6.39,6.31 -2.76,1.48 -5.96,2.23 -9.56,2.23l-14.82 0 0 -35 14.5 0c12.33,0 18.5,5.68 18.5,17.06zm-11.2 0.09c0,-1.7 -0.34,-3.24 -1.03,-4.61 -0.7,-1.37 -1.69,-2.42 -2.97,-3.17 -1.28,-0.75 -2.8,-1.12 -4.54,-1.12l-2.71 0 0 18.5 2.95 0c2.52,0 4.54,-0.87 6.04,-2.6 1.51,-1.74 2.26,-4.07 2.26,-7z"/>
  <polygon id="7" class="fil9" points="1355.42,1827.53 1355.42,1792.53 1365.97,1792.53 1365.97,1827.53 "/>
  <path id="8" class="fil9" d="M1405.85 1809.59c0,3.54 -0.74,6.68 -2.23,9.4 -1.49,2.73 -3.62,4.84 -6.38,6.31 -2.77,1.48 -5.96,2.23 -9.57,2.23l-14.82 0 0 -35 14.5 0c12.34,0 18.5,5.68 18.5,17.06zm-11.2 0.09c0,-1.7 -0.34,-3.24 -1.03,-4.61 -0.69,-1.37 -1.68,-2.42 -2.97,-3.17 -1.28,-0.75 -2.8,-1.12 -4.54,-1.12l-2.71 0 0 18.5 2.95 0c2.53,0 4.55,-0.87 6.05,-2.6 1.5,-1.74 2.25,-4.07 2.25,-7z"/>
  <path id="9" class="fil9" d="M1444.1 1809.92c0,3.51 -0.76,6.66 -2.27,9.43 -1.52,2.78 -3.64,4.93 -6.35,6.47 -2.72,1.54 -5.76,2.31 -9.13,2.31 -3.29,0 -6.28,-0.75 -8.97,-2.24 -2.69,-1.49 -4.79,-3.58 -6.29,-6.27 -1.49,-2.69 -2.24,-5.74 -2.24,-9.14 0,-3.57 0.75,-6.77 2.26,-9.62 1.52,-2.85 3.64,-5.05 6.38,-6.6 2.73,-1.56 5.84,-2.33 9.32,-2.33 3.35,0 6.35,0.74 8.99,2.23 2.65,1.49 4.7,3.62 6.14,6.37 1.44,2.76 2.16,5.89 2.16,9.39zm-11.2 0.3c0,-2.88 -0.55,-5.14 -1.66,-6.8 -1.11,-1.66 -2.62,-2.49 -4.54,-2.49 -2.1,0 -3.73,0.8 -4.9,2.39 -1.17,1.59 -1.75,3.84 -1.75,6.76 0,2.84 0.58,5.06 1.74,6.65 1.16,1.6 2.74,2.4 4.74,2.4 1.22,0 2.32,-0.36 3.29,-1.08 0.98,-0.72 1.73,-1.74 2.27,-3.07 0.54,-1.34 0.81,-2.92 0.81,-4.76z"/>
  <path class="fil9" d="M2178.53 1785.74c0,3.15 -1.1,5.57 -3.31,7.29 -2.21,1.7 -5.36,2.55 -9.46,2.55l-14.64 0 0 -32.08 13.63 0c8.52,0 12.77,2.59 12.77,7.76 0,1.13 -0.27,2.15 -0.81,3.08 -0.53,0.93 -1.35,1.75 -2.45,2.45 -1.09,0.71 -2.3,1.18 -3.61,1.43l0 0.09c1.52,0.18 2.88,0.63 4.1,1.35 1.21,0.73 2.14,1.63 2.79,2.71 0.66,1.08 0.99,2.21 0.99,3.37zm-11.28 -12.81c0,-1.97 -1.55,-2.97 -4.67,-2.97l-1.79 0 0 6.05 2.8 0c1.07,0 1.95,-0.29 2.63,-0.86 0.69,-0.57 1.03,-1.31 1.03,-2.22zm1.01 12.77c0,-0.92 -0.33,-1.69 -1.01,-2.28 -0.67,-0.6 -1.55,-0.9 -2.65,-0.9l-3.81 0 0 6.56 3.23 0c1.3,0 2.34,-0.31 3.1,-0.91 0.76,-0.61 1.14,-1.43 1.14,-2.47z"/>
  <polygon id="1" class="fil9" points="2182.79,1795.58 2182.79,1763.5 2192.46,1763.5 2192.46,1788.02 2203.51,1788.02 2203.51,1795.58 "/>
  <path id="2" class="fil9" d="M2238.11 1779.44c0,3.23 -0.69,6.11 -2.07,8.65 -1.39,2.54 -3.34,4.52 -5.83,5.93 -2.49,1.41 -5.27,2.12 -8.37,2.12 -3.01,0 -5.75,-0.69 -8.22,-2.05 -2.46,-1.37 -4.39,-3.29 -5.76,-5.75 -1.37,-2.47 -2.06,-5.27 -2.06,-8.38 0,-3.27 0.7,-6.21 2.08,-8.82 1.39,-2.61 3.34,-4.63 5.84,-6.05 2.51,-1.43 5.36,-2.14 8.55,-2.14 3.07,0 5.82,0.68 8.24,2.05 2.43,1.37 4.3,3.31 5.62,5.84 1.33,2.53 1.98,5.39 1.98,8.6zm-10.26 0.28c0,-2.64 -0.51,-4.71 -1.52,-6.23 -1.02,-1.53 -2.4,-2.29 -4.16,-2.29 -1.92,0 -3.42,0.73 -4.49,2.19 -1.08,1.46 -1.61,3.52 -1.61,6.2 0,2.6 0.53,4.64 1.59,6.1 1.07,1.46 2.52,2.2 4.35,2.2 1.12,0 2.12,-0.33 3.02,-0.99 0.89,-0.66 1.59,-1.6 2.08,-2.82 0.49,-1.22 0.74,-2.67 0.74,-4.36z"/>
  <path id="3" class="fil9" d="M2273.18 1779.44c0,4.97 -1.6,9.06 -4.81,12.26l8.48 8.19 -12.13 0 -4.07 -4.12c-1.19,0.24 -2.44,0.37 -3.74,0.37 -3.01,0 -5.75,-0.69 -8.22,-2.05 -2.46,-1.37 -4.39,-3.29 -5.76,-5.75 -1.37,-2.47 -2.06,-5.27 -2.06,-8.38 0,-3.27 0.7,-6.21 2.08,-8.82 1.39,-2.61 3.34,-4.63 5.84,-6.05 2.51,-1.43 5.36,-2.14 8.55,-2.14 3.07,0 5.82,0.68 8.24,2.05 2.43,1.37 4.3,3.31 5.63,5.84 1.32,2.52 1.97,5.39 1.97,8.6zm-10.26 0.28c0,-2.64 -0.51,-4.71 -1.52,-6.23 -1.02,-1.53 -2.4,-2.29 -4.16,-2.29 -1.92,0 -3.42,0.73 -4.49,2.19 -1.08,1.46 -1.61,3.52 -1.61,6.2 0,2.6 0.53,4.64 1.59,6.1 1.07,1.46 2.52,2.2 4.35,2.2 1.75,0 3.16,-0.75 4.23,-2.22 1.07,-1.47 1.61,-3.46 1.61,-5.95z"/>
  <path id="4" class="fil9" d="M2305.69 1780.93c0,5.14 -1.18,8.96 -3.52,11.46 -2.36,2.5 -5.98,3.75 -10.87,3.75 -4.56,0 -8.03,-1.25 -10.39,-3.75 -2.36,-2.5 -3.55,-6.26 -3.55,-11.29l0 -17.6 9.72 0 0 17.97c0,2.05 0.38,3.63 1.15,4.75 0.77,1.11 1.87,1.67 3.31,1.67 1.44,0 2.54,-0.52 3.3,-1.57 0.76,-1.05 1.13,-2.59 1.13,-4.63l0 -18.19 9.72 0 0 17.43z"/>
  <polygon id="5" class="fil9" points="2311.65,1795.58 2311.65,1763.5 2331.63,1763.5 2331.63,1771.06 2321.33,1771.06 2321.33,1775.74 2331,1775.74 2331,1783.3 2321.33,1783.3 2321.33,1788.02 2332.37,1788.02 2332.37,1795.58 "/>
  <path id="6" class="fil9" d="M2357.07 1795.58l-1.42 -5.91 -9.58 0 -1.52 5.91 -10.45 0 11.06 -32.08 12 0 10.4 32.08 -10.49 0zm-6.11 -25.11l-0.22 0c-0.03,0.36 -0.13,0.94 -0.31,1.76 -0.18,0.83 -1.09,4.35 -2.71,10.57l6.14 0 -2.24 -8.73c-0.31,-1.28 -0.53,-2.49 -0.66,-3.6z"/>
  <path id="7" class="fil9" d="M2401.57 1779.14c0,3.25 -0.68,6.12 -2.05,8.62 -1.36,2.5 -3.31,4.43 -5.85,5.78 -2.53,1.36 -5.46,2.04 -8.77,2.04l-13.58 0 0 -32.08 13.29 0c11.31,0 16.96,5.21 16.96,15.64zm-10.27 0.09c0,-1.57 -0.31,-2.98 -0.94,-4.23 -0.64,-1.26 -1.55,-2.22 -2.72,-2.91 -1.18,-0.68 -2.57,-1.03 -4.17,-1.03l-2.48 0 0 16.96 2.71 0c2.31,0 4.16,-0.79 5.53,-2.38 1.39,-1.59 2.07,-3.73 2.07,-6.41z"/>
  <path id="8" class="fil9" d="M2436.63 1779.44c0,3.23 -0.7,6.11 -2.08,8.65 -1.39,2.54 -3.33,4.52 -5.82,5.93 -2.49,1.41 -5.28,2.12 -8.38,2.12 -3,0 -5.75,-0.69 -8.21,-2.05 -2.47,-1.37 -4.4,-3.29 -5.77,-5.75 -1.37,-2.47 -2.06,-5.27 -2.06,-8.38 0,-3.27 0.7,-6.21 2.08,-8.82 1.39,-2.61 3.34,-4.63 5.84,-6.05 2.51,-1.43 5.36,-2.14 8.55,-2.14 3.07,0 5.82,0.68 8.25,2.05 2.42,1.37 4.3,3.31 5.62,5.84 1.32,2.53 1.98,5.39 1.98,8.6zm-10.27 0.28c0,-2.64 -0.5,-4.71 -1.52,-6.23 -1.02,-1.53 -2.4,-2.29 -4.16,-2.29 -1.92,0 -3.42,0.73 -4.49,2.19 -1.08,1.46 -1.61,3.52 -1.61,6.2 0,2.6 0.53,4.64 1.6,6.1 1.07,1.46 2.51,2.2 4.34,2.2 1.13,0 2.13,-0.33 3.02,-0.99 0.89,-0.66 1.59,-1.6 2.08,-2.82 0.49,-1.22 0.74,-2.67 0.74,-4.36z"/>
  <path id="9" class="fil9" d="M2173.4 1846.83c0,2.14 -0.58,3.99 -1.71,5.57 -1.14,1.58 -2.75,2.76 -4.8,3.54 -2.06,0.77 -4.53,1.16 -7.43,1.16 -3.35,0 -6.42,-0.56 -9.21,-1.7l0 -8.8c1.34,0.99 2.83,1.79 4.45,2.4 1.63,0.6 3.14,0.9 4.55,0.9 1.05,0 1.88,-0.19 2.46,-0.57 0.58,-0.38 0.87,-0.93 0.87,-1.66 0,-0.52 -0.15,-0.99 -0.44,-1.38 -0.29,-0.4 -0.73,-0.76 -1.32,-1.11 -0.59,-0.34 -1.68,-0.81 -3.28,-1.41 -5.17,-1.99 -7.75,-5.19 -7.75,-9.62 0,-3.11 1.18,-5.59 3.54,-7.44 2.35,-1.86 5.51,-2.79 9.49,-2.79 1.11,0 2.14,0.04 3.08,0.14 0.94,0.08 1.8,0.19 2.57,0.32 0.76,0.14 1.84,0.39 3.23,0.77l0 8.16c-2.7,-1.46 -5.35,-2.2 -7.97,-2.2 -1.07,0 -1.94,0.2 -2.59,0.61 -0.66,0.4 -0.99,0.95 -0.99,1.65 0,0.67 0.27,1.23 0.79,1.67 0.53,0.44 1.64,1.01 3.33,1.71 3.32,1.34 5.67,2.81 7.06,4.41 1.38,1.59 2.07,3.48 2.07,5.67z"/>
  <path id="10" class="fil9" d="M2205.29 1841.89c0,5.14 -1.18,8.97 -3.52,11.47 -2.35,2.5 -5.98,3.74 -10.86,3.74 -4.57,0 -8.03,-1.24 -10.4,-3.74 -2.36,-2.5 -3.55,-6.27 -3.55,-11.29l0 -17.6 9.72 0 0 17.96c0,2.06 0.38,3.64 1.15,4.76 0.78,1.1 1.88,1.66 3.31,1.66 1.45,0 2.55,-0.52 3.3,-1.56 0.76,-1.05 1.13,-2.6 1.13,-4.63l0 -18.19 9.72 0 0 17.42z"/>
  <path id="11" class="fil9" d="M2233.53 1846.83c0,2.14 -0.57,3.99 -1.71,5.57 -1.14,1.58 -2.74,2.76 -4.8,3.54 -2.05,0.77 -4.53,1.16 -7.42,1.16 -3.36,0 -6.43,-0.56 -9.22,-1.7l0 -8.8c1.35,0.99 2.83,1.79 4.46,2.4 1.63,0.6 3.14,0.9 4.54,0.9 1.06,0 1.88,-0.19 2.46,-0.57 0.58,-0.38 0.87,-0.93 0.87,-1.66 0,-0.52 -0.14,-0.99 -0.43,-1.38 -0.29,-0.4 -0.73,-0.76 -1.32,-1.11 -0.59,-0.34 -1.68,-0.81 -3.29,-1.41 -5.16,-1.99 -7.74,-5.19 -7.74,-9.62 0,-3.11 1.17,-5.59 3.53,-7.44 2.36,-1.86 5.52,-2.79 9.49,-2.79 1.12,0 2.15,0.04 3.09,0.14 0.94,0.08 1.79,0.19 2.56,0.32 0.77,0.14 1.84,0.39 3.24,0.77l0 8.16c-2.71,-1.46 -5.36,-2.2 -7.97,-2.2 -1.08,0 -1.94,0.2 -2.6,0.61 -0.66,0.4 -0.99,0.95 -0.99,1.65 0,0.67 0.27,1.23 0.8,1.67 0.53,0.44 1.63,1.01 3.32,1.71 3.33,1.34 5.68,2.81 7.06,4.41 1.38,1.59 2.07,3.48 2.07,5.67z"/>
  <path id="12" class="fil9" d="M2263.68 1835.05c0,2.19 -0.55,4.14 -1.66,5.84 -1.11,1.7 -2.7,3.02 -4.75,3.95 -2.06,0.93 -4.46,1.4 -7.19,1.4l-2.94 0 0 10.31 -9.67 0 0 -32.08 13.15 0c4.51,0 7.82,0.85 9.92,2.57 2.1,1.71 3.14,4.39 3.14,8.01zm-10.22 0.33c0,-1.32 -0.38,-2.31 -1.14,-2.98 -0.76,-0.68 -1.88,-1.01 -3.35,-1.01l-1.83 0 0 7.93 2.17 0c2.77,0 4.15,-1.32 4.15,-3.94z"/>
  <polygon id="13" class="fil9" points="2267.52,1856.55 2267.52,1824.47 2287.5,1824.47 2287.5,1832.03 2277.2,1832.03 2277.2,1836.7 2286.87,1836.7 2286.87,1844.27 2277.2,1844.27 2277.2,1848.99 2288.24,1848.99 2288.24,1856.55 "/>
  <path id="14" class="fil9" d="M2315.23 1856.55l-11.33 -15.48c-0.89,-1.23 -1.63,-2.33 -2.19,-3.31l-0.09 0c0.09,1.58 0.13,3.35 0.13,5.32l0 13.47 -8.93 0 0 -32.08 9.13 0 10.86 14.72c0.13,0.19 0.3,0.42 0.49,0.69 0.19,0.27 0.39,0.55 0.58,0.83 0.2,0.28 0.38,0.55 0.55,0.82 0.17,0.27 0.3,0.51 0.39,0.72l0.09 0c-0.09,-0.66 -0.14,-1.79 -0.14,-3.4l0 -14.38 8.94 0 0 32.08 -8.48 0z"/>
  <path id="15" class="fil9" d="M2360.28 1840.1c0,3.26 -0.68,6.13 -2.04,8.63 -1.37,2.5 -3.32,4.43 -5.86,5.78 -2.53,1.36 -5.46,2.04 -8.77,2.04l-13.58 0 0 -32.08 13.29 0c11.31,0 16.96,5.21 16.96,15.63zm-10.26 0.1c0,-1.57 -0.32,-2.98 -0.95,-4.24 -0.64,-1.25 -1.54,-2.21 -2.72,-2.9 -1.18,-0.69 -2.57,-1.03 -4.16,-1.03l-2.49 0 0 16.96 2.71 0c2.31,0 4.16,-0.8 5.54,-2.39 1.38,-1.58 2.07,-3.72 2.07,-6.4z"/>
  <polygon id="16" class="fil9" points="2364.81,1856.55 2364.81,1824.47 2374.48,1824.47 2374.48,1856.55 "/>
  <path id="17" class="fil9" d="M2411.04 1840.1c0,3.26 -0.68,6.13 -2.04,8.63 -1.37,2.5 -3.32,4.43 -5.86,5.78 -2.53,1.36 -5.46,2.04 -8.76,2.04l-13.59 0 0 -32.08 13.29 0c11.31,0 16.96,5.21 16.96,15.63zm-10.26 0.1c0,-1.57 -0.32,-2.98 -0.95,-4.24 -0.63,-1.25 -1.54,-2.21 -2.72,-2.9 -1.18,-0.69 -2.57,-1.03 -4.16,-1.03l-2.49 0 0 16.96 2.71 0c2.31,0 4.16,-0.8 5.54,-2.39 1.38,-1.58 2.07,-3.72 2.07,-6.4z"/>
  <path id="18" class="fil9" d="M2446.1 1840.41c0,3.22 -0.7,6.1 -2.08,8.65 -1.39,2.54 -3.33,4.52 -5.82,5.92 -2.49,1.42 -5.28,2.12 -8.37,2.12 -3.01,0 -5.75,-0.68 -8.22,-2.05 -2.47,-1.36 -4.39,-3.28 -5.77,-5.75 -1.37,-2.47 -2.05,-5.26 -2.05,-8.38 0,-3.27 0.69,-6.2 2.07,-8.81 1.39,-2.62 3.34,-4.63 5.85,-6.05 2.5,-1.43 5.35,-2.14 8.54,-2.14 3.08,0 5.83,0.68 8.25,2.04 2.43,1.37 4.3,3.32 5.62,5.85 1.32,2.53 1.98,5.39 1.98,8.6zm-10.27 0.28c0,-2.64 -0.5,-4.72 -1.52,-6.24 -1.01,-1.52 -2.4,-2.28 -4.15,-2.28 -1.93,0 -3.43,0.73 -4.5,2.19 -1.07,1.46 -1.61,3.52 -1.61,6.2 0,2.6 0.54,4.64 1.6,6.1 1.07,1.46 2.51,2.19 4.35,2.19 1.12,0 2.12,-0.33 3.01,-0.99 0.9,-0.65 1.59,-1.59 2.08,-2.81 0.5,-1.23 0.74,-2.68 0.74,-4.36z"/>
  <polygon class="fil3" points="1633.65,1460.42 1633.65,1425.42 1644.2,1425.42 1644.2,1460.42 "/>
  <path id="1" class="fil3" d="M1666.34 1460.42l0 -13.65c0,-1.55 -0.24,-2.66 -0.7,-3.33 -0.46,-0.68 -1.21,-1.02 -2.25,-1.02 -0.9,0 -1.6,0.35 -2.1,1.05 -0.5,0.7 -0.75,1.6 -0.75,2.68l0 14.27 -10.4 0 0 -25 10.4 0 0 3.9 0.1 0c0.82,-1.43 1.94,-2.53 3.34,-3.32 1.4,-0.79 2.91,-1.18 4.56,-1.18 5.46,0 8.2,3.45 8.2,10.35l0 15.25 -10.4 0z"/>
  <path id="2" class="fil3" d="M1699.04 1460.07c-0.48,0.22 -1.25,0.44 -2.32,0.64 -1.08,0.21 -2.37,0.31 -3.88,0.31 -2.9,0 -5.16,-0.8 -6.8,-2.39 -1.64,-1.59 -2.45,-3.87 -2.45,-6.81l0 -9.2 -3.95 0 0 -7.2 3.95 0 0 -4.92 10.25 -2.83 0 7.75 5.2 0 0 7.2 -5.2 0 0 7.5c0,2.2 0.87,3.3 2.61,3.3 0.81,0 1.68,-0.18 2.59,-0.55l0 7.2z"/>
  <path id="3" class="fil3" d="M1711.24 1450.87c0.18,1.08 0.8,1.92 1.85,2.53 1.06,0.61 2.46,0.92 4.2,0.92 2.43,0 4.73,-0.47 6.9,-1.4l0 6.58c-2.53,1.01 -5.59,1.52 -9.19,1.52 -4.36,0 -7.75,-1.12 -10.17,-3.34 -2.43,-2.23 -3.64,-5.29 -3.64,-9.2 0,-2.68 0.53,-5.05 1.6,-7.1 1.06,-2.04 2.64,-3.65 4.73,-4.82 2.09,-1.16 4.39,-1.74 6.92,-1.74 2.58,0 4.8,0.5 6.64,1.51 1.83,1.01 3.23,2.42 4.18,4.25 0.95,1.81 1.43,3.95 1.43,6.39l0 3.9 -15.45 0zm6.25 -5.45c0,-2.87 -1.04,-4.3 -3.1,-4.3 -0.87,0 -1.59,0.39 -2.18,1.17 -0.58,0.8 -0.92,1.83 -1.02,3.13l6.3 0z"/>
  <path id="4" class="fil3" d="M1749.08 1444.32c-0.39,-0.17 -0.91,-0.34 -1.58,-0.48 -0.67,-0.14 -1.22,-0.22 -1.67,-0.22 -3.43,0 -5.15,1.98 -5.15,5.96l0 10.84 -10.39 0 0 -25 10.39 0 0 4.4 0.11 0c0.63,-1.58 1.53,-2.79 2.7,-3.62 1.18,-0.82 2.55,-1.23 4.1,-1.23 0.58,0 1.07,0.1 1.49,0.29l0 9.06z"/>
  <path id="5" class="fil3" d="M1772.68 1459.7c-0.66,0.39 -1.71,0.71 -3.15,0.95 -1.43,0.24 -3.08,0.37 -4.95,0.37 -2.64,0 -5,-0.53 -7.06,-1.6 -2.08,-1.07 -3.69,-2.56 -4.83,-4.47 -1.14,-1.92 -1.71,-4.08 -1.71,-6.47 0,-2.86 0.61,-5.31 1.82,-7.35 1.22,-2.04 2.94,-3.61 5.19,-4.69 2.24,-1.08 4.85,-1.62 7.81,-1.62 1.63,0 3.09,0.11 4.38,0.32 1.3,0.2 2.13,0.46 2.5,0.73l0 8.1c-0.51,-0.41 -1.26,-0.77 -2.24,-1.08 -0.97,-0.31 -1.88,-0.47 -2.71,-0.47 -2.03,0 -3.57,0.48 -4.62,1.46 -1.05,0.96 -1.58,2.33 -1.58,4.09 0,1.73 0.52,3.07 1.55,4.02 1.04,0.95 2.45,1.43 4.26,1.43 1.94,0 3.72,-0.47 5.34,-1.4l0 7.68z"/>
  <path id="6" class="fil3" d="M1790.69 1460.42l0 -3.8 -0.1 0c-1.66,2.93 -4.19,4.4 -7.61,4.4 -2.35,0 -4.2,-0.7 -5.54,-2.1 -1.33,-1.4 -2,-3.27 -2,-5.61 0,-4.91 3.02,-7.76 9.05,-8.53l6.2 -0.81c0,-0.82 -0.36,-1.49 -1.1,-2.02 -0.72,-0.52 -1.71,-0.78 -2.95,-0.78 -2.79,0 -5.74,0.8 -8.85,2.4l0 -6.75c1.35,-0.58 3.04,-1.07 5.08,-1.44 2.03,-0.38 3.77,-0.56 5.22,-0.56 4.24,0 7.33,0.91 9.24,2.73 1.9,1.8 2.86,4.84 2.86,9.08l0 13.79 -9.5 0zm-6.15 -8.49c0,0.68 0.22,1.24 0.65,1.68 0.43,0.44 1.04,0.66 1.84,0.66 1.1,0 1.97,-0.41 2.65,-1.23 0.67,-0.8 1.01,-1.84 1.01,-3.12l0 -0.95 -3.51 0.49c-1.76,0.29 -2.64,1.11 -2.64,2.47z"/>
  <path id="7" class="fil3" d="M1837.29 1460.42l0 -14.41c0,-1.21 -0.21,-2.11 -0.64,-2.7 -0.43,-0.59 -1.13,-0.89 -2.11,-0.89 -0.96,0 -1.71,0.36 -2.24,1.08 -0.54,0.73 -0.81,1.74 -0.81,3.02l0 13.9 -10.4 0 0 -14.17c0,-2.55 -0.86,-3.83 -2.61,-3.83 -1.05,0 -1.85,0.37 -2.38,1.11 -0.54,0.74 -0.81,1.81 -0.81,3.19l0 13.7 -10.4 0 0 -25 10.4 0 0 3.95 0.1 0c0.39,-0.7 1.01,-1.41 1.87,-2.12 0.85,-0.73 1.82,-1.31 2.89,-1.76 1.07,-0.45 2.23,-0.67 3.48,-0.67 1.78,0 3.27,0.35 4.49,1.05 1.21,0.69 2.21,1.8 3.03,3.31 0.88,-1.4 2.05,-2.48 3.52,-3.23 1.46,-0.76 3.1,-1.13 4.89,-1.13 2.62,0 4.63,0.85 6.03,2.56 1.4,1.71 2.1,4.17 2.1,7.4l0 15.64 -10.4 0z"/>
  <path id="8" class="fil3" d="M1880.6 1447.16c0,2.73 -0.45,5.15 -1.36,7.26 -0.9,2.11 -2.18,3.73 -3.84,4.88 -1.66,1.14 -3.54,1.72 -5.64,1.72 -1.61,0 -2.99,-0.3 -4.14,-0.89 -1.15,-0.59 -2.05,-1.37 -2.72,-2.31l-0.1 0 0 2.6 -10.4 0 0 -37 10.4 0 0 15.4 0.1 0c0.81,-1.23 1.92,-2.21 3.31,-2.92 1.39,-0.72 2.92,-1.08 4.6,-1.08 3.16,0 5.58,1.05 7.27,3.15 1.68,2.09 2.52,5.16 2.52,9.19zm-10.55 0.32c0,-1.68 -0.33,-2.94 -0.97,-3.78 -0.64,-0.86 -1.56,-1.28 -2.76,-1.28 -1.06,0 -1.95,0.44 -2.65,1.33 -0.71,0.89 -1.06,2.05 -1.06,3.46l0 1.52c0,1.43 0.32,2.57 0.95,3.41 0.63,0.86 1.48,1.28 2.56,1.28 1.25,0 2.22,-0.52 2.9,-1.55 0.69,-1.03 1.03,-2.5 1.03,-4.39z"/>
  <path id="9" class="fil3" d="M1895.52 1428.69c0,1.46 -0.54,2.65 -1.6,3.56 -1.07,0.91 -2.47,1.37 -4.21,1.37 -1.69,0 -3.08,-0.48 -4.16,-1.42 -1.08,-0.94 -1.62,-2.11 -1.62,-3.51 0,-1.44 0.52,-2.6 1.57,-3.49 1.05,-0.89 2.45,-1.33 4.21,-1.33 1.74,0 3.14,0.44 4.21,1.33 1.06,0.89 1.6,2.05 1.6,3.49zm-11.01 31.73l0 -25 10.4 0 0 25 -10.4 0z"/>
  <path id="10" class="fil3" d="M1913.77 1460.42l0 -3.8 -0.1 0c-1.66,2.93 -4.2,4.4 -7.61,4.4 -2.36,0 -4.21,-0.7 -5.54,-2.1 -1.34,-1.4 -2,-3.27 -2,-5.61 0,-4.91 3.01,-7.76 9.05,-8.53l6.2 -0.81c0,-0.82 -0.37,-1.49 -1.1,-2.02 -0.73,-0.52 -1.71,-0.78 -2.95,-0.78 -2.8,0 -5.74,0.8 -8.85,2.4l0 -6.75c1.35,-0.58 3.04,-1.07 5.07,-1.44 2.03,-0.38 3.78,-0.56 5.23,-0.56 4.24,0 7.32,0.91 9.23,2.73 1.91,1.8 2.87,4.84 2.87,9.08l0 13.79 -9.5 0zm-6.15 -8.49c0,0.68 0.21,1.24 0.65,1.68 0.42,0.44 1.04,0.66 1.84,0.66 1.09,0 1.97,-0.41 2.64,-1.23 0.68,-0.8 1.02,-1.84 1.02,-3.12l0 -0.95 -3.52 0.49c-1.76,0.29 -2.63,1.11 -2.63,2.47z"/>
  <path id="11" class="fil3" d="M1946.77 1444.32c-0.4,-0.17 -0.92,-0.34 -1.59,-0.48 -0.67,-0.14 -1.22,-0.22 -1.66,-0.22 -3.44,0 -5.15,1.98 -5.15,5.96l0 10.84 -10.4 0 0 -25 10.4 0 0 4.4 0.1 0c0.63,-1.58 1.53,-2.79 2.71,-3.62 1.17,-0.82 2.54,-1.23 4.1,-1.23 0.57,0 1.06,0.1 1.49,0.29l0 9.06z"/>
  <path class="fil4" d="M1844.41 1766.03c0,2.96 -0.62,5.57 -1.87,7.84 -1.24,2.27 -3.01,4.03 -5.32,5.26 -2.3,1.24 -4.96,1.85 -7.97,1.85l-12.35 0 0 -29.16 12.09 0c10.28,0 15.42,4.73 15.42,14.21zm-9.34 0.09c0,-1.43 -0.28,-2.71 -0.86,-3.85 -0.58,-1.14 -1.4,-2.02 -2.47,-2.64 -1.07,-0.63 -2.33,-0.94 -3.79,-0.94l-2.25 0 0 15.42 2.45 0c2.11,0 3.79,-0.72 5.04,-2.17 1.26,-1.44 1.88,-3.39 1.88,-5.82z"/>
  <path id="1" class="fil4" d="M1855.19 1773.03c0.15,0.89 0.67,1.59 1.55,2.11 0.88,0.5 2.05,0.76 3.5,0.76 2.02,0 3.94,-0.39 5.74,-1.17l0 5.49c-2.1,0.84 -4.65,1.26 -7.65,1.26 -3.63,0 -6.46,-0.93 -8.48,-2.78 -2.02,-1.85 -3.04,-4.41 -3.04,-7.67 0,-2.23 0.45,-4.21 1.34,-5.91 0.89,-1.71 2.2,-3.05 3.94,-4.02 1.75,-0.96 3.66,-1.45 5.77,-1.45 2.15,0 4,0.42 5.53,1.26 1.53,0.84 2.7,2.02 3.49,3.54 0.79,1.51 1.19,3.29 1.19,5.33l0 3.25 -12.88 0zm5.21 -4.55c0,-2.39 -0.86,-3.58 -2.59,-3.58 -0.72,0 -1.31,0.33 -1.81,0.98 -0.48,0.66 -0.77,1.52 -0.85,2.6l5.25 0z"/>
  <path id="2" class="fil4" d="M1887.98 1774.06c0,2.35 -0.89,4.19 -2.69,5.48 -1.8,1.3 -4.3,1.94 -7.52,1.94 -0.93,0 -2.09,-0.09 -3.46,-0.28 -1.38,-0.19 -2.5,-0.42 -3.37,-0.69l0 -6.07c2.56,1.14 4.7,1.71 6.42,1.71 1.69,0 2.54,-0.44 2.54,-1.32 0,-0.37 -0.2,-0.67 -0.59,-0.91 -0.39,-0.24 -1.42,-0.63 -3.09,-1.19 -1.84,-0.58 -3.18,-1.36 -4.02,-2.32 -0.84,-0.96 -1.26,-2.22 -1.26,-3.76 0,-2.16 0.86,-3.86 2.58,-5.12 1.71,-1.25 4.12,-1.88 7.23,-1.88 1.82,0 3.74,0.26 5.77,0.79l0 5.84c-0.85,-0.37 -1.79,-0.68 -2.81,-0.93 -1.01,-0.24 -1.87,-0.37 -2.56,-0.37 -0.57,0 -1.03,0.1 -1.37,0.29 -0.34,0.19 -0.51,0.45 -0.51,0.79 0,0.4 0.18,0.72 0.55,0.96 0.37,0.24 1.1,0.53 2.2,0.87 2.13,0.63 3.66,1.43 4.58,2.41 0.92,0.97 1.38,2.23 1.38,3.76z"/>
  <path id="3" class="fil4" d="M1914.68 1769.93c0,2.28 -0.37,4.3 -1.13,6.05 -0.75,1.76 -1.82,3.12 -3.2,4.07 -1.38,0.96 -2.95,1.43 -4.7,1.43 -1.34,0 -2.5,-0.25 -3.45,-0.74 -0.95,-0.49 -1.71,-1.14 -2.27,-1.92l-0.08 0 0 2.16 -8.67 0 0 -30.83 8.67 0 0 12.83 0.08 0c0.68,-1.02 1.6,-1.84 2.76,-2.43 1.16,-0.6 2.44,-0.9 3.83,-0.9 2.63,0 4.66,0.88 6.06,2.63 1.4,1.74 2.1,4.29 2.1,7.65zm-8.79 0.27c0,-1.4 -0.27,-2.45 -0.8,-3.15 -0.54,-0.71 -1.31,-1.07 -2.31,-1.07 -0.88,0 -1.62,0.37 -2.21,1.12 -0.59,0.73 -0.88,1.7 -0.88,2.88l0 1.26c0,1.2 0.26,2.15 0.79,2.85 0.53,0.71 1.24,1.06 2.13,1.06 1.05,0 1.86,-0.43 2.43,-1.29 0.57,-0.86 0.85,-2.08 0.85,-3.66z"/>
  <polygon id="4" class="fil4" points="1917.94,1780.98 1917.94,1750.15 1926.61,1750.15 1926.61,1780.98 "/>
  <path id="5" class="fil4" d="M1953.95 1770.2c0,3.51 -1.06,6.27 -3.18,8.28 -2.13,2 -5.09,3 -8.91,3 -3.78,0 -6.73,-0.98 -8.84,-2.93 -2.1,-1.96 -3.16,-4.66 -3.16,-8.11 0,-2.21 0.5,-4.12 1.49,-5.75 0.99,-1.62 2.4,-2.87 4.23,-3.74 1.83,-0.87 3.94,-1.3 6.33,-1.3 2.46,0 4.6,0.45 6.41,1.36 1.82,0.91 3.2,2.17 4.18,3.79 0.96,1.61 1.45,3.41 1.45,5.4zm-8.79 0.04c0,-2.84 -1.09,-4.26 -3.25,-4.26 -2.17,0 -3.25,1.49 -3.25,4.46 0,3.14 1.09,4.71 3.29,4.71 2.14,0 3.21,-1.64 3.21,-4.91z"/>
  <path id="6" class="fil4" d="M1971.11 1790.57l0 -11.96 -0.09 0c-0.64,0.86 -1.52,1.55 -2.63,2.08 -1.1,0.53 -2.24,0.79 -3.41,0.79 -1.72,0 -3.23,-0.41 -4.55,-1.22 -1.3,-0.81 -2.32,-1.99 -3.06,-3.54 -0.73,-1.56 -1.1,-3.47 -1.1,-5.74 0,-2.25 0.41,-4.24 1.23,-5.96 0.81,-1.72 1.94,-3.05 3.39,-3.97 1.45,-0.93 3.06,-1.4 4.81,-1.4 2.36,0 4.14,0.89 5.32,2.67l0.09 0 0 -2.17 8.66 0 0 30.42 -8.66 0zm0.18 -20.55c0,-1.27 -0.27,-2.25 -0.82,-2.97 -0.55,-0.71 -1.28,-1.07 -2.19,-1.07 -0.95,0 -1.72,0.44 -2.32,1.31 -0.6,0.87 -0.9,2.03 -0.9,3.48 0,1.35 0.25,2.41 0.75,3.2 0.51,0.78 1.26,1.18 2.27,1.18 1,0 1.78,-0.4 2.35,-1.18 0.57,-0.79 0.86,-1.88 0.86,-3.28l0 -0.67z"/>
  <path id="7" class="fil4" d="M1997.2 1780.98l0 -3.2 -0.09 0c-0.71,0.98 -1.36,1.7 -1.93,2.16 -0.58,0.46 -1.23,0.84 -1.96,1.12 -0.72,0.29 -1.57,0.42 -2.53,0.42 -2.28,0 -4.01,-0.73 -5.2,-2.21 -1.2,-1.48 -1.79,-3.66 -1.79,-6.55l0 -12.57 8.66 0 0 11.92c0,2.05 0.77,3.08 2.29,3.08 0.85,0 1.48,-0.28 1.91,-0.83 0.42,-0.56 0.64,-1.35 0.64,-2.36l0 -11.81 8.66 0 0 20.83 -8.66 0z"/>
  <path id="8" class="fil4" d="M2017.49 1773.03c0.15,0.89 0.67,1.59 1.55,2.11 0.88,0.5 2.05,0.76 3.5,0.76 2.02,0 3.93,-0.39 5.74,-1.17l0 5.49c-2.1,0.84 -4.65,1.26 -7.65,1.26 -3.63,0 -6.46,-0.93 -8.48,-2.78 -2.02,-1.85 -3.04,-4.41 -3.04,-7.67 0,-2.23 0.45,-4.21 1.34,-5.91 0.89,-1.71 2.2,-3.05 3.94,-4.02 1.74,-0.96 3.66,-1.45 5.76,-1.45 2.16,0 4.01,0.42 5.54,1.26 1.53,0.84 2.69,2.02 3.49,3.54 0.79,1.51 1.18,3.29 1.18,5.33l0 3.25 -12.87 0zm5.21 -4.55c0,-2.39 -0.86,-3.58 -2.59,-3.58 -0.72,0 -1.32,0.33 -1.81,0.98 -0.49,0.66 -0.77,1.52 -0.85,2.6l5.25 0z"/>
  <path id="9" class="fil4" d="M2044.91 1780.98l0 -3.16 -0.09 0c-1.38,2.44 -3.49,3.66 -6.34,3.66 -1.96,0 -3.5,-0.58 -4.62,-1.75 -1.11,-1.16 -1.66,-2.72 -1.66,-4.67 0,-4.09 2.51,-6.46 7.54,-7.11l5.17 -0.67c0,-0.69 -0.31,-1.25 -0.92,-1.68 -0.61,-0.44 -1.43,-0.66 -2.46,-0.66 -2.33,0 -4.78,0.67 -7.37,2l0 -5.62c1.12,-0.49 2.53,-0.89 4.23,-1.2 1.69,-0.32 3.14,-0.47 4.35,-0.47 3.53,0 6.1,0.76 7.69,2.27 1.59,1.51 2.39,4.04 2.39,7.57l0 11.49 -7.91 0zm-5.13 -7.07c0,0.57 0.18,1.03 0.54,1.4 0.36,0.37 0.87,0.55 1.54,0.55 0.91,0 1.64,-0.34 2.2,-1.02 0.56,-0.68 0.85,-1.54 0.85,-2.61l0 -0.79 -2.93 0.41c-1.47,0.24 -2.2,0.93 -2.2,2.06z"/>
  <path id="10" class="fil4" d="M2072.41 1767.57c-0.33,-0.15 -0.77,-0.29 -1.32,-0.41 -0.57,-0.11 -1.02,-0.18 -1.39,-0.18 -2.86,0 -4.29,1.66 -4.29,4.97l0 9.03 -8.67 0 0 -20.83 8.67 0 0 3.67 0.08 0c0.53,-1.32 1.28,-2.33 2.26,-3.02 0.98,-0.68 2.11,-1.03 3.41,-1.03 0.48,0 0.89,0.09 1.25,0.25l0 7.55z"/>
  <path class="fil13" d="M2585.73 415.32l0 -19.18c0,-1.81 0.06,-3.79 0.17,-5.96l0.07 -1.61 -0.29 0c-0.52,2.75 -0.92,4.65 -1.19,5.71l-5.16 21.04 -9.91 0 -5.39 -20.79c-0.15,-0.52 -0.53,-2.51 -1.15,-5.96l-0.29 0c0.22,5.47 0.34,8.89 0.34,10.25l0 16.5 -9.25 0 0 -35 15.79 0 4.81 19c0.12,0.39 0.27,1.18 0.46,2.38 0.18,1.2 0.3,2.12 0.35,2.77l0.15 0c0.17,-1.48 0.46,-3.22 0.85,-5.24l4.49 -18.91 15.55 0 0 35 -10.4 0z"/>
  <path id="1" class="fil13" d="M2611.02 405.77c0.18,1.08 0.8,1.92 1.86,2.53 1.06,0.61 2.46,0.92 4.2,0.92 2.42,0 4.72,-0.47 6.89,-1.4l0 6.59c-2.52,1 -5.58,1.51 -9.18,1.51 -4.36,0 -7.75,-1.11 -10.18,-3.34 -2.42,-2.22 -3.64,-5.29 -3.64,-9.2 0,-2.68 0.53,-5.05 1.6,-7.1 1.07,-2.04 2.64,-3.65 4.74,-4.82 2.09,-1.16 4.39,-1.74 6.91,-1.74 2.58,0 4.8,0.5 6.64,1.51 1.84,1.01 3.24,2.43 4.19,4.25 0.95,1.82 1.42,3.95 1.42,6.39l0 3.9 -15.45 0zm6.25 -5.45c0,-2.86 -1.03,-4.3 -3.1,-4.3 -0.87,0 -1.58,0.39 -2.17,1.18 -0.59,0.79 -0.93,1.82 -1.03,3.12l6.3 0z"/>
  <path id="2" class="fil13" d="M2662.47 415.32l0 -14.41c0,-1.2 -0.22,-2.1 -0.64,-2.7 -0.43,-0.59 -1.13,-0.89 -2.11,-0.89 -0.96,0 -1.71,0.36 -2.24,1.08 -0.54,0.73 -0.81,1.74 -0.81,3.02l0 13.9 -10.4 0 0 -14.16c0,-2.56 -0.87,-3.84 -2.61,-3.84 -1.06,0 -1.85,0.37 -2.38,1.11 -0.54,0.74 -0.81,1.81 -0.81,3.19l0 13.7 -10.4 0 0 -25 10.4 0 0 3.95 0.1 0c0.39,-0.7 1.01,-1.41 1.87,-2.12 0.85,-0.73 1.81,-1.31 2.89,-1.76 1.07,-0.44 2.23,-0.67 3.48,-0.67 1.78,0 3.27,0.35 4.49,1.05 1.2,0.69 2.21,1.8 3.03,3.31 0.88,-1.4 2.05,-2.47 3.52,-3.22 1.46,-0.76 3.1,-1.14 4.89,-1.14 2.61,0 4.63,0.85 6.03,2.56 1.4,1.71 2.1,4.17 2.1,7.4l0 15.64 -10.4 0z"/>
  <path id="3" class="fil13" d="M2705.38 402.38c0,4.22 -1.28,7.53 -3.82,9.93 -2.55,2.41 -6.11,3.61 -10.68,3.61 -4.54,0 -8.08,-1.17 -10.61,-3.52 -2.52,-2.35 -3.79,-5.6 -3.79,-9.73 0,-2.65 0.59,-4.95 1.78,-6.9 1.18,-1.95 2.88,-3.45 5.08,-4.49 2.2,-1.04 4.72,-1.56 7.59,-1.56 2.96,0 5.52,0.54 7.7,1.63 2.17,1.1 3.84,2.61 5.01,4.55 1.15,1.93 1.74,4.09 1.74,6.48zm-10.55 0.05c0,-3.41 -1.3,-5.11 -3.9,-5.11 -2.6,0 -3.9,1.79 -3.9,5.35 0,3.77 1.31,5.65 3.95,5.65 2.56,0 3.85,-1.97 3.85,-5.89z"/>
  <path id="4" class="fil13" d="M2728.07 399.22c-0.39,-0.17 -0.92,-0.34 -1.58,-0.48 -0.68,-0.14 -1.23,-0.22 -1.67,-0.22 -3.43,0 -5.15,1.98 -5.15,5.96l0 10.84 -10.4 0 0 -25 10.4 0 0 4.4 0.1 0c0.63,-1.58 1.53,-2.79 2.71,-3.61 1.17,-0.83 2.54,-1.24 4.1,-1.24 0.57,0 1.06,0.1 1.49,0.29l0 9.06z"/>
  <path id="5" class="fil13" d="M2742.08 383.59c0,1.46 -0.54,2.65 -1.6,3.56 -1.07,0.91 -2.47,1.37 -4.21,1.37 -1.69,0 -3.08,-0.47 -4.16,-1.41 -1.08,-0.95 -1.62,-2.12 -1.62,-3.52 0,-1.43 0.52,-2.6 1.57,-3.49 1.05,-0.89 2.45,-1.33 4.21,-1.33 1.74,0 3.14,0.44 4.21,1.33 1.06,0.89 1.6,2.06 1.6,3.49zm-11.01 31.73l0 -25 10.4 0 0 25 -10.4 0z"/>
  <path id="6" class="fil13" d="M2760.33 415.32l0 -3.8 -0.1 0c-1.66,2.93 -4.19,4.4 -7.61,4.4 -2.36,0 -4.21,-0.7 -5.54,-2.1 -1.34,-1.4 -2,-3.27 -2,-5.61 0,-4.9 3.01,-7.75 9.05,-8.53l6.2 -0.81c0,-0.81 -0.37,-1.49 -1.1,-2.01 -0.73,-0.53 -1.71,-0.79 -2.95,-0.79 -2.79,0 -5.74,0.8 -8.85,2.4l0 -6.75c1.35,-0.58 3.04,-1.06 5.07,-1.44 2.04,-0.37 3.78,-0.56 5.23,-0.56 4.24,0 7.32,0.91 9.23,2.73 1.91,1.81 2.87,4.84 2.87,9.08l0 13.79 -9.5 0zm-6.15 -8.49c0,0.68 0.21,1.24 0.65,1.68 0.42,0.45 1.04,0.66 1.84,0.66 1.09,0 1.97,-0.41 2.64,-1.22 0.68,-0.81 1.02,-1.85 1.02,-3.13l0 -0.95 -3.52 0.49c-1.76,0.3 -2.63,1.11 -2.63,2.47z"/>
  <path id="7" class="fil13" d="M2582.28 458.37c0,2.39 -0.61,4.52 -1.82,6.38 -1.21,1.86 -2.94,3.29 -5.18,4.3 -2.24,1.02 -4.86,1.53 -7.83,1.53l-3.22 0 0 11.25 -10.55 0 0 -35 14.35 0c4.92,0 8.53,0.93 10.82,2.81 2.29,1.86 3.43,4.78 3.43,8.73zm-11.15 0.36c0,-1.43 -0.42,-2.52 -1.24,-3.25 -0.84,-0.73 -2.05,-1.1 -3.66,-1.1l-2 0 0 8.65 2.37 0c3.02,0 4.53,-1.43 4.53,-4.3z"/>
  <path id="8" class="fil13" d="M2604.32 465.73c-0.39,-0.17 -0.92,-0.34 -1.58,-0.48 -0.68,-0.14 -1.23,-0.22 -1.67,-0.22 -3.43,0 -5.15,1.98 -5.15,5.96l0 10.84 -10.4 0 0 -25 10.4 0 0 4.4 0.1 0c0.63,-1.58 1.53,-2.79 2.71,-3.62 1.17,-0.82 2.54,-1.23 4.1,-1.23 0.57,0 1.07,0.1 1.49,0.29l0 9.06z"/>
  <path id="9" class="fil13" d="M2618.33 450.1c0,1.46 -0.54,2.65 -1.6,3.56 -1.07,0.91 -2.47,1.37 -4.21,1.37 -1.69,0 -3.08,-0.48 -4.16,-1.42 -1.08,-0.94 -1.62,-2.11 -1.62,-3.51 0,-1.44 0.52,-2.6 1.57,-3.49 1.05,-0.89 2.45,-1.33 4.21,-1.33 1.74,0 3.14,0.44 4.21,1.33 1.06,0.89 1.6,2.05 1.6,3.49zm-11.01 31.73l0 -25 10.4 0 0 25 -10.4 0z"/>
  <path id="10" class="fil13" d="M2638.93 481.83l0 -13.65c0,-1.55 -0.23,-2.66 -0.69,-3.33 -0.47,-0.68 -1.22,-1.02 -2.26,-1.02 -0.89,0 -1.59,0.35 -2.09,1.05 -0.51,0.7 -0.76,1.6 -0.76,2.68l0 14.27 -10.4 0 0 -25 10.4 0 0 3.9 0.1 0c0.82,-1.43 1.94,-2.53 3.34,-3.32 1.4,-0.79 2.92,-1.18 4.56,-1.18 5.47,0 8.2,3.45 8.2,10.35l0 15.25 -10.4 0z"/>
  <path id="11" class="fil13" d="M2674.63 481.11c-0.67,0.39 -1.72,0.71 -3.15,0.95 -1.44,0.24 -3.09,0.37 -4.95,0.37 -2.64,0 -5,-0.53 -7.07,-1.6 -2.07,-1.07 -3.68,-2.56 -4.82,-4.47 -1.15,-1.92 -1.71,-4.08 -1.71,-6.47 0,-2.86 0.61,-5.31 1.81,-7.35 1.22,-2.04 2.95,-3.61 5.2,-4.69 2.24,-1.08 4.85,-1.62 7.8,-1.62 1.63,0 3.1,0.11 4.39,0.32 1.29,0.2 2.12,0.46 2.5,0.73l0 8.1c-0.52,-0.41 -1.27,-0.77 -2.24,-1.08 -0.98,-0.31 -1.89,-0.47 -2.71,-0.47 -2.04,0 -3.58,0.48 -4.63,1.46 -1.05,0.96 -1.57,2.33 -1.57,4.09 0,1.73 0.51,3.07 1.55,4.02 1.03,0.95 2.45,1.43 4.26,1.43 1.93,0 3.71,-0.47 5.34,-1.4l0 7.68z"/>
  <path id="12" class="fil13" d="M2689.79 450.1c0,1.46 -0.53,2.65 -1.6,3.56 -1.06,0.91 -2.46,1.37 -4.2,1.37 -1.7,0 -3.09,-0.48 -4.16,-1.42 -1.09,-0.94 -1.63,-2.11 -1.63,-3.51 0,-1.44 0.53,-2.6 1.58,-3.49 1.05,-0.89 2.45,-1.33 4.21,-1.33 1.74,0 3.14,0.44 4.2,1.33 1.07,0.89 1.6,2.05 1.6,3.49zm-11 31.73l0 -25 10.4 0 0 25 -10.4 0z"/>
  <path id="13" class="fil13" d="M2722.39 468.57c0,2.73 -0.46,5.15 -1.39,7.25 -0.92,2.09 -2.24,3.73 -3.93,4.88 -1.69,1.15 -3.59,1.73 -5.71,1.73 -2.93,0 -5.16,-1.07 -6.66,-3.2l-0.1 0 0 14.1 -10.4 0 0 -36.5 10.4 0 0 3.4 0.1 0c0.82,-1.25 1.89,-2.23 3.21,-2.94 1.33,-0.71 2.82,-1.06 4.5,-1.06 3.22,0 5.69,1.08 7.41,3.22 1.72,2.15 2.57,5.19 2.57,9.12zm-10.55 0.32c0,-1.58 -0.3,-2.82 -0.91,-3.72 -0.61,-0.89 -1.55,-1.34 -2.82,-1.34 -1.11,0 -2,0.47 -2.68,1.42 -0.68,0.95 -1.03,2.24 -1.03,3.89l0 0.48c0,1.58 0.3,2.84 0.88,3.79 0.58,0.94 1.46,1.42 2.63,1.42 1.26,0 2.23,-0.52 2.91,-1.55 0.68,-1.03 1.02,-2.5 1.02,-4.39z"/>
  <path id="14" class="fil13" d="M2740.15 481.83l0 -3.8 -0.1 0c-1.66,2.93 -4.19,4.4 -7.6,4.4 -2.36,0 -4.21,-0.7 -5.55,-2.1 -1.33,-1.4 -2,-3.27 -2,-5.61 0,-4.91 3.02,-7.76 9.05,-8.53l6.2 -0.81c0,-0.82 -0.36,-1.49 -1.1,-2.02 -0.72,-0.52 -1.71,-0.78 -2.95,-0.78 -2.79,0 -5.74,0.8 -8.85,2.4l0 -6.75c1.35,-0.58 3.04,-1.07 5.08,-1.44 2.03,-0.38 3.77,-0.56 5.22,-0.56 4.25,0 7.33,0.91 9.24,2.73 1.91,1.8 2.86,4.84 2.86,9.08l0 13.79 -9.5 0zm-6.15 -8.49c0,0.68 0.22,1.24 0.65,1.68 0.43,0.44 1.04,0.66 1.85,0.66 1.09,0 1.96,-0.41 2.64,-1.23 0.67,-0.8 1.01,-1.84 1.01,-3.12l0 -0.95 -3.51 0.49c-1.76,0.29 -2.64,1.11 -2.64,2.47z"/>
  <polygon id="15" class="fil13" points="2754.35,481.83 2754.35,444.83 2764.75,444.83 2764.75,481.83 "/>
  <path class="fil13" d="M2585.73 1619.63l0 -19.19c0,-1.81 0.06,-3.79 0.17,-5.96l0.07 -1.6 -0.29 0c-0.52,2.75 -0.92,4.65 -1.19,5.7l-5.16 21.05 -9.91 0 -5.39 -20.8c-0.15,-0.52 -0.53,-2.5 -1.15,-5.95l-0.29 0c0.22,5.46 0.34,8.88 0.34,10.25l0 16.5 -9.25 0 0 -35 15.79 0 4.81 18.99c0.12,0.4 0.27,1.19 0.46,2.39 0.18,1.19 0.3,2.11 0.35,2.77l0.15 0c0.17,-1.49 0.46,-3.23 0.85,-5.25l4.49 -18.9 15.55 0 0 35 -10.4 0z"/>
  <path id="1" class="fil13" d="M2611.02 1610.07c0.18,1.08 0.8,1.92 1.86,2.54 1.06,0.61 2.46,0.91 4.2,0.91 2.42,0 4.72,-0.46 6.89,-1.39l0 6.58c-2.52,1.01 -5.58,1.52 -9.18,1.52 -4.36,0 -7.75,-1.12 -10.18,-3.35 -2.42,-2.22 -3.64,-5.29 -3.64,-9.2 0,-2.68 0.53,-5.05 1.6,-7.1 1.07,-2.04 2.64,-3.65 4.74,-4.81 2.09,-1.16 4.39,-1.74 6.91,-1.74 2.58,0 4.8,0.5 6.64,1.5 1.84,1.01 3.24,2.43 4.19,4.25 0.95,1.82 1.42,3.95 1.42,6.39l0 3.9 -15.45 0zm6.25 -5.44c0,-2.87 -1.03,-4.31 -3.1,-4.31 -0.87,0 -1.58,0.4 -2.17,1.18 -0.59,0.79 -0.93,1.82 -1.03,3.13l6.3 0z"/>
  <path id="2" class="fil13" d="M2662.47 1619.63l0 -14.41c0,-1.21 -0.22,-2.11 -0.64,-2.7 -0.43,-0.59 -1.13,-0.89 -2.11,-0.89 -0.96,0 -1.71,0.35 -2.24,1.08 -0.54,0.72 -0.81,1.73 -0.81,3.01l0 13.91 -10.4 0 0 -14.17c0,-2.56 -0.87,-3.83 -2.61,-3.83 -1.06,0 -1.85,0.36 -2.38,1.1 -0.54,0.74 -0.81,1.81 -0.81,3.2l0 13.7 -10.4 0 0 -25.01 10.4 0 0 3.96 0.1 0c0.39,-0.7 1.01,-1.41 1.87,-2.13 0.85,-0.72 1.81,-1.31 2.89,-1.76 1.07,-0.44 2.23,-0.66 3.48,-0.66 1.78,0 3.27,0.35 4.49,1.04 1.2,0.7 2.21,1.8 3.03,3.31 0.88,-1.4 2.05,-2.47 3.52,-3.22 1.46,-0.76 3.1,-1.13 4.89,-1.13 2.61,0 4.63,0.85 6.03,2.55 1.4,1.71 2.1,4.18 2.1,7.4l0 15.65 -10.4 0z"/>
  <path id="3" class="fil13" d="M2705.38 1606.68c0,4.22 -1.28,7.53 -3.82,9.94 -2.55,2.41 -6.11,3.61 -10.68,3.61 -4.54,0 -8.08,-1.18 -10.61,-3.53 -2.52,-2.35 -3.79,-5.59 -3.79,-9.72 0,-2.65 0.59,-4.95 1.78,-6.9 1.18,-1.95 2.88,-3.45 5.08,-4.5 2.2,-1.04 4.72,-1.55 7.59,-1.55 2.96,0 5.52,0.54 7.7,1.63 2.17,1.09 3.84,2.6 5.01,4.54 1.15,1.93 1.74,4.09 1.74,6.48zm-10.55 0.05c0,-3.41 -1.3,-5.1 -3.9,-5.1 -2.6,0 -3.9,1.78 -3.9,5.35 0,3.76 1.31,5.64 3.95,5.64 2.56,0 3.85,-1.96 3.85,-5.89z"/>
  <path id="4" class="fil13" d="M2728.07 1603.53c-0.39,-0.18 -0.92,-0.35 -1.58,-0.49 -0.68,-0.14 -1.23,-0.21 -1.67,-0.21 -3.43,0 -5.15,1.98 -5.15,5.95l0 10.85 -10.4 0 0 -25.01 10.4 0 0 4.41 0.1 0c0.63,-1.59 1.53,-2.8 2.71,-3.62 1.17,-0.83 2.54,-1.23 4.1,-1.23 0.57,0 1.06,0.1 1.49,0.29l0 9.06z"/>
  <path id="5" class="fil13" d="M2742.08 1587.89c0,1.47 -0.54,2.65 -1.6,3.57 -1.07,0.91 -2.47,1.37 -4.21,1.37 -1.69,0 -3.08,-0.48 -4.16,-1.42 -1.08,-0.94 -1.62,-2.12 -1.62,-3.52 0,-1.43 0.52,-2.6 1.57,-3.48 1.05,-0.89 2.45,-1.33 4.21,-1.33 1.74,0 3.14,0.44 4.21,1.33 1.06,0.88 1.6,2.05 1.6,3.48zm-11.01 31.74l0 -25.01 10.4 0 0 25.01 -10.4 0z"/>
  <path id="6" class="fil13" d="M2760.33 1619.63l0 -3.8 -0.1 0c-1.66,2.93 -4.19,4.4 -7.61,4.4 -2.36,0 -4.21,-0.71 -5.54,-2.1 -1.34,-1.4 -2,-3.27 -2,-5.61 0,-4.91 3.01,-7.76 9.05,-8.54l6.2 -0.81c0,-0.81 -0.37,-1.49 -1.1,-2.01 -0.73,-0.53 -1.71,-0.78 -2.95,-0.78 -2.79,0 -5.74,0.8 -8.85,2.4l0 -6.75c1.35,-0.59 3.04,-1.07 5.07,-1.45 2.04,-0.37 3.78,-0.55 5.23,-0.55 4.24,0 7.32,0.9 9.23,2.72 1.91,1.81 2.87,4.84 2.87,9.08l0 13.8 -9.5 0zm-6.15 -8.5c0,0.69 0.21,1.25 0.65,1.69 0.42,0.44 1.04,0.66 1.84,0.66 1.09,0 1.97,-0.41 2.64,-1.23 0.68,-0.81 1.02,-1.85 1.02,-3.12l0 -0.95 -3.52 0.49c-1.76,0.29 -2.63,1.1 -2.63,2.46z"/>
  <path id="7" class="fil13" d="M2577.98 1675.53c0,2.33 -0.63,4.35 -1.87,6.08 -1.24,1.72 -2.99,3.01 -5.23,3.86 -2.24,0.84 -4.94,1.26 -8.1,1.26 -3.66,0 -7.01,-0.61 -10.05,-1.85l0 -9.6c1.47,1.08 3.08,1.95 4.86,2.61 1.77,0.66 3.42,0.99 4.96,0.99 1.15,0 2.05,-0.21 2.68,-0.62 0.63,-0.42 0.95,-1.02 0.95,-1.82 0,-0.56 -0.16,-1.07 -0.48,-1.5 -0.31,-0.43 -0.8,-0.83 -1.44,-1.21 -0.64,-0.37 -1.83,-0.89 -3.58,-1.54 -5.63,-2.16 -8.45,-5.67 -8.45,-10.5 0,-3.38 1.28,-6.09 3.86,-8.12 2.56,-2.02 6.01,-3.04 10.35,-3.04 1.21,0 2.34,0.05 3.36,0.15 1.03,0.1 1.96,0.22 2.8,0.36 0.84,0.15 2.01,0.43 3.53,0.84l0 8.9c-2.95,-1.6 -5.84,-2.4 -8.69,-2.4 -1.18,0 -2.12,0.22 -2.84,0.66 -0.71,0.44 -1.07,1.04 -1.07,1.81 0,0.72 0.29,1.33 0.87,1.82 0.57,0.47 1.78,1.1 3.62,1.86 3.63,1.46 6.19,3.07 7.7,4.81 1.51,1.74 2.26,3.8 2.26,6.19z"/>
  <path id="8" class="fil13" d="M2590.27 1676.58c0.18,1.08 0.8,1.92 1.86,2.54 1.06,0.6 2.46,0.91 4.2,0.91 2.42,0 4.72,-0.46 6.89,-1.4l0 6.59c-2.52,1.01 -5.58,1.51 -9.18,1.51 -4.36,0 -7.75,-1.11 -10.18,-3.34 -2.42,-2.22 -3.64,-5.29 -3.64,-9.2 0,-2.68 0.53,-5.05 1.6,-7.1 1.07,-2.04 2.64,-3.65 4.73,-4.82 2.1,-1.15 4.4,-1.74 6.92,-1.74 2.58,0 4.8,0.5 6.64,1.51 1.84,1.01 3.24,2.43 4.19,4.25 0.95,1.82 1.42,3.95 1.42,6.39l0 3.9 -15.45 0zm6.25 -5.45c0,-2.86 -1.03,-4.3 -3.1,-4.3 -0.87,0 -1.58,0.39 -2.17,1.18 -0.59,0.79 -0.93,1.82 -1.03,3.12l6.3 0z"/>
  <path id="9" class="fil13" d="M2629.92 1685.42c-0.67,0.39 -1.72,0.7 -3.15,0.95 -1.43,0.24 -3.08,0.36 -4.95,0.36 -2.64,0 -5,-0.53 -7.07,-1.6 -2.07,-1.06 -3.68,-2.56 -4.82,-4.47 -1.14,-1.92 -1.71,-4.08 -1.71,-6.47 0,-2.86 0.61,-5.31 1.82,-7.35 1.21,-2.04 2.94,-3.61 5.19,-4.68 2.24,-1.09 4.85,-1.63 7.81,-1.63 1.62,0 3.09,0.11 4.38,0.32 1.29,0.21 2.12,0.46 2.5,0.73l0 8.1c-0.52,-0.4 -1.27,-0.76 -2.24,-1.08 -0.98,-0.31 -1.89,-0.47 -2.71,-0.47 -2.03,0 -3.58,0.49 -4.63,1.46 -1.05,0.97 -1.57,2.33 -1.57,4.09 0,1.73 0.52,3.07 1.55,4.02 1.03,0.96 2.45,1.43 4.26,1.43 1.93,0 3.71,-0.46 5.34,-1.4l0 7.69z"/>
  <path id="10" class="fil13" d="M2649.98 1686.13l0 -3.85 -0.1 0c-0.86,1.19 -1.64,2.05 -2.33,2.6 -0.69,0.55 -1.47,1 -2.34,1.35 -0.87,0.34 -1.88,0.5 -3.04,0.5 -2.73,0 -4.82,-0.88 -6.24,-2.66 -1.44,-1.77 -2.15,-4.39 -2.15,-7.85l0 -15.09 10.4 0 0 14.31c0,2.46 0.91,3.69 2.75,3.69 1.01,0 1.76,-0.33 2.28,-1 0.51,-0.66 0.77,-1.61 0.77,-2.83l0 -14.17 10.4 0 0 25 -10.4 0z"/>
  <path id="11" class="fil13" d="M2681.58 1686.13l0 -13.65c0,-1.55 -0.24,-2.66 -0.69,-3.33 -0.47,-0.68 -1.22,-1.02 -2.26,-1.02 -0.89,0 -1.59,0.35 -2.09,1.05 -0.51,0.7 -0.76,1.6 -0.76,2.69l0 14.26 -10.4 0 0 -25 10.4 0 0 3.9 0.1 0c0.82,-1.42 1.94,-2.53 3.34,-3.31 1.4,-0.8 2.92,-1.19 4.56,-1.19 5.46,0 8.2,3.45 8.2,10.35l0 15.25 -10.4 0z"/>
  <path id="12" class="fil13" d="M2713.38 1686.13l0 -2.9 -0.1 0c-0.83,1.09 -1.91,1.95 -3.24,2.57 -1.35,0.62 -2.66,0.93 -3.96,0.93 -2.14,0 -4.02,-0.52 -5.64,-1.57 -1.63,-1.05 -2.85,-2.52 -3.66,-4.4 -0.8,-1.89 -1.2,-4.12 -1.2,-6.68 0,-2.66 0.48,-5.01 1.44,-7.05 0.96,-2.06 2.31,-3.65 4.05,-4.79 1.74,-1.14 3.7,-1.71 5.86,-1.71 1.03,0 1.97,0.15 2.85,0.44 0.86,0.3 1.62,0.69 2.26,1.19 0.64,0.49 1.06,0.98 1.24,1.47l0.1 0 0 -14.5 10.4 0 0 37 -10.4 0zm0.21 -13.25c0,-1.5 -0.32,-2.67 -0.98,-3.5 -0.66,-0.83 -1.55,-1.25 -2.68,-1.25 -1.12,0 -2.04,0.52 -2.74,1.55 -0.71,1.04 -1.06,2.42 -1.06,4.14 0,3.55 1.21,5.31 3.65,5.31 1.16,0 2.09,-0.47 2.78,-1.43 0.69,-0.95 1.03,-2.34 1.03,-4.17l0 -0.65z"/>
  <path id="13" class="fil13" d="M2742.63 1686.13l0 -3.8 -0.1 0c-1.65,2.94 -4.19,4.4 -7.6,4.4 -2.36,0 -4.21,-0.7 -5.54,-2.1 -1.34,-1.4 -2.01,-3.26 -2.01,-5.6 0,-4.91 3.02,-7.76 9.06,-8.54l6.19 -0.81c0,-0.81 -0.36,-1.49 -1.09,-2.01 -0.73,-0.53 -1.71,-0.79 -2.96,-0.79 -2.79,0 -5.74,0.8 -8.85,2.4l0 -6.75c1.35,-0.58 3.05,-1.06 5.08,-1.44 2.03,-0.37 3.77,-0.56 5.23,-0.56 4.24,0 7.32,0.91 9.23,2.73 1.91,1.81 2.86,4.84 2.86,9.08l0 13.79 -9.5 0zm-6.15 -8.49c0,0.68 0.22,1.24 0.65,1.69 0.43,0.44 1.05,0.65 1.85,0.65 1.09,0 1.96,-0.41 2.64,-1.22 0.67,-0.81 1.01,-1.85 1.01,-3.13l0 -0.95 -3.51 0.49c-1.76,0.3 -2.64,1.11 -2.64,2.47z"/>
  <path id="14" class="fil13" d="M2775.63 1670.03c-0.39,-0.17 -0.91,-0.34 -1.58,-0.48 -0.67,-0.14 -1.22,-0.22 -1.67,-0.22 -3.43,0 -5.15,1.99 -5.15,5.96l0 10.84 -10.39 0 0 -25 10.39 0 0 4.4 0.11 0c0.63,-1.58 1.53,-2.79 2.7,-3.61 1.18,-0.83 2.55,-1.24 4.1,-1.24 0.58,0 1.07,0.1 1.49,0.29l0 9.06z"/>
  <path id="15" class="fil13" d="M2789.64 1654.4c0,1.47 -0.53,2.65 -1.6,3.57 -1.06,0.9 -2.46,1.36 -4.21,1.36 -1.69,0 -3.08,-0.47 -4.15,-1.41 -1.09,-0.94 -1.63,-2.12 -1.63,-3.52 0,-1.43 0.53,-2.6 1.58,-3.48 1.05,-0.89 2.45,-1.34 4.2,-1.34 1.75,0 3.15,0.45 4.21,1.34 1.07,0.88 1.6,2.05 1.6,3.48zm-11.01 31.73l0 -25 10.4 0 0 25 -10.4 0z"/>
  <path id="16" class="fil13" d="M2807.89 1686.13l0 -3.8 -0.1 0c-1.66,2.94 -4.19,4.4 -7.6,4.4 -2.36,0 -4.21,-0.7 -5.55,-2.1 -1.33,-1.4 -2,-3.26 -2,-5.6 0,-4.91 3.02,-7.76 9.05,-8.54l6.2 -0.81c0,-0.81 -0.36,-1.49 -1.1,-2.01 -0.72,-0.53 -1.71,-0.79 -2.95,-0.79 -2.79,0 -5.74,0.8 -8.85,2.4l0 -6.75c1.35,-0.58 3.04,-1.06 5.08,-1.44 2.03,-0.37 3.77,-0.56 5.22,-0.56 4.24,0 7.33,0.91 9.24,2.73 1.9,1.81 2.86,4.84 2.86,9.08l0 13.79 -9.5 0zm-6.15 -8.49c0,0.68 0.22,1.24 0.65,1.69 0.43,0.44 1.04,0.65 1.85,0.65 1.09,0 1.96,-0.41 2.64,-1.22 0.67,-0.81 1.01,-1.85 1.01,-3.13l0 -0.95 -3.51 0.49c-1.76,0.3 -2.64,1.11 -2.64,2.47z"/>
  <g>
   <g>
    <path class="fil10" d="M1608.55 718.35l-75.47 10.23 0 0 1.37 -1.56 1.32 -1.58 1.27 -1.6 1.2 -1.61 1.15 -1.63 1.09 -1.64 1.04 -1.66 0.98 -1.67 0.93 -1.69 0.86 -1.71 0.81 -1.72 0.76 -1.74 0.7 -1.75 0.64 -1.77 0.58 -1.78 0.53 -1.8 0.47 -1.81 0.42 -1.83 0.36 -1.85 0.3 -1.86 0.25 -1.88 0.19 -1.89 0.13 -1.91 0.08 -1.93 0.02 -1.94 -0.04 -1.95 -0.09 -1.97 -0.15 -1.99 -0.21 -2 -0.26 -2.02 -0.32 -2.03 -0.37 -2.05 59.46 47.59zm-243.26 169.83l-9.93 1.23 -0.69 -9.28 0.17 -9.33 0.99 -9.35 1.77 -9.35 2.51 -9.3 3.2 -9.24 3.87 -9.14 4.48 -9.03 5.08 -8.89 5.61 -8.71 6.13 -8.52 6.61 -8.3 7.05 -8.05 7.46 -7.77 7.84 -7.48 8.17 -7.15 8.49 -6.79 8.75 -6.41 9 -6 9.21 -5.56 9.38 -5.09 9.53 -4.59 9.64 -4.08 9.72 -3.51 9.76 -2.93 9.78 -2.32 9.76 -1.67 9.71 -0.98 9.63 -0.27 9.5 0.48 9.36 1.26 9.15 2.08 -2.67 9.64 -8.26 -1.88 -8.49 -1.14 -8.7 -0.44 -8.87 0.25 -9.01 0.91 -9.11 1.56 -9.19 2.18 -9.21 2.76 -9.21 3.33 -9.17 3.88 -9.09 4.38 -8.97 4.87 -8.82 5.33 -8.63 5.75 -8.4 6.15 -8.15 6.52 -7.85 6.87 -7.52 7.17 -7.15 7.45 -6.74 7.71 -6.32 7.92 -5.83 8.11 -5.34 8.28 -4.79 8.4 -4.22 8.49 -3.62 8.56 -2.98 8.59 -2.32 8.6 -1.63 8.57 -0.9 8.51 -0.15 8.43 0.62 8.33z"/>
   </g>
   <g>
    <path class="fil11" d="M1361.8 946.47l75.47 -10.24 0 0 -1.37 1.57 -1.32 1.58 -1.27 1.59 -1.2 1.62 -1.15 1.62 -1.09 1.65 -1.04 1.66 -0.98 1.67 -0.93 1.69 -0.86 1.7 -0.81 1.73 -0.76 1.73 -0.7 1.75 -0.64 1.77 -0.58 1.79 -0.53 1.8 -0.47 1.81 -0.42 1.83 -0.36 1.85 -0.3 1.86 -0.25 1.88 -0.19 1.89 -0.13 1.91 -0.08 1.92 -0.02 1.94 0.04 1.96 0.09 1.97 0.15 1.99 0.21 2 0.26 2.02 0.32 2.03 0.37 2.05 -59.46 -47.59zm243.26 -169.83l9.93 -1.23 0.69 9.28 -0.17 9.33 -0.99 9.35 -1.77 9.35 -2.51 9.3 -3.2 9.24 -3.87 9.14 -4.48 9.03 -5.07 8.88 -5.62 8.72 -6.13 8.52 -6.61 8.29 -7.05 8.05 -7.46 7.78 -7.84 7.48 -8.17 7.14 -8.49 6.8 -8.75 6.4 -9 6 -9.21 5.56 -9.38 5.1 -9.53 4.59 -9.64 4.07 -9.72 3.52 -9.76 2.93 -9.78 2.32 -9.76 1.66 -9.71 0.99 -9.63 0.27 -9.5 -0.48 -9.36 -1.26 -9.15 -2.08 2.67 -9.64 8.26 1.88 8.49 1.14 8.7 0.44 8.87 -0.25 9.01 -0.92 9.11 -1.55 9.19 -2.18 9.21 -2.76 9.21 -3.34 9.17 -3.87 9.09 -4.38 8.97 -4.87 8.82 -5.33 8.63 -5.75 8.4 -6.15 8.15 -6.53 7.85 -6.86 7.52 -7.17 7.15 -7.45 6.74 -7.71 6.32 -7.92 5.83 -8.12 5.34 -8.27 4.79 -8.4 4.23 -8.49 3.61 -8.56 2.99 -8.6 2.31 -8.59 1.63 -8.57 0.9 -8.51 0.15 -8.43 -0.62 -8.33z"/>
   </g>
  </g>
 </g>
</svg>
