<?xml version="1.0" encoding="UTF-8"?>
<!DOCTYPE svg PUBLIC "-//W3C//DTD SVG 1.1//EN" "http://www.w3.org/Graphics/SVG/1.1/DTD/svg11.dtd">
<!-- Creator: CorelDRAW 2020 (64-Bit) -->
<svg xmlns="http://www.w3.org/2000/svg" xml:space="preserve" width="2689px" height="1481px" version="1.1" style="shape-rendering:geometricPrecision; text-rendering:geometricPrecision; image-rendering:optimizeQuality; fill-rule:evenodd; clip-rule:evenodd"
viewBox="0 0 2689 1481.35"
 xmlns:xlink="http://www.w3.org/1999/xlink"
 xmlns:xodm="http://www.corel.com/coreldraw/odm/2003">
 <defs>
  <style type="text/css">
   <![CDATA[
    .str0 {stroke:#02B948;stroke-width:10;stroke-miterlimit:22.9256}
    .str2 {stroke:#F00000;stroke-width:10;stroke-miterlimit:22.9256}
    .str1 {stroke:#F06600;stroke-width:10;stroke-miterlimit:22.9256}
    .fil0 {fill:none}
    .fil2 {fill:#00C85F}
    .fil4 {fill:red}
    .fil3 {fill:#FF6600}
    .fil5 {fill:blue;fill-rule:nonzero}
    .fil8 {fill:gray;fill-rule:nonzero}
    .fil1 {fill:#B3B3B3;fill-rule:nonzero}
    .fil6 {fill:red;fill-rule:nonzero}
    .fil7 {fill:white;fill-rule:nonzero}
   ]]>
  </style>
 </defs>
 <g id="Capa_x0020_1">
  <metadata id="CorelCorpID_0Corel-Layer"/>
  <rect class="fil0" width="2689" height="1481.35"/>
  <g>
   <path class="fil1" d="M716.86 936.72l-30.01 -70.02 0 0 1.88 0.91 1.87 0.85 1.88 0.79 1.87 0.73 1.88 0.68 1.87 0.61 1.88 0.56 1.87 0.5 1.88 0.44 1.87 0.38 1.88 0.32 1.88 0.26 1.87 0.21 1.88 0.15 1.87 0.08 1.88 0.03 1.87 -0.03 1.88 -0.08 1.87 -0.15 1.88 -0.21 1.88 -0.26 1.87 -0.32 1.88 -0.38 1.87 -0.44 1.88 -0.5 1.87 -0.56 1.88 -0.61 1.87 -0.68 1.88 -0.73 1.87 -0.79 1.88 -0.85 1.87 -0.91 -30 70.02zm5 -660.46l0 625.27 -10 0 0 -625.27 10 0z"/>
  </g>
  <g>
   <path class="fil1" d="M1344.5 236.22l30.01 70.02 0 0 -1.88 -0.91 -1.88 -0.85 -1.87 -0.79 -1.88 -0.73 -1.87 -0.68 -1.88 -0.61 -1.87 -0.56 -1.88 -0.5 -1.87 -0.44 -1.88 -0.38 -1.87 -0.32 -1.88 -0.26 -1.88 -0.21 -1.87 -0.15 -1.88 -0.08 -1.87 -0.03 -1.88 0.03 -1.87 0.08 -1.88 0.15 -1.87 0.21 -1.88 0.26 -1.87 0.32 -1.88 0.38 -1.87 0.44 -1.88 0.5 -1.88 0.56 -1.87 0.61 -1.88 0.68 -1.87 0.73 -1.88 0.79 -1.87 0.85 -1.88 0.91 30.01 -70.02zm-5 244.46l0 -209.27 10 0 0 209.27 -10 0z"/>
  </g>
  <g>
   <path class="fil1" d="M1826.54 1010.99l-74.28 -16.89 0 0 1.84 -0.98 1.79 -1.02 1.74 -1.05 1.7 -1.09 1.65 -1.12 1.6 -1.15 1.55 -1.19 1.51 -1.23 1.45 -1.26 1.41 -1.29 1.37 -1.33 1.31 -1.36 1.27 -1.4 1.22 -1.43 1.18 -1.46 1.12 -1.5 1.08 -1.54 1.03 -1.57 0.99 -1.6 0.93 -1.64 0.89 -1.67 0.84 -1.71 0.8 -1.74 0.75 -1.77 0.69 -1.81 0.66 -1.85 0.6 -1.88 0.56 -1.91 0.51 -1.95 0.46 -1.98 0.42 -2.02 0.36 -2.05 39 65.44zm-333.47 -248.51l307.95 223.78 -5.88 8.09 -307.95 -223.78 5.88 -8.09z"/>
  </g>
  <g>
   <path class="fil1" d="M896.87 1116.81l70.01 -30 0 0 -0.9 1.87 -0.85 1.88 -0.79 1.87 -0.74 1.88 -0.67 1.87 -0.62 1.88 -0.55 1.87 -0.5 1.88 -0.44 1.88 -0.38 1.87 -0.32 1.88 -0.27 1.87 -0.2 1.88 -0.15 1.87 -0.09 1.88 -0.03 1.87 0.03 1.88 0.09 1.87 0.15 1.88 0.2 1.88 0.27 1.87 0.32 1.88 0.38 1.87 0.44 1.88 0.5 1.87 0.55 1.88 0.62 1.87 0.67 1.88 0.74 1.87 0.79 1.88 0.85 1.87 0.9 1.88 -70.01 -30.01zm895.26 5l-860.07 0 0 -10 860.07 0 0 10z"/>
  </g>
  <circle class="fil2 str0" cx="1344.5" cy="660.7" r="180.01"/>
  <circle class="fil3 str1" cx="716.86" cy="1116.73" r="180.01"/>
  <circle class="fil4 str2" cx="1972.14" cy="1116.81" r="180.01"/>
  <g>
   <g>
    <path class="fil5" d="M1164.29 763.19l-75.48 10.24 0 0 1.38 -1.57 1.32 -1.58 1.26 -1.6 1.21 -1.61 1.15 -1.63 1.09 -1.64 1.04 -1.66 0.98 -1.67 0.92 -1.69 0.87 -1.71 0.81 -1.72 0.75 -1.74 0.7 -1.75 0.64 -1.77 0.59 -1.78 0.53 -1.8 0.47 -1.81 0.41 -1.84 0.36 -1.84 0.31 -1.86 0.24 -1.88 0.19 -1.89 0.13 -1.91 0.08 -1.93 0.02 -1.94 -0.03 -1.95 -0.1 -1.97 -0.15 -1.99 -0.2 -2 -0.26 -2.02 -0.32 -2.04 -0.38 -2.05 59.47 47.6zm-243.28 169.84l-9.92 1.23 -0.7 -9.28 0.17 -9.33 0.99 -9.36 1.77 -9.34 2.51 -9.3 3.21 -9.24 3.86 -9.15 4.49 -9.03 5.07 -8.88 5.62 -8.71 6.13 -8.52 6.61 -8.3 7.05 -8.05 7.46 -7.78 7.83 -7.48 8.18 -7.14 8.48 -6.8 8.76 -6.41 9 -6 9.21 -5.56 9.39 -5.09 9.52 -4.59 9.64 -4.08 9.72 -3.51 9.76 -2.93 9.78 -2.32 9.76 -1.67 9.71 -0.98 9.63 -0.27 9.51 0.48 9.35 1.26 9.15 2.08 -2.67 9.64 -8.26 -1.88 -8.49 -1.14 -8.7 -0.44 -8.87 0.25 -9.01 0.91 -9.11 1.56 -9.18 2.18 -9.22 2.76 -9.21 3.33 -9.17 3.88 -9.09 4.38 -8.97 4.87 -8.82 5.33 -8.63 5.75 -8.41 6.15 -8.14 6.53 -7.85 6.86 -7.52 7.17 -7.15 7.46 -6.75 7.7 -6.31 7.92 -5.84 8.12 -5.33 8.27 -4.8 8.4 -4.22 8.5 -3.62 8.56 -2.98 8.59 -2.32 8.6 -1.62 8.57 -0.91 8.51 -0.15 8.43 0.62 8.33z"/>
   </g>
   <g>
    <path class="fil6" d="M917.53 991.33l75.47 -10.24 0 0 -1.38 1.56 -1.31 1.58 -1.27 1.6 -1.2 1.61 -1.15 1.63 -1.1 1.64 -1.03 1.66 -0.98 1.67 -0.93 1.69 -0.86 1.71 -0.82 1.72 -0.75 1.74 -0.7 1.75 -0.64 1.77 -0.59 1.78 -0.52 1.8 -0.48 1.82 -0.41 1.83 -0.36 1.84 -0.3 1.87 -0.25 1.87 -0.19 1.9 -0.13 1.91 -0.08 1.92 -0.02 1.94 0.04 1.96 0.09 1.97 0.15 1.98 0.2 2.01 0.27 2.02 0.32 2.03 0.37 2.05 -59.46 -47.59zm243.27 -169.85l9.93 -1.22 0.69 9.27 -0.17 9.33 -0.99 9.36 -1.77 9.34 -2.51 9.31 -3.21 9.24 -3.86 9.14 -4.49 9.03 -5.07 8.88 -5.61 8.72 -6.14 8.52 -6.6 8.29 -7.06 8.06 -7.46 7.77 -7.83 7.48 -8.18 7.15 -8.48 6.79 -8.76 6.41 -9 6 -9.21 5.56 -9.38 5.09 -9.53 4.6 -9.64 4.07 -9.72 3.52 -9.76 2.93 -9.78 2.31 -9.76 1.67 -9.71 0.98 -9.63 0.28 -9.51 -0.48 -9.35 -1.27 -9.15 -2.08 2.67 -9.64 8.26 1.88 8.49 1.15 8.7 0.44 8.87 -0.26 9.01 -0.91 9.11 -1.56 9.19 -2.17 9.21 -2.77 9.21 -3.33 9.17 -3.87 9.09 -4.39 8.97 -4.87 8.82 -5.33 8.63 -5.75 8.41 -6.15 8.14 -6.52 7.86 -6.87 7.51 -7.17 7.15 -7.45 6.75 -7.71 6.31 -7.92 5.84 -8.12 5.34 -8.27 4.79 -8.4 4.22 -8.5 3.62 -8.56 2.98 -8.59 2.32 -8.6 1.63 -8.56 0.9 -8.52 0.15 -8.43 -0.62 -8.33z"/>
   </g>
  </g>
  <path class="fil7" d="M1224.1 677.24c-2.9,1.04 -6.24,1.56 -10.03,1.56 -3.73,0 -6.95,-0.71 -9.65,-2.14 -2.7,-1.42 -4.76,-3.45 -6.19,-6.08 -1.42,-2.63 -2.13,-5.66 -2.13,-9.09 0,-3.7 0.8,-6.99 2.39,-9.86 1.59,-2.89 3.85,-5.11 6.77,-6.68 2.91,-1.57 6.26,-2.36 10.05,-2.36 3.03,0 5.96,0.37 8.79,1.1l0 9.75c-0.97,-0.58 -2.14,-1.04 -3.49,-1.36 -1.35,-0.33 -2.72,-0.49 -4.1,-0.49 -2.87,0 -5.13,0.83 -6.78,2.47 -1.65,1.64 -2.48,3.87 -2.48,6.68 0,2.8 0.83,5.01 2.48,6.63 1.65,1.62 3.86,2.42 6.63,2.42 2.56,0 5.13,-0.64 7.74,-1.95l0 9.4z"/>
  <path id="1" class="fil7" d="M1262.85 660.59c0,3.51 -0.76,6.65 -2.27,9.43 -1.52,2.78 -3.64,4.93 -6.35,6.47 -2.72,1.54 -5.76,2.31 -9.14,2.31 -3.28,0 -6.27,-0.75 -8.96,-2.24 -2.69,-1.49 -4.8,-3.58 -6.3,-6.27 -1.49,-2.7 -2.24,-5.75 -2.24,-9.15 0,-3.56 0.76,-6.76 2.27,-9.61 1.52,-2.85 3.64,-5.05 6.38,-6.6 2.73,-1.56 5.84,-2.34 9.32,-2.34 3.35,0 6.35,0.75 8.99,2.24 2.65,1.49 4.69,3.61 6.14,6.37 1.44,2.76 2.16,5.89 2.16,9.39zm-11.21 0.3c0,-2.88 -0.55,-5.15 -1.65,-6.8 -1.11,-1.66 -2.62,-2.5 -4.54,-2.5 -2.1,0 -3.73,0.8 -4.9,2.4 -1.17,1.59 -1.76,3.84 -1.76,6.75 0,2.85 0.59,5.07 1.75,6.66 1.16,1.6 2.74,2.39 4.74,2.39 1.22,0 2.31,-0.35 3.29,-1.07 0.97,-0.72 1.73,-1.74 2.27,-3.08 0.54,-1.33 0.8,-2.91 0.8,-4.75z"/>
  <path id="2" class="fil7" d="M1285.97 678.2l-2.61 -7.55c-0.51,-1.48 -1.16,-2.64 -1.96,-3.49 -0.81,-0.84 -1.69,-1.27 -2.63,-1.27l-0.42 0 0 12.31 -10.55 0 0 -35.01 14 0c4.9,0 8.52,0.8 10.85,2.41 2.34,1.6 3.51,4 3.51,7.21 0,2.41 -0.68,4.43 -2.04,6.05 -1.36,1.63 -3.38,2.81 -6.06,3.54l0 0.1c1.48,0.45 2.71,1.19 3.69,2.22 1,1.02 1.88,2.55 2.66,4.57l3.45 8.91 -11.89 0zm-1.02 -23.9c0,-1.17 -0.35,-2.1 -1.07,-2.78 -0.71,-0.68 -1.83,-1.03 -3.36,-1.03l-2.17 0 0 8 1.9 0c1.42,0 2.55,-0.4 3.41,-1.19 0.86,-0.8 1.29,-1.8 1.29,-3z"/>
  <path id="3" class="fil7" d="M1320.08 678.2l-2.61 -7.55c-0.51,-1.48 -1.16,-2.64 -1.96,-3.49 -0.81,-0.84 -1.69,-1.27 -2.63,-1.27l-0.42 0 0 12.31 -10.55 0 0 -35.01 14 0c4.91,0 8.52,0.8 10.85,2.41 2.34,1.6 3.51,4 3.51,7.21 0,2.41 -0.68,4.43 -2.04,6.05 -1.36,1.63 -3.38,2.81 -6.06,3.54l0 0.1c1.48,0.45 2.71,1.19 3.69,2.22 1,1.02 1.88,2.55 2.66,4.57l3.45 8.91 -11.89 0zm-1.02 -23.9c0,-1.17 -0.35,-2.1 -1.07,-2.78 -0.71,-0.68 -1.83,-1.03 -3.36,-1.03l-2.17 0 0 8 1.9 0c1.42,0 2.55,-0.4 3.41,-1.19 0.86,-0.8 1.29,-1.8 1.29,-3z"/>
  <polygon id="4" class="fil7" points="1336.02,678.2 1336.02,643.19 1346.57,643.19 1346.57,678.2 "/>
  <polygon id="5" class="fil7" points="1353.46,678.2 1353.46,643.19 1375.25,643.19 1375.25,651.44 1364.01,651.44 1364.01,656.54 1374.56,656.54 1374.56,664.79 1364.01,664.79 1364.01,669.94 1376.06,669.94 1376.06,678.2 "/>
  <path id="6" class="fil7" d="M1405.5 678.2l-12.36 -16.9c-0.97,-1.33 -1.77,-2.53 -2.39,-3.61l-0.1 0c0.1,1.73 0.15,3.66 0.15,5.81l0 14.7 -9.75 0 0 -35.01 9.97 0 11.84 16.06c0.14,0.21 0.33,0.46 0.53,0.76 0.21,0.29 0.43,0.59 0.64,0.9 0.21,0.31 0.41,0.61 0.6,0.9 0.18,0.29 0.33,0.56 0.42,0.78l0.1 0c-0.1,-0.71 -0.15,-1.95 -0.15,-3.7l0 -15.7 9.75 0 0 35.01 -9.25 0z"/>
  <path id="7" class="fil7" d="M1454.66 660.25c0,3.55 -0.75,6.69 -2.24,9.41 -1.49,2.73 -3.61,4.83 -6.38,6.31 -2.77,1.48 -5.96,2.23 -9.57,2.23l-14.82 0 0 -35.01 14.5 0c12.34,0 18.51,5.69 18.51,17.06zm-11.21 0.1c0,-1.71 -0.34,-3.25 -1.03,-4.61 -0.69,-1.37 -1.68,-2.42 -2.97,-3.17 -1.28,-0.75 -2.8,-1.13 -4.54,-1.13l-2.71 0 0 18.5 2.95 0c2.53,0 4.55,-0.86 6.05,-2.59 1.5,-1.74 2.25,-4.07 2.25,-7z"/>
  <path id="8" class="fil7" d="M1492.9 660.59c0,3.51 -0.76,6.65 -2.27,9.43 -1.51,2.78 -3.63,4.93 -6.35,6.47 -2.71,1.54 -5.76,2.31 -9.13,2.31 -3.28,0 -6.28,-0.75 -8.97,-2.24 -2.69,-1.49 -4.79,-3.58 -6.29,-6.27 -1.49,-2.7 -2.24,-5.75 -2.24,-9.15 0,-3.56 0.76,-6.76 2.26,-9.61 1.52,-2.85 3.65,-5.05 6.38,-6.6 2.73,-1.56 5.84,-2.34 9.33,-2.34 3.35,0 6.35,0.75 8.99,2.24 2.65,1.49 4.69,3.61 6.13,6.37 1.44,2.76 2.16,5.89 2.16,9.39zm-11.2 0.3c0,-2.88 -0.55,-5.15 -1.66,-6.8 -1.11,-1.66 -2.62,-2.5 -4.53,-2.5 -2.1,0 -3.74,0.8 -4.9,2.4 -1.18,1.59 -1.76,3.84 -1.76,6.75 0,2.85 0.58,5.07 1.74,6.66 1.17,1.6 2.74,2.39 4.74,2.39 1.23,0 2.32,-0.35 3.29,-1.07 0.98,-0.72 1.74,-1.74 2.27,-3.08 0.54,-1.33 0.81,-2.91 0.81,-4.75z"/>
  <polygon class="fil7" points="647.76,1134.23 647.76,1099.23 658.31,1099.23 658.31,1125.98 670.36,1125.98 670.36,1134.23 "/>
  <polygon id="1" class="fil7" points="674.81,1134.23 674.81,1099.23 685.36,1099.23 685.36,1134.23 "/>
  <path id="2" class="fil7" d="M716.55 1123.63c0,2.32 -0.63,4.35 -1.87,6.07 -1.24,1.73 -2.99,3.01 -5.23,3.86 -2.24,0.84 -4.94,1.27 -8.1,1.27 -3.66,0 -7.01,-0.62 -10.05,-1.86l0 -9.59c1.46,1.07 3.08,1.95 4.86,2.61 1.77,0.65 3.42,0.99 4.96,0.99 1.15,0 2.05,-0.21 2.68,-0.63 0.63,-0.41 0.95,-1.01 0.95,-1.81 0,-0.57 -0.16,-1.08 -0.48,-1.5 -0.31,-0.44 -0.8,-0.84 -1.44,-1.21 -0.64,-0.38 -1.83,-0.89 -3.58,-1.54 -5.64,-2.17 -8.45,-5.67 -8.45,-10.5 0,-3.39 1.28,-6.1 3.86,-8.12 2.56,-2.03 6.01,-3.04 10.35,-3.04 1.21,0 2.34,0.05 3.36,0.15 1.03,0.09 1.96,0.21 2.8,0.36 0.84,0.15 2.01,0.42 3.53,0.83l0 8.91c-2.95,-1.6 -5.84,-2.4 -8.69,-2.4 -1.18,0 -2.12,0.21 -2.84,0.66 -0.71,0.44 -1.07,1.04 -1.07,1.8 0,0.73 0.29,1.34 0.86,1.82 0.58,0.48 1.79,1.1 3.63,1.87 3.63,1.46 6.19,3.07 7.7,4.81 1.51,1.73 2.26,3.8 2.26,6.19z"/>
  <polygon id="3" class="fil7" points="738.54,1107.48 738.54,1134.23 727.94,1134.23 727.94,1107.48 718.14,1107.48 718.14,1099.23 748.44,1099.23 748.44,1107.48 "/>
  <path id="4" class="fil7" d="M785.95 1116.62c0,3.52 -0.76,6.66 -2.26,9.43 -1.52,2.78 -3.64,4.94 -6.35,6.47 -2.72,1.54 -5.76,2.31 -9.14,2.31 -3.28,0 -6.27,-0.74 -8.97,-2.23 -2.69,-1.5 -4.79,-3.59 -6.29,-6.28 -1.49,-2.69 -2.24,-5.74 -2.24,-9.14 0,-3.57 0.76,-6.77 2.27,-9.62 1.51,-2.85 3.64,-5.05 6.37,-6.6 2.74,-1.56 5.84,-2.33 9.33,-2.33 3.35,0 6.35,0.74 8.99,2.23 2.65,1.49 4.69,3.62 6.13,6.38 1.45,2.75 2.16,5.88 2.16,9.38zm-11.2 0.3c0,-2.87 -0.55,-5.14 -1.66,-6.8 -1.1,-1.66 -2.61,-2.49 -4.53,-2.49 -2.1,0 -3.73,0.8 -4.9,2.39 -1.18,1.59 -1.76,3.84 -1.76,6.76 0,2.84 0.58,5.07 1.74,6.66 1.17,1.59 2.74,2.39 4.75,2.39 1.22,0 2.31,-0.36 3.29,-1.08 0.97,-0.71 1.73,-1.74 2.26,-3.07 0.55,-1.33 0.81,-2.92 0.81,-4.76z"/>
  <path class="fil7" d="M1846.3 1121.52c0,3.44 -1.2,6.09 -3.6,7.95 -2.41,1.86 -5.85,2.79 -10.33,2.79l-15.97 0 0 -35 14.87 0c9.29,0 13.93,2.83 13.93,8.47 0,1.22 -0.29,2.34 -0.88,3.36 -0.58,1.01 -1.47,1.91 -2.67,2.67 -1.2,0.77 -2.51,1.29 -3.95,1.56l0 0.1c1.66,0.19 3.15,0.69 4.48,1.48 1.32,0.79 2.33,1.77 3.05,2.95 0.72,1.18 1.07,2.41 1.07,3.67zm-12.3 -13.97c0,-2.15 -1.7,-3.24 -5.1,-3.24l-1.95 0 0 6.6 3.05 0c1.17,0 2.14,-0.31 2.88,-0.94 0.75,-0.62 1.12,-1.42 1.12,-2.42zm1.1 13.93c0,-1.01 -0.36,-1.84 -1.1,-2.49 -0.73,-0.65 -1.7,-0.98 -2.9,-0.98l-4.15 0 0 7.15 3.52 0c1.43,0 2.56,-0.33 3.39,-0.99 0.83,-0.66 1.24,-1.56 1.24,-2.69z"/>
  <polygon id="1" class="fil7" points="1850.95,1132.26 1850.95,1097.26 1861.5,1097.26 1861.5,1124.01 1873.56,1124.01 1873.56,1132.26 "/>
  <path id="2" class="fil7" d="M1911.31 1114.66c0,3.51 -0.76,6.65 -2.27,9.43 -1.52,2.77 -3.63,4.93 -6.35,6.47 -2.72,1.54 -5.76,2.3 -9.13,2.3 -3.29,0 -6.28,-0.74 -8.97,-2.23 -2.69,-1.49 -4.79,-3.58 -6.29,-6.27 -1.49,-2.7 -2.24,-5.75 -2.24,-9.15 0,-3.56 0.75,-6.76 2.26,-9.61 1.52,-2.85 3.64,-5.05 6.38,-6.6 2.73,-1.56 5.84,-2.34 9.32,-2.34 3.35,0 6.35,0.74 9,2.24 2.65,1.49 4.69,3.61 6.13,6.37 1.44,2.76 2.16,5.88 2.16,9.39zm-11.2 0.3c0,-2.88 -0.55,-5.15 -1.66,-6.81 -1.11,-1.65 -2.62,-2.49 -4.53,-2.49 -2.1,0 -3.74,0.8 -4.91,2.4 -1.17,1.59 -1.75,3.84 -1.75,6.75 0,2.85 0.58,5.07 1.74,6.66 1.16,1.59 2.74,2.39 4.74,2.39 1.23,0 2.32,-0.35 3.29,-1.07 0.98,-0.72 1.74,-1.74 2.27,-3.08 0.54,-1.33 0.81,-2.91 0.81,-4.75z"/>
  <path id="3" class="fil7" d="M1949.57 1114.66c0,5.41 -1.75,9.87 -5.25,13.37l9.25 8.93 -13.24 0 -4.44 -4.5c-1.3,0.27 -2.66,0.4 -4.07,0.4 -3.29,0 -6.28,-0.74 -8.97,-2.23 -2.69,-1.49 -4.79,-3.58 -6.29,-6.27 -1.49,-2.7 -2.24,-5.75 -2.24,-9.15 0,-3.56 0.75,-6.76 2.26,-9.61 1.52,-2.85 3.64,-5.05 6.38,-6.6 2.73,-1.56 5.84,-2.34 9.32,-2.34 3.35,0 6.35,0.74 9,2.24 2.65,1.49 4.69,3.61 6.13,6.37 1.44,2.75 2.16,5.88 2.16,9.39zm-11.2 0.3c0,-2.88 -0.55,-5.15 -1.66,-6.81 -1.11,-1.65 -2.62,-2.49 -4.53,-2.49 -2.1,0 -3.74,0.8 -4.9,2.4 -1.18,1.59 -1.76,3.84 -1.76,6.75 0,2.85 0.58,5.07 1.74,6.66 1.17,1.59 2.74,2.39 4.74,2.39 1.91,0 3.44,-0.8 4.61,-2.41 1.17,-1.61 1.76,-3.78 1.76,-6.49z"/>
  <path id="4" class="fil7" d="M1985.03 1116.27c0,5.61 -1.28,9.79 -3.84,12.51 -2.57,2.73 -6.52,4.08 -11.85,4.08 -4.99,0 -8.76,-1.35 -11.35,-4.08 -2.57,-2.72 -3.86,-6.83 -3.86,-12.32l0 -19.2 10.6 0 0 19.6c0,2.25 0.41,3.97 1.26,5.19 0.84,1.21 2.04,1.81 3.6,1.81 1.58,0 2.78,-0.56 3.6,-1.7 0.83,-1.15 1.24,-2.83 1.24,-5.05l0 -19.85 10.6 0 0 19.01z"/>
  <polygon id="5" class="fil7" points="1991.54,1132.26 1991.54,1097.26 2013.33,1097.26 2013.33,1105.51 2002.09,1105.51 2002.09,1110.61 2012.64,1110.61 2012.64,1118.86 2002.09,1118.86 2002.09,1124.01 2014.14,1124.01 2014.14,1132.26 "/>
  <path id="6" class="fil7" d="M2041.08 1132.26l-1.54 -6.45 -10.45 0 -1.66 6.45 -11.4 0 12.06 -35 13.09 0 11.35 35 -11.45 0zm-6.66 -27.4l-0.24 0c-0.03,0.39 -0.14,1.04 -0.34,1.93 -0.19,0.9 -1.18,4.74 -2.96,11.52l6.7 0 -2.44 -9.51c-0.34,-1.4 -0.58,-2.72 -0.72,-3.94z"/>
  <path id="7" class="fil7" d="M2089.64 1114.32c0,3.55 -0.75,6.69 -2.24,9.41 -1.49,2.73 -3.62,4.83 -6.38,6.31 -2.77,1.48 -5.96,2.22 -9.57,2.22l-14.82 0 0 -35 14.5 0c12.34,0 18.51,5.69 18.51,17.06zm-11.21 0.1c0,-1.71 -0.34,-3.25 -1.03,-4.62 -0.69,-1.36 -1.68,-2.41 -2.97,-3.16 -1.28,-0.75 -2.8,-1.13 -4.54,-1.13l-2.71 0 0 18.5 2.95 0c2.53,0 4.55,-0.86 6.05,-2.6 1.5,-1.73 2.25,-4.06 2.25,-6.99z"/>
  <path id="8" class="fil7" d="M2127.88 1114.66c0,3.51 -0.76,6.65 -2.27,9.43 -1.51,2.77 -3.63,4.93 -6.35,6.47 -2.72,1.54 -5.76,2.3 -9.13,2.3 -3.29,0 -6.28,-0.74 -8.97,-2.23 -2.69,-1.49 -4.79,-3.58 -6.29,-6.27 -1.49,-2.7 -2.24,-5.75 -2.24,-9.15 0,-3.56 0.76,-6.76 2.26,-9.61 1.52,-2.85 3.65,-5.05 6.38,-6.6 2.73,-1.56 5.84,-2.34 9.33,-2.34 3.34,0 6.35,0.74 8.99,2.24 2.65,1.49 4.69,3.61 6.13,6.37 1.44,2.76 2.16,5.88 2.16,9.39zm-11.2 0.3c0,-2.88 -0.55,-5.15 -1.66,-6.81 -1.11,-1.65 -2.62,-2.49 -4.53,-2.49 -2.1,0 -3.74,0.8 -4.9,2.4 -1.18,1.59 -1.76,3.84 -1.76,6.75 0,2.85 0.58,5.07 1.74,6.66 1.17,1.59 2.74,2.39 4.74,2.39 1.23,0 2.32,-0.35 3.29,-1.07 0.98,-0.72 1.74,-1.74 2.27,-3.08 0.54,-1.33 0.81,-2.91 0.81,-4.75z"/>
  <polygon class="fil1" points="1253.06,194.77 1253.06,201.07 1263.46,201.07 1263.46,209.32 1253.06,209.32 1253.06,221.52 1242.51,221.52 1242.51,186.52 1264.46,186.52 1264.46,194.77 "/>
  <path id="1" class="fil1" d="M1279.62 189.79c0,1.46 -0.53,2.65 -1.6,3.56 -1.07,0.91 -2.47,1.37 -4.21,1.37 -1.69,0 -3.08,-0.47 -4.16,-1.42 -1.08,-0.94 -1.62,-2.11 -1.62,-3.51 0,-1.44 0.52,-2.6 1.57,-3.49 1.05,-0.89 2.45,-1.33 4.21,-1.33 1.74,0 3.14,0.44 4.21,1.33 1.07,0.89 1.6,2.05 1.6,3.49zm-11.01 31.73l0 -25 10.4 0 0 25 -10.4 0z"/>
  <path id="2" class="fil1" d="M1300.22 221.52l0 -13.65c0,-1.55 -0.23,-2.66 -0.69,-3.33 -0.47,-0.68 -1.22,-1.02 -2.26,-1.02 -0.89,0 -1.59,0.35 -2.09,1.05 -0.51,0.7 -0.76,1.6 -0.76,2.69l0 14.26 -10.4 0 0 -25 10.4 0 0 3.9 0.1 0c0.83,-1.42 1.94,-2.53 3.34,-3.32 1.4,-0.79 2.92,-1.18 4.56,-1.18 5.47,0 8.2,3.45 8.2,10.35l0 15.25 -10.4 0z"/>
  <path id="3" class="fil1" d="M1329.17 221.52l0 -3.8 -0.1 0c-1.66,2.94 -4.19,4.4 -7.61,4.4 -2.35,0 -4.2,-0.7 -5.54,-2.1 -1.33,-1.4 -2,-3.26 -2,-5.61 0,-4.9 3.02,-7.75 9.05,-8.53l6.2 -0.81c0,-0.81 -0.36,-1.49 -1.1,-2.01 -0.72,-0.53 -1.71,-0.79 -2.95,-0.79 -2.79,0 -5.74,0.8 -8.85,2.4l0 -6.75c1.35,-0.58 3.04,-1.06 5.08,-1.44 2.03,-0.38 3.77,-0.56 5.22,-0.56 4.24,0 7.33,0.91 9.24,2.73 1.91,1.81 2.86,4.84 2.86,9.08l0 13.79 -9.5 0zm-6.15 -8.49c0,0.68 0.22,1.24 0.65,1.68 0.43,0.45 1.04,0.66 1.84,0.66 1.1,0 1.97,-0.41 2.65,-1.22 0.67,-0.81 1.01,-1.85 1.01,-3.13l0 -0.95 -3.51 0.49c-1.76,0.3 -2.64,1.11 -2.64,2.47z"/>
  <polygon id="4" class="fil1" points="1343.37,221.52 1343.37,184.52 1353.77,184.52 1353.77,221.52 "/>
  <path id="5" class="fil1" d="M1369.79 189.79c0,1.46 -0.53,2.65 -1.6,3.56 -1.06,0.91 -2.46,1.37 -4.21,1.37 -1.69,0 -3.08,-0.47 -4.15,-1.42 -1.09,-0.94 -1.63,-2.11 -1.63,-3.51 0,-1.44 0.52,-2.6 1.57,-3.49 1.06,-0.89 2.46,-1.33 4.21,-1.33 1.75,0 3.15,0.44 4.21,1.33 1.07,0.89 1.6,2.05 1.6,3.49zm-11.01 31.73l0 -25 10.4 0 0 25 -10.4 0z"/>
  <polygon id="6" class="fil1" points="1385.94,214.32 1396.25,214.32 1396.25,221.52 1372.29,221.52 1372.29,216.71 1383.54,203.72 1373.34,203.72 1373.34,196.52 1396.03,196.52 1396.03,202.43 "/>
  <path id="7" class="fil1" d="M1413.49 221.52l0 -3.8 -0.1 0c-1.66,2.94 -4.2,4.4 -7.61,4.4 -2.36,0 -4.21,-0.7 -5.54,-2.1 -1.34,-1.4 -2,-3.26 -2,-5.61 0,-4.9 3.01,-7.75 9.05,-8.53l6.2 -0.81c0,-0.81 -0.37,-1.49 -1.1,-2.01 -0.73,-0.53 -1.71,-0.79 -2.95,-0.79 -2.8,0 -5.75,0.8 -8.85,2.4l0 -6.75c1.35,-0.58 3.04,-1.06 5.07,-1.44 2.03,-0.38 3.78,-0.56 5.23,-0.56 4.24,0 7.32,0.91 9.23,2.73 1.91,1.81 2.87,4.84 2.87,9.08l0 13.79 -9.5 0zm-6.15 -8.49c0,0.68 0.21,1.24 0.65,1.68 0.42,0.45 1.04,0.66 1.84,0.66 1.09,0 1.97,-0.41 2.64,-1.22 0.68,-0.81 1.02,-1.85 1.02,-3.13l0 -0.95 -3.52 0.49c-1.76,0.3 -2.63,1.11 -2.63,2.47z"/>
  <path id="8" class="fil1" d="M1446.49 205.42c-0.39,-0.17 -0.92,-0.34 -1.59,-0.48 -0.67,-0.14 -1.22,-0.22 -1.66,-0.22 -3.44,0 -5.15,1.98 -5.15,5.96l0 10.84 -10.4 0 0 -25 10.4 0 0 4.4 0.1 0c0.63,-1.58 1.53,-2.79 2.71,-3.61 1.17,-0.83 2.54,-1.24 4.1,-1.24 0.57,0 1.06,0.1 1.49,0.29l0 9.06z"/>
  <path class="fil8" d="M856.75 774.97c-2.9,1.04 -6.24,1.55 -10.03,1.55 -3.73,0 -6.95,-0.7 -9.65,-2.13 -2.7,-1.42 -4.76,-3.45 -6.19,-6.08 -1.42,-2.63 -2.13,-5.66 -2.13,-9.09 0,-3.7 0.8,-6.99 2.39,-9.86 1.59,-2.89 3.85,-5.11 6.77,-6.68 2.91,-1.57 6.26,-2.36 10.05,-2.36 3.03,0 5.96,0.37 8.79,1.1l0 9.75c-0.98,-0.58 -2.14,-1.04 -3.49,-1.36 -1.35,-0.33 -2.72,-0.49 -4.1,-0.49 -2.87,0 -5.13,0.83 -6.79,2.47 -1.65,1.64 -2.47,3.87 -2.47,6.68 0,2.8 0.82,5.01 2.47,6.63 1.66,1.62 3.87,2.42 6.64,2.42 2.56,0 5.13,-0.65 7.74,-1.95l0 9.4z"/>
  <path id="1" class="fil8" d="M889.04 762.98c0,4.22 -1.27,7.53 -3.81,9.94 -2.55,2.4 -6.11,3.6 -10.69,3.6 -4.54,0 -8.07,-1.17 -10.61,-3.52 -2.52,-2.35 -3.79,-5.59 -3.79,-9.73 0,-2.65 0.59,-4.95 1.79,-6.9 1.18,-1.95 2.87,-3.45 5.07,-4.49 2.2,-1.04 4.73,-1.56 7.59,-1.56 2.96,0 5.53,0.55 7.7,1.64 2.18,1.09 3.84,2.6 5.01,4.54 1.16,1.93 1.74,4.09 1.74,6.48zm-10.55 0.05c0,-3.41 -1.3,-5.11 -3.9,-5.11 -2.6,0 -3.9,1.79 -3.9,5.35 0,3.77 1.32,5.65 3.95,5.65 2.57,0 3.85,-1.96 3.85,-5.89z"/>
  <path id="2" class="fil8" d="M911.74 759.82c-0.4,-0.17 -0.92,-0.34 -1.59,-0.48 -0.67,-0.14 -1.22,-0.22 -1.66,-0.22 -3.44,0 -5.15,1.99 -5.15,5.96l0 10.84 -10.4 0 0 -25 10.4 0 0 4.4 0.1 0c0.63,-1.58 1.53,-2.79 2.7,-3.61 1.18,-0.83 2.55,-1.24 4.1,-1.24 0.58,0 1.07,0.1 1.5,0.29l0 9.06z"/>
  <path id="3" class="fil8" d="M933.54 759.82c-0.39,-0.17 -0.92,-0.34 -1.59,-0.48 -0.67,-0.14 -1.22,-0.22 -1.66,-0.22 -3.44,0 -5.15,1.99 -5.15,5.96l0 10.84 -10.4 0 0 -25 10.4 0 0 4.4 0.1 0c0.63,-1.58 1.53,-2.79 2.71,-3.61 1.17,-0.83 2.54,-1.24 4.1,-1.24 0.57,0 1.06,0.1 1.49,0.29l0 9.06z"/>
  <path id="4" class="fil8" d="M945.49 766.37c0.18,1.08 0.8,1.92 1.86,2.54 1.06,0.61 2.45,0.91 4.2,0.91 2.42,0 4.72,-0.46 6.89,-1.4l0 6.59c-2.53,1.01 -5.59,1.51 -9.19,1.51 -4.35,0 -7.75,-1.11 -10.17,-3.34 -2.43,-2.22 -3.64,-5.29 -3.64,-9.2 0,-2.68 0.53,-5.05 1.6,-7.1 1.06,-2.04 2.64,-3.65 4.73,-4.81 2.09,-1.16 4.39,-1.75 6.92,-1.75 2.58,0 4.8,0.5 6.64,1.51 1.83,1.01 3.23,2.43 4.18,4.25 0.95,1.82 1.43,3.95 1.43,6.39l0 3.9 -15.45 0zm6.25 -5.45c0,-2.86 -1.04,-4.3 -3.1,-4.3 -0.87,0 -1.58,0.4 -2.18,1.18 -0.58,0.79 -0.92,1.82 -1.02,3.12l6.3 0z"/>
  <path id="5" class="fil8" d="M983.34 759.82c-0.39,-0.17 -0.92,-0.34 -1.58,-0.48 -0.68,-0.14 -1.23,-0.22 -1.67,-0.22 -3.43,0 -5.15,1.99 -5.15,5.96l0 10.84 -10.4 0 0 -25 10.4 0 0 4.4 0.1 0c0.63,-1.58 1.53,-2.79 2.71,-3.61 1.17,-0.83 2.54,-1.24 4.1,-1.24 0.57,0 1.06,0.1 1.49,0.29l0 9.06z"/>
  <polygon class="fil1" points="641.75,221.3 641.75,186.3 652.3,186.3 652.3,221.3 "/>
  <path id="1" class="fil1" d="M674.43 221.3l0 -13.65c0,-1.55 -0.23,-2.66 -0.69,-3.34 -0.46,-0.67 -1.21,-1.01 -2.26,-1.01 -0.89,0 -1.59,0.35 -2.09,1.05 -0.51,0.7 -0.76,1.6 -0.76,2.68l0 14.27 -10.4 0 0 -25 10.4 0 0 3.9 0.1 0c0.83,-1.43 1.95,-2.54 3.35,-3.32 1.4,-0.79 2.91,-1.18 4.55,-1.18 5.47,0 8.2,3.45 8.2,10.35l0 15.25 -10.4 0z"/>
  <path id="2" class="fil1" d="M700.54 189.56c0,1.47 -0.53,2.65 -1.6,3.57 -1.06,0.91 -2.46,1.37 -4.21,1.37 -1.69,0 -3.08,-0.48 -4.15,-1.42 -1.09,-0.94 -1.63,-2.12 -1.63,-3.52 0,-1.43 0.53,-2.6 1.58,-3.48 1.05,-0.89 2.45,-1.33 4.2,-1.33 1.75,0 3.15,0.44 4.21,1.33 1.07,0.88 1.6,2.05 1.6,3.48zm-11.01 31.74l0 -25 10.41 0 0 25 -10.41 0z"/>
  <path id="3" class="fil1" d="M725.55 220.58c-0.67,0.39 -1.72,0.71 -3.15,0.95 -1.44,0.24 -3.09,0.37 -4.96,0.37 -2.64,0 -5,-0.54 -7.06,-1.6 -2.08,-1.07 -3.69,-2.56 -4.83,-4.48 -1.14,-1.91 -1.71,-4.07 -1.71,-6.47 0,-2.85 0.61,-5.3 1.82,-7.35 1.22,-2.04 2.94,-3.6 5.19,-4.68 2.24,-1.08 4.85,-1.62 7.81,-1.62 1.63,0 3.09,0.1 4.38,0.31 1.3,0.21 2.13,0.46 2.51,0.74l0 8.1c-0.52,-0.41 -1.27,-0.77 -2.25,-1.09 -0.97,-0.31 -1.88,-0.46 -2.7,-0.46 -2.04,0 -3.58,0.48 -4.63,1.45 -1.05,0.97 -1.57,2.34 -1.57,4.1 0,1.72 0.51,3.06 1.54,4.01 1.04,0.96 2.45,1.44 4.26,1.44 1.94,0 3.72,-0.47 5.35,-1.4l0 7.68z"/>
  <path id="4" class="fil1" d="M740.71 189.56c0,1.47 -0.53,2.65 -1.6,3.57 -1.06,0.91 -2.46,1.37 -4.21,1.37 -1.69,0 -3.08,-0.48 -4.15,-1.42 -1.09,-0.94 -1.63,-2.12 -1.63,-3.52 0,-1.43 0.53,-2.6 1.58,-3.48 1.05,-0.89 2.45,-1.33 4.2,-1.33 1.75,0 3.15,0.44 4.21,1.33 1.07,0.88 1.6,2.05 1.6,3.48zm-11.01 31.74l0 -25 10.4 0 0 25 -10.4 0z"/>
  <path id="5" class="fil1" d="M758.96 221.3l0 -3.8 -0.1 0c-1.65,2.93 -4.19,4.4 -7.6,4.4 -2.36,0 -4.21,-0.7 -5.55,-2.1 -1.33,-1.4 -2,-3.27 -2,-5.61 0,-4.91 3.02,-7.76 9.05,-8.54l6.2 -0.8c0,-0.82 -0.36,-1.49 -1.1,-2.02 -0.72,-0.53 -1.7,-0.78 -2.95,-0.78 -2.79,0 -5.74,0.8 -8.85,2.4l0 -6.75c1.35,-0.59 3.05,-1.07 5.08,-1.45 2.03,-0.37 3.77,-0.55 5.22,-0.55 4.25,0 7.33,0.9 9.24,2.72 1.91,1.81 2.86,4.84 2.86,9.08l0 13.8 -9.5 0zm-6.15 -8.5c0,0.69 0.22,1.25 0.65,1.69 0.43,0.44 1.05,0.66 1.85,0.66 1.09,0 1.96,-0.41 2.64,-1.23 0.67,-0.81 1.01,-1.85 1.01,-3.12l0 -0.95 -3.51 0.49c-1.76,0.29 -2.64,1.11 -2.64,2.46z"/>
  <path id="6" class="fil1" d="M791.97 205.2c-0.4,-0.18 -0.92,-0.35 -1.59,-0.49 -0.67,-0.14 -1.22,-0.21 -1.66,-0.21 -3.44,0 -5.15,1.98 -5.15,5.96l0 10.84 -10.4 0 0 -25 10.4 0 0 4.4 0.1 0c0.63,-1.59 1.53,-2.8 2.7,-3.62 1.18,-0.83 2.55,-1.23 4.1,-1.23 0.58,0 1.07,0.1 1.5,0.29l0 9.06z"/>
  <path class="fil8" d="M1628.71 766.58c0,3.44 -1.2,6.09 -3.61,7.95 -2.41,1.86 -5.85,2.79 -10.33,2.79l-15.96 0 0 -35 14.86 0c9.29,0 13.94,2.83 13.94,8.47 0,1.22 -0.29,2.34 -0.89,3.36 -0.58,1.01 -1.47,1.91 -2.67,2.67 -1.19,0.77 -2.51,1.29 -3.94,1.56l0 0.1c1.65,0.19 3.15,0.69 4.47,1.48 1.32,0.79 2.33,1.77 3.05,2.95 0.72,1.18 1.08,2.41 1.08,3.67zm-12.3 -13.97c0,-2.15 -1.7,-3.24 -5.1,-3.24l-1.95 0 0 6.6 3.05 0c1.16,0 2.13,-0.31 2.87,-0.94 0.75,-0.62 1.13,-1.42 1.13,-2.42zm1.1 13.93c0,-1.01 -0.37,-1.84 -1.1,-2.49 -0.74,-0.65 -1.7,-0.98 -2.9,-0.98l-4.15 0 0 7.15 3.51 0c1.43,0 2.56,-0.33 3.39,-0.99 0.83,-0.66 1.25,-1.56 1.25,-2.69z"/>
  <polygon id="1" class="fil8" points="1632.41,777.32 1632.41,740.32 1642.81,740.32 1642.81,777.32 "/>
  <path id="2" class="fil8" d="M1675.62 764.38c0,4.22 -1.28,7.53 -3.82,9.94 -2.55,2.4 -6.11,3.6 -10.68,3.6 -4.54,0 -8.08,-1.17 -10.61,-3.52 -2.53,-2.35 -3.79,-5.59 -3.79,-9.73 0,-2.65 0.59,-4.95 1.78,-6.9 1.18,-1.95 2.87,-3.45 5.08,-4.49 2.2,-1.04 4.72,-1.56 7.59,-1.56 2.96,0 5.52,0.54 7.7,1.64 2.17,1.09 3.84,2.6 5.01,4.54 1.15,1.93 1.74,4.09 1.74,6.48zm-10.55 0.05c0,-3.41 -1.3,-5.11 -3.9,-5.11 -2.6,0 -3.9,1.79 -3.9,5.35 0,3.77 1.31,5.65 3.95,5.65 2.56,0 3.85,-1.96 3.85,-5.89z"/>
  <path id="3" class="fil8" d="M1696.21 788.83l0 -14.36 -0.1 0c-0.77,1.04 -1.83,1.87 -3.16,2.5 -1.32,0.64 -2.69,0.95 -4.09,0.95 -2.07,0 -3.88,-0.49 -5.46,-1.46 -1.57,-0.98 -2.79,-2.39 -3.67,-4.25 -0.88,-1.87 -1.32,-4.17 -1.32,-6.89 0,-2.7 0.49,-5.09 1.47,-7.16 0.97,-2.06 2.33,-3.65 4.07,-4.76 1.74,-1.12 3.67,-1.68 5.77,-1.68 2.84,0 4.97,1.07 6.39,3.2l0.1 0 0 -2.6 10.4 0 0 36.51 -10.4 0zm0.22 -24.66c0,-1.52 -0.33,-2.71 -0.99,-3.56 -0.65,-0.86 -1.53,-1.29 -2.62,-1.29 -1.14,0 -2.07,0.53 -2.78,1.57 -0.72,1.04 -1.08,2.43 -1.08,4.18 0,1.61 0.3,2.89 0.9,3.84 0.61,0.94 1.51,1.41 2.72,1.41 1.2,0 2.14,-0.47 2.82,-1.41 0.69,-0.95 1.03,-2.26 1.03,-3.94l0 -0.8z"/>
  <path id="4" class="fil8" d="M1727.52 777.32l0 -3.85 -0.1 0c-0.86,1.19 -1.63,2.05 -2.32,2.6 -0.7,0.55 -1.48,1 -2.35,1.35 -0.87,0.34 -1.88,0.5 -3.04,0.5 -2.73,0 -4.82,-0.88 -6.24,-2.65 -1.43,-1.78 -2.15,-4.4 -2.15,-7.86l0 -15.09 10.4 0 0 14.31c0,2.46 0.92,3.69 2.75,3.69 1.01,0 1.77,-0.33 2.28,-1 0.51,-0.66 0.77,-1.61 0.77,-2.83l0 -14.17 10.4 0 0 25 -10.4 0z"/>
  <path id="5" class="fil8" d="M1751.87 767.77c0.18,1.08 0.8,1.92 1.86,2.54 1.06,0.61 2.46,0.91 4.2,0.91 2.43,0 4.73,-0.46 6.89,-1.4l0 6.59c-2.52,1.01 -5.58,1.51 -9.18,1.51 -4.36,0 -7.75,-1.11 -10.18,-3.34 -2.42,-2.22 -3.64,-5.29 -3.64,-9.2 0,-2.68 0.53,-5.05 1.6,-7.1 1.07,-2.04 2.64,-3.65 4.74,-4.82 2.09,-1.15 4.39,-1.74 6.91,-1.74 2.59,0 4.8,0.5 6.64,1.51 1.84,1.01 3.24,2.43 4.19,4.25 0.95,1.82 1.42,3.95 1.42,6.39l0 3.9 -15.45 0zm6.25 -5.45c0,-2.86 -1.03,-4.3 -3.1,-4.3 -0.87,0 -1.58,0.4 -2.17,1.18 -0.59,0.79 -0.93,1.82 -1.03,3.12l6.3 0z"/>
  <path id="6" class="fil8" d="M1784.77 777.32l0 -3.8 -0.1 0c-1.66,2.94 -4.19,4.4 -7.61,4.4 -2.35,0 -4.2,-0.7 -5.54,-2.1 -1.33,-1.4 -2,-3.26 -2,-5.6 0,-4.91 3.02,-7.76 9.05,-8.54l6.2 -0.81c0,-0.81 -0.36,-1.49 -1.1,-2.01 -0.72,-0.53 -1.71,-0.79 -2.95,-0.79 -2.79,0 -5.74,0.8 -8.85,2.4l0 -6.75c1.35,-0.58 3.04,-1.06 5.08,-1.44 2.03,-0.37 3.77,-0.56 5.22,-0.56 4.25,0 7.33,0.91 9.24,2.73 1.91,1.81 2.86,4.84 2.86,9.08l0 13.79 -9.5 0zm-6.15 -8.49c0,0.69 0.22,1.24 0.65,1.69 0.43,0.44 1.04,0.65 1.85,0.65 1.09,0 1.96,-0.4 2.64,-1.22 0.67,-0.81 1.01,-1.85 1.01,-3.13l0 -0.95 -3.51 0.5c-1.76,0.29 -2.64,1.1 -2.64,2.46z"/>
  <path id="7" class="fil8" d="M1817.78 761.22c-0.4,-0.17 -0.92,-0.34 -1.59,-0.48 -0.67,-0.14 -1.22,-0.22 -1.67,-0.22 -3.43,0 -5.15,1.99 -5.15,5.96l0 10.84 -10.4 0 0 -25 10.4 0 0 4.4 0.11 0c0.63,-1.58 1.53,-2.79 2.7,-3.61 1.18,-0.83 2.55,-1.24 4.1,-1.24 0.58,0 1.07,0.1 1.5,0.29l0 9.06z"/>
  <path class="fil8" d="M1379.23 1062.52c0,3.55 -0.75,6.69 -2.24,9.41 -1.49,2.73 -3.61,4.84 -6.38,6.31 -2.77,1.48 -5.96,2.23 -9.57,2.23l-14.82 0 0 -35.01 14.51 0c12.33,0 18.5,5.69 18.5,17.06zm-11.2 0.1c0,-1.7 -0.35,-3.25 -1.04,-4.61 -0.69,-1.37 -1.68,-2.42 -2.96,-3.17 -1.29,-0.75 -2.8,-1.12 -4.55,-1.12l-2.71 0 0 18.5 2.96 0c2.52,0 4.54,-0.87 6.04,-2.6 1.51,-1.74 2.26,-4.07 2.26,-7z"/>
  <path id="1" class="fil8" d="M1392.17 1070.92c0.18,1.07 0.8,1.91 1.86,2.53 1.06,0.61 2.46,0.92 4.2,0.92 2.42,0 4.72,-0.47 6.89,-1.4l0 6.58c-2.52,1.01 -5.58,1.52 -9.18,1.52 -4.36,0 -7.75,-1.12 -10.18,-3.34 -2.43,-2.23 -3.64,-5.3 -3.64,-9.21 0,-2.68 0.53,-5.05 1.6,-7.1 1.07,-2.04 2.64,-3.65 4.73,-4.81 2.09,-1.16 4.39,-1.74 6.92,-1.74 2.58,0 4.8,0.5 6.64,1.5 1.83,1.01 3.23,2.43 4.19,4.25 0.94,1.82 1.42,3.95 1.42,6.4l0 3.9 -15.45 0zm6.25 -5.45c0,-2.87 -1.03,-4.3 -3.1,-4.3 -0.87,0 -1.58,0.39 -2.18,1.17 -0.58,0.79 -0.92,1.83 -1.02,3.13l6.3 0z"/>
  <path id="2" class="fil8" d="M1431.52 1072.16c0,2.82 -1.07,5.02 -3.23,6.57 -2.16,1.56 -5.16,2.34 -9.02,2.34 -1.12,0 -2.51,-0.12 -4.16,-0.34 -1.66,-0.23 -3,-0.51 -4.04,-0.83l0 -7.28c3.07,1.36 5.64,2.05 7.7,2.05 2.03,0 3.05,-0.53 3.05,-1.59 0,-0.44 -0.23,-0.81 -0.71,-1.09 -0.47,-0.28 -1.71,-0.76 -3.7,-1.42 -2.22,-0.7 -3.82,-1.64 -4.83,-2.79 -1.01,-1.16 -1.51,-2.66 -1.51,-4.51 0,-2.6 1.03,-4.64 3.09,-6.15 2.06,-1.51 4.95,-2.25 8.68,-2.25 2.18,0 4.49,0.31 6.93,0.95l0 7c-1.02,-0.45 -2.15,-0.81 -3.37,-1.11 -1.22,-0.29 -2.25,-0.44 -3.08,-0.44 -0.68,0 -1.23,0.11 -1.64,0.34 -0.41,0.22 -0.61,0.54 -0.61,0.95 0,0.47 0.22,0.86 0.66,1.15 0.44,0.29 1.31,0.64 2.64,1.05 2.55,0.75 4.38,1.71 5.49,2.88 1.11,1.17 1.66,2.68 1.66,4.52z"/>
  <path id="3" class="fil8" d="M1463.56 1067.21c0,2.73 -0.45,5.15 -1.35,7.26 -0.9,2.1 -2.19,3.73 -3.85,4.88 -1.65,1.14 -3.54,1.72 -5.64,1.72 -1.61,0 -2.99,-0.3 -4.14,-0.9 -1.14,-0.59 -2.05,-1.36 -2.72,-2.3l-0.1 0 0 2.6 -10.4 0 0 -37 10.4 0 0 15.4 0.1 0c0.81,-1.24 1.92,-2.21 3.31,-2.93 1.39,-0.72 2.93,-1.07 4.6,-1.07 3.16,0 5.59,1.04 7.27,3.14 1.68,2.1 2.52,5.16 2.52,9.2zm-10.55 0.31c0,-1.67 -0.32,-2.94 -0.96,-3.78 -0.65,-0.85 -1.57,-1.27 -2.77,-1.27 -1.06,0 -1.94,0.44 -2.65,1.33 -0.71,0.88 -1.06,2.04 -1.06,3.46l0 1.51c0,1.44 0.32,2.58 0.95,3.42 0.63,0.85 1.49,1.28 2.56,1.28 1.26,0 2.23,-0.52 2.91,-1.55 0.68,-1.04 1.02,-2.5 1.02,-4.4z"/>
  <polygon id="4" class="fil8" points="1467.47,1080.47 1467.47,1043.47 1477.87,1043.47 1477.87,1080.47 "/>
  <path id="5" class="fil8" d="M1510.68 1067.52c0,4.22 -1.27,7.53 -3.81,9.94 -2.55,2.41 -6.11,3.61 -10.69,3.61 -4.54,0 -8.07,-1.18 -10.6,-3.53 -2.53,-2.35 -3.8,-5.59 -3.8,-9.72 0,-2.65 0.59,-4.95 1.79,-6.9 1.18,-1.95 2.87,-3.45 5.07,-4.5 2.2,-1.04 4.73,-1.55 7.59,-1.55 2.96,0 5.53,0.54 7.7,1.63 2.18,1.09 3.85,2.6 5.01,4.54 1.16,1.93 1.74,4.09 1.74,6.48zm-10.55 0.05c0,-3.4 -1.3,-5.1 -3.9,-5.1 -2.6,0 -3.9,1.78 -3.9,5.35 0,3.76 1.32,5.65 3.95,5.65 2.57,0 3.85,-1.97 3.85,-5.9z"/>
  <path id="6" class="fil8" d="M1531.28 1091.97l0 -14.35 -0.1 0c-0.78,1.03 -1.84,1.86 -3.16,2.5 -1.33,0.63 -2.69,0.95 -4.09,0.95 -2.07,0 -3.89,-0.49 -5.46,-1.47 -1.57,-0.97 -2.79,-2.39 -3.68,-4.25 -0.87,-1.87 -1.31,-4.17 -1.31,-6.89 0,-2.7 0.49,-5.09 1.46,-7.15 0.98,-2.07 2.34,-3.66 4.08,-4.77 1.74,-1.12 3.67,-1.67 5.77,-1.67 2.84,0 4.97,1.06 6.39,3.2l0.1 0 0 -2.61 10.4 0 0 36.51 -10.4 0zm0.21 -24.66c0,-1.52 -0.32,-2.7 -0.98,-3.56 -0.66,-0.86 -1.53,-1.28 -2.63,-1.28 -1.14,0 -2.06,0.52 -2.78,1.56 -0.71,1.04 -1.07,2.44 -1.07,4.18 0,1.61 0.3,2.89 0.9,3.84 0.61,0.94 1.51,1.42 2.71,1.42 1.2,0 2.15,-0.48 2.83,-1.42 0.68,-0.95 1.02,-2.26 1.02,-3.93l0 -0.81z"/>
  <path id="7" class="fil8" d="M1562.59 1080.47l0 -3.85 -0.1 0c-0.86,1.18 -1.64,2.05 -2.33,2.6 -0.69,0.55 -1.47,1 -2.34,1.34 -0.87,0.34 -1.88,0.51 -3.04,0.51 -2.74,0 -4.82,-0.89 -6.24,-2.66 -1.44,-1.78 -2.15,-4.39 -2.15,-7.86l0 -15.09 10.4 0 0 14.31c0,2.46 0.91,3.7 2.75,3.7 1.01,0 1.76,-0.34 2.28,-1 0.51,-0.67 0.77,-1.62 0.77,-2.84l0 -14.17 10.4 0 0 25.01 -10.4 0z"/>
  <path id="8" class="fil8" d="M1586.94 1070.92c0.18,1.07 0.8,1.91 1.86,2.53 1.06,0.61 2.46,0.92 4.2,0.92 2.42,0 4.72,-0.47 6.89,-1.4l0 6.58c-2.53,1.01 -5.59,1.52 -9.19,1.52 -4.35,0 -7.75,-1.12 -10.17,-3.34 -2.43,-2.23 -3.64,-5.3 -3.64,-9.21 0,-2.68 0.53,-5.05 1.6,-7.1 1.06,-2.04 2.64,-3.65 4.73,-4.81 2.09,-1.16 4.39,-1.74 6.92,-1.74 2.58,0 4.8,0.5 6.64,1.5 1.83,1.01 3.23,2.43 4.18,4.25 0.95,1.82 1.43,3.95 1.43,6.4l0 3.9 -15.45 0zm6.25 -5.45c0,-2.87 -1.03,-4.3 -3.1,-4.3 -0.87,0 -1.58,0.39 -2.18,1.17 -0.58,0.79 -0.92,1.83 -1.02,3.13l6.3 0z"/>
  <path id="9" class="fil8" d="M1619.84 1080.47l0 -3.8 -0.1 0c-1.66,2.93 -4.19,4.4 -7.61,4.4 -2.36,0 -4.21,-0.7 -5.54,-2.1 -1.33,-1.4 -2,-3.27 -2,-5.61 0,-4.91 3.01,-7.76 9.05,-8.54l6.2 -0.8c0,-0.82 -0.37,-1.5 -1.1,-2.02 -0.73,-0.53 -1.71,-0.78 -2.95,-0.78 -2.79,0 -5.74,0.8 -8.85,2.4l0 -6.75c1.35,-0.59 3.04,-1.07 5.07,-1.45 2.04,-0.37 3.78,-0.55 5.23,-0.55 4.24,0 7.32,0.9 9.23,2.72 1.91,1.81 2.87,4.84 2.87,9.08l0 13.8 -9.5 0zm-6.15 -8.5c0,0.69 0.22,1.25 0.65,1.69 0.42,0.44 1.04,0.66 1.84,0.66 1.09,0 1.97,-0.41 2.64,-1.23 0.68,-0.81 1.02,-1.85 1.02,-3.12l0 -0.95 -3.52 0.49c-1.76,0.29 -2.63,1.11 -2.63,2.46z"/>
  <path id="10" class="fil8" d="M1652.84 1064.37c-0.39,-0.18 -0.91,-0.35 -1.58,-0.49 -0.68,-0.14 -1.23,-0.21 -1.67,-0.21 -3.43,0 -5.15,1.98 -5.15,5.95l0 10.85 -10.4 0 0 -25.01 10.4 0 0 4.41 0.1 0c0.63,-1.59 1.53,-2.8 2.71,-3.62 1.17,-0.83 2.54,-1.23 4.1,-1.23 0.58,0 1.07,0.1 1.49,0.29l0 9.06z"/>
  <polygon class="fil8" points="1177.55,948.72 1177.55,913.72 1199.35,913.72 1199.35,921.97 1188.1,921.97 1188.1,927.07 1198.66,927.07 1198.66,935.32 1188.1,935.32 1188.1,940.47 1200.15,940.47 1200.15,948.72 "/>
  <path id="1" class="fil8" d="M1224.5 940.41c0,2.83 -1.08,5.03 -3.24,6.58 -2.15,1.56 -5.15,2.33 -9.01,2.33 -1.13,0 -2.51,-0.11 -4.16,-0.34 -1.66,-0.22 -3,-0.5 -4.04,-0.82l0 -7.29c3.07,1.37 5.64,2.05 7.7,2.05 2.03,0 3.05,-0.52 3.05,-1.58 0,-0.44 -0.24,-0.81 -0.71,-1.09 -0.47,-0.29 -1.71,-0.76 -3.7,-1.43 -2.22,-0.7 -3.83,-1.63 -4.83,-2.78 -1.01,-1.16 -1.51,-2.67 -1.51,-4.52 0,-2.59 1.03,-4.63 3.09,-6.14 2.06,-1.51 4.95,-2.26 8.67,-2.26 2.19,0 4.5,0.32 6.94,0.95l0 7c-1.03,-0.44 -2.15,-0.81 -3.38,-1.11 -1.21,-0.29 -2.24,-0.44 -3.07,-0.44 -0.69,0 -1.24,0.12 -1.64,0.34 -0.41,0.23 -0.61,0.55 -0.61,0.95 0,0.48 0.21,0.86 0.66,1.15 0.44,0.29 1.31,0.65 2.64,1.05 2.55,0.75 4.38,1.71 5.49,2.89 1.11,1.16 1.66,2.67 1.66,4.51z"/>
  <path id="2" class="fil8" d="M1256.54 935.46c0,2.74 -0.47,5.15 -1.39,7.25 -0.93,2.1 -2.24,3.73 -3.93,4.88 -1.69,1.16 -3.6,1.73 -5.71,1.73 -2.94,0 -5.16,-1.06 -6.67,-3.2l-0.1 0 0 14.1 -10.4 0 0 -36.5 10.4 0 0 3.4 0.1 0c0.83,-1.25 1.9,-2.23 3.22,-2.94 1.32,-0.71 2.81,-1.06 4.5,-1.06 3.21,0 5.69,1.08 7.41,3.22 1.71,2.15 2.57,5.19 2.57,9.12zm-10.55 0.32c0,-1.57 -0.31,-2.82 -0.92,-3.72 -0.6,-0.89 -1.55,-1.34 -2.81,-1.34 -1.11,0 -2,0.48 -2.69,1.42 -0.68,0.95 -1.02,2.24 -1.02,3.89l0 0.48c0,1.59 0.29,2.85 0.87,3.8 0.59,0.94 1.47,1.41 2.64,1.41 1.26,0 2.22,-0.51 2.91,-1.55 0.68,-1.03 1.02,-2.5 1.02,-4.39z"/>
  <path id="3" class="fil8" d="M1269.4 939.17c0.18,1.08 0.8,1.92 1.86,2.54 1.06,0.6 2.46,0.91 4.2,0.91 2.43,0 4.72,-0.46 6.89,-1.4l0 6.59c-2.52,1.01 -5.58,1.51 -9.18,1.51 -4.36,0 -7.75,-1.11 -10.18,-3.34 -2.42,-2.22 -3.64,-5.29 -3.64,-9.2 0,-2.68 0.53,-5.05 1.6,-7.1 1.07,-2.04 2.64,-3.65 4.73,-4.82 2.1,-1.16 4.4,-1.74 6.92,-1.74 2.58,0 4.8,0.5 6.64,1.51 1.84,1.01 3.24,2.43 4.19,4.25 0.95,1.82 1.42,3.95 1.42,6.39l0 3.9 -15.45 0zm6.25 -5.45c0,-2.86 -1.03,-4.3 -3.1,-4.3 -0.87,0 -1.58,0.39 -2.17,1.18 -0.59,0.79 -0.93,1.82 -1.03,3.12l6.3 0z"/>
  <path id="4" class="fil8" d="M1307.25 932.62c-0.39,-0.17 -0.91,-0.34 -1.58,-0.48 -0.68,-0.14 -1.23,-0.22 -1.67,-0.22 -3.43,0 -5.15,1.99 -5.15,5.96l0 10.84 -10.4 0 0 -25 10.4 0 0 4.4 0.1 0c0.64,-1.58 1.54,-2.79 2.71,-3.61 1.18,-0.83 2.54,-1.24 4.1,-1.24 0.58,0 1.07,0.1 1.49,0.29l0 9.06z"/>
  <path id="5" class="fil8" d="M1324.1 948.72l0 -3.8 -0.1 0c-1.66,2.94 -4.19,4.4 -7.6,4.4 -2.36,0 -4.21,-0.7 -5.55,-2.1 -1.33,-1.4 -2,-3.26 -2,-5.61 0,-4.9 3.02,-7.75 9.05,-8.53l6.2 -0.81c0,-0.81 -0.36,-1.49 -1.1,-2.01 -0.72,-0.53 -1.71,-0.79 -2.95,-0.79 -2.79,0 -5.74,0.8 -8.85,2.4l0 -6.75c1.35,-0.58 3.04,-1.06 5.08,-1.44 2.03,-0.37 3.77,-0.56 5.22,-0.56 4.25,0 7.33,0.91 9.24,2.73 1.91,1.81 2.86,4.84 2.86,9.08l0 13.79 -9.5 0zm-6.15 -8.49c0,0.68 0.22,1.24 0.65,1.68 0.43,0.45 1.04,0.66 1.85,0.66 1.09,0 1.96,-0.41 2.64,-1.22 0.67,-0.81 1.01,-1.85 1.01,-3.13l0 -0.95 -3.51 0.49c-1.76,0.3 -2.64,1.11 -2.64,2.47z"/>
  <path id="6" class="fil8" d="M1357.11 932.62c-0.4,-0.17 -0.92,-0.34 -1.59,-0.48 -0.67,-0.14 -1.22,-0.22 -1.67,-0.22 -3.43,0 -5.15,1.99 -5.15,5.96l0 10.84 -10.4 0 0 -25 10.4 0 0 4.4 0.11 0c0.63,-1.58 1.53,-2.79 2.7,-3.61 1.18,-0.83 2.55,-1.24 4.1,-1.24 0.58,0 1.07,0.1 1.5,0.29l0 9.06z"/>
 </g>
</svg>
