<?xml version="1.0" encoding="UTF-8"?>
<!DOCTYPE svg PUBLIC "-//W3C//DTD SVG 1.1//EN" "http://www.w3.org/Graphics/SVG/1.1/DTD/svg11.dtd">
<!-- Creator: CorelDRAW 2017 -->
<svg xmlns="http://www.w3.org/2000/svg" xml:space="preserve" width="289px" height="578px" version="1.1" style="shape-rendering:geometricPrecision; text-rendering:geometricPrecision; image-rendering:optimizeQuality; fill-rule:evenodd; clip-rule:evenodd"
viewBox="0 0 289 578"
 xmlns:xlink="http://www.w3.org/1999/xlink">
 <defs>
  <style type="text/css">
   <![CDATA[
    .fil0 {fill:black}
    .fil2 {fill:gray}
    .fil3 {fill:#E6E6E6}
    .fil1 {fill:white}
   ]]>
  </style>
 </defs>
 <g id="Capa_x0020_1">
  <metadata id="CorelCorpID_0Corel-Layer"/>
  <g id="_3126908625136">
   <path class="fil0" d="M54.88 222.56c-1.93,11.2 4.05,60.82 5.25,75.7 2.07,25.44 -2.89,16.77 22.8,36.92 3.93,3.07 8.14,5.69 11.22,8.71 -0.1,12.49 2.12,22.75 8.27,30.7 4.66,6.04 13.26,13.06 22.13,16.36 34.44,12.81 69.97,-8.47 72.19,-37.25 0.7,-9.09 -2.13,-9.8 4.34,-14.8 4.13,-3.19 7.68,-5.93 11.64,-8.8 16.74,-12.14 14.48,-9.58 15.5,-23.3l5.9 -72.1c1.7,-16.54 -2.09,-13.89 -16.36,-19.95l-67.65 -29.75c-7.21,-3.07 -7.06,-1.8 -13.85,1.3l-54.39 23.76c-8.06,3.62 -21.27,8.57 -26.99,12.5z"/>
   <path class="fil1" d="M77.42 224.17c10.15,4.26 62.5,37.12 66.58,37.52 4.94,0.48 56.95,-33.52 67.44,-37.35l-1.46 -1.43c-4.33,-3.44 -64.71,-29.87 -65.17,-29.9 -4.07,-0.19 -28.42,12.06 -34.07,14.67 -6.09,2.8 -30,12.32 -33.32,16.49z"/>
   <path class="fil1" d="M132.64 353.71l-0.02 -69.4c-9.62,-5.36 -61.66,-40.06 -66.11,-40.33 -1.01,5.94 1.55,32.31 2.28,40.62 1.24,14.33 -0.79,22.65 5.17,27.11 2.42,1.81 4.25,2.8 7.05,4.97 8.94,6.93 16.27,11.96 25.52,18.91 4.9,3.68 21.84,17.3 26.11,18.12z"/>
   <path class="fil1" d="M157.05 284.81l-0.02 68.51 49.77 -36.36c14.89,-10.84 11.23,-8.42 12.74,-30.61 0.93,-13.7 1.94,-27.42 2.75,-41.28 -6.28,1.8 -26.74,15.54 -32.98,19.56 -10.59,6.81 -22.5,13.58 -32.26,20.18z"/>
   <path class="fil0" d="M93.35 225.08c4.05,4.16 50.04,29.07 50.52,29.09 1.88,0.08 22.3,-11.57 26.02,-13.78l25.63 -15.31c-3,-2.07 -49.14,-23.26 -50.78,-23.37 -2.27,-0.15 -46.95,20.39 -51.39,23.37z"/>
   <path class="fil2" d="M99.85 225.37l42.23 24.28c3.87,1.14 11.79,-3.73 14.68,-6.54l-9 -5.78c1.73,-3.35 6.29,-9.15 8.7,-11.9l-17.95 6.58 8.82 -11.41 -27.71 10.86c3.46,-6.68 10.34,-11.05 15.25,-16.26 -6.53,-5.88 -10.91,-1.4 -17.47,1.54 -5.08,2.27 -13.53,5.82 -17.55,8.63z"/>
   <path class="fil3" d="M132.2 210.29l7.21 3.64c-2.52,5.23 -4.1,5.02 -8.45,9.59l26.54 -10.24c-0.18,0.58 -7.61,9.44 -8.52,11.33l17.01 -6.64c-3.9,5.33 -10.04,12.57 -13.44,17.92 7.61,7.94 10.88,4.03 18.62,-0.23 3.91,-2.14 15.45,-7.81 17.89,-10.58 -7.84,-4.68 -19.41,-8.99 -28.29,-13.4 -11.04,-5.49 -17.44,-10.61 -28.57,-1.39z"/>
   <path class="fil0" d="M76.68 258.65c5.04,1.37 44.73,26.68 44.95,27.05 0.88,1.45 0.64,22.6 0.52,26.49l-0.86 26.86c-2.93,-1.46 -39.76,-28.52 -40.56,-29.76 -1.11,-1.72 -4.46,-45.85 -4.05,-50.64z"/>
   <path class="fil2" d="M79.74 263.64l37.55 22.62c2.59,2.56 2.22,10.92 1.26,14.42l-8.47 -4.57c-1.88,2.83 -4.46,8.95 -5.57,12.05l-2.66 -17 -5.12 11.92 -3.56 -26.55c-3.75,5.65 -4.18,12.96 -6.13,19.1 -7.48,-2.56 -5.87,-7.97 -6.42,-14.42 -0.43,-4.98 -1.33,-13.18 -0.88,-17.57z"/>
   <path class="fil3" d="M82.01 295.68l6.01 4.08c3.02,-4.26 2.16,-5.41 3.85,-10.83l3.54 25.36c0.37,-0.4 4.11,-10.12 5.19,-11.66l2.21 16.29c2.48,-5.4 5.51,-13.39 8.23,-18.41 9.57,2.53 7.92,6.8 7.95,14.75 0.02,4.02 0.6,15.58 -0.52,18.7 -7.1,-4.12 -15.54,-11.35 -22.89,-16.4 -9.14,-6.3 -15.97,-9.09 -13.57,-21.88z"/>
   <path class="fil0" d="M212.44 257.45c-5.04,1.37 -44.73,26.67 -44.96,27.04 -0.88,1.45 -0.63,22.61 -0.51,26.5l0.85 26.86c2.94,-1.46 39.76,-28.52 40.56,-29.76 1.12,-1.72 4.46,-45.85 4.06,-50.64z"/>
   <path class="fil2" d="M209.37 262.43l-37.54 22.63c-2.59,2.55 -2.22,10.91 -1.27,14.41l8.48 -4.56c1.88,2.83 4.45,8.95 5.57,12.04l2.65 -16.99 5.13 11.92 3.55 -26.55c3.75,5.64 4.18,12.96 6.14,19.1 7.48,-2.56 5.87,-7.97 6.42,-14.42 0.43,-4.99 1.32,-13.18 0.87,-17.58z"/>
   <path class="fil3" d="M207.11 294.47l-6.01 4.09c-3.02,-4.27 -2.16,-5.42 -3.86,-10.84l-3.53 25.36c-0.38,-0.4 -4.11,-10.11 -5.2,-11.66l-2.2 16.3c-2.49,-5.4 -5.51,-13.4 -8.23,-18.41 -9.57,2.53 -7.92,6.8 -7.96,14.75 -0.01,4.02 -0.59,15.57 0.52,18.7 7.1,-4.12 15.55,-11.35 22.9,-16.41 9.14,-6.29 15.96,-9.08 13.57,-21.88z"/>
  </g>
 </g>
</svg>
