<?xml version="1.0" encoding="UTF-8"?>
<!DOCTYPE svg PUBLIC "-//W3C//DTD SVG 1.1//EN" "http://www.w3.org/Graphics/SVG/1.1/DTD/svg11.dtd">
<!-- Creator: CorelDRAW 2017 -->
<svg xmlns="http://www.w3.org/2000/svg" xml:space="preserve" width="289px" height="578px" version="1.1" style="shape-rendering:geometricPrecision; text-rendering:geometricPrecision; image-rendering:optimizeQuality; fill-rule:evenodd; clip-rule:evenodd"
viewBox="0 0 289 578"
 xmlns:xlink="http://www.w3.org/1999/xlink">
 <defs>
  <style type="text/css">
   <![CDATA[
    .fil5 {fill:black}
    .fil1 {fill:#333333}
    .fil0 {fill:gray}
    .fil4 {fill:#999999}
    .fil6 {fill:#B3B3B3}
    .fil3 {fill:#CCCCCC}
    .fil2 {fill:#E6E6E6}
   ]]>
  </style>
 </defs>
 <g id="Capa_x0020_1">
  <metadata id="CorelCorpID_0Corel-Layer"/>
  <g id="_3126911886784">
   <path class="fil0" d="M189.8 221.27c-1.81,0.57 -6.53,0.89 -8.82,1.17l-17.05 1.78c-1.73,0.16 -3.22,0.16 -4.69,0.37 -1.34,0.2 -2.18,0.45 -3.66,0.33 -1.36,1.02 -5.28,10.14 -6.3,12.36 -2.01,4.36 -3.97,8.59 -5.99,12.97 -1.78,3.84 -11.18,23.85 -11.44,26.39 0.19,1.46 0.58,1.3 4.37,3.06 0.64,0.29 -0.3,-0.13 0.51,0.2l4.2 1.88c0.32,0.13 0.47,0.2 0.75,0.33l13.15 6.17c0.08,0.03 0.17,0.06 0.26,0.1l0.76 0.31c2.99,1.42 15.37,7.59 17.4,7.8 1.35,-1.64 9.92,-23.69 9.93,-26.1 -2.32,1.25 -9.43,3.87 -12.59,3.6 2.19,-0.75 5.6,-2.82 7.39,-4.08 5.92,-4.15 14.57,-13.84 16.16,-19.66 -2.03,0.76 -4.58,2.59 -7.11,3.67 -2.33,1 -5.76,2.26 -8.51,2.42 0.28,-0.29 0.21,-0.25 0.66,-0.57 2.37,-1.64 3.66,-1.2 9.9,-6.24 3.14,-2.52 5.64,-5.51 7.96,-9.2 2.87,-4.57 9.29,-18.52 9.87,-24.81 -2.75,1.27 -13.79,6.75 -17.11,5.75z"/>
   <path class="fil1" d="M102.08 351.81c-0.09,1.83 -0.1,0.46 0.36,1 1.9,-0.18 3.28,-0.55 5.37,-0.65 2.23,-0.1 3.7,-0.61 5.4,-0.69 11.32,-0.64 29.26,-12.56 37.11,-20.15 4.53,-4.38 8.89,-9.73 12.82,-15.8 2.14,-3.31 9.21,-15.08 10.11,-19.03 -2.03,-0.21 -14.41,-6.38 -17.4,-7.8l-0.76 -0.31c-0.09,-0.04 -0.18,-0.07 -0.26,-0.1l-13.15 -6.17c-0.28,-0.13 -0.43,-0.2 -0.75,-0.33l-4.2 -1.88c-0.81,-0.33 0.13,0.09 -0.51,-0.2 -3.79,-1.76 -4.18,-1.6 -4.37,-3.06 -1.32,1.43 -6.81,15.45 -7.91,18.3 -2.36,6.1 -5.12,12.43 -7.49,18.61 -2.45,6.36 -4.8,12.5 -7.28,18.82 -1.14,2.9 -6.74,17.48 -7.09,19.44z"/>
   <path class="fil0" d="M101.53 270.64l24.15 11.18 13.27 -29.46c2.19,-4.87 4.63,-9.76 6.88,-14.59 1.91,-4.1 6.03,-11.05 7.17,-14.86 -0.68,-1.04 -1.16,-2.25 -1.71,-3.26l-8.47 -16.25c-0.95,-1.79 -2.75,-4.77 -3.18,-6.53 -2.42,2.31 -18.53,31.97 -20.4,35.41 -2.85,5.23 -17.43,34.43 -17.71,38.36z"/>
   <path class="fil2" d="M181.98 136.84c-0.17,1.75 5.64,11.86 7.22,14.76l1.85 3.54c0.9,1.25 -0.09,0.95 1.17,0.63 0.64,-0.39 6.03,-7.91 6.94,-9.19 1.16,-1.61 2.35,-3 3.61,-4.61 1.06,-1.35 2.64,-3.43 3.78,-4.44 -2.71,4.4 -11.21,14.93 -12.91,18.82 0.79,0.56 -0.23,0.1 0.83,0.35 1.38,0.32 7.66,-0.46 9.23,-0.59l19.51 -2.55c3.29,-0.54 7.23,-0.97 10.03,-1.68 2.71,-10.63 1.42,-28.45 -7.55,-36.7 -1.67,-1.52 -2.05,-2.18 -4.21,-3.66 -1.55,-1.06 -3.75,-1.64 -5.36,-2.61l-4.54 0c-5.03,2.85 -1.42,-0.39 -8.89,5.43l-7.32 6.99c-1.89,1.96 -12.79,13.72 -13.39,15.51z"/>
   <path class="fil1" d="M85.25 322.91c0.13,1.73 9.93,20.54 12.4,25.1 0.74,1.37 0.23,0.93 1.2,1.21 7.28,-19.24 15.24,-39.85 23.38,-58.87 1.03,-2.42 2.93,-6.27 3.45,-8.53l-24.15 -11.18c-1.29,1.2 -1.89,4 -2.6,5.74l-6.69 19.05c-2.19,7.31 -6.25,19.93 -6.99,27.48z"/>
   <path class="fil3" d="M193.64 156.35c-0.31,0.34 -0.05,-0.01 -0.52,0.62 -2.27,3.07 -14.45,22.52 -14.65,24.64 0.23,0.95 -0.08,0.21 0.5,0.73l7.72 3.69c0.96,0.39 1.27,0.61 2.14,1.07l11.92 5.61c0.52,0.25 0.67,0.26 1.28,0.51 0.03,0.02 0.96,0.44 0.98,0.45 3.09,1.64 5.64,2.35 7.65,3.78 0.96,0.69 1.31,0.79 2.44,1.21 1.32,-1.47 4.8,-7.9 6.04,-10.29 1.86,-3.58 3.79,-7.48 5.61,-11.2 3.07,-6.28 7.61,-17.44 8.49,-25.29 -2.8,0.71 -6.74,1.14 -10.03,1.68l-19.51 2.55c-1.57,0.13 -7.85,0.91 -9.23,0.59 -1.06,-0.25 -0.04,0.21 -0.83,-0.35z"/>
   <path class="fil4" d="M155.58 224.92c1.48,0.12 2.32,-0.13 3.66,-0.33 1.47,-0.21 2.96,-0.21 4.69,-0.37l17.05 -1.78c2.29,-0.28 7.01,-0.6 8.82,-1.17 2.55,-0.91 5.28,-2.61 7.42,-4.02 4.72,-3.12 8.16,-6.7 11.41,-11.48 1.34,-1.96 3.49,-4.92 4.47,-7.11 -1.13,-0.42 -1.48,-0.52 -2.44,-1.21 -2.01,-1.43 -4.56,-2.14 -7.65,-3.78 -0.02,-0.01 -0.95,-0.43 -0.98,-0.45 -0.61,-0.25 -0.76,-0.26 -1.28,-0.51l-11.92 -5.61c-0.87,-0.46 -1.18,-0.68 -2.14,-1.07l-7.72 -3.69c-0.58,-0.52 -0.27,0.22 -0.5,-0.73 -1.37,0.95 -5.06,8.3 -6.18,10.36 -1.96,3.59 -3.92,6.99 -5.75,10.71 -1.77,3.62 -10.71,19.91 -10.96,22.24z"/>
   <path class="fil5" d="M113.21 351.47c-1.7,0.08 -3.17,0.59 -5.4,0.69 -2.09,0.1 -3.47,0.47 -5.37,0.65 -0.46,-0.54 -0.45,0.83 -0.36,-1 -1.1,1.73 -11.65,31.67 -12.3,34.66 0.94,0.81 2.2,1.56 3.11,2.39 3.67,3.36 4.92,7.36 6.77,9.06 -0.01,-7.9 -5.59,-12.55 -6.5,-14.23 14.8,0.67 29,-1.96 39.26,-11.61 1.78,-1.67 6.08,-6.81 6.91,-9.96 -3.89,2.8 -6.69,6.98 -16.85,5.74 2.48,-1.93 8.35,-2.98 17.85,-11.48 3.19,-2.85 9.71,-11.75 11.74,-17.11 -1.71,1.05 -2.11,2.04 -3.54,3.14 -1.25,0.95 -2.47,1.97 -3.85,2.94 -5.46,3.86 -12.35,6.47 -19.33,7.13 -0.68,0.06 -12.42,0.63 -12.14,-1.01z"/>
   <path class="fil5" d="M54.5 468.54l0 0.55 0.57 0c0.07,-0.07 0.17,-0.15 0.22,-0.2 1.92,-1.55 3.49,-1.89 4.63,-5.38l7.33 -23.45c9.81,-30.72 20.72,-60.73 31.6,-90.84 -0.97,-0.28 -0.46,0.16 -1.2,-1.21 -2.47,-4.56 -12.27,-23.37 -12.4,-25.1 -1.83,3.97 -3.44,21.78 -3.99,27.36 -1.39,-1.21 -1.56,-2.02 -3.36,-3.65 -3.51,-3.16 -6.83,-6.53 -11.82,-9 0.57,1.34 6.41,9.97 9.13,15.63 2.44,5.09 5.46,12.29 5.62,18.8 -5.82,1.4 -11.65,-1.4 -16.62,-2.65 2.34,3.31 9.52,6.93 13.45,8.67 -6.21,1.13 -14.58,5.5 -18.87,9.78 7.23,-1.88 13.55,-5.79 23.17,-4.1l-25.59 79.62c-0.86,2.73 -0.98,3.98 -1.87,5.17z"/>
   <path class="fil6" d="M146.57 186.09c0.79,1.12 0.45,1.02 2.53,1.95l2.46 1.11c0.53,0.24 0.92,0.41 1.23,0.55l7.79 3.68c0.07,0.04 0.16,0.09 0.23,0.13 0.08,0.03 0.17,0.08 0.24,0.11 0.07,0.04 0.17,0.09 0.24,0.12l0.47 0.23c1.14,0.53 4.62,2.18 5.78,2.21 1.58,-4.39 14.28,-23.85 15.01,-25.87 -1.49,-0.01 -1.41,-0.31 -2.46,-0.87l-14.73 -6.73c-1.39,-0.57 -2.06,-0.58 -1.73,-1.98 -1.74,1.71 -16.86,23.76 -17.06,25.36z"/>
   <path class="fil4" d="M139.64 196.87c0.43,1.76 2.23,4.74 3.18,6.53l8.47 16.25c0.55,1.01 1.03,2.22 1.71,3.26 1.4,-1.64 2.42,-4.56 3.5,-6.65 1.24,-2.4 2.42,-4.47 3.6,-6.78 0.91,-1.77 6.64,-12.9 7.44,-13.3 -1.16,-0.03 -4.64,-1.68 -5.78,-2.21l-0.47 -0.23c-0.07,-0.03 -0.17,-0.08 -0.24,-0.12 -0.07,-0.03 -0.16,-0.08 -0.24,-0.11 -0.07,-0.04 -0.16,-0.09 -0.23,-0.13l-7.79 -3.68c-0.31,-0.14 -0.7,-0.31 -1.23,-0.55l-2.46 -1.11c-2.08,-0.93 -1.74,-0.83 -2.53,-1.95 -0.48,0.37 -0.22,0.11 -0.64,0.59l-6.29 10.19z"/>
   <path class="fil3" d="M163.63 160.73c-0.33,1.4 0.34,1.41 1.73,1.98l14.73 6.73c1.05,0.56 0.97,0.86 2.46,0.87 0.79,-0.77 9.18,-13.46 9.67,-14.54 -1.26,0.32 -0.27,0.62 -1.17,-0.63l-1.85 -3.54c-1.58,-2.9 -7.39,-13.01 -7.22,-14.76 -2,1.42 -7.52,9.15 -9.49,11.7 -1.58,2.05 -2.89,3.83 -4.44,5.93 -1.27,1.73 -3.66,4.53 -4.42,6.26z"/>
  </g>
 </g>
</svg>
