<?xml version="1.0" encoding="UTF-8"?>
<!DOCTYPE svg PUBLIC "-//W3C//DTD SVG 1.1//EN" "http://www.w3.org/Graphics/SVG/1.1/DTD/svg11.dtd">
<!-- Creator: CorelDRAW 2017 -->
<svg xmlns="http://www.w3.org/2000/svg" xml:space="preserve" width="434px" height="578px" version="1.1" style="shape-rendering:geometricPrecision; text-rendering:geometricPrecision; image-rendering:optimizeQuality; fill-rule:evenodd; clip-rule:evenodd"
viewBox="0 0 434 578"
 xmlns:xlink="http://www.w3.org/1999/xlink">
 <defs>
  <style type="text/css">
   <![CDATA[
    .fil0 {fill:#231F20}
   ]]>
  </style>
 </defs>
 <g id="Capa_x0020_1">
  <metadata id="CorelCorpID_0Corel-Layer"/>
  <g id="_3126915717360">
   <path class="fil0" d="M93.91 249.75c-9.77,2.45 -15.9,6.66 -20.62,13.15 -17.48,23.98 3.8,60.51 35.31,52.8 45.48,-11.13 27.06,-76.4 -14.69,-65.95z"/>
   <path class="fil0" d="M311.16 341.25c-35.98,8.13 -23.26,59.76 11.4,52.11 12.83,-2.83 23.96,-15.99 20.06,-32.59 -2.79,-11.91 -15.77,-23.07 -31.46,-19.52z"/>
   <path class="fil0" d="M285.03 164.5c-31.35,6.02 -21.86,52.05 8.6,46.07 30.94,-6.08 21.26,-51.81 -8.6,-46.07z"/>
   <path class="fil0" d="M342.74 250.31c-27.52,4.45 -22.19,45.04 5.93,41.78 10.89,-1.27 19.83,-11.38 18.12,-24.08 -1.4,-10.46 -11.9,-19.66 -24.05,-17.7z"/>
   <path class="fil0" d="M289.69 351.55c1.41,-5.61 -4.27,-6.74 -13.84,-11.98 -6.35,-3.48 -11.2,-6.09 -17.32,-9.24 -11.89,-6.14 -23.97,-12.08 -36.76,-17.27 -8.11,-3.29 -78.1,-26.31 -82.71,-21.82 -5.34,5.2 12.55,7.3 15.97,8.07 42.05,9.45 79.04,23.06 115.88,44.28 4.37,2.52 14,9.32 18.78,7.96z"/>
   <path class="fil0" d="M163.21 380.97c-21.58,3.84 -17.02,36.33 5.67,32.76 21.21,-3.34 16.26,-36.67 -5.67,-32.76z"/>
   <path class="fil0" d="M133.7 187.11c-23.1,7.84 -10.07,38.2 10.05,31.49 20.71,-6.91 10.15,-38.34 -10.05,-31.49z"/>
   <path class="fil0" d="M236.59 236.42c-22.37,6.14 -13.1,37.41 8.5,31.99 19.41,-4.87 13.26,-37.97 -8.5,-31.99z"/>
   <path class="fil0" d="M153.3 188.67c4.25,1.98 7.57,-1.49 11.16,-3.48 3.92,-2.19 7.04,-3.89 11.45,-5.66 50.39,-20.24 79.56,-1.56 88.3,-4.33 1.2,-6.1 -4.91,-6.1 -10.04,-7.32 -32.84,-7.83 -69.52,-3.08 -97.73,14.91 -2.72,1.74 -3.56,2.07 -3.14,5.88z"/>
   <path class="fil0" d="M222.95 413.98c21.1,0 40.08,-4.77 58.15,-13.88 4.88,-2.45 13.03,-5.34 13.39,-10.93 -4.6,-4.09 -13.11,5.78 -30.44,11.84 -19.47,6.79 -39.4,8.81 -60.34,5.52 -4.4,-0.69 -16.98,-5.53 -18.18,-0.95 -1.81,6.94 31.63,8.4 37.42,8.4z"/>
   <path class="fil0" d="M262.64 194.59c-4.54,-3.02 -22.25,5.25 -27.8,7.26 -9.14,3.31 -18.39,7.17 -26.92,10.92l-37.83 19.08c-2.62,1.49 -11.81,4.84 -9.34,9.07 2.27,3.91 9.45,-2.28 11.82,-3.7 4.4,-2.63 7.71,-4.23 12.22,-6.76 20.25,-11.34 51.07,-22.83 73.75,-30.52 3.5,-1.19 4.47,-1.08 4.1,-5.35z"/>
   <path class="fil0" d="M258.57 343.91c-3.28,1.46 -6.54,4.03 -9.45,5.81l-61.17 33.67c-6.17,3.37 -3.82,7.62 1.21,6.13 4.18,-1.25 15.71,-8.32 20.7,-10.79 6.94,-3.42 13.39,-7.25 20.21,-11.05 6.52,-3.63 13.67,-7.62 19.82,-11.47 3.64,-2.27 6.6,-4.12 10,-6.13 6.77,-4.01 3.25,-8.22 -1.32,-6.17z"/>
   <path class="fil0" d="M219.35 252.5c-8.37,-2.44 -51.56,9.05 -63.81,12.29 -3.41,0.9 -19.77,3.3 -16.95,8.26 2.27,3.97 15.64,-1.7 19.47,-2.77 14.68,-4.08 38.43,-9.7 53.69,-11.75 6.46,-0.87 7.96,0.35 7.6,-6.03z"/>
   <path class="fil0" d="M103.34 321.78c-2.58,2.46 -0.21,6.5 1.24,10.33 3.74,9.85 8.79,19.6 14.7,28.07 23.55,33.76 38.18,29.59 24.4,18.3 -14.15,-11.59 -28.55,-33.06 -34.32,-51.07 -1.09,-3.39 -2.33,-9.15 -6.02,-5.63z"/>
   <path class="fil0" d="M205.53 317.97c-5.31,-1.44 -5.93,2.62 -9.95,12.11 -3.44,8.13 -21.36,46.62 -18.16,49.67 4.39,4.18 7.61,-8.85 9,-12.28l13.46 -32.16c1.89,-4.37 6.98,-12.7 5.65,-17.34z"/>
   <path class="fil0" d="M276.96 335.56c4.83,1.56 10.87,-4.76 14.78,-7.68 5.63,-4.18 8.98,-6.81 14.4,-11.2 4.61,-3.74 8.79,-7.46 13.47,-11.21 2.28,-1.83 12.76,-10.27 11.28,-13.14 -2.79,-5.44 -11.64,5.56 -13.91,7.59 -4.07,3.63 -9.3,8.08 -13.91,11.74l-21 15.98c-2.9,2.02 -6.02,2.98 -5.11,7.92z"/>
   <path class="fil0" d="M263.56 250.62c-9.23,5.66 15.85,6.91 25.69,8.79 4.82,0.92 28.54,7.97 30.76,6.51 7.8,-5.09 -20.07,-10.38 -24.29,-11.3 -5.11,-1.1 -28.92,-5.99 -32.16,-4z"/>
   <path class="fil0" d="M292.43 314.29c1.49,-6.6 -19.52,-33.46 -24.58,-39.15 -1.64,-1.84 -8.45,-12.3 -11.96,-8.4 -2.53,2.8 2.31,6.21 7.3,12.19 3.43,4.11 6.45,7.73 9.57,12.24l12.78 19.52c1.96,3.52 2.07,5.56 6.89,3.6z"/>
   <path class="fil0" d="M311.74 204.07c-3.8,3.44 5.04,9.18 12.93,21.4 7.7,11.91 10.19,25.05 14.69,20.79 4.65,-4.4 -13.51,-29.98 -17.62,-35.01 -1.88,-2.29 -6.29,-10.53 -10,-7.18z"/>
   <path class="fil0" d="M343.84 297.58c-1.07,1.02 -4.35,21.02 -5.51,24.89 -1.13,3.81 -10.44,25.77 -1.11,19.01 4.26,-3.09 18.53,-55.27 6.62,-43.9z"/>
   <path class="fil0" d="M160.16 259.02c1.81,-5.11 -3.18,-15.72 -5.01,-20.84 -1.18,-3.33 -2.5,-6.26 -3.74,-9.55 -2.02,-5.38 -1.1,-7.01 -6.91,-6.35 -1.7,4.7 6.3,20.69 9.11,29.92 1.32,4.31 1.03,8.15 6.55,6.82z"/>
   <path class="fil0" d="M226.71 269.71c-3.41,1.8 -12.78,21.73 -15.61,27.35 -1.27,2.54 -2.87,10.19 2.31,7.18 1.52,-0.88 12.29,-22.11 15.4,-27.5 1.25,-2.17 3.11,-9.79 -2.1,-7.03z"/>
   <path class="fil0" d="M269.27 208.73c-0.44,0.26 -27.77,31.64 -13.74,26.74l16.52 -21.07c2.67,-4.32 1.08,-7.95 -2.78,-5.67z"/>
   <path class="fil0" d="M118.98 218.43c-1.7,1.64 -7.03,11.3 -8.5,14.28 -8.28,16.77 -0.59,13.26 0.92,11.57 1.27,-1.42 6.3,-12.5 7.81,-15.14 1.39,-2.41 3.72,-5.33 4.51,-7.05 2.08,-4.53 -1.33,-6.94 -4.74,-3.66z"/>
   <path class="fil0" d="M158.62 207.94c-0.09,5.65 6.36,5.64 11.54,7.5 3.27,1.17 12.17,6.69 14.38,2.46 2.23,-4.26 -7.44,-6.13 -10.55,-7.29 -4.58,-1.72 -11.25,-5.8 -15.37,-2.67z"/>
   <path class="fil0" d="M204.52 226.43c-0.03,0.03 -4.24,1.32 0.79,4.93 1.44,1.04 4.62,2.48 6.18,3.39 2.82,1.64 9.05,7.09 11.61,4.68 4.1,-3.86 -4.73,-7.46 -7.32,-8.99 -2.66,-1.58 -8.46,-6.55 -11.26,-4.01z"/>
   <path class="fil0" d="M143.64 248.83c-16.34,7.68 -16.53,19.84 1.82,5.8 5.12,-3.92 2.19,-7.68 -1.82,-5.8z"/>
  </g>
 </g>
</svg>
