<?xml version="1.0" encoding="UTF-8"?>
<!DOCTYPE svg PUBLIC "-//W3C//DTD SVG 1.1//EN" "http://www.w3.org/Graphics/SVG/1.1/DTD/svg11.dtd">
<!-- Creator: CorelDRAW 2017 -->
<svg xmlns="http://www.w3.org/2000/svg" xml:space="preserve" width="289px" height="578px" version="1.1" style="shape-rendering:geometricPrecision; text-rendering:geometricPrecision; image-rendering:optimizeQuality; fill-rule:evenodd; clip-rule:evenodd"
viewBox="0 0 289 578"
 xmlns:xlink="http://www.w3.org/1999/xlink">
 <defs>
  <style type="text/css">
   <![CDATA[
    .fil0 {fill:black}
   ]]>
  </style>
 </defs>
 <g id="Capa_x0020_1">
  <metadata id="CorelCorpID_0Corel-Layer"/>
  <g id="_3126911813328">
   <path class="fil0" d="M100.04 264.27c-26.7,2.91 -48.84,26.65 -45.13,56.38 3.1,24.87 28.08,47 58.95,42.85 25.99,-3.5 48.54,-26.28 44.66,-56.25 -3.28,-25.32 -27.82,-46.33 -58.48,-42.98zm2.03 7.15c-22.91,2.72 -42.46,21.58 -39.8,46.64 2.35,22.14 22.79,40.88 48.97,38.42 22.61,-2.13 42.65,-22.22 39.71,-47.29 -2.51,-21.48 -23.34,-40.8 -48.88,-37.77z"/>
   <path class="fil0" d="M94.6 256.44c7.93,-1.77 131.47,-1.79 138.99,0.01 -2.22,-8.56 -12.13,-32.6 -16.89,-37.81 -5.59,-6.13 -13.28,-4.41 -23.35,-4.41l-56.96 0c-9.5,0 -19.13,-1.64 -24.71,3.88 -5.21,5.16 -14.36,29.16 -17.08,38.33z"/>
   <path class="fil0" d="M162.06 286.45l64.18 0c9.89,0 7.94,-6.13 7.94,-18.65 0,-10.18 -11.29,-7.17 -20.77,-7.17 -26.81,0 -59.04,-0.7 -84.64,0.08 3.43,3.23 14,5.09 25.02,18.84 2.83,3.52 2.98,6.9 8.27,6.9zm49.71 -19.65c-9.47,5.08 -2.5,17.3 6.88,13.76 9.6,-3.63 2.96,-19.05 -6.88,-13.76z"/>
   <path class="fil0" d="M154.14 348.07c13.05,1.05 48.59,0.16 65.68,0.17 9.13,0.01 14.3,1.95 14.39,-7.53 0.06,-5.58 1.62,-15.69 -3.13,-17.68 -2.74,-1.14 -61.13,-0.66 -65.55,-0.42 -4.29,13.46 -4.7,15.08 -11.39,25.46zm58.68 -19.83c-10.13,3.76 -5.18,17.21 5.01,14.41 10.12,-2.79 4.9,-18.09 -5.01,-14.41z"/>
   <path class="fil0" d="M165.87 317.08l61.95 0.28c8.25,-0.46 6.33,-7.01 6.36,-14.28 0.03,-8.83 1.19,-11.51 -8.7,-11.55 -14.97,-0.05 -53.71,-0.7 -64.06,0.22 3.76,11.64 3.18,12.24 4.45,25.33zm46.53 -19.72c-9.46,3.47 -4.66,17.2 5.3,14.44 9.55,-2.63 5.61,-18.44 -5.3,-14.44z"/>
   <path class="fil0" d="M104.74 352.66l-0.03 -19.15c-12.03,-3.21 -14.85,-6.28 -18.57,-17.68l-19.94 -0.12c-2.57,17.09 21.1,39.81 38.54,36.95z"/>
   <path class="fil0" d="M108.56 294.27c11.8,2.88 15.4,6.59 18.56,17.71l20.11 0.08c1.1,-18.41 -19.44,-38.38 -38.63,-37.08l-0.04 19.29z"/>
   <path class="fil0" d="M102.99 298.36c-21.83,4.57 -14.12,36.42 8,31.11 19.53,-4.68 14.55,-35.84 -8,-31.11zm-0.59 4.18c-4.6,1.97 -4.89,1.21 -7.23,5.62 -1.83,3.46 -2.09,6.72 -0.59,10.34 2.19,5.28 9.09,9.92 17.04,6.84 15.82,-6.12 5.73,-29.22 -9.22,-22.8z"/>
   <path class="fil0" d="M103.74 306.17c-11.6,4.73 -4.39,19.51 6.34,15.52 9.91,-3.69 4.52,-19.95 -6.34,-15.52z"/>
  </g>
 </g>
</svg>
