<?xml version="1.0" encoding="UTF-8"?>
<!DOCTYPE svg PUBLIC "-//W3C//DTD SVG 1.1//EN" "http://www.w3.org/Graphics/SVG/1.1/DTD/svg11.dtd">
<!-- Creator: CorelDRAW 2017 -->
<svg xmlns="http://www.w3.org/2000/svg" xml:space="preserve" width="289px" height="578px" version="1.1" style="shape-rendering:geometricPrecision; text-rendering:geometricPrecision; image-rendering:optimizeQuality; fill-rule:evenodd; clip-rule:evenodd"
viewBox="0 0 289 578"
 xmlns:xlink="http://www.w3.org/1999/xlink">
 <defs>
  <style type="text/css">
   <![CDATA[
    .fil0 {fill:black}
   ]]>
  </style>
 </defs>
 <g id="Capa_x0020_1">
  <metadata id="CorelCorpID_0Corel-Layer"/>
  <g id="_3126910668224">
   <path class="fil0" d="M142.08 327.63l-7.47 13.1c-1.28,2.31 -7.18,11.79 -7.33,13.61l6.5 2.53c11.81,4.72 28.78,6.21 41.52,3.25 0,-16.68 20.47,-31.46 38.98,-21.66l7.44 -9.18c1.22,-1.68 2,-3.34 3.18,-5.11 1.19,-1.8 1.88,-3.49 2.86,-5.45 3.09,-6.12 6.74,-17.83 6.74,-26.83 -10.41,0 -19.59,-0.36 -29.96,-0.36 -1.83,7.82 -1.56,11.19 -6.88,19.47 -6.82,10.63 -20.1,19.62 -33.2,20.23 -7.24,0.34 -15.78,-0.12 -22.38,-3.6z"/>
   <path class="fil0" d="M88.29 265.9c1.67,1.11 3.16,2.24 4.61,3.69 4.37,4.36 7.67,11.32 7.67,17.61 0,7.71 -1.82,14.3 -7.13,19.59 -4.64,4.62 -5.13,2.32 -2.01,9.76 2.39,5.67 8.41,15.55 12.83,20.02 3.78,3.82 3.79,4.26 8.5,8.11 1.52,1.24 3.09,2.63 4.78,3.52 0.33,-1.43 7.65,-14.15 8.95,-16.31l5.49 -10.04c-1.9,-2.83 -6.57,-5.38 -10.72,-13.11 -8.9,-16.59 -7.16,-37.58 5.21,-50.88 1.76,-1.89 3.99,-4.55 6.23,-6.04l-15.89 -25.63 -4.78 3.52c-5.42,4.86 -7.71,7.15 -12.34,13.29 -4.53,6.01 -6.24,10.14 -9.11,16.52 -0.94,2.09 -1.38,4.49 -2.29,6.38z"/>
   <path class="fil0" d="M126.92 219.69c0.1,1.22 4.34,8.34 5.26,9.9 0.74,1.24 1.34,2.3 1.96,3.46 2.42,4.47 5.19,8.84 7.58,13.35 12.36,-6.54 30.68,-4.6 41.81,2.6 6.37,4.11 10.01,7.76 14.15,14 2.87,4.32 4.93,9.61 6.05,14.9 0.74,3.52 -0.55,3.97 3.31,3.9 9.19,-0.15 18.01,-0.74 27.46,-0.74 0,-9.02 -4.63,-22.73 -8.64,-29.63 -1.49,-2.55 -4.11,-7.03 -5.91,-9.25 -1.21,-1.49 -2.49,-2.94 -3.5,-4.44 -6.48,3.43 -5.63,3.69 -14.35,4.81 -9.62,1.23 -19.42,-5.01 -24.43,-13.32 -2.85,-4.7 -3.46,-8.35 -3.46,-15.68 -2.11,-0.18 -4.84,-0.82 -6.91,-1.03 -1.28,-0.14 -2.58,0.04 -3.86,-0.11 -6.68,-0.73 -15.74,0.35 -21.57,2.01l-11.33 3.83c-1.2,0.54 -2.05,1.31 -3.62,1.44z"/>
   <path class="fil0" d="M72.05 307.77c7.17,0 10.6,-0.66 15.98,-6.04 7.2,-7.2 7.08,-19.32 -0.18,-26.73 -0.92,-0.94 -1.31,-1.17 -2.33,-2 -7.24,-5.93 -18.56,-4.9 -25.4,1.9 -3.55,3.53 -5.25,7.87 -5.59,13.15 -0.63,9.88 8.76,19.72 17.52,19.72z"/>
   <path class="fil0" d="M181.43 215.36c0,11.32 9.27,19.85 17.69,19.85 7.28,0 9.24,-0.63 14.39,-4.74l2.33 -2.36c0.56,-0.7 0.57,-0.59 1.13,-1.41 2.02,-2.93 3.22,-6.93 3.3,-10.67 0.17,-7.26 -4.26,-14.02 -10.56,-17.4 -2.22,-1.19 -4.59,-1.85 -6.99,-2.05l-3.05 0c-9.41,0.76 -18.24,8.32 -18.24,18.78z"/>
   <path class="fil0" d="M182.52 361.2l0 1.81c0,9.5 8.91,18.41 18.41,18.41 7.31,0 12.55,-2.56 16.46,-7.73 4.32,-5.72 4.97,-13.59 1.95,-20.07 -0.83,-1.78 -2.42,-3.8 -3.83,-5.2 -6.04,-6.05 -15.16,-7.33 -22.41,-3.71 -1.78,0.89 -3.36,2.18 -4.77,3.53 -2.91,2.78 -5.81,7.43 -5.81,12.96z"/>
  </g>
 </g>
</svg>
