<?xml version="1.0" encoding="UTF-8"?>
<!DOCTYPE svg PUBLIC "-//W3C//DTD SVG 1.1//EN" "http://www.w3.org/Graphics/SVG/1.1/DTD/svg11.dtd">
<!-- Creator: CorelDRAW 2017 -->
<svg xmlns="http://www.w3.org/2000/svg" xml:space="preserve" width="289px" height="578px" version="1.1" style="shape-rendering:geometricPrecision; text-rendering:geometricPrecision; image-rendering:optimizeQuality; fill-rule:evenodd; clip-rule:evenodd"
viewBox="0 0 289 578"
 xmlns:xlink="http://www.w3.org/1999/xlink">
 <defs>
  <style type="text/css">
   <![CDATA[
    .fil0 {fill:black}
   ]]>
  </style>
 </defs>
 <g id="Capa_x0020_1">
  <metadata id="CorelCorpID_0Corel-Layer"/>
  <g id="_3126908780448">
   <path class="fil0" d="M108.99 338.87l0 0zm20.93 -137.44l7.31 0c8.16,0.38 16.23,2 24.21,4.71 6.91,2.35 13.1,6.08 19.11,10.08 3.45,2.3 4.47,3.63 6.72,5.44l3.63 3.43c11.83,11.83 22.68,31.07 22.68,54.67 0,7.07 -1.83,20.92 -4.86,27.24 -1.64,-0.87 -3.6,-1.58 -5.42,-2.36l-13.64 -5.83c-0.75,-0.33 -1.9,-0.89 -2.59,-1.05 0.62,-0.85 8.22,-2.64 9.63,-3.75 1.07,-0.83 1.8,-8.95 1.8,-11.33 0,-5.85 0.14,-9.53 -1.22,-15.33 -0.42,0.04 -14.81,4.72 -19.46,5.11 0,2.17 0.25,3.38 0.25,5.59l-0.24 9.01c0.02,2.2 -0.49,4.16 -0.49,6.32 -1.52,-0.13 -9.45,-4.26 -10.95,-4.38l0.48 -7.31c0.21,-2.54 -0.23,-4.85 -0.23,-7.53 -1.22,0.59 -16.25,1.7 -18.5,1.7 -1.46,-0.01 -1.76,0.24 -3.14,0.26l-5.36 -0.01 0 27.48 8.51 -0.24 1.51 5.55c0.45,1.66 0.99,3.59 1.41,5.4 -1.22,0 -1.5,0.25 -2.91,0.25 -0.91,0 -2.01,-0.07 -2.89,0.03 -1.75,0.19 -3.54,0.2 -5.63,0.2l0 24.09c1.56,-0.37 3.42,-1.45 4.63,-2.18 2.92,-1.75 5.07,-3.99 7.22,-6.4 0.91,-1.02 2.36,-3.17 2.98,-3.59l7.06 27.25c-1.99,0.46 -4.18,1.35 -6.3,1.97 -17.39,5.12 -38.04,3.05 -53.54,-3.92 -9.9,-4.46 -14.02,-7.7 -22.06,-14.42l-8.05 -8.74c-5.46,-6.7 -9.24,-13.71 -12.32,-21.74 -0.94,-2.44 -1.68,-4.78 -2.33,-7.4 -2.4,-9.7 -2.43,-12.86 -2.43,-22.4l0 -0.46c0,-15.95 7.25,-32.79 16.78,-45.25l4.45 -5.04c0.85,-0.89 1.18,-1.58 2.19,-2.42 1.79,-1.5 3.11,-2.95 5.04,-4.45l6.82 -5.1c7.82,-4.98 15.36,-8.54 24.65,-10.86 5.19,-1.3 10.36,-2.05 15.49,-2.29zm-23.12 111.89c1.93,0.05 7.94,0.99 10.45,0.98 3.62,-0.01 7.1,0.48 11.2,0.48l0 24.09c-2.77,-0.65 -5.55,-2.62 -7.51,-4.17 -5.62,-4.46 -10.54,-12.47 -13.21,-19.15 -0.27,-0.69 -0.58,-1.55 -0.93,-2.23zm-31.62 -7.05c1.62,0.38 2.91,1.02 4.52,1.56 1.63,0.53 3.1,0.93 4.72,1.36 1.95,0.51 8.22,2.19 9.97,2.19l2.68 7.78c2.62,5.97 5.37,11.65 9.54,16.73 0.82,1 1.69,1.96 2.38,2.98 -1.69,-0.4 -4.21,-1.81 -5.68,-2.6l-5.22 -3.05c-1.65,-1.05 -3.23,-2.29 -4.75,-3.52 -0.83,-0.67 -1.46,-1.17 -2.28,-1.85 -0.79,-0.67 -1.3,-1.39 -2.09,-2.05l-4.1 -4.17c-3.01,-3.76 -4.32,-5.44 -6.88,-9.66 -0.58,-0.95 -0.92,-1.68 -1.5,-2.64 -0.58,-0.97 -1.05,-1.9 -1.31,-3.06zm0 0l0 0zm26.02 -24.32c0,-2.36 -0.27,-5.59 0.25,-7.79l12.63 1.23c5.04,0.39 8.88,0.72 14.37,0.72l0 27.48 -25.06 -1.94 -1.5 -9.44c-0.39,-3.09 -0.69,-6.75 -0.69,-10.26zm-11.19 -7.79c0,8.1 -0.16,13.44 0.96,21.42 0.17,1.19 0.5,2.69 0.5,3.88 -6.49,-1.51 -9.59,-2.48 -15.56,-5.11 -0.62,-0.27 -0.96,-0.51 -1.57,-0.87 -0.69,-0.41 -1.03,-0.53 -1.7,-0.97 -1.83,-1.21 -2.31,-1.16 -2.55,-2.81 -1.04,-7.17 -0.87,-10.09 -0.27,-17 0.13,-1.58 0.73,-5.79 1.22,-6.81l16.6 5.54c0.96,0.2 1.76,0.47 2.62,0.54 -0.03,1.1 -0.25,0.97 -0.25,2.19zm49.63 -9l0 -44.03c0.47,0.23 0.82,0.31 1.37,0.57 0.58,0.27 0.88,0.44 1.46,0.73 3.1,1.54 4.84,3.09 7.2,5.45 2.7,2.71 5.47,6.37 7.24,9.79 2.33,4.51 3.46,6.84 5.2,11.83l1.9 6.61c0.45,1.9 1.24,5.03 1.41,7.11 -1.97,0 -11.98,1.48 -15.8,1.46l-9.98 0.48zm-11.19 -44.03l0 43.79 -25.79 -1.95c0,-2.52 2.39,-10.94 3.26,-13.53 2.19,-6.57 4.62,-11.47 8.42,-16.87 0.58,-0.84 1.08,-1.54 1.78,-2.36 0.72,-0.86 1.26,-1.54 2.05,-2.33 1.93,-1.91 4.7,-4.21 7.19,-5.45 1.07,-0.54 2.09,-0.82 3.09,-1.3zm30.4 0c2.65,0.62 9.25,4.53 11.49,6.03l2.55 1.83c1.85,1.5 6.74,5.47 8.27,7.3l3.04 3.52c2.95,3.37 9.09,13.27 9.92,16.84 -1.01,0.08 -2.71,0.86 -3.68,1.19 -4.03,1.34 -7.88,2.24 -11.95,3.13 -3.01,0.66 -1.48,0.84 -3.24,-6.12 -3.56,-14.1 -6.82,-21.52 -15.18,-32.26 -0.44,-0.56 -0.84,-0.89 -1.22,-1.46zm-67.38 39.65c-1.36,-0.03 -7.29,-1.82 -8.82,-2.36 -1.43,-0.51 -2.75,-1 -4.07,-1.53 -1.18,-0.46 -2.85,-1.46 -3.89,-1.7 0.03,-1.26 0.65,-2.03 1.13,-3 0.53,-1.05 0.91,-1.91 1.47,-2.92 3.08,-5.54 6.75,-10.13 11.2,-14.57 0.75,-0.75 1.26,-1.37 2.11,-2.03l5.98 -4.73c2.44,-1.72 10.29,-6.61 12.65,-6.81l-3.23 3.83c-6.84,9.16 -10.49,18.65 -13.26,29.79 -0.51,2.01 -0.81,4.06 -1.27,6.03zm67.38 -39.65l0 0z"/>
   <path class="fil0" d="M181.72 376.57l0.48 0c0.09,-1 2.18,-6.9 2.65,-8.3l8.3 -25.03c0.92,0.25 0.43,0.3 1.52,1.41l21.59 24.13c0.62,-0.41 0.83,-0.77 1.42,-1.25l3.14 -2.7c0.52,-0.51 1.2,-0.96 1.52,-1.4l-2.74 -3.35c-0.51,-0.55 -0.96,-0.89 -1.43,-1.48l-18.7 -20.95c3.58,-0.3 32.83,-6.81 35.03,-6.81 -0.71,-0.97 -8.51,-4.37 -10.14,-5.19 -1.81,-0.9 -3.44,-1.72 -5.18,-2.6l-5.28 -2.51c-6.2,-2.87 -14.52,-7.37 -20.83,-10.3 -0.97,-0.45 -1.57,-0.66 -2.52,-1.13l-23.51 -11.52c-1.83,-0.91 -3.36,-1.68 -5.19,-2.59l-10.54 -5.03 1.92 5.38c4.75,14.21 10.33,28.9 15.2,43.18l5.71 16.18c0.5,1.49 7.46,20.46 7.58,21.86z"/>
  </g>
 </g>
</svg>
