<?xml version="1.0" encoding="UTF-8"?>
<!DOCTYPE svg PUBLIC "-//W3C//DTD SVG 1.1//EN" "http://www.w3.org/Graphics/SVG/1.1/DTD/svg11.dtd">
<!-- Creator: CorelDRAW 2020 (64-Bit) -->
<svg xmlns="http://www.w3.org/2000/svg" xml:space="preserve" width="3752px" height="1738px" version="1.1" style="shape-rendering:geometricPrecision; text-rendering:geometricPrecision; image-rendering:optimizeQuality; fill-rule:evenodd; clip-rule:evenodd"
viewBox="0 0 3758.26 1740.88"
 xmlns:xlink="http://www.w3.org/1999/xlink"
 xmlns:xodm="http://www.corel.com/coreldraw/odm/2003">
 <defs>
  <style type="text/css">
   <![CDATA[
    .str0 {stroke:black;stroke-width:2.37;stroke-miterlimit:22.9256}
    .str1 {stroke:black;stroke-width:4.17;stroke-linecap:square;stroke-miterlimit:22.9256}
    .fil0 {fill:none}
    .fil1 {fill:red}
    .fil4 {fill:#FF5050}
    .fil2 {fill:#FFA0A0}
    .fil3 {fill:#FFC8C8}
    .fil7 {fill:black;fill-rule:nonzero}
    .fil6 {fill:#231F20;fill-rule:nonzero}
    .fil5 {fill:#999999;fill-rule:nonzero}
   ]]>
  </style>
 </defs>
 <g id="Capa_x0020_1">
  <metadata id="CorelCorpID_0Corel-Layer"/>
  <rect class="fil0" width="3758.26" height="1740.88"/>
  <rect class="fil1 str0" x="605.5" y="1307.48" width="696.69" height="184.8"/>
  <polygon id="path301" class="fil2 str1" points="605.5,311.74 1302.18,311.74 1302.18,853.62 605.5,985.09 "/>
  <polygon id="path309" class="fil2 str1" points="605.5,1027.81 1302.18,892.34 1302.18,1307.48 605.5,1307.48 "/>
  <rect class="fil1 str0" x="2025.57" y="311.74" width="696.69" height="184.8"/>
  <rect class="fil3 str0" x="2025.57" y="1036.57" width="696.69" height="455.7"/>
  <rect class="fil4 str0" x="2025.57" y="496.54" width="696.69" height="218.49"/>
  <rect class="fil2 str0" x="2025.57" y="715.02" width="696.69" height="321.55"/>
  <path class="fil5" d="M711.25 248.16l0 13.53 -8.96 0 0.03 -40.92 14.24 0c5.09,0 8.93,1.11 11.49,3.34 2.57,2.22 3.86,5.55 3.86,9.99 0,4.2 -1.47,7.59 -4.41,10.18 -2.95,2.59 -6.86,3.88 -11.77,3.88l-4.48 0zm0 -20.48l0 13.66 3.71 0.03c2.51,0 4.39,-0.58 5.66,-1.74 1.27,-1.16 1.89,-2.9 1.87,-5.22 0,-2.24 -0.62,-3.93 -1.87,-5.05 -1.25,-1.13 -3.12,-1.68 -5.61,-1.68l-3.76 0z"/>
  <path id="1" class="fil5" d="M756.68 239.03c-0.38,-0.09 -0.76,-0.16 -1.15,-0.21 -0.39,-0.05 -0.83,-0.07 -1.32,-0.07 -2.39,0 -4.18,0.75 -5.39,2.26 -1.2,1.52 -1.81,3.61 -1.81,6.29l0 14.39 -8.73 0 0 -29.93 8.73 0 0 5.59 0.12 0c0.72,-2.04 1.74,-3.57 3.07,-4.6 1.32,-1.02 2.93,-1.54 4.84,-1.54 0.45,0 0.88,0.04 1.3,0.1 0.42,0.07 0.87,0.15 1.35,0.24l-1.01 7.48z"/>
  <path id="2" class="fil5" d="M776.99 262.4c-4.93,0 -8.8,-1.39 -11.64,-4.19 -2.83,-2.8 -4.26,-6.58 -4.26,-11.36 0.02,-4.96 1.5,-8.85 4.43,-11.64 2.93,-2.8 6.89,-4.19 11.9,-4.19 4.93,0 8.78,1.39 11.57,4.18 2.78,2.78 4.18,6.49 4.18,11.14 0,4.95 -1.45,8.85 -4.34,11.73 -2.89,2.89 -6.83,4.33 -11.84,4.33zm0.31 -6.7c2.33,0 4.07,-0.77 5.24,-2.32 1.17,-1.54 1.75,-3.83 1.75,-6.88 0,-2.88 -0.59,-5.07 -1.77,-6.54 -1.18,-1.47 -2.93,-2.21 -5.28,-2.21 -2.3,0 -4.09,0.79 -5.35,2.36 -1.28,1.58 -1.92,3.79 -1.92,6.63 0,2.97 0.62,5.2 1.86,6.7 1.24,1.51 3.06,2.26 5.47,2.26z"/>
  <path id="3" class="fil5" d="M829.27 258.12c0,5 -1.53,9.14 -4.59,12.4 -3.06,3.26 -7.52,4.89 -13.38,4.89 -2.17,0 -4.19,-0.2 -6.04,-0.61 -1.85,-0.41 -3.7,-1.05 -5.55,-1.9l2.63 -5.93c1.5,0.68 2.95,1.18 4.36,1.5 1.39,0.31 2.98,0.46 4.74,0.46 2.95,0 5.2,-0.85 6.77,-2.57 1.56,-1.7 2.34,-4 2.34,-6.87l0 -2.19 -0.12 0c-1.06,1.71 -2.39,2.98 -3.97,3.83 -1.57,0.85 -3.4,1.27 -5.48,1.27 -3.82,0 -6.85,-1.35 -9.09,-4.03 -2.23,-2.7 -3.35,-6.28 -3.35,-10.78 0,-5.08 1.25,-9.11 3.74,-12.09 2.5,-2.99 5.79,-4.48 9.88,-4.48 1.84,0 3.46,0.35 4.85,1.06 1.38,0.72 2.52,1.79 3.42,3.21l0.12 0 0 -3.53 8.72 0 0 26.36zm-8.61 -10.73l0 -2.59c0,-1.97 -0.59,-3.62 -1.77,-5 -1.18,-1.37 -2.7,-2.05 -4.57,-2.05 -2.14,0 -3.84,0.83 -5.06,2.48 -1.23,1.66 -1.84,4 -1.84,7.02 0,2.6 0.58,4.67 1.74,6.18 1.16,1.51 2.75,2.27 4.76,2.27 2.04,0 3.67,-0.76 4.9,-2.29 1.23,-1.52 1.84,-3.53 1.84,-6.02z"/>
  <path id="4" class="fil5" d="M856.47 239.03c-0.38,-0.09 -0.76,-0.16 -1.15,-0.21 -0.39,-0.05 -0.83,-0.07 -1.32,-0.07 -2.39,0 -4.18,0.75 -5.39,2.26 -1.2,1.52 -1.81,3.61 -1.81,6.29l0 14.39 -8.73 0 0 -29.93 8.73 0 0 5.59 0.12 0c0.72,-2.04 1.74,-3.57 3.07,-4.6 1.32,-1.02 2.93,-1.54 4.84,-1.54 0.44,0 0.88,0.04 1.3,0.1 0.42,0.07 0.87,0.15 1.35,0.24l-1.01 7.48z"/>
  <path id="5" class="fil5" d="M887.22 261.69l-8.27 0 0 -4.34 -0.12 0c-1.01,1.68 -2.26,2.93 -3.77,3.78 -1.5,0.85 -3.2,1.27 -5.1,1.27 -2.67,0 -4.91,-0.79 -6.74,-2.38 -1.82,-1.59 -2.73,-3.81 -2.73,-6.64 0,-2.78 0.9,-5.03 2.72,-6.76 1.81,-1.73 4.63,-2.85 8.44,-3.37l7.36 -0.99 0 -0.58c0,-1.54 -0.48,-2.7 -1.43,-3.47 -0.96,-0.78 -2.26,-1.17 -3.94,-1.17 -1.27,0 -2.65,0.21 -4.13,0.64 -1.47,0.43 -2.95,1.1 -4.43,2.04l-3.11 -5.17c1.96,-1.21 3.94,-2.11 5.94,-2.68 2.01,-0.57 4.19,-0.85 6.53,-0.85 4.35,0 7.58,1.04 9.65,3.13 2.09,2.1 3.13,5.25 3.13,9.48l0 18.06zm-8.21 -12.16l0 -2.14 -5.68 0.71c-1.61,0.24 -2.79,0.7 -3.57,1.41 -0.78,0.72 -1.17,1.68 -1.17,2.88 0,1.1 0.38,2 1.14,2.7 0.76,0.72 1.79,1.07 3.08,1.07 1.83,0 3.32,-0.64 4.47,-1.89 1.14,-1.26 1.73,-2.84 1.73,-4.74z"/>
  <path id="6" class="fil5" d="M942.59 261.69l-8.7 0 0 -17.09c0,-2.32 -0.42,-4.05 -1.25,-5.17 -0.82,-1.12 -2.08,-1.68 -3.78,-1.68 -1.57,0 -2.87,0.68 -3.88,2.05 -1,1.38 -1.51,3.07 -1.51,5.11l0 16.78 -8.73 0 0 -17.32c0,-2.23 -0.42,-3.89 -1.24,-4.99 -0.83,-1.09 -2.06,-1.63 -3.7,-1.63 -1.65,0 -2.97,0.65 -3.96,1.96 -0.99,1.29 -1.49,3.06 -1.49,5.28l0 16.7 -8.73 0 0 -29.93 8.73 0 0 4.67 0.12 0c0.97,-1.63 2.31,-2.95 4.01,-3.93 1.69,-0.99 3.57,-1.48 5.63,-1.48 2.11,0 3.89,0.47 5.34,1.42 1.45,0.95 2.55,2.36 3.31,4.23 1.14,-1.89 2.55,-3.3 4.23,-4.24 1.66,-0.94 3.61,-1.41 5.81,-1.41 3.27,0 5.73,1 7.35,3.02 1.63,2.01 2.44,5.03 2.44,9.05l0 18.6z"/>
  <path id="7" class="fil5" d="M1014.86 261.69l-8.82 0 0 -24.68c0,-1.3 0.03,-2.67 0.09,-4.13 0.05,-1.45 0.14,-2.98 0.25,-4.58l-0.22 0c-0.25,1.24 -0.47,2.3 -0.68,3.19 -0.19,0.88 -0.39,1.58 -0.58,2.12l-9.9 28.08 -7.16 0 -10.05 -27.8c-0.13,-0.38 -0.31,-1.03 -0.52,-1.97 -0.22,-0.92 -0.48,-2.13 -0.76,-3.62l-0.25 0c0.12,1.93 0.22,3.76 0.28,5.51 0.06,1.75 0.09,3.39 0.09,4.94l0 22.94 -8.08 0 0 -40.92 13.04 0 8.64 24.54c0.34,0.91 0.64,1.81 0.86,2.69 0.23,0.89 0.43,1.78 0.6,2.67l0.17 0c0.29,-1.02 0.56,-1.99 0.83,-2.91 0.27,-0.91 0.54,-1.74 0.82,-2.51l8.68 -24.48 12.67 0 0 40.92z"/>
  <path id="8" class="fil5" d="M1104.76 261.69l-8.7 0 0 -17.09c0,-2.32 -0.42,-4.05 -1.25,-5.17 -0.83,-1.12 -2.08,-1.68 -3.78,-1.68 -1.58,0 -2.87,0.68 -3.88,2.05 -1.01,1.38 -1.51,3.07 -1.51,5.11l0 16.78 -8.73 0 0 -17.32c0,-2.23 -0.42,-3.89 -1.25,-4.99 -0.82,-1.09 -2.05,-1.63 -3.69,-1.63 -1.65,0 -2.98,0.65 -3.96,1.96 -0.99,1.29 -1.49,3.06 -1.49,5.28l0 16.7 -8.73 0 0 -29.93 8.73 0 0 4.67 0.12 0c0.97,-1.63 2.3,-2.95 4.01,-3.93 1.69,-0.99 3.57,-1.48 5.63,-1.48 2.11,0 3.89,0.47 5.33,1.42 1.46,0.95 2.56,2.36 3.32,4.23 1.13,-1.89 2.55,-3.3 4.22,-4.24 1.67,-0.94 3.62,-1.41 5.82,-1.41 3.27,0 5.72,1 7.35,3.02 1.63,2.01 2.44,5.03 2.44,9.05l0 18.6z"/>
  <path id="9" class="fil5" d="M1127.28 262.4c-4.93,0 -8.8,-1.39 -11.64,-4.19 -2.83,-2.8 -4.25,-6.58 -4.25,-11.36 0.02,-4.96 1.49,-8.85 4.42,-11.64 2.93,-2.8 6.89,-4.19 11.9,-4.19 4.93,0 8.79,1.39 11.57,4.18 2.79,2.78 4.18,6.49 4.18,11.14 0,4.95 -1.44,8.85 -4.33,11.73 -2.9,2.89 -6.84,4.33 -11.85,4.33zm0.31 -6.7c2.33,0 4.07,-0.77 5.24,-2.32 1.17,-1.54 1.76,-3.83 1.76,-6.88 0,-2.88 -0.6,-5.07 -1.78,-6.54 -1.17,-1.47 -2.93,-2.21 -5.28,-2.21 -2.29,0 -4.09,0.79 -5.35,2.36 -1.28,1.58 -1.92,3.79 -1.92,6.63 0,2.97 0.62,5.2 1.86,6.7 1.24,1.51 3.06,2.26 5.47,2.26z"/>
  <path id="10" class="fil5" d="M1168.98 239.03c-0.38,-0.09 -0.76,-0.16 -1.15,-0.21 -0.39,-0.05 -0.84,-0.07 -1.33,-0.07 -2.38,0 -4.18,0.75 -5.38,2.26 -1.21,1.52 -1.81,3.61 -1.81,6.29l0 14.39 -8.73 0 0 -29.93 8.73 0 0 5.59 0.11 0c0.72,-2.04 1.75,-3.57 3.07,-4.6 1.32,-1.02 2.93,-1.54 4.84,-1.54 0.45,0 0.89,0.04 1.31,0.1 0.41,0.07 0.86,0.15 1.34,0.24l-1 7.48z"/>
  <path id="11" class="fil5" d="M1205.63 231.76l-13.43 35.41c-1.04,2.72 -2.57,4.82 -4.59,6.3 -2.03,1.48 -4.45,2.22 -7.29,2.22 -0.89,0 -1.77,-0.05 -2.64,-0.15 -0.86,-0.1 -1.69,-0.26 -2.49,-0.47l1.51 -6.48c0.46,0.18 0.91,0.29 1.35,0.37 0.45,0.08 0.94,0.12 1.48,0.12 0.94,0 1.79,-0.24 2.52,-0.71 0.73,-0.48 1.32,-1.24 1.78,-2.29l1.89 -4.45 -12.11 -29.87 9.65 0 5.88 18.77c0.17,0.51 0.32,1.09 0.46,1.71 0.13,0.63 0.24,1.33 0.34,2.08l0.11 0c0.1,-0.54 0.22,-1.12 0.37,-1.74 0.16,-0.6 0.34,-1.27 0.58,-2l5.96 -18.82 8.67 0z"/>
  <path id="12" class="fil5" d="M1051.16 249.16l-19.71 0c0.15,2.32 0.91,4.06 2.25,5.19 1.35,1.14 3.22,1.72 5.62,1.72 0.85,0 2.03,-0.26 3.54,-0.76 1.5,-0.51 2.97,-1.29 4.42,-2.35l3.82 5.05c-2.01,1.52 -4.08,2.63 -6.2,3.34 -2.12,0.7 -4.44,1.05 -6.98,1.05 -4.79,0 -8.51,-1.34 -11.16,-4.02 -2.64,-2.68 -3.97,-6.42 -3.99,-11.21 0,-4.8 1.4,-8.69 4.21,-11.67 2.8,-2.99 6.36,-4.48 10.66,-4.48 4.12,0 7.41,1.25 9.86,3.78 2.44,2.52 3.66,6.13 3.66,10.86l0 3.5zm-8.13 -5.45c0,-2.38 -0.46,-4.09 -1.38,-5.15 -0.93,-1.06 -2.28,-1.58 -4.07,-1.58 -1.57,0 -2.94,0.6 -4.08,1.81 -1.14,1.21 -1.84,2.84 -2.08,4.92l11.61 0z"/>
  <path class="fil6" d="M730.7 626.02l19.22 -52.61 13.54 0 18.78 52.61 -12.47 0 -3.71 -11.2 -19.33 0 -3.6 11.2 -12.43 0zm18.56 -20.18l14.08 0 -5.98 -18.6c-0.19,-0.7 -0.35,-1.32 -0.49,-1.83 -0.14,-0.51 -0.25,-1.18 -0.35,-1.98l-0.29 0c-0.12,0.73 -0.25,1.37 -0.39,1.9 -0.14,0.54 -0.31,1.14 -0.54,1.81l-6.04 18.7z"/>
  <path id="1" class="fil6" d="M800.6 621.43l-0.11 -0.03 -0.04 21.9 -11.19 0 -0.03 -55.76 11.26 0 -0.04 5.93 0.19 -0.03c1.46,-2.3 3.24,-4.01 5.33,-5.15 2.09,-1.14 4.47,-1.7 7.14,-1.7 4.97,0 8.81,1.7 11.53,5.13 2.73,3.42 4.1,8.08 4.1,13.97 0.02,6.42 -1.56,11.55 -4.74,15.43 -3.18,3.87 -7.4,5.81 -12.66,5.81 -2.34,0 -4.41,-0.45 -6.17,-1.35 -1.78,-0.9 -3.3,-2.29 -4.57,-4.15zm-0.29 -15.77l0 3.34c0,2.71 0.74,4.95 2.22,6.69 1.47,1.75 3.41,2.63 5.81,2.63 2.81,0 5.01,-1.1 6.58,-3.28 1.58,-2.2 2.37,-5.28 2.37,-9.23 0,-3.51 -0.7,-6.14 -2.1,-7.92 -1.42,-1.76 -3.47,-2.64 -6.19,-2.61 -2.57,-0.03 -4.66,0.92 -6.27,2.84 -1.62,1.92 -2.42,4.43 -2.42,7.54z"/>
  <path id="2" class="fil6" d="M849.22 621.43l-0.11 -0.03 -0.04 21.9 -11.18 0 -0.04 -55.76 11.26 0 -0.04 5.93 0.19 -0.03c1.46,-2.3 3.24,-4.01 5.33,-5.15 2.1,-1.14 4.47,-1.7 7.14,-1.7 4.97,0 8.82,1.7 11.54,5.13 2.73,3.42 4.09,8.08 4.09,13.97 0.03,6.42 -1.55,11.55 -4.73,15.43 -3.18,3.87 -7.4,5.81 -12.67,5.81 -2.34,0 -4.4,-0.45 -6.17,-1.35 -1.78,-0.9 -3.29,-2.29 -4.57,-4.15zm-0.29 -15.77l0 3.34c0,2.71 0.74,4.95 2.22,6.69 1.48,1.75 3.42,2.63 5.81,2.63 2.82,0 5.01,-1.1 6.59,-3.28 1.58,-2.2 2.36,-5.28 2.36,-9.23 0,-3.51 -0.7,-6.14 -2.1,-7.92 -1.41,-1.76 -3.47,-2.64 -6.19,-2.61 -2.56,-0.03 -4.65,0.92 -6.27,2.84 -1.62,1.92 -2.42,4.43 -2.42,7.54z"/>
  <polygon id="3" class="fil6" points="886.51,626.02 886.51,570.41 897.73,570.41 897.73,626.02 "/>
  <path id="4" class="fil6" d="M914.85 582.37c-1.95,0 -3.55,-0.6 -4.81,-1.78 -1.25,-1.19 -1.86,-2.67 -1.86,-4.42 0,-1.82 0.61,-3.31 1.86,-4.46 1.26,-1.16 2.86,-1.75 4.81,-1.75 1.96,0 3.56,0.59 4.79,1.75 1.24,1.15 1.85,2.64 1.85,4.46 0,1.8 -0.61,3.29 -1.85,4.46 -1.23,1.15 -2.83,1.74 -4.79,1.74zm5.5 43.65l-11.18 0 0 -38.48 11.18 0 0 38.48z"/>
  <path id="5" class="fil6" d="M962.93 623.49c-1.96,1.2 -3.95,2.06 -5.97,2.62 -2.01,0.55 -4.2,0.82 -6.58,0.82 -6.41,0 -11.41,-1.78 -15,-5.33 -3.6,-3.56 -5.4,-8.19 -5.4,-13.89 0,-6.52 1.93,-11.68 5.78,-15.46 3.85,-3.78 8.96,-5.66 15.32,-5.66 2.34,0 4.42,0.22 6.21,0.69 1.8,0.46 3.59,1.2 5.38,2.2l-4.18 7.59c-1.15,-0.65 -2.28,-1.13 -3.38,-1.43 -1.1,-0.29 -2.3,-0.44 -3.59,-0.44 -3.18,0 -5.66,1.03 -7.45,3.08 -1.78,2.06 -2.68,4.95 -2.68,8.67 0,3.57 0.96,6.35 2.88,8.36 1.92,2.01 4.32,3.01 7.21,3.01 0.85,0 1.92,-0.18 3.19,-0.54 1.27,-0.35 2.56,-0.93 3.85,-1.74l4.41 7.45z"/>
  <path id="6" class="fil6" d="M1002.23 626.02l-10.63 0 0 -5.57 -0.15 0c-1.3,2.15 -2.9,3.77 -4.84,4.85 -1.93,1.09 -4.12,1.63 -6.57,1.63 -3.43,0 -6.31,-1.01 -8.66,-3.05 -2.34,-2.04 -3.52,-4.9 -3.52,-8.54 0,-3.57 1.16,-6.47 3.51,-8.69 2.33,-2.23 5.94,-3.67 10.84,-4.34l9.47 -1.27 0 -0.74c0,-1.98 -0.62,-3.47 -1.84,-4.47 -1.23,-1 -2.91,-1.5 -5.06,-1.5 -1.64,0 -3.41,0.27 -5.31,0.82 -1.89,0.55 -3.8,1.42 -5.7,2.62l-4.01 -6.64c2.53,-1.56 5.07,-2.72 7.65,-3.45 2.58,-0.73 5.39,-1.09 8.39,-1.09 5.6,0 9.75,1.34 12.41,4.03 2.68,2.69 4.02,6.75 4.02,12.18l0 23.22zm-10.55 -15.63l0 -2.75 -7.3 0.91c-2.07,0.3 -3.6,0.9 -4.6,1.82 -1,0.92 -1.5,2.15 -1.5,3.69 0,1.41 0.49,2.58 1.46,3.48 0.98,0.92 2.31,1.37 3.97,1.37 2.34,0 4.26,-0.82 5.74,-2.43 1.47,-1.62 2.23,-3.65 2.23,-6.09z"/>
  <path id="7" class="fil6" d="M1036.6 625.39c-1.18,0.52 -2.5,0.9 -3.94,1.15 -1.44,0.27 -2.89,0.39 -4.35,0.39 -4.13,0 -7.22,-1 -9.31,-3 -2.09,-2.01 -3.14,-5 -3.14,-8.99l0 -19.08 -6.28 -0.03 -0.03 -8.29 6.31 0 0 -8.7 11.19 -3.18 -0.03 11.88 8.8 0 0 8.32 -8.77 -0.03 -0.03 18.42c0,1.56 0.3,2.69 0.91,3.4 0.61,0.72 1.57,1.05 2.87,1.03 0.66,0.02 1.29,-0.05 1.89,-0.24 0.6,-0.19 1.15,-0.4 1.66,-0.64l2.25 7.59z"/>
  <path id="8" class="fil6" d="M1049.74 582.37c-1.95,0 -3.55,-0.6 -4.8,-1.78 -1.26,-1.19 -1.87,-2.67 -1.87,-4.42 0,-1.82 0.61,-3.31 1.87,-4.46 1.25,-1.16 2.85,-1.75 4.8,-1.75 1.96,0 3.56,0.59 4.79,1.75 1.24,1.15 1.85,2.64 1.85,4.46 0,1.8 -0.61,3.29 -1.85,4.46 -1.23,1.15 -2.83,1.74 -4.79,1.74zm5.5 43.65l-11.18 0 0 -38.48 11.18 0 0 38.48z"/>
  <path id="9" class="fil6" d="M1085.31 626.93c-6.34,0 -11.32,-1.79 -14.97,-5.38 -3.64,-3.61 -5.47,-8.47 -5.47,-14.6 0.03,-6.39 1.92,-11.39 5.69,-14.98 3.76,-3.59 8.86,-5.38 15.3,-5.38 6.33,0 11.29,1.79 14.87,5.37 3.59,3.58 5.38,8.35 5.38,14.32 0,6.36 -1.86,11.39 -5.58,15.09 -3.71,3.71 -8.79,5.56 -15.22,5.56zm0.4 -8.61c2.99,0 5.23,-0.99 6.73,-2.98 1.51,-1.98 2.26,-4.92 2.26,-8.84 0,-3.71 -0.76,-6.53 -2.28,-8.42 -1.52,-1.89 -3.77,-2.84 -6.79,-2.84 -2.95,0 -5.26,1.01 -6.88,3.04 -1.64,2.03 -2.47,4.87 -2.47,8.52 0,3.82 0.8,6.68 2.39,8.61 1.59,1.94 3.93,2.91 7.04,2.91z"/>
  <path id="10" class="fil6" d="M1151.84 626.02l-11.2 0 0 -21.47c0,-3.07 -0.55,-5.39 -1.66,-6.95 -1.12,-1.55 -2.78,-2.34 -5.01,-2.36 -2.18,0.02 -3.97,0.86 -5.37,2.52 -1.42,1.65 -2.12,3.74 -2.12,6.28l-0.04 21.98 -11.18 0 -0.04 -38.48 11.26 0 -0.04 6.12 0.19 0c1.42,-2.37 3.16,-4.14 5.22,-5.29 2.08,-1.17 4.46,-1.75 7.18,-1.75 4.25,-0.02 7.45,1.29 9.59,3.96 2.14,2.67 3.22,6.62 3.22,11.88l0 23.56z"/>
  <polygon id="11" class="fil6" points="748.2,682.75 729.49,682.75 729.49,695.98 746.7,695.98 746.7,705.35 729.49,705.35 729.49,725.96 718.01,725.96 717.98,673.35 748.2,673.35 "/>
  <polygon id="12" class="fil6" points="757.28,725.96 757.28,670.35 768.5,670.35 768.5,725.96 "/>
  <path id="13" class="fil6" d="M811.48 725.96l-10.63 0 0 -5.57 -0.15 0c-1.3,2.15 -2.91,3.77 -4.85,4.86 -1.93,1.09 -4.12,1.62 -6.56,1.62 -3.43,0 -6.31,-1.01 -8.67,-3.05 -2.34,-2.04 -3.51,-4.9 -3.51,-8.54 0,-3.57 1.16,-6.46 3.5,-8.69 2.33,-2.23 5.95,-3.67 10.85,-4.34l9.46 -1.27 0 -0.74c0,-1.98 -0.61,-3.47 -1.84,-4.47 -1.23,-1 -2.9,-1.5 -5.06,-1.5 -1.64,0 -3.4,0.27 -5.31,0.82 -1.89,0.55 -3.79,1.42 -5.69,2.62l-4.01 -6.64c2.53,-1.56 5.07,-2.72 7.65,-3.45 2.58,-0.73 5.39,-1.09 8.39,-1.09 5.6,0 9.74,1.34 12.41,4.03 2.68,2.69 4.02,6.75 4.02,12.18l0 23.22zm-10.56 -15.63l0 -2.75 -7.3 0.91c-2.06,0.3 -3.59,0.9 -4.59,1.82 -1,0.92 -1.51,2.15 -1.51,3.69 0,1.42 0.49,2.58 1.47,3.48 0.98,0.92 2.3,1.37 3.97,1.37 2.34,0 4.26,-0.82 5.73,-2.43 1.48,-1.62 2.23,-3.65 2.23,-6.09z"/>
  <path id="14" class="fil6" d="M818.69 722.73l4.62 -7.52c1.29,1.01 2.83,1.86 4.61,2.55 1.77,0.7 3.73,1.05 5.89,1.05 1.64,0 2.98,-0.3 4.02,-0.9 1.04,-0.6 1.55,-1.52 1.55,-2.73 0,-1 -0.4,-1.79 -1.21,-2.37 -0.81,-0.57 -2.3,-1.1 -4.48,-1.56 -4.77,-1.03 -8.18,-2.46 -10.26,-4.3 -2.08,-1.83 -3.12,-4.41 -3.12,-7.74 0,-3.86 1.53,-6.94 4.59,-9.24 3.07,-2.3 6.85,-3.44 11.32,-3.44 2.33,0 4.51,0.28 6.55,0.87 2.04,0.59 3.99,1.48 5.81,2.68l-4.22 7.27c-1.54,-0.98 -2.98,-1.69 -4.34,-2.16 -1.35,-0.45 -2.76,-0.67 -4.2,-0.67 -1.69,0 -3.03,0.32 -4.03,0.95 -1,0.64 -1.51,1.46 -1.51,2.46 0,1.11 0.46,1.92 1.37,2.45 0.93,0.52 2.68,1.05 5.28,1.59 4.42,0.9 7.61,2.31 9.55,4.22 1.94,1.9 2.92,4.49 2.92,7.77 0,3.9 -1.47,7.02 -4.41,9.38 -2.93,2.36 -6.82,3.53 -11.66,3.53 -2.64,0 -5.16,-0.33 -7.56,-1 -2.39,-0.67 -4.76,-1.73 -7.08,-3.14z"/>
  <path id="15" class="fil6" d="M893.8 725.96l-11.14 0 0 -21.9c0,-2.98 -0.55,-5.21 -1.64,-6.66 -1.09,-1.46 -2.72,-2.18 -4.9,-2.18 -2.2,0 -3.99,0.82 -5.4,2.48 -1.39,1.65 -2.08,3.75 -2.05,6.32l-0.04 21.94 -11.18 0 -0.04 -55.61 11.26 0 -0.04 22.93 0.19 -0.04c1.47,-2.26 3.19,-3.93 5.2,-5.05 1.99,-1.11 4.23,-1.66 6.72,-1.66 4.36,0 7.63,1.31 9.79,3.94 2.18,2.62 3.27,6.58 3.27,11.86l0 23.63z"/>
  <path id="16" class="fil6" d="M923.12 722.4l4.72 -8.95c2.64,1.56 4.96,2.63 6.94,3.21 1.97,0.57 4.05,0.86 6.23,0.86 2.82,0 4.92,-0.55 6.34,-1.67 1.4,-1.11 2.1,-2.65 2.1,-4.6 0,-1.86 -0.56,-3.3 -1.7,-4.3 -1.14,-1 -3.18,-1.85 -6.11,-2.57 -5.83,-1.36 -10.06,-3.28 -12.7,-5.73 -2.64,-2.46 -3.96,-5.87 -3.96,-10.26 0,-4.43 1.72,-8.19 5.14,-11.28 3.43,-3.09 8.19,-4.63 14.31,-4.63 2.59,0 5.12,0.28 7.61,0.87 2.48,0.59 4.85,1.44 7.09,2.57l-4.32 9.07c-2,-1.13 -3.91,-1.94 -5.71,-2.44 -1.79,-0.51 -3.49,-0.76 -5.08,-0.76 -2.42,0 -4.31,0.48 -5.66,1.44 -1.37,0.98 -2.04,2.36 -2.04,4.17 0,1.64 0.62,2.91 1.87,3.8 1.24,0.89 3.46,1.71 6.64,2.48 5.67,1.31 9.78,3.25 12.31,5.81 2.53,2.55 3.79,6.15 3.79,10.77 0,4.94 -1.74,8.94 -5.22,12.02 -3.49,3.07 -8.52,4.59 -15.1,4.59 -2.95,0 -6,-0.38 -9.12,-1.17 -3.11,-0.78 -5.91,-1.88 -8.37,-3.3z"/>
  <path id="17" class="fil6" d="M1043.18 723.43c-1.95,1.2 -3.94,2.07 -5.96,2.62 -2.01,0.55 -4.2,0.82 -6.58,0.82 -6.42,0 -11.41,-1.77 -15.01,-5.33 -3.59,-3.56 -5.39,-8.19 -5.39,-13.89 0,-6.52 1.92,-11.68 5.78,-15.46 3.85,-3.78 8.95,-5.66 15.32,-5.66 2.34,0 4.42,0.22 6.21,0.69 1.8,0.46 3.59,1.2 5.38,2.2l-4.18 7.59c-1.15,-0.65 -2.28,-1.13 -3.38,-1.43 -1.1,-0.29 -2.31,-0.44 -3.59,-0.44 -3.19,0 -5.67,1.03 -7.46,3.08 -1.77,2.06 -2.68,4.95 -2.68,8.67 0,3.57 0.97,6.35 2.88,8.36 1.93,2.01 4.33,3.01 7.22,3.01 0.85,0 1.91,-0.18 3.19,-0.54 1.27,-0.35 2.56,-0.93 3.85,-1.74l4.4 7.45z"/>
  <path id="18" class="fil6" d="M1074.46 725.33c-1.17,0.52 -2.49,0.91 -3.93,1.16 -1.44,0.26 -2.89,0.38 -4.36,0.38 -4.12,0 -7.21,-1 -9.3,-3 -2.09,-2.01 -3.14,-5 -3.14,-8.99l0 -19.07 -6.28 -0.04 -0.03 -8.29 6.31 0 0 -8.7 11.19 -3.19 -0.03 11.89 8.8 0 0 8.33 -8.77 -0.04 -0.03 18.42c0,1.56 0.3,2.69 0.91,3.4 0.61,0.72 1.56,1.06 2.87,1.03 0.66,0.03 1.29,-0.05 1.89,-0.24 0.6,-0.18 1.15,-0.4 1.66,-0.64l2.24 7.59z"/>
  <path id="19" class="fil6" d="M1087.61 682.31c-1.95,0 -3.55,-0.61 -4.81,-1.78 -1.25,-1.19 -1.86,-2.67 -1.86,-4.42 0,-1.82 0.61,-3.31 1.86,-4.46 1.26,-1.16 2.86,-1.75 4.81,-1.75 1.96,0 3.56,0.59 4.79,1.75 1.24,1.15 1.85,2.64 1.85,4.46 0,1.8 -0.61,3.29 -1.85,4.46 -1.23,1.15 -2.83,1.74 -4.79,1.74zm5.5 43.65l-11.18 0 0 -38.48 11.18 0 0 38.48z"/>
  <path id="20" class="fil6" d="M1123.18 726.87c-6.34,0 -11.33,-1.79 -14.97,-5.38 -3.64,-3.61 -5.47,-8.47 -5.47,-14.6 0.02,-6.39 1.92,-11.39 5.68,-14.98 3.77,-3.59 8.87,-5.38 15.31,-5.38 6.33,0 11.29,1.79 14.87,5.37 3.58,3.58 5.38,8.35 5.38,14.32 0,6.37 -1.86,11.39 -5.58,15.09 -3.72,3.71 -8.79,5.56 -15.22,5.56zm0.4 -8.61c2.99,0 5.23,-0.99 6.73,-2.98 1.51,-1.98 2.26,-4.92 2.26,-8.84 0,-3.71 -0.77,-6.53 -2.28,-8.42 -1.52,-1.89 -3.77,-2.84 -6.79,-2.84 -2.95,0 -5.26,1.01 -6.89,3.04 -1.64,2.03 -2.46,4.87 -2.46,8.52 0,3.82 0.8,6.68 2.39,8.61 1.59,1.94 3.93,2.91 7.04,2.91z"/>
  <path id="21" class="fil6" d="M1189.71 725.96l-11.2 0 0 -21.46c0,-3.08 -0.55,-5.4 -1.66,-6.95 -1.12,-1.56 -2.78,-2.35 -5.01,-2.37 -2.18,0.02 -3.97,0.86 -5.38,2.52 -1.41,1.65 -2.11,3.74 -2.11,6.28l-0.04 21.98 -11.18 0 -0.04 -38.48 11.26 0 -0.04 6.12 0.19 0c1.41,-2.37 3.16,-4.14 5.22,-5.3 2.08,-1.16 4.46,-1.74 7.18,-1.74 4.25,-0.02 7.45,1.29 9.59,3.96 2.14,2.67 3.22,6.63 3.22,11.89l0 23.55z"/>
  <path id="22" class="fil6" d="M1003.99 709.86l-25.35 0c0.19,2.98 1.17,5.2 2.89,6.67 1.74,1.47 4.15,2.2 7.23,2.2 1.1,0 2.62,-0.32 4.56,-0.97 1.93,-0.65 3.82,-1.66 5.68,-3.02l4.91 6.49c-2.59,1.95 -5.25,3.39 -7.98,4.29 -2.72,0.9 -5.71,1.35 -8.96,1.35 -6.16,0 -10.95,-1.71 -14.35,-5.17 -3.4,-3.44 -5.11,-8.25 -5.14,-14.41 0,-6.16 1.81,-11.17 5.41,-15 3.61,-3.85 8.18,-5.76 13.72,-5.76 5.29,0 9.52,1.61 12.67,4.85 3.14,3.25 4.71,7.89 4.71,13.97l0 4.51zm-10.46 -7.02c0,-3.05 -0.59,-5.26 -1.78,-6.62 -1.19,-1.35 -2.93,-2.03 -5.22,-2.03 -2.03,0 -3.78,0.78 -5.25,2.33 -1.46,1.55 -2.36,3.66 -2.68,6.32l14.93 0z"/>
  <path class="fil6" d="M656.22 1424.39l0 -46.76 16.78 0c5.13,0 9.1,0.99 11.88,2.96 2.78,1.98 4.17,4.76 4.17,8.35 0,2.5 -0.74,4.69 -2.25,6.58 -1.5,1.9 -3.42,3.21 -5.77,3.96l0 0.12c3.02,0.4 5.43,1.59 7.22,3.57 1.79,1.99 2.69,4.42 2.69,7.29 0,4.26 -1.52,7.65 -4.58,10.16 -3.05,2.51 -7.2,3.77 -12.43,3.77l-17.71 0zm10.2 -39.19l0 11.66 4.7 0c2.21,0 3.96,-0.53 5.27,-1.59 1.29,-1.07 1.93,-2.55 1.93,-4.44 0,-1.89 -0.65,-3.31 -1.96,-4.24 -1.3,-0.93 -3.25,-1.39 -5.83,-1.39l-4.11 0zm0 19.3l0 12.32 5.84 0c2.48,0 4.43,-0.58 5.84,-1.74 1.4,-1.17 2.11,-2.75 2.11,-4.75 0,-1.83 -0.7,-3.25 -2.1,-4.29 -1.4,-1.03 -3.36,-1.54 -5.89,-1.54l-5.8 0z"/>
  <path id="1" class="fil6" d="M715.19 1425.2c-5.63,0 -10.06,-1.59 -13.3,-4.79 -3.24,-3.2 -4.87,-7.52 -4.87,-12.98 0.03,-5.67 1.71,-10.11 5.06,-13.31 3.35,-3.19 7.88,-4.78 13.6,-4.78 5.63,0 10.04,1.59 13.22,4.77 3.18,3.18 4.78,7.43 4.78,12.73 0,5.66 -1.65,10.12 -4.96,13.42 -3.3,3.29 -7.81,4.94 -13.53,4.94zm0.35 -7.66c2.66,0 4.66,-0.88 5.99,-2.65 1.34,-1.76 2.01,-4.37 2.01,-7.86 0,-3.29 -0.68,-5.8 -2.03,-7.48 -1.35,-1.68 -3.35,-2.52 -6.03,-2.52 -2.63,0 -4.68,0.9 -6.12,2.7 -1.46,1.81 -2.2,4.33 -2.2,7.57 0,3.4 0.72,5.94 2.13,7.66 1.41,1.72 3.49,2.58 6.25,2.58z"/>
  <path id="2" class="fil6" d="M757.95 1425.2c-5.63,0 -10.06,-1.59 -13.3,-4.79 -3.24,-3.2 -4.86,-7.52 -4.86,-12.98 0.02,-5.67 1.7,-10.11 5.05,-13.31 3.35,-3.19 7.88,-4.78 13.6,-4.78 5.64,0 10.04,1.59 13.23,4.77 3.18,3.18 4.77,7.43 4.77,12.73 0,5.66 -1.64,10.12 -4.95,13.42 -3.31,3.29 -7.81,4.94 -13.54,4.94zm0.36 -7.66c2.66,0 4.65,-0.88 5.99,-2.65 1.33,-1.76 2,-4.37 2,-7.86 0,-3.29 -0.68,-5.8 -2.02,-7.48 -1.35,-1.68 -3.35,-2.52 -6.04,-2.52 -2.62,0 -4.67,0.9 -6.12,2.7 -1.46,1.81 -2.19,4.33 -2.19,7.57 0,3.4 0.71,5.94 2.12,7.66 1.42,1.72 3.5,2.58 6.26,2.58z"/>
  <path id="3" class="fil6" d="M805.52 1423.83c-1.05,0.46 -2.22,0.8 -3.5,1.02 -1.28,0.24 -2.57,0.35 -3.87,0.35 -3.66,0 -6.41,-0.89 -8.27,-2.67 -1.86,-1.78 -2.79,-4.44 -2.79,-7.99l0 -16.96 -5.58 -0.03 -0.04 -7.37 5.62 0 0 -7.73 9.95 -2.83 -0.04 10.56 7.83 0 0 7.4 -7.79 -0.03 -0.04 16.37c0,1.4 0.27,2.4 0.81,3.03 0.55,0.64 1.4,0.94 2.55,0.91 0.59,0.03 1.15,-0.04 1.68,-0.21 0.54,-0.16 1.03,-0.35 1.48,-0.56l2 6.74z"/>
  <polygon id="4" class="fil6" points="859.02,1385.97 842.39,1385.97 842.39,1397.74 857.69,1397.74 857.69,1406.07 842.39,1406.07 842.39,1424.39 832.19,1424.39 832.15,1377.63 859.02,1377.63 "/>
  <polygon id="5" class="fil6" points="867.09,1424.39 867.09,1374.95 877.07,1374.95 877.07,1424.39 "/>
  <path id="6" class="fil6" d="M921.68 1421.52l4.11 -6.68c1.14,0.89 2.51,1.64 4.09,2.26 1.57,0.62 3.32,0.93 5.23,0.93 1.46,0 2.65,-0.27 3.58,-0.8 0.92,-0.53 1.38,-1.35 1.38,-2.43 0,-0.89 -0.36,-1.59 -1.08,-2.1 -0.71,-0.51 -2.04,-0.98 -3.98,-1.39 -4.24,-0.91 -7.28,-2.18 -9.12,-3.82 -1.85,-1.63 -2.77,-3.92 -2.77,-6.88 0,-3.43 1.35,-6.17 4.08,-8.21 2.73,-2.05 6.09,-3.06 10.06,-3.06 2.07,0 4.01,0.25 5.82,0.78 1.82,0.52 3.54,1.31 5.17,2.38l-3.75 6.45c-1.37,-0.87 -2.65,-1.5 -3.86,-1.91 -1.21,-0.4 -2.45,-0.6 -3.73,-0.6 -1.51,0 -2.7,0.29 -3.59,0.84 -0.89,0.57 -1.34,1.31 -1.34,2.2 0,0.98 0.41,1.7 1.22,2.17 0.82,0.46 2.38,0.93 4.69,1.41 3.92,0.8 6.76,2.06 8.49,3.75 1.72,1.69 2.59,4 2.59,6.91 0,3.46 -1.3,6.24 -3.92,8.34 -2.6,2.09 -6.06,3.14 -10.36,3.14 -2.35,0 -4.58,-0.3 -6.72,-0.89 -2.13,-0.6 -4.23,-1.54 -6.29,-2.79z"/>
  <path id="7" class="fil6" d="M1014.5 1421.23l4.2 -7.96c2.34,1.39 4.4,2.33 6.16,2.85 1.76,0.51 3.61,0.76 5.55,0.76 2.5,0 4.37,-0.48 5.63,-1.48 1.24,-0.99 1.87,-2.36 1.87,-4.09 0,-1.65 -0.5,-2.93 -1.52,-3.82 -1.01,-0.89 -2.82,-1.65 -5.43,-2.28 -5.17,-1.21 -8.94,-2.92 -11.28,-5.1 -2.35,-2.18 -3.52,-5.22 -3.52,-9.12 0,-3.94 1.52,-7.27 4.56,-10.02 3.05,-2.75 7.28,-4.12 12.72,-4.12 2.31,0 4.56,0.25 6.77,0.78 2.21,0.52 4.31,1.28 6.3,2.28l-3.84 8.06c-1.78,-1 -3.47,-1.73 -5.07,-2.17 -1.59,-0.45 -3.11,-0.67 -4.52,-0.67 -2.15,0 -3.83,0.42 -5.03,1.28 -1.22,0.87 -1.82,2.09 -1.82,3.71 0,1.45 0.56,2.58 1.67,3.37 1.1,0.79 3.07,1.52 5.9,2.2 5.04,1.17 8.69,2.9 10.94,5.17 2.25,2.27 3.38,5.46 3.38,9.57 0,4.4 -1.55,7.95 -4.65,10.68 -3.1,2.73 -7.58,4.09 -13.42,4.09 -2.63,0 -5.33,-0.35 -8.1,-1.05 -2.77,-0.69 -5.26,-1.67 -7.45,-2.92z"/>
  <path id="8" class="fil6" d="M1086.38 1410.07l-22.53 0c0.17,2.65 1.04,4.63 2.58,5.93 1.54,1.31 3.68,1.96 6.42,1.96 0.98,0 2.32,-0.29 4.05,-0.86 1.71,-0.58 3.4,-1.47 5.05,-2.69l4.37 5.77c-2.31,1.74 -4.67,3.02 -7.09,3.82 -2.43,0.8 -5.08,1.2 -7.97,1.2 -5.48,0 -9.73,-1.53 -12.76,-4.6 -3.02,-3.06 -4.54,-7.33 -4.56,-12.81 0,-5.48 1.6,-9.93 4.81,-13.33 3.2,-3.42 7.26,-5.12 12.18,-5.12 4.71,0 8.47,1.43 11.27,4.31 2.79,2.89 4.18,7.02 4.18,12.42l0 4zm-9.29 -6.23c0,-2.72 -0.52,-4.68 -1.58,-5.89 -1.06,-1.2 -2.61,-1.8 -4.64,-1.8 -1.81,0 -3.36,0.69 -4.67,2.07 -1.3,1.38 -2.1,3.25 -2.38,5.62l13.27 0z"/>
  <path id="9" class="fil6" d="M1121.22 1422.14c-1.73,1.07 -3.5,1.83 -5.29,2.32 -1.8,0.49 -3.74,0.74 -5.86,0.74 -5.7,0 -10.14,-1.58 -13.34,-4.74 -3.19,-3.16 -4.79,-7.28 -4.79,-12.35 0,-5.8 1.71,-10.38 5.14,-13.74 3.42,-3.37 7.96,-5.03 13.61,-5.03 2.09,0 3.93,0.2 5.52,0.61 1.61,0.41 3.2,1.07 4.79,1.96l-3.72 6.74c-1.02,-0.58 -2.02,-1 -3,-1.27 -0.98,-0.25 -2.05,-0.39 -3.2,-0.39 -2.82,0 -5.03,0.92 -6.62,2.74 -1.58,1.83 -2.38,4.4 -2.38,7.7 0,3.18 0.85,5.65 2.56,7.44 1.71,1.78 3.84,2.67 6.41,2.67 0.76,0 1.7,-0.15 2.84,-0.48 1.12,-0.31 2.27,-0.82 3.41,-1.55l3.92 6.63z"/>
  <path id="10" class="fil6" d="M1149.03 1423.83c-1.05,0.46 -2.22,0.8 -3.5,1.02 -1.28,0.24 -2.57,0.35 -3.87,0.35 -3.66,0 -6.41,-0.89 -8.27,-2.67 -1.86,-1.78 -2.79,-4.44 -2.79,-7.99l0 -16.96 -5.58 -0.03 -0.04 -7.37 5.62 0 0 -7.73 9.95 -2.83 -0.04 10.56 7.83 0 0 7.4 -7.79 -0.03 -0.04 16.37c0,1.4 0.27,2.4 0.82,3.03 0.54,0.64 1.39,0.94 2.54,0.91 0.59,0.03 1.15,-0.04 1.69,-0.21 0.53,-0.16 1.02,-0.35 1.48,-0.56l1.99 6.74z"/>
  <path id="11" class="fil6" d="M1160.71 1385.58c-1.73,0 -3.16,-0.53 -4.27,-1.58 -1.11,-1.05 -1.66,-2.37 -1.66,-3.93 0,-1.61 0.55,-2.93 1.66,-3.96 1.11,-1.03 2.54,-1.56 4.27,-1.56 1.74,0 3.17,0.53 4.26,1.56 1.1,1.03 1.64,2.35 1.64,3.96 0,1.61 -0.54,2.93 -1.64,3.97 -1.09,1.02 -2.52,1.54 -4.26,1.54zm4.89 38.81l-9.94 0 0 -34.21 9.94 0 0 34.21z"/>
  <path id="12" class="fil6" d="M1192.33 1425.2c-5.64,0 -10.07,-1.59 -13.31,-4.79 -3.24,-3.2 -4.86,-7.52 -4.86,-12.98 0.02,-5.67 1.7,-10.11 5.05,-13.31 3.35,-3.19 7.88,-4.78 13.61,-4.78 5.63,0 10.04,1.59 13.22,4.77 3.18,3.18 4.77,7.43 4.77,12.73 0,5.66 -1.64,10.12 -4.95,13.42 -3.3,3.29 -7.81,4.94 -13.53,4.94zm0.35 -7.66c2.66,0 4.65,-0.88 5.99,-2.65 1.34,-1.76 2,-4.37 2,-7.86 0,-3.29 -0.68,-5.8 -2.02,-7.48 -1.35,-1.68 -3.35,-2.52 -6.04,-2.52 -2.62,0 -4.67,0.9 -6.12,2.7 -1.45,1.81 -2.19,4.33 -2.19,7.57 0,3.4 0.71,5.94 2.13,7.66 1.41,1.72 3.49,2.58 6.25,2.58z"/>
  <path id="13" class="fil6" d="M1251.47 1424.39l-9.95 0 0 -19.08c0,-2.74 -0.49,-4.8 -1.48,-6.18 -1,-1.38 -2.48,-2.08 -4.46,-2.1 -1.93,0.02 -3.53,0.77 -4.77,2.23 -1.26,1.47 -1.88,3.33 -1.88,5.59l-0.04 19.54 -9.94 0 -0.03 -34.21 10.01 0 -0.04 5.44 0.17 0c1.26,-2.1 2.81,-3.68 4.64,-4.7 1.85,-1.04 3.96,-1.55 6.38,-1.55 3.78,-0.02 6.62,1.14 8.53,3.52 1.9,2.37 2.86,5.88 2.86,10.56l0 20.94z"/>
  <path id="14" class="fil6" d="M915.27 1424.39l-9.45 0 0 -4.96 -0.13 0c-1.16,1.92 -2.59,3.35 -4.31,4.32 -1.72,0.97 -3.66,1.45 -5.83,1.45 -3.06,0 -5.62,-0.9 -7.71,-2.72 -2.08,-1.81 -3.13,-4.35 -3.13,-7.59 0,-3.17 1.04,-5.74 3.12,-7.72 2.07,-1.98 5.29,-3.26 9.64,-3.85l8.42 -1.14 0 -0.66c0,-1.75 -0.55,-3.08 -1.64,-3.97 -1.09,-0.89 -2.58,-1.34 -4.5,-1.34 -1.46,0 -3.03,0.25 -4.72,0.74 -1.68,0.49 -3.37,1.26 -5.06,2.33l-3.56 -5.9c2.24,-1.4 4.5,-2.42 6.8,-3.08 2.29,-0.64 4.78,-0.96 7.46,-0.96 4.97,0 8.65,1.19 11.03,3.58 2.38,2.39 3.57,6 3.57,10.83l0 20.64zm-9.38 -13.89l0 -2.45 -6.49 0.81c-1.84,0.27 -3.2,0.8 -4.09,1.61 -0.89,0.83 -1.33,1.92 -1.33,3.29 0,1.25 0.43,2.29 1.3,3.09 0.87,0.81 2.05,1.21 3.53,1.21 2.08,0 3.78,-0.72 5.09,-2.15 1.32,-1.44 1.99,-3.24 1.99,-5.41z"/>
  <path id="15" class="fil6" d="M988.44 1424.39l-9.91 0 0 -19.47c0,-2.65 -0.49,-4.63 -1.45,-5.92 -0.97,-1.29 -2.42,-1.94 -4.36,-1.94 -1.95,0 -3.55,0.74 -4.79,2.2 -1.24,1.47 -1.85,3.34 -1.83,5.63l-0.03 19.5 -9.94 0 -0.04 -49.44 10.01 0 -0.03 20.39 0.16 -0.04c1.31,-2 2.84,-3.49 4.62,-4.48 1.77,-0.99 3.77,-1.48 5.98,-1.48 3.88,0 6.78,1.16 8.71,3.5 1.93,2.33 2.9,5.84 2.9,10.54l0 21.01z"/>
  <path class="fil5" d="M1382.12 383.49c-5.57,0 -9.65,-1.95 -12.26,-5.88 -2.61,-3.92 -3.91,-9.78 -3.91,-17.56 0,-8.11 1.41,-14.29 4.24,-18.54 2.82,-4.25 6.83,-6.37 12.03,-6.37 5.86,0 10.03,1.98 12.49,5.95 2.46,3.97 3.68,9.93 3.68,17.88 0,7.92 -1.36,13.98 -4.06,18.2 -2.71,4.22 -6.78,6.32 -12.21,6.32zm0.03 -40.72c-2.17,0 -3.73,1.42 -4.66,4.25 -0.94,2.84 -1.4,7.1 -1.4,12.77 0,5.35 0.49,9.36 1.45,12.03 0.96,2.68 2.52,4.02 4.65,4.02 2.3,0 3.88,-1.38 4.74,-4.13 0.85,-2.75 1.29,-6.88 1.29,-12.41 0,-5.5 -0.45,-9.63 -1.33,-12.39 -0.87,-2.76 -2.46,-4.14 -4.74,-4.14z"/>
  <path id="1" class="fil5" d="M1439.26 348.48l-11.3 16.66 11.2 17.54 -11.47 0 -5.16 -9.43c-0.18,-0.39 -0.41,-0.83 -0.66,-1.33 -0.25,-0.5 -0.51,-1.07 -0.79,-1.73l-0.14 0c-0.15,0.44 -0.34,0.89 -0.56,1.38 -0.24,0.49 -0.5,1.03 -0.81,1.6l-5.22 9.51 -11.44 0 11.58 -17.02 -10.9 -17.18 11.54 0 5.09 9.82c0.33,0.62 0.61,1.2 0.83,1.7 0.24,0.51 0.42,1 0.54,1.46l0.13 0c0.2,-0.53 0.43,-1.05 0.67,-1.58 0.26,-0.54 0.52,-1.08 0.8,-1.65l5.22 -9.75 10.85 0z"/>
  <path id="2" class="fil5" d="M1499.56 383.49c-5.57,0 -9.65,-1.95 -12.25,-5.88 -2.62,-3.92 -3.92,-9.78 -3.92,-17.56 0,-8.11 1.41,-14.29 4.24,-18.54 2.83,-4.25 6.83,-6.37 12.03,-6.37 5.87,0 10.03,1.98 12.49,5.95 2.46,3.97 3.68,9.93 3.68,17.88 0,7.92 -1.35,13.98 -4.06,18.2 -2.7,4.22 -6.78,6.32 -12.21,6.32zm0.03 -40.72c-2.17,0 -3.72,1.42 -4.66,4.25 -0.94,2.84 -1.4,7.1 -1.4,12.77 0,5.35 0.49,9.36 1.46,12.03 0.95,2.68 2.51,4.02 4.64,4.02 2.3,0 3.88,-1.38 4.74,-4.13 0.86,-2.75 1.29,-6.88 1.29,-12.41 0,-5.5 -0.44,-9.63 -1.32,-12.39 -0.88,-2.76 -2.46,-4.14 -4.75,-4.14z"/>
  <path id="3" class="fil5" d="M1539.13 383.49c-5.56,0 -9.65,-1.95 -12.25,-5.88 -2.62,-3.92 -3.92,-9.78 -3.92,-17.56 0,-8.11 1.41,-14.29 4.24,-18.54 2.83,-4.25 6.83,-6.37 12.03,-6.37 5.87,0 10.03,1.98 12.49,5.95 2.46,3.97 3.69,9.93 3.69,17.88 0,7.92 -1.36,13.98 -4.07,18.2 -2.7,4.22 -6.78,6.32 -12.21,6.32zm0.04 -40.72c-2.17,0 -3.73,1.42 -4.67,4.25 -0.93,2.84 -1.4,7.1 -1.4,12.77 0,5.35 0.49,9.36 1.46,12.03 0.95,2.68 2.51,4.02 4.64,4.02 2.3,0 3.88,-1.38 4.74,-4.13 0.86,-2.75 1.29,-6.88 1.29,-12.41 0,-5.5 -0.44,-9.63 -1.32,-12.39 -0.88,-2.76 -2.46,-4.14 -4.74,-4.14z"/>
  <path id="4" class="fil5" d="M1578.7 383.49c-5.56,0 -9.65,-1.95 -12.25,-5.88 -2.62,-3.92 -3.92,-9.78 -3.92,-17.56 0,-8.11 1.41,-14.29 4.24,-18.54 2.83,-4.25 6.83,-6.37 12.03,-6.37 5.87,0 10.03,1.98 12.49,5.95 2.46,3.97 3.69,9.93 3.69,17.88 0,7.92 -1.36,13.98 -4.07,18.2 -2.7,4.22 -6.78,6.32 -12.21,6.32zm0.04 -40.72c-2.17,0 -3.73,1.42 -4.67,4.25 -0.93,2.84 -1.4,7.1 -1.4,12.77 0,5.35 0.49,9.36 1.46,12.03 0.95,2.68 2.51,4.02 4.64,4.02 2.3,0 3.88,-1.38 4.74,-4.13 0.86,-2.75 1.29,-6.88 1.29,-12.41 0,-5.5 -0.44,-9.63 -1.32,-12.39 -0.88,-2.76 -2.46,-4.14 -4.74,-4.14z"/>
  <path id="5" class="fil5" d="M1459.99 383.49c-5.57,0 -9.65,-1.95 -12.25,-5.88 -2.62,-3.92 -3.92,-9.78 -3.92,-17.56 0,-8.11 1.41,-14.29 4.24,-18.54 2.83,-4.25 6.83,-6.37 12.03,-6.37 5.87,0 10.03,1.98 12.49,5.95 2.46,3.97 3.68,9.93 3.68,17.88 0,7.92 -1.35,13.98 -4.06,18.2 -2.7,4.22 -6.78,6.32 -12.21,6.32zm0.03 -40.72c-2.17,0 -3.72,1.42 -4.66,4.25 -0.94,2.84 -1.4,7.1 -1.4,12.77 0,5.35 0.49,9.36 1.46,12.03 0.95,2.68 2.51,4.02 4.64,4.02 2.3,0 3.88,-1.38 4.74,-4.13 0.86,-2.75 1.29,-6.88 1.29,-12.41 0,-5.5 -0.44,-9.63 -1.32,-12.39 -0.88,-2.76 -2.46,-4.14 -4.75,-4.14z"/>
  <path class="fil5" d="M1382.12 1450.21c-5.57,0 -9.65,-1.95 -12.26,-5.88 -2.61,-3.92 -3.91,-9.78 -3.91,-17.56 0,-8.11 1.41,-14.29 4.24,-18.54 2.82,-4.25 6.83,-6.37 12.03,-6.37 5.86,0 10.03,1.98 12.49,5.95 2.46,3.97 3.68,9.92 3.68,17.88 0,7.92 -1.36,13.98 -4.06,18.2 -2.71,4.22 -6.78,6.32 -12.21,6.32zm0.03 -40.72c-2.17,0 -3.73,1.42 -4.66,4.25 -0.94,2.84 -1.4,7.1 -1.4,12.77 0,5.35 0.49,9.36 1.45,12.03 0.96,2.68 2.52,4.02 4.65,4.02 2.3,0 3.88,-1.38 4.74,-4.13 0.85,-2.75 1.29,-6.88 1.29,-12.41 0,-5.5 -0.45,-9.63 -1.33,-12.39 -0.87,-2.76 -2.46,-4.14 -4.74,-4.14z"/>
  <path id="1" class="fil5" d="M1439.27 1415.2l-11.31 16.66 11.2 17.54 -11.47 0 -5.15 -9.43c-0.19,-0.39 -0.42,-0.83 -0.67,-1.33 -0.25,-0.5 -0.51,-1.07 -0.79,-1.73l-0.14 0c-0.15,0.44 -0.34,0.89 -0.56,1.38 -0.24,0.49 -0.5,1.03 -0.81,1.6l-5.22 9.51 -11.44 0 11.58 -17.02 -10.9 -17.18 11.54 0 5.09 9.81c0.33,0.63 0.61,1.21 0.83,1.71 0.24,0.51 0.42,1 0.54,1.46l0.13 0c0.2,-0.53 0.43,-1.05 0.67,-1.59 0.26,-0.53 0.52,-1.07 0.8,-1.64l5.22 -9.75 10.86 0z"/>
  <polygon id="2" class="fil5" points="1512.71,1410.99 1496.08,1410.99 1496.08,1422.76 1511.37,1422.76 1511.37,1431.08 1496.08,1431.08 1496.08,1449.4 1485.87,1449.4 1485.84,1402.64 1512.71,1402.64 "/>
  <polygon id="3" class="fil5" points="1548.59,1410.99 1531.96,1410.99 1531.96,1422.76 1547.26,1422.76 1547.26,1431.08 1531.96,1431.08 1531.96,1449.4 1521.76,1449.4 1521.72,1402.64 1548.59,1402.64 "/>
  <polygon id="4" class="fil5" points="1584.48,1410.99 1567.85,1410.99 1567.85,1422.76 1583.14,1422.76 1583.14,1431.08 1567.85,1431.08 1567.85,1449.4 1557.64,1449.4 1557.61,1402.64 1584.48,1402.64 "/>
  <path id="5" class="fil5" d="M1444.31 1446.17l3.94 -6.62c1.7,1.03 3.24,1.78 4.63,2.27 1.39,0.49 3.06,0.74 5,0.74 2.62,0 4.57,-0.64 5.85,-1.92 1.27,-1.27 1.91,-2.75 1.91,-4.45 0,-2.3 -0.93,-4.03 -2.77,-5.2 -1.83,-1.16 -4.37,-1.75 -7.61,-1.75l-3.81 0 0 -7.65 3.49 0c3.08,0 5.41,-0.53 6.97,-1.57 1.54,-1.04 2.32,-2.78 2.32,-5.18 0,-1.77 -0.5,-3.09 -1.51,-4 -1.01,-0.9 -2.42,-1.35 -4.23,-1.35 -1.37,0 -2.83,0.24 -4.36,0.73 -1.55,0.49 -3.18,1.26 -4.9,2.31l-3.81 -6.53c2.35,-1.43 4.66,-2.49 6.96,-3.15 2.29,-0.67 4.84,-0.99 7.64,-0.99 4.27,0 7.73,1.07 10.39,3.23 2.66,2.15 4,4.94 4,8.37 0,2.87 -0.67,5.27 -2.03,7.18 -1.35,1.92 -3.36,3.35 -6.05,4.31l0 0.15c2.9,0.53 5.22,1.78 6.92,3.78 1.7,1.98 2.56,4.38 2.56,7.19 0,4.13 -1.53,7.52 -4.59,10.17 -3.05,2.65 -7.17,3.97 -12.33,3.97 -2.76,0 -5.31,-0.32 -7.64,-0.97 -2.32,-0.65 -4.64,-1.67 -6.94,-3.07z"/>
  <path class="fil7" d="M2181.1 417.99l3.94 -6.63c1.71,1.03 3.24,1.78 4.63,2.27 1.4,0.49 3.07,0.74 5,0.74 2.63,0 4.58,-0.64 5.86,-1.92 1.27,-1.27 1.9,-2.75 1.9,-4.45 0,-2.3 -0.92,-4.03 -2.76,-5.2 -1.84,-1.15 -4.37,-1.75 -7.61,-1.75l-3.81 0 0 -7.65 3.48 0c3.09,0 5.41,-0.53 6.97,-1.57 1.55,-1.04 2.33,-2.77 2.33,-5.18 0,-1.77 -0.5,-3.09 -1.52,-3.99 -1.01,-0.9 -2.41,-1.36 -4.23,-1.36 -1.36,0 -2.82,0.24 -4.36,0.73 -1.55,0.49 -3.17,1.26 -4.9,2.31l-3.8 -6.52c2.35,-1.44 4.66,-2.5 6.95,-3.15 2.3,-0.67 4.85,-1 7.65,-1 4.26,0 7.73,1.07 10.39,3.23 2.66,2.15 3.99,4.94 3.99,8.37 0,2.87 -0.67,5.27 -2.02,7.18 -1.35,1.92 -3.37,3.35 -6.06,4.31l0 0.15c2.91,0.53 5.22,1.79 6.92,3.78 1.71,1.98 2.56,4.38 2.56,7.19 0,4.13 -1.52,7.52 -4.58,10.17 -3.05,2.65 -7.17,3.98 -12.33,3.98 -2.76,0 -5.31,-0.33 -7.64,-0.98 -2.33,-0.65 -4.64,-1.67 -6.95,-3.06z"/>
  <path id="1" class="fil7" d="M2220.6 421.21l0 -3.46c0,-2.34 0.38,-4.45 1.16,-6.33 0.79,-1.88 1.77,-3.59 2.98,-5.11 1.19,-1.48 2.52,-2.81 3.99,-4 1.47,-1.18 2.88,-2.26 4.25,-3.24 1.4,-0.98 2.6,-1.91 3.61,-2.8 1.01,-0.89 1.89,-1.76 2.66,-2.62 0.8,-0.86 1.38,-1.79 1.74,-2.77 0.35,-0.98 0.54,-2.11 0.54,-3.42 0,-1.65 -0.52,-3.03 -1.57,-4.16 -1.04,-1.11 -2.57,-1.68 -4.56,-1.68 -1.37,0 -3.01,0.37 -4.91,1.08 -1.9,0.71 -3.76,1.82 -5.57,3.29l-5.05 -6.13c2.57,-2.12 5.22,-3.69 7.96,-4.69 2.74,-1.01 5.78,-1.5 9.09,-1.5 4.49,0 8.04,1.22 10.66,3.66 2.61,2.42 3.93,5.37 3.93,8.83 0,2.67 -0.33,4.83 -0.98,6.49 -0.65,1.65 -1.53,3.15 -2.61,4.5 -1.09,1.37 -2.35,2.62 -3.77,3.76 -1.43,1.15 -2.91,2.26 -4.44,3.35 -1.14,0.78 -2.2,1.55 -3.19,2.32 -0.99,0.75 -1.87,1.48 -2.62,2.18 -0.74,0.73 -1.33,1.46 -1.76,2.15 -0.44,0.7 -0.66,1.37 -0.66,2.02l20.06 0 0 8.28 -30.94 0z"/>
  <path id="2" class="fil7" d="M2316.98 421.21l-11.51 0 -6.36 -11.64c-1.04,-1.89 -2.07,-3.31 -3.08,-4.25 -1.02,-0.95 -2.18,-1.49 -3.51,-1.62l-2.99 0 0 17.51 -10.21 0 0 -46.76 16.53 0c5.57,0 9.76,1.11 12.59,3.31 2.82,2.2 4.24,5.51 4.24,9.89 0,3.14 -0.91,5.83 -2.73,8.07 -1.81,2.26 -4.31,3.92 -7.48,4.98l0 0.13c1.37,0.44 2.64,1.33 3.82,2.66 1.17,1.34 2.18,2.75 3.03,4.25l7.66 13.47zm-27.45 -39.07l0 13.83 4.75 0c2.3,0 4.16,-0.7 5.57,-2.11 1.4,-1.4 2.1,-3.12 2.1,-5.19 0,-2.15 -0.62,-3.78 -1.86,-4.88 -1.23,-1.09 -3.11,-1.65 -5.61,-1.65l-4.95 0z"/>
  <path id="3" class="fil7" d="M2350.96 406.9l-22.53 0c0.17,2.65 1.03,4.63 2.57,5.93 1.55,1.3 3.68,1.96 6.42,1.96 0.98,0 2.33,-0.29 4.05,-0.87 1.72,-0.58 3.4,-1.47 5.06,-2.68l4.36 5.77c-2.3,1.73 -4.66,3.01 -7.09,3.81 -2.43,0.8 -5.08,1.21 -7.97,1.21 -5.48,0 -9.73,-1.53 -12.76,-4.6 -3.01,-3.06 -4.54,-7.34 -4.56,-12.81 0,-5.48 1.6,-9.93 4.81,-13.34 3.2,-3.41 7.27,-5.12 12.19,-5.12 4.71,0 8.47,1.44 11.26,4.32 2.8,2.88 4.19,7.01 4.19,12.41l0 4.01zm-9.3 -6.23c0,-2.72 -0.52,-4.68 -1.58,-5.89 -1.05,-1.2 -2.6,-1.81 -4.64,-1.81 -1.8,0 -3.36,0.69 -4.66,2.07 -1.31,1.38 -2.11,3.25 -2.38,5.63l13.26 0z"/>
  <path id="4" class="fil7" d="M2390.99 417.14c0,5.71 -1.74,10.44 -5.24,14.17 -3.51,3.73 -8.6,5.59 -15.29,5.59 -2.49,0 -4.79,-0.24 -6.9,-0.71 -2.12,-0.46 -4.23,-1.19 -6.35,-2.17l3.01 -6.77c1.71,0.77 3.37,1.35 4.97,1.71 1.59,0.36 3.41,0.53 5.42,0.53 3.38,0 5.95,-0.98 7.74,-2.93 1.78,-1.95 2.67,-4.58 2.67,-7.86l0 -2.51 -0.13 0c-1.22,1.96 -2.73,3.42 -4.53,4.39 -1.81,0.97 -3.9,1.45 -6.27,1.45 -4.36,0 -7.83,-1.54 -10.39,-4.61 -2.54,-3.09 -3.82,-7.18 -3.82,-12.31 0,-5.81 1.42,-10.42 4.27,-13.83 2.85,-3.41 6.61,-5.12 11.29,-5.12 2.1,0 3.95,0.4 5.54,1.22 1.58,0.82 2.88,2.04 3.91,3.67l0.13 0 0 -4.04 9.97 0 0 30.13zm-9.84 -12.27l0 -2.96c0,-2.25 -0.68,-4.14 -2.02,-5.71 -1.35,-1.57 -3.09,-2.35 -5.22,-2.35 -2.45,0 -4.39,0.95 -5.79,2.84 -1.4,1.89 -2.1,4.57 -2.1,8.03 0,2.97 0.66,5.33 1.99,7.05 1.32,1.73 3.14,2.6 5.44,2.6 2.33,0 4.2,-0.87 5.6,-2.62 1.4,-1.73 2.1,-4.03 2.1,-6.88z"/>
  <path id="5" class="fil7" d="M2405.47 382.41c-1.73,0 -3.16,-0.53 -4.27,-1.58 -1.11,-1.06 -1.66,-2.37 -1.66,-3.93 0,-1.61 0.55,-2.94 1.66,-3.96 1.11,-1.03 2.54,-1.56 4.27,-1.56 1.74,0 3.16,0.53 4.26,1.56 1.1,1.02 1.64,2.35 1.64,3.96 0,1.61 -0.54,2.93 -1.64,3.96 -1.1,1.03 -2.52,1.55 -4.26,1.55zm4.89 38.8l-9.94 0 0 -34.2 9.94 0 0 34.2z"/>
  <path id="6" class="fil7" d="M2417.08 418.34l4.11 -6.68c1.15,0.89 2.52,1.65 4.1,2.26 1.57,0.63 3.31,0.94 5.23,0.94 1.46,0 2.65,-0.27 3.57,-0.8 0.92,-0.54 1.38,-1.35 1.38,-2.43 0,-0.89 -0.35,-1.59 -1.08,-2.1 -0.71,-0.52 -2.04,-0.98 -3.97,-1.4 -4.24,-0.91 -7.28,-2.18 -9.13,-3.81 -1.85,-1.63 -2.77,-3.92 -2.77,-6.88 0,-3.43 1.36,-6.17 4.08,-8.22 2.73,-2.05 6.09,-3.06 10.07,-3.06 2.07,0 4,0.26 5.82,0.78 1.81,0.52 3.54,1.31 5.16,2.38l-3.75 6.46c-1.37,-0.87 -2.65,-1.5 -3.86,-1.92 -1.2,-0.4 -2.45,-0.6 -3.73,-0.6 -1.5,0 -2.69,0.29 -3.58,0.85 -0.89,0.57 -1.35,1.3 -1.35,2.19 0,0.98 0.41,1.71 1.22,2.17 0.83,0.47 2.39,0.94 4.69,1.42 3.93,0.8 6.77,2.06 8.49,3.75 1.73,1.69 2.6,3.99 2.6,6.91 0,3.46 -1.31,6.23 -3.92,8.34 -2.61,2.09 -6.07,3.14 -10.37,3.14 -2.34,0 -4.58,-0.3 -6.72,-0.89 -2.12,-0.61 -4.23,-1.54 -6.29,-2.8z"/>
  <path id="7" class="fil7" d="M2471.8 420.66c-1.05,0.45 -2.21,0.8 -3.49,1.02 -1.28,0.23 -2.58,0.35 -3.88,0.35 -3.66,0 -6.41,-0.89 -8.27,-2.68 -1.86,-1.78 -2.79,-4.44 -2.79,-7.99l0 -16.95 -5.58 -0.03 -0.03 -7.37 5.61 0 0 -7.74 9.95 -2.82 -0.03 10.56 7.82 0 0 7.4 -7.79 -0.03 -0.03 16.37c0,1.39 0.26,2.39 0.81,3.03 0.54,0.63 1.39,0.93 2.55,0.91 0.59,0.02 1.14,-0.04 1.68,-0.21 0.53,-0.17 1.02,-0.36 1.48,-0.57l1.99 6.75z"/>
  <path id="8" class="fil7" d="M2507.9 406.9l-22.53 0c0.17,2.65 1.03,4.63 2.57,5.93 1.55,1.3 3.68,1.96 6.42,1.96 0.98,0 2.33,-0.29 4.05,-0.87 1.72,-0.58 3.4,-1.47 5.06,-2.68l4.36 5.77c-2.3,1.73 -4.66,3.01 -7.09,3.81 -2.43,0.8 -5.08,1.21 -7.97,1.21 -5.48,0 -9.73,-1.53 -12.75,-4.6 -3.02,-3.06 -4.55,-7.34 -4.57,-12.81 0,-5.48 1.61,-9.93 4.81,-13.34 3.21,-3.41 7.27,-5.12 12.19,-5.12 4.71,0 8.47,1.44 11.26,4.32 2.8,2.88 4.19,7.01 4.19,12.41l0 4.01zm-9.3 -6.23c0,-2.72 -0.52,-4.68 -1.58,-5.89 -1.05,-1.2 -2.6,-1.81 -4.64,-1.81 -1.8,0 -3.36,0.69 -4.66,2.07 -1.3,1.38 -2.11,3.25 -2.38,5.63l13.26 0z"/>
  <path id="9" class="fil7" d="M2535.84 395.32c-0.44,-0.11 -0.87,-0.19 -1.32,-0.24 -0.44,-0.06 -0.96,-0.08 -1.51,-0.08 -2.73,0 -4.78,0.86 -6.16,2.58 -1.38,1.74 -2.07,4.13 -2.07,7.19l0 16.44 -9.97 0 0 -34.2 9.97 0 0 6.39 0.14 0c0.82,-2.33 1.99,-4.08 3.5,-5.26 1.52,-1.17 3.35,-1.76 5.53,-1.76 0.52,0 1.02,0.05 1.5,0.12 0.47,0.07 0.99,0.16 1.53,0.27l-1.14 8.55z"/>
  <path id="10" class="fil7" d="M2539.43 418.34l4.11 -6.68c1.14,0.89 2.51,1.65 4.09,2.26 1.57,0.63 3.32,0.94 5.23,0.94 1.46,0 2.65,-0.27 3.58,-0.8 0.92,-0.54 1.38,-1.35 1.38,-2.43 0,-0.89 -0.36,-1.59 -1.08,-2.1 -0.71,-0.52 -2.04,-0.98 -3.98,-1.4 -4.24,-0.91 -7.28,-2.18 -9.12,-3.81 -1.85,-1.63 -2.77,-3.92 -2.77,-6.88 0,-3.43 1.35,-6.17 4.08,-8.22 2.73,-2.05 6.09,-3.06 10.06,-3.06 2.07,0 4.01,0.26 5.82,0.78 1.82,0.52 3.54,1.31 5.17,2.38l-3.75 6.46c-1.37,-0.87 -2.65,-1.5 -3.86,-1.92 -1.21,-0.4 -2.45,-0.6 -3.73,-0.6 -1.51,0 -2.7,0.29 -3.59,0.85 -0.89,0.57 -1.34,1.3 -1.34,2.19 0,0.98 0.41,1.71 1.22,2.17 0.82,0.47 2.38,0.94 4.69,1.42 3.92,0.8 6.76,2.06 8.49,3.75 1.72,1.69 2.59,3.99 2.59,6.91 0,3.46 -1.3,6.23 -3.92,8.34 -2.6,2.09 -6.06,3.14 -10.36,3.14 -2.35,0 -4.58,-0.3 -6.72,-0.89 -2.13,-0.61 -4.23,-1.54 -6.29,-2.8z"/>
  <polygon class="fil7" points="2157.52,1239.41 2147.31,1239.41 2147.31,1192.65 2157.52,1192.65 "/>
  <path id="1" class="fil7" d="M2200.43 1239.41l-9.95 0 0 -19.08c0,-2.74 -0.49,-4.8 -1.48,-6.18 -0.99,-1.38 -2.47,-2.08 -4.45,-2.1 -1.94,0.02 -3.53,0.77 -4.78,2.24 -1.26,1.47 -1.88,3.32 -1.88,5.58l-0.03 19.54 -9.94 0 -0.04 -34.21 10.01 0 -0.03 5.45 0.16 0c1.26,-2.11 2.81,-3.69 4.64,-4.71 1.85,-1.04 3.97,-1.55 6.38,-1.55 3.79,-0.02 6.63,1.15 8.53,3.52 1.9,2.37 2.86,5.89 2.86,10.56l0 20.94z"/>
  <path id="2" class="fil7" d="M2230.3 1238.85c-1.04,0.46 -2.21,0.8 -3.49,1.03 -1.28,0.23 -2.57,0.34 -3.87,0.34 -3.67,0 -6.42,-0.89 -8.27,-2.67 -1.86,-1.78 -2.8,-4.44 -2.8,-7.99l0 -16.95 -5.57 -0.04 -0.04 -7.37 5.61 0 0 -7.73 9.95 -2.83 -0.03 10.56 7.82 0 0 7.41 -7.79 -0.04 -0.03 16.38c0,1.39 0.27,2.39 0.81,3.02 0.55,0.64 1.39,0.94 2.55,0.92 0.59,0.02 1.15,-0.05 1.68,-0.22 0.54,-0.16 1.03,-0.35 1.48,-0.56l1.99 6.74z"/>
  <path id="3" class="fil7" d="M2266.4 1225.09l-22.53 0c0.17,2.65 1.04,4.64 2.57,5.94 1.55,1.3 3.69,1.96 6.43,1.96 0.98,0 2.32,-0.29 4.05,-0.87 1.71,-0.58 3.39,-1.47 5.05,-2.68l4.36 5.76c-2.3,1.74 -4.66,3.02 -7.09,3.82 -2.42,0.8 -5.07,1.2 -7.96,1.2 -5.48,0 -9.73,-1.52 -12.76,-4.6 -3.02,-3.06 -4.54,-7.33 -4.56,-12.81 0,-5.47 1.6,-9.93 4.8,-13.33 3.21,-3.42 7.27,-5.12 12.19,-5.12 4.71,0 8.47,1.43 11.27,4.32 2.79,2.88 4.18,7.01 4.18,12.41l0 4zm-9.29 -6.23c0,-2.71 -0.53,-4.67 -1.58,-5.89 -1.06,-1.2 -2.61,-1.8 -4.64,-1.8 -1.81,0 -3.37,0.69 -4.67,2.07 -1.3,1.38 -2.1,3.25 -2.38,5.62l13.27 0z"/>
  <path id="4" class="fil7" d="M2294.34 1213.52c-0.44,-0.11 -0.87,-0.19 -1.31,-0.25 -0.45,-0.05 -0.96,-0.07 -1.52,-0.07 -2.73,0 -4.77,0.85 -6.15,2.58 -1.38,1.74 -2.07,4.13 -2.07,7.19l0 16.44 -9.98 0 0 -34.21 9.98 0 0 6.39 0.13 0c0.82,-2.32 1.99,-4.07 3.51,-5.25 1.51,-1.17 3.35,-1.76 5.53,-1.76 0.51,0 1.01,0.05 1.49,0.11 0.48,0.08 0.99,0.17 1.54,0.28l-1.15 8.55z"/>
  <path id="5" class="fil7" d="M2333.44 1239.41l-9.95 0 0 -19.08c0,-2.74 -0.49,-4.8 -1.48,-6.18 -0.99,-1.38 -2.47,-2.08 -4.45,-2.1 -1.94,0.02 -3.53,0.77 -4.78,2.24 -1.25,1.47 -1.88,3.32 -1.88,5.58l-0.03 19.54 -9.94 0 -0.03 -34.21 10 0 -0.03 5.45 0.17 0c1.25,-2.11 2.8,-3.69 4.64,-4.71 1.84,-1.04 3.96,-1.55 6.37,-1.55 3.79,-0.02 6.63,1.15 8.53,3.52 1.9,2.37 2.86,5.89 2.86,10.56l0 20.94z"/>
  <path id="6" class="fil7" d="M2370.45 1239.41l-9.45 0 0 -4.95 -0.13 0c-1.16,1.91 -2.58,3.35 -4.31,4.31 -1.71,0.97 -3.66,1.45 -5.83,1.45 -3.05,0 -5.61,-0.9 -7.7,-2.72 -2.09,-1.81 -3.13,-4.35 -3.13,-7.59 0,-3.17 1.03,-5.74 3.11,-7.72 2.07,-1.98 5.29,-3.26 9.64,-3.85l8.42 -1.14 0 -0.65c0,-1.76 -0.55,-3.09 -1.64,-3.98 -1.09,-0.89 -2.58,-1.33 -4.49,-1.33 -1.46,0 -3.03,0.24 -4.72,0.73 -1.69,0.49 -3.38,1.26 -5.07,2.33l-3.56 -5.9c2.25,-1.39 4.51,-2.42 6.8,-3.07 2.29,-0.65 4.79,-0.97 7.46,-0.97 4.97,0 8.66,1.19 11.03,3.58 2.38,2.4 3.57,6 3.57,10.83l0 20.64zm-9.38 -13.89l0 -2.45 -6.49 0.81c-1.84,0.27 -3.19,0.8 -4.09,1.62 -0.89,0.82 -1.33,1.91 -1.33,3.28 0,1.26 0.43,2.29 1.3,3.09 0.87,0.82 2.05,1.22 3.53,1.22 2.08,0 3.78,-0.73 5.1,-2.16 1.31,-1.44 1.98,-3.24 1.98,-5.41z"/>
  <polygon id="7" class="fil7" points="2379.39,1239.41 2379.39,1189.98 2389.36,1189.98 2389.36,1239.41 "/>
  <path id="8" class="fil7" d="M2414.61 1236.25l4.19 -7.96c2.35,1.39 4.41,2.34 6.17,2.85 1.76,0.51 3.61,0.77 5.54,0.77 2.51,0 4.38,-0.49 5.63,-1.48 1.25,-0.99 1.87,-2.36 1.87,-4.1 0,-1.65 -0.5,-2.93 -1.51,-3.82 -1.01,-0.89 -2.83,-1.64 -5.43,-2.28 -5.18,-1.21 -8.94,-2.92 -11.29,-5.1 -2.35,-2.18 -3.52,-5.22 -3.52,-9.11 0,-3.94 1.53,-7.28 4.57,-10.03 3.05,-2.75 7.28,-4.12 12.72,-4.12 2.3,0 4.55,0.26 6.77,0.78 2.2,0.52 4.31,1.28 6.3,2.28l-3.84 8.06c-1.78,-1 -3.48,-1.73 -5.08,-2.17 -1.59,-0.45 -3.1,-0.67 -4.52,-0.67 -2.14,0 -3.83,0.42 -5.03,1.28 -1.21,0.87 -1.81,2.09 -1.81,3.71 0,1.46 0.55,2.58 1.67,3.37 1.1,0.79 3.07,1.53 5.9,2.2 5.04,1.17 8.69,2.9 10.94,5.17 2.25,2.27 3.37,5.46 3.37,9.57 0,4.4 -1.55,7.95 -4.64,10.69 -3.11,2.72 -7.58,4.08 -13.42,4.08 -2.63,0 -5.34,-0.34 -8.11,-1.05 -2.77,-0.69 -5.25,-1.67 -7.44,-2.92z"/>
  <path id="9" class="fil7" d="M2494.03 1239.41l-11.5 0 -6.36 -11.64c-1.05,-1.9 -2.07,-3.31 -3.08,-4.26 -1.02,-0.94 -2.18,-1.49 -3.51,-1.61l-2.99 0 0 17.51 -10.21 0 0 -46.76 16.53 0c5.56,0 9.76,1.1 12.59,3.31 2.82,2.2 4.24,5.5 4.24,9.89 0,3.14 -0.92,5.82 -2.73,8.07 -1.81,2.26 -4.31,3.92 -7.48,4.98l0 0.13c1.37,0.43 2.64,1.32 3.82,2.66 1.17,1.33 2.18,2.75 3.03,4.25l7.65 13.47zm-27.44 -39.07l0 13.82 4.75 0c2.3,0 4.16,-0.7 5.56,-2.1 1.41,-1.4 2.11,-3.13 2.11,-5.2 0,-2.15 -0.63,-3.77 -1.86,-4.87 -1.24,-1.09 -3.11,-1.65 -5.61,-1.65l-4.95 0z"/>
  <path id="10" class="fil7" d="M2495.21 1239.41l17.09 -46.76 12.03 0 16.7 46.76 -11.09 0 -3.29 -9.95 -17.19 0 -3.19 9.95 -11.06 0zm16.5 -17.93l12.52 0 -5.32 -16.54c-0.17,-0.63 -0.31,-1.17 -0.43,-1.63 -0.13,-0.45 -0.23,-1.04 -0.31,-1.76l-0.26 0c-0.11,0.65 -0.22,1.22 -0.35,1.7 -0.12,0.47 -0.27,1.01 -0.47,1.6l-5.38 16.63z"/>
  <path id="11" class="fil7" d="M2600.51 1239.41l-10.08 0 0 -28.21c0,-1.48 0.03,-3.05 0.1,-4.72 0.06,-1.65 0.16,-3.4 0.29,-5.23l-0.26 0c-0.28,1.42 -0.53,2.63 -0.77,3.64 -0.22,1.02 -0.44,1.82 -0.67,2.43l-11.31 32.09 -8.19 0 -11.47 -31.77c-0.16,-0.43 -0.36,-1.18 -0.6,-2.25 -0.26,-1.05 -0.55,-2.43 -0.87,-4.14l-0.29 0c0.14,2.21 0.26,4.3 0.32,6.3 0.07,2 0.1,3.88 0.1,5.65l0 26.21 -9.23 0 0 -46.76 14.91 0 9.87 28.04c0.39,1.04 0.73,2.07 0.98,3.08 0.27,1.01 0.49,2.03 0.69,3.05l0.19 0c0.33,-1.17 0.65,-2.28 0.95,-3.33 0.31,-1.03 0.62,-1.99 0.94,-2.87l9.92 -27.97 14.48 0 0 46.76z"/>
  <path id="12" class="fil7" d="M2243.2 1338.87l-8.15 0c-3.51,-3.87 -6.13,-8.18 -7.88,-12.94 -1.75,-4.77 -2.63,-9.96 -2.63,-15.59 0,-5.46 0.88,-10.59 2.63,-15.39 1.75,-4.81 4.37,-9.29 7.88,-13.47l8.08 0c-3.28,4.34 -5.74,8.93 -7.4,13.75 -1.65,4.81 -2.48,9.85 -2.48,15.11 0,5.26 0.83,10.27 2.5,15.02 1.66,4.74 4.14,9.25 7.45,13.51z"/>
  <path id="13" class="fil7" d="M2266.18 1328.24l-9.94 0 0 -35.96c-1.18,0.8 -2.5,1.49 -3.98,2.08 -1.47,0.59 -3.07,1.16 -4.79,1.69l-2.7 -7.98c2.92,-0.86 5.73,-1.94 8.39,-3.25 2.66,-1.31 5.03,-2.77 7.09,-4.38l5.93 0 0 47.8z"/>
  <path id="14" class="fil7" d="M2293.02 1329.05c-5.57,0 -9.65,-1.96 -12.26,-5.88 -2.61,-3.92 -3.91,-9.78 -3.91,-17.56 0,-8.11 1.41,-14.29 4.24,-18.54 2.82,-4.25 6.83,-6.37 12.03,-6.37 5.86,0 10.03,1.98 12.49,5.95 2.46,3.97 3.68,9.93 3.68,17.88 0,7.92 -1.36,13.98 -4.06,18.2 -2.71,4.22 -6.78,6.32 -12.21,6.32zm0.03 -40.72c-2.17,0 -3.73,1.42 -4.66,4.25 -0.94,2.84 -1.4,7.1 -1.4,12.77 0,5.35 0.49,9.36 1.45,12.03 0.96,2.68 2.52,4.02 4.64,4.02 2.31,0 3.89,-1.38 4.75,-4.13 0.85,-2.75 1.29,-6.88 1.29,-12.41 0,-5.5 -0.45,-9.63 -1.33,-12.39 -0.88,-2.76 -2.46,-4.14 -4.74,-4.14z"/>
  <path id="15" class="fil7" d="M2344.15 1281.41l0 29.65 4.57 0.03 0.03 7.5 -4.6 0 0 9.68 -9.52 0 0.03 -9.68 -19.5 0 0.03 -7.82c1.74,-2.05 3.54,-4.29 5.39,-6.7 1.85,-2.43 3.63,-4.91 5.34,-7.46 1.72,-2.58 3.32,-5.18 4.8,-7.76 1.48,-2.58 2.74,-5.05 3.78,-7.4l9.65 -0.04zm-20.19 29.65l10.67 0.03 0.03 -16.6c-0.76,1.52 -1.59,3.03 -2.49,4.53 -0.91,1.51 -1.8,2.98 -2.7,4.41 -0.93,1.39 -1.87,2.73 -2.8,4.02 -0.93,1.3 -1.84,2.49 -2.71,3.61z"/>
  <path id="16" class="fil7" d="M2354.55 1315.62c0,-2.6 0.7,-4.98 2.09,-7.09 1.39,-2.12 3.47,-3.73 6.23,-4.84 -2.09,-1.22 -3.72,-2.74 -4.89,-4.55 -1.18,-1.82 -1.76,-3.83 -1.76,-6.05 0,-3.57 1.39,-6.52 4.17,-8.87 2.79,-2.35 6.33,-3.52 10.63,-3.52 4.32,0 7.87,1.16 10.64,3.48 2.78,2.31 4.17,5.24 4.17,8.78 0,2.21 -0.63,4.22 -1.86,6 -1.24,1.78 -2.95,3.29 -5.12,4.53 2.76,1.11 4.84,2.74 6.25,4.87 1.42,2.15 2.13,4.53 2.13,7.16 0,4.03 -1.5,7.28 -4.5,9.75 -3,2.48 -6.94,3.72 -11.81,3.72 -4.8,0 -8.73,-1.24 -11.81,-3.73 -3.06,-2.49 -4.58,-5.7 -4.56,-9.64zm9.26 -0.85c0,2.18 0.66,3.9 1.96,5.16 1.3,1.26 3.04,1.89 5.19,1.89 2.03,-0.02 3.72,-0.67 5.06,-1.94 1.35,-1.28 2.02,-2.98 2.02,-5.11 0,-1.93 -0.66,-3.59 -1.96,-4.98 -1.31,-1.39 -3.02,-2.1 -5.12,-2.1 -2.05,-0.02 -3.75,0.65 -5.11,2 -1.36,1.34 -2.04,3.04 -2.04,5.08zm1.4 -20.9c0.03,1.87 0.62,3.37 1.76,4.52 1.16,1.13 2.52,1.71 4.09,1.71 1.58,-0.02 2.95,-0.6 4.1,-1.71 1.15,-1.12 1.73,-2.63 1.73,-4.52 0,-1.83 -0.57,-3.27 -1.72,-4.35 -1.13,-1.08 -2.51,-1.62 -4.11,-1.62 -1.68,0 -3.06,0.55 -4.17,1.65 -1.09,1.1 -1.65,2.54 -1.68,4.32z"/>
  <path id="17" class="fil7" d="M2445.72 1294.04l-11.31 16.66 11.21 17.54 -11.47 0 -5.16 -9.43c-0.19,-0.38 -0.41,-0.83 -0.67,-1.33 -0.24,-0.5 -0.51,-1.07 -0.78,-1.73l-0.14 0c-0.15,0.44 -0.34,0.89 -0.57,1.38 -0.23,0.49 -0.5,1.03 -0.8,1.6l-5.22 9.51 -11.44 0 11.57 -17.02 -10.89 -17.18 11.54 0 5.09 9.82c0.33,0.62 0.61,1.2 0.83,1.7 0.24,0.51 0.41,1 0.54,1.46l0.13 0c0.2,-0.53 0.42,-1.05 0.67,-1.58 0.25,-0.54 0.52,-1.08 0.8,-1.65l5.22 -9.75 10.85 0z"/>
  <path id="18" class="fil7" d="M2467.93 1315.62c0,-2.6 0.7,-4.98 2.09,-7.09 1.39,-2.12 3.46,-3.73 6.22,-4.84 -2.08,-1.22 -3.72,-2.74 -4.88,-4.55 -1.18,-1.82 -1.76,-3.83 -1.76,-6.05 0,-3.57 1.39,-6.52 4.17,-8.87 2.78,-2.35 6.32,-3.52 10.63,-3.52 4.32,0 7.87,1.16 10.64,3.48 2.77,2.31 4.16,5.24 4.16,8.78 0,2.21 -0.62,4.22 -1.85,6 -1.24,1.78 -2.95,3.29 -5.12,4.53 2.76,1.11 4.84,2.74 6.25,4.87 1.41,2.15 2.13,4.53 2.13,7.16 0,4.03 -1.51,7.28 -4.5,9.75 -3,2.48 -6.94,3.72 -11.81,3.72 -4.81,0 -8.74,-1.24 -11.81,-3.73 -3.06,-2.49 -4.58,-5.7 -4.56,-9.64zm9.26 -0.85c0,2.18 0.65,3.9 1.96,5.16 1.3,1.26 3.04,1.89 5.18,1.89 2.04,-0.02 3.73,-0.67 5.07,-1.94 1.34,-1.28 2.01,-2.98 2.01,-5.11 0,-1.93 -0.65,-3.59 -1.96,-4.98 -1.3,-1.39 -3.01,-2.1 -5.12,-2.1 -2.04,-0.02 -3.75,0.65 -5.1,2 -1.36,1.34 -2.04,3.04 -2.04,5.08zm1.4 -20.9c0.02,1.87 0.61,3.37 1.76,4.52 1.16,1.13 2.51,1.71 4.08,1.71 1.58,-0.02 2.95,-0.6 4.11,-1.71 1.15,-1.12 1.73,-2.63 1.73,-4.52 0,-1.83 -0.57,-3.27 -1.72,-4.35 -1.13,-1.08 -2.51,-1.62 -4.12,-1.62 -1.68,0 -3.06,0.55 -4.16,1.65 -1.09,1.1 -1.66,2.54 -1.68,4.32z"/>
  <path id="19" class="fil7" d="M2512.74 1338.87l-8.13 0c3.33,-4.24 5.83,-8.74 7.51,-13.48 1.67,-4.75 2.5,-9.77 2.5,-15.05 0,-5.24 -0.83,-10.27 -2.5,-15.08 -1.68,-4.82 -4.18,-9.42 -7.51,-13.78l8.19 0c3.5,4.18 6.13,8.67 7.89,13.48 1.77,4.82 2.65,9.94 2.65,15.38 0,5.59 -0.89,10.76 -2.66,15.52 -1.77,4.76 -4.42,9.1 -7.94,13.01z"/>
  <path class="fil7" d="M2152.14 607.63c0,4.58 -1.47,8.4 -4.41,11.46 -2.93,3.05 -6.67,4.58 -11.21,4.58 -5.08,0 -9.03,-1.89 -11.85,-5.65 -2.84,-3.75 -4.27,-9.11 -4.27,-16.07 0,-3.95 0.44,-7.59 1.29,-10.91 0.86,-3.32 2.2,-6.15 4,-8.52 1.74,-2.33 3.8,-4.11 6.17,-5.35 2.36,-1.24 5.32,-1.86 8.86,-1.86 1.57,0 3.24,0.26 5.01,0.78 1.77,0.53 3.64,1.55 5.59,3.1l-5.12 5.9c-0.89,-0.74 -1.79,-1.28 -2.68,-1.63 -0.89,-0.34 -1.96,-0.52 -3.23,-0.52 -1.55,0 -2.95,0.32 -4.15,0.98 -1.21,0.65 -2.31,1.61 -3.31,2.9 -0.94,1.22 -1.65,2.7 -2.16,4.43 -0.52,1.74 -0.79,3.65 -0.84,5.75l0.2 0c1.17,-1.37 2.57,-2.41 4.2,-3.11 1.63,-0.69 3.45,-1.03 5.45,-1.03 3.79,0 6.8,1.33 9.06,4 2.26,2.67 3.4,6.27 3.4,10.77zm-9.33 0.35c0,-2.58 -0.52,-4.52 -1.58,-5.8 -1.06,-1.29 -2.51,-1.92 -4.35,-1.92 -2.14,0 -3.8,0.71 -4.98,2.15 -1.18,1.43 -1.78,3.25 -1.78,5.44 0,2.28 0.6,4.22 1.78,5.79 1.18,1.58 2.74,2.37 4.64,2.37 1.92,0 3.44,-0.72 4.58,-2.13 1.12,-1.41 1.69,-3.37 1.69,-5.9z"/>
  <path id="1" class="fil7" d="M2187.35 576.03l0 29.64 4.57 0.03 0.03 7.5 -4.6 0 0 9.69 -9.52 0 0.03 -9.69 -19.5 0 0.03 -7.82c1.74,-2.05 3.54,-4.29 5.39,-6.7 1.85,-2.43 3.63,-4.91 5.34,-7.46 1.72,-2.58 3.32,-5.18 4.8,-7.76 1.48,-2.58 2.74,-5.05 3.78,-7.4l9.65 -0.03zm-20.19 29.64l10.67 0.03 0.03 -16.6c-0.76,1.52 -1.59,3.03 -2.49,4.54 -0.91,1.5 -1.8,2.97 -2.7,4.4 -0.93,1.39 -1.87,2.73 -2.8,4.02 -0.93,1.3 -1.84,2.49 -2.71,3.61z"/>
  <polygon id="2" class="fil7" points="2228.96,622.85 2218.75,622.85 2218.75,576.09 2228.96,576.09 "/>
  <polygon id="3" class="fil7" points="2265.38,576.09 2242.62,630.54 2233.75,630.54 2256.41,576.09 "/>
  <path id="4" class="fil7" d="M2290.06 623.67c-6.69,0 -12.15,-2.19 -16.35,-6.54 -4.21,-4.36 -6.31,-10.04 -6.31,-17.04 0,-7.39 2.13,-13.37 6.41,-17.93 4.26,-4.56 9.94,-6.85 17.01,-6.85 6.64,0 12.03,2.18 16.14,6.55 4.1,4.37 6.15,10.14 6.15,17.28 0,7.35 -2.11,13.28 -6.37,17.78 -4.25,4.5 -9.81,6.75 -16.68,6.75zm0.17 -8.81c3.74,0 6.7,-1.33 8.88,-4.01 2.18,-2.67 3.28,-6.37 3.28,-11.12 0,-4.94 -1.07,-8.78 -3.18,-11.53 -2.12,-2.75 -5.02,-4.12 -8.7,-4.12 -3.78,0 -6.78,1.42 -9.02,4.23 -2.25,2.83 -3.36,6.57 -3.36,11.22 0,4.72 1.11,8.46 3.34,11.21 2.22,2.75 5.15,4.12 8.76,4.12z"/>
  <path id="5" class="fil7" d="M2377.67 622.85l-11.51 0 -6.36 -11.64c-1.04,-1.89 -2.07,-3.31 -3.08,-4.25 -1.01,-0.95 -2.18,-1.49 -3.5,-1.62l-3 0 0 17.51 -10.21 0 0 -46.76 16.53 0c5.57,0 9.77,1.1 12.59,3.31 2.83,2.2 4.24,5.51 4.24,9.89 0,3.14 -0.91,5.83 -2.72,8.07 -1.82,2.26 -4.31,3.92 -7.48,4.98l0 0.13c1.37,0.44 2.63,1.33 3.81,2.66 1.17,1.34 2.19,2.75 3.03,4.25l7.66 13.47zm-27.45 -39.07l0 13.83 4.75 0c2.31,0 4.17,-0.7 5.57,-2.11 1.4,-1.4 2.1,-3.12 2.1,-5.19 0,-2.15 -0.62,-3.78 -1.86,-4.88 -1.23,-1.09 -3.1,-1.65 -5.6,-1.65l-4.96 0z"/>
  <path id="6" class="fil7" d="M2411.65 608.54l-22.53 0c0.17,2.65 1.04,4.63 2.57,5.93 1.55,1.3 3.69,1.96 6.43,1.96 0.98,0 2.32,-0.29 4.05,-0.87 1.71,-0.58 3.39,-1.47 5.05,-2.68l4.37 5.77c-2.31,1.73 -4.67,3.01 -7.1,3.81 -2.42,0.81 -5.07,1.21 -7.96,1.21 -5.48,0 -9.73,-1.53 -12.76,-4.6 -3.02,-3.06 -4.54,-7.34 -4.56,-12.81 0,-5.48 1.6,-9.93 4.8,-13.34 3.21,-3.41 7.27,-5.12 12.19,-5.12 4.71,0 8.47,1.44 11.27,4.32 2.79,2.88 4.18,7.01 4.18,12.41l0 4.01zm-9.29 -6.23c0,-2.72 -0.53,-4.68 -1.58,-5.89 -1.06,-1.2 -2.61,-1.81 -4.64,-1.81 -1.81,0 -3.36,0.69 -4.67,2.07 -1.3,1.39 -2.1,3.25 -2.38,5.63l13.27 0z"/>
  <path id="7" class="fil7" d="M2451.69 618.78c0,5.71 -1.75,10.44 -5.24,14.17 -3.51,3.73 -8.61,5.59 -15.3,5.59 -2.48,0 -4.78,-0.24 -6.9,-0.7 -2.11,-0.47 -4.23,-1.2 -6.34,-2.17l3 -6.78c1.72,0.78 3.38,1.35 4.98,1.71 1.59,0.36 3.4,0.53 5.42,0.53 3.37,0 5.94,-0.98 7.74,-2.93 1.78,-1.95 2.67,-4.58 2.67,-7.86l0 -2.51 -0.14 0c-1.21,1.96 -2.72,3.42 -4.53,4.39 -1.8,0.97 -3.89,1.45 -6.26,1.45 -4.37,0 -7.83,-1.54 -10.39,-4.61 -2.55,-3.09 -3.83,-7.18 -3.83,-12.31 0,-5.81 1.43,-10.42 4.28,-13.83 2.85,-3.41 6.61,-5.12 11.28,-5.12 2.11,0 3.95,0.4 5.55,1.22 1.58,0.82 2.88,2.04 3.9,3.67l0.14 0 0 -4.04 9.97 0 0 30.13zm-9.84 -12.27l0 -2.96c0,-2.25 -0.68,-4.14 -2.03,-5.71 -1.34,-1.57 -3.08,-2.35 -5.22,-2.35 -2.45,0 -4.38,0.95 -5.78,2.84 -1.41,1.89 -2.11,4.57 -2.11,8.03 0,2.97 0.67,5.33 1.99,7.05 1.33,1.73 3.14,2.6 5.45,2.6 2.32,0 4.19,-0.87 5.6,-2.62 1.4,-1.73 2.1,-4.03 2.1,-6.88z"/>
  <path id="8" class="fil7" d="M2466.17 584.05c-1.74,0 -3.16,-0.53 -4.27,-1.58 -1.12,-1.06 -1.66,-2.37 -1.66,-3.93 0,-1.61 0.54,-2.94 1.66,-3.96 1.11,-1.04 2.53,-1.56 4.27,-1.56 1.74,0 3.16,0.52 4.25,1.56 1.1,1.02 1.65,2.35 1.65,3.96 0,1.6 -0.55,2.93 -1.65,3.96 -1.09,1.03 -2.51,1.55 -4.25,1.55zm4.89 38.8l-9.94 0 0 -34.2 9.94 0 0 34.2z"/>
  <path id="9" class="fil7" d="M2477.78 619.98l4.11 -6.68c1.14,0.89 2.51,1.65 4.09,2.26 1.57,0.63 3.32,0.94 5.24,0.94 1.45,0 2.64,-0.27 3.57,-0.8 0.92,-0.54 1.38,-1.35 1.38,-2.43 0,-0.89 -0.36,-1.59 -1.08,-2.1 -0.71,-0.52 -2.04,-0.98 -3.97,-1.4 -4.25,-0.91 -7.28,-2.18 -9.13,-3.81 -1.85,-1.63 -2.77,-3.92 -2.77,-6.88 0,-3.43 1.35,-6.17 4.08,-8.22 2.73,-2.05 6.09,-3.06 10.06,-3.06 2.07,0 4.01,0.26 5.83,0.78 1.81,0.52 3.53,1.32 5.16,2.38l-3.75 6.46c-1.37,-0.87 -2.65,-1.5 -3.86,-1.92 -1.21,-0.4 -2.45,-0.6 -3.73,-0.6 -1.51,0 -2.7,0.29 -3.59,0.85 -0.89,0.57 -1.34,1.3 -1.34,2.19 0,0.98 0.41,1.71 1.22,2.17 0.82,0.47 2.38,0.94 4.69,1.42 3.93,0.8 6.76,2.06 8.49,3.75 1.72,1.69 2.59,3.99 2.59,6.91 0,3.46 -1.3,6.23 -3.91,8.34 -2.61,2.09 -6.07,3.14 -10.37,3.14 -2.35,0 -4.58,-0.3 -6.72,-0.89 -2.13,-0.61 -4.23,-1.54 -6.29,-2.8z"/>
  <path id="10" class="fil7" d="M2532.5 622.3c-1.05,0.45 -2.22,0.8 -3.5,1.02 -1.28,0.23 -2.57,0.35 -3.87,0.35 -3.66,0 -6.41,-0.89 -8.27,-2.68 -1.86,-1.78 -2.79,-4.44 -2.79,-7.99l0 -16.95 -5.58 -0.03 -0.03 -7.37 5.61 0 0 -7.74 9.95 -2.82 -0.04 10.56 7.83 0 0 7.4 -7.79 -0.03 -0.04 16.37c0,1.39 0.27,2.39 0.82,3.03 0.54,0.63 1.39,0.93 2.55,0.91 0.58,0.02 1.14,-0.04 1.68,-0.21 0.53,-0.17 1.02,-0.36 1.48,-0.57l1.99 6.75z"/>
  <path id="11" class="fil7" d="M2568.6 608.54l-22.53 0c0.16,2.65 1.03,4.63 2.57,5.93 1.55,1.3 3.68,1.96 6.42,1.96 0.98,0 2.33,-0.29 4.05,-0.87 1.72,-0.58 3.4,-1.47 5.06,-2.68l4.36 5.77c-2.3,1.73 -4.67,3.01 -7.09,3.81 -2.43,0.81 -5.08,1.21 -7.97,1.21 -5.48,0 -9.73,-1.53 -12.76,-4.6 -3.01,-3.06 -4.54,-7.34 -4.56,-12.81 0,-5.48 1.6,-9.93 4.81,-13.34 3.2,-3.41 7.27,-5.12 12.19,-5.12 4.7,0 8.47,1.44 11.26,4.32 2.79,2.88 4.19,7.01 4.19,12.41l0 4.01zm-9.3 -6.23c0,-2.72 -0.52,-4.68 -1.58,-5.89 -1.06,-1.2 -2.6,-1.81 -4.64,-1.81 -1.8,0 -3.36,0.69 -4.66,2.07 -1.31,1.39 -2.11,3.25 -2.39,5.63l13.27 0z"/>
  <path id="12" class="fil7" d="M2596.53 596.96c-0.43,-0.11 -0.86,-0.19 -1.31,-0.24 -0.45,-0.06 -0.96,-0.08 -1.51,-0.08 -2.73,0 -4.78,0.86 -6.16,2.58 -1.38,1.74 -2.07,4.13 -2.07,7.19l0 16.44 -9.97 0 0 -34.2 9.97 0 0 6.39 0.13 0c0.83,-2.33 2,-4.08 3.51,-5.26 1.51,-1.17 3.35,-1.76 5.53,-1.76 0.51,0 1.02,0.05 1.49,0.12 0.48,0.07 1,0.16 1.54,0.27l-1.15 8.55z"/>
  <path id="13" class="fil7" d="M2600.13 619.98l4.11 -6.68c1.14,0.89 2.51,1.65 4.09,2.26 1.57,0.63 3.32,0.94 5.23,0.94 1.46,0 2.65,-0.27 3.58,-0.8 0.92,-0.54 1.38,-1.35 1.38,-2.43 0,-0.89 -0.36,-1.59 -1.08,-2.1 -0.71,-0.52 -2.04,-0.98 -3.98,-1.4 -4.24,-0.91 -7.28,-2.18 -9.12,-3.81 -1.85,-1.63 -2.77,-3.92 -2.77,-6.88 0,-3.43 1.35,-6.17 4.08,-8.22 2.73,-2.05 6.09,-3.06 10.06,-3.06 2.07,0 4.01,0.26 5.82,0.78 1.82,0.52 3.54,1.32 5.17,2.38l-3.75 6.46c-1.37,-0.87 -2.65,-1.5 -3.86,-1.92 -1.21,-0.4 -2.45,-0.6 -3.73,-0.6 -1.51,0 -2.7,0.29 -3.59,0.85 -0.89,0.57 -1.34,1.3 -1.34,2.19 0,0.98 0.41,1.71 1.22,2.17 0.82,0.47 2.38,0.94 4.69,1.42 3.92,0.8 6.76,2.06 8.49,3.75 1.72,1.69 2.59,3.99 2.59,6.91 0,3.46 -1.3,6.23 -3.92,8.34 -2.6,2.09 -6.06,3.14 -10.36,3.14 -2.35,0 -4.58,-0.3 -6.72,-0.89 -2.13,-0.61 -4.23,-1.54 -6.29,-2.8z"/>
  <path class="fil7" d="M2280.87 847.44l-9.94 0 0 -35.96c-1.18,0.8 -2.5,1.49 -3.98,2.08 -1.47,0.59 -3.07,1.16 -4.79,1.69l-2.7 -7.98c2.93,-0.86 5.73,-1.94 8.39,-3.25 2.66,-1.31 5.03,-2.77 7.09,-4.38l5.93 0 0 47.8z"/>
  <path id="1" class="fil7" d="M2323.63 832.22c0,4.58 -1.47,8.4 -4.41,11.46 -2.93,3.05 -6.67,4.57 -11.21,4.57 -5.07,0 -9.03,-1.88 -11.85,-5.64 -2.84,-3.75 -4.27,-9.11 -4.27,-16.07 0,-3.95 0.44,-7.59 1.29,-10.91 0.86,-3.32 2.2,-6.15 4,-8.53 1.74,-2.32 3.8,-4.1 6.17,-5.34 2.36,-1.25 5.32,-1.86 8.86,-1.86 1.57,0 3.24,0.26 5.01,0.78 1.77,0.52 3.64,1.55 5.6,3.1l-5.13 5.9c-0.89,-0.74 -1.79,-1.29 -2.68,-1.63 -0.89,-0.35 -1.96,-0.52 -3.23,-0.52 -1.55,0 -2.95,0.32 -4.15,0.98 -1.21,0.65 -2.31,1.61 -3.31,2.9 -0.94,1.21 -1.65,2.69 -2.16,4.43 -0.52,1.74 -0.79,3.65 -0.84,5.75l0.2 0c1.17,-1.37 2.57,-2.41 4.2,-3.11 1.63,-0.69 3.45,-1.04 5.45,-1.04 3.79,0 6.8,1.34 9.06,4.01 2.26,2.67 3.4,6.27 3.4,10.77zm-9.33 0.35c0,-2.58 -0.52,-4.52 -1.58,-5.8 -1.06,-1.29 -2.5,-1.92 -4.35,-1.92 -2.14,0 -3.8,0.71 -4.98,2.14 -1.18,1.44 -1.78,3.26 -1.78,5.45 0,2.28 0.6,4.22 1.78,5.79 1.18,1.58 2.74,2.37 4.64,2.37 1.92,0 3.44,-0.72 4.58,-2.13 1.12,-1.41 1.69,-3.37 1.69,-5.9z"/>
  <path id="2" class="fil7" d="M2346.61 848.25c-5.56,0 -9.65,-1.95 -12.25,-5.88 -2.62,-3.92 -3.92,-9.78 -3.92,-17.56 0,-8.11 1.41,-14.29 4.24,-18.54 2.83,-4.25 6.83,-6.37 12.03,-6.37 5.87,0 10.03,1.98 12.49,5.95 2.46,3.97 3.69,9.92 3.69,17.88 0,7.92 -1.36,13.98 -4.07,18.2 -2.7,4.22 -6.77,6.32 -12.21,6.32zm0.04 -40.72c-2.17,0 -3.73,1.42 -4.67,4.25 -0.93,2.84 -1.4,7.1 -1.4,12.77 0,5.35 0.49,9.36 1.46,12.03 0.96,2.68 2.51,4.02 4.64,4.02 2.3,0 3.89,-1.38 4.74,-4.13 0.86,-2.75 1.29,-6.88 1.29,-12.41 0,-5.5 -0.44,-9.63 -1.32,-12.39 -0.88,-2.76 -2.46,-4.14 -4.74,-4.14z"/>
  <polygon id="3" class="fil7" points="2418.1,847.44 2390.25,847.44 2390.21,800.68 2417.02,800.68 2417.02,809.03 2400.45,809.03 2400.45,819.76 2415.87,819.76 2415.85,828.07 2400.45,828.07 2400.45,839.13 2418.1,839.13 "/>
  <path id="4" class="fil7" d="M2457.58 813.24l-11.31 16.66 11.21 17.54 -11.48 0 -5.15 -9.43c-0.19,-0.39 -0.41,-0.83 -0.67,-1.33 -0.24,-0.5 -0.51,-1.07 -0.79,-1.73l-0.13 0c-0.16,0.44 -0.35,0.89 -0.57,1.38 -0.24,0.49 -0.5,1.03 -0.8,1.6l-5.22 9.51 -11.45 0 11.58 -17.02 -10.9 -17.18 11.55 0 5.08 9.81c0.34,0.63 0.62,1.21 0.84,1.71 0.23,0.51 0.41,1 0.53,1.46l0.13 0c0.21,-0.53 0.43,-1.05 0.67,-1.59 0.26,-0.53 0.53,-1.07 0.8,-1.64l5.22 -9.75 10.86 0z"/>
  <path id="5" class="fil7" d="M2483.9 846.89c-1.04,0.45 -2.21,0.8 -3.49,1.02 -1.28,0.23 -2.58,0.34 -3.88,0.34 -3.66,0 -6.41,-0.89 -8.27,-2.67 -1.86,-1.78 -2.79,-4.44 -2.79,-7.99l0 -16.95 -5.58 -0.03 -0.03 -7.37 5.61 0 0 -7.74 9.95 -2.83 -0.03 10.57 7.82 0 0 7.4 -7.79 -0.03 -0.03 16.37c0,1.39 0.26,2.39 0.81,3.03 0.54,0.63 1.39,0.93 2.55,0.91 0.59,0.02 1.14,-0.04 1.68,-0.21 0.53,-0.17 1.02,-0.36 1.48,-0.57l1.99 6.75z"/>
  <polygon id="6" class="fil7" points="2179.78,936.27 2169.58,936.27 2169.58,889.51 2179.78,889.51 "/>
  <polygon id="7" class="fil7" points="2216.2,889.51 2193.44,943.97 2184.57,943.97 2207.23,889.51 "/>
  <path id="8" class="fil7" d="M2240.88 937.09c-6.69,0 -12.14,-2.18 -16.35,-6.54 -4.21,-4.36 -6.31,-10.04 -6.31,-17.04 0,-7.39 2.14,-13.37 6.41,-17.93 4.26,-4.56 9.94,-6.85 17.01,-6.85 6.65,0 12.03,2.19 16.14,6.55 4.11,4.37 6.15,10.14 6.15,17.29 0,7.34 -2.11,13.27 -6.36,17.77 -4.25,4.5 -9.82,6.75 -16.69,6.75zm0.17 -8.81c3.74,0 6.7,-1.33 8.88,-4 2.18,-2.68 3.29,-6.38 3.29,-11.12 0,-4.95 -1.07,-8.79 -3.19,-11.54 -2.11,-2.75 -5.02,-4.11 -8.69,-4.11 -3.79,0 -6.79,1.41 -9.03,4.23 -2.25,2.82 -3.36,6.56 -3.36,11.22 0,4.71 1.11,8.45 3.34,11.2 2.23,2.75 5.15,4.12 8.76,4.12z"/>
  <path id="9" class="fil7" d="M2328.49 936.27l-11.51 0 -6.35 -11.64c-1.05,-1.89 -2.07,-3.3 -3.09,-4.25 -1.01,-0.95 -2.18,-1.49 -3.5,-1.61l-3 0 0 17.5 -10.2 0 0 -46.76 16.53 0c5.56,0 9.76,1.11 12.59,3.31 2.82,2.2 4.24,5.51 4.24,9.9 0,3.13 -0.92,5.82 -2.73,8.06 -1.81,2.26 -4.31,3.92 -7.48,4.98l0 0.13c1.37,0.44 2.64,1.33 3.82,2.67 1.17,1.33 2.18,2.74 3.03,4.25l7.65 13.46zm-27.45 -39.06l0 13.82 4.76 0c2.3,0 4.16,-0.7 5.56,-2.1 1.41,-1.41 2.11,-3.13 2.11,-5.2 0,-2.15 -0.63,-3.77 -1.86,-4.88 -1.24,-1.09 -3.11,-1.64 -5.61,-1.64l-4.96 0z"/>
  <path id="10" class="fil7" d="M2362.48 921.96l-22.53 0c0.16,2.65 1.03,4.63 2.57,5.93 1.55,1.31 3.68,1.96 6.42,1.96 0.98,0 2.33,-0.29 4.05,-0.87 1.72,-0.57 3.4,-1.47 5.06,-2.68l4.36 5.77c-2.3,1.73 -4.67,3.01 -7.09,3.82 -2.43,0.8 -5.08,1.2 -7.97,1.2 -5.48,0 -9.73,-1.53 -12.76,-4.6 -3.01,-3.06 -4.54,-7.33 -4.56,-12.81 0,-5.48 1.6,-9.93 4.81,-13.34 3.2,-3.41 7.27,-5.12 12.19,-5.12 4.7,0 8.47,1.44 11.26,4.32 2.79,2.89 4.19,7.02 4.19,12.41l0 4.01zm-9.3 -6.23c0,-2.72 -0.52,-4.68 -1.58,-5.89 -1.06,-1.2 -2.6,-1.8 -4.64,-1.8 -1.8,0 -3.36,0.69 -4.66,2.07 -1.31,1.38 -2.11,3.25 -2.39,5.62l13.27 0z"/>
  <path id="11" class="fil7" d="M2402.51 932.2c0,5.71 -1.74,10.44 -5.24,14.17 -3.51,3.73 -8.6,5.59 -15.29,5.59 -2.49,0 -4.79,-0.24 -6.9,-0.7 -2.12,-0.47 -4.23,-1.19 -6.35,-2.17l3.01 -6.78c1.71,0.78 3.37,1.36 4.97,1.71 1.59,0.36 3.41,0.54 5.42,0.54 3.38,0 5.95,-0.98 7.74,-2.94 1.78,-1.95 2.67,-4.58 2.67,-7.86l0 -2.51 -0.13 0c-1.22,1.96 -2.73,3.42 -4.53,4.39 -1.81,0.97 -3.9,1.45 -6.27,1.45 -4.36,0 -7.83,-1.54 -10.39,-4.61 -2.54,-3.08 -3.82,-7.18 -3.82,-12.31 0,-5.81 1.42,-10.42 4.27,-13.83 2.85,-3.41 6.61,-5.12 11.29,-5.12 2.1,0 3.95,0.4 5.54,1.22 1.58,0.82 2.88,2.05 3.91,3.67l0.13 0 0 -4.04 9.97 0 0 30.13zm-9.84 -12.27l0 -2.96c0,-2.24 -0.68,-4.14 -2.02,-5.71 -1.35,-1.57 -3.09,-2.34 -5.22,-2.34 -2.45,0 -4.39,0.94 -5.79,2.83 -1.4,1.9 -2.1,4.57 -2.1,8.03 0,2.97 0.66,5.33 1.99,7.06 1.32,1.72 3.14,2.59 5.44,2.59 2.33,0 4.2,-0.87 5.6,-2.62 1.4,-1.73 2.1,-4.03 2.1,-6.88z"/>
  <path id="12" class="fil7" d="M2416.99 897.47c-1.73,0 -3.16,-0.53 -4.27,-1.58 -1.11,-1.06 -1.66,-2.37 -1.66,-3.93 0,-1.61 0.55,-2.94 1.66,-3.96 1.11,-1.03 2.54,-1.56 4.27,-1.56 1.74,0 3.17,0.53 4.26,1.56 1.1,1.02 1.64,2.35 1.64,3.96 0,1.61 -0.54,2.93 -1.64,3.97 -1.09,1.02 -2.52,1.54 -4.26,1.54zm4.89 38.8l-9.94 0 0 -34.2 9.94 0 0 34.2z"/>
  <path id="13" class="fil7" d="M2428.6 933.4l4.11 -6.67c1.15,0.88 2.52,1.64 4.1,2.25 1.57,0.63 3.31,0.94 5.23,0.94 1.46,0 2.65,-0.27 3.57,-0.8 0.93,-0.54 1.38,-1.35 1.38,-2.43 0,-0.89 -0.35,-1.59 -1.08,-2.1 -0.71,-0.51 -2.03,-0.98 -3.97,-1.39 -4.24,-0.92 -7.28,-2.18 -9.13,-3.82 -1.85,-1.63 -2.77,-3.92 -2.77,-6.88 0,-3.43 1.36,-6.17 4.08,-8.22 2.73,-2.04 6.09,-3.06 10.07,-3.06 2.07,0 4,0.26 5.82,0.78 1.81,0.53 3.54,1.32 5.16,2.39l-3.75 6.45c-1.37,-0.87 -2.65,-1.5 -3.86,-1.91 -1.2,-0.4 -2.45,-0.6 -3.73,-0.6 -1.5,0 -2.69,0.28 -3.58,0.84 -0.89,0.57 -1.35,1.3 -1.35,2.19 0,0.98 0.41,1.71 1.22,2.17 0.83,0.47 2.39,0.94 4.69,1.42 3.93,0.8 6.77,2.06 8.49,3.75 1.73,1.69 2.6,4 2.6,6.91 0,3.46 -1.31,6.23 -3.92,8.34 -2.61,2.09 -6.07,3.14 -10.36,3.14 -2.35,0 -4.59,-0.3 -6.73,-0.89 -2.12,-0.6 -4.23,-1.54 -6.29,-2.8z"/>
  <path id="14" class="fil7" d="M2483.32 935.72c-1.04,0.45 -2.21,0.8 -3.49,1.02 -1.28,0.24 -2.57,0.35 -3.88,0.35 -3.66,0 -6.41,-0.89 -8.27,-2.67 -1.85,-1.78 -2.79,-4.45 -2.79,-8l0 -16.95 -5.58 -0.03 -0.03 -7.37 5.61 0 0 -7.74 9.95 -2.82 -0.03 10.56 7.82 0 0 7.4 -7.79 -0.03 -0.03 16.37c0,1.39 0.26,2.4 0.81,3.03 0.55,0.63 1.39,0.93 2.55,0.91 0.59,0.02 1.15,-0.04 1.68,-0.21 0.53,-0.17 1.02,-0.35 1.48,-0.57l1.99 6.75z"/>
  <path id="15" class="fil7" d="M2519.42 921.96l-22.53 0c0.17,2.65 1.04,4.63 2.57,5.93 1.55,1.31 3.69,1.96 6.43,1.96 0.97,0 2.32,-0.29 4.05,-0.87 1.71,-0.57 3.39,-1.47 5.05,-2.68l4.36 5.77c-2.3,1.73 -4.66,3.01 -7.09,3.82 -2.42,0.8 -5.07,1.2 -7.97,1.2 -5.47,0 -9.72,-1.53 -12.75,-4.6 -3.02,-3.06 -4.54,-7.33 -4.57,-12.81 0,-5.48 1.61,-9.93 4.81,-13.34 3.21,-3.41 7.27,-5.12 12.19,-5.12 4.71,0 8.47,1.44 11.26,4.32 2.8,2.89 4.19,7.02 4.19,12.41l0 4.01zm-9.29 -6.23c0,-2.72 -0.53,-4.68 -1.59,-5.89 -1.05,-1.2 -2.6,-1.8 -4.64,-1.8 -1.8,0 -3.36,0.69 -4.66,2.07 -1.3,1.38 -2.1,3.25 -2.38,5.62l13.27 0z"/>
  <path id="16" class="fil7" d="M2547.36 910.39c-0.44,-0.12 -0.87,-0.19 -1.31,-0.25 -0.45,-0.06 -0.96,-0.08 -1.52,-0.08 -2.73,0 -4.77,0.86 -6.15,2.58 -1.38,1.74 -2.07,4.13 -2.07,7.19l0 16.44 -9.98 0 0 -34.2 9.98 0 0 6.39 0.13 0c0.82,-2.33 1.99,-4.07 3.51,-5.25 1.51,-1.17 3.35,-1.76 5.53,-1.76 0.51,0 1.01,0.04 1.49,0.11 0.48,0.08 0.99,0.17 1.54,0.28l-1.15 8.55z"/>
  <path id="17" class="fil7" d="M2550.95 933.4l4.11 -6.67c1.15,0.88 2.52,1.64 4.1,2.25 1.57,0.63 3.31,0.94 5.23,0.94 1.46,0 2.65,-0.27 3.57,-0.8 0.93,-0.54 1.38,-1.35 1.38,-2.43 0,-0.89 -0.35,-1.59 -1.08,-2.1 -0.71,-0.51 -2.03,-0.98 -3.97,-1.39 -4.24,-0.92 -7.28,-2.18 -9.13,-3.82 -1.85,-1.63 -2.77,-3.92 -2.77,-6.88 0,-3.43 1.36,-6.17 4.08,-8.22 2.73,-2.04 6.09,-3.06 10.07,-3.06 2.07,0 4,0.26 5.82,0.78 1.81,0.53 3.54,1.32 5.16,2.39l-3.75 6.45c-1.37,-0.87 -2.65,-1.5 -3.86,-1.91 -1.2,-0.4 -2.45,-0.6 -3.73,-0.6 -1.5,0 -2.69,0.28 -3.58,0.84 -0.89,0.57 -1.35,1.3 -1.35,2.19 0,0.98 0.41,1.71 1.22,2.17 0.83,0.47 2.39,0.94 4.69,1.42 3.93,0.8 6.77,2.06 8.49,3.75 1.73,1.69 2.6,4 2.6,6.91 0,3.46 -1.31,6.23 -3.92,8.34 -2.61,2.09 -6.07,3.14 -10.36,3.14 -2.35,0 -4.59,-0.3 -6.73,-0.89 -2.12,-0.6 -4.23,-1.54 -6.29,-2.8z"/>
  <path class="fil5" d="M2182.88 257.42l0 -40.92 14.28 0c7.28,0 12.72,1.66 16.36,4.98 3.63,3.32 5.45,8.31 5.45,14.97 0,6.37 -1.99,11.45 -5.97,15.26 -3.97,3.81 -9.26,5.71 -15.86,5.71l-14.26 0zm8.93 -33.61l0 26.33 4.67 0c4.09,0 7.3,-1.21 9.62,-3.64 2.32,-2.42 3.48,-5.73 3.48,-9.94 0,-4 -1.15,-7.12 -3.44,-9.37 -2.29,-2.25 -5.53,-3.38 -9.72,-3.38l-4.61 0z"/>
  <path id="1" class="fil5" d="M2250.1 257.42l-8.27 0 0 -4.33 -0.12 0c-1.01,1.67 -2.26,2.93 -3.77,3.78 -1.5,0.84 -3.2,1.26 -5.1,1.26 -2.67,0 -4.91,-0.79 -6.74,-2.38 -1.82,-1.58 -2.74,-3.8 -2.74,-6.64 0,-2.77 0.91,-5.02 2.73,-6.76 1.81,-1.73 4.63,-2.85 8.43,-3.37l7.37 -0.99 0 -0.58c0,-1.53 -0.48,-2.69 -1.43,-3.47 -0.96,-0.78 -2.26,-1.17 -3.94,-1.17 -1.28,0 -2.65,0.21 -4.13,0.64 -1.47,0.43 -2.95,1.1 -4.43,2.04l-3.12 -5.16c1.97,-1.22 3.95,-2.12 5.95,-2.69 2.01,-0.57 4.19,-0.85 6.53,-0.85 4.35,0 7.58,1.04 9.65,3.14 2.09,2.09 3.13,5.25 3.13,9.47l0 18.06zm-8.21 -12.15l0 -2.15 -5.68 0.71c-1.61,0.24 -2.8,0.71 -3.58,1.42 -0.77,0.72 -1.16,1.67 -1.16,2.87 0,1.1 0.38,2.01 1.14,2.71 0.76,0.71 1.79,1.06 3.08,1.06 1.82,0 3.32,-0.64 4.46,-1.89 1.15,-1.26 1.74,-2.84 1.74,-4.73z"/>
  <path id="2" class="fil5" d="M2276.24 256.93c-0.92,0.4 -1.94,0.7 -3.06,0.9 -1.12,0.2 -2.25,0.3 -3.39,0.3 -3.2,0 -5.61,-0.78 -7.23,-2.34 -1.63,-1.55 -2.45,-3.88 -2.45,-6.99l0 -14.83 -4.88 -0.03 -0.03 -6.45 4.91 0 0 -6.77 8.71 -2.47 -0.03 9.24 6.84 0 0 6.48 -6.81 -0.03 -0.03 14.32c0,1.22 0.23,2.1 0.71,2.65 0.48,0.56 1.22,0.82 2.23,0.8 0.52,0.02 1,-0.04 1.47,-0.18 0.47,-0.15 0.9,-0.31 1.3,-0.5l1.74 5.9z"/>
  <path id="3" class="fil5" d="M2305.99 257.42l-8.26 0 0 -4.33 -0.12 0c-1.01,1.67 -2.26,2.93 -3.77,3.78 -1.5,0.84 -3.21,1.26 -5.1,1.26 -2.67,0 -4.91,-0.79 -6.74,-2.38 -1.83,-1.58 -2.74,-3.8 -2.74,-6.64 0,-2.77 0.9,-5.02 2.73,-6.76 1.81,-1.73 4.62,-2.85 8.43,-3.37l7.36 -0.99 0 -0.58c0,-1.53 -0.47,-2.69 -1.43,-3.47 -0.95,-0.78 -2.26,-1.17 -3.93,-1.17 -1.28,0 -2.65,0.21 -4.13,0.64 -1.47,0.43 -2.95,1.1 -4.43,2.04l-3.12 -5.16c1.97,-1.22 3.94,-2.12 5.95,-2.69 2.01,-0.57 4.19,-0.85 6.53,-0.85 4.35,0 7.57,1.04 9.65,3.14 2.08,2.09 3.12,5.25 3.12,9.47l0 18.06zm-8.21 -12.15l0 -2.15 -5.67 0.71c-1.61,0.24 -2.8,0.71 -3.58,1.42 -0.78,0.72 -1.17,1.67 -1.17,2.87 0,1.1 0.38,2.01 1.14,2.71 0.76,0.71 1.79,1.06 3.09,1.06 1.82,0 3.31,-0.64 4.46,-1.89 1.15,-1.26 1.73,-2.84 1.73,-4.73z"/>
  <path id="4" class="fil5" d="M2377.1 257.42l-8.82 0 0 -24.68c0,-1.29 0.03,-2.67 0.09,-4.13 0.05,-1.45 0.14,-2.98 0.25,-4.58l-0.22 0c-0.25,1.24 -0.47,2.3 -0.68,3.19 -0.19,0.88 -0.39,1.59 -0.58,2.12l-9.9 28.08 -7.16 0 -10.05 -27.8c-0.13,-0.38 -0.31,-1.03 -0.52,-1.96 -0.23,-0.93 -0.48,-2.14 -0.76,-3.63l-0.25 0c0.12,1.93 0.22,3.76 0.28,5.52 0.06,1.74 0.09,3.38 0.09,4.93l0 22.94 -8.08 0 0 -40.92 13.04 0 8.64 24.54c0.34,0.91 0.63,1.81 0.86,2.7 0.23,0.88 0.43,1.77 0.6,2.66l0.17 0c0.29,-1.02 0.56,-1.99 0.83,-2.91 0.27,-0.9 0.54,-1.74 0.82,-2.51l8.68 -24.48 12.67 0 0 40.92z"/>
  <path id="5" class="fil5" d="M2412.82 244.89l-19.71 0c0.14,2.32 0.9,4.06 2.24,5.2 1.36,1.14 3.23,1.71 5.62,1.71 0.86,0 2.04,-0.25 3.55,-0.76 1.5,-0.51 2.97,-1.28 4.42,-2.35l3.82 5.05c-2.02,1.52 -4.08,2.64 -6.21,3.34 -2.12,0.7 -4.44,1.05 -6.97,1.05 -4.79,0 -8.51,-1.33 -11.16,-4.02 -2.64,-2.68 -3.97,-6.42 -3.99,-11.21 0,-4.79 1.4,-8.69 4.2,-11.67 2.81,-2.99 6.36,-4.48 10.67,-4.48 4.12,0 7.41,1.26 9.86,3.78 2.44,2.52 3.66,6.14 3.66,10.86l0 3.5zm-8.13 -5.45c0,-2.38 -0.46,-4.09 -1.39,-5.15 -0.92,-1.05 -2.28,-1.58 -4.06,-1.58 -1.58,0 -2.94,0.6 -4.08,1.81 -1.14,1.21 -1.84,2.85 -2.08,4.92l11.61 0z"/>
  <path id="6" class="fil5" d="M2465.83 257.42l-8.7 0 0 -17.09c0,-2.32 -0.42,-4.04 -1.24,-5.16 -0.83,-1.13 -2.09,-1.69 -3.78,-1.69 -1.58,0 -2.88,0.68 -3.89,2.06 -1,1.37 -1.51,3.06 -1.51,5.1l0 16.78 -8.73 0 0 -17.32c0,-2.23 -0.41,-3.88 -1.24,-4.98 -0.83,-1.09 -2.06,-1.64 -3.69,-1.64 -1.66,0 -2.98,0.65 -3.97,1.96 -0.99,1.29 -1.49,3.07 -1.49,5.29l0 16.69 -8.73 0 0 -29.93 8.73 0 0 4.68 0.12 0c0.97,-1.64 2.31,-2.96 4.01,-3.94 1.7,-0.99 3.58,-1.48 5.63,-1.48 2.11,0 3.9,0.47 5.34,1.42 1.45,0.96 2.55,2.36 3.31,4.23 1.14,-1.89 2.55,-3.3 4.23,-4.24 1.66,-0.94 3.61,-1.41 5.81,-1.41 3.27,0 5.73,1 7.35,3.02 1.63,2.02 2.44,5.03 2.44,9.05l0 18.6z"/>
  <path id="7" class="fil5" d="M2487.77 258.13c-4.93,0 -8.8,-1.39 -11.64,-4.19 -2.83,-2.8 -4.25,-6.58 -4.25,-11.35 0.02,-4.97 1.49,-8.86 4.42,-11.65 2.93,-2.8 6.89,-4.19 11.9,-4.19 4.93,0 8.79,1.39 11.57,4.18 2.79,2.78 4.18,6.5 4.18,11.14 0,4.95 -1.44,8.85 -4.33,11.74 -2.9,2.88 -6.84,4.32 -11.85,4.32zm0.31 -6.7c2.33,0 4.08,-0.77 5.24,-2.32 1.17,-1.54 1.76,-3.82 1.76,-6.87 0,-2.89 -0.6,-5.08 -1.77,-6.55 -1.18,-1.47 -2.94,-2.21 -5.28,-2.21 -2.3,0 -4.09,0.79 -5.36,2.37 -1.28,1.58 -1.92,3.79 -1.92,6.62 0,2.97 0.62,5.2 1.86,6.7 1.24,1.51 3.06,2.26 5.47,2.26z"/>
  <path id="8" class="fil5" d="M2528.88 234.77c-0.38,-0.1 -0.76,-0.17 -1.15,-0.22 -0.38,-0.05 -0.83,-0.07 -1.32,-0.07 -2.39,0 -4.18,0.75 -5.39,2.26 -1.2,1.52 -1.81,3.62 -1.81,6.29l0 14.39 -8.72 0 0 -29.93 8.72 0 0 5.59 0.12 0c0.72,-2.03 1.74,-3.56 3.07,-4.6 1.32,-1.02 2.93,-1.53 4.84,-1.53 0.45,0 0.88,0.03 1.3,0.09 0.42,0.07 0.87,0.15 1.35,0.25l-1.01 7.48z"/>
  <path id="9" class="fil5" d="M2564.95 227.49l-13.43 35.41c-1.03,2.72 -2.56,4.82 -4.59,6.31 -2.02,1.48 -4.45,2.22 -7.28,2.22 -0.9,0 -1.78,-0.05 -2.64,-0.16 -0.87,-0.1 -1.7,-0.25 -2.5,-0.47l1.51 -6.47c0.46,0.17 0.91,0.29 1.36,0.37 0.44,0.07 0.93,0.11 1.47,0.11 0.94,0 1.79,-0.24 2.52,-0.71 0.73,-0.48 1.32,-1.24 1.78,-2.29l1.89 -4.45 -12.1 -29.87 9.65 0 5.87 18.77c0.18,0.51 0.32,1.09 0.46,1.71 0.13,0.64 0.24,1.33 0.34,2.09l0.12 0c0.09,-0.55 0.21,-1.13 0.37,-1.75 0.15,-0.6 0.34,-1.26 0.57,-1.99l5.96 -18.83 8.67 0z"/>
  <path class="fil5" d="M2786.26 444.15c-5.56,0 -9.65,-1.96 -12.25,-5.89 -2.62,-3.92 -3.92,-9.77 -3.92,-17.55 0,-8.12 1.41,-14.29 4.24,-18.55 2.83,-4.25 6.83,-6.36 12.03,-6.36 5.87,0 10.03,1.98 12.49,5.94 2.46,3.98 3.69,9.93 3.69,17.89 0,7.91 -1.36,13.98 -4.07,18.2 -2.7,4.22 -6.78,6.32 -12.21,6.32zm0.04 -40.73c-2.17,0 -3.73,1.43 -4.67,4.25 -0.93,2.84 -1.4,7.11 -1.4,12.77 0,5.35 0.49,9.36 1.46,12.03 0.95,2.69 2.51,4.02 4.64,4.02 2.3,0 3.88,-1.38 4.74,-4.13 0.86,-2.75 1.29,-6.88 1.29,-12.41 0,-5.5 -0.44,-9.63 -1.32,-12.39 -0.88,-2.76 -2.46,-4.14 -4.74,-4.14z"/>
  <path id="1" class="fil5" d="M2842.74 409.13l-11.31 16.66 11.21 17.55 -11.48 0 -5.15 -9.43c-0.19,-0.39 -0.41,-0.84 -0.67,-1.34 -0.24,-0.5 -0.51,-1.07 -0.79,-1.72l-0.13 0c-0.16,0.43 -0.35,0.89 -0.57,1.38 -0.23,0.49 -0.5,1.02 -0.8,1.59l-5.22 9.52 -11.44 0 11.57 -17.02 -10.89 -17.19 11.54 0 5.08 9.82c0.34,0.62 0.62,1.2 0.84,1.7 0.23,0.51 0.41,1 0.53,1.46l0.14 0c0.2,-0.52 0.42,-1.05 0.67,-1.58 0.25,-0.53 0.52,-1.08 0.8,-1.65l5.22 -9.75 10.85 0z"/>
  <path id="2" class="fil5" d="M2862.8 444.15c-5.57,0 -9.65,-1.96 -12.26,-5.89 -2.62,-3.92 -3.92,-9.77 -3.92,-17.55 0,-8.12 1.42,-14.29 4.24,-18.55 2.83,-4.25 6.84,-6.36 12.04,-6.36 5.86,0 10.03,1.98 12.48,5.94 2.46,3.98 3.69,9.93 3.69,17.89 0,7.91 -1.36,13.98 -4.06,18.2 -2.71,4.22 -6.78,6.32 -12.21,6.32zm0.03 -40.73c-2.17,0 -3.73,1.43 -4.66,4.25 -0.94,2.84 -1.41,7.11 -1.41,12.77 0,5.35 0.49,9.36 1.46,12.03 0.96,2.69 2.52,4.02 4.64,4.02 2.31,0 3.89,-1.38 4.74,-4.13 0.86,-2.75 1.3,-6.88 1.3,-12.41 0,-5.5 -0.45,-9.63 -1.33,-12.39 -0.88,-2.76 -2.46,-4.14 -4.74,-4.14z"/>
  <path id="3" class="fil5" d="M2901.7 444.15c-5.57,0 -9.65,-1.96 -12.26,-5.89 -2.61,-3.92 -3.92,-9.77 -3.92,-17.55 0,-8.12 1.42,-14.29 4.24,-18.55 2.83,-4.25 6.84,-6.36 12.04,-6.36 5.86,0 10.03,1.98 12.49,5.94 2.46,3.98 3.68,9.93 3.68,17.89 0,7.91 -1.36,13.98 -4.06,18.2 -2.71,4.22 -6.78,6.32 -12.21,6.32zm0.03 -40.73c-2.17,0 -3.73,1.43 -4.66,4.25 -0.94,2.84 -1.41,7.11 -1.41,12.77 0,5.35 0.49,9.36 1.46,12.03 0.96,2.69 2.52,4.02 4.64,4.02 2.31,0 3.89,-1.38 4.75,-4.13 0.85,-2.75 1.29,-6.88 1.29,-12.41 0,-5.5 -0.45,-9.63 -1.33,-12.39 -0.88,-2.76 -2.46,-4.14 -4.74,-4.14z"/>
  <path id="4" class="fil5" d="M2940.6 444.15c-5.57,0 -9.65,-1.96 -12.26,-5.89 -2.61,-3.92 -3.91,-9.77 -3.91,-17.55 0,-8.12 1.41,-14.29 4.24,-18.55 2.82,-4.25 6.83,-6.36 12.03,-6.36 5.86,0 10.03,1.98 12.49,5.94 2.46,3.98 3.68,9.93 3.68,17.89 0,7.91 -1.36,13.98 -4.06,18.2 -2.71,4.22 -6.78,6.32 -12.21,6.32zm0.03 -40.73c-2.17,0 -3.73,1.43 -4.66,4.25 -0.94,2.84 -1.4,7.11 -1.4,12.77 0,5.35 0.49,9.36 1.45,12.03 0.96,2.69 2.52,4.02 4.64,4.02 2.31,0 3.89,-1.38 4.75,-4.13 0.85,-2.75 1.29,-6.88 1.29,-12.41 0,-5.5 -0.45,-9.63 -1.33,-12.39 -0.88,-2.76 -2.46,-4.14 -4.74,-4.14z"/>
  <path id="5" class="fil5" d="M2979.5 444.15c-5.57,0 -9.65,-1.96 -12.25,-5.89 -2.62,-3.92 -3.92,-9.77 -3.92,-17.55 0,-8.12 1.41,-14.29 4.24,-18.55 2.83,-4.25 6.83,-6.36 12.03,-6.36 5.87,0 10.03,1.98 12.49,5.94 2.46,3.98 3.68,9.93 3.68,17.89 0,7.91 -1.36,13.98 -4.06,18.2 -2.71,4.22 -6.78,6.32 -12.21,6.32zm0.03 -40.73c-2.17,0 -3.72,1.43 -4.66,4.25 -0.94,2.84 -1.4,7.11 -1.4,12.77 0,5.35 0.49,9.36 1.46,12.03 0.95,2.69 2.51,4.02 4.64,4.02 2.3,0 3.88,-1.38 4.74,-4.13 0.86,-2.75 1.29,-6.88 1.29,-12.41 0,-5.5 -0.45,-9.63 -1.32,-12.39 -0.88,-2.76 -2.46,-4.14 -4.75,-4.14z"/>
  <polygon id="6" class="fil5" points="3022.41,428.75 3022.38,421.75 3040.25,421.75 3040.22,428.75 "/>
  <path id="7" class="fil5" d="M3082.86 444.15c-5.57,0 -9.65,-1.96 -12.26,-5.89 -2.61,-3.92 -3.91,-9.77 -3.91,-17.55 0,-8.12 1.41,-14.29 4.24,-18.55 2.82,-4.25 6.83,-6.36 12.03,-6.36 5.86,0 10.03,1.98 12.49,5.94 2.46,3.98 3.68,9.93 3.68,17.89 0,7.91 -1.36,13.98 -4.06,18.2 -2.71,4.22 -6.78,6.32 -12.21,6.32zm0.03 -40.73c-2.17,0 -3.73,1.43 -4.66,4.25 -0.94,2.84 -1.4,7.11 -1.4,12.77 0,5.35 0.48,9.36 1.45,12.03 0.96,2.69 2.52,4.02 4.64,4.02 2.31,0 3.89,-1.38 4.75,-4.13 0.85,-2.75 1.29,-6.88 1.29,-12.41 0,-5.5 -0.45,-9.63 -1.33,-12.39 -0.88,-2.76 -2.46,-4.14 -4.74,-4.14z"/>
  <path id="8" class="fil5" d="M3139.33 409.13l-11.3 16.66 11.2 17.55 -11.47 0 -5.15 -9.43c-0.19,-0.39 -0.42,-0.84 -0.67,-1.34 -0.25,-0.5 -0.51,-1.07 -0.79,-1.72l-0.14 0c-0.15,0.43 -0.34,0.89 -0.56,1.38 -0.24,0.49 -0.5,1.02 -0.8,1.59l-5.22 9.52 -11.45 0 11.58 -17.02 -10.9 -17.19 11.54 0 5.09 9.82c0.33,0.62 0.61,1.2 0.84,1.7 0.23,0.51 0.41,1 0.53,1.46l0.13 0c0.2,-0.52 0.43,-1.05 0.67,-1.58 0.26,-0.53 0.52,-1.08 0.8,-1.65l5.22 -9.75 10.85 0z"/>
  <path id="9" class="fil5" d="M3159.39 444.15c-5.56,0 -9.65,-1.96 -12.25,-5.89 -2.62,-3.92 -3.92,-9.77 -3.92,-17.55 0,-8.12 1.41,-14.29 4.24,-18.55 2.83,-4.25 6.83,-6.36 12.03,-6.36 5.87,0 10.03,1.98 12.49,5.94 2.46,3.98 3.68,9.93 3.68,17.89 0,7.91 -1.35,13.98 -4.06,18.2 -2.7,4.22 -6.78,6.32 -12.21,6.32zm0.04 -40.73c-2.18,0 -3.73,1.43 -4.67,4.25 -0.93,2.84 -1.4,7.11 -1.4,12.77 0,5.35 0.49,9.36 1.46,12.03 0.95,2.69 2.51,4.02 4.64,4.02 2.3,0 3.88,-1.38 4.74,-4.13 0.86,-2.75 1.29,-6.88 1.29,-12.41 0,-5.5 -0.44,-9.63 -1.32,-12.39 -0.88,-2.76 -2.46,-4.14 -4.74,-4.14z"/>
  <path id="10" class="fil5" d="M3198.29 444.15c-5.56,0 -9.65,-1.96 -12.25,-5.89 -2.62,-3.92 -3.92,-9.77 -3.92,-17.55 0,-8.12 1.41,-14.29 4.24,-18.55 2.83,-4.25 6.83,-6.36 12.03,-6.36 5.87,0 10.03,1.98 12.49,5.94 2.46,3.98 3.69,9.93 3.69,17.89 0,7.91 -1.36,13.98 -4.07,18.2 -2.7,4.22 -6.77,6.32 -12.21,6.32zm0.04 -40.73c-2.17,0 -3.73,1.43 -4.67,4.25 -0.93,2.84 -1.4,7.11 -1.4,12.77 0,5.35 0.49,9.36 1.46,12.03 0.96,2.69 2.51,4.02 4.64,4.02 2.3,0 3.89,-1.38 4.74,-4.13 0.86,-2.75 1.29,-6.88 1.29,-12.41 0,-5.5 -0.44,-9.63 -1.32,-12.39 -0.88,-2.76 -2.46,-4.14 -4.74,-4.14z"/>
  <path id="11" class="fil5" d="M3239.9 443.34l-9.94 0 0 -35.97c-1.18,0.81 -2.5,1.5 -3.99,2.09 -1.46,0.59 -3.07,1.15 -4.78,1.69l-2.71 -7.98c2.93,-0.86 5.74,-1.94 8.4,-3.25 2.66,-1.32 5.03,-2.77 7.09,-4.39l5.93 0 0 47.81z"/>
  <polygon id="12" class="fil5" points="3279.88,404.93 3263.25,404.93 3263.25,416.69 3278.54,416.69 3278.54,425.02 3263.25,425.02 3263.25,443.34 3253.04,443.34 3253.01,396.58 3279.88,396.58 "/>
  <path class="fil5" d="M2786.26 645.79c-5.56,0 -9.65,-1.96 -12.25,-5.89 -2.62,-3.91 -3.92,-9.77 -3.92,-17.55 0,-8.11 1.41,-14.29 4.24,-18.54 2.83,-4.25 6.83,-6.37 12.03,-6.37 5.87,0 10.03,1.98 12.49,5.94 2.46,3.98 3.69,9.93 3.69,17.89 0,7.91 -1.36,13.98 -4.07,18.2 -2.7,4.22 -6.78,6.32 -12.21,6.32zm0.04 -40.73c-2.17,0 -3.73,1.43 -4.67,4.26 -0.93,2.84 -1.4,7.1 -1.4,12.76 0,5.36 0.49,9.36 1.46,12.04 0.95,2.68 2.51,4.01 4.64,4.01 2.3,0 3.88,-1.38 4.74,-4.13 0.86,-2.74 1.29,-6.87 1.29,-12.41 0,-5.49 -0.44,-9.62 -1.32,-12.38 -0.88,-2.76 -2.46,-4.15 -4.74,-4.15z"/>
  <path id="1" class="fil5" d="M2842.74 610.78l-11.31 16.66 11.21 17.54 -11.48 0 -5.15 -9.43c-0.19,-0.39 -0.41,-0.83 -0.67,-1.33 -0.24,-0.5 -0.51,-1.07 -0.79,-1.73l-0.13 0c-0.16,0.43 -0.35,0.89 -0.57,1.38 -0.23,0.49 -0.5,1.02 -0.8,1.59l-5.22 9.52 -11.44 0 11.57 -17.02 -10.89 -17.18 11.54 0 5.08 9.81c0.34,0.63 0.62,1.21 0.84,1.71 0.23,0.51 0.41,1 0.53,1.45l0.14 0c0.2,-0.52 0.42,-1.04 0.67,-1.58 0.25,-0.53 0.52,-1.08 0.8,-1.64l5.22 -9.75 10.85 0z"/>
  <path id="2" class="fil5" d="M2862.8 645.79c-5.57,0 -9.65,-1.96 -12.26,-5.89 -2.62,-3.91 -3.92,-9.77 -3.92,-17.55 0,-8.11 1.42,-14.29 4.24,-18.54 2.83,-4.25 6.84,-6.37 12.04,-6.37 5.86,0 10.03,1.98 12.48,5.94 2.46,3.98 3.69,9.93 3.69,17.89 0,7.91 -1.36,13.98 -4.06,18.2 -2.71,4.22 -6.78,6.32 -12.21,6.32zm0.03 -40.73c-2.17,0 -3.73,1.43 -4.66,4.26 -0.94,2.84 -1.41,7.1 -1.41,12.76 0,5.36 0.49,9.36 1.46,12.04 0.96,2.68 2.52,4.01 4.64,4.01 2.31,0 3.89,-1.38 4.74,-4.13 0.86,-2.74 1.3,-6.87 1.3,-12.41 0,-5.49 -0.45,-9.62 -1.33,-12.38 -0.88,-2.76 -2.46,-4.15 -4.74,-4.15z"/>
  <path id="3" class="fil5" d="M2901.7 645.79c-5.57,0 -9.65,-1.96 -12.26,-5.89 -2.61,-3.91 -3.92,-9.77 -3.92,-17.55 0,-8.11 1.42,-14.29 4.24,-18.54 2.83,-4.25 6.84,-6.37 12.04,-6.37 5.86,0 10.03,1.98 12.49,5.94 2.46,3.98 3.68,9.93 3.68,17.89 0,7.91 -1.36,13.98 -4.06,18.2 -2.71,4.22 -6.78,6.32 -12.21,6.32zm0.03 -40.73c-2.17,0 -3.73,1.43 -4.66,4.26 -0.94,2.84 -1.41,7.1 -1.41,12.76 0,5.36 0.49,9.36 1.46,12.04 0.96,2.68 2.52,4.01 4.64,4.01 2.31,0 3.89,-1.38 4.75,-4.13 0.85,-2.74 1.29,-6.87 1.29,-12.41 0,-5.49 -0.45,-9.62 -1.33,-12.38 -0.88,-2.76 -2.46,-4.15 -4.74,-4.15z"/>
  <path id="4" class="fil5" d="M2925.51 644.98l0 -3.46c0,-2.34 0.38,-4.46 1.16,-6.34 0.79,-1.88 1.77,-3.58 2.98,-5.1 1.19,-1.48 2.52,-2.81 3.99,-4 1.47,-1.18 2.88,-2.26 4.25,-3.24 1.4,-0.98 2.6,-1.91 3.61,-2.8 1.01,-0.89 1.89,-1.76 2.66,-2.62 0.8,-0.87 1.38,-1.79 1.74,-2.77 0.35,-0.98 0.54,-2.12 0.54,-3.42 0,-1.66 -0.52,-3.04 -1.57,-4.16 -1.04,-1.11 -2.57,-1.68 -4.56,-1.68 -1.37,0 -3.01,0.37 -4.91,1.08 -1.9,0.71 -3.76,1.81 -5.56,3.29l-5.06 -6.13c2.57,-2.13 5.22,-3.7 7.96,-4.7 2.74,-1 5.78,-1.49 9.09,-1.49 4.49,0 8.04,1.21 10.66,3.65 2.61,2.43 3.92,5.38 3.92,8.84 0,2.67 -0.32,4.83 -0.98,6.49 -0.64,1.65 -1.52,3.15 -2.6,4.5 -1.09,1.36 -2.35,2.62 -3.77,3.76 -1.43,1.14 -2.91,2.26 -4.44,3.35 -1.14,0.78 -2.2,1.54 -3.19,2.31 -0.99,0.76 -1.87,1.48 -2.62,2.18 -0.74,0.74 -1.33,1.46 -1.76,2.15 -0.44,0.7 -0.66,1.37 -0.66,2.03l20.06 0 0 8.28 -30.94 0z"/>
  <path id="5" class="fil5" d="M2979.5 645.79c-5.57,0 -9.65,-1.96 -12.25,-5.89 -2.62,-3.91 -3.92,-9.77 -3.92,-17.55 0,-8.11 1.41,-14.29 4.24,-18.54 2.83,-4.25 6.83,-6.37 12.03,-6.37 5.87,0 10.03,1.98 12.49,5.94 2.46,3.98 3.68,9.93 3.68,17.89 0,7.91 -1.36,13.98 -4.06,18.2 -2.71,4.22 -6.78,6.32 -12.21,6.32zm0.03 -40.73c-2.17,0 -3.72,1.43 -4.66,4.26 -0.94,2.84 -1.4,7.1 -1.4,12.76 0,5.36 0.49,9.36 1.46,12.04 0.95,2.68 2.51,4.01 4.64,4.01 2.3,0 3.88,-1.38 4.74,-4.13 0.86,-2.74 1.29,-6.87 1.29,-12.41 0,-5.49 -0.45,-9.62 -1.32,-12.38 -0.88,-2.76 -2.46,-4.15 -4.75,-4.15z"/>
  <polygon id="6" class="fil5" points="3022.41,630.4 3022.38,623.4 3040.25,623.4 3040.22,630.4 "/>
  <path id="7" class="fil5" d="M3082.86 645.79c-5.57,0 -9.65,-1.96 -12.26,-5.89 -2.61,-3.91 -3.91,-9.77 -3.91,-17.55 0,-8.11 1.41,-14.29 4.24,-18.54 2.82,-4.25 6.83,-6.37 12.03,-6.37 5.86,0 10.03,1.98 12.49,5.94 2.46,3.98 3.68,9.93 3.68,17.89 0,7.91 -1.36,13.98 -4.06,18.2 -2.71,4.22 -6.78,6.32 -12.21,6.32zm0.03 -40.73c-2.17,0 -3.73,1.43 -4.66,4.26 -0.94,2.84 -1.4,7.1 -1.4,12.76 0,5.36 0.48,9.36 1.45,12.04 0.96,2.68 2.52,4.01 4.64,4.01 2.31,0 3.89,-1.38 4.75,-4.13 0.85,-2.74 1.29,-6.87 1.29,-12.41 0,-5.49 -0.45,-9.62 -1.33,-12.38 -0.88,-2.76 -2.46,-4.15 -4.74,-4.15z"/>
  <path id="8" class="fil5" d="M3139.33 610.78l-11.3 16.66 11.2 17.54 -11.47 0 -5.15 -9.43c-0.19,-0.39 -0.42,-0.83 -0.67,-1.33 -0.25,-0.5 -0.51,-1.07 -0.79,-1.73l-0.14 0c-0.15,0.43 -0.34,0.89 -0.56,1.38 -0.24,0.49 -0.5,1.02 -0.8,1.59l-5.22 9.52 -11.45 0 11.58 -17.02 -10.9 -17.18 11.54 0 5.09 9.81c0.33,0.63 0.61,1.21 0.84,1.71 0.23,0.51 0.41,1 0.53,1.45l0.13 0c0.2,-0.52 0.43,-1.04 0.67,-1.58 0.26,-0.53 0.52,-1.08 0.8,-1.64l5.22 -9.75 10.85 0z"/>
  <path id="9" class="fil5" d="M3159.39 645.79c-5.56,0 -9.65,-1.96 -12.25,-5.89 -2.62,-3.91 -3.92,-9.77 -3.92,-17.55 0,-8.11 1.41,-14.29 4.24,-18.54 2.83,-4.25 6.83,-6.37 12.03,-6.37 5.87,0 10.03,1.98 12.49,5.94 2.46,3.98 3.68,9.93 3.68,17.89 0,7.91 -1.35,13.98 -4.06,18.2 -2.7,4.22 -6.78,6.32 -12.21,6.32zm0.04 -40.73c-2.18,0 -3.73,1.43 -4.67,4.26 -0.93,2.84 -1.4,7.1 -1.4,12.76 0,5.36 0.49,9.36 1.46,12.04 0.95,2.68 2.51,4.01 4.64,4.01 2.3,0 3.88,-1.38 4.74,-4.13 0.86,-2.74 1.29,-6.87 1.29,-12.41 0,-5.49 -0.44,-9.62 -1.32,-12.38 -0.88,-2.76 -2.46,-4.15 -4.74,-4.15z"/>
  <path id="10" class="fil5" d="M3198.29 645.79c-5.56,0 -9.65,-1.96 -12.25,-5.89 -2.62,-3.91 -3.92,-9.77 -3.92,-17.55 0,-8.11 1.41,-14.29 4.24,-18.54 2.83,-4.25 6.83,-6.37 12.03,-6.37 5.87,0 10.03,1.98 12.49,5.94 2.46,3.98 3.69,9.93 3.69,17.89 0,7.91 -1.36,13.98 -4.07,18.2 -2.7,4.22 -6.77,6.32 -12.21,6.32zm0.04 -40.73c-2.17,0 -3.73,1.43 -4.67,4.26 -0.93,2.84 -1.4,7.1 -1.4,12.76 0,5.36 0.49,9.36 1.46,12.04 0.96,2.68 2.51,4.01 4.64,4.01 2.3,0 3.89,-1.38 4.74,-4.13 0.86,-2.74 1.29,-6.87 1.29,-12.41 0,-5.49 -0.44,-9.62 -1.32,-12.38 -0.88,-2.76 -2.46,-4.15 -4.74,-4.15z"/>
  <path id="11" class="fil5" d="M3221.34 640.94l4.67 -6.17c1.5,1.16 3.04,2.01 4.6,2.55 1.56,0.54 3.15,0.81 4.73,0.81 2.41,0 4.29,-0.66 5.64,-2 1.35,-1.35 2.04,-3.05 2.06,-5.14 0,-2.54 -0.86,-4.41 -2.55,-5.61 -1.69,-1.19 -4.2,-1.79 -7.5,-1.79 -1.22,0 -2.52,0.05 -3.91,0.14 -1.39,0.1 -2.86,0.24 -4.41,0.41l1.73 -25.92 24.59 0 -0.04 8.15 -16.88 0.03 -0.66 9.65c0.84,-0.05 1.6,-0.11 2.32,-0.14 0.72,-0.04 1.39,-0.05 2.02,-0.05 4.79,0 8.54,1.26 11.27,3.79 2.72,2.51 4.09,6.01 4.09,10.46 0.02,4.49 -1.51,8.24 -4.6,11.22 -3.09,2.97 -7.33,4.46 -12.75,4.46 -2.78,0 -5.34,-0.4 -7.68,-1.2 -2.34,-0.8 -4.58,-2.03 -6.74,-3.65z"/>
  <polygon id="12" class="fil5" points="3289.24,606.57 3272.61,606.57 3272.61,618.33 3287.9,618.33 3287.9,626.66 3272.61,626.66 3272.61,644.98 3262.41,644.98 3262.37,598.22 3289.24,598.22 "/>
  <path class="fil5" d="M2786.26 905.57c-5.56,0 -9.65,-1.96 -12.25,-5.89 -2.62,-3.92 -3.92,-9.77 -3.92,-17.55 0,-8.12 1.41,-14.29 4.24,-18.55 2.83,-4.25 6.83,-6.36 12.03,-6.36 5.87,0 10.03,1.98 12.49,5.94 2.46,3.98 3.69,9.93 3.69,17.89 0,7.91 -1.36,13.98 -4.07,18.2 -2.7,4.22 -6.78,6.32 -12.21,6.32zm0.04 -40.73c-2.17,0 -3.73,1.43 -4.67,4.25 -0.93,2.84 -1.4,7.11 -1.4,12.77 0,5.35 0.49,9.36 1.46,12.03 0.95,2.69 2.51,4.02 4.64,4.02 2.3,0 3.88,-1.38 4.74,-4.13 0.86,-2.75 1.29,-6.88 1.29,-12.41 0,-5.5 -0.44,-9.63 -1.32,-12.39 -0.88,-2.76 -2.46,-4.14 -4.74,-4.14z"/>
  <path id="1" class="fil5" d="M2842.74 870.55l-11.31 16.66 11.21 17.55 -11.48 0 -5.15 -9.43c-0.19,-0.39 -0.41,-0.84 -0.67,-1.34 -0.24,-0.5 -0.51,-1.07 -0.79,-1.72l-0.13 0c-0.16,0.43 -0.35,0.89 -0.57,1.38 -0.23,0.49 -0.5,1.02 -0.8,1.59l-5.22 9.52 -11.44 0 11.57 -17.02 -10.89 -17.19 11.54 0 5.08 9.82c0.34,0.62 0.62,1.2 0.84,1.7 0.23,0.51 0.41,1 0.53,1.46l0.14 0c0.2,-0.52 0.42,-1.05 0.67,-1.58 0.25,-0.53 0.52,-1.08 0.8,-1.65l5.22 -9.75 10.85 0z"/>
  <path id="2" class="fil5" d="M2862.8 905.57c-5.57,0 -9.65,-1.96 -12.26,-5.89 -2.62,-3.92 -3.92,-9.77 -3.92,-17.55 0,-8.12 1.42,-14.29 4.24,-18.55 2.83,-4.25 6.84,-6.36 12.04,-6.36 5.86,0 10.03,1.98 12.48,5.94 2.46,3.98 3.69,9.93 3.69,17.89 0,7.91 -1.36,13.98 -4.06,18.2 -2.71,4.22 -6.78,6.32 -12.21,6.32zm0.03 -40.73c-2.17,0 -3.73,1.43 -4.66,4.25 -0.94,2.84 -1.41,7.11 -1.41,12.77 0,5.35 0.49,9.36 1.46,12.03 0.96,2.69 2.52,4.02 4.64,4.02 2.31,0 3.89,-1.38 4.74,-4.13 0.86,-2.75 1.3,-6.88 1.3,-12.41 0,-5.5 -0.45,-9.63 -1.33,-12.39 -0.88,-2.76 -2.46,-4.14 -4.74,-4.14z"/>
  <path id="3" class="fil5" d="M2901.7 905.57c-5.57,0 -9.65,-1.96 -12.26,-5.89 -2.61,-3.92 -3.92,-9.77 -3.92,-17.55 0,-8.12 1.42,-14.29 4.24,-18.55 2.83,-4.25 6.84,-6.36 12.04,-6.36 5.86,0 10.03,1.98 12.49,5.94 2.46,3.98 3.68,9.93 3.68,17.89 0,7.91 -1.36,13.98 -4.06,18.2 -2.71,4.22 -6.78,6.32 -12.21,6.32zm0.03 -40.73c-2.17,0 -3.73,1.43 -4.66,4.25 -0.94,2.84 -1.41,7.11 -1.41,12.77 0,5.35 0.49,9.36 1.46,12.03 0.96,2.69 2.52,4.02 4.64,4.02 2.31,0 3.89,-1.38 4.75,-4.13 0.85,-2.75 1.29,-6.88 1.29,-12.41 0,-5.5 -0.45,-9.63 -1.33,-12.39 -0.88,-2.76 -2.46,-4.14 -4.74,-4.14z"/>
  <path id="4" class="fil5" d="M2956.51 889.53c0,4.59 -1.46,8.4 -4.4,11.46 -2.93,3.05 -6.67,4.58 -11.21,4.58 -5.08,0 -9.03,-1.88 -11.86,-5.64 -2.83,-3.76 -4.26,-9.12 -4.26,-16.08 0,-3.95 0.44,-7.59 1.29,-10.9 0.86,-3.32 2.2,-6.16 4,-8.53 1.74,-2.33 3.8,-4.11 6.17,-5.34 2.36,-1.25 5.32,-1.86 8.86,-1.86 1.57,0 3.23,0.25 5,0.78 1.77,0.52 3.64,1.54 5.6,3.09l-5.12 5.9c-0.89,-0.73 -1.79,-1.28 -2.68,-1.62 -0.89,-0.35 -1.96,-0.53 -3.23,-0.53 -1.56,0 -2.95,0.33 -4.15,0.98 -1.21,0.66 -2.31,1.62 -3.32,2.91 -0.93,1.21 -1.64,2.69 -2.16,4.43 -0.51,1.73 -0.79,3.65 -0.83,5.74l0.2 0c1.17,-1.37 2.57,-2.4 4.2,-3.1 1.63,-0.69 3.45,-1.04 5.45,-1.04 3.78,0 6.8,1.34 9.06,4.01 2.26,2.67 3.39,6.26 3.39,10.76zm-9.32 0.36c0,-2.59 -0.52,-4.52 -1.58,-5.8 -1.06,-1.3 -2.51,-1.93 -4.35,-1.93 -2.14,0 -3.8,0.71 -4.98,2.15 -1.18,1.43 -1.78,3.25 -1.78,5.44 0,2.28 0.6,4.22 1.78,5.79 1.18,1.58 2.74,2.37 4.64,2.37 1.92,0 3.44,-0.71 4.58,-2.12 1.12,-1.42 1.69,-3.38 1.69,-5.9z"/>
  <path id="5" class="fil5" d="M2979.5 905.57c-5.57,0 -9.65,-1.96 -12.25,-5.89 -2.62,-3.92 -3.92,-9.77 -3.92,-17.55 0,-8.12 1.41,-14.29 4.24,-18.55 2.83,-4.25 6.83,-6.36 12.03,-6.36 5.87,0 10.03,1.98 12.49,5.94 2.46,3.98 3.68,9.93 3.68,17.89 0,7.91 -1.36,13.98 -4.06,18.2 -2.71,4.22 -6.78,6.32 -12.21,6.32zm0.03 -40.73c-2.17,0 -3.72,1.43 -4.66,4.25 -0.94,2.84 -1.4,7.11 -1.4,12.77 0,5.35 0.49,9.36 1.46,12.03 0.95,2.69 2.51,4.02 4.64,4.02 2.3,0 3.88,-1.38 4.74,-4.13 0.86,-2.75 1.29,-6.88 1.29,-12.41 0,-5.5 -0.45,-9.63 -1.32,-12.39 -0.88,-2.76 -2.46,-4.14 -4.75,-4.14z"/>
  <polygon id="6" class="fil5" points="3022.41,890.17 3022.38,883.17 3040.25,883.17 3040.22,890.17 "/>
  <path id="7" class="fil5" d="M3082.86 905.57c-5.57,0 -9.65,-1.96 -12.26,-5.89 -2.61,-3.92 -3.91,-9.77 -3.91,-17.55 0,-8.12 1.41,-14.29 4.24,-18.55 2.82,-4.25 6.83,-6.36 12.03,-6.36 5.86,0 10.03,1.98 12.49,5.94 2.46,3.98 3.68,9.93 3.68,17.89 0,7.91 -1.36,13.98 -4.06,18.2 -2.71,4.22 -6.78,6.32 -12.21,6.32zm0.03 -40.73c-2.17,0 -3.73,1.43 -4.66,4.25 -0.94,2.84 -1.4,7.11 -1.4,12.77 0,5.35 0.48,9.36 1.45,12.03 0.96,2.69 2.52,4.02 4.64,4.02 2.31,0 3.89,-1.38 4.75,-4.13 0.85,-2.75 1.29,-6.88 1.29,-12.41 0,-5.5 -0.45,-9.63 -1.33,-12.39 -0.88,-2.76 -2.46,-4.14 -4.74,-4.14z"/>
  <path id="8" class="fil5" d="M3139.33 870.55l-11.3 16.66 11.2 17.55 -11.47 0 -5.15 -9.43c-0.19,-0.39 -0.42,-0.84 -0.67,-1.34 -0.25,-0.5 -0.51,-1.07 -0.79,-1.72l-0.14 0c-0.15,0.43 -0.34,0.89 -0.56,1.38 -0.24,0.49 -0.5,1.02 -0.8,1.59l-5.22 9.52 -11.45 0 11.58 -17.02 -10.9 -17.19 11.54 0 5.09 9.82c0.33,0.62 0.61,1.2 0.84,1.7 0.23,0.51 0.41,1 0.53,1.46l0.13 0c0.2,-0.52 0.43,-1.05 0.67,-1.58 0.26,-0.53 0.52,-1.08 0.8,-1.65l5.22 -9.75 10.85 0z"/>
  <path id="9" class="fil5" d="M3159.39 905.57c-5.56,0 -9.65,-1.96 -12.25,-5.89 -2.62,-3.92 -3.92,-9.77 -3.92,-17.55 0,-8.12 1.41,-14.29 4.24,-18.55 2.83,-4.25 6.83,-6.36 12.03,-6.36 5.87,0 10.03,1.98 12.49,5.94 2.46,3.98 3.68,9.93 3.68,17.89 0,7.91 -1.35,13.98 -4.06,18.2 -2.7,4.22 -6.78,6.32 -12.21,6.32zm0.04 -40.73c-2.18,0 -3.73,1.43 -4.67,4.25 -0.93,2.84 -1.4,7.11 -1.4,12.77 0,5.35 0.49,9.36 1.46,12.03 0.95,2.69 2.51,4.02 4.64,4.02 2.3,0 3.88,-1.38 4.74,-4.13 0.86,-2.75 1.29,-6.88 1.29,-12.41 0,-5.5 -0.44,-9.63 -1.32,-12.39 -0.88,-2.76 -2.46,-4.14 -4.74,-4.14z"/>
  <path id="10" class="fil5" d="M3198.29 905.57c-5.56,0 -9.65,-1.96 -12.25,-5.89 -2.62,-3.92 -3.92,-9.77 -3.92,-17.55 0,-8.12 1.41,-14.29 4.24,-18.55 2.83,-4.25 6.83,-6.36 12.03,-6.36 5.87,0 10.03,1.98 12.49,5.94 2.46,3.98 3.69,9.93 3.69,17.89 0,7.91 -1.36,13.98 -4.07,18.2 -2.7,4.22 -6.77,6.32 -12.21,6.32zm0.04 -40.73c-2.17,0 -3.73,1.43 -4.67,4.25 -0.93,2.84 -1.4,7.11 -1.4,12.77 0,5.35 0.49,9.36 1.46,12.03 0.96,2.69 2.51,4.02 4.64,4.02 2.3,0 3.89,-1.38 4.74,-4.13 0.86,-2.75 1.29,-6.88 1.29,-12.41 0,-5.5 -0.44,-9.63 -1.32,-12.39 -0.88,-2.76 -2.46,-4.14 -4.74,-4.14z"/>
  <polygon id="11" class="fil5" points="3250.34,866.34 3233.71,866.34 3233.71,878.11 3249,878.11 3249,886.44 3233.71,886.44 3233.71,904.76 3223.5,904.76 3223.47,858 3250.34,858 "/>
  <polygon id="12" class="fil5" points="3285.56,866.34 3268.93,866.34 3268.93,878.11 3284.22,878.11 3284.22,886.44 3268.93,886.44 3268.93,904.76 3258.72,904.76 3258.69,858 3285.56,858 "/>
  <path class="fil5" d="M2786.26 1147.92c-5.56,0 -9.65,-1.96 -12.25,-5.89 -2.62,-3.92 -3.92,-9.78 -3.92,-17.55 0,-8.12 1.41,-14.3 4.24,-18.55 2.83,-4.25 6.83,-6.37 12.03,-6.37 5.87,0 10.03,1.99 12.49,5.95 2.46,3.97 3.69,9.93 3.69,17.88 0,7.92 -1.36,13.98 -4.07,18.2 -2.7,4.22 -6.78,6.33 -12.21,6.33zm0.04 -40.73c-2.17,0 -3.73,1.42 -4.67,4.25 -0.93,2.84 -1.4,7.1 -1.4,12.77 0,5.35 0.49,9.36 1.46,12.03 0.95,2.68 2.51,4.02 4.64,4.02 2.3,0 3.88,-1.38 4.74,-4.13 0.86,-2.75 1.29,-6.88 1.29,-12.41 0,-5.5 -0.44,-9.63 -1.32,-12.39 -0.88,-2.76 -2.46,-4.14 -4.74,-4.14z"/>
  <path id="1" class="fil5" d="M2842.74 1112.9l-11.31 16.66 11.21 17.54 -11.48 0 -5.15 -9.43c-0.19,-0.38 -0.41,-0.83 -0.67,-1.33 -0.24,-0.5 -0.51,-1.07 -0.79,-1.73l-0.13 0c-0.16,0.44 -0.35,0.89 -0.57,1.38 -0.23,0.49 -0.5,1.03 -0.8,1.6l-5.22 9.51 -11.44 0 11.57 -17.02 -10.89 -17.18 11.54 0 5.08 9.82c0.34,0.62 0.62,1.2 0.84,1.7 0.23,0.51 0.41,1 0.53,1.46l0.14 0c0.2,-0.53 0.42,-1.05 0.67,-1.58 0.25,-0.54 0.52,-1.08 0.8,-1.65l5.22 -9.75 10.85 0z"/>
  <path id="2" class="fil5" d="M2862.8 1147.92c-5.57,0 -9.65,-1.96 -12.26,-5.89 -2.62,-3.92 -3.92,-9.78 -3.92,-17.55 0,-8.12 1.42,-14.3 4.24,-18.55 2.83,-4.25 6.84,-6.37 12.04,-6.37 5.86,0 10.03,1.99 12.48,5.95 2.46,3.97 3.69,9.93 3.69,17.88 0,7.92 -1.36,13.98 -4.06,18.2 -2.71,4.22 -6.78,6.33 -12.21,6.33zm0.03 -40.73c-2.17,0 -3.73,1.42 -4.66,4.25 -0.94,2.84 -1.41,7.1 -1.41,12.77 0,5.35 0.49,9.36 1.46,12.03 0.96,2.68 2.52,4.02 4.64,4.02 2.31,0 3.89,-1.38 4.74,-4.13 0.86,-2.75 1.3,-6.88 1.3,-12.41 0,-5.5 -0.45,-9.63 -1.33,-12.39 -0.88,-2.76 -2.46,-4.14 -4.74,-4.14z"/>
  <path id="3" class="fil5" d="M2904.4 1147.1l-9.94 0 0 -35.96c-1.18,0.8 -2.5,1.49 -3.98,2.08 -1.47,0.59 -3.07,1.16 -4.79,1.69l-2.7 -7.98c2.92,-0.85 5.73,-1.93 8.39,-3.25 2.66,-1.31 5.03,-2.77 7.09,-4.38l5.93 0 0 47.8z"/>
  <path id="4" class="fil5" d="M2931.24 1147.92c-5.57,0 -9.65,-1.96 -12.26,-5.89 -2.61,-3.92 -3.92,-9.78 -3.92,-17.55 0,-8.12 1.42,-14.3 4.24,-18.55 2.83,-4.25 6.84,-6.37 12.04,-6.37 5.86,0 10.03,1.99 12.49,5.95 2.46,3.97 3.68,9.93 3.68,17.88 0,7.92 -1.36,13.98 -4.06,18.2 -2.71,4.22 -6.78,6.33 -12.21,6.33zm0.03 -40.73c-2.17,0 -3.73,1.42 -4.66,4.25 -0.94,2.84 -1.41,7.1 -1.41,12.77 0,5.35 0.49,9.36 1.46,12.03 0.96,2.68 2.52,4.02 4.64,4.02 2.31,0 3.89,-1.38 4.75,-4.13 0.85,-2.75 1.29,-6.88 1.29,-12.41 0,-5.5 -0.45,-9.63 -1.33,-12.39 -0.88,-2.76 -2.46,-4.14 -4.74,-4.14z"/>
  <path id="5" class="fil5" d="M2970.14 1147.92c-5.57,0 -9.65,-1.96 -12.26,-5.89 -2.61,-3.92 -3.91,-9.78 -3.91,-17.55 0,-8.12 1.41,-14.3 4.24,-18.55 2.82,-4.25 6.83,-6.37 12.03,-6.37 5.86,0 10.03,1.99 12.49,5.95 2.46,3.97 3.68,9.93 3.68,17.88 0,7.92 -1.36,13.98 -4.06,18.2 -2.71,4.22 -6.78,6.33 -12.21,6.33zm0.03 -40.73c-2.17,0 -3.73,1.42 -4.66,4.25 -0.94,2.84 -1.4,7.1 -1.4,12.77 0,5.35 0.49,9.36 1.45,12.03 0.96,2.68 2.52,4.02 4.64,4.02 2.31,0 3.89,-1.38 4.75,-4.13 0.85,-2.75 1.29,-6.88 1.29,-12.41 0,-5.5 -0.45,-9.63 -1.33,-12.39 -0.87,-2.76 -2.46,-4.14 -4.74,-4.14z"/>
  <path class="fil5" d="M2786.26 1450.01c-5.56,0 -9.65,-1.96 -12.25,-5.89 -2.62,-3.91 -3.92,-9.77 -3.92,-17.55 0,-8.11 1.41,-14.29 4.24,-18.54 2.83,-4.25 6.83,-6.37 12.03,-6.37 5.87,0 10.03,1.98 12.49,5.95 2.46,3.97 3.69,9.92 3.69,17.88 0,7.92 -1.36,13.98 -4.07,18.2 -2.7,4.22 -6.78,6.32 -12.21,6.32zm0.04 -40.72c-2.17,0 -3.73,1.42 -4.67,4.25 -0.93,2.84 -1.4,7.1 -1.4,12.76 0,5.36 0.49,9.37 1.46,12.04 0.95,2.68 2.51,4.01 4.64,4.01 2.3,0 3.88,-1.37 4.74,-4.12 0.86,-2.75 1.29,-6.88 1.29,-12.42 0,-5.49 -0.44,-9.62 -1.32,-12.38 -0.88,-2.76 -2.46,-4.14 -4.74,-4.14z"/>
  <path id="1" class="fil5" d="M2842.74 1415l-11.31 16.66 11.21 17.54 -11.48 0 -5.15 -9.43c-0.19,-0.39 -0.41,-0.83 -0.67,-1.33 -0.24,-0.5 -0.51,-1.07 -0.79,-1.73l-0.13 0c-0.16,0.44 -0.35,0.89 -0.57,1.38 -0.23,0.49 -0.5,1.03 -0.8,1.59l-5.22 9.52 -11.44 0 11.57 -17.02 -10.89 -17.18 11.54 0 5.08 9.81c0.34,0.63 0.62,1.21 0.84,1.71 0.23,0.51 0.41,1 0.53,1.45l0.14 0c0.2,-0.52 0.42,-1.04 0.67,-1.58 0.25,-0.53 0.52,-1.08 0.8,-1.64l5.22 -9.75 10.85 0z"/>
  <path id="2" class="fil5" d="M2862.8 1450.01c-5.57,0 -9.65,-1.96 -12.26,-5.89 -2.62,-3.91 -3.92,-9.77 -3.92,-17.55 0,-8.11 1.42,-14.29 4.24,-18.54 2.83,-4.25 6.84,-6.37 12.04,-6.37 5.86,0 10.03,1.98 12.48,5.95 2.46,3.97 3.69,9.92 3.69,17.88 0,7.92 -1.36,13.98 -4.06,18.2 -2.71,4.22 -6.78,6.32 -12.21,6.32zm0.03 -40.72c-2.17,0 -3.73,1.42 -4.66,4.25 -0.94,2.84 -1.41,7.1 -1.41,12.76 0,5.36 0.49,9.37 1.46,12.04 0.96,2.68 2.52,4.01 4.64,4.01 2.31,0 3.89,-1.37 4.74,-4.12 0.86,-2.75 1.3,-6.88 1.3,-12.42 0,-5.49 -0.45,-9.62 -1.33,-12.38 -0.88,-2.76 -2.46,-4.14 -4.74,-4.14z"/>
  <path id="3" class="fil5" d="M2885.42 1436.58c0,-2.61 0.7,-4.98 2.1,-7.09 1.39,-2.12 3.46,-3.73 6.22,-4.84 -2.08,-1.22 -3.72,-2.74 -4.89,-4.56 -1.18,-1.81 -1.76,-3.82 -1.76,-6.04 0,-3.57 1.39,-6.52 4.18,-8.87 2.78,-2.35 6.32,-3.52 10.63,-3.52 4.32,0 7.87,1.16 10.64,3.47 2.77,2.32 4.16,5.25 4.16,8.79 0,2.21 -0.62,4.21 -1.86,6 -1.23,1.78 -2.95,3.29 -5.12,4.53 2.76,1.11 4.84,2.73 6.26,4.87 1.41,2.15 2.12,4.53 2.12,7.16 0,4.03 -1.5,7.28 -4.49,9.75 -3.01,2.48 -6.95,3.72 -11.81,3.72 -4.81,0 -8.74,-1.24 -11.81,-3.73 -3.06,-2.49 -4.59,-5.7 -4.57,-9.64zm9.26 -0.85c0,2.17 0.66,3.9 1.96,5.16 1.31,1.25 3.04,1.89 5.19,1.89 2.04,-0.02 3.73,-0.67 5.06,-1.94 1.35,-1.28 2.02,-2.98 2.02,-5.11 0,-1.93 -0.66,-3.59 -1.96,-4.98 -1.3,-1.4 -3.02,-2.1 -5.12,-2.1 -2.05,-0.02 -3.75,0.65 -5.11,2 -1.36,1.34 -2.04,3.03 -2.04,5.08zm1.41 -20.9c0.02,1.87 0.61,3.37 1.76,4.52 1.15,1.13 2.51,1.71 4.08,1.71 1.58,-0.02 2.95,-0.6 4.11,-1.71 1.14,-1.13 1.72,-2.63 1.72,-4.52 0,-1.83 -0.56,-3.27 -1.71,-4.35 -1.14,-1.08 -2.52,-1.62 -4.12,-1.62 -1.68,0 -3.06,0.55 -4.16,1.65 -1.09,1.1 -1.66,2.54 -1.68,4.32z"/>
  <polygon id="4" class="fil5" points="2953.74,1410.79 2937.11,1410.79 2937.11,1422.55 2952.41,1422.55 2952.41,1430.88 2937.11,1430.88 2937.11,1449.2 2926.91,1449.2 2926.87,1402.44 2953.74,1402.44 "/>
  <polygon id="5" class="fil5" points="2988.96,1410.79 2972.33,1410.79 2972.33,1422.55 2987.62,1422.55 2987.62,1430.88 2972.33,1430.88 2972.33,1449.2 2962.12,1449.2 2962.09,1402.44 2988.96,1402.44 "/>
 </g>
</svg>
