<?xml version="1.0" encoding="UTF-8"?>
<!DOCTYPE svg PUBLIC "-//W3C//DTD SVG 1.1//EN" "http://www.w3.org/Graphics/SVG/1.1/DTD/svg11.dtd">
<!-- Creator: CorelDRAW 2020 (64-Bit) -->
<svg xmlns="http://www.w3.org/2000/svg" xml:space="preserve" width="3985px" height="2015px" version="1.1" style="shape-rendering:geometricPrecision; text-rendering:geometricPrecision; image-rendering:optimizeQuality; fill-rule:evenodd; clip-rule:evenodd"
viewBox="0 0 3983.02 2014"
 xmlns:xlink="http://www.w3.org/1999/xlink"
 xmlns:xodm="http://www.corel.com/coreldraw/odm/2003">
 <defs>
  <style type="text/css">
   <![CDATA[
    .str0 {stroke:#999999;stroke-width:4;stroke-miterlimit:22.9256}
    .fil0 {fill:none}
    .fil10 {fill:black}
    .fil7 {fill:#005AB4}
    .fil4 {fill:#2391FF}
    .fil12 {fill:#C0F6CD}
    .fil11 {fill:#C0F6CD}
    .fil5 {fill:#DFD6C3}
    .fil6 {fill:#FF8427}
    .fil2 {fill:#FFC000}
    .fil15 {fill:#13832E;fill-rule:nonzero}
    .fil18 {fill:#2391FF;fill-rule:nonzero}
    .fil8 {fill:#666666;fill-rule:nonzero}
    .fil1 {fill:#9900CC;fill-rule:nonzero}
    .fil3 {fill:#999999;fill-rule:nonzero}
    .fil14 {fill:#C0F6CD;fill-rule:nonzero}
    .fil13 {fill:#CCCCCC;fill-rule:nonzero}
    .fil16 {fill:#DFD6C3;fill-rule:nonzero}
    .fil17 {fill:#FFC000;fill-rule:nonzero}
    .fil9 {fill:white;fill-rule:nonzero}
   ]]>
  </style>
 </defs>
 <g id="Capa_x0020_1">
  <metadata id="CorelCorpID_0Corel-Layer"/>
  <rect class="fil0" x="-0.01" width="3983.02" height="2014"/>
  <g>
   <polygon class="fil1" points="1682.66,712.29 1682.66,634.33 1690.66,634.33 1690.66,712.29 "/>
  </g>
  <g>
   <polygon class="fil1" points="428.82,760.76 428.82,682.8 436.82,682.8 436.82,760.76 "/>
  </g>
  <g>
   <polygon class="fil1" points="3616.14,778.75 3616.14,700.29 3624.14,700.29 3624.14,778.75 "/>
  </g>
  <g>
   <polygon class="fil1" points="2147.42,1155.55 2147.42,1077.09 2155.41,1077.09 2155.41,1155.55 "/>
  </g>
  <g>
   <polygon class="fil1" points="3159.39,638.82 3159.39,717.28 3151.39,717.28 3151.39,638.82 "/>
  </g>
  <g>
   <polygon class="fil1" points="2541.71,749.27 2541.71,671.31 2549.71,671.31 2549.71,749.27 "/>
  </g>
  <g>
   <polygon class="fil1" points="2290.34,906.18 2290.34,828.22 2298.34,828.22 2298.34,906.18 "/>
  </g>
  <g>
   <polygon class="fil2" points="2474.25,733.27 2618.17,769.76 2618.17,985.14 2474.25,1021.12 2474.25,895.19 2546.21,877.2 2474.25,858.71 "/>
   <path id="1" class="fil3" d="M2617.09 773.22l-143.93 -36.48 2.17 -6.93 143.92 36.48 2.92 3.47 -5.08 3.46zm2.16 -6.93l2.92 0.74 0 2.73 -2.92 -3.47zm-5.08 218.85l0 -215.38 8 0 0 215.38 -2.93 3.47 -5.07 -3.47zm8 0l0 2.74 -2.93 0.73 2.93 -3.47zm-148.99 32.51l143.92 -35.98 2.14 6.94 -143.92 35.98 -5.07 -3.47 2.93 -3.47zm2.14 6.94l-5.07 1.27 0 -4.74 5.07 3.47zm2.92 -129.4l0 125.93 -7.99 0 0 -125.93 2.93 -3.47 5.06 3.47zm-7.99 0l0 -2.74 2.93 -0.73 -2.93 3.47zm77.03 -14.52l-71.96 17.99 -2.14 -6.94 71.96 -17.99 2.17 0.01 -0.03 6.93zm0.03 -6.93l13.65 3.51 -13.68 3.42 0.03 -6.93zm-71.97 -18.49l71.97 18.49 -2.2 6.92 -71.96 -18.49 -2.9 -3.46 5.09 -3.46zm-2.19 6.92l-2.9 -0.75 0 -2.71 2.9 3.46zm5.09 -128.9l0 125.44 -7.99 0 0 -125.44 5.08 -3.46 2.91 3.46zm-7.99 0l0 -4.75 5.08 1.29 -5.08 3.46z"/>
  </g>
  <g>
   <path class="fil4" d="M575.74 894.19l71.97 0 0 -143.92 -71.97 0 0 143.92zm0 -143.92l36.49 36.48 35.48 -36.48 -71.97 0z"/>
   <path id="1" class="fil3" d="M647.71 897.79l-71.97 0 0 -7.2 71.97 0 4 3.6 -4 3.6zm4 -3.6l0 3.6 -4 0 4 -3.6zm0 -143.92l0 143.92 -8 0 0 -143.92 4 -3.6 4 3.6zm-4 -3.6l4 0 0 3.6 -4 -3.6zm-71.97 0l71.97 0 0 7.19 -71.97 0 -3.99 -3.59 3.99 -3.6zm-3.99 3.6l0 -3.6 3.99 0 -3.99 3.6zm0 143.92l0 -143.92 7.99 0 0 143.92 -4 3.6 -3.99 -3.6zm3.99 3.6l-3.99 0 0 -3.6 3.99 3.6zm33.51 -108.64l-36.48 -36.48 5.95 -4.81 36.48 36.48 0.03 4.78 -5.98 0.03zm5.98 -0.03l-2.96 3.05 -3.02 -3.02 5.98 -0.03zm35.48 -36.49l-35.48 36.49 -6.01 -4.74 35.48 -36.48 6.01 4.73z"/>
  </g>
  <g>
   <polygon class="fil5" points="743.16,1183.54 1055.49,1183.54 1055.49,715.28 743.16,715.28 "/>
   <path id="1" class="fil3" d="M1055.49 1187.14l-312.33 0 0 -7.2 312.33 0 4 3.6 -4 3.6zm4 -3.6l0 3.6 -4 0 4 -3.6zm0 -468.26l0 468.26 -8 0 0 -468.26 4 -3.59 4 3.59zm-4 -3.59l4 0 0 3.59 -4 -3.59zm-312.33 0l312.33 0 0 7.19 -312.33 0 -4 -3.6 4 -3.59zm-4 3.59l0 -3.59 4 0 -4 3.59zm0 468.26l0 -468.26 7.99 0 0 468.26 -3.99 3.6 -4 -3.6zm4 3.6l-4 0 0 -3.6 4 3.6z"/>
  </g>
  <g>
   <path class="fil4" d="M1471.77 1116.07l429.78 0 0 -400.79 -429.78 0 0 400.79zm36.48 -400.79l34.99 34.99 36.48 -34.99 -71.47 0z"/>
   <path id="1" class="fil3" d="M1901.55 1119.67l-429.78 0 0 -7.2 429.78 0 4 3.6 -4 3.6zm4 -3.6l0 3.6 -4 0 4 -3.6zm0 -400.79l0 400.79 -8 0 0 -400.79 4 -3.59 4 3.59zm-4 -3.59l4 0 0 3.59 -4 -3.59zm-429.78 0l429.78 0 0 7.19 -429.78 0 -4 -3.6 4 -3.59zm-4 3.59l0 -3.59 4 0 -4 3.59zm0 400.79l0 -400.79 8 0 0 400.79 -4 3.6 -4 -3.6zm4 3.6l-4 0 0 -3.6 4 3.6zm68.49 -367l-34.98 -34.98 5.94 -4.81 34.99 34.98 -0.06 4.87 -5.89 -0.06zm5.89 0.06l-2.98 2.85 -2.91 -2.91 5.89 0.06zm36.48 -34.98l-36.48 34.98 -5.83 -4.93 36.48 -34.98 5.83 4.93z"/>
  </g>
  <g>
   <polygon class="fil6" points="396.84,750.27 396.84,894.19 469.3,876.2 469.3,768.26 "/>
   <path id="1" class="fil3" d="M392.84 894.19l0 -143.92 8 0 0 143.92 -2.94 3.47 -5.06 -3.47zm5.06 3.47l-5.06 1.26 0 -4.73 5.06 3.47zm72.46 -17.99l-72.46 17.99 -2.12 -6.94 72.46 -17.99 5.06 3.47 -2.94 3.47zm2.94 -3.47l0 2.74 -2.94 0.73 2.94 -3.47zm0 -107.94l0 107.94 -8 0 0 -107.94 5.06 -3.47 2.94 3.47zm-2.94 -3.47l2.94 0.73 0 2.74 -2.94 -3.47zm-72.46 -17.99l72.46 17.99 -2.12 6.93 -72.46 -17.99 -2.94 -3.46 5.06 -3.47zm-5.06 3.47l0 -4.73 5.06 1.26 -5.06 3.47z"/>
  </g>
  <g>
   <path class="fil5" d="M2975.48 1183.54l251.37 0 0 -468.26 -251.37 0 0 468.26zm36.48 -468.26l34.98 34.99 36.48 -34.99 -71.46 0z"/>
   <path id="1" class="fil3" d="M3226.85 1187.14l-251.37 0 0 -7.2 251.37 0 4 3.6 -4 3.6zm4 -3.6l0 3.6 -4 0 4 -3.6zm0 -468.26l0 468.26 -8 0 0 -468.26 4 -3.59 4 3.59zm-4 -3.59l4 0 0 3.59 -4 -3.59zm-251.37 0l251.37 0 0 7.19 -251.37 0 -4 -3.6 4 -3.59zm-4 3.59l0 -3.59 4 0 -4 3.59zm0 468.26l0 -468.26 8 0 0 468.26 -4 3.6 -4 -3.6zm4 3.6l-4 0 0 -3.6 4 3.6zm68.49 -434.47l-34.98 -34.98 5.94 -4.81 34.99 34.98 -0.06 4.87 -5.89 -0.06zm5.89 0.06l-2.98 2.85 -2.91 -2.91 5.89 0.06zm36.48 -34.98l-36.48 34.98 -5.83 -4.93 36.48 -34.98 5.83 4.93z"/>
  </g>
  <g>
   <polygon class="fil6" points="2259.36,894.19 2259.36,1038.11 2330.82,1020.62 2330.82,912.18 "/>
   <path id="1" class="fil3" d="M2255.36 1038.11l0 -143.92 8 0 0 143.92 -2.95 3.47 -5.05 -3.47zm5.05 3.47l-5.05 1.24 0 -4.71 5.05 3.47zm71.46 -17.49l-71.46 17.49 -2.1 -6.94 71.46 -17.49 5.05 3.47 -2.95 3.47zm2.95 -3.47l0 2.75 -2.95 0.72 2.95 -3.47zm0 -108.44l0 108.44 -8 0 0 -108.44 5.08 -3.46 2.92 3.46zm-2.92 -3.46l2.92 0.73 0 2.73 -2.92 -3.46zm-71.46 -17.99l71.46 17.99 -2.15 6.92 -71.47 -17.98 -2.92 -3.47 5.08 -3.46zm-5.08 3.46l0 -4.74 5.08 1.28 -5.08 3.46z"/>
  </g>
  <g>
   <polygon class="fil6" points="2116.43,1146.06 2116.43,1289.98 2187.9,1270.99 2187.9,1164.05 "/>
   <path id="1" class="fil3" d="M2112.44 1289.98l0 -143.92 7.99 0 0 143.92 -2.86 3.45 -5.13 -3.45zm5.13 3.45l-5.13 1.36 0 -4.81 5.13 3.45zm71.46 -18.99l-71.46 18.99 -2.27 -6.9 71.46 -18.99 5.14 3.45 -2.87 3.45zm2.87 -3.45l0 2.69 -2.87 0.76 2.87 -3.45zm0 -106.94l0 106.94 -8 0 0 -106.94 5.07 -3.47 2.93 3.47zm-2.93 -3.47l2.93 0.74 0 2.73 -2.93 -3.47zm-71.46 -17.99l71.46 17.99 -2.15 6.93 -71.46 -17.99 -2.92 -3.46 5.07 -3.47zm-5.07 3.47l0 -4.75 5.07 1.28 -5.07 3.47z"/>
  </g>
  <g>
   <polygon class="fil6" points="3584.66,768.26 3584.66,912.18 3656.62,893.69 3656.62,786.25 "/>
   <path id="1" class="fil3" d="M3580.66 912.18l0 -143.92 8 0 0 143.92 -2.9 3.46 -5.1 -3.46zm5.1 3.46l-5.1 1.31 0 -4.77 5.1 3.46zm71.96 -18.49l-71.96 18.49 -2.2 -6.92 71.97 -18.49 5.09 3.46 -2.9 3.46zm2.9 -3.46l0 2.71 -2.9 0.75 2.9 -3.46zm0 -107.44l0 107.44 -7.99 0 0 -107.44 5.06 -3.47 2.93 3.47zm-2.93 -3.47l2.93 0.73 0 2.74 -2.93 -3.47zm-71.96 -17.99l71.96 17.99 -2.14 6.93 -71.96 -17.99 -2.93 -3.46 5.07 -3.47zm-5.07 3.47l0 -4.74 5.07 1.27 -5.07 3.47z"/>
  </g>
  <g>
   <polygon class="fil2" points="2474.25,1379.43 2618.17,1415.91 2618.17,1631.3 2474.25,1667.28 2474.25,1541.35 2546.21,1523.36 2474.25,1504.87 "/>
   <path id="1" class="fil3" d="M2617.09 1419.38l-143.93 -36.48 2.17 -6.93 143.92 36.48 2.92 3.46 -5.08 3.47zm2.16 -6.93l2.92 0.74 0 2.72 -2.92 -3.46zm-5.08 218.85l0 -215.39 8 0 0 215.39 -2.93 3.47 -5.07 -3.47zm8 0l0 2.74 -2.93 0.73 2.93 -3.47zm-148.99 32.52l143.92 -35.99 2.14 6.94 -143.92 35.98 -5.07 -3.47 2.93 -3.46zm2.14 6.93l-5.07 1.27 0 -4.74 5.07 3.47zm2.92 -129.4l0 125.93 -7.99 0 0 -125.93 2.93 -3.47 5.06 3.47zm-7.99 0l0 -2.74 2.93 -0.73 -2.93 3.47zm77.03 -14.52l-71.96 17.99 -2.14 -6.94 71.96 -17.99 2.17 0.01 -0.03 6.93zm0.03 -6.93l13.65 3.51 -13.68 3.42 0.03 -6.93zm-71.97 -18.49l71.97 18.49 -2.2 6.92 -71.96 -18.49 -2.9 -3.46 5.09 -3.46zm-2.19 6.92l-2.9 -0.75 0 -2.71 2.9 3.46zm5.09 -128.9l0 125.44 -7.99 0 0 -125.44 5.08 -3.46 2.91 3.46zm-7.99 0l0 -4.75 5.08 1.29 -5.08 3.46z"/>
  </g>
  <g>
   <polygon class="fil7" points="2295.84,1505.37 2438.27,1505.37 2402.78,1361.44 2259.36,1361.44 "/>
   <path id="1" class="fil3" d="M2438.27 1508.97l-142.43 0 0 -7.2 142.43 0 3.9 2.82 -3.9 4.38zm3.9 -4.38l1.08 4.38 -4.98 0 3.9 -4.38zm-35.48 -143.93l35.48 143.93 -7.81 1.56 -35.48 -143.93 3.9 -4.37 3.91 2.81zm-3.91 -2.81l3.21 0 0.7 2.81 -3.91 -2.81zm-143.42 0l143.42 0 0 7.19 -143.42 0 -3.9 -2.8 3.9 -4.39zm-3.9 4.39l-1.11 -4.39 5.01 0 -3.9 4.39zm36.48 143.93l-36.48 -143.93 7.8 -1.6 36.48 143.93 -3.9 4.4 -3.9 -2.8zm3.9 2.8l-3.19 0 -0.71 -2.8 3.9 2.8z"/>
  </g>
  <g>
   <polygon class="fil7" points="1471.77,1505.37 1901.55,1505.37 1901.55,1361.44 1471.77,1432.91 "/>
   <path id="1" class="fil3" d="M1901.55 1508.97l-429.78 0 0 -7.2 429.78 0 4 3.6 -4 3.6zm4 -3.6l0 3.6 -4 0 4 -3.6zm0 -143.93l0 143.93 -8 0 0 -143.93 3.27 -3.53 4.73 3.53zm-4.73 -3.53l4.73 -0.79 0 4.32 -4.73 -3.53zm-429.77 71.46l429.77 -71.46 1.45 7.07 -429.77 71.46 -4.73 -3.53 3.28 -3.54zm-3.28 3.54l0 -3 3.28 -0.54 -3.28 3.54zm0 72.46l0 -72.46 8 0 0 72.46 -4 3.6 -4 -3.6zm4 3.6l-4 0 0 -3.6 4 3.6z"/>
  </g>
  <g>
   <polygon class="fil2" points="790.63,1246 934.56,1282.48 934.56,1497.87 790.63,1533.85 790.63,1407.92 862.59,1389.93 790.63,1371.44 "/>
   <path id="1" class="fil3" d="M933.47 1285.95l-143.92 -36.48 2.17 -6.93 143.92 36.48 2.91 3.46 -5.08 3.47zm2.17 -6.93l2.91 0.74 0 2.72 -2.91 -3.46zm-5.08 218.85l0 -215.39 7.99 0 0 215.39 -2.92 3.47 -5.07 -3.47zm7.99 0l0 2.74 -2.92 0.73 2.92 -3.47zm-148.99 32.52l143.93 -35.99 2.14 6.94 -143.93 35.98 -5.07 -3.47 2.93 -3.46zm2.14 6.93l-5.07 1.27 0 -4.74 5.07 3.47zm2.93 -129.4l0 125.93 -8 0 0 -125.93 2.93 -3.47 5.07 3.47zm-8 0l0 -2.74 2.93 -0.73 -2.93 3.47zm77.03 -14.52l-71.96 17.99 -2.14 -6.94 71.96 -17.99 2.17 0.01 -0.03 6.93zm0.03 -6.93l13.65 3.51 -13.68 3.42 0.03 -6.93zm-71.96 -18.49l71.96 18.49 -2.19 6.92 -71.97 -18.49 -2.9 -3.46 5.1 -3.46zm-2.2 6.92l-2.9 -0.75 0 -2.71 2.9 3.46zm5.1 -128.9l0 125.44 -8 0 0 -125.44 5.09 -3.46 2.91 3.46zm-8 0l0 -4.75 5.09 1.29 -5.09 3.46z"/>
  </g>
  <g>
   <path class="fil8" d="M289.4 855.96l107.44 0 0 4.5 -107.44 0 -2.5 -2.25 2.5 -2.25zm-2.5 2.25l0 -2.25 2.5 0 -2.5 2.25zm0 826.56l0 -826.56 4.99 0 0 826.56 -2.49 2.25 -2.5 -2.25zm2.5 2.25l-2.5 0 0 -2.25 2.5 2.25zm2686.08 0l-2686.08 0 0 -4.5 2686.08 0 2.5 2.25 -2.5 2.25zm2.5 -2.25l0 2.25 -2.5 0 2.5 -2.25zm0 -161.41l0 161.41 -5 0 0 -161.41 2.5 -2.25 2.5 2.25zm-2.5 -2.25l2.5 0 0 2.25 -2.5 -2.25zm-357.31 0l357.31 0 0 4.5 -357.31 0 0 -4.5z"/>
  </g>
  <g>
   <path class="fil8" d="M3696.37 842.62l-39.76 -0.15 0.02 -4.5 39.76 0.16 2.49 2.25 -2.51 2.24zm0.02 -4.49l2.49 0 0 2.25 -2.49 -2.25zm-3.28 918.6l0.78 -916.36 4.99 0.01 -0.78 916.36 -2.49 2.24 -2.5 -2.25zm4.99 0.01l0 2.24 -2.49 0 2.49 -2.24zm-2469.2 0.25l2466.7 -2.5 0.01 4.49 -2466.71 2.5 -2.5 -2.25 2.5 -2.24zm0 4.49l-2.5 0.01 0 -2.26 2.5 2.25zm2.5 -687.89l0 685.64 -5 0 0 -685.64 2.5 -2.24 2.5 2.24zm-5 0l0 -2.24 2.5 0 -2.5 2.24zm245.37 2.25l-242.87 0 0 -4.49 242.87 0 0 4.49z"/>
  </g>
  <g>
   <path class="fil8" d="M2224.38 1435.15l-322.83 0 0 -4.49 322.83 0 2.5 2.25 -2.5 2.24zm2.5 -2.24l0 2.24 -2.5 0 2.5 -2.24zm0 -430.78l0 430.78 -5 0 0 -430.78 2.5 -2.25 2.5 2.25zm-5 0l0 -2.25 2.5 0 -2.5 2.25zm37.48 2.25l-34.98 0 0 -4.5 34.98 0 0 4.5z"/>
  </g>
  <g>
   <path class="fil8" d="M1007.02 1345.2l-71.96 0 0 -4.5 71.96 0 2.5 2.25 -2.5 2.25zm0 -4.5l2.5 0 0 2.25 -2.5 -2.25zm-2.5 272.61l0 -270.36 5 0 0 270.36 -2.5 2.25 -2.5 -2.25zm5 0l0 2.25 -2.5 0 2.5 -2.25zm-648.16 -2.25l645.66 0 0 4.5 -645.66 0 -2.5 -2.25 2.5 -2.25zm0 4.5l-2.5 0 0 -2.25 2.5 2.25zm2.5 -828.81l0 826.56 -5 0 0 -826.56 2.5 -2.25 2.5 2.25zm-5 0l0 -2.25 2.5 0 -2.5 2.25zm37.98 2.25l-35.48 0 0 -4.5 35.48 0 0 4.5z"/>
  </g>
  <g>
   <path class="fil8" d="M699.68 1297.98l0 -476.25 5 0 0 476.25 -2.5 2.25 -2.5 -2.25zm2.5 2.25l-2.5 0 0 -2.25 2.5 2.25zm88.45 0l-88.45 0 0 -4.5 88.45 0 0 4.5z"/>
  </g>
  <g>
   <polygon class="fil8" points="743.16,823.98 647.71,823.98 647.71,819.48 743.16,819.48 "/>
  </g>
  <g>
   <polygon class="fil8" points="469.3,819.48 575.74,819.48 575.74,823.98 469.3,823.98 "/>
  </g>
  <g>
   <path class="fil8" d="M1007.02 1611.06l1467.23 0 0 4.5 -1467.23 0 -2.5 -2.25 2.5 -2.25zm0 4.5l-2.5 0 0 -2.25 2.5 2.25zm2.5 -118.69l0 116.44 -5 0 0 -116.44 5 0z"/>
  </g>
  <g>
   <polygon class="fil8" points="2277.85,1435.17 2224.38,1435.17 2224.38,1430.64 2277.85,1430.64 "/>
  </g>
  <g>
   <polygon class="fil8" points="2474.25,1435.14 2420.52,1435.14 2420.52,1430.67 2474.25,1430.67 "/>
  </g>
  <g>
   <polygon class="fil8" points="2259.36,932.91 1903.55,932.91 1903.55,928.43 2259.36,928.43 "/>
  </g>
  <g>
   <polygon class="fil8" points="2330.82,963.4 2474.25,963.4 2474.25,967.9 2330.82,967.9 "/>
  </g>
  <g>
   <path class="fil8" d="M2185.4 1073.59l0 -142.92 5 0 0 142.92 -2.5 2.25 -2.5 -2.25zm2.5 2.25l-2.5 0 0 -2.25 2.5 2.25zm787.58 0l-787.58 0 0 -4.49 787.58 0 0 4.49z"/>
  </g>
  <g>
   <path class="fil8" d="M2943 606.34l0 270.36 -5 0 0 -270.36 2.5 -2.25 2.5 2.25zm-5 0l0 -2.25 2.5 0 -2.5 2.25zm611.68 2.25l-609.18 0 0 -4.5 609.18 0 2.5 2.25 -2.5 2.25zm0 -4.5l2.5 0 0 2.25 -2.5 -2.25zm-2.5 200.65l0 -198.4 5 0 0 198.4 -2.5 2.25 -2.5 -2.25zm2.5 2.25l-2.5 0 0 -2.25 2.5 2.25zm34.98 0l-34.98 0 0 -4.5 34.98 0 0 4.5z"/>
  </g>
  <g>
   <polygon class="fil8" points="3584.66,878.95 3226.85,878.95 3226.85,874.45 3584.66,874.45 "/>
  </g>
  <g>
   <polygon class="fil8" points="2868.54,789 2617.67,789 2617.67,784.5 2868.54,784.5 "/>
  </g>
  <g>
   <polygon class="fil8" points="2975.48,878.95 2618.17,878.95 2618.17,874.45 2975.48,874.45 "/>
  </g>
  <g>
   <polygon class="fil8" points="1901.55,784.5 2474.25,784.5 2474.25,788.99 1901.55,788.99 "/>
  </g>
  <g>
   <polygon class="fil8" points="790.63,1466.64 755.65,1466.64 755.65,1462.14 790.63,1462.14 "/>
  </g>
  <g>
   <polygon class="fil8" points="2116.43,1255.74 1364.83,1255.74 1364.83,1251.26 2116.43,1251.26 "/>
  </g>
  <g>
   <polygon class="fil8" points="2116.43,1183.28 1364.83,1183.28 1364.83,1178.79 2116.43,1178.79 "/>
  </g>
  <g>
   <path class="fil8" d="M1292.87 999.88l178.9 0 0 4.5 -178.9 0 -2.5 -2.25 2.5 -2.25zm-2.5 2.25l0 -2.25 2.5 0 -2.5 2.25zm0 322.83l0 -322.83 5 0 0 322.83 -2.5 2.25 -2.5 -2.25zm2.5 2.25l-2.5 0 0 -2.25 2.5 2.25zm1145.4 0l-1145.4 0 0 -4.5 1145.4 0 2.49 2.25 -2.49 2.25zm2.49 -2.25l0 2.25 -2.49 0 2.49 -2.25zm0 -107.44l0 107.44 -4.99 0 0 -107.44 2.5 -2.25 2.49 2.25zm-2.49 -2.25l2.49 0 0 2.25 -2.49 -2.25zm-250.37 0l250.37 0 0 4.5 -250.37 0 0 -4.5z"/>
  </g>
  <g>
   <path class="fil8" d="M1364.83 784.5l106.94 0 0 4.5 -106.94 0 -2.5 -2.25 2.5 -2.25zm-2.5 2.25l0 -2.25 2.5 0 -2.5 2.25zm0 682.64l0 -682.64 5 0 0 682.64 -2.5 2.25 -2.5 -2.25zm2.5 2.25l-2.5 0 0 -2.25 2.5 2.25zm106.94 0l-106.94 0 0 -4.5 106.94 0 0 4.5z"/>
  </g>
  <g>
   <polygon class="fil8" points="1364.83,823.98 1055.49,823.98 1055.49,819.48 1364.83,819.48 "/>
  </g>
  <g>
   <polygon class="fil8" points="1364.83,928.42 1471.77,928.42 1471.77,932.92 1364.83,932.92 "/>
  </g>
  <g>
   <polygon class="fil8" points="609.23,750.27 609.23,715.28 614.22,715.28 614.22,750.27 "/>
  </g>
  <g>
   <polygon class="fil8" points="1545.73,678.8 1545.73,715.28 1540.74,715.28 1540.74,678.8 "/>
  </g>
  <g>
   <polygon class="fil8" points="3044.44,715.28 3044.44,678.8 3049.44,678.8 3049.44,715.28 "/>
  </g>
  <path class="fil3" d="M595.89 694.36c-1.84,0.84 -3.62,1.46 -5.35,1.85 -1.74,0.39 -3.61,0.59 -5.63,0.59 -5.44,0 -9.71,-1.53 -12.83,-4.59 -3.13,-3.06 -4.69,-7.42 -4.69,-13.08 0,-5.33 1.71,-9.75 5.11,-13.26 3.41,-3.51 7.91,-5.26 13.48,-5.26 1.89,0 3.58,0.15 5.08,0.43 1.5,0.28 3.02,0.73 4.59,1.35l-2.35 6.15c-1.18,-0.47 -2.34,-0.81 -3.46,-1.04 -1.12,-0.21 -2.34,-0.32 -3.64,-0.32 -2.94,0 -5.48,1.02 -7.6,3.08 -2.12,2.06 -3.18,4.84 -3.18,8.34 0,3.6 0.93,6.43 2.79,8.46 1.86,2.03 4.41,3.06 7.65,3.06 0.93,0 2.03,-0.15 3.31,-0.44 1.27,-0.3 2.58,-0.77 3.91,-1.42l2.81 6.1z"/>
  <polygon id="1" class="fil3" points="622.17,696.19 601.5,696.19 601.48,661.2 609.14,661.2 609.14,689.97 622.17,689.97 "/>
  <path id="2" class="fil3" d="M656.06 696.19l-9.56 0 -10.42 -14.99c-0.12,-0.15 -0.25,-0.4 -0.41,-0.71 -0.15,-0.32 -0.32,-0.71 -0.52,-1.16l-0.12 0 0 16.86 -7.64 0 0 -34.99 7.64 0 0 16.22 0.12 0c0.1,-0.21 0.23,-0.47 0.39,-0.79 0.16,-0.31 0.36,-0.68 0.59,-1.09l9.88 -14.34 8.88 0 -12.22 16.51 13.39 18.48z"/>
  <polygon class="fil9" points="766.19,909.57 777.13,909.57 781.3,925.89 785.47,909.57 796.36,909.57 796.36,936.4 789.58,936.4 789.58,915.94 784.34,936.4 778.2,936.4 772.97,915.94 772.97,936.4 766.19,936.4 "/>
  <polygon id="1" class="fil9" points="801.64,909.57 823.83,909.57 823.83,915.3 809.96,915.3 809.96,919.57 822.82,919.57 822.82,925.05 809.96,925.05 809.96,930.33 824.24,930.33 824.24,936.4 801.64,936.4 "/>
  <polygon id="2" class="fil9" points="828.63,909.57 839.57,909.57 843.74,925.89 847.92,909.57 858.81,909.57 858.81,936.4 852.02,936.4 852.02,915.94 846.79,936.4 840.64,936.4 835.42,915.94 835.42,936.4 828.63,936.4 "/>
  <path id="3" class="fil9" d="M863.04 923c0,-4.38 1.21,-7.79 3.66,-10.22 2.44,-2.45 5.84,-3.66 10.2,-3.66 4.47,0 7.91,1.19 10.32,3.59 2.42,2.4 3.63,5.76 3.63,10.07 0,3.14 -0.53,5.71 -1.58,7.71 -1.06,2.01 -2.59,3.57 -4.58,4.69 -2,1.12 -4.49,1.67 -7.47,1.67 -3.02,0 -5.53,-0.48 -7.51,-1.44 -1.98,-0.97 -3.59,-2.49 -4.82,-4.58 -1.23,-2.08 -1.85,-4.69 -1.85,-7.83zm8.28 0.02c0,2.71 0.51,4.66 1.51,5.84 1.01,1.18 2.39,1.77 4.12,1.77 1.78,0 3.17,-0.58 4.15,-1.74 0.98,-1.16 1.46,-3.23 1.46,-6.24 0,-2.52 -0.51,-4.36 -1.53,-5.53 -1.02,-1.16 -2.4,-1.75 -4.15,-1.75 -1.67,0 -3.02,0.6 -4.04,1.78 -1.01,1.18 -1.52,3.14 -1.52,5.87z"/>
  <path id="4" class="fil9" d="M895.42 936.4l0 -26.83 13.82 0c2.56,0 4.52,0.21 5.87,0.66 1.36,0.43 2.45,1.25 3.28,2.44 0.83,1.19 1.24,2.65 1.24,4.36 0,1.49 -0.31,2.77 -0.95,3.85 -0.63,1.09 -1.51,1.97 -2.63,2.64 -0.7,0.43 -1.68,0.78 -2.91,1.06 0.99,0.33 1.71,0.66 2.16,0.99 0.3,0.22 0.74,0.69 1.32,1.41 0.58,0.72 0.96,1.28 1.16,1.67l4.03 7.75 -9.37 0 -4.43 -8.18c-0.56,-1.06 -1.06,-1.75 -1.5,-2.07 -0.6,-0.41 -1.28,-0.62 -2.04,-0.62l-0.73 0 0 10.87 -8.32 0zm8.32 -15.93l3.51 0c0.37,0 1.11,-0.12 2.19,-0.37 0.55,-0.1 1,-0.38 1.35,-0.84 0.35,-0.46 0.52,-0.97 0.52,-1.56 0,-0.87 -0.27,-1.54 -0.82,-2 -0.55,-0.47 -1.58,-0.7 -3.1,-0.7l-3.65 0 0 5.47z"/>
  <polygon id="5" class="fil9" points="924.8,909.57 933.12,909.57 933.12,936.4 924.8,936.4 "/>
  <path id="6" class="fil9" d="M955.56 931.98l-9.4 0 -1.35 4.42 -8.46 0 10.1 -26.83 9.08 0 10.06 26.83 -8.69 0 -1.34 -4.42zm-1.76 -5.81l-2.93 -9.65 -2.94 9.65 5.87 0z"/>
  <path id="7" class="fil9" d="M980.82 909.57l12.32 0c2.42,0 4.39,0.33 5.88,0.98 1.5,0.66 2.74,1.61 3.72,2.84 0.97,1.23 1.68,2.67 2.11,4.3 0.45,1.64 0.67,3.37 0.67,5.2 0,2.87 -0.33,5.09 -0.99,6.67 -0.65,1.58 -1.55,2.91 -2.71,3.97 -1.16,1.07 -2.41,1.78 -3.74,2.14 -1.82,0.49 -3.47,0.73 -4.94,0.73l-12.32 0 0 -26.83zm8.28 6.07l0 14.65 2.04 0c1.73,0 2.97,-0.19 3.71,-0.57 0.73,-0.39 1.3,-1.06 1.72,-2.01 0.42,-0.97 0.63,-2.51 0.63,-4.66 0,-2.85 -0.47,-4.79 -1.4,-5.84 -0.93,-1.05 -2.47,-1.57 -4.63,-1.57l-2.07 0z"/>
  <polygon id="8" class="fil9" points="1009.86,909.57 1032.05,909.57 1032.05,915.3 1018.18,915.3 1018.18,919.57 1031.03,919.57 1031.03,925.05 1018.18,925.05 1018.18,930.33 1032.46,930.33 1032.46,936.4 1009.86,936.4 "/>
  <path id="9" class="fil9" d="M781.13 962.42l13.79 0c3,0 5.25,0.71 6.75,2.14 1.5,1.43 2.24,3.47 2.24,6.11 0,2.71 -0.81,4.84 -2.44,6.36 -1.63,1.53 -4.13,2.29 -7.47,2.29l-4.55 0 0 9.94 -8.32 0 0 -26.84zm8.32 11.47l2.04 0c1.61,0 2.74,-0.28 3.39,-0.84 0.65,-0.55 0.98,-1.27 0.98,-2.13 0,-0.85 -0.28,-1.56 -0.85,-2.15 -0.57,-0.58 -1.63,-0.88 -3.19,-0.88l-2.37 0 0 6z"/>
  <path id="10" class="fil9" d="M808.34 989.26l0 -26.84 13.82 0c2.56,0 4.52,0.22 5.87,0.66 1.36,0.44 2.45,1.26 3.28,2.45 0.83,1.19 1.25,2.64 1.25,4.36 0,1.48 -0.32,2.77 -0.96,3.85 -0.63,1.09 -1.5,1.96 -2.62,2.64 -0.71,0.42 -1.68,0.78 -2.91,1.06 0.98,0.33 1.7,0.65 2.15,0.98 0.3,0.22 0.75,0.7 1.33,1.42 0.57,0.72 0.96,1.27 1.15,1.66l4.03 7.76 -9.37 0 -4.43 -8.19c-0.56,-1.06 -1.06,-1.75 -1.5,-2.06 -0.6,-0.42 -1.28,-0.62 -2.03,-0.62l-0.73 0 0 10.87 -8.33 0zm8.33 -15.93l3.5 0c0.37,0 1.11,-0.13 2.2,-0.37 0.55,-0.11 1,-0.39 1.34,-0.84 0.35,-0.46 0.53,-0.98 0.53,-1.57 0,-0.86 -0.28,-1.53 -0.83,-2 -0.55,-0.46 -1.58,-0.69 -3.1,-0.69l-3.64 0 0 5.47z"/>
  <path id="11" class="fil9" d="M835.69 975.86c0,-4.38 1.22,-7.79 3.66,-10.23 2.45,-2.44 5.84,-3.66 10.2,-3.66 4.47,0 7.91,1.2 10.33,3.59 2.42,2.4 3.62,5.76 3.62,10.08 0,3.14 -0.52,5.7 -1.58,7.71 -1.05,2 -2.58,3.57 -4.57,4.68 -2,1.12 -4.49,1.68 -7.47,1.68 -3.02,0 -5.53,-0.48 -7.52,-1.45 -1.98,-0.96 -3.59,-2.49 -4.82,-4.57 -1.23,-2.08 -1.85,-4.7 -1.85,-7.83zm8.29 0.02c0,2.7 0.5,4.65 1.51,5.83 1.01,1.18 2.39,1.77 4.12,1.77 1.78,0 3.17,-0.58 4.14,-1.73 0.98,-1.16 1.47,-3.24 1.47,-6.24 0,-2.53 -0.51,-4.37 -1.53,-5.53 -1.02,-1.17 -2.4,-1.75 -4.15,-1.75 -1.68,0 -3.03,0.59 -4.04,1.77 -1.02,1.18 -1.52,3.15 -1.52,5.88z"/>
  <path id="12" class="fil9" d="M881.46 979.55l0 -5.59 12.82 0 0 11.42c-2.46,1.67 -4.63,2.81 -6.51,3.42 -1.88,0.61 -4.12,0.91 -6.71,0.91 -3.18,0 -5.78,-0.55 -7.78,-1.63 -2.01,-1.08 -3.57,-2.7 -4.67,-4.85 -1.11,-2.14 -1.66,-4.61 -1.66,-7.39 0,-2.93 0.61,-5.47 1.81,-7.64 1.21,-2.16 2.98,-3.81 5.31,-4.93 1.82,-0.87 4.26,-1.3 7.34,-1.3 2.96,0 5.18,0.27 6.65,0.81 1.47,0.53 2.69,1.36 3.66,2.5 0.96,1.13 1.69,2.56 2.18,4.29l-7.98 1.43c-0.33,-1.01 -0.89,-1.8 -1.68,-2.33 -0.78,-0.55 -1.78,-0.81 -3.01,-0.81 -1.81,0 -3.26,0.63 -4.34,1.89 -1.08,1.26 -1.62,3.26 -1.62,5.99 0,2.9 0.55,4.97 1.64,6.21 1.09,1.25 2.61,1.87 4.56,1.87 0.93,0 1.81,-0.13 2.65,-0.4 0.84,-0.27 1.8,-0.72 2.89,-1.36l0 -2.51 -5.55 0z"/>
  <path id="13" class="fil9" d="M899.3 989.26l0 -26.84 13.82 0c2.56,0 4.52,0.22 5.87,0.66 1.36,0.44 2.45,1.26 3.28,2.45 0.83,1.19 1.24,2.64 1.24,4.36 0,1.48 -0.32,2.77 -0.95,3.85 -0.63,1.09 -1.51,1.96 -2.63,2.64 -0.7,0.42 -1.68,0.78 -2.91,1.06 0.99,0.33 1.71,0.65 2.16,0.98 0.3,0.22 0.74,0.7 1.32,1.42 0.58,0.72 0.96,1.27 1.16,1.66l4.03 7.76 -9.37 0 -4.43 -8.19c-0.57,-1.06 -1.07,-1.75 -1.5,-2.06 -0.6,-0.42 -1.28,-0.62 -2.04,-0.62l-0.73 0 0 10.87 -8.32 0zm8.32 -15.93l3.5 0c0.38,0 1.12,-0.13 2.2,-0.37 0.55,-0.11 1,-0.39 1.35,-0.84 0.35,-0.46 0.52,-0.98 0.52,-1.57 0,-0.86 -0.27,-1.53 -0.82,-2 -0.55,-0.46 -1.58,-0.69 -3.1,-0.69l-3.65 0 0 5.47z"/>
  <path id="14" class="fil9" d="M944.85 984.83l-9.39 0 -1.35 4.43 -8.47 0 10.1 -26.84 9.08 0 10.06 26.84 -8.69 0 -1.34 -4.43zm-1.75 -5.81l-2.93 -9.64 -2.95 9.64 5.88 0z"/>
  <polygon id="15" class="fil9" points="957.42,962.42 968.36,962.42 972.53,978.75 976.7,962.42 987.59,962.42 987.59,989.26 980.81,989.26 980.81,968.8 975.57,989.26 969.43,989.26 964.2,968.8 964.2,989.26 957.42,989.26 "/>
  <path id="16" class="fil9" d="M1009.38 984.83l-9.39 0 -1.35 4.43 -8.47 0 10.1 -26.84 9.08 0 10.06 26.84 -8.69 0 -1.34 -4.43zm-1.75 -5.81l-2.93 -9.64 -2.94 9.64 5.87 0z"/>
  <path class="fil3" d="M3031.11 665.15c-1.84,0.85 -3.62,1.46 -5.35,1.85 -1.74,0.4 -3.61,0.59 -5.63,0.59 -5.44,0 -9.71,-1.53 -12.83,-4.59 -3.13,-3.06 -4.69,-7.41 -4.69,-13.08 0,-5.33 1.71,-9.75 5.11,-13.26 3.41,-3.5 7.91,-5.25 13.48,-5.25 1.89,0 3.58,0.14 5.08,0.42 1.5,0.28 3.02,0.73 4.59,1.35l-2.35 6.16c-1.18,-0.48 -2.34,-0.82 -3.46,-1.05 -1.12,-0.21 -2.34,-0.32 -3.64,-0.32 -2.94,0 -5.48,1.02 -7.6,3.08 -2.12,2.06 -3.18,4.84 -3.18,8.34 0,3.61 0.93,6.43 2.79,8.46 1.86,2.03 4.41,3.06 7.65,3.06 0.93,0 2.03,-0.15 3.31,-0.44 1.27,-0.29 2.58,-0.77 3.91,-1.42l2.81 6.1z"/>
  <polygon id="1" class="fil3" points="3057.39,666.98 3036.72,666.98 3036.7,631.99 3044.36,631.99 3044.36,660.76 3057.39,660.76 "/>
  <path id="2" class="fil3" d="M3091.28 666.98l-9.56 0 -10.42 -14.98c-0.12,-0.16 -0.25,-0.4 -0.41,-0.72 -0.15,-0.32 -0.32,-0.71 -0.52,-1.16l-0.12 0 0 16.86 -7.64 0 0 -34.99 7.64 0 0 16.22 0.12 0c0.1,-0.2 0.23,-0.47 0.39,-0.79 0.16,-0.31 0.36,-0.68 0.59,-1.09l9.88 -14.34 8.88 0 -12.22 16.52 13.39 18.47z"/>
  <path class="fil3" d="M1527.4 663.74c-1.84,0.85 -3.62,1.47 -5.35,1.86 -1.74,0.39 -3.61,0.58 -5.63,0.58 -5.44,0 -9.71,-1.52 -12.83,-4.59 -3.13,-3.06 -4.69,-7.41 -4.69,-13.08 0,-5.33 1.71,-9.75 5.11,-13.26 3.41,-3.5 7.91,-5.25 13.48,-5.25 1.89,0 3.58,0.14 5.08,0.42 1.5,0.29 3.02,0.74 4.59,1.35l-2.35 6.16c-1.18,-0.48 -2.34,-0.82 -3.46,-1.04 -1.12,-0.22 -2.34,-0.33 -3.64,-0.33 -2.94,0 -5.48,1.03 -7.6,3.08 -2.12,2.06 -3.18,4.84 -3.18,8.34 0,3.61 0.93,6.43 2.79,8.46 1.86,2.04 4.41,3.06 7.65,3.06 0.93,0 2.03,-0.15 3.31,-0.44 1.27,-0.29 2.58,-0.77 3.91,-1.42l2.81 6.1z"/>
  <polygon id="1" class="fil3" points="1553.68,665.57 1533.01,665.57 1532.99,630.58 1540.65,630.58 1540.65,659.35 1553.68,659.35 "/>
  <path id="2" class="fil3" d="M1587.57 665.57l-9.56 0 -10.42 -14.98c-0.12,-0.16 -0.25,-0.4 -0.41,-0.72 -0.15,-0.31 -0.32,-0.71 -0.52,-1.16l-0.12 0 0 16.86 -7.64 0 0 -34.99 7.64 0 0 16.23 0.12 0c0.1,-0.21 0.23,-0.48 0.39,-0.79 0.16,-0.32 0.36,-0.69 0.59,-1.1l9.88 -14.34 8.88 0 -12.22 16.52 13.39 18.47z"/>
  <path class="fil9" d="M1567.32 929.1l0 -26.84 13.81 0c2.57,0 4.53,0.22 5.88,0.66 1.35,0.44 2.45,1.26 3.28,2.44 0.83,1.2 1.24,2.65 1.24,4.36 0,1.49 -0.32,2.78 -0.96,3.86 -0.63,1.09 -1.5,1.96 -2.62,2.64 -0.71,0.42 -1.68,0.78 -2.91,1.06 0.99,0.33 1.7,0.65 2.15,0.98 0.3,0.22 0.75,0.7 1.33,1.42 0.57,0.71 0.96,1.27 1.15,1.66l4.03 7.76 -9.37 0 -4.43 -8.19c-0.56,-1.06 -1.06,-1.75 -1.5,-2.07 -0.6,-0.41 -1.28,-0.61 -2.03,-0.61l-0.73 0 0 10.87 -8.32 0zm8.32 -15.93l3.5 0c0.38,0 1.11,-0.13 2.2,-0.37 0.55,-0.11 1,-0.39 1.34,-0.85 0.35,-0.45 0.53,-0.97 0.53,-1.56 0,-0.87 -0.28,-1.53 -0.83,-2 -0.55,-0.46 -1.58,-0.7 -3.09,-0.7l-3.65 0 0 5.48z"/>
  <polygon id="1" class="fil9" points="1596.36,902.26 1618.55,902.26 1618.55,907.99 1604.68,907.99 1604.68,912.27 1617.54,912.27 1617.54,917.74 1604.68,917.74 1604.68,923.02 1618.96,923.02 1618.96,929.1 1596.36,929.1 "/>
  <path id="2" class="fil9" d="M1636.92 919.39l0 -5.59 12.82 0 0 11.42c-2.46,1.67 -4.63,2.81 -6.51,3.42 -1.88,0.61 -4.12,0.91 -6.71,0.91 -3.18,0 -5.78,-0.55 -7.78,-1.63 -2.01,-1.09 -3.57,-2.7 -4.67,-4.85 -1.11,-2.15 -1.66,-4.61 -1.66,-7.39 0,-2.93 0.61,-5.47 1.81,-7.64 1.21,-2.16 2.98,-3.81 5.31,-4.93 1.82,-0.87 4.27,-1.3 7.34,-1.3 2.96,0 5.18,0.27 6.65,0.81 1.47,0.53 2.69,1.36 3.66,2.49 0.96,1.13 1.7,2.57 2.18,4.3l-7.98 1.43c-0.33,-1.02 -0.89,-1.8 -1.67,-2.33 -0.79,-0.55 -1.79,-0.82 -3.02,-0.82 -1.81,0 -3.26,0.63 -4.34,1.9 -1.08,1.26 -1.62,3.26 -1.62,5.99 0,2.9 0.55,4.97 1.64,6.21 1.09,1.25 2.61,1.87 4.56,1.87 0.93,0 1.81,-0.13 2.65,-0.4 0.84,-0.27 1.8,-0.72 2.89,-1.36l0 -2.51 -5.55 0z"/>
  <polygon id="3" class="fil9" points="1654.99,902.26 1663.31,902.26 1663.31,929.1 1654.99,929.1 "/>
  <path id="4" class="fil9" d="M1667.81 920.22l7.87 -0.5c0.17,1.28 0.52,2.25 1.04,2.92 0.86,1.08 2.08,1.62 3.66,1.62 1.19,0 2.1,-0.27 2.74,-0.83 0.64,-0.56 0.96,-1.2 0.96,-1.93 0,-0.69 -0.3,-1.32 -0.91,-1.87 -0.61,-0.55 -2.02,-1.06 -4.23,-1.55 -3.64,-0.82 -6.23,-1.9 -7.78,-3.26 -1.56,-1.35 -2.34,-3.07 -2.34,-5.17 0,-1.38 0.4,-2.67 1.2,-3.9 0.8,-1.23 2,-2.19 3.61,-2.89 1.6,-0.7 3.8,-1.05 6.59,-1.05 3.43,0 6.04,0.64 7.84,1.92 1.8,1.27 2.87,3.3 3.21,6.09l-7.79 0.46c-0.21,-1.22 -0.65,-2.11 -1.31,-2.65 -0.67,-0.56 -1.58,-0.84 -2.75,-0.84 -0.97,0 -1.7,0.21 -2.18,0.62 -0.49,0.4 -0.73,0.9 -0.73,1.49 0,0.42 0.2,0.81 0.59,1.15 0.38,0.35 1.3,0.68 2.77,0.99 3.62,0.78 6.21,1.57 7.77,2.37 1.57,0.8 2.72,1.79 3.43,2.97 0.71,1.18 1.07,2.51 1.07,3.98 0,1.71 -0.48,3.3 -1.43,4.76 -0.95,1.45 -2.28,2.55 -3.99,3.3 -1.71,0.75 -3.86,1.13 -6.45,1.13 -4.56,0 -7.73,-0.89 -9.48,-2.64 -1.76,-1.76 -2.75,-3.99 -2.98,-6.69z"/>
  <polygon id="5" class="fil9" points="1694.43,902.26 1719.65,902.26 1719.65,908.89 1711.18,908.89 1711.18,929.1 1702.9,929.1 1702.9,908.89 1694.43,908.89 "/>
  <path id="6" class="fil9" d="M1723.48 929.1l0 -26.84 13.82 0c2.56,0 4.52,0.22 5.87,0.66 1.36,0.44 2.45,1.26 3.28,2.44 0.83,1.2 1.25,2.65 1.25,4.36 0,1.49 -0.32,2.78 -0.96,3.86 -0.63,1.09 -1.51,1.96 -2.62,2.64 -0.71,0.42 -1.68,0.78 -2.92,1.06 0.99,0.33 1.71,0.65 2.16,0.98 0.3,0.22 0.74,0.7 1.32,1.42 0.58,0.71 0.97,1.27 1.16,1.66l4.03 7.76 -9.37 0 -4.43 -8.19c-0.56,-1.06 -1.06,-1.75 -1.5,-2.07 -0.6,-0.41 -1.28,-0.61 -2.04,-0.61l-0.73 0 0 10.87 -8.32 0zm8.32 -15.93l3.51 0c0.37,0 1.11,-0.13 2.2,-0.37 0.55,-0.11 1,-0.39 1.34,-0.85 0.35,-0.45 0.52,-0.97 0.52,-1.56 0,-0.87 -0.27,-1.53 -0.82,-2 -0.55,-0.46 -1.58,-0.7 -3.1,-0.7l-3.65 0 0 5.48z"/>
  <path id="7" class="fil9" d="M1750.83 915.7c0,-4.38 1.22,-7.79 3.66,-10.23 2.45,-2.44 5.84,-3.66 10.2,-3.66 4.47,0 7.91,1.2 10.33,3.59 2.42,2.4 3.62,5.76 3.62,10.08 0,3.13 -0.52,5.7 -1.58,7.71 -1.05,2 -2.58,3.56 -4.58,4.68 -2,1.12 -4.48,1.68 -7.46,1.68 -3.03,0 -5.53,-0.48 -7.52,-1.45 -1.98,-0.97 -3.59,-2.49 -4.82,-4.58 -1.23,-2.08 -1.85,-4.69 -1.85,-7.82zm8.29 0.01c0,2.71 0.5,4.66 1.51,5.84 1.01,1.18 2.38,1.77 4.12,1.77 1.78,0 3.17,-0.58 4.14,-1.73 0.98,-1.17 1.47,-3.24 1.47,-6.24 0,-2.53 -0.51,-4.37 -1.53,-5.53 -1.03,-1.17 -2.41,-1.75 -4.16,-1.75 -1.67,0 -3.02,0.59 -4.03,1.77 -1.02,1.18 -1.52,3.15 -1.52,5.87z"/>
  <path id="8" class="fil9" d="M1781.68 920.22l7.87 -0.5c0.17,1.28 0.52,2.25 1.04,2.92 0.86,1.08 2.08,1.62 3.66,1.62 1.19,0 2.1,-0.27 2.73,-0.83 0.65,-0.56 0.97,-1.2 0.97,-1.93 0,-0.69 -0.3,-1.32 -0.91,-1.87 -0.61,-0.55 -2.02,-1.06 -4.23,-1.55 -3.64,-0.82 -6.23,-1.9 -7.78,-3.26 -1.56,-1.35 -2.34,-3.07 -2.34,-5.17 0,-1.38 0.4,-2.67 1.2,-3.9 0.8,-1.23 2,-2.19 3.61,-2.89 1.6,-0.7 3.8,-1.05 6.59,-1.05 3.43,0 6.04,0.64 7.84,1.92 1.8,1.27 2.87,3.3 3.21,6.09l-7.79 0.46c-0.21,-1.22 -0.65,-2.11 -1.31,-2.65 -0.67,-0.56 -1.59,-0.84 -2.75,-0.84 -0.97,0 -1.7,0.21 -2.18,0.62 -0.49,0.4 -0.74,0.9 -0.74,1.49 0,0.42 0.21,0.81 0.6,1.15 0.38,0.35 1.3,0.68 2.77,0.99 3.62,0.78 6.21,1.57 7.77,2.37 1.57,0.8 2.71,1.79 3.43,2.97 0.71,1.18 1.06,2.51 1.06,3.98 0,1.71 -0.47,3.3 -1.42,4.76 -0.96,1.45 -2.28,2.55 -3.99,3.3 -1.71,0.75 -3.86,1.13 -6.45,1.13 -4.56,0 -7.73,-0.89 -9.48,-2.64 -1.76,-1.76 -2.75,-3.99 -2.98,-6.69z"/>
  <polygon class="fil9" points="3002.15,909.57 3013.09,909.57 3017.25,925.89 3021.43,909.57 3032.32,909.57 3032.32,936.4 3025.54,936.4 3025.54,915.94 3020.3,936.4 3014.16,936.4 3008.93,915.94 3008.93,936.4 3002.15,936.4 "/>
  <polygon id="1" class="fil9" points="3037.6,909.57 3059.79,909.57 3059.79,915.3 3045.92,915.3 3045.92,919.57 3058.78,919.57 3058.78,925.05 3045.92,925.05 3045.92,930.33 3060.2,930.33 3060.2,936.4 3037.6,936.4 "/>
  <polygon id="2" class="fil9" points="3064.59,909.57 3075.53,909.57 3079.7,925.89 3083.88,909.57 3094.77,909.57 3094.77,936.4 3087.98,936.4 3087.98,915.94 3082.75,936.4 3076.6,936.4 3071.38,915.94 3071.38,936.4 3064.59,936.4 "/>
  <path id="3" class="fil9" d="M3099 923c0,-4.38 1.21,-7.79 3.66,-10.22 2.44,-2.45 5.84,-3.66 10.2,-3.66 4.46,0 7.91,1.19 10.32,3.59 2.42,2.4 3.63,5.76 3.63,10.07 0,3.14 -0.53,5.71 -1.58,7.71 -1.06,2.01 -2.59,3.57 -4.58,4.69 -2,1.12 -4.49,1.67 -7.47,1.67 -3.02,0 -5.53,-0.48 -7.51,-1.44 -1.98,-0.97 -3.59,-2.49 -4.83,-4.58 -1.23,-2.08 -1.84,-4.69 -1.84,-7.83zm8.28 0.02c0,2.71 0.5,4.66 1.51,5.84 1.01,1.18 2.39,1.77 4.12,1.77 1.78,0 3.17,-0.58 4.14,-1.74 0.99,-1.16 1.47,-3.23 1.47,-6.24 0,-2.52 -0.51,-4.36 -1.53,-5.53 -1.02,-1.16 -2.4,-1.75 -4.15,-1.75 -1.68,0 -3.03,0.6 -4.04,1.78 -1.02,1.18 -1.52,3.14 -1.52,5.87z"/>
  <path id="4" class="fil9" d="M3131.38 936.4l0 -26.83 13.82 0c2.56,0 4.52,0.21 5.87,0.66 1.36,0.43 2.45,1.25 3.28,2.44 0.83,1.19 1.24,2.65 1.24,4.36 0,1.49 -0.32,2.77 -0.95,3.85 -0.63,1.09 -1.51,1.97 -2.63,2.64 -0.7,0.43 -1.68,0.78 -2.91,1.06 0.99,0.33 1.71,0.66 2.16,0.99 0.3,0.22 0.74,0.69 1.32,1.41 0.58,0.72 0.96,1.28 1.16,1.67l4.03 7.75 -9.37 0 -4.43 -8.18c-0.57,-1.06 -1.07,-1.75 -1.5,-2.07 -0.6,-0.41 -1.28,-0.62 -2.04,-0.62l-0.73 0 0 10.87 -8.32 0zm8.32 -15.93l3.5 0c0.38,0 1.12,-0.12 2.2,-0.37 0.55,-0.1 1,-0.38 1.35,-0.84 0.35,-0.46 0.52,-0.97 0.52,-1.56 0,-0.87 -0.27,-1.54 -0.82,-2 -0.55,-0.47 -1.58,-0.7 -3.1,-0.7l-3.65 0 0 5.47z"/>
  <polygon id="5" class="fil9" points="3160.76,909.57 3169.08,909.57 3169.08,936.4 3160.76,936.4 "/>
  <path id="6" class="fil9" d="M3191.52 931.98l-9.4 0 -1.35 4.42 -8.46 0 10.1 -26.83 9.08 0 10.05 26.83 -8.68 0 -1.34 -4.42zm-1.76 -5.81l-2.93 -9.65 -2.94 9.65 5.87 0z"/>
  <path id="7" class="fil9" d="M2999.85 962.42l12.32 0c2.43,0 4.39,0.33 5.89,0.99 1.49,0.66 2.73,1.6 3.71,2.83 0.97,1.24 1.68,2.67 2.11,4.31 0.45,1.63 0.67,3.37 0.67,5.2 0,2.86 -0.33,5.09 -0.98,6.67 -0.65,1.58 -1.56,2.9 -2.72,3.97 -1.16,1.07 -2.41,1.78 -3.74,2.14 -1.82,0.48 -3.46,0.73 -4.94,0.73l-12.32 0 0 -26.84zm8.28 6.07l0 14.66 2.04 0c1.73,0 2.97,-0.2 3.71,-0.58 0.73,-0.38 1.3,-1.05 1.72,-2.01 0.42,-0.96 0.63,-2.51 0.63,-4.66 0,-2.84 -0.47,-4.78 -1.4,-5.83 -0.93,-1.05 -2.47,-1.58 -4.63,-1.58l-2.07 0z"/>
  <polygon id="8" class="fil9" points="3028.89,962.42 3051.08,962.42 3051.08,968.16 3037.21,968.16 3037.21,972.43 3050.07,972.43 3050.07,977.9 3037.21,977.9 3037.21,983.18 3051.49,983.18 3051.49,989.26 3028.89,989.26 "/>
  <path id="9" class="fil9" d="M3068.57 962.42l12.32 0c2.43,0 4.4,0.33 5.89,0.99 1.49,0.66 2.73,1.6 3.71,2.83 0.97,1.24 1.68,2.67 2.12,4.31 0.44,1.63 0.66,3.37 0.66,5.2 0,2.86 -0.33,5.09 -0.98,6.67 -0.65,1.58 -1.56,2.9 -2.72,3.97 -1.16,1.07 -2.4,1.78 -3.73,2.14 -1.82,0.48 -3.47,0.73 -4.95,0.73l-12.32 0 0 -26.84zm8.28 6.07l0 14.66 2.04 0c1.74,0 2.97,-0.2 3.71,-0.58 0.73,-0.38 1.3,-1.05 1.72,-2.01 0.42,-0.96 0.63,-2.51 0.63,-4.66 0,-2.84 -0.46,-4.78 -1.39,-5.83 -0.94,-1.05 -2.48,-1.58 -4.63,-1.58l-2.08 0z"/>
  <path id="10" class="fil9" d="M3112.51 984.83l-9.4 0 -1.35 4.43 -8.46 0 10.1 -26.84 9.08 0 10.06 26.84 -8.69 0 -1.34 -4.43zm-1.76 -5.81l-2.93 -9.64 -2.94 9.64 5.87 0z"/>
  <polygon id="11" class="fil9" points="3120.7,962.42 3145.92,962.42 3145.92,969.06 3137.45,969.06 3137.45,989.26 3129.17,989.26 3129.17,969.06 3120.7,969.06 "/>
  <path id="12" class="fil9" d="M3147.31 975.86c0,-4.38 1.22,-7.79 3.66,-10.23 2.44,-2.44 5.84,-3.66 10.2,-3.66 4.47,0 7.91,1.2 10.33,3.59 2.42,2.4 3.62,5.76 3.62,10.08 0,3.14 -0.52,5.7 -1.58,7.71 -1.05,2 -2.58,3.57 -4.58,4.68 -2,1.12 -4.48,1.68 -7.46,1.68 -3.03,0 -5.53,-0.48 -7.52,-1.45 -1.98,-0.96 -3.59,-2.49 -4.82,-4.57 -1.23,-2.08 -1.85,-4.7 -1.85,-7.83zm8.29 0.02c0,2.7 0.5,4.65 1.51,5.83 1.01,1.18 2.38,1.77 4.12,1.77 1.78,0 3.17,-0.58 4.14,-1.73 0.98,-1.16 1.47,-3.24 1.47,-6.24 0,-2.53 -0.51,-4.37 -1.53,-5.53 -1.03,-1.17 -2.41,-1.75 -4.16,-1.75 -1.67,0 -3.02,0.59 -4.03,1.77 -1.02,1.18 -1.52,3.15 -1.52,5.88z"/>
  <path id="13" class="fil9" d="M3178.16 980.38l7.87 -0.49c0.17,1.27 0.52,2.25 1.04,2.91 0.86,1.08 2.08,1.62 3.66,1.62 1.19,0 2.1,-0.27 2.73,-0.83 0.65,-0.56 0.97,-1.2 0.97,-1.93 0,-0.69 -0.3,-1.32 -0.91,-1.87 -0.61,-0.55 -2.02,-1.06 -4.24,-1.55 -3.63,-0.81 -6.22,-1.9 -7.77,-3.26 -1.56,-1.35 -2.34,-3.07 -2.34,-5.17 0,-1.37 0.4,-2.67 1.2,-3.9 0.8,-1.23 2,-2.19 3.6,-2.89 1.61,-0.7 3.81,-1.05 6.6,-1.05 3.43,0 6.04,0.64 7.84,1.92 1.8,1.27 2.87,3.3 3.21,6.09l-7.79 0.46c-0.21,-1.22 -0.65,-2.1 -1.31,-2.65 -0.67,-0.56 -1.59,-0.83 -2.75,-0.83 -0.97,0 -1.7,0.2 -2.19,0.61 -0.48,0.4 -0.73,0.9 -0.73,1.49 0,0.43 0.2,0.81 0.6,1.15 0.38,0.36 1.3,0.68 2.77,0.99 3.62,0.78 6.21,1.57 7.77,2.37 1.57,0.8 2.71,1.79 3.43,2.97 0.71,1.19 1.06,2.51 1.06,3.98 0,1.72 -0.47,3.3 -1.42,4.76 -0.96,1.45 -2.28,2.55 -3.99,3.3 -1.71,0.75 -3.86,1.13 -6.45,1.13 -4.57,0 -7.73,-0.88 -9.48,-2.64 -1.76,-1.75 -2.75,-3.98 -2.98,-6.69z"/>
  <path class="fil9" d="M2593.47 901.46l0 9.39 4.42 1.35 0 8.46 -26.84 -10.1 0 -9.07 26.84 -10.06 0 8.68 -4.42 1.35zm-5.81 1.75l-9.65 2.93 9.65 2.94 0 -5.87z"/>
  <polygon id="1" class="fil9" points="2571.05,888.81 2571.05,880.53 2591.29,880.53 2591.29,867.56 2597.89,867.56 2597.89,888.81 "/>
  <path id="2" class="fil9" d="M2571.05 847.31l0 -8.28 15.99 0c1.58,0 3.08,0.25 4.48,0.74 1.42,0.5 2.65,1.27 3.7,2.33 1.06,1.05 1.79,2.16 2.22,3.31 0.6,1.62 0.9,3.55 0.9,5.81 0,1.3 -0.09,2.73 -0.28,4.27 -0.18,1.54 -0.54,2.84 -1.08,3.87 -0.55,1.04 -1.32,1.99 -2.32,2.85 -0.99,0.86 -2.02,1.45 -3.09,1.76 -1.7,0.52 -3.21,0.77 -4.53,0.77l-15.99 0 0 -8.28 16.37 0c1.46,0 2.6,-0.41 3.42,-1.21 0.83,-0.81 1.24,-1.94 1.24,-3.38 0,-1.41 -0.41,-2.53 -1.22,-3.34 -0.81,-0.81 -1.95,-1.22 -3.44,-1.22l-16.37 0z"/>
  <path class="fil9" d="M1554.98 1472.91l7.87 -0.49c0.17,1.27 0.52,2.25 1.04,2.91 0.86,1.08 2.08,1.62 3.66,1.62 1.19,0 2.1,-0.27 2.73,-0.83 0.65,-0.55 0.97,-1.2 0.97,-1.93 0,-0.69 -0.3,-1.32 -0.91,-1.87 -0.61,-0.55 -2.02,-1.06 -4.23,-1.55 -3.64,-0.81 -6.23,-1.9 -7.78,-3.25 -1.56,-1.35 -2.34,-3.08 -2.34,-5.18 0,-1.37 0.4,-2.67 1.2,-3.9 0.8,-1.23 2,-2.19 3.61,-2.89 1.6,-0.7 3.8,-1.05 6.59,-1.05 3.43,0 6.04,0.64 7.84,1.92 1.8,1.27 2.87,3.3 3.21,6.09l-7.79 0.46c-0.21,-1.21 -0.65,-2.1 -1.31,-2.65 -0.67,-0.56 -1.58,-0.83 -2.75,-0.83 -0.97,0 -1.7,0.2 -2.18,0.61 -0.49,0.41 -0.73,0.91 -0.73,1.49 0,0.43 0.2,0.81 0.59,1.15 0.38,0.36 1.3,0.68 2.77,0.99 3.62,0.78 6.21,1.57 7.77,2.37 1.57,0.8 2.71,1.79 3.43,2.98 0.71,1.18 1.07,2.5 1.07,3.97 0,1.72 -0.48,3.3 -1.43,4.76 -0.95,1.45 -2.28,2.55 -3.99,3.3 -1.71,0.75 -3.86,1.13 -6.45,1.13 -4.56,0 -7.73,-0.88 -9.48,-2.64 -1.76,-1.75 -2.75,-3.98 -2.98,-6.69z"/>
  <polygon id="1" class="fil9" points="1583.81,1454.95 1592.13,1454.95 1592.13,1481.79 1583.81,1481.79 "/>
  <path id="2" class="fil9" d="M1611.55 1472.08l0 -5.58 12.82 0 0 11.41c-2.45,1.67 -4.62,2.82 -6.5,3.42 -1.89,0.61 -4.13,0.91 -6.71,0.91 -3.19,0 -5.79,-0.54 -7.79,-1.63 -2.01,-1.08 -3.56,-2.7 -4.67,-4.85 -1.1,-2.14 -1.65,-4.61 -1.65,-7.39 0,-2.93 0.6,-5.47 1.81,-7.64 1.2,-2.16 2.97,-3.8 5.3,-4.93 1.82,-0.87 4.27,-1.3 7.34,-1.3 2.96,0 5.18,0.27 6.65,0.81 1.47,0.54 2.69,1.37 3.66,2.5 0.97,1.13 1.7,2.56 2.19,4.29l-7.99 1.44c-0.33,-1.02 -0.88,-1.8 -1.67,-2.34 -0.79,-0.54 -1.79,-0.81 -3.01,-0.81 -1.81,0 -3.26,0.63 -4.34,1.89 -1.09,1.26 -1.62,3.26 -1.62,5.99 0,2.9 0.54,4.97 1.63,6.22 1.09,1.24 2.61,1.86 4.56,1.86 0.93,0 1.81,-0.13 2.65,-0.4 0.84,-0.26 1.8,-0.72 2.89,-1.36l0 -2.51 -5.55 0z"/>
  <polygon id="3" class="fil9" points="1629.36,1454.95 1637.1,1454.95 1647.16,1469.77 1647.16,1454.95 1654.99,1454.95 1654.99,1481.79 1647.16,1481.79 1637.15,1467.05 1637.15,1481.79 1629.36,1481.79 "/>
  <polygon id="4" class="fil9" points="1673,1454.95 1695.19,1454.95 1695.19,1460.69 1681.32,1460.69 1681.32,1464.96 1694.18,1464.96 1694.18,1470.43 1681.32,1470.43 1681.32,1475.72 1695.6,1475.72 1695.6,1481.79 1673,1481.79 "/>
  <polygon id="5" class="fil9" points="1698.24,1454.95 1707.38,1454.95 1712.13,1463.21 1716.75,1454.95 1725.78,1454.95 1717.44,1467.95 1726.57,1481.79 1717.24,1481.79 1711.97,1473.17 1706.67,1481.79 1697.41,1481.79 1706.66,1467.8 "/>
  <polygon id="6" class="fil9" points="1727.35,1454.95 1752.58,1454.95 1752.58,1461.59 1744.11,1461.59 1744.11,1481.79 1735.82,1481.79 1735.82,1461.59 1727.35,1461.59 "/>
  <polygon id="7" class="fil9" points="1756.29,1454.95 1778.48,1454.95 1778.48,1460.69 1764.61,1460.69 1764.61,1464.96 1777.47,1464.96 1777.47,1470.43 1764.61,1470.43 1764.61,1475.72 1778.9,1475.72 1778.9,1481.79 1756.29,1481.79 "/>
  <polygon id="8" class="fil9" points="1783.44,1454.95 1791.18,1454.95 1801.24,1469.77 1801.24,1454.95 1809.07,1454.95 1809.07,1481.79 1801.24,1481.79 1791.23,1467.05 1791.23,1481.79 1783.44,1481.79 "/>
  <path id="9" class="fil9" d="M1814.7 1454.95l12.32 0c2.43,0 4.39,0.33 5.89,0.99 1.49,0.66 2.73,1.6 3.71,2.83 0.97,1.24 1.68,2.67 2.11,4.31 0.45,1.64 0.67,3.37 0.67,5.2 0,2.86 -0.33,5.09 -0.98,6.67 -0.65,1.58 -1.56,2.9 -2.72,3.97 -1.16,1.07 -2.41,1.78 -3.74,2.14 -1.82,0.49 -3.46,0.73 -4.94,0.73l-12.32 0 0 -26.84zm8.28 6.07l0 14.66 2.04 0c1.73,0 2.97,-0.19 3.71,-0.58 0.73,-0.38 1.3,-1.05 1.72,-2.01 0.42,-0.96 0.63,-2.51 0.63,-4.66 0,-2.84 -0.47,-4.78 -1.4,-5.83 -0.93,-1.05 -2.47,-1.58 -4.63,-1.58l-2.07 0z"/>
  <polygon class="fil9" points="2334.17,1444.99 2313.37,1436.36 2313.37,1430.89 2334.17,1422.27 2334.17,1428.78 2321.53,1433.65 2334.17,1438.53 "/>
  <polygon id="1" class="fil9" points="2358.91,1444.99 2338.11,1436.36 2338.11,1430.89 2358.91,1422.27 2358.91,1428.78 2346.27,1433.65 2358.91,1438.53 "/>
  <path id="2" class="fil9" d="M2384.26 1447.05l-22.38 0c0.25,-2.21 1.04,-4.29 2.34,-6.23 1.29,-1.95 3.73,-4.25 7.3,-6.9 2.19,-1.62 3.59,-2.85 4.21,-3.69 0.61,-0.85 0.92,-1.65 0.92,-2.4 0,-0.82 -0.3,-1.52 -0.91,-2.1 -0.61,-0.58 -1.37,-0.87 -2.29,-0.87 -0.94,0 -1.73,0.3 -2.33,0.9 -0.61,0.6 -1.01,1.66 -1.22,3.19l-7.46 -0.61c0.29,-2.11 0.83,-3.74 1.61,-4.92 0.78,-1.18 1.88,-2.08 3.3,-2.71 1.43,-0.64 3.39,-0.95 5.91,-0.95 2.62,0 4.65,0.3 6.12,0.9 1.45,0.6 2.6,1.51 3.43,2.75 0.84,1.24 1.26,2.63 1.26,4.17 0,1.63 -0.48,3.19 -1.44,4.68 -0.95,1.49 -2.7,3.12 -5.23,4.91 -1.5,1.03 -2.5,1.76 -3.01,2.18 -0.5,0.41 -1.1,0.95 -1.79,1.63l11.66 0 0 6.07z"/>
  <polygon class="fil9" points="892.59,1387.97 899.6,1387.97 899.6,1380.92 905.52,1380.92 905.52,1387.97 912.57,1387.97 912.57,1393.89 905.52,1393.89 905.52,1400.9 899.6,1400.9 899.6,1393.89 892.59,1393.89 "/>
  <polygon class="fil9" points="2576.76,1520.4 2583.77,1520.4 2583.77,1513.35 2589.69,1513.35 2589.69,1520.4 2596.74,1520.4 2596.74,1526.32 2589.69,1526.32 2589.69,1533.33 2583.77,1533.33 2583.77,1526.32 2576.76,1526.32 "/>
  <path class="fil3" d="M590.73 946.41l0 11.57 -7.67 0 0.03 -34.99 12.18 0c4.35,0 7.63,0.95 9.82,2.85 2.2,1.9 3.3,4.75 3.3,8.54 0,3.6 -1.25,6.5 -3.77,8.71 -2.52,2.22 -5.86,3.32 -10.06,3.32l-3.83 0zm0 -17.52l0 11.69 3.17 0.02c2.14,0 3.76,-0.5 4.84,-1.49 1.08,-0.99 1.62,-2.48 1.6,-4.46 0,-1.92 -0.53,-3.36 -1.6,-4.32 -1.07,-0.96 -2.67,-1.44 -4.8,-1.44l-3.21 0z"/>
  <path id="1" class="fil3" d="M640.39 956.15c-1.85,0.84 -3.63,1.46 -5.36,1.85 -1.73,0.39 -3.61,0.59 -5.62,0.59 -5.44,0 -9.71,-1.53 -12.84,-4.59 -3.12,-3.06 -4.69,-7.42 -4.69,-13.08 0,-5.33 1.71,-9.75 5.12,-13.26 3.4,-3.51 7.9,-5.26 13.47,-5.26 1.89,0 3.59,0.15 5.09,0.43 1.49,0.28 3.02,0.73 4.58,1.35l-2.34 6.15c-1.19,-0.47 -2.34,-0.81 -3.47,-1.04 -1.12,-0.21 -2.33,-0.32 -3.63,-0.32 -2.95,0 -5.48,1.02 -7.6,3.08 -2.13,2.06 -3.19,4.84 -3.19,8.34 0,3.6 0.94,6.43 2.79,8.46 1.87,2.03 4.42,3.06 7.66,3.06 0.92,0 2.02,-0.15 3.3,-0.44 1.28,-0.3 2.59,-0.77 3.92,-1.42l2.81 6.1z"/>
  <path class="fil3" d="M2420.92 767.45l12.78 -34.99 9.01 0 12.49 34.99 -8.3 0 -2.46 -7.44 -12.86 0 -2.39 7.44 -8.27 0zm12.34 -13.42l9.37 0 -3.98 -12.37c-0.13,-0.47 -0.23,-0.88 -0.33,-1.22 -0.09,-0.34 -0.16,-0.78 -0.23,-1.32l-0.19 0c-0.08,0.49 -0.17,0.91 -0.26,1.27 -0.09,0.36 -0.21,0.76 -0.36,1.2l-4.02 12.44z"/>
  <path class="fil3" d="M2425.06 944.24l0 -34.99 12.56 0c3.84,0 6.81,0.74 8.89,2.22 2.08,1.48 3.12,3.56 3.12,6.24 0,1.88 -0.55,3.52 -1.68,4.93 -1.12,1.42 -2.56,2.4 -4.32,2.96l0 0.09c2.26,0.3 4.06,1.19 5.41,2.68 1.34,1.49 2.01,3.3 2.01,5.45 0,3.19 -1.14,5.72 -3.43,7.61 -2.28,1.87 -5.39,2.81 -9.3,2.81l-13.26 0zm7.64 -29.33l0 8.73 3.52 0c1.65,0 2.96,-0.4 3.94,-1.19 0.96,-0.8 1.45,-1.91 1.45,-3.32 0,-1.42 -0.5,-2.48 -1.47,-3.17 -0.98,-0.7 -2.43,-1.05 -4.36,-1.05l-3.08 0zm0 14.45l0 9.22 4.37 0c1.85,0 3.31,-0.44 4.37,-1.3 1.05,-0.88 1.58,-2.06 1.58,-3.56 0,-1.36 -0.52,-2.43 -1.57,-3.21 -1.05,-0.77 -2.52,-1.15 -4.41,-1.15l-4.34 0z"/>
  <path class="fil9" d="M2141.2 1191.7c0,-5.09 0.92,-8.66 2.76,-10.7 1.83,-2.03 4.63,-3.05 8.39,-3.05 1.8,0 3.29,0.22 4.44,0.67 1.17,0.44 2.11,1.02 2.84,1.73 0.74,0.72 1.31,1.47 1.73,2.25 0.42,0.79 0.76,1.71 1.02,2.76 0.5,2 0.75,4.08 0.75,6.26 0,4.86 -0.83,8.42 -2.48,10.68 -1.64,2.25 -4.47,3.38 -8.5,3.38 -2.26,0 -4.08,-0.36 -5.48,-1.08 -1.39,-0.71 -2.53,-1.77 -3.42,-3.16 -0.64,-0.99 -1.15,-2.34 -1.51,-4.05 -0.36,-1.72 -0.54,-3.61 -0.54,-5.69zm7.39 0.02c0,3.41 0.3,5.74 0.9,6.99 0.61,1.25 1.48,1.88 2.63,1.88 0.76,0 1.41,-0.26 1.97,-0.8 0.55,-0.53 0.96,-1.37 1.22,-2.51 0.27,-1.15 0.4,-2.94 0.4,-5.36 0,-3.56 -0.3,-5.96 -0.91,-7.19 -0.61,-1.22 -1.51,-1.83 -2.72,-1.83 -1.23,0 -2.12,0.62 -2.67,1.87 -0.55,1.25 -0.82,3.57 -0.82,6.95z"/>
  <path id="1" class="fil9" d="M2158.11 1230.8l0 27.29 -7.54 0 0 -17.85c-1.22,0.92 -2.4,1.66 -3.54,2.23 -1.14,0.57 -2.57,1.12 -4.29,1.64l0 -6.07c2.53,-0.83 4.51,-1.81 5.91,-2.96 1.4,-1.16 2.5,-2.58 3.3,-4.28l6.16 0z"/>
  <path class="fil9" d="M2284.13 939.84c0,-5.1 0.91,-8.67 2.75,-10.7 1.84,-2.04 4.64,-3.06 8.39,-3.06 1.81,0 3.29,0.23 4.45,0.67 1.16,0.44 2.1,1.02 2.83,1.74 0.74,0.71 1.32,1.46 1.73,2.25 0.43,0.78 0.77,1.7 1.02,2.75 0.5,2 0.75,4.09 0.75,6.26 0,4.87 -0.82,8.43 -2.47,10.68 -1.64,2.26 -4.48,3.39 -8.51,3.39 -2.25,0 -4.08,-0.36 -5.47,-1.08 -1.39,-0.72 -2.53,-1.78 -3.43,-3.17 -0.64,-0.99 -1.14,-2.34 -1.51,-4.05 -0.35,-1.72 -0.53,-3.61 -0.53,-5.68zm7.38 0.01c0,3.41 0.3,5.75 0.91,7 0.6,1.25 1.48,1.87 2.63,1.87 0.75,0 1.41,-0.26 1.96,-0.79 0.56,-0.53 0.97,-1.38 1.23,-2.52 0.26,-1.15 0.39,-2.94 0.39,-5.36 0,-3.56 -0.3,-5.95 -0.9,-7.18 -0.61,-1.23 -1.52,-1.84 -2.72,-1.84 -1.24,0 -2.13,0.62 -2.68,1.87 -0.55,1.25 -0.82,3.57 -0.82,6.95z"/>
  <path id="1" class="fil9" d="M2301.03 978.94l0 27.28 -7.53 0 0 -17.85c-1.22,0.92 -2.4,1.67 -3.55,2.24 -1.14,0.56 -2.57,1.11 -4.29,1.63l0 -6.07c2.54,-0.82 4.51,-1.81 5.91,-2.96 1.41,-1.16 2.51,-2.58 3.3,-4.27l6.16 0z"/>
  <path class="fil9" d="M3609.68 813.9c0,-5.09 0.92,-8.66 2.75,-10.7 1.84,-2.03 4.64,-3.05 8.39,-3.05 1.81,0 3.3,0.22 4.45,0.67 1.16,0.44 2.11,1.02 2.84,1.73 0.73,0.72 1.31,1.47 1.73,2.25 0.42,0.79 0.76,1.71 1.02,2.76 0.5,2 0.75,4.08 0.75,6.26 0,4.86 -0.83,8.42 -2.48,10.68 -1.64,2.25 -4.48,3.38 -8.51,3.38 -2.25,0 -4.08,-0.36 -5.47,-1.08 -1.39,-0.71 -2.53,-1.77 -3.42,-3.16 -0.65,-0.99 -1.15,-2.34 -1.51,-4.05 -0.36,-1.72 -0.54,-3.61 -0.54,-5.69zm7.38 0.02c0,3.41 0.3,5.74 0.91,6.99 0.6,1.25 1.48,1.88 2.63,1.88 0.75,0 1.41,-0.27 1.97,-0.8 0.55,-0.53 0.96,-1.37 1.22,-2.51 0.26,-1.15 0.39,-2.94 0.39,-5.36 0,-3.56 -0.3,-5.96 -0.9,-7.19 -0.61,-1.22 -1.51,-1.83 -2.72,-1.83 -1.24,0 -2.12,0.62 -2.67,1.87 -0.55,1.25 -0.83,3.57 -0.83,6.95z"/>
  <path id="1" class="fil9" d="M3626.58 853l0 27.29 -7.53 0 0 -17.85c-1.22,0.92 -2.4,1.66 -3.54,2.23 -1.15,0.57 -2.58,1.12 -4.29,1.64l0 -6.07c2.53,-0.83 4.51,-1.81 5.9,-2.96 1.41,-1.16 2.51,-2.58 3.3,-4.28l6.16 0z"/>
  <path class="fil9" d="M422.11 795.91c0,-5.09 0.91,-8.66 2.75,-10.7 1.84,-2.03 4.64,-3.05 8.39,-3.05 1.81,0 3.29,0.22 4.45,0.67 1.16,0.44 2.1,1.02 2.83,1.73 0.74,0.72 1.32,1.47 1.74,2.25 0.42,0.79 0.76,1.71 1.01,2.76 0.5,2 0.75,4.08 0.75,6.26 0,4.86 -0.82,8.42 -2.47,10.68 -1.64,2.25 -4.48,3.38 -8.51,3.38 -2.25,0 -4.08,-0.36 -5.47,-1.08 -1.39,-0.71 -2.53,-1.77 -3.43,-3.16 -0.64,-0.99 -1.14,-2.34 -1.51,-4.05 -0.35,-1.72 -0.53,-3.61 -0.53,-5.69zm7.38 0.02c0,3.41 0.3,5.74 0.91,6.99 0.6,1.25 1.48,1.88 2.63,1.88 0.75,0 1.41,-0.27 1.96,-0.8 0.56,-0.53 0.97,-1.37 1.23,-2.51 0.26,-1.15 0.39,-2.94 0.39,-5.36 0,-3.56 -0.3,-5.96 -0.9,-7.19 -0.61,-1.22 -1.52,-1.83 -2.72,-1.83 -1.24,0 -2.13,0.62 -2.68,1.87 -0.55,1.25 -0.82,3.57 -0.82,6.95z"/>
  <path id="1" class="fil9" d="M439.01 835.01l0 27.29 -7.53 0 0 -17.85c-1.22,0.92 -2.4,1.66 -3.55,2.23 -1.14,0.57 -2.57,1.12 -4.29,1.64l0 -6.07c2.54,-0.83 4.51,-1.81 5.91,-2.96 1.41,-1.16 2.51,-2.58 3.3,-4.28l6.16 0z"/>
  <path class="fil3" d="M733.02 1443.95l0 22.18 3.42 0.03 0.03 5.61 -3.45 0 0 7.25 -7.13 0 0.03 -7.25 -14.59 0 0.02 -5.86c1.3,-1.53 2.65,-3.2 4.03,-5.01 1.39,-1.82 2.72,-3.67 4,-5.58 1.28,-1.93 2.48,-3.87 3.59,-5.81 1.11,-1.93 2.05,-3.78 2.83,-5.53l7.22 -0.03zm-15.1 22.18l7.97 0.03 0.03 -12.42c-0.57,1.13 -1.19,2.26 -1.87,3.39 -0.67,1.12 -1.34,2.22 -2.01,3.29 -0.7,1.05 -1.4,2.05 -2.1,3.01 -0.69,0.98 -1.38,1.87 -2.02,2.7z"/>
  <path class="fil10" d="M1521.75 1016.62l-7.5 0 -3 -7.99 -13.99 0 -3 7.99 -6.99 0 12.99 -34.48 7.49 0 14 34.48zm1663.62 -157.41l12.49 0 3.5 0 3 0.5 2.5 1.5 2.5 1.5 2 2.5 1.5 3.49 0.5 3.5 0.5 4.5 -0.5 4 -0.5 3.49 -1.5 3 -2.5 3 -2 1.5 -2.5 1 -3 0.5 -3 0.5 -12.99 0 0 -34.48 0 0zm-168.91 229.38l-8.99 -34.48 4.49 0 5 22.48 1.5 7 1 -2.5 0 -1.5 0.5 -1.5 0 -1 6.5 -22.98 5.49 0 5 17.49 1.5 5.99 1 6 1 -3.5 1 -4 5.49 -21.98 4.5 0 -9.49 34.48 -4.5 0 -7 -26.49 -1 -2.5 0 -1.5 -1 4 -7.49 26.49 -4.5 0 0 0zm42.48 0l0 -34.48 11.99 0 3.5 0 2.5 0.49 2.5 1 2.5 1.5 2.49 2.5 1.5 3 1 4 0.5 4.5 -0.5 3.49 -0.5 3.5 -1 2.5 -1.5 2.5 -1.49 2 -1.5 1 -4 2 -2.5 0 -3 0.5 -12.49 0 0 0zm4.5 -4l7.49 0 3 -0.5 2 -0.5 3 -1.5 1.5 -2 1.5 -2.5 0.5 -3 0 -3.49 0 -5 -1.5 -3.5 -2 -2.5 -2.5 -1.5 -2.5 -0.5 -3.5 0 -6.99 0 0 26.49 0 0zm-36.49 -190.9l-7.49 0 -3 -8 -13.99 0 -3 8 -7 0 13 -34.48 7.49 0 13.99 34.48zm-12.99 -13.99l-4.5 -12.5 -4.99 12.5 9.49 0zm110.44 -114.94l-8.99 -34.48 4.5 0 4.99 22.48 1.5 7 1 -2.5 0 -2 0.5 -1 0 -1 6.5 -22.98 5.5 0 4.99 17.49 1.5 5.99 1 6 2 -7.49 5.5 -21.99 4.49 0 -9.49 34.48 -4.5 0 -6.99 -26.49 -1 -2.5 0 -1.5 -1 4 -7.5 26.49 -4.5 0 0 0zm41.98 0l0 -34.48 24.99 0 0 3.99 -20.49 0 0 10.5 18.99 0 0 4 -18.99 0 0 11.99 21.49 0 0 4 -25.99 0zm25.99 99.95l0 22.98 5 0 2.49 0 1.5 -0.5 3 -1 1 -1.49 0.5 -2 0.5 -3 0.5 -3.5 -0.5 -3.5 -0.5 -2.5 -1 -2 -1 -1.5 -1.5 -1 -1.5 -0.49 -2 0 -3.49 -0.5 -3 0 0 0zm-2404.24 -23.49l-7.49 0 -3 -8 -13.99 0 -3 8 -7 0 12.99 -34.48 7.5 0 13.99 34.48zm228.38 -34.48l12.5 0 3.99 0 2.5 0.5 3 1 2.5 1.99 2 2.5 1 3 1 4 0.5 4.5 -0.5 3.99 -1 3 -1.5 3.5 -2 3 -2 1.5 -3 1 -2.5 0.5 -3.49 0.5 -13 0 0 -34.48 0 0zm7 5.49l0 22.99 5 0 2.49 0 1.5 -0.5 3 -1.5 1 -1 1 -2 0.5 -2.99 0 -3.5 0 -3.5 -0.5 -2.5 -2 -3.5 -3.5 -1.5 -1.99 -0.5 -3.5 0 -3 0 0 0zm-248.37 15l-4.5 -12.5 -4.99 12.5 9.49 0zm746.61 -25.99l-7.5 0 -3 -8 -13.99 0 -3 8 -6.99 0 12.99 -34.48 7.49 0 14 34.48zm303.34 108.94l12.49 0 4 0 2.5 0.5 3 1 2.49 2 2 2.5 1 3 1 3.99 0.5 4.5 -0.5 4 -0.5 3 -2 3.5 -2 3 -1.99 1.49 -3 1 -2.5 0.5 -3.5 0.5 -12.99 0 0 -34.48 0 0zm49.47 -108.94l-6.5 0 0 -25.49 -3.99 3 -4.5 2 0 -6 2.5 -1 3 -2 2.49 -2.49 1.5 -3 5.5 0 0 34.98 0 0zm-49.47 -34.48l12.49 0 4 0 2.5 0.5 3 1 2.49 1.99 2 2.5 1 3 1 4 0.5 4.5 -0.5 4 -0.5 2.99 -2 3.5 -2 3 -1.99 1.5 -3 1 -2.5 0.5 -3.5 0.5 -12.99 0 0 -34.48 0 0zm6.99 5.49l0 22.99 5 0 2.5 0 1.5 -0.5 3 -1.5 1 -1 1 -2 0.5 -2.99 0 -3.5 0 -3.5 -0.5 -2.5 -2 -3.5 -3.5 -1.5 -2 0 -3.5 -0.5 -3 0 0 0zm47.98 165.92l0 6.49 -22.99 0 0.5 -3.49 1.5 -3.5 3 -3.5 4.49 -4.5 3.5 -3.5 2 -2 1 -1.99 0 -2 0 -2 -1 -1.5 -1.5 -1 -1.5 0 -1.99 0 -1.5 1 -1 1.5 -0.5 2.5 -6.5 -0.5 1.5 -4.5 2 -3.5 3.5 -1.5 4.49 -0.5 4.5 0.5 3.5 2 2 3 1 4 -1 4.49 -2.5 4 -2 2 -2.5 2.5 -2.5 2.5 -1.5 1.5 -0.99 1.5 12.99 0 0 0zm-47.98 -22.49l0 22.99 5 0 2.5 0 1.5 -0.5 3 -1.5 1 -1 1 -2 0.5 -3 0 -3.5 0 -3.5 -0.5 -2.49 -2 -3.5 -3.5 -1.5 -2 0 -3.5 -0.5 -3 0 0 0zm-174.41 -151.92l-8.99 -34.48 4.5 0 4.99 22.48 1.5 7 1 -2.5 0.5 -2 0 -1 0.5 -0.99 6.5 -22.99 5.5 0 4.99 17.49 1.5 5.99 1 6 1 -3.5 1 -3.99 5 -21.99 5 0 -9.5 34.48 -4.5 0 -7.49 -26.49 -0.5 -2.5 -0.5 -1.5 -1 4 -7.5 26.49 -4.5 0 0 0zm41.48 0l0 -34.48 24.49 0 0 3.99 -19.99 0 0 10.5 18.49 0 0 4 -18.49 0 0 11.99 20.99 0 0 4 -25.49 0zm-157.91 37.48l-6.5 0 0 -25.49 -4 3 -4.5 2 0 -6 2.5 -1 3 -2 2.5 -2.49 1.5 -3 5.5 0 0 34.98 0 0zm-32.49 -13.99l-4.49 -12.5 -5 12.5 9.49 0zm37.98 150.92l0 6.49 -22.98 0 0.49 -3.49 1.5 -3.5 3 -3.5 4.5 -4.5 3.5 -3.5 2 -2 1 -1.99 0 -2 0 -2 -1 -1.5 -1.5 -1 -1.5 0 -2 0 -1.5 1 -1 1.5 -0.5 2.5 -6.5 -0.5 1.5 -4.5 2 -3.5 3.5 -1.5 4.5 -0.5 4.5 0.5 3.5 2 1.99 3 1 4 -1 4.49 -2.49 4 -2 2 -2.5 2.5 -2.5 2.5 -1.5 1.5 -1 1.5 12.99 0 0 0zm-24.98 6.49l-7.5 0 -3 -7.99 -13.99 0 -3 7.99 -6.99 0 12.99 -34.48 7.49 0 14 34.48zm-13 -13.99l-4.49 -12.49 -5 12.49 9.49 0zm62.47 148.42l4 -0.5 1 3 1.5 2 2 1.5 2.5 0.5 2.49 -0.5 2.5 -1.5 1.5 -2.5 0.5 -3 -0.5 -2.5 -1.5 -2 -2 -1.49 -2.99 -0.5 -3 0.5 0.5 -3.5 1 0 2.49 -0.5 2 -1 2 -2 0.5 -2.5 -0.5 -2 -1.5 -1.5 -1.5 -1.5 -2.5 0 -1.99 0 -2 1.5 -1.5 2 -0.5 2.5 -4.5 -1 1.5 -3.5 2.5 -3 3 -1.5 3.49 -0.49 3 0 2.5 0.99 2 1.5 1.5 2 1 2 0 2 0 2.5 -1 1.5 -1.5 2 -2 1 2.5 1 2 1.99 1.5 2.5 0.5 3 -1 4.5 -2.5 3 -3.5 2.5 -5 1 -3.99 -1 -3.5 -2 -2 -3 -1 -4 0 0zm-31.98 9.5l0 -34.48 11.49 0 3.5 0 2.5 0.49 2.5 1 2.5 1.5 2.49 2.5 1.5 3 1 4 0.5 4.5 -0.5 3.49 -0.5 3.5 -2.5 5 -2.99 3 -4 1.5 -5.5 1 -11.99 0 0 0zm4.5 -4l6.99 0 3 -0.5 2.5 -0.5 3 -1.5 1 -2 1.5 -2.5 0.5 -3 0 -3.49 -0.5 -5 -1 -3.5 -2 -2.5 -2.5 -1.5 -2 -0.5 -3.5 0 -6.99 0 0 26.49 0 0zm-46.98 4l-9 -34.48 4.5 0 5 22.48 1.5 7 0.5 -2.5 0.5 -2 0.5 -1 0 -1 6.49 -22.98 5.5 0 5 17.49 1.5 5.99 1 6 1 -3.5 1 -4 5.49 -21.98 4.5 0 -9.49 34.48 -4.5 0 -7 -26.49 -1 -2.5 0 -1.5 -1.5 4 -6.99 26.49 -4.5 0 0 0zm27.48 -81.46l6 -1 0.5 2.5 1 1.5 1.5 1 2 0.5 2 -0.5 1.5 -1.5 1 -1.5 0 -2.5 0 -2 -1 -2 -1.5 -1 -2 -0.5 -3 0.5 1 -5.49 2 0 2 -1 1 -1.5 0.5 -2 -0.5 -1.5 -1 -1 -1 -1 -1.5 0 -1.5 0 -1.5 1 -0.5 1.5 -0.5 2 -5.99 -1 0.49 -3 1 -2 1.5 -2 2 -1 2.5 -1 2.5 0 4.5 0.5 3.5 2.5 1.49 2.5 1 3 -0.5 2.5 -0.99 2 -1.5 1.49 -2 1.5 2.5 1 1.99 2 1.5 2.5 0.5 3 -1 4 -2.49 3.5 -3.5 2.49 -4.5 1 -4 -1 -3.5 -1.99 -2.5 -3 -1 -4 0 0zm-15.49 -4.5l-4.49 -12.49 -5 12.49 9.49 0z"/>
  <polygon class="fil11 str0" points="1927.03,464.92 1997.5,464.92 1997.5,1645.29 1927.03,1645.29 "/>
  <polygon class="fil11 str0" points="2645.66,464.92 2716.62,464.92 2716.62,1645.29 2645.66,1645.29 "/>
  <polygon class="fil11 str0" points="3254.84,464.92 3325.3,464.92 3325.3,1645.29 3254.84,1645.29 "/>
  <polygon class="fil12" points="1978.01,464.92 1962.02,483.41 1946.52,464.92 "/>
  <polygon class="fil0 str0" points="1978.01,464.92 1962.02,483.41 1946.52,464.92 "/>
  <polygon class="fil12" points="2696.63,464.92 2681.14,483.41 2665.65,464.92 "/>
  <polygon class="fil0 str0" points="2696.63,464.92 2681.14,483.41 2665.65,464.92 "/>
  <polygon class="fil12" points="3305.81,464.92 3289.82,483.41 3274.32,464.92 "/>
  <polygon class="fil0 str0" points="3305.81,464.92 3289.82,483.41 3274.32,464.92 "/>
  <polygon class="fil12" points="1079.48,464.92 1079.48,1645.29 1149.94,1645.29 1149.94,464.92 "/>
  <polygon class="fil0 str0" points="1079.48,464.92 1149.94,464.92 1149.94,1645.29 1079.48,1645.29 "/>
  <polygon class="fil12" points="1130.45,464.92 1114.46,483.41 1098.97,464.92 "/>
  <polygon class="fil0 str0" points="1130.45,464.92 1114.46,483.41 1098.97,464.92 "/>
  <path class="fil13" d="M1115.96 322.35l0 15.19 -2 0 0 -15.19 2 0zm0 20.55l0 15.19 -2 0 0 -15.19 2 0zm0 20.55l0 15.19 -2 0 0 -15.19 2 0zm0 20.55l0 14.74 -2 0 0 -14.74 2 0zm0 20.55l0 14.74 -2 0 0 -14.74 2 0zm0 20.55l0 14.74 -2 0 0 -14.74 2 0zm0 20.55l0 14.75 -2 0 0 -14.75 2 0zm0 20.11l0 15.19 -2 0 0 -15.19 2 0zm0 20.55l0 15.19 -2 0 0 -15.19 2 0zm0 20.55l0 14.74 -2 0 0 -14.74 2 0zm0 20.55l0 14.74 -2 0 0 -14.74 2 0zm0 20.55l0 14.74 -2 0 0 -14.74 2 0zm0 20.55l0 14.74 -2 0 0 -14.74 2 0zm0 20.1l0 15.19 -2 0 0 -15.19 2 0zm0 20.56l0 15.18 -2 0 0 -15.18 2 0zm0 20.55l0 14.74 -2 0 0 -14.74 2 0zm0 20.55l0 14.74 -2 0 0 -14.74 2 0zm0 20.55l0 14.74 -2 0 0 -14.74 2 0zm0 20.55l0 14.74 -2 0 0 -14.74 2 0zm0 20.1l0 15.19 -2 0 0 -15.19 2 0zm0 20.55l0 15.19 -2 0 0 -15.19 2 0zm0 20.55l0 14.75 -2 0 0 -14.75 2 0zm0 20.55l0 14.75 -2 0 0 -14.75 2 0zm0 20.55l0 14.75 -2 0 0 -14.75 2 0zm0 20.56l0 14.74 -2 0 0 -14.74 2 0zm0 20.1l0 15.19 -2 0 0 -15.19 2 0zm0 20.55l0 15.19 -2 0 0 -15.19 2 0zm0 20.55l0 14.74 -2 0 0 -14.74 2 0zm0 20.55l0 14.74 -2 0 0 -14.74 2 0zm0 20.55l0 14.74 -2 0 0 -14.74 2 0zm0 20.55l0 14.75 -2 0 0 -14.75 2 0zm0 20.11l0 15.19 -2 0 0 -15.19 2 0zm0 20.55l0 15.19 -2 0 0 -15.19 2 0zm0 20.55l0 14.74 -2 0 0 -14.74 2 0zm0 20.55l0 14.74 -2 0 0 -14.74 2 0zm0 20.55l0 14.74 -2 0 0 -14.74 2 0zm0 20.55l0 14.74 -2 0 0 -14.74 2 0zm0 20.1l0 15.19 -2 0 0 -15.19 2 0zm0 20.56l0 15.18 -2 0 0 -15.18 2 0zm0 20.55l0 14.74 -2 0 0 -14.74 2 0zm0 20.55l0 14.74 -2 0 0 -14.74 2 0zm0 20.55l0 14.74 -2 0 0 -14.74 2 0zm0 20.55l0 14.74 -2 0 0 -14.74 2 0zm0 20.1l0 15.19 -2 0 0 -15.19 2 0zm0 20.55l0 15.19 -2 0 0 -15.19 2 0zm0 20.55l0 14.75 -2 0 0 -14.75 2 0zm0 20.55l0 14.75 -2 0 0 -14.75 2 0zm0 20.56l0 14.74 -2 0 0 -14.74 2 0zm0 20.55l0 14.74 -2 0 0 -14.74 2 0zm0 20.1l0 15.19 -2 0 0 -15.19 2 0zm0 20.55l0 15.19 -2 0 0 -15.19 2 0zm0 20.55l0 14.74 -2 0 0 -14.74 2 0zm0 20.55l0 14.74 -2 0 0 -14.74 2 0zm0 20.55l0 14.75 -2 0 0 -14.75 2 0zm0 20.55l0 14.75 -2 0 0 -14.75 2 0zm0 20.11l0 15.19 -2 0 0 -15.19 2 0zm0 20.55l0 15.19 -2 0 0 -15.19 2 0zm0 20.55l0 14.74 -2 0 0 -14.74 2 0zm0 20.55l0 14.74 -2 0 0 -14.74 2 0zm0 20.55l0 14.74 -2 0 0 -14.74 2 0zm0 20.55l0 14.74 -2 0 0 -14.74 2 0zm0 20.1l0 15.19 -2 0 0 -15.19 2 0zm0 20.56l0 15.18 -2 0 0 -15.18 2 0zm0 20.55l0 14.74 -2 0 0 -14.74 2 0zm0 20.55l0 14.74 -2 0 0 -14.74 2 0zm0 20.55l0 14.74 -2 0 0 -14.74 2 0zm0 20.55l0 14.74 -2 0 0 -14.74 2 0zm0 20.1l0 15.19 -2 0 0 -15.19 2 0zm0 20.55l0 15.19 -2 0 0 -15.19 2 0zm0 20.55l0 14.75 -2 0 0 -14.75 2 0zm0 20.55l0 14.75 -2 0 0 -14.75 2 0zm0 20.56l0 14.74 -2 0 0 -14.74 2 0zm0 20.55l0 3.12 -2 0 0 -3.12 2 0z"/>
  <polygon class="fil10" points="1175.43,778.75 1175.43,807.74 1179.43,807.74 1179.43,778.75 "/>
  <path class="fil13" d="M1963.01 322.35l0 15.19 -1.99 0 0 -15.19 1.99 0zm0 20.55l0 15.19 -1.99 0 0 -15.19 1.99 0zm0 20.55l0 15.19 -1.99 0 0 -15.19 1.99 0zm0 20.55l0 14.74 -1.99 0 0 -14.74 1.99 0zm0 20.55l0 14.74 -1.99 0 0 -14.74 1.99 0zm0 20.55l0 14.74 -1.99 0 0 -14.74 1.99 0zm0 20.55l0 14.75 -1.99 0 0 -14.75 1.99 0zm0 20.11l0 15.19 -1.99 0 0 -15.19 1.99 0zm0 20.55l0 15.19 -1.99 0 0 -15.19 1.99 0zm0 20.55l0 14.74 -1.99 0 0 -14.74 1.99 0zm0 20.55l0 14.74 -1.99 0 0 -14.74 1.99 0zm0 20.55l0 14.74 -1.99 0 0 -14.74 1.99 0zm0 20.55l0 14.74 -1.99 0 0 -14.74 1.99 0zm0 20.1l0 15.19 -1.99 0 0 -15.19 1.99 0zm0 20.56l0 15.18 -1.99 0 0 -15.18 1.99 0zm0 20.55l0 14.74 -1.99 0 0 -14.74 1.99 0zm0 20.55l0 14.74 -1.99 0 0 -14.74 1.99 0zm0 20.55l0 14.74 -1.99 0 0 -14.74 1.99 0zm0 20.55l0 14.74 -1.99 0 0 -14.74 1.99 0zm0 20.1l0 15.19 -1.99 0 0 -15.19 1.99 0zm0 20.55l0 15.19 -1.99 0 0 -15.19 1.99 0zm0 20.55l0 14.75 -1.99 0 0 -14.75 1.99 0zm0 20.55l0 14.75 -1.99 0 0 -14.75 1.99 0zm0 20.55l0 14.75 -1.99 0 0 -14.75 1.99 0zm0 20.56l0 14.74 -1.99 0 0 -14.74 1.99 0zm0 20.1l0 15.19 -1.99 0 0 -15.19 1.99 0zm0 20.55l0 15.19 -1.99 0 0 -15.19 1.99 0zm0 20.55l0 14.74 -1.99 0 0 -14.74 1.99 0zm0 20.55l0 14.74 -1.99 0 0 -14.74 1.99 0zm0 20.55l0 14.74 -1.99 0 0 -14.74 1.99 0zm0 20.55l0 14.75 -1.99 0 0 -14.75 1.99 0zm0 20.11l0 15.19 -1.99 0 0 -15.19 1.99 0zm0 20.55l0 15.19 -1.99 0 0 -15.19 1.99 0zm0 20.55l0 14.74 -1.99 0 0 -14.74 1.99 0zm0 20.55l0 14.74 -1.99 0 0 -14.74 1.99 0zm0 20.55l0 14.74 -1.99 0 0 -14.74 1.99 0zm0 20.55l0 14.74 -1.99 0 0 -14.74 1.99 0zm0 20.1l0 15.19 -1.99 0 0 -15.19 1.99 0zm0 20.56l0 15.18 -1.99 0 0 -15.18 1.99 0zm0 20.55l0 14.74 -1.99 0 0 -14.74 1.99 0zm0 20.55l0 14.74 -1.99 0 0 -14.74 1.99 0zm0 20.55l0 14.74 -1.99 0 0 -14.74 1.99 0zm0 20.55l0 14.74 -1.99 0 0 -14.74 1.99 0zm0 20.1l0 15.19 -1.99 0 0 -15.19 1.99 0zm0 20.55l0 15.19 -1.99 0 0 -15.19 1.99 0zm0 20.55l0 14.75 -1.99 0 0 -14.75 1.99 0zm0 20.55l0 14.75 -1.99 0 0 -14.75 1.99 0zm0 20.56l0 14.74 -1.99 0 0 -14.74 1.99 0zm0 20.55l0 14.74 -1.99 0 0 -14.74 1.99 0zm0 20.1l0 15.19 -1.99 0 0 -15.19 1.99 0zm0 20.55l0 15.19 -1.99 0 0 -15.19 1.99 0zm0 20.55l0 14.74 -1.99 0 0 -14.74 1.99 0zm0 20.55l0 14.74 -1.99 0 0 -14.74 1.99 0zm0 20.55l0 14.75 -1.99 0 0 -14.75 1.99 0zm0 20.55l0 14.75 -1.99 0 0 -14.75 1.99 0zm0 20.11l0 15.19 -1.99 0 0 -15.19 1.99 0zm0 20.55l0 15.19 -1.99 0 0 -15.19 1.99 0zm0 20.55l0 14.74 -1.99 0 0 -14.74 1.99 0zm0 20.55l0 14.74 -1.99 0 0 -14.74 1.99 0zm0 20.55l0 14.74 -1.99 0 0 -14.74 1.99 0zm0 20.55l0 14.74 -1.99 0 0 -14.74 1.99 0zm0 20.1l0 15.19 -1.99 0 0 -15.19 1.99 0zm0 20.56l0 15.18 -1.99 0 0 -15.18 1.99 0zm0 20.55l0 14.74 -1.99 0 0 -14.74 1.99 0zm0 20.55l0 14.74 -1.99 0 0 -14.74 1.99 0zm0 20.55l0 14.74 -1.99 0 0 -14.74 1.99 0zm0 20.55l0 14.74 -1.99 0 0 -14.74 1.99 0zm0 20.1l0 15.19 -1.99 0 0 -15.19 1.99 0zm0 20.55l0 15.19 -1.99 0 0 -15.19 1.99 0zm0 20.55l0 14.75 -1.99 0 0 -14.75 1.99 0zm0 20.55l0 14.75 -1.99 0 0 -14.75 1.99 0zm0 20.56l0 14.74 -1.99 0 0 -14.74 1.99 0zm0 20.55l0 3.12 -1.99 0 0 -3.12 1.99 0z"/>
  <path class="fil13" d="M2682.14 322.35l0 15.19 -2 0 0 -15.19 2 0zm0 21l0 14.74 -2 0 0 -14.74 2 0zm0 20.1l0 15.19 -2 0 0 -15.19 2 0zm0 20.55l0 15.19 -2 0 0 -15.19 2 0zm0 20.55l0 14.74 -2 0 0 -14.74 2 0zm0 20.55l0 14.74 -2 0 0 -14.74 2 0zm0 20.55l0 14.75 -2 0 0 -14.75 2 0zm0 20.55l0 14.75 -2 0 0 -14.75 2 0zm0 20.11l0 15.19 -2 0 0 -15.19 2 0zm0 20.55l0 15.19 -2 0 0 -15.19 2 0zm0 20.55l0 14.74 -2 0 0 -14.74 2 0zm0 20.55l0 14.74 -2 0 0 -14.74 2 0zm0 20.55l0 14.74 -2 0 0 -14.74 2 0zm0 20.55l0 14.74 -2 0 0 -14.74 2 0zm0 20.11l0 15.18 -2 0 0 -15.18 2 0zm0 20.55l0 15.19 -2 0 0 -15.19 2 0zm0 20.55l0 14.74 -2 0 0 -14.74 2 0zm0 20.55l0 14.74 -2 0 0 -14.74 2 0zm0 20.55l0 14.74 -2 0 0 -14.74 2 0zm0 20.55l0 14.74 -2 0 0 -14.74 2 0zm0 20.1l0 15.19 -2 0 0 -15.19 2 0zm0 20.55l0 15.19 -2 0 0 -15.19 2 0zm0 20.55l0 14.75 -2 0 0 -14.75 2 0zm0 20.55l0 14.75 -2 0 0 -14.75 2 0zm0 20.56l0 14.74 -2 0 0 -14.74 2 0zm0 20.55l0 14.74 -2 0 0 -14.74 2 0zm0 20.1l0 15.19 -2 0 0 -15.19 2 0zm0 20.55l0 15.19 -2 0 0 -15.19 2 0zm0 20.55l0 14.74 -2 0 0 -14.74 2 0zm0 20.55l0 14.74 -2 0 0 -14.74 2 0zm0 20.55l0 14.75 -2 0 0 -14.75 2 0zm0 20.55l0 14.75 -2 0 0 -14.75 2 0zm0 20.11l0 15.19 -2 0 0 -15.19 2 0zm0 20.55l0 15.19 -2 0 0 -15.19 2 0zm0 20.55l0 14.74 -2 0 0 -14.74 2 0zm0 20.55l0 14.74 -2 0 0 -14.74 2 0zm0 20.55l0 14.74 -2 0 0 -14.74 2 0zm0 20.55l0 14.74 -2 0 0 -14.74 2 0zm0 20.11l0 15.18 -2 0 0 -15.18 2 0zm0 20.55l0 15.19 -2 0 0 -15.19 2 0zm0 20.55l0 14.74 -2 0 0 -14.74 2 0zm0 20.55l0 14.74 -2 0 0 -14.74 2 0zm0 20.55l0 14.74 -2 0 0 -14.74 2 0zm0 20.55l0 14.74 -2 0 0 -14.74 2 0zm0 20.1l0 15.19 -2 0 0 -15.19 2 0zm0 20.55l0 15.19 -2 0 0 -15.19 2 0zm0 20.55l0 14.75 -2 0 0 -14.75 2 0zm0 20.56l0 14.74 -2 0 0 -14.74 2 0zm0 20.55l0 14.74 -2 0 0 -14.74 2 0zm0 20.55l0 14.74 -2 0 0 -14.74 2 0zm0 20.1l0 15.19 -2 0 0 -15.19 2 0zm0 20.55l0 15.19 -2 0 0 -15.19 2 0zm0 20.55l0 14.74 -2 0 0 -14.74 2 0zm0 20.55l0 14.75 -2 0 0 -14.75 2 0zm0 20.55l0 14.75 -2 0 0 -14.75 2 0zm0 20.55l0 14.75 -2 0 0 -14.75 2 0zm0 20.11l0 15.19 -2 0 0 -15.19 2 0zm0 20.55l0 15.19 -2 0 0 -15.19 2 0zm0 20.55l0 14.74 -2 0 0 -14.74 2 0zm0 20.55l0 14.74 -2 0 0 -14.74 2 0zm0 20.55l0 14.74 -2 0 0 -14.74 2 0zm0 20.55l0 14.74 -2 0 0 -14.74 2 0zm0 20.11l0 15.18 -2 0 0 -15.18 2 0zm0 20.55l0 15.19 -2 0 0 -15.19 2 0zm0 20.55l0 14.74 -2 0 0 -14.74 2 0zm0 20.55l0 14.74 -2 0 0 -14.74 2 0zm0 20.55l0 14.74 -2 0 0 -14.74 2 0zm0 20.55l0 14.74 -2 0 0 -14.74 2 0zm0 20.1l0 15.19 -2 0 0 -15.19 2 0zm0 20.55l0 15.19 -2 0 0 -15.19 2 0zm0 20.55l0 14.75 -2 0 0 -14.75 2 0zm0 20.56l0 14.74 -2 0 0 -14.74 2 0zm0 20.55l0 3.12 -2 0 0 -3.12 2 0z"/>
  <path class="fil13" d="M3290.82 322.35l0 15.19 -2 0 0 -15.19 2 0zm0 21l0 14.74 -2 0 0 -14.74 2 0zm0 20.1l0 15.19 -2 0 0 -15.19 2 0zm0 20.55l0 15.19 -2 0 0 -15.19 2 0zm0 20.55l0 14.74 -2 0 0 -14.74 2 0zm0 20.55l0 14.74 -2 0 0 -14.74 2 0zm0 20.55l0 14.75 -2 0 0 -14.75 2 0zm0 20.55l0 14.75 -2 0 0 -14.75 2 0zm0 20.11l0 15.19 -2 0 0 -15.19 2 0zm0 20.55l0 15.19 -2 0 0 -15.19 2 0zm0 20.55l0 14.74 -2 0 0 -14.74 2 0zm0 20.55l0 14.74 -2 0 0 -14.74 2 0zm0 20.55l0 14.74 -2 0 0 -14.74 2 0zm0 20.55l0 14.74 -2 0 0 -14.74 2 0zm0 20.11l0 15.18 -2 0 0 -15.18 2 0zm0 20.55l0 15.19 -2 0 0 -15.19 2 0zm0 20.55l0 14.74 -2 0 0 -14.74 2 0zm0 20.55l0 14.74 -2 0 0 -14.74 2 0zm0 20.55l0 14.74 -2 0 0 -14.74 2 0zm0 20.55l0 14.74 -2 0 0 -14.74 2 0zm0 20.1l0 15.19 -2 0 0 -15.19 2 0zm0 20.55l0 15.19 -2 0 0 -15.19 2 0zm0 20.55l0 14.75 -2 0 0 -14.75 2 0zm0 20.55l0 14.75 -2 0 0 -14.75 2 0zm0 20.56l0 14.74 -2 0 0 -14.74 2 0zm0 20.55l0 14.74 -2 0 0 -14.74 2 0zm0 20.1l0 15.19 -2 0 0 -15.19 2 0zm0 20.55l0 15.19 -2 0 0 -15.19 2 0zm0 20.55l0 14.74 -2 0 0 -14.74 2 0zm0 20.55l0 14.74 -2 0 0 -14.74 2 0zm0 20.55l0 14.75 -2 0 0 -14.75 2 0zm0 20.55l0 14.75 -2 0 0 -14.75 2 0zm0 20.11l0 15.19 -2 0 0 -15.19 2 0zm0 20.55l0 15.19 -2 0 0 -15.19 2 0zm0 20.55l0 14.74 -2 0 0 -14.74 2 0zm0 20.55l0 14.74 -2 0 0 -14.74 2 0zm0 20.55l0 14.74 -2 0 0 -14.74 2 0zm0 20.55l0 14.74 -2 0 0 -14.74 2 0zm0 20.11l0 15.18 -2 0 0 -15.18 2 0zm0 20.55l0 15.19 -2 0 0 -15.19 2 0zm0 20.55l0 14.74 -2 0 0 -14.74 2 0zm0 20.55l0 14.74 -2 0 0 -14.74 2 0zm0 20.55l0 14.74 -2 0 0 -14.74 2 0zm0 20.55l0 14.74 -2 0 0 -14.74 2 0zm0 20.1l0 15.19 -2 0 0 -15.19 2 0zm0 20.55l0 15.19 -2 0 0 -15.19 2 0zm0 20.55l0 14.75 -2 0 0 -14.75 2 0zm0 20.56l0 14.74 -2 0 0 -14.74 2 0zm0 20.55l0 14.74 -2 0 0 -14.74 2 0zm0 20.55l0 14.74 -2 0 0 -14.74 2 0zm0 20.1l0 15.19 -2 0 0 -15.19 2 0zm0 20.55l0 15.19 -2 0 0 -15.19 2 0zm0 20.55l0 14.74 -2 0 0 -14.74 2 0zm0 20.55l0 14.75 -2 0 0 -14.75 2 0zm0 20.55l0 14.75 -2 0 0 -14.75 2 0zm0 20.55l0 14.75 -2 0 0 -14.75 2 0zm0 20.11l0 15.19 -2 0 0 -15.19 2 0zm0 20.55l0 15.19 -2 0 0 -15.19 2 0zm0 20.55l0 14.74 -2 0 0 -14.74 2 0zm0 20.55l0 14.74 -2 0 0 -14.74 2 0zm0 20.55l0 14.74 -2 0 0 -14.74 2 0zm0 20.55l0 14.74 -2 0 0 -14.74 2 0zm0 20.11l0 15.18 -2 0 0 -15.18 2 0zm0 20.55l0 15.19 -2 0 0 -15.19 2 0zm0 20.55l0 14.74 -2 0 0 -14.74 2 0zm0 20.55l0 14.74 -2 0 0 -14.74 2 0zm0 20.55l0 14.74 -2 0 0 -14.74 2 0zm0 20.55l0 14.74 -2 0 0 -14.74 2 0zm0 20.1l0 15.19 -2 0 0 -15.19 2 0zm0 20.55l0 15.19 -2 0 0 -15.19 2 0zm0 20.55l0 14.75 -2 0 0 -14.75 2 0zm0 20.56l0 14.74 -2 0 0 -14.74 2 0zm0 20.55l0 3.12 -2 0 0 -3.12 2 0z"/>
  <path class="fil14" d="M1089.36 277.76c-2.76,1.28 -5.43,2.2 -8.03,2.79 -2.6,0.59 -5.41,0.87 -8.43,0.87 -8.16,0 -14.57,-2.28 -19.26,-6.88 -4.68,-4.59 -7.03,-11.12 -7.03,-19.61 0,-8 2.56,-14.63 7.67,-19.89 5.11,-5.26 11.86,-7.89 20.21,-7.89 2.84,0 5.38,0.22 7.63,0.64 2.24,0.43 4.53,1.1 6.88,2.02l-3.52 9.24c-1.78,-0.72 -3.51,-1.23 -5.2,-1.57 -1.68,-0.32 -3.5,-0.48 -5.45,-0.48 -4.42,0 -8.22,1.53 -11.4,4.62 -3.19,3.09 -4.78,7.26 -4.78,12.51 0,5.41 1.4,9.64 4.19,12.69 2.8,3.05 6.62,4.58 11.48,4.58 1.39,0 3.04,-0.22 4.96,-0.66 1.91,-0.43 3.87,-1.15 5.87,-2.12l4.21 9.14z"/>
  <polygon id="1" class="fil14" points="1128.78,280.51 1097.78,280.51 1097.74,228.03 1109.24,228.03 1109.24,271.18 1128.78,271.18 "/>
  <path id="2" class="fil14" d="M1179.61 280.51l-14.34 0 -15.63 -22.47c-0.17,-0.24 -0.37,-0.6 -0.61,-1.08 -0.23,-0.47 -0.49,-1.06 -0.79,-1.73l-0.17 0 0 25.28 -11.46 0 0 -52.48 11.46 0 0 24.33 0.17 0c0.15,-0.31 0.35,-0.71 0.59,-1.18 0.25,-0.48 0.54,-1.03 0.89,-1.64l14.81 -21.51 13.32 0 -18.33 24.77 20.09 27.71z"/>
  <path class="fil14" d="M3268.71 277.76c-2.76,1.28 -5.43,2.2 -8.03,2.79 -2.6,0.59 -5.41,0.87 -8.43,0.87 -8.16,0 -14.57,-2.28 -19.25,-6.88 -4.69,-4.59 -7.04,-11.12 -7.04,-19.61 0,-8 2.56,-14.63 7.67,-19.89 5.11,-5.26 11.86,-7.89 20.22,-7.89 2.83,0 5.37,0.22 7.62,0.64 2.25,0.43 4.53,1.1 6.88,2.02l-3.52 9.24c-1.77,-0.72 -3.51,-1.23 -5.2,-1.57 -1.67,-0.32 -3.5,-0.48 -5.45,-0.48 -4.42,0 -8.22,1.53 -11.4,4.62 -3.19,3.09 -4.77,7.26 -4.77,12.51 0,5.41 1.39,9.64 4.18,12.69 2.8,3.05 6.62,4.58 11.48,4.58 1.39,0 3.04,-0.22 4.96,-0.66 1.91,-0.43 3.88,-1.15 5.88,-2.12l4.2 9.14z"/>
  <polygon id="1" class="fil14" points="3308.13,280.51 3277.14,280.51 3277.1,228.03 3288.59,228.03 3288.59,271.18 3308.13,271.18 "/>
  <path id="2" class="fil14" d="M3358.97 280.51l-14.35 0 -15.62 -22.47c-0.18,-0.24 -0.38,-0.6 -0.62,-1.08 -0.22,-0.47 -0.48,-1.06 -0.78,-1.73l-0.18 0 0 25.28 -11.46 0 0 -52.48 11.46 0 0 24.33 0.18 0c0.15,-0.31 0.35,-0.71 0.58,-1.18 0.25,-0.48 0.54,-1.03 0.89,-1.64l14.82 -21.51 13.32 0 -18.33 24.77 20.09 27.71z"/>
  <path class="fil14" d="M2658.04 277.76c-2.76,1.28 -5.44,2.2 -8.04,2.79 -2.59,0.59 -5.41,0.87 -8.43,0.87 -8.16,0 -14.57,-2.28 -19.25,-6.88 -4.69,-4.59 -7.04,-11.12 -7.04,-19.61 0,-8 2.57,-14.63 7.68,-19.89 5.11,-5.26 11.85,-7.89 20.21,-7.89 2.84,0 5.37,0.22 7.62,0.64 2.25,0.43 4.54,1.1 6.88,2.02l-3.52 9.24c-1.77,-0.72 -3.51,-1.23 -5.2,-1.57 -1.67,-0.32 -3.49,-0.48 -5.44,-0.48 -4.42,0 -8.22,1.53 -11.41,4.62 -3.18,3.09 -4.77,7.26 -4.77,12.51 0,5.41 1.4,9.64 4.18,12.69 2.8,3.05 6.62,4.58 11.49,4.58 1.38,0 3.03,-0.22 4.96,-0.66 1.91,-0.43 3.87,-1.15 5.87,-2.12l4.21 9.14z"/>
  <polygon id="1" class="fil14" points="2697.45,280.51 2666.46,280.51 2666.42,228.03 2677.91,228.03 2677.91,271.18 2697.45,271.18 "/>
  <path id="2" class="fil14" d="M2748.29 280.51l-14.34 0 -15.63 -22.47c-0.18,-0.24 -0.38,-0.6 -0.61,-1.08 -0.23,-0.47 -0.49,-1.06 -0.79,-1.73l-0.18 0 0 25.28 -11.45 0 0 -52.48 11.45 0 0 24.33 0.18 0c0.15,-0.31 0.35,-0.71 0.59,-1.18 0.25,-0.48 0.53,-1.03 0.88,-1.64l14.82 -21.51 13.32 0 -18.33 24.77 20.09 27.71z"/>
  <path class="fil14" d="M1935.92 277.76c-2.77,1.28 -5.44,2.2 -8.04,2.79 -2.6,0.59 -5.41,0.87 -8.43,0.87 -8.16,0 -14.57,-2.28 -19.25,-6.88 -4.69,-4.59 -7.04,-11.12 -7.04,-19.61 0,-8 2.56,-14.63 7.67,-19.89 5.11,-5.26 11.86,-7.89 20.22,-7.89 2.83,0 5.37,0.22 7.62,0.64 2.25,0.43 4.54,1.1 6.88,2.02l-3.52 9.24c-1.77,-0.72 -3.51,-1.23 -5.2,-1.57 -1.67,-0.32 -3.5,-0.48 -5.44,-0.48 -4.43,0 -8.22,1.53 -11.41,4.62 -3.19,3.09 -4.77,7.26 -4.77,12.51 0,5.41 1.4,9.64 4.18,12.69 2.8,3.05 6.62,4.58 11.48,4.58 1.39,0 3.04,-0.22 4.96,-0.66 1.92,-0.43 3.88,-1.15 5.88,-2.12l4.21 9.14z"/>
  <polygon id="1" class="fil14" points="1975.33,280.51 1944.34,280.51 1944.3,228.03 1955.79,228.03 1955.79,271.18 1975.33,271.18 "/>
  <path id="2" class="fil14" d="M2026.17 280.51l-14.34 0 -15.63 -22.47c-0.18,-0.24 -0.38,-0.6 -0.62,-1.08 -0.22,-0.47 -0.48,-1.06 -0.78,-1.73l-0.18 0 0 25.28 -11.45 0 0 -52.48 11.45 0 0 24.33 0.18 0c0.15,-0.31 0.35,-0.71 0.58,-1.18 0.25,-0.48 0.54,-1.03 0.89,-1.64l14.82 -21.51 13.32 0 -18.33 24.77 20.09 27.71z"/>
  <path class="fil15" d="M1304.27 459.02l-8.61 0 -4.75 -8.71c-0.79,-1.42 -1.55,-2.48 -2.31,-3.18 -0.76,-0.71 -1.63,-1.12 -2.62,-1.21l-2.25 0 0 13.1 -7.63 0 0 -34.99 12.37 0c4.16,0 7.3,0.82 9.42,2.47 2.11,1.65 3.17,4.13 3.17,7.41 0,2.35 -0.68,4.35 -2.04,6.04 -1.36,1.69 -3.22,2.93 -5.6,3.72l0 0.1c1.03,0.32 1.98,0.99 2.86,1.99 0.87,1 1.63,2.06 2.26,3.18l5.73 10.08zm-20.54 -29.23l0 10.34 3.56 0c1.73,0 3.12,-0.52 4.17,-1.57 1.05,-1.05 1.57,-2.35 1.57,-3.89 0,-1.61 -0.47,-2.83 -1.39,-3.65 -0.92,-0.82 -2.32,-1.23 -4.2,-1.23l-3.71 0z"/>
  <path id="1" class="fil15" d="M1329.7 448.31l-16.86 0c0.13,1.98 0.78,3.46 1.93,4.44 1.15,0.97 2.75,1.46 4.8,1.46 0.74,0 1.74,-0.21 3.04,-0.65 1.28,-0.43 2.54,-1.1 3.78,-2l3.26 4.31c-1.72,1.3 -3.49,2.26 -5.3,2.86 -1.82,0.6 -3.8,0.9 -5.97,0.9 -4.09,0 -7.28,-1.14 -9.54,-3.44 -2.26,-2.29 -3.4,-5.49 -3.42,-9.59 0,-4.1 1.2,-7.43 3.6,-9.98 2.4,-2.55 5.44,-3.83 9.12,-3.83 3.52,0 6.34,1.08 8.43,3.23 2.09,2.16 3.13,5.25 3.13,9.29l0 3zm-6.95 -4.66c0,-2.04 -0.39,-3.5 -1.19,-4.41 -0.79,-0.9 -1.94,-1.35 -3.47,-1.35 -1.35,0 -2.51,0.52 -3.49,1.55 -0.97,1.03 -1.57,2.43 -1.78,4.21l9.93 0z"/>
  <path id="2" class="fil15" d="M1359.66 455.97c0,4.27 -1.31,7.81 -3.92,10.6 -2.63,2.79 -6.44,4.19 -11.45,4.19 -1.85,0 -3.58,-0.18 -5.16,-0.53 -1.58,-0.35 -3.16,-0.89 -4.75,-1.62l2.25 -5.08c1.28,0.59 2.53,1.02 3.72,1.29 1.2,0.26 2.55,0.4 4.06,0.4 2.52,0 4.45,-0.74 5.79,-2.2 1.33,-1.46 2,-3.42 2,-5.88l0 -1.88 -0.1 0c-0.91,1.47 -2.04,2.56 -3.39,3.29 -1.35,0.72 -2.92,1.08 -4.69,1.08 -3.27,0 -5.86,-1.15 -7.77,-3.45 -1.91,-2.31 -2.87,-5.37 -2.87,-9.21 0,-4.35 1.07,-7.8 3.2,-10.35 2.13,-2.55 4.95,-3.83 8.45,-3.83 1.57,0 2.95,0.3 4.15,0.91 1.18,0.62 2.15,1.53 2.92,2.75l0.1 0 0 -3.03 7.46 0 0 22.55zm-7.36 -9.18l0 -2.21c0,-1.68 -0.51,-3.1 -1.52,-4.28 -1,-1.17 -2.3,-1.75 -3.9,-1.75 -1.84,0 -3.28,0.7 -4.33,2.12 -1.05,1.42 -1.58,3.42 -1.58,6.01 0,2.22 0.5,3.99 1.49,5.28 0.99,1.29 2.35,1.94 4.07,1.94 1.75,0 3.14,-0.65 4.19,-1.96 1.05,-1.3 1.58,-3.01 1.58,-5.15z"/>
  <path id="3" class="fil15" d="M1370.5 429.99c-1.3,0 -2.37,-0.4 -3.2,-1.19 -0.83,-0.79 -1.24,-1.77 -1.24,-2.94 0,-1.2 0.41,-2.2 1.24,-2.96 0.83,-0.78 1.9,-1.17 3.2,-1.17 1.3,0 2.36,0.39 3.18,1.17 0.82,0.76 1.23,1.76 1.23,2.96 0,1.2 -0.41,2.19 -1.23,2.97 -0.82,0.76 -1.88,1.16 -3.18,1.16zm3.65 29.03l-7.43 0 0 -25.6 7.43 0 0 25.6z"/>
  <path id="4" class="fil15" d="M1379.18 456.87l3.08 -5c0.86,0.67 1.88,1.24 3.06,1.69 1.18,0.47 2.48,0.7 3.92,0.7 1.09,0 1.98,-0.2 2.67,-0.6 0.69,-0.39 1.03,-1 1.03,-1.81 0,-0.67 -0.26,-1.19 -0.8,-1.58 -0.54,-0.38 -1.53,-0.73 -2.98,-1.04 -3.17,-0.68 -5.45,-1.63 -6.83,-2.85 -1.38,-1.22 -2.07,-2.94 -2.07,-5.15 0,-2.57 1.01,-4.61 3.05,-6.15 2.05,-1.53 4.56,-2.29 7.53,-2.29 1.55,0 3,0.19 4.36,0.58 1.36,0.4 2.65,0.99 3.87,1.79l-2.81 4.83c-1.03,-0.65 -1.98,-1.13 -2.89,-1.43 -0.9,-0.3 -1.83,-0.45 -2.79,-0.45 -1.13,0 -2.02,0.21 -2.68,0.63 -0.67,0.42 -1.01,0.97 -1.01,1.64 0,0.73 0.31,1.27 0.91,1.62 0.62,0.35 1.79,0.7 3.51,1.06 2.94,0.6 5.06,1.54 6.36,2.81 1.29,1.26 1.94,2.99 1.94,5.17 0,2.59 -0.98,4.67 -2.94,6.24 -1.94,1.57 -4.53,2.35 -7.75,2.35 -1.76,0 -3.43,-0.23 -5.03,-0.67 -1.59,-0.45 -3.17,-1.15 -4.71,-2.09z"/>
  <path id="5" class="fil15" d="M1420.13 458.6c-0.78,0.35 -1.66,0.6 -2.62,0.77 -0.95,0.17 -1.92,0.26 -2.89,0.26 -2.74,0 -4.8,-0.67 -6.19,-2 -1.39,-1.33 -2.09,-3.32 -2.09,-5.98l0 -12.69 -4.18 -0.02 -0.02 -5.52 4.2 0 0 -5.78 7.44 -2.12 -0.02 7.9 5.85 0 0 5.54 -5.83 -0.02 -0.02 12.25c0,1.04 0.2,1.79 0.61,2.27 0.4,0.47 1.04,0.7 1.9,0.68 0.44,0.02 0.86,-0.03 1.26,-0.16 0.4,-0.12 0.77,-0.27 1.11,-0.42l1.49 5.04z"/>
  <path id="6" class="fil15" d="M1440.3 439.65c-0.32,-0.09 -0.65,-0.15 -0.98,-0.19 -0.33,-0.04 -0.72,-0.06 -1.13,-0.06 -2.04,0 -3.58,0.65 -4.61,1.94 -1.03,1.3 -1.55,3.09 -1.55,5.38l0 12.3 -7.46 0 0 -25.6 7.46 0 0 4.79 0.1 0c0.62,-1.74 1.49,-3.05 2.62,-3.94 1.14,-0.87 2.51,-1.31 4.14,-1.31 0.39,0 0.76,0.03 1.12,0.08 0.36,0.06 0.74,0.13 1.15,0.21l-0.86 6.4z"/>
  <path id="7" class="fil15" d="M1456.97 459.63c-4.22,0 -7.53,-1.19 -9.95,-3.58 -2.43,-2.4 -3.65,-5.63 -3.65,-9.72 0.02,-4.24 1.28,-7.57 3.79,-9.96 2.5,-2.39 5.89,-3.58 10.18,-3.58 4.21,0 7.51,1.19 9.89,3.57 2.38,2.39 3.57,5.56 3.57,9.53 0,4.23 -1.23,7.57 -3.7,10.04 -2.48,2.47 -5.85,3.7 -10.13,3.7zm0.27 -5.73c1.99,0 3.48,-0.66 4.48,-1.98 1,-1.32 1.5,-3.28 1.5,-5.89 0,-2.46 -0.51,-4.33 -1.52,-5.59 -1.01,-1.26 -2.51,-1.89 -4.51,-1.89 -1.97,0 -3.5,0.67 -4.59,2.02 -1.09,1.35 -1.64,3.24 -1.64,5.67 0,2.54 0.54,4.44 1.59,5.73 1.06,1.29 2.62,1.93 4.69,1.93z"/>
  <path id="8" class="fil15" d="M1474 456.87l3.07 -5c0.86,0.67 1.89,1.24 3.07,1.69 1.17,0.47 2.48,0.7 3.91,0.7 1.09,0 1.99,-0.2 2.68,-0.6 0.69,-0.39 1.03,-1 1.03,-1.81 0,-0.67 -0.27,-1.19 -0.81,-1.58 -0.53,-0.38 -1.52,-0.73 -2.97,-1.04 -3.17,-0.68 -5.45,-1.63 -6.83,-2.85 -1.38,-1.22 -2.07,-2.94 -2.07,-5.15 0,-2.57 1.01,-4.61 3.05,-6.15 2.04,-1.53 4.56,-2.29 7.53,-2.29 1.55,0 3,0.19 4.36,0.58 1.35,0.4 2.65,0.99 3.86,1.79l-2.81 4.83c-1.02,-0.65 -1.98,-1.13 -2.89,-1.43 -0.89,-0.3 -1.83,-0.45 -2.78,-0.45 -1.13,0 -2.02,0.21 -2.69,0.63 -0.66,0.42 -1.01,0.97 -1.01,1.64 0,0.73 0.31,1.27 0.92,1.62 0.62,0.35 1.78,0.7 3.51,1.06 2.94,0.6 5.06,1.54 6.35,2.81 1.29,1.26 1.94,2.99 1.94,5.17 0,2.59 -0.97,4.67 -2.93,6.24 -1.95,1.57 -4.54,2.35 -7.75,2.35 -1.76,0 -3.43,-0.23 -5.03,-0.67 -1.6,-0.45 -3.17,-1.15 -4.71,-2.09z"/>
  <polygon id="9" class="fil15" points="1521.44,459.02 1513.8,459.02 1513.8,424.03 1521.44,424.03 "/>
  <path id="10" class="fil15" d="M1553.54 459.02l-7.44 0 0 -14.28c0,-2.05 -0.37,-3.59 -1.11,-4.62 -0.74,-1.03 -1.85,-1.56 -3.33,-1.57 -1.45,0.01 -2.64,0.57 -3.57,1.67 -0.95,1.1 -1.41,2.49 -1.41,4.18l-0.03 14.62 -7.44 0 -0.02 -25.6 7.49 0 -0.03 4.08 0.13 0c0.94,-1.58 2.1,-2.76 3.47,-3.53 1.38,-0.77 2.97,-1.15 4.77,-1.15 2.84,-0.02 4.96,0.85 6.38,2.63 1.43,1.77 2.14,4.4 2.14,7.9l0 15.67z"/>
  <path id="11" class="fil15" d="M1575.9 458.6c-0.78,0.35 -1.66,0.6 -2.62,0.77 -0.95,0.17 -1.92,0.26 -2.89,0.26 -2.74,0 -4.8,-0.67 -6.19,-2 -1.39,-1.33 -2.09,-3.32 -2.09,-5.98l0 -12.69 -4.18 -0.02 -0.02 -5.52 4.2 0 0 -5.78 7.44 -2.12 -0.02 7.9 5.85 0 0 5.54 -5.83 -0.02 -0.02 12.25c0,1.04 0.2,1.79 0.61,2.27 0.4,0.47 1.04,0.7 1.9,0.68 0.44,0.02 0.86,-0.03 1.26,-0.16 0.4,-0.12 0.77,-0.27 1.11,-0.42l1.49 5.04z"/>
  <path id="12" class="fil15" d="M1602.91 448.31l-16.86 0c0.13,1.98 0.78,3.46 1.93,4.44 1.15,0.97 2.75,1.46 4.8,1.46 0.74,0 1.74,-0.21 3.03,-0.65 1.29,-0.43 2.54,-1.1 3.78,-2l3.27 4.31c-1.72,1.3 -3.49,2.26 -5.31,2.86 -1.81,0.6 -3.79,0.9 -5.96,0.9 -4.1,0 -7.28,-1.14 -9.54,-3.44 -2.26,-2.29 -3.4,-5.49 -3.42,-9.59 0,-4.1 1.2,-7.43 3.6,-9.98 2.4,-2.55 5.44,-3.83 9.12,-3.83 3.52,0 6.34,1.08 8.43,3.23 2.09,2.16 3.13,5.25 3.13,9.29l0 3zm-6.95 -4.66c0,-2.04 -0.4,-3.5 -1.19,-4.41 -0.79,-0.9 -1.95,-1.35 -3.47,-1.35 -1.35,0 -2.52,0.52 -3.49,1.55 -0.98,1.03 -1.58,2.43 -1.78,4.21l9.93 0z"/>
  <path id="13" class="fil15" d="M1623.82 439.65c-0.33,-0.09 -0.65,-0.15 -0.99,-0.19 -0.33,-0.04 -0.71,-0.06 -1.13,-0.06 -2.04,0 -3.57,0.65 -4.61,1.94 -1.03,1.3 -1.55,3.09 -1.55,5.38l0 12.3 -7.46 0 0 -25.6 7.46 0 0 4.79 0.11 0c0.61,-1.74 1.49,-3.05 2.62,-3.94 1.13,-0.87 2.51,-1.31 4.14,-1.31 0.38,0 0.76,0.03 1.11,0.08 0.36,0.06 0.75,0.13 1.15,0.21l-0.85 6.4z"/>
  <polygon id="14" class="fil15" points="1628.8,448.11 1628.77,442.87 1642.15,442.87 1642.12,448.11 "/>
  <path id="15" class="fil15" d="M1672.03 448.31l-16.86 0c0.13,1.98 0.78,3.46 1.93,4.44 1.16,0.97 2.76,1.46 4.8,1.46 0.74,0 1.74,-0.21 3.04,-0.65 1.28,-0.43 2.54,-1.1 3.78,-2l3.26 4.31c-1.72,1.3 -3.49,2.26 -5.3,2.86 -1.82,0.6 -3.8,0.9 -5.97,0.9 -4.09,0 -7.28,-1.14 -9.54,-3.44 -2.26,-2.29 -3.4,-5.49 -3.42,-9.59 0,-4.1 1.2,-7.43 3.6,-9.98 2.4,-2.55 5.44,-3.83 9.12,-3.83 3.53,0 6.34,1.08 8.43,3.23 2.09,2.16 3.13,5.25 3.13,9.29l0 3zm-6.95 -4.66c0,-2.04 -0.39,-3.5 -1.18,-4.41 -0.8,-0.9 -1.95,-1.35 -3.48,-1.35 -1.35,0 -2.51,0.52 -3.49,1.55 -0.97,1.03 -1.57,2.43 -1.78,4.21l9.93 0z"/>
  <path id="16" class="fil15" d="M1692.87 458.6c-0.78,0.35 -1.66,0.6 -2.61,0.77 -0.96,0.17 -1.93,0.26 -2.9,0.26 -2.74,0 -4.8,-0.67 -6.19,-2 -1.39,-1.33 -2.09,-3.32 -2.09,-5.98l0 -12.69 -4.17 -0.02 -0.03 -5.52 4.2 0 0 -5.78 7.45 -2.12 -0.03 7.9 5.85 0 0 5.54 -5.82 -0.02 -0.03 12.25c0,1.04 0.2,1.79 0.61,2.27 0.41,0.47 1.04,0.7 1.91,0.68 0.44,0.02 0.85,-0.03 1.25,-0.16 0.4,-0.12 0.77,-0.27 1.11,-0.42l1.49 5.04z"/>
  <path id="17" class="fil15" d="M1718.32 459.02l-7.08 0 0 -3.71 -0.09 0c-0.87,1.44 -1.94,2.51 -3.23,3.24 -1.28,0.72 -2.74,1.08 -4.36,1.08 -2.29,0 -4.2,-0.68 -5.77,-2.03 -1.55,-1.36 -2.34,-3.26 -2.34,-5.68 0,-2.38 0.78,-4.3 2.34,-5.79 1.54,-1.48 3.95,-2.44 7.21,-2.88l6.3 -0.85 0 -0.49c0,-1.31 -0.41,-2.3 -1.23,-2.97 -0.82,-0.67 -1.93,-1 -3.36,-1 -1.1,0 -2.27,0.18 -3.54,0.55 -1.25,0.37 -2.52,0.94 -3.79,1.74l-2.66 -4.42c1.68,-1.04 3.37,-1.8 5.09,-2.29 1.71,-0.49 3.58,-0.73 5.58,-0.73 3.72,0 6.48,0.89 8.25,2.68 1.79,1.79 2.68,4.49 2.68,8.11l0 15.44zm-7.02 -10.39l0 -1.84 -4.86 0.61c-1.38,0.2 -2.39,0.6 -3.06,1.21 -0.66,0.62 -1,1.43 -1,2.46 0,0.94 0.33,1.71 0.98,2.31 0.65,0.61 1.53,0.91 2.64,0.91 1.56,0 2.83,-0.54 3.81,-1.62 0.98,-1.07 1.49,-2.42 1.49,-4.04z"/>
  <path id="18" class="fil15" d="M1732.54 455.97l-0.07 -0.02 -0.03 14.56 -7.43 0 -0.03 -37.09 7.49 0 -0.03 3.95 0.13 -0.02c0.97,-1.53 2.15,-2.67 3.55,-3.43 1.39,-0.75 2.97,-1.13 4.74,-1.13 3.31,0 5.87,1.13 7.67,3.42 1.82,2.27 2.73,5.37 2.73,9.29 0.01,4.27 -1.03,7.68 -3.15,10.26 -2.12,2.58 -4.92,3.87 -8.42,3.87 -1.56,0 -2.93,-0.3 -4.11,-0.9 -1.18,-0.6 -2.19,-1.53 -3.04,-2.76zm-0.19 -10.49l0 2.22c0,1.8 0.49,3.29 1.48,4.45 0.98,1.16 2.27,1.75 3.86,1.75 1.87,0 3.33,-0.74 4.38,-2.18 1.05,-1.46 1.58,-3.51 1.58,-6.14 0,-2.34 -0.47,-4.08 -1.4,-5.27 -0.94,-1.17 -2.31,-1.75 -4.12,-1.74 -1.71,-0.01 -3.1,0.62 -4.17,1.89 -1.08,1.28 -1.61,2.95 -1.61,5.02z"/>
  <path id="19" class="fil15" d="M1777.37 459.02l-7.07 0 0 -3.71 -0.1 0c-0.87,1.44 -1.93,2.51 -3.23,3.24 -1.28,0.72 -2.74,1.08 -4.36,1.08 -2.28,0 -4.2,-0.68 -5.76,-2.03 -1.56,-1.36 -2.34,-3.26 -2.34,-5.68 0,-2.38 0.77,-4.3 2.33,-5.79 1.55,-1.48 3.95,-2.44 7.21,-2.88l6.3 -0.85 0 -0.49c0,-1.31 -0.41,-2.3 -1.23,-2.97 -0.81,-0.67 -1.93,-1 -3.36,-1 -1.09,0 -2.27,0.18 -3.53,0.55 -1.26,0.37 -2.53,0.94 -3.79,1.74l-2.67 -4.42c1.68,-1.04 3.38,-1.8 5.09,-2.29 1.72,-0.49 3.58,-0.73 5.58,-0.73 3.73,0 6.48,0.89 8.26,2.68 1.78,1.79 2.67,4.49 2.67,8.11l0 15.44zm-7.02 -10.39l0 -1.84 -4.86 0.61c-1.37,0.2 -2.39,0.6 -3.05,1.21 -0.67,0.62 -1,1.43 -1,2.46 0,0.94 0.32,1.71 0.97,2.31 0.65,0.61 1.53,0.91 2.64,0.91 1.56,0 2.83,-0.54 3.82,-1.62 0.98,-1.07 1.48,-2.42 1.48,-4.04z"/>
  <path id="20" class="fil15" d="M1781.67 456.87l3.07 -5c0.86,0.67 1.88,1.24 3.07,1.69 1.17,0.47 2.48,0.7 3.91,0.7 1.09,0 1.98,-0.2 2.67,-0.6 0.7,-0.39 1.04,-1 1.04,-1.81 0,-0.67 -0.27,-1.19 -0.81,-1.58 -0.53,-0.38 -1.52,-0.73 -2.97,-1.04 -3.18,-0.68 -5.45,-1.63 -6.83,-2.85 -1.39,-1.22 -2.08,-2.94 -2.08,-5.15 0,-2.57 1.02,-4.61 3.06,-6.15 2.04,-1.53 4.56,-2.29 7.53,-2.29 1.55,0 3,0.19 4.35,0.58 1.36,0.4 2.65,0.99 3.87,1.79l-2.81 4.83c-1.02,-0.65 -1.98,-1.13 -2.89,-1.43 -0.9,-0.3 -1.83,-0.45 -2.79,-0.45 -1.12,0 -2.01,0.21 -2.68,0.63 -0.67,0.42 -1.01,0.97 -1.01,1.64 0,0.73 0.31,1.27 0.92,1.62 0.61,0.35 1.78,0.7 3.5,1.06 2.95,0.6 5.07,1.54 6.36,2.81 1.29,1.26 1.94,2.99 1.94,5.17 0,2.59 -0.97,4.67 -2.93,6.24 -1.95,1.57 -4.54,2.35 -7.76,2.35 -1.75,0 -3.43,-0.23 -5.03,-0.67 -1.59,-0.45 -3.16,-1.15 -4.7,-2.09z"/>
  <polygon class="fil16" points="660.43,1818.54 647.99,1818.54 647.99,1827.34 659.43,1827.34 659.43,1833.57 647.99,1833.57 647.99,1847.28 640.35,1847.28 640.32,1812.29 660.43,1812.29 "/>
  <path id="1" class="fil16" d="M688.73 1836.57l-16.86 0c0.13,1.98 0.78,3.46 1.93,4.44 1.15,0.97 2.75,1.46 4.8,1.46 0.74,0 1.74,-0.21 3.03,-0.65 1.29,-0.43 2.55,-1.1 3.79,-2l3.26 4.31c-1.72,1.3 -3.49,2.26 -5.3,2.86 -1.82,0.6 -3.8,0.9 -5.97,0.9 -4.1,0 -7.28,-1.14 -9.54,-3.44 -2.26,-2.29 -3.4,-5.49 -3.42,-9.59 0,-4.1 1.2,-7.43 3.6,-9.98 2.4,-2.55 5.44,-3.83 9.12,-3.83 3.52,0 6.34,1.08 8.43,3.23 2.09,2.16 3.13,5.25 3.13,9.29l0 3zm-6.95 -4.67c0,-2.03 -0.4,-3.49 -1.19,-4.4 -0.79,-0.9 -1.95,-1.35 -3.47,-1.35 -1.35,0 -2.52,0.52 -3.49,1.55 -0.97,1.03 -1.57,2.43 -1.78,4.2l9.93 0z"/>
  <path id="2" class="fil16" d="M709.57 1846.86c-0.78,0.35 -1.66,0.6 -2.61,0.77 -0.96,0.17 -1.93,0.26 -2.9,0.26 -2.74,0 -4.8,-0.67 -6.19,-2 -1.39,-1.33 -2.09,-3.32 -2.09,-5.98l0 -12.69 -4.18 -0.02 -0.02 -5.52 4.2 0 0 -5.78 7.44 -2.12 -0.02 7.9 5.85 0 0 5.54 -5.83 -0.02 -0.02 12.25c0,1.04 0.2,1.79 0.61,2.27 0.4,0.47 1.04,0.7 1.9,0.68 0.45,0.02 0.86,-0.03 1.26,-0.16 0.4,-0.12 0.77,-0.27 1.11,-0.42l1.49 5.04z"/>
  <path id="3" class="fil16" d="M734.22 1845.6c-1.3,0.8 -2.63,1.37 -3.97,1.74 -1.34,0.36 -2.8,0.55 -4.38,0.55 -4.26,0 -7.59,-1.18 -9.98,-3.55 -2.39,-2.37 -3.59,-5.45 -3.59,-9.24 0,-4.34 1.29,-7.77 3.85,-10.28 2.56,-2.52 5.96,-3.77 10.19,-3.77 1.55,0 2.94,0.15 4.13,0.46 1.2,0.31 2.39,0.8 3.58,1.47l-2.78 5.04c-0.77,-0.43 -1.52,-0.75 -2.25,-0.95 -0.73,-0.19 -1.53,-0.29 -2.39,-0.29 -2.12,0 -3.77,0.69 -4.96,2.05 -1.18,1.37 -1.78,3.29 -1.78,5.76 0,2.38 0.64,4.23 1.92,5.57 1.28,1.33 2.87,2 4.79,2 0.57,0 1.28,-0.12 2.13,-0.36 0.84,-0.23 1.7,-0.62 2.55,-1.16l2.94 4.96z"/>
  <path id="4" class="fil16" d="M763.03 1847.28l-7.41 0 0 -14.57c0,-1.98 -0.36,-3.46 -1.09,-4.43 -0.72,-0.96 -1.81,-1.45 -3.26,-1.45 -1.46,0 -2.65,0.55 -3.59,1.65 -0.92,1.1 -1.38,2.5 -1.36,4.21l-0.03 14.59 -7.43 0 -0.03 -36.99 7.49 0 -0.03 15.25 0.13 -0.02c0.97,-1.5 2.12,-2.62 3.45,-3.36 1.33,-0.74 2.82,-1.11 4.48,-1.11 2.9,0 5.07,0.88 6.51,2.63 1.45,1.74 2.17,4.37 2.17,7.88l0 15.72z"/>
  <polygon class="fil17" points="2271.31,1846.28 2250.47,1846.28 2250.45,1811.29 2270.5,1811.29 2270.5,1817.54 2258.11,1817.54 2258.11,1825.57 2269.65,1825.57 2269.63,1831.79 2258.11,1831.79 2258.11,1840.06 2271.31,1840.06 "/>
  <path id="1" class="fil17" d="M2300.85 1820.68l-8.46 12.47 8.39 13.13 -8.59 0 -3.86 -7.05c-0.14,-0.3 -0.3,-0.63 -0.49,-1 -0.19,-0.38 -0.39,-0.8 -0.6,-1.29l-0.1 0c-0.11,0.32 -0.25,0.66 -0.42,1.03 -0.18,0.36 -0.38,0.76 -0.6,1.19l-3.91 7.12 -8.56 0 8.66 -12.74 -8.15 -12.86 8.64 0 3.8 7.35c0.25,0.47 0.46,0.9 0.63,1.28 0.17,0.38 0.31,0.75 0.4,1.09l0.1 0c0.15,-0.39 0.31,-0.79 0.5,-1.19 0.19,-0.4 0.39,-0.8 0.6,-1.23l3.9 -7.3 8.12 0z"/>
  <path id="2" class="fil17" d="M2326.79 1835.57l-16.86 0c0.13,1.98 0.78,3.46 1.93,4.44 1.15,0.97 2.75,1.46 4.8,1.46 0.74,0 1.74,-0.21 3.03,-0.65 1.29,-0.43 2.54,-1.1 3.79,-2l3.26 4.31c-1.72,1.3 -3.49,2.26 -5.3,2.86 -1.82,0.6 -3.8,0.9 -5.97,0.9 -4.1,0 -7.28,-1.14 -9.54,-3.44 -2.26,-2.29 -3.4,-5.49 -3.42,-9.59 0,-4.1 1.2,-7.43 3.6,-9.98 2.4,-2.55 5.44,-3.83 9.12,-3.83 3.52,0 6.34,1.08 8.43,3.23 2.09,2.16 3.13,5.25 3.13,9.29l0 3zm-6.95 -4.66c0,-2.04 -0.4,-3.5 -1.19,-4.41 -0.79,-0.9 -1.95,-1.35 -3.47,-1.35 -1.35,0 -2.52,0.52 -3.49,1.55 -0.97,1.03 -1.57,2.43 -1.78,4.21l9.93 0z"/>
  <path id="3" class="fil17" d="M2352.36 1844.6c-1.3,0.8 -2.62,1.37 -3.97,1.74 -1.34,0.37 -2.79,0.55 -4.38,0.55 -4.26,0 -7.58,-1.18 -9.97,-3.55 -2.39,-2.37 -3.59,-5.45 -3.59,-9.24 0,-4.34 1.28,-7.77 3.84,-10.28 2.56,-2.52 5.96,-3.77 10.19,-3.77 1.56,0 2.94,0.15 4.13,0.46 1.2,0.31 2.39,0.8 3.58,1.47l-2.78 5.04c-0.76,-0.43 -1.51,-0.75 -2.25,-0.95 -0.73,-0.19 -1.53,-0.29 -2.39,-0.29 -2.11,0 -3.76,0.69 -4.95,2.05 -1.19,1.37 -1.79,3.29 -1.79,5.76 0,2.38 0.64,4.23 1.92,5.57 1.28,1.33 2.87,2 4.8,2 0.56,0 1.27,-0.12 2.12,-0.36 0.84,-0.23 1.7,-0.62 2.56,-1.16l2.93 4.96z"/>
  <path id="4" class="fil17" d="M2380.91 1846.28l-7.42 0 -0.02 -3.91 -0.1 -0.02c-0.96,1.51 -2.09,2.65 -3.4,3.41 -1.31,0.75 -2.79,1.13 -4.43,1.13 -2.99,0 -5.23,-0.89 -6.71,-2.68 -1.48,-1.79 -2.22,-4.49 -2.22,-8.11l0 -15.42 7.44 0 0 14.74c-0.01,1.91 0.35,3.34 1.11,4.3 0.76,0.95 1.88,1.44 3.38,1.44 1.49,0 2.69,-0.53 3.6,-1.58 0.9,-1.05 1.35,-2.46 1.35,-4.24l-0.02 -14.66 7.47 0 -0.03 25.6z"/>
  <path id="5" class="fil17" d="M2403.68 1845.86c-0.78,0.35 -1.65,0.6 -2.61,0.77 -0.96,0.17 -1.93,0.26 -2.9,0.26 -2.74,0 -4.8,-0.67 -6.19,-2 -1.39,-1.33 -2.09,-3.32 -2.09,-5.98l0 -12.69 -4.17 -0.02 -0.03 -5.52 4.2 0 0 -5.78 7.45 -2.12 -0.03 7.9 5.86 0 0 5.54 -5.83 -0.02 -0.03 12.25c0,1.04 0.2,1.79 0.61,2.27 0.41,0.47 1.04,0.7 1.91,0.68 0.44,0.02 0.85,-0.03 1.25,-0.16 0.4,-0.12 0.77,-0.27 1.11,-0.42l1.49 5.04z"/>
  <path id="6" class="fil17" d="M2430.69 1835.57l-16.85 0c0.12,1.98 0.77,3.46 1.92,4.44 1.16,0.97 2.76,1.46 4.81,1.46 0.73,0 1.74,-0.21 3.03,-0.65 1.28,-0.43 2.54,-1.1 3.78,-2l3.27 4.31c-1.73,1.3 -3.49,2.26 -5.31,2.86 -1.82,0.6 -3.8,0.9 -5.96,0.9 -4.1,0 -7.28,-1.14 -9.55,-3.44 -2.26,-2.29 -3.4,-5.49 -3.42,-9.59 0,-4.1 1.2,-7.43 3.6,-9.98 2.4,-2.55 5.44,-3.83 9.12,-3.83 3.53,0 6.34,1.08 8.43,3.23 2.09,2.16 3.13,5.25 3.13,9.29l0 3zm-6.95 -4.66c0,-2.04 -0.39,-3.5 -1.18,-4.41 -0.79,-0.9 -1.95,-1.35 -3.48,-1.35 -1.35,0 -2.51,0.52 -3.49,1.55 -0.97,1.03 -1.57,2.43 -1.78,4.21l9.93 0z"/>
  <path class="fil18" d="M1468.72 1847.28l0 -34.99 12.22 0c6.22,0 10.87,1.42 13.98,4.26 3.11,2.84 4.66,7.1 4.66,12.8 0,5.44 -1.69,9.79 -5.1,13.05 -3.4,3.26 -7.92,4.88 -13.56,4.88l-12.2 0zm7.63 -28.74l0 22.52 4 0c3.5,0 6.24,-1.04 8.22,-3.12 1.99,-2.07 2.99,-4.9 2.99,-8.5 0,-3.42 -0.99,-6.09 -2.94,-8.01 -1.96,-1.93 -4.73,-2.89 -8.32,-2.89l-3.95 0z"/>
  <path id="1" class="fil18" d="M1527.96 1836.57l-16.86 0c0.13,1.98 0.78,3.46 1.93,4.44 1.15,0.97 2.75,1.46 4.8,1.46 0.74,0 1.74,-0.21 3.03,-0.65 1.29,-0.43 2.55,-1.1 3.79,-2l3.26 4.31c-1.72,1.3 -3.49,2.26 -5.3,2.86 -1.82,0.6 -3.8,0.9 -5.97,0.9 -4.1,0 -7.28,-1.14 -9.54,-3.44 -2.26,-2.29 -3.4,-5.49 -3.42,-9.59 0,-4.1 1.2,-7.43 3.6,-9.98 2.4,-2.55 5.44,-3.83 9.12,-3.83 3.52,0 6.34,1.08 8.43,3.23 2.09,2.16 3.13,5.25 3.13,9.29l0 3zm-6.95 -4.67c0,-2.03 -0.4,-3.49 -1.19,-4.4 -0.79,-0.9 -1.95,-1.35 -3.47,-1.35 -1.35,0 -2.52,0.52 -3.49,1.55 -0.97,1.03 -1.57,2.43 -1.78,4.2l9.93 0z"/>
  <path id="2" class="fil18" d="M1553.53 1845.6c-1.3,0.8 -2.62,1.37 -3.96,1.74 -1.34,0.36 -2.8,0.55 -4.38,0.55 -4.27,0 -7.59,-1.18 -9.98,-3.55 -2.39,-2.37 -3.59,-5.45 -3.59,-9.24 0,-4.34 1.28,-7.77 3.85,-10.28 2.55,-2.52 5.95,-3.77 10.18,-3.77 1.56,0 2.94,0.15 4.13,0.46 1.2,0.31 2.39,0.8 3.58,1.47l-2.78 5.04c-0.76,-0.43 -1.51,-0.75 -2.25,-0.95 -0.73,-0.19 -1.53,-0.29 -2.39,-0.29 -2.11,0 -3.76,0.69 -4.95,2.05 -1.18,1.37 -1.78,3.29 -1.78,5.76 0,2.38 0.64,4.23 1.91,5.57 1.28,1.33 2.87,2 4.8,2 0.57,0 1.27,-0.12 2.12,-0.36 0.84,-0.23 1.7,-0.62 2.56,-1.16l2.93 4.96z"/>
  <path id="3" class="fil18" d="M1570.25 1847.89c-4.22,0 -7.53,-1.19 -9.96,-3.58 -2.42,-2.4 -3.64,-5.63 -3.64,-9.72 0.02,-4.24 1.28,-7.57 3.79,-9.96 2.5,-2.39 5.89,-3.58 10.17,-3.58 4.22,0 7.52,1.19 9.9,3.57 2.38,2.39 3.57,5.56 3.57,9.53 0,4.23 -1.23,7.57 -3.7,10.04 -2.48,2.47 -5.85,3.7 -10.13,3.7zm0.26 -5.73c1.99,0 3.49,-0.66 4.49,-1.98 0.99,-1.32 1.49,-3.28 1.49,-5.89 0,-2.46 -0.5,-4.33 -1.51,-5.59 -1.01,-1.26 -2.51,-1.89 -4.52,-1.89 -1.96,0 -3.49,0.67 -4.58,2.02 -1.09,1.35 -1.64,3.24 -1.64,5.66 0,2.55 0.54,4.45 1.59,5.74 1.06,1.29 2.62,1.93 4.68,1.93z"/>
  <path id="4" class="fil18" d="M1606.85 1843.67c-0.91,1.39 -2.04,2.45 -3.37,3.16 -1.33,0.71 -2.89,1.06 -4.66,1.06 -3.19,0 -5.76,-1.13 -7.73,-3.39 -1.95,-2.26 -2.94,-5.41 -2.94,-9.45 0,-4.23 1.09,-7.62 3.25,-10.17 2.17,-2.55 4.98,-3.83 8.47,-3.83 1.66,0 3.07,0.3 4.24,0.9 1.15,0.6 2.07,1.51 2.74,2.71l0.1 0 0 -14.37 7.46 0 0 36.99 -7.46 0 0 -3.61 -0.1 0zm-11.11 -8.83c0,2.32 0.5,4.12 1.5,5.4 1.01,1.28 2.38,1.92 4.14,1.92 1.69,0 3.07,-0.67 4.12,-1.99 1.06,-1.33 1.6,-3.08 1.6,-5.23l0 -2.15c0,-1.71 -0.51,-3.13 -1.54,-4.28 -1.01,-1.14 -2.32,-1.7 -3.94,-1.7 -1.83,0 -3.27,0.7 -4.31,2.13 -1.04,1.42 -1.57,3.39 -1.57,5.9z"/>
  <path id="5" class="fil18" d="M1644.25 1836.57l-16.86 0c0.13,1.98 0.78,3.46 1.93,4.44 1.15,0.97 2.75,1.46 4.8,1.46 0.74,0 1.74,-0.21 3.03,-0.65 1.29,-0.43 2.54,-1.1 3.79,-2l3.26 4.31c-1.72,1.3 -3.49,2.26 -5.3,2.86 -1.82,0.6 -3.8,0.9 -5.97,0.9 -4.1,0 -7.28,-1.14 -9.54,-3.44 -2.26,-2.29 -3.4,-5.49 -3.42,-9.59 0,-4.1 1.2,-7.43 3.6,-9.98 2.4,-2.55 5.44,-3.83 9.12,-3.83 3.52,0 6.34,1.08 8.43,3.23 2.09,2.16 3.13,5.25 3.13,9.29l0 3zm-6.95 -4.67c0,-2.03 -0.4,-3.49 -1.19,-4.4 -0.79,-0.9 -1.95,-1.35 -3.47,-1.35 -1.35,0 -2.52,0.52 -3.49,1.55 -0.98,1.03 -1.57,2.43 -1.78,4.2l9.93 0z"/>
  <path class="fil16" d="M2924.96 1840.6l-7.55 0 0 -21.11c0,-1.11 0.03,-2.28 0.08,-3.53 0.05,-1.24 0.12,-2.55 0.21,-3.91l-0.19 0c-0.21,1.05 -0.4,1.96 -0.57,2.72 -0.17,0.76 -0.34,1.35 -0.5,1.81l-8.46 24.02 -6.13 0 -8.59 -23.77c-0.12,-0.33 -0.27,-0.89 -0.45,-1.69 -0.19,-0.79 -0.41,-1.82 -0.65,-3.09l-0.22 0c0.11,1.64 0.19,3.21 0.24,4.71 0.05,1.49 0.08,2.9 0.08,4.22l0 19.62 -6.91 0 0 -34.99 11.16 0 7.39 20.98c0.29,0.78 0.54,1.55 0.73,2.3 0.2,0.76 0.36,1.52 0.51,2.29l0.15 0c0.25,-0.88 0.48,-1.71 0.7,-2.49 0.24,-0.78 0.47,-1.5 0.71,-2.15l7.42 -20.93 10.84 0 0 34.99z"/>
  <path id="1" class="fil16" d="M2955.5 1829.89l-16.86 0c0.13,1.98 0.78,3.46 1.93,4.43 1.15,0.98 2.75,1.47 4.8,1.47 0.74,0 1.74,-0.22 3.04,-0.65 1.28,-0.43 2.54,-1.1 3.78,-2.01l3.26 4.32c-1.72,1.3 -3.49,2.25 -5.3,2.85 -1.82,0.6 -3.8,0.9 -5.97,0.9 -4.1,0 -7.28,-1.14 -9.54,-3.44 -2.26,-2.29 -3.4,-5.48 -3.42,-9.58 0,-4.1 1.2,-7.43 3.6,-9.98 2.4,-2.56 5.44,-3.83 9.12,-3.83 3.52,0 6.34,1.07 8.43,3.23 2.09,2.16 3.13,5.25 3.13,9.29l0 3zm-6.95 -4.67c0,-2.03 -0.4,-3.5 -1.19,-4.41 -0.79,-0.9 -1.94,-1.35 -3.47,-1.35 -1.35,0 -2.51,0.52 -3.49,1.55 -0.97,1.04 -1.57,2.44 -1.78,4.21l9.93 0z"/>
  <path id="2" class="fil16" d="M3000.84 1840.6l-7.44 0 0 -14.62c0,-1.98 -0.36,-3.46 -1.07,-4.42 -0.71,-0.95 -1.78,-1.44 -3.23,-1.44 -1.35,0 -2.46,0.59 -3.32,1.76 -0.86,1.17 -1.29,2.62 -1.29,4.36l0 14.36 -7.47 0 0 -14.81c0,-1.91 -0.36,-3.33 -1.06,-4.27 -0.71,-0.93 -1.76,-1.4 -3.16,-1.4 -1.42,0 -2.55,0.56 -3.39,1.68 -0.85,1.1 -1.27,2.62 -1.27,4.52l0 14.28 -7.47 0 0 -25.6 7.47 0 0 4 0.1 0c0.83,-1.4 1.97,-2.53 3.43,-3.37 1.45,-0.85 3.05,-1.26 4.81,-1.26 1.81,0 3.33,0.4 4.57,1.21 1.24,0.82 2.18,2.02 2.83,3.62 0.97,-1.62 2.18,-2.82 3.61,-3.63 1.43,-0.8 3.09,-1.2 4.97,-1.2 2.8,0 4.9,0.86 6.29,2.58 1.39,1.72 2.09,4.31 2.09,7.74l0 15.91z"/>
  <path id="3" class="fil16" d="M3019.6 1841.2c-4.21,0 -7.53,-1.19 -9.95,-3.58 -2.43,-2.4 -3.64,-5.63 -3.64,-9.71 0.02,-4.25 1.27,-7.57 3.78,-9.96 2.51,-2.39 5.9,-3.58 10.18,-3.58 4.21,0 7.51,1.19 9.89,3.57 2.38,2.38 3.57,5.56 3.57,9.53 0,4.23 -1.23,7.57 -3.7,10.04 -2.48,2.46 -5.85,3.69 -10.13,3.69zm0.27 -5.73c1.99,0 3.48,-0.66 4.48,-1.98 1,-1.31 1.5,-3.27 1.5,-5.88 0,-2.46 -0.51,-4.34 -1.52,-5.6 -1.01,-1.25 -2.5,-1.89 -4.51,-1.89 -1.97,0 -3.5,0.68 -4.58,2.03 -1.09,1.35 -1.64,3.24 -1.64,5.66 0,2.54 0.53,4.45 1.59,5.73 1.05,1.29 2.61,1.93 4.68,1.93z"/>
  <path id="4" class="fil16" d="M3054.76 1821.22c-0.33,-0.08 -0.65,-0.14 -0.99,-0.18 -0.33,-0.04 -0.71,-0.06 -1.13,-0.06 -2.04,0 -3.57,0.64 -4.6,1.93 -1.04,1.3 -1.55,3.09 -1.55,5.38l0 12.31 -7.47 0 0 -25.6 7.47 0 0 4.78 0.1 0c0.61,-1.74 1.49,-3.05 2.62,-3.93 1.13,-0.87 2.51,-1.32 4.14,-1.32 0.38,0 0.76,0.04 1.12,0.09 0.35,0.06 0.74,0.12 1.15,0.21l-0.86 6.39z"/>
  <path id="5" class="fil16" d="M3085.6 1815l-11.49 30.28c-0.88,2.33 -2.19,4.13 -3.92,5.39 -1.73,1.27 -3.81,1.9 -6.23,1.9 -0.76,0 -1.51,-0.04 -2.26,-0.13 -0.74,-0.08 -1.45,-0.22 -2.13,-0.4l1.29 -5.54c0.39,0.15 0.78,0.25 1.16,0.32 0.38,0.06 0.8,0.1 1.26,0.1 0.81,0 1.53,-0.21 2.16,-0.61 0.62,-0.41 1.13,-1.06 1.52,-1.96l1.61 -3.8 -10.35 -25.55 8.26 0 5.02 16.05c0.15,0.44 0.27,0.93 0.39,1.47 0.12,0.54 0.21,1.13 0.29,1.78l0.1 0c0.09,-0.47 0.18,-0.97 0.32,-1.49 0.13,-0.52 0.29,-1.08 0.49,-1.71l5.1 -16.1 7.41 0z"/>
  <path class="fil18" d="M3418.46 1812.44l-9.31 34.99 -8.46 0 -5.9 -22.67c-0.15,-0.59 -0.27,-1.2 -0.37,-1.85 -0.1,-0.65 -0.17,-1.33 -0.2,-2.05l-0.09 0c-0.07,0.77 -0.15,1.49 -0.26,2.14 -0.11,0.66 -0.23,1.24 -0.38,1.76l-6.05 22.67 -8.81 0 -9.27 -34.99 8.34 0 5.1 23.55c0.12,0.5 0.21,1.08 0.28,1.74 0.08,0.66 0.14,1.4 0.19,2.24l0.15 0c0.02,-0.64 0.1,-1.29 0.22,-1.97 0.13,-0.67 0.28,-1.38 0.48,-2.11l6.44 -23.45 8.15 0 5.84 23.74c0.09,0.42 0.19,0.95 0.29,1.57 0.1,0.63 0.18,1.35 0.26,2.17l0.1 0c0.04,-0.64 0.1,-1.28 0.2,-1.92 0.1,-0.64 0.21,-1.3 0.34,-1.96l4.98 -23.6 7.74 0z"/>
  <path id="1" class="fil18" d="M3438.41 1828.06c-0.32,-0.09 -0.65,-0.15 -0.98,-0.19 -0.33,-0.04 -0.72,-0.06 -1.13,-0.06 -2.04,0 -3.58,0.65 -4.61,1.94 -1.03,1.3 -1.55,3.09 -1.55,5.38l0 12.3 -7.46 0 0 -25.6 7.46 0 0 4.79 0.1 0c0.62,-1.75 1.49,-3.05 2.62,-3.94 1.14,-0.87 2.51,-1.31 4.14,-1.31 0.39,0 0.76,0.03 1.12,0.08 0.36,0.06 0.74,0.13 1.15,0.21l-0.86 6.4z"/>
  <path id="2" class="fil18" d="M3447.2 1818.4c-1.3,0 -2.37,-0.4 -3.2,-1.19 -0.83,-0.79 -1.24,-1.77 -1.24,-2.94 0,-1.2 0.41,-2.2 1.24,-2.96 0.83,-0.78 1.9,-1.17 3.2,-1.17 1.3,0 2.37,0.39 3.18,1.17 0.83,0.76 1.23,1.76 1.23,2.96 0,1.2 -0.4,2.19 -1.23,2.97 -0.81,0.76 -1.88,1.16 -3.18,1.16zm3.66 29.03l-7.44 0 0 -25.6 7.44 0 0 25.6z"/>
  <path id="3" class="fil18" d="M3473.94 1847.01c-0.78,0.35 -1.65,0.6 -2.61,0.77 -0.96,0.17 -1.93,0.26 -2.9,0.26 -2.74,0 -4.8,-0.67 -6.19,-2 -1.39,-1.33 -2.09,-3.32 -2.09,-5.98l0 -12.69 -4.17 -0.02 -0.03 -5.52 4.2 0 0 -5.78 7.45 -2.12 -0.03 7.9 5.86 0 0 5.54 -5.83 -0.02 -0.03 12.25c0,1.04 0.2,1.79 0.61,2.27 0.41,0.47 1.04,0.7 1.91,0.68 0.44,0.02 0.85,-0.03 1.25,-0.16 0.4,-0.12 0.77,-0.27 1.11,-0.42l1.49 5.04z"/>
  <path id="4" class="fil18" d="M3500.95 1836.72l-16.85 0c0.12,1.98 0.77,3.46 1.92,4.44 1.16,0.97 2.76,1.46 4.81,1.46 0.73,0 1.74,-0.21 3.03,-0.65 1.28,-0.43 2.54,-1.1 3.78,-2l3.26 4.31c-1.72,1.3 -3.49,2.26 -5.3,2.86 -1.82,0.6 -3.8,0.9 -5.96,0.9 -4.1,0 -7.28,-1.14 -9.55,-3.44 -2.26,-2.29 -3.4,-5.49 -3.42,-9.59 0,-4.1 1.2,-7.43 3.6,-9.98 2.4,-2.55 5.44,-3.83 9.12,-3.83 3.53,0 6.34,1.08 8.43,3.23 2.09,2.16 3.13,5.25 3.13,9.29l0 3zm-6.95 -4.67c0,-2.03 -0.39,-3.49 -1.18,-4.4 -0.79,-0.9 -1.95,-1.35 -3.48,-1.35 -1.35,0 -2.51,0.52 -3.49,1.55 -0.97,1.03 -1.57,2.43 -1.78,4.2l9.93 0z"/>
  <path id="5" class="fil18" d="M3513.69 1844.38l-0.1 0 0 3.05 -7.46 0 0 -36.99 7.46 0 0 15.32 0.1 0c0.97,-1.51 2.16,-2.65 3.56,-3.42 1.4,-0.76 3.01,-1.14 4.83,-1.14 3.3,0 5.85,1.13 7.64,3.4 1.79,2.27 2.68,5.36 2.68,9.29 0,4.28 -1.04,7.7 -3.13,10.28 -2.09,2.58 -4.88,3.87 -8.36,3.87 -1.59,0 -2.99,-0.3 -4.2,-0.92 -1.2,-0.61 -2.21,-1.52 -3.02,-2.74zm-0.22 -10.76l0 2.73c0,1.71 0.5,3.13 1.5,4.26 1,1.13 2.28,1.7 3.84,1.7 1.89,0 3.36,-0.74 4.4,-2.19 1.04,-1.45 1.56,-3.5 1.56,-6.13 0,-2.22 -0.49,-3.94 -1.45,-5.18 -0.95,-1.24 -2.3,-1.85 -4.04,-1.85 -1.69,0 -3.08,0.61 -4.18,1.85 -1.09,1.24 -1.63,2.84 -1.63,4.81z"/>
  <path id="6" class="fil18" d="M3558.71 1847.43l-7.08 0 0 -3.71 -0.09 0c-0.87,1.44 -1.94,2.51 -3.23,3.24 -1.28,0.72 -2.74,1.08 -4.36,1.08 -2.28,0 -4.2,-0.68 -5.77,-2.03 -1.55,-1.36 -2.34,-3.26 -2.34,-5.68 0,-2.38 0.78,-4.3 2.34,-5.79 1.54,-1.48 3.95,-2.44 7.21,-2.88l6.3 -0.85 0 -0.49c0,-1.31 -0.41,-2.3 -1.23,-2.97 -0.82,-0.67 -1.93,-1 -3.36,-1 -1.1,0 -2.27,0.18 -3.54,0.55 -1.25,0.37 -2.52,0.94 -3.79,1.74l-2.66 -4.42c1.68,-1.04 3.37,-1.8 5.09,-2.29 1.71,-0.49 3.58,-0.73 5.58,-0.73 3.72,0 6.48,0.89 8.25,2.68 1.79,1.79 2.68,4.49 2.68,8.11l0 15.44zm-7.02 -10.39l0 -1.84 -4.86 0.61c-1.38,0.2 -2.39,0.6 -3.06,1.21 -0.66,0.62 -1,1.43 -1,2.46 0,0.94 0.33,1.71 0.98,2.31 0.65,0.61 1.53,0.91 2.64,0.91 1.56,0 2.83,-0.54 3.81,-1.62 0.99,-1.07 1.49,-2.42 1.49,-4.04z"/>
  <path id="7" class="fil18" d="M3585.79 1845.75c-1.3,0.8 -2.62,1.37 -3.96,1.74 -1.34,0.36 -2.8,0.55 -4.38,0.55 -4.27,0 -7.59,-1.19 -9.98,-3.55 -2.39,-2.37 -3.59,-5.45 -3.59,-9.24 0,-4.34 1.28,-7.77 3.85,-10.28 2.55,-2.52 5.95,-3.77 10.18,-3.77 1.56,0 2.94,0.15 4.13,0.46 1.2,0.31 2.39,0.8 3.59,1.47l-2.79 5.04c-0.76,-0.43 -1.51,-0.75 -2.24,-0.95 -0.74,-0.19 -1.54,-0.29 -2.4,-0.29 -2.11,0 -3.76,0.68 -4.95,2.05 -1.18,1.37 -1.78,3.29 -1.78,5.76 0,2.38 0.64,4.23 1.91,5.57 1.28,1.33 2.88,2 4.8,2 0.57,0 1.27,-0.12 2.12,-0.36 0.85,-0.23 1.7,-0.62 2.56,-1.16l2.93 4.96z"/>
  <polygon id="8" class="fil18" points="3615.56,1847.43 3606.53,1847.43 3597.99,1834.76 3597.89,1834.76 3597.89,1847.43 3590.43,1847.43 3590.43,1810.44 3597.89,1810.44 3597.89,1833.65 3597.99,1833.65 3605.97,1821.83 3614.9,1821.83 3605.42,1833.89 "/>
 </g>
</svg>
