<?xml version="1.0" encoding="UTF-8"?>
<!DOCTYPE svg PUBLIC "-//W3C//DTD SVG 1.1//EN" "http://www.w3.org/Graphics/SVG/1.1/DTD/svg11.dtd">
<!-- Creator: CorelDRAW 2020 (64-Bit) -->
<svg xmlns="http://www.w3.org/2000/svg" xml:space="preserve" width="3175px" height="1699px" version="1.1" style="shape-rendering:geometricPrecision; text-rendering:geometricPrecision; image-rendering:optimizeQuality; fill-rule:evenodd; clip-rule:evenodd"
viewBox="0 0 3175 1698.7"
 xmlns:xlink="http://www.w3.org/1999/xlink"
 xmlns:xodm="http://www.corel.com/coreldraw/odm/2003">
 <defs>
  <style type="text/css">
   <![CDATA[
    .str0 {stroke:#0070C0;stroke-width:10;stroke-miterlimit:22.9256;stroke-dasharray:50.000000 30.000000}
    .str3 {stroke:#00C85F;stroke-width:8;stroke-miterlimit:22.9256;stroke-dasharray:80.000000 40.000000}
    .str1 {stroke:#0070D2;stroke-width:3;stroke-miterlimit:22.9256}
    .str2 {stroke:#B10023;stroke-width:3;stroke-miterlimit:22.9256}
    .fil0 {fill:none}
    .fil3 {fill:#0070C0}
    .fil8 {fill:#D90011}
    .fil5 {fill:black;fill-rule:nonzero}
    .fil9 {fill:#00C85F;fill-rule:nonzero}
    .fil6 {fill:gray;fill-rule:nonzero}
    .fil7 {fill:#BFBFBF;fill-rule:nonzero}
    .fil4 {fill:white;fill-rule:nonzero}
    .fil2 {fill:black;fill-opacity:0.301961}
    .fil1 {fill:#EBF5FF;fill-opacity:0.301961}
   ]]>
  </style>
 </defs>
 <g id="Capa_x0020_1">
  <metadata id="CorelCorpID_0Corel-Layer"/>
  <rect class="fil0" width="3175" height="1698.7"/>
  <g id="_2908820580432">
   <g>
    <path class="fil1" d="M1056.26 400.99l1670.82 0c12.96,0 23.56,10.6 23.56,23.56l0 147.07c0,12.96 -10.6,23.56 -23.56,23.56l-1670.82 0c-12.95,0 -23.56,-10.6 -23.56,-23.56l0 -147.07c0,-12.96 10.61,-23.56 23.56,-23.56z"/>
    <path id="1" class="fil0 str0" d="M1056.26 400.99l1670.82 0c12.96,0 23.56,10.6 23.56,23.56l0 147.07c0,12.96 -10.6,23.56 -23.56,23.56l-1670.82 0c-12.95,0 -23.56,-10.6 -23.56,-23.56l0 -147.07c0,-12.96 10.61,-23.56 23.56,-23.56z"/>
   </g>
   <g>
    <path class="fil1" d="M1102.7 672.14l1577.94 0c38.5,0 70,31.5 70,70l0 436.98c0,38.5 -31.5,70 -70,70l-1577.94 0c-38.5,0 -70,-31.5 -70,-70l0 -436.98c0,-38.5 31.5,-70 70,-70z"/>
    <path id="1" class="fil0 str0" d="M1102.7 672.14l1577.94 0c38.5,0 70,31.5 70,70l0 436.98c0,38.5 -31.5,70 -70,70l-1577.94 0c-38.5,0 -70,-31.5 -70,-70l0 -436.98c0,-38.5 31.5,-70 70,-70z"/>
   </g>
   <path class="fil2" d="M459.73 757.64l0 181.5 474.48 0 0 -181.5 -474.48 0zm1756.43 585.48l0 180.99 474.49 0 0 -180.99 -474.49 0zm-552.48 0l0 180.99 474.49 0 0 -180.99 -474.49 0zm-552.98 0l0 180.99 474.99 0 0 -180.99 -474.99 0zm-650.97 -328.99l0 181 474.48 0 0 -181 -474.48 0z"/>
   <polygon class="fil3" points="1100.7,1004.13 1100.7,1185.12 1575.68,1185.12 1575.68,1004.13 "/>
   <polygon class="fil0 str1" points="1100.7,1004.13 1575.68,1004.13 1575.68,1185.12 1100.7,1185.12 "/>
   <path class="fil4" d="M1173.64 1107.99c-2.15,0.99 -4.23,1.71 -6.25,2.17 -2.03,0.45 -4.21,0.68 -6.57,0.68 -6.34,0 -11.33,-1.78 -14.98,-5.36 -3.64,-3.57 -5.47,-8.65 -5.47,-15.26 0,-6.22 1.99,-11.39 5.97,-15.48 3.97,-4.09 9.22,-6.14 15.73,-6.14 2.21,0 4.18,0.17 5.93,0.5 1.75,0.33 3.53,0.86 5.36,1.58l-2.75 7.18c-1.38,-0.55 -2.73,-0.95 -4.04,-1.21 -1.3,-0.26 -2.72,-0.38 -4.24,-0.38 -3.44,0 -6.4,1.19 -8.88,3.59 -2.47,2.4 -3.71,5.65 -3.71,9.73 0,4.21 1.09,7.51 3.26,9.88 2.18,2.38 5.15,3.57 8.93,3.57 1.08,0 2.36,-0.17 3.86,-0.51 1.49,-0.34 3.02,-0.9 4.57,-1.66l3.28 7.12z"/>
   <path id="1" class="fil4" d="M1193.43 1110.84c-4.92,0 -8.79,-1.39 -11.62,-4.18 -2.82,-2.8 -4.24,-6.57 -4.24,-11.34 0.02,-4.96 1.48,-8.84 4.41,-11.63 2.93,-2.79 6.88,-4.18 11.88,-4.18 4.92,0 8.77,1.39 11.55,4.17 2.78,2.78 4.17,6.49 4.17,11.13 0,4.94 -1.44,8.83 -4.32,11.71 -2.89,2.88 -6.83,4.32 -11.83,4.32zm0.31 -6.69c2.33,0 4.07,-0.77 5.23,-2.31 1.17,-1.54 1.75,-3.83 1.75,-6.87 0,-2.88 -0.59,-5.06 -1.76,-6.53 -1.18,-1.47 -2.93,-2.21 -5.27,-2.21 -2.3,0 -4.09,0.79 -5.35,2.36 -1.28,1.58 -1.92,3.79 -1.92,6.61 0,2.97 0.63,5.2 1.86,6.69 1.23,1.51 3.05,2.26 5.46,2.26z"/>
   <path id="2" class="fil4" d="M1244.5 1110.13l-8.69 0 0 -16.67c0,-2.39 -0.43,-4.19 -1.29,-5.39 -0.87,-1.21 -2.16,-1.82 -3.89,-1.84 -1.69,0.02 -3.08,0.67 -4.17,1.96 -1.1,1.28 -1.64,2.9 -1.64,4.88l-0.03 17.06 -8.69 0 -0.02 -29.88 8.74 0 -0.03 4.76 0.14 0c1.1,-1.84 2.45,-3.22 4.06,-4.12 1.61,-0.9 3.46,-1.35 5.57,-1.35 3.3,-0.02 5.78,1 7.45,3.07 1.66,2.07 2.49,5.15 2.49,9.23l0 18.29z"/>
   <path id="3" class="fil4" d="M1270.6 1109.64c-0.92,0.4 -1.94,0.7 -3.05,0.9 -1.12,0.2 -2.25,0.3 -3.39,0.3 -3.2,0 -5.6,-0.78 -7.22,-2.34 -1.62,-1.55 -2.44,-3.87 -2.44,-6.98l0 -14.8 -4.87 -0.03 -0.03 -6.44 4.9 0 0 -6.75 8.69 -2.47 -0.03 9.22 6.84 0 0 6.47 -6.81 -0.03 -0.03 14.3c0,1.21 0.23,2.09 0.71,2.64 0.48,0.56 1.22,0.82 2.23,0.8 0.51,0.02 1,-0.04 1.47,-0.18 0.46,-0.15 0.89,-0.31 1.29,-0.5l1.74 5.89z"/>
   <path id="4" class="fil4" d="M1294.15 1087.51c-0.38,-0.09 -0.76,-0.16 -1.15,-0.21 -0.39,-0.05 -0.84,-0.07 -1.32,-0.07 -2.39,0 -4.17,0.75 -5.38,2.26 -1.21,1.51 -1.81,3.6 -1.81,6.28l0 14.36 -8.71 0 0 -29.88 8.71 0 0 5.58 0.12 0c0.72,-2.03 1.74,-3.56 3.06,-4.59 1.32,-1.02 2.93,-1.53 4.83,-1.53 0.45,0 0.89,0.04 1.31,0.09 0.41,0.07 0.86,0.15 1.34,0.25l-1 7.46z"/>
   <path id="5" class="fil4" d="M1313.6 1110.84c-4.92,0 -8.79,-1.39 -11.62,-4.18 -2.83,-2.8 -4.25,-6.57 -4.25,-11.34 0.02,-4.96 1.49,-8.84 4.42,-11.63 2.92,-2.79 6.88,-4.18 11.88,-4.18 4.92,0 8.77,1.39 11.55,4.17 2.78,2.78 4.17,6.49 4.17,11.13 0,4.94 -1.44,8.83 -4.33,11.71 -2.88,2.88 -6.82,4.32 -11.82,4.32zm0.31 -6.69c2.33,0 4.06,-0.77 5.23,-2.31 1.17,-1.54 1.75,-3.83 1.75,-6.87 0,-2.88 -0.59,-5.06 -1.77,-6.53 -1.17,-1.47 -2.92,-2.21 -5.27,-2.21 -2.29,0 -4.08,0.79 -5.34,2.36 -1.28,1.58 -1.92,3.79 -1.92,6.61 0,2.97 0.62,5.2 1.86,6.69 1.23,1.51 3.05,2.26 5.46,2.26z"/>
   <polygon id="6" class="fil4" points="1336.27,1110.13 1336.27,1066.95 1344.98,1066.95 1344.98,1110.13 "/>
   <path id="7" class="fil4" d="M1377.77 1110.13l-8.26 0 0 -4.33 -0.11 0c-1.01,1.67 -2.26,2.93 -3.77,3.77 -1.49,0.85 -3.19,1.27 -5.09,1.27 -2.66,0 -4.9,-0.79 -6.73,-2.37 -1.82,-1.59 -2.73,-3.81 -2.73,-6.63 0,-2.78 0.9,-5.02 2.72,-6.75 1.81,-1.73 4.62,-2.85 8.42,-3.37l7.35 -0.99 0 -0.57c0,-1.54 -0.47,-2.69 -1.43,-3.47 -0.95,-0.78 -2.25,-1.17 -3.92,-1.17 -1.28,0 -2.65,0.21 -4.13,0.64 -1.47,0.43 -2.94,1.1 -4.42,2.04l-3.11 -5.16c1.96,-1.21 3.94,-2.11 5.94,-2.68 2,-0.56 4.18,-0.85 6.51,-0.85 4.35,0 7.57,1.04 9.64,3.13 2.08,2.09 3.12,5.24 3.12,9.46l0 18.03zm-8.2 -12.14l0 -2.13 -5.67 0.71c-1.6,0.23 -2.79,0.7 -3.56,1.41 -0.78,0.72 -1.17,1.67 -1.17,2.86 0,1.1 0.38,2.01 1.14,2.71 0.76,0.71 1.78,1.06 3.08,1.06 1.82,0 3.3,-0.64 4.45,-1.89 1.15,-1.25 1.73,-2.83 1.73,-4.73z"/>
   <path id="8" class="fil4" d="M1405.62 1105.91c-1.06,1.63 -2.37,2.87 -3.93,3.69 -1.55,0.83 -3.37,1.24 -5.44,1.24 -3.71,0 -6.72,-1.32 -9.01,-3.96 -2.29,-2.63 -3.44,-6.31 -3.44,-11.02 0,-4.94 1.27,-8.9 3.8,-11.88 2.52,-2.98 5.81,-4.47 9.87,-4.47 1.95,0 3.59,0.35 4.95,1.05 1.35,0.7 2.42,1.76 3.2,3.16l0.12 0 0 -16.77 8.72 0 0 43.18 -8.72 0 0 -4.22 -0.12 0zm-12.96 -10.31c0,2.72 0.59,4.82 1.75,6.31 1.18,1.49 2.78,2.24 4.83,2.24 1.98,0 3.58,-0.78 4.82,-2.32 1.23,-1.55 1.85,-3.59 1.85,-6.11l0 -2.51c0,-1.99 -0.59,-3.65 -1.79,-4.99 -1.18,-1.33 -2.71,-1.99 -4.59,-1.99 -2.14,0 -3.82,0.83 -5.04,2.49 -1.22,1.66 -1.83,3.96 -1.83,6.88z"/>
   <path id="9" class="fil4" d="M1436.81 1110.84c-4.92,0 -8.79,-1.39 -11.62,-4.18 -2.83,-2.8 -4.25,-6.57 -4.25,-11.34 0.02,-4.96 1.49,-8.84 4.42,-11.63 2.92,-2.79 6.88,-4.18 11.88,-4.18 4.92,0 8.77,1.39 11.55,4.17 2.78,2.78 4.17,6.49 4.17,11.13 0,4.94 -1.44,8.83 -4.33,11.71 -2.88,2.88 -6.82,4.32 -11.82,4.32zm0.31 -6.69c2.33,0 4.07,-0.77 5.23,-2.31 1.17,-1.54 1.75,-3.83 1.75,-6.87 0,-2.88 -0.59,-5.06 -1.77,-6.53 -1.17,-1.47 -2.92,-2.21 -5.27,-2.21 -2.29,0 -4.08,0.79 -5.34,2.36 -1.28,1.58 -1.92,3.79 -1.92,6.61 0,2.97 0.62,5.2 1.86,6.69 1.23,1.51 3.05,2.26 5.46,2.26z"/>
   <path id="10" class="fil4" d="M1477.85 1087.51c-0.38,-0.09 -0.76,-0.16 -1.15,-0.21 -0.39,-0.05 -0.84,-0.07 -1.32,-0.07 -2.38,0 -4.17,0.75 -5.38,2.26 -1.2,1.51 -1.81,3.6 -1.81,6.28l0 14.36 -8.71 0 0 -29.88 8.71 0 0 5.58 0.12 0c0.72,-2.03 1.74,-3.56 3.06,-4.59 1.33,-1.02 2.93,-1.53 4.84,-1.53 0.44,0 0.88,0.04 1.3,0.09 0.42,0.07 0.86,0.15 1.34,0.25l-1 7.46z"/>
   <path id="11" class="fil4" d="M1496 1110.13l14.92 -40.85 10.51 0 14.59 40.85 -9.69 0 -2.88 -8.69 -15.01 0 -2.79 8.69 -9.65 0zm14.41 -15.66l10.94 0 -4.65 -14.45c-0.15,-0.55 -0.27,-1.02 -0.38,-1.42 -0.11,-0.4 -0.2,-0.92 -0.27,-1.54l-0.23 0c-0.09,0.57 -0.19,1.06 -0.3,1.48 -0.11,0.42 -0.24,0.89 -0.42,1.4l-4.69 14.53z"/>
   <polygon class="fil3" points="1653.68,1004.13 1653.68,1185.12 2128.16,1185.12 2128.16,1004.13 "/>
   <polygon class="fil0 str1" points="1653.68,1004.13 2128.16,1004.13 2128.16,1185.12 1653.68,1185.12 "/>
   <path class="fil4" d="M1729.02 1107.99c-2.15,0.99 -4.23,1.71 -6.25,2.17 -2.03,0.45 -4.21,0.68 -6.57,0.68 -6.34,0 -11.33,-1.78 -14.98,-5.36 -3.64,-3.57 -5.47,-8.65 -5.47,-15.26 0,-6.22 1.99,-11.39 5.97,-15.48 3.97,-4.09 9.22,-6.14 15.73,-6.14 2.21,0 4.18,0.17 5.93,0.5 1.75,0.33 3.53,0.86 5.36,1.58l-2.75 7.18c-1.38,-0.55 -2.73,-0.95 -4.04,-1.21 -1.3,-0.26 -2.72,-0.38 -4.24,-0.38 -3.44,0 -6.4,1.19 -8.88,3.59 -2.47,2.4 -3.71,5.65 -3.71,9.73 0,4.21 1.09,7.51 3.26,9.88 2.18,2.38 5.15,3.57 8.93,3.57 1.08,0 2.36,-0.17 3.86,-0.51 1.49,-0.34 3.02,-0.9 4.57,-1.66l3.28 7.12z"/>
   <path id="1" class="fil4" d="M1748.81 1110.84c-4.92,0 -8.79,-1.39 -11.62,-4.18 -2.82,-2.8 -4.24,-6.57 -4.24,-11.34 0.02,-4.96 1.48,-8.84 4.41,-11.63 2.93,-2.79 6.88,-4.18 11.88,-4.18 4.92,0 8.77,1.39 11.55,4.17 2.78,2.78 4.17,6.49 4.17,11.13 0,4.94 -1.44,8.83 -4.32,11.71 -2.89,2.88 -6.83,4.32 -11.83,4.32zm0.31 -6.69c2.33,0 4.07,-0.77 5.23,-2.31 1.17,-1.54 1.75,-3.83 1.75,-6.87 0,-2.88 -0.59,-5.06 -1.76,-6.53 -1.18,-1.47 -2.93,-2.21 -5.27,-2.21 -2.3,0 -4.09,0.79 -5.35,2.36 -1.28,1.58 -1.92,3.79 -1.92,6.61 0,2.97 0.63,5.2 1.86,6.69 1.23,1.51 3.05,2.26 5.46,2.26z"/>
   <path id="2" class="fil4" d="M1799.88 1110.13l-8.69 0 0 -16.67c0,-2.39 -0.43,-4.19 -1.29,-5.39 -0.87,-1.21 -2.16,-1.82 -3.89,-1.84 -1.69,0.02 -3.08,0.67 -4.17,1.96 -1.1,1.28 -1.64,2.9 -1.64,4.88l-0.03 17.06 -8.69 0 -0.02 -29.88 8.74 0 -0.03 4.76 0.14 0c1.1,-1.84 2.45,-3.22 4.06,-4.12 1.61,-0.9 3.46,-1.35 5.57,-1.35 3.3,-0.02 5.78,1 7.45,3.07 1.66,2.07 2.49,5.15 2.49,9.23l0 18.29z"/>
   <path id="3" class="fil4" d="M1825.98 1109.64c-0.92,0.4 -1.94,0.7 -3.05,0.9 -1.12,0.2 -2.25,0.3 -3.39,0.3 -3.2,0 -5.6,-0.78 -7.22,-2.34 -1.62,-1.55 -2.44,-3.87 -2.44,-6.98l0 -14.8 -4.87 -0.03 -0.03 -6.44 4.9 0 0 -6.75 8.69 -2.47 -0.03 9.22 6.84 0 0 6.47 -6.81 -0.03 -0.03 14.3c0,1.21 0.23,2.09 0.71,2.64 0.48,0.56 1.22,0.82 2.23,0.8 0.51,0.02 1,-0.04 1.47,-0.18 0.46,-0.15 0.89,-0.31 1.29,-0.5l1.74 5.89z"/>
   <path id="4" class="fil4" d="M1849.53 1087.51c-0.38,-0.09 -0.76,-0.16 -1.15,-0.21 -0.39,-0.05 -0.84,-0.07 -1.32,-0.07 -2.39,0 -4.17,0.75 -5.38,2.26 -1.21,1.51 -1.81,3.6 -1.81,6.28l0 14.36 -8.71 0 0 -29.88 8.71 0 0 5.58 0.12 0c0.72,-2.03 1.74,-3.56 3.06,-4.59 1.32,-1.02 2.93,-1.53 4.83,-1.53 0.45,0 0.89,0.04 1.31,0.09 0.41,0.07 0.86,0.15 1.34,0.25l-1 7.46z"/>
   <path id="5" class="fil4" d="M1868.98 1110.84c-4.92,0 -8.79,-1.39 -11.62,-4.18 -2.83,-2.8 -4.25,-6.57 -4.25,-11.34 0.02,-4.96 1.49,-8.84 4.42,-11.63 2.92,-2.79 6.88,-4.18 11.88,-4.18 4.92,0 8.77,1.39 11.55,4.17 2.78,2.78 4.17,6.49 4.17,11.13 0,4.94 -1.44,8.83 -4.33,11.71 -2.88,2.88 -6.82,4.32 -11.82,4.32zm0.31 -6.69c2.33,0 4.06,-0.77 5.23,-2.31 1.17,-1.54 1.75,-3.83 1.75,-6.87 0,-2.88 -0.59,-5.06 -1.77,-6.53 -1.17,-1.47 -2.92,-2.21 -5.27,-2.21 -2.29,0 -4.08,0.79 -5.34,2.36 -1.28,1.58 -1.92,3.79 -1.92,6.61 0,2.97 0.62,5.2 1.86,6.69 1.23,1.51 3.05,2.26 5.46,2.26z"/>
   <polygon id="6" class="fil4" points="1891.65,1110.13 1891.65,1066.95 1900.36,1066.95 1900.36,1110.13 "/>
   <path id="7" class="fil4" d="M1933.15 1110.13l-8.26 0 0 -4.33 -0.11 0c-1.01,1.67 -2.26,2.93 -3.77,3.77 -1.49,0.85 -3.19,1.27 -5.09,1.27 -2.66,0 -4.9,-0.79 -6.73,-2.37 -1.82,-1.59 -2.73,-3.81 -2.73,-6.63 0,-2.78 0.9,-5.02 2.72,-6.75 1.81,-1.73 4.62,-2.85 8.42,-3.37l7.35 -0.99 0 -0.57c0,-1.54 -0.47,-2.69 -1.43,-3.47 -0.95,-0.78 -2.25,-1.17 -3.92,-1.17 -1.28,0 -2.65,0.21 -4.13,0.64 -1.47,0.43 -2.94,1.1 -4.42,2.04l-3.11 -5.16c1.96,-1.21 3.94,-2.11 5.94,-2.68 2,-0.56 4.18,-0.85 6.51,-0.85 4.35,0 7.57,1.04 9.64,3.13 2.08,2.09 3.12,5.24 3.12,9.46l0 18.03zm-8.2 -12.14l0 -2.13 -5.67 0.71c-1.6,0.23 -2.79,0.7 -3.56,1.41 -0.78,0.72 -1.17,1.67 -1.17,2.86 0,1.1 0.38,2.01 1.14,2.71 0.76,0.71 1.79,1.06 3.08,1.06 1.82,0 3.3,-0.64 4.45,-1.89 1.15,-1.25 1.73,-2.83 1.73,-4.73z"/>
   <path id="8" class="fil4" d="M1961 1105.91c-1.06,1.63 -2.37,2.87 -3.93,3.69 -1.55,0.83 -3.37,1.24 -5.44,1.24 -3.71,0 -6.72,-1.32 -9.01,-3.96 -2.29,-2.63 -3.44,-6.31 -3.44,-11.02 0,-4.94 1.27,-8.9 3.8,-11.88 2.52,-2.98 5.81,-4.47 9.87,-4.47 1.95,0 3.59,0.35 4.95,1.05 1.35,0.7 2.42,1.76 3.2,3.16l0.12 0 0 -16.77 8.72 0 0 43.18 -8.72 0 0 -4.22 -0.12 0zm-12.96 -10.31c0,2.72 0.59,4.82 1.75,6.31 1.18,1.49 2.78,2.24 4.83,2.24 1.98,0 3.58,-0.78 4.82,-2.32 1.23,-1.55 1.85,-3.59 1.85,-6.11l0 -2.51c0,-1.99 -0.59,-3.65 -1.79,-4.99 -1.18,-1.33 -2.71,-1.99 -4.59,-1.99 -2.14,0 -3.82,0.83 -5.04,2.49 -1.22,1.66 -1.83,3.96 -1.83,6.88z"/>
   <path id="9" class="fil4" d="M1992.19 1110.84c-4.92,0 -8.79,-1.39 -11.62,-4.18 -2.83,-2.8 -4.25,-6.57 -4.25,-11.34 0.02,-4.96 1.49,-8.84 4.42,-11.63 2.92,-2.79 6.88,-4.18 11.88,-4.18 4.92,0 8.77,1.39 11.55,4.17 2.78,2.78 4.17,6.49 4.17,11.13 0,4.94 -1.44,8.83 -4.33,11.71 -2.88,2.88 -6.82,4.32 -11.82,4.32zm0.31 -6.69c2.33,0 4.07,-0.77 5.23,-2.31 1.17,-1.54 1.75,-3.83 1.75,-6.87 0,-2.88 -0.59,-5.06 -1.77,-6.53 -1.17,-1.47 -2.92,-2.21 -5.27,-2.21 -2.29,0 -4.08,0.79 -5.34,2.36 -1.28,1.58 -1.92,3.79 -1.92,6.61 0,2.97 0.62,5.2 1.86,6.69 1.23,1.51 3.05,2.26 5.46,2.26z"/>
   <path id="10" class="fil4" d="M2033.23 1087.51c-0.38,-0.09 -0.76,-0.16 -1.15,-0.21 -0.39,-0.05 -0.84,-0.07 -1.32,-0.07 -2.38,0 -4.17,0.75 -5.38,2.26 -1.2,1.51 -1.81,3.6 -1.81,6.28l0 14.36 -8.71 0 0 -29.88 8.71 0 0 5.58 0.12 0c0.72,-2.03 1.74,-3.56 3.06,-4.59 1.33,-1.02 2.93,-1.53 4.84,-1.53 0.44,0 0.88,0.04 1.3,0.09 0.42,0.07 0.86,0.15 1.34,0.25l-1 7.46z"/>
   <path id="11" class="fil4" d="M2055.76 1110.13l0 -40.85 14.67 0c4.48,0 7.94,0.87 10.37,2.59 2.43,1.73 3.65,4.16 3.65,7.29 0,2.19 -0.66,4.11 -1.97,5.76 -1.31,1.65 -2.99,2.8 -5.04,3.45l0 0.11c2.64,0.35 4.74,1.39 6.3,3.12 1.57,1.74 2.36,3.86 2.36,6.37 0,3.72 -1.33,6.67 -4.01,8.87 -2.66,2.19 -6.29,3.29 -10.86,3.29l-15.47 0zm8.92 -34.23l0 10.19 4.1 0c1.94,0 3.46,-0.47 4.6,-1.4 1.13,-0.93 1.69,-2.22 1.69,-3.87 0,-1.66 -0.57,-2.89 -1.71,-3.71 -1.14,-0.81 -2.84,-1.21 -5.09,-1.21l-3.59 0zm0 16.85l0 10.77 5.09 0c2.17,0 3.87,-0.51 5.11,-1.52 1.22,-1.02 1.85,-2.4 1.85,-4.15 0,-1.6 -0.62,-2.84 -1.84,-3.74 -1.23,-0.91 -2.94,-1.36 -5.14,-1.36l-5.07 0z"/>
   <polygon class="fil3" points="2206.16,1004.13 2206.16,1185.12 2680.64,1185.12 2680.64,1004.13 "/>
   <polygon class="fil0 str1" points="2206.16,1004.13 2680.64,1004.13 2680.64,1185.12 2206.16,1185.12 "/>
   <path class="fil4" d="M2281.31 1107.99c-2.15,0.99 -4.23,1.71 -6.25,2.17 -2.02,0.45 -4.21,0.68 -6.56,0.68 -6.35,0 -11.34,-1.78 -14.98,-5.36 -3.65,-3.57 -5.48,-8.65 -5.48,-15.26 0,-6.22 2,-11.39 5.97,-15.48 3.98,-4.09 9.23,-6.14 15.73,-6.14 2.21,0 4.18,0.17 5.93,0.5 1.75,0.33 3.53,0.86 5.36,1.58l-2.74 7.18c-1.38,-0.55 -2.73,-0.95 -4.05,-1.21 -1.3,-0.26 -2.72,-0.38 -4.23,-0.38 -3.45,0 -6.4,1.19 -8.88,3.59 -2.48,2.4 -3.71,5.65 -3.71,9.73 0,4.21 1.08,7.51 3.25,9.88 2.18,2.38 5.15,3.57 8.94,3.57 1.08,0 2.36,-0.17 3.86,-0.51 1.48,-0.34 3.01,-0.9 4.57,-1.66l3.27 7.12z"/>
   <path id="1" class="fil4" d="M2301.11 1110.84c-4.92,0 -8.79,-1.39 -11.62,-4.18 -2.83,-2.8 -4.25,-6.57 -4.25,-11.34 0.02,-4.96 1.49,-8.84 4.41,-11.63 2.93,-2.79 6.89,-4.18 11.88,-4.18 4.92,0 8.77,1.39 11.55,4.17 2.78,2.78 4.18,6.49 4.18,11.13 0,4.94 -1.44,8.83 -4.33,11.71 -2.89,2.88 -6.83,4.32 -11.82,4.32zm0.31 -6.69c2.32,0 4.06,-0.77 5.23,-2.31 1.16,-1.54 1.75,-3.83 1.75,-6.87 0,-2.88 -0.59,-5.06 -1.77,-6.53 -1.18,-1.47 -2.93,-2.21 -5.27,-2.21 -2.3,0 -4.08,0.79 -5.35,2.36 -1.27,1.58 -1.91,3.79 -1.91,6.61 0,2.97 0.62,5.2 1.85,6.69 1.24,1.51 3.06,2.26 5.47,2.26z"/>
   <path id="2" class="fil4" d="M2352.18 1110.13l-8.69 0 0 -16.67c0,-2.39 -0.43,-4.19 -1.3,-5.39 -0.86,-1.21 -2.16,-1.82 -3.89,-1.84 -1.69,0.02 -3.08,0.67 -4.17,1.96 -1.09,1.28 -1.64,2.9 -1.64,4.88l-0.03 17.06 -8.68 0 -0.03 -29.88 8.74 0 -0.03 4.76 0.15 0c1.1,-1.84 2.45,-3.22 4.05,-4.12 1.62,-0.9 3.46,-1.35 5.57,-1.35 3.31,-0.02 5.79,1 7.45,3.07 1.66,2.07 2.5,5.15 2.5,9.23l0 18.29z"/>
   <path id="3" class="fil4" d="M2378.27 1109.64c-0.91,0.4 -1.93,0.7 -3.05,0.9 -1.12,0.2 -2.25,0.3 -3.38,0.3 -3.2,0 -5.6,-0.78 -7.23,-2.34 -1.62,-1.55 -2.44,-3.87 -2.44,-6.98l0 -14.8 -4.87 -0.03 -0.03 -6.44 4.9 0 0 -6.75 8.69 -2.47 -0.02 9.22 6.83 0 0 6.47 -6.81 -0.03 -0.02 14.3c0,1.21 0.23,2.09 0.7,2.64 0.48,0.56 1.22,0.82 2.23,0.8 0.52,0.02 1,-0.04 1.47,-0.18 0.47,-0.15 0.89,-0.31 1.29,-0.5l1.74 5.89z"/>
   <path id="4" class="fil4" d="M2401.82 1087.51c-0.38,-0.09 -0.76,-0.16 -1.15,-0.21 -0.39,-0.05 -0.83,-0.07 -1.32,-0.07 -2.38,0 -4.17,0.75 -5.38,2.26 -1.2,1.51 -1.8,3.6 -1.8,6.28l0 14.36 -8.72 0 0 -29.88 8.72 0 0 5.58 0.11 0c0.72,-2.03 1.74,-3.56 3.07,-4.59 1.32,-1.02 2.92,-1.53 4.83,-1.53 0.44,0 0.88,0.04 1.3,0.09 0.42,0.07 0.86,0.15 1.34,0.25l-1 7.46z"/>
   <path id="5" class="fil4" d="M2421.27 1110.84c-4.92,0 -8.78,-1.39 -11.61,-4.18 -2.83,-2.8 -4.25,-6.57 -4.25,-11.34 0.02,-4.96 1.49,-8.84 4.41,-11.63 2.93,-2.79 6.88,-4.18 11.88,-4.18 4.92,0 8.77,1.39 11.55,4.17 2.78,2.78 4.17,6.49 4.17,11.13 0,4.94 -1.44,8.83 -4.32,11.71 -2.89,2.88 -6.83,4.32 -11.83,4.32zm0.31 -6.69c2.33,0 4.07,-0.77 5.24,-2.31 1.16,-1.54 1.75,-3.83 1.75,-6.87 0,-2.88 -0.6,-5.06 -1.77,-6.53 -1.18,-1.47 -2.93,-2.21 -5.27,-2.21 -2.3,0 -4.09,0.79 -5.35,2.36 -1.27,1.58 -1.92,3.79 -1.92,6.61 0,2.97 0.63,5.2 1.86,6.69 1.24,1.51 3.05,2.26 5.46,2.26z"/>
   <polygon id="6" class="fil4" points="2443.95,1110.13 2443.95,1066.95 2452.66,1066.95 2452.66,1110.13 "/>
   <path id="7" class="fil4" d="M2485.44 1110.13l-8.25 0 0 -4.33 -0.12 0c-1.01,1.67 -2.26,2.93 -3.76,3.77 -1.5,0.85 -3.2,1.27 -5.1,1.27 -2.66,0 -4.9,-0.79 -6.72,-2.37 -1.82,-1.59 -2.74,-3.81 -2.74,-6.63 0,-2.78 0.91,-5.02 2.73,-6.75 1.8,-1.73 4.61,-2.85 8.42,-3.37l7.35 -0.99 0 -0.57c0,-1.54 -0.48,-2.69 -1.43,-3.47 -0.96,-0.78 -2.26,-1.17 -3.93,-1.17 -1.28,0 -2.65,0.21 -4.12,0.64 -1.47,0.43 -2.95,1.1 -4.43,2.04l-3.11 -5.16c1.97,-1.21 3.94,-2.11 5.94,-2.68 2,-0.56 4.18,-0.85 6.52,-0.85 4.34,0 7.56,1.04 9.63,3.13 2.08,2.09 3.12,5.24 3.12,9.46l0 18.03zm-8.19 -12.14l0 -2.13 -5.67 0.71c-1.61,0.23 -2.79,0.7 -3.57,1.41 -0.78,0.72 -1.17,1.67 -1.17,2.86 0,1.1 0.38,2.01 1.14,2.71 0.76,0.71 1.79,1.06 3.08,1.06 1.82,0 3.31,-0.64 4.45,-1.89 1.15,-1.25 1.74,-2.83 1.74,-4.73z"/>
   <path id="8" class="fil4" d="M2513.3 1105.91c-1.06,1.63 -2.38,2.87 -3.93,3.69 -1.56,0.83 -3.38,1.24 -5.45,1.24 -3.71,0 -6.71,-1.32 -9.01,-3.96 -2.28,-2.63 -3.43,-6.31 -3.43,-11.02 0,-4.94 1.26,-8.9 3.79,-11.88 2.53,-2.98 5.81,-4.47 9.88,-4.47 1.94,0 3.59,0.35 4.95,1.05 1.35,0.7 2.42,1.76 3.2,3.16l0.11 0 0 -16.77 8.72 0 0 43.18 -8.72 0 0 -4.22 -0.11 0zm-12.96 -10.31c0,2.72 0.58,4.82 1.75,6.31 1.17,1.49 2.78,2.24 4.83,2.24 1.97,0 3.58,-0.78 4.81,-2.32 1.24,-1.55 1.86,-3.59 1.86,-6.11l0 -2.51c0,-1.99 -0.6,-3.65 -1.79,-4.99 -1.19,-1.33 -2.71,-1.99 -4.6,-1.99 -2.14,0 -3.82,0.83 -5.04,2.49 -1.21,1.66 -1.82,3.96 -1.82,6.88z"/>
   <path id="9" class="fil4" d="M2544.48 1110.84c-4.92,0 -8.78,-1.39 -11.61,-4.18 -2.83,-2.8 -4.25,-6.57 -4.25,-11.34 0.02,-4.96 1.49,-8.84 4.41,-11.63 2.93,-2.79 6.88,-4.18 11.88,-4.18 4.92,0 8.77,1.39 11.55,4.17 2.78,2.78 4.17,6.49 4.17,11.13 0,4.94 -1.44,8.83 -4.32,11.71 -2.89,2.88 -6.83,4.32 -11.83,4.32zm0.31 -6.69c2.33,0 4.07,-0.77 5.24,-2.31 1.16,-1.54 1.75,-3.83 1.75,-6.87 0,-2.88 -0.6,-5.06 -1.77,-6.53 -1.18,-1.47 -2.93,-2.21 -5.27,-2.21 -2.3,0 -4.09,0.79 -5.35,2.36 -1.27,1.58 -1.92,3.79 -1.92,6.61 0,2.97 0.63,5.2 1.86,6.69 1.24,1.51 3.05,2.26 5.46,2.26z"/>
   <path id="10" class="fil4" d="M2585.52 1087.51c-0.38,-0.09 -0.76,-0.16 -1.15,-0.21 -0.38,-0.05 -0.83,-0.07 -1.32,-0.07 -2.38,0 -4.17,0.75 -5.37,2.26 -1.21,1.51 -1.81,3.6 -1.81,6.28l0 14.36 -8.71 0 0 -29.88 8.71 0 0 5.58 0.12 0c0.71,-2.03 1.74,-3.56 3.06,-4.59 1.32,-1.02 2.92,-1.53 4.83,-1.53 0.45,0 0.88,0.04 1.3,0.09 0.42,0.07 0.87,0.15 1.34,0.25l-1 7.46z"/>
   <path id="11" class="fil4" d="M2638.76 1107.99c-2.15,0.99 -4.23,1.71 -6.25,2.17 -2.02,0.45 -4.21,0.68 -6.56,0.68 -6.35,0 -11.34,-1.78 -14.99,-5.36 -3.64,-3.57 -5.47,-8.65 -5.47,-15.26 0,-6.22 1.99,-11.39 5.97,-15.48 3.98,-4.09 9.23,-6.14 15.73,-6.14 2.21,0 4.18,0.17 5.93,0.5 1.75,0.33 3.53,0.86 5.36,1.58l-2.74 7.18c-1.38,-0.55 -2.73,-0.95 -4.05,-1.21 -1.3,-0.26 -2.72,-0.38 -4.24,-0.38 -3.44,0 -6.39,1.19 -8.87,3.59 -2.48,2.4 -3.72,5.65 -3.72,9.73 0,4.21 1.09,7.51 3.26,9.88 2.18,2.38 5.15,3.57 8.93,3.57 1.08,0 2.37,-0.17 3.86,-0.51 1.49,-0.34 3.02,-0.9 4.57,-1.66l3.28 7.12z"/>
   <path class="fil5" d="M1622.62 897.21l-0.08 -0.03 -0.03 18.38 -3.42 0 -0.03 -43.3 3.48 0 -0.03 5.84 0.14 0c1.1,-2.12 2.6,-3.76 4.5,-4.88 1.9,-1.13 4.03,-1.69 6.38,-1.69 3.8,0 6.77,1.32 8.91,3.96 2.13,2.66 3.2,6.22 3.2,10.73 0.02,4.97 -1.19,8.99 -3.63,12.05 -2.44,3.05 -5.71,4.58 -9.79,4.58 -2.12,0 -3.99,-0.47 -5.59,-1.39 -1.61,-0.93 -2.95,-2.35 -4.01,-4.25zm-0.08 -11.48l0 3.91c0,2.81 0.89,5.21 2.68,7.2 1.78,1.99 4.09,3 6.94,3 3,0 5.42,-1.24 7.22,-3.71 1.82,-2.47 2.73,-5.78 2.73,-9.94 0,-3.59 -0.85,-6.43 -2.52,-8.52 -1.68,-2.08 -3.93,-3.12 -6.74,-3.1 -3.23,-0.02 -5.76,1.07 -7.59,3.27 -1.84,2.21 -2.74,4.84 -2.72,7.89z"/>
   <polygon id="1" class="fil5" points="1653.56,902.14 1653.56,858.96 1657,858.96 1657,902.14 "/>
   <path id="2" class="fil5" d="M1687.73 902.14l-3.41 0 0 -5.52 -0.14 0c-0.99,1.97 -2.34,3.5 -4.03,4.6 -1.7,1.09 -3.63,1.63 -5.77,1.63 -2.85,0 -5.11,-0.8 -6.78,-2.4 -1.67,-1.6 -2.51,-3.68 -2.51,-6.2 0,-2.58 0.84,-4.68 2.5,-6.29 1.66,-1.62 4.33,-2.69 8.01,-3.22l8.72 -1.29 0 -0.85c-0.08,-2.73 -0.71,-4.77 -1.9,-6.08 -1.21,-1.32 -2.91,-1.98 -5.14,-1.98 -1.69,0 -3.27,0.3 -4.77,0.91 -1.49,0.61 -2.9,1.54 -4.23,2.79l-2.07 -2.22c1.59,-1.52 3.31,-2.65 5.16,-3.39 1.86,-0.73 3.88,-1.1 6.09,-1.1 3.39,0 5.96,0.94 7.69,2.82 1.73,1.89 2.58,4.68 2.58,8.37l0 19.42zm-3.41 -12.78l0 -2.94 -7.86 1.11c-2.85,0.42 -4.88,1.12 -6.07,2.11 -1.2,0.98 -1.79,2.45 -1.79,4.38 0,1.77 0.56,3.19 1.69,4.26 1.13,1.07 2.65,1.62 4.54,1.62 2.77,0 5.05,-1 6.83,-2.97 1.77,-1.97 2.66,-4.5 2.66,-7.57z"/>
   <path id="3" class="fil5" d="M1720.77 902.14l-3.41 0 0 -17.29c0,-3.42 -0.63,-5.98 -1.89,-7.7 -1.24,-1.73 -3.12,-2.59 -5.61,-2.61 -2.69,0.02 -4.91,1.02 -6.65,3 -1.73,1.99 -2.6,4.47 -2.6,7.42l-0.03 17.18 -3.41 0 -0.03 -29.88 3.47 0 -0.03 5.27 0.14 -0.03c1.1,-1.97 2.49,-3.46 4.16,-4.46 1.68,-0.99 3.64,-1.48 5.9,-1.48 3.24,0 5.72,1.05 7.43,3.19 1.72,2.14 2.57,5.19 2.59,9.16l-0.03 18.23z"/>
   <path id="4" class="fil5" d="M1731.85 865.57c-0.74,0 -1.37,-0.27 -1.88,-0.8 -0.53,-0.53 -0.79,-1.17 -0.79,-1.91 0,-0.74 0.26,-1.36 0.79,-1.86 0.51,-0.51 1.14,-0.76 1.88,-0.76 0.81,0 1.46,0.25 1.99,0.76 0.52,0.5 0.78,1.12 0.78,1.86 0,0.74 -0.26,1.38 -0.78,1.91 -0.53,0.53 -1.18,0.8 -1.99,0.8zm1.74 36.57l-3.44 0 0 -29.88 3.44 0 0 29.88z"/>
   <path id="5" class="fil5" d="M1756.07 861.78c-0.4,-0.11 -0.79,-0.2 -1.15,-0.26 -0.37,-0.06 -0.78,-0.08 -1.22,-0.06 -1.59,-0.02 -2.78,0.47 -3.57,1.44 -0.79,0.98 -1.19,2.48 -1.19,4.49l0 4.87 7.1 0 0 3.05 -7.1 -0.03 0 26.86 -3.41 0 -0.03 -26.83 -5.13 -0.03 0 -3.02 5.16 0 0 -5.04c0,-2.87 0.75,-5.05 2.27,-6.53 1.51,-1.49 3.5,-2.24 5.99,-2.24 0.57,0 1.09,0.03 1.55,0.09 0.47,0.05 0.95,0.14 1.47,0.28l-0.74 2.96zm5.15 3.68c-0.75,0 -1.38,-0.26 -1.86,-0.78 -0.49,-0.5 -0.73,-1.13 -0.73,-1.85 -0.02,-0.7 0.22,-1.3 0.73,-1.8 0.5,-0.51 1.12,-0.75 1.84,-0.73 0.75,-0.02 1.39,0.22 1.9,0.72 0.52,0.48 0.77,1.09 0.77,1.81 -0.02,0.72 -0.27,1.35 -0.78,1.85 -0.5,0.52 -1.13,0.78 -1.87,0.78zm1.71 36.68l-3.45 0 -0.02 -29.88 3.47 0 0 29.88z"/>
   <path id="6" class="fil5" d="M1792.75 900.4c-1.4,0.88 -2.79,1.51 -4.17,1.89 -1.38,0.38 -2.85,0.56 -4.42,0.56 -4.12,0 -7.48,-1.35 -10.04,-4.07 -2.58,-2.72 -3.86,-6.38 -3.86,-11 0,-4.8 1.38,-8.71 4.16,-11.73 2.77,-3.02 6.4,-4.52 10.88,-4.52 1.3,0 2.58,0.14 3.83,0.44 1.24,0.31 2.51,0.8 3.8,1.49l-1.4 2.67c-1.08,-0.56 -2.13,-0.97 -3.14,-1.22 -1.02,-0.24 -2.11,-0.37 -3.27,-0.37 -3.49,0 -6.25,1.2 -8.27,3.62 -2.02,2.41 -3.03,5.52 -3.03,9.31 0,3.84 0.97,6.85 2.91,9.04 1.96,2.2 4.5,3.3 7.65,3.3 1.16,0 2.29,-0.16 3.4,-0.46 1.1,-0.3 2.22,-0.83 3.38,-1.57l1.59 2.62z"/>
   <path id="7" class="fil5" d="M1820.7 902.14l-3.42 0 0 -5.52 -0.14 0c-0.98,1.97 -2.34,3.5 -4.03,4.6 -1.7,1.09 -3.62,1.63 -5.77,1.63 -2.85,0 -5.11,-0.8 -6.78,-2.4 -1.67,-1.6 -2.51,-3.68 -2.51,-6.2 0,-2.58 0.84,-4.68 2.5,-6.29 1.66,-1.62 4.33,-2.69 8.01,-3.22l8.72 -1.29 0 -0.85c-0.07,-2.73 -0.71,-4.77 -1.9,-6.08 -1.21,-1.32 -2.91,-1.98 -5.13,-1.98 -1.7,0 -3.28,0.3 -4.78,0.91 -1.49,0.61 -2.9,1.54 -4.23,2.79l-2.07 -2.22c1.6,-1.52 3.32,-2.65 5.16,-3.39 1.86,-0.73 3.88,-1.1 6.09,-1.1 3.39,0 5.96,0.94 7.69,2.82 1.73,1.89 2.59,4.68 2.59,8.37l0 19.42zm-3.42 -12.78l0 -2.94 -7.86 1.11c-2.85,0.42 -4.87,1.12 -6.07,2.11 -1.19,0.98 -1.79,2.45 -1.79,4.38 0,1.77 0.57,3.19 1.69,4.26 1.13,1.07 2.65,1.62 4.55,1.62 2.77,0 5.04,-1 6.82,-2.97 1.77,-1.97 2.66,-4.5 2.66,-7.57z"/>
   <path id="8" class="fil5" d="M1851.09 896.84c-1.04,1.9 -2.48,3.38 -4.3,4.44 -1.83,1.05 -3.93,1.57 -6.3,1.57 -3.7,0 -6.7,-1.33 -9,-4.02 -2.3,-2.67 -3.44,-6.35 -3.44,-11.05 0,-4.86 1.26,-8.78 3.78,-11.77 2.53,-3 5.83,-4.48 9.92,-4.48 2.16,0 4.02,0.43 5.58,1.32 1.55,0.88 2.81,2.2 3.76,3.94l0.12 0 0 -17.83 3.44 0 0 43.18 -3.44 0 0 -5.3 -0.12 0zm-19.48 -9.28c0,3.87 0.87,6.88 2.63,9.04 1.76,2.16 4.05,3.24 6.88,3.24 3.15,0 5.62,-1.02 7.4,-3.07 1.79,-2.04 2.69,-4.56 2.69,-7.56l0 -5.15c0,-2.67 -0.86,-4.91 -2.56,-6.76 -1.69,-1.84 -3.94,-2.76 -6.73,-2.76 -3.04,0 -5.52,1.16 -7.44,3.46 -1.91,2.3 -2.87,5.49 -2.87,9.56z"/>
   <path id="9" class="fil5" d="M1876.84 902.85c-4.39,0 -7.87,-1.42 -10.44,-4.26 -2.58,-2.84 -3.86,-6.55 -3.86,-11.15 0,-4.99 1.34,-8.89 4.03,-11.68 2.69,-2.81 6.26,-4.22 10.72,-4.23 4.34,0 7.74,1.38 10.22,4.15 2.48,2.77 3.71,6.61 3.71,11.51 0,4.7 -1.29,8.49 -3.87,11.36 -2.58,2.87 -6.08,4.3 -10.51,4.3zm0.17 -3.01c3.42,0 6.05,-1.11 7.9,-3.33 1.86,-2.21 2.78,-5.31 2.78,-9.29 0,-4.09 -0.92,-7.22 -2.76,-9.4 -1.85,-2.19 -4.45,-3.28 -7.83,-3.28 -3.37,0 -6.04,1.14 -8.03,3.42 -1.98,2.28 -2.97,5.43 -2.97,9.45 0,3.78 0.98,6.8 2.95,9.05 1.96,2.25 4.61,3.38 7.96,3.38z"/>
   <path id="10" class="fil5" d="M1913.3 875.28c-0.44,-0.15 -0.86,-0.26 -1.25,-0.34 -0.4,-0.08 -0.82,-0.12 -1.26,-0.12 -2.51,0 -4.51,1.18 -6.01,3.52 -1.5,2.34 -2.25,5.45 -2.25,9.33l0 14.47 -3.38 0 0 -29.88 3.38 0 0 6.38 0.12 0c0.68,-2.2 1.75,-3.9 3.21,-5.09 1.46,-1.2 3.19,-1.8 5.19,-1.8 0.51,0 0.99,0.03 1.43,0.09 0.45,0.06 0.9,0.14 1.33,0.28l-0.51 3.16z"/>
   <path id="11" class="fil5" d="M1956.62 896.84c-1.04,1.9 -2.48,3.38 -4.29,4.44 -1.83,1.05 -3.93,1.57 -6.3,1.57 -3.71,0 -6.7,-1.33 -9.01,-4.02 -2.29,-2.67 -3.44,-6.35 -3.44,-11.05 0,-4.86 1.27,-8.78 3.78,-11.77 2.53,-3 5.84,-4.48 9.92,-4.48 2.17,0 4.03,0.43 5.58,1.32 1.56,0.88 2.81,2.2 3.76,3.94l0.12 0 0 -17.83 3.44 0 0 43.18 -3.44 0 0 -5.3 -0.12 0zm-19.48 -9.28c0,3.87 0.88,6.88 2.64,9.04 1.76,2.16 4.05,3.24 6.88,3.24 3.15,0 5.62,-1.02 7.4,-3.07 1.79,-2.04 2.68,-4.56 2.68,-7.56l0 -5.15c0,-2.67 -0.86,-4.91 -2.56,-6.76 -1.69,-1.84 -3.93,-2.76 -6.72,-2.76 -3.05,0 -5.53,1.16 -7.44,3.46 -1.92,2.3 -2.88,5.49 -2.88,9.56z"/>
   <path id="12" class="fil5" d="M1993.42 887.67l-21.76 0c0.04,4.13 1,7.18 2.91,9.17 1.9,1.99 4.41,3 7.55,3 1.46,0 2.9,-0.24 4.31,-0.7 1.42,-0.47 2.83,-1.23 4.23,-2.27l1.77 2.48c-1.63,1.2 -3.32,2.08 -5.03,2.65 -1.72,0.57 -3.61,0.85 -5.68,0.85 -4.01,0 -7.28,-1.29 -9.81,-3.87 -2.54,-2.59 -3.81,-6.5 -3.83,-11.76 0,-4.54 1.25,-8.29 3.76,-11.24 2.5,-2.96 5.75,-4.42 9.76,-4.42 3.78,0 6.7,1.28 8.75,3.84 2.05,2.58 3.07,6.13 3.07,10.65l0 1.62zm-3.56 -2.96c-0.09,-3.21 -0.86,-5.71 -2.32,-7.49 -1.45,-1.79 -3.46,-2.68 -6.02,-2.68 -2.62,0 -4.8,0.88 -6.55,2.66 -1.75,1.78 -2.82,4.28 -3.22,7.51l18.11 0z"/>
   <path id="13" class="fil5" d="M2030.11 901.63c-0.71,0.38 -1.44,0.66 -2.2,0.84 -0.77,0.18 -1.64,0.27 -2.58,0.27 -2.09,0 -3.73,-0.64 -4.93,-1.92 -1.19,-1.28 -1.79,-3.15 -1.77,-5.6l-0.03 -19.91 -5.27 -0.03 0 -3.02 5.3 0 0 -7.2 3.42 -1.15 -0.03 8.35 7.8 0 0 3.05 -7.77 -0.03 -0.03 19.51c0,1.75 0.33,3.02 0.99,3.8 0.65,0.79 1.59,1.19 2.83,1.19 0.67,0 1.27,-0.08 1.8,-0.24 0.55,-0.17 1.03,-0.38 1.47,-0.65l1 2.74z"/>
   <path id="14" class="fil5" d="M2057.19 902.14l-3.41 0 0 -5.52 -0.15 0c-0.98,1.97 -2.33,3.5 -4.02,4.6 -1.7,1.09 -3.63,1.63 -5.78,1.63 -2.85,0 -5.1,-0.8 -6.78,-2.4 -1.67,-1.6 -2.5,-3.68 -2.5,-6.2 0,-2.58 0.83,-4.68 2.5,-6.29 1.66,-1.62 4.32,-2.69 8.01,-3.22l8.72 -1.29 0 -0.85c-0.08,-2.73 -0.71,-4.77 -1.91,-6.08 -1.2,-1.32 -2.91,-1.98 -5.13,-1.98 -1.69,0 -3.28,0.3 -4.78,0.91 -1.48,0.61 -2.89,1.54 -4.23,2.79l-2.07 -2.22c1.6,-1.52 3.32,-2.65 5.17,-3.39 1.85,-0.73 3.88,-1.1 6.08,-1.1 3.4,0 5.96,0.94 7.69,2.82 1.73,1.89 2.59,4.68 2.59,8.37l0 19.42zm-3.41 -12.78l0 -2.94 -7.87 1.11c-2.85,0.42 -4.87,1.12 -6.06,2.11 -1.2,0.98 -1.79,2.45 -1.79,4.38 0,1.77 0.56,3.19 1.69,4.26 1.13,1.07 2.64,1.62 4.54,1.62 2.77,0 5.04,-1 6.82,-2.97 1.77,-1.97 2.67,-4.5 2.67,-7.57z"/>
   <path id="15" class="fil5" d="M2080.78 875.28c-0.44,-0.15 -0.86,-0.26 -1.26,-0.34 -0.4,-0.08 -0.81,-0.12 -1.25,-0.12 -2.51,0 -4.51,1.18 -6.01,3.52 -1.51,2.34 -2.26,5.45 -2.26,9.33l0 14.47 -3.38 0 0 -29.88 3.38 0 0 6.38 0.12 0c0.68,-2.2 1.76,-3.9 3.22,-5.09 1.46,-1.2 3.19,-1.8 5.18,-1.8 0.52,0 0.99,0.03 1.44,0.09 0.45,0.06 0.89,0.14 1.32,0.28l-0.5 3.16z"/>
   <path id="16" class="fil5" d="M2109.25 887.67l-21.76 0c0.04,4.13 1.01,7.18 2.91,9.17 1.9,1.99 4.42,3 7.55,3 1.46,0 2.9,-0.24 4.31,-0.7 1.42,-0.47 2.83,-1.23 4.23,-2.27l1.77 2.48c-1.63,1.2 -3.31,2.08 -5.03,2.65 -1.72,0.57 -3.61,0.85 -5.68,0.85 -4.01,0 -7.28,-1.29 -9.81,-3.87 -2.54,-2.59 -3.81,-6.5 -3.83,-11.76 0,-4.54 1.25,-8.29 3.76,-11.24 2.5,-2.96 5.75,-4.42 9.76,-4.42 3.78,0 6.7,1.28 8.75,3.84 2.05,2.58 3.07,6.13 3.07,10.65l0 1.62zm-3.56 -2.96c-0.09,-3.21 -0.86,-5.71 -2.32,-7.49 -1.45,-1.79 -3.46,-2.68 -6.02,-2.68 -2.62,0 -4.8,0.88 -6.55,2.66 -1.75,1.78 -2.82,4.28 -3.22,7.51l18.11 0z"/>
   <path id="17" class="fil5" d="M2137.79 902.14l-3.42 0 0 -5.52 -0.14 0c-0.98,1.97 -2.34,3.5 -4.03,4.6 -1.7,1.09 -3.62,1.63 -5.77,1.63 -2.85,0 -5.11,-0.8 -6.78,-2.4 -1.67,-1.6 -2.51,-3.68 -2.51,-6.2 0,-2.58 0.84,-4.68 2.5,-6.29 1.67,-1.62 4.33,-2.69 8.01,-3.22l8.72 -1.29 0 -0.85c-0.07,-2.73 -0.7,-4.77 -1.9,-6.08 -1.21,-1.32 -2.91,-1.98 -5.13,-1.98 -1.7,0 -3.28,0.3 -4.78,0.91 -1.49,0.61 -2.9,1.54 -4.23,2.79l-2.07 -2.22c1.6,-1.52 3.32,-2.65 5.16,-3.39 1.86,-0.73 3.88,-1.1 6.09,-1.1 3.39,0 5.96,0.94 7.69,2.82 1.73,1.89 2.59,4.68 2.59,8.37l0 19.42zm-3.42 -12.78l0 -2.94 -7.86 1.11c-2.85,0.42 -4.87,1.12 -6.07,2.11 -1.19,0.98 -1.79,2.45 -1.79,4.38 0,1.77 0.57,3.19 1.69,4.26 1.13,1.07 2.65,1.62 4.55,1.62 2.77,0 5.04,-1 6.82,-2.97 1.77,-1.97 2.66,-4.5 2.66,-7.57z"/>
   <path id="18" class="fil5" d="M2144.56 900l1.71 -2.76c1.08,0.76 2.26,1.38 3.52,1.87 1.27,0.48 2.67,0.73 4.2,0.73 2.32,0 4.06,-0.51 5.22,-1.5 1.15,-1 1.74,-2.37 1.74,-4.11 0,-1.35 -0.47,-2.48 -1.38,-3.4 -0.93,-0.91 -2.69,-1.76 -5.29,-2.53 -3.29,-0.97 -5.57,-2.14 -6.82,-3.5 -1.26,-1.37 -1.9,-3.05 -1.9,-5.02 0,-2.45 0.9,-4.43 2.68,-5.95 1.79,-1.52 4.16,-2.27 7.13,-2.27 1.42,0 2.81,0.17 4.15,0.52 1.35,0.35 2.72,0.94 4.1,1.78l-1.62 2.7c-1.08,-0.66 -2.18,-1.17 -3.31,-1.51 -1.12,-0.34 -2.27,-0.51 -3.44,-0.51 -2.03,0 -3.6,0.45 -4.71,1.32 -1.1,0.89 -1.64,2.07 -1.64,3.55 0,1.45 0.46,2.56 1.38,3.33 0.91,0.78 2.62,1.55 5.09,2.31 3.11,0.95 5.37,2.1 6.78,3.43 1.42,1.34 2.13,3.15 2.13,5.43 0,2.76 -0.92,4.94 -2.75,6.54 -1.84,1.6 -4.36,2.4 -7.57,2.4 -1.73,0 -3.38,-0.23 -4.95,-0.71 -1.58,-0.48 -3.06,-1.18 -4.45,-2.14z"/>
   <path class="fil6" d="M1341.94 1193.62l0 131 -8 0 0 -131 8 0zm552.73 0l0 131 -8 0 0 -131 8 0zm-22 22.5l18 -31 18 31 1 2 -0.5 1.5 -0.5 1.5 -1.5 1 -1.5 0.5 -1.5 0 -1.5 -1 -1 -1 -14.5 -25 7 0 -14.5 25 -1 1 -1.5 1 -1.5 0 -1.5 -0.5 -1.5 -1 -0.5 -1.5 0 -1.5 0.5 -2 0 0zm36 85.5l-18 31 -18 -31 -0.5 -1.5 0 -1.5 0.5 -1.5 1.5 -1 1.5 -0.5 1.5 0 1.5 0.5 1 1.5 14.5 25 -7 0 14.5 -25 1 -1.5 1.5 -0.5 1.5 0 1.5 0.5 1.5 1 0.5 1.5 0.5 1.5 -1 1.5 0 0zm538.98 -108l0 131 -8.5 0 0 -131 8.5 0zm-22.5 23l18 -31.5 18.5 31.5 0.5 1.5 0 1.5 -1 1.5 -1 1 -1.5 0.5 -2 0 -1.5 -1 -1 -1 -14.5 -25 7 0 -14.5 25 -1 1 -1.5 1 -1.5 0 -1.5 -0.5 -1.5 -1 -0.5 -1.5 0 -1.5 0.5 -1.5 0 0zm36.5 85l-18.5 31.5 -18 -31.5 -0.5 -1.5 0 -1.5 0.5 -1.5 1.5 -1 1.5 -0.5 1.5 0 1.5 0.5 1 1.5 14.5 25 -7 0 14.5 -25 1 -1.5 1.5 -0.5 2 0 1.5 0.5 1 1 1 1.5 0 1.5 -0.5 1.5 0 0zm-1141.71 -85.5l18 -31 18 31 1 2 -0.5 1.5 -0.5 1.5 -1.5 1 -1.5 0.5 -1.5 0 -1.5 -1 -1 -1 -14.5 -25 7 0 -14.5 25 -1 1 -1.5 1 -1.5 0 -1.5 -0.5 -1.5 -1 -0.5 -1.5 0 -1.5 0.5 -2 0 0zm36 85.5l-18 31 -18 -31 -0.5 -1.5 0 -1.5 0.5 -1.5 1.5 -1 1.5 -0.5 1.5 0 1.5 0.5 1 1.5 14.5 25 -7 0 14.5 -25 1 -1.5 1.5 -0.5 1.5 0 1.5 0.5 1.5 1 0.5 1.5 0.5 1.5 -1 1.5 0 0z"/>
   <path class="fil7" d="M932.71 842.14l44.5 0 0 -4 -4 4 40.49 0 0 -8 -44.99 0 0 4 4.5 -4 -40.5 0 0 8zm0 256.49l44.5 0 0 -4 -4 4 40.49 0 0 -8 -44.99 0 0 4 4.5 -4 -40.5 0 0 8zm22.5 -22l-31 18 31 18 2 1 1.5 -0.5 1.5 -0.5 1 -1.5 0.5 -1.5 0 -1.5 -1 -1.5 -1 -1 -25 -14.5 0 7 25 -14.5 0 0 1 -1 1 -1.5 0 -1.5 -0.5 -1.5 -1 -1.5 -1.5 -0.5 -1.5 0 -2 0.5 0 0zm35.5 36l31 -18 -31 -18 -1.5 -0.5 -1.5 0 -1.5 0.5 -1 1.5 -1 1.5 0.5 1.5 0.5 1.5 1.5 1 24.99 14.5 0 -7 -24.99 14.5 0 0 -1.5 1 -0.5 1.5 -0.5 1.5 1 1.5 1 1.5 1.5 0.5 1.5 0.5 1.5 -1 0 0zm-35.5 -292.49l-31 18 31 18 2 1 1.5 -0.5 1.5 -0.5 1 -1.5 0.5 -1.5 0 -1.5 -1 -1.5 -1 -1 -25 -14.5 0 7 25 -14.5 0 0 1 -1 1 -1.5 0 -1.5 -0.5 -1.5 -1 -1.5 -1.5 -0.5 -1.5 0 -2 0.5 0 0zm35.5 36l31 -18 -31 -18 -1.5 -0.5 -1.5 0 -1.5 0.5 -1 1.5 -1 1.5 0.5 1.5 0.5 1.5 1.5 1 24.99 14.5 0 -7 -24.99 14.5 0 0 -1.5 1 -0.5 1.5 -0.5 1.5 1 1.5 1 1.5 1.5 0.5 1.5 0.5 1.5 -1 0 0z"/>
   <polygon class="fil8 str2" points="449.73,747.64 449.73,929.13 924.21,929.13 924.21,747.64 "/>
   <path class="fil4" d="M499.19 836.28l0 17.36 -11.5 0 0.03 -52.52 18.28 0c6.54,0 11.46,1.43 14.75,4.29 3.3,2.85 4.95,7.13 4.95,12.81 0,5.4 -1.89,9.75 -5.66,13.08 -3.78,3.33 -8.8,4.98 -15.1,4.98l-5.75 0zm0 -26.29l0 17.53 4.76 0.04c3.21,0 5.64,-0.75 7.26,-2.23 1.63,-1.49 2.43,-3.73 2.4,-6.7 0,-2.88 -0.8,-5.04 -2.4,-6.48 -1.6,-1.45 -4,-2.16 -7.2,-2.16l-4.82 0z"/>
   <path id="1" class="fil4" d="M556.75 824.56c-0.49,-0.12 -0.98,-0.21 -1.48,-0.27 -0.5,-0.07 -1.07,-0.09 -1.7,-0.09 -3.06,0 -5.36,0.96 -6.91,2.9 -1.55,1.95 -2.32,4.64 -2.32,8.07l0 18.47 -11.2 0 0 -38.42 11.2 0 0 7.18 0.15 0c0.92,-2.61 2.23,-4.57 3.93,-5.9 1.7,-1.31 3.77,-1.97 6.22,-1.97 0.57,0 1.13,0.05 1.67,0.12 0.54,0.09 1.11,0.19 1.73,0.31l-1.29 9.6z"/>
   <path id="2" class="fil4" d="M581.76 854.55c-6.32,0 -11.3,-1.79 -14.94,-5.37 -3.63,-3.6 -5.46,-8.46 -5.46,-14.58 0.03,-6.37 1.91,-11.36 5.68,-14.95 3.76,-3.59 8.85,-5.37 15.27,-5.37 6.33,0 11.28,1.78 14.85,5.36 3.58,3.57 5.36,8.33 5.36,14.3 0,6.35 -1.85,11.36 -5.56,15.06 -3.71,3.7 -8.77,5.55 -15.2,5.55zm0.4 -8.6c2.99,0 5.23,-0.99 6.73,-2.98 1.5,-1.97 2.25,-4.91 2.25,-8.82 0,-3.7 -0.77,-6.51 -2.28,-8.4 -1.51,-1.89 -3.76,-2.84 -6.77,-2.84 -2.95,0 -5.25,1.01 -6.88,3.04 -1.64,2.02 -2.46,4.86 -2.46,8.5 0,3.81 0.8,6.68 2.39,8.6 1.58,1.94 3.92,2.9 7.02,2.9z"/>
   <path id="3" class="fil4" d="M641.52 851.11c-1.95,1.2 -3.93,2.06 -5.95,2.62 -2.01,0.55 -4.2,0.82 -6.57,0.82 -6.4,0 -11.39,-1.77 -14.98,-5.32 -3.58,-3.56 -5.38,-8.18 -5.38,-13.87 0,-6.51 1.92,-11.66 5.77,-15.43 3.84,-3.78 8.94,-5.65 15.29,-5.65 2.34,0 4.41,0.22 6.2,0.68 1.8,0.47 3.59,1.2 5.37,2.2l-4.17 7.58c-1.15,-0.65 -2.28,-1.13 -3.38,-1.43 -1.1,-0.29 -2.3,-0.44 -3.58,-0.44 -3.18,0 -5.65,1.03 -7.44,3.08 -1.78,2.05 -2.68,4.94 -2.68,8.65 0,3.56 0.97,6.34 2.88,8.35 1.92,2 4.31,3 7.2,3 0.85,0 1.91,-0.17 3.19,-0.54 1.26,-0.35 2.55,-0.92 3.83,-1.73l4.4 7.43z"/>
   <path id="4" class="fil4" d="M682.65 837.56l-25.3 0c0.19,2.98 1.16,5.2 2.89,6.67 1.73,1.46 4.13,2.19 7.21,2.19 1.1,0 2.61,-0.32 4.55,-0.97 1.92,-0.65 3.81,-1.65 5.67,-3.01l4.9 6.47c-2.58,1.95 -5.23,3.39 -7.96,4.29 -2.72,0.9 -5.7,1.35 -8.95,1.35 -6.15,0 -10.92,-1.71 -14.32,-5.16 -3.39,-3.44 -5.1,-8.24 -5.13,-14.39 0,-6.15 1.8,-11.15 5.4,-14.98 3.6,-3.83 8.16,-5.74 13.69,-5.74 5.29,0 9.51,1.61 12.65,4.84 3.14,3.24 4.7,7.88 4.7,13.94l0 4.5zm-10.44 -7c0,-3.05 -0.59,-5.25 -1.77,-6.61 -1.19,-1.35 -2.93,-2.02 -5.22,-2.02 -2.02,0 -3.77,0.77 -5.23,2.32 -1.47,1.55 -2.37,3.65 -2.68,6.31l14.9 0z"/>
   <path id="5" class="fil4" d="M686.82 850.41l4.62 -7.5c1.28,1 2.82,1.85 4.6,2.54 1.76,0.7 3.72,1.05 5.87,1.05 1.64,0 2.98,-0.3 4.01,-0.9 1.04,-0.6 1.55,-1.51 1.55,-2.72 0,-1 -0.4,-1.79 -1.21,-2.37 -0.8,-0.57 -2.29,-1.1 -4.46,-1.56 -4.76,-1.02 -8.18,-2.45 -10.25,-4.29 -2.08,-1.82 -3.11,-4.4 -3.11,-7.72 0,-3.85 1.52,-6.93 4.58,-9.23 3.07,-2.3 6.84,-3.43 11.3,-3.43 2.33,0 4.5,0.28 6.54,0.87 2.04,0.59 3.98,1.48 5.8,2.68l-4.21 7.25c-1.54,-0.98 -2.98,-1.69 -4.34,-2.15 -1.35,-0.45 -2.75,-0.68 -4.19,-0.68 -1.68,0 -3.02,0.32 -4.02,0.95 -1,0.64 -1.51,1.46 -1.51,2.46 0,1.1 0.46,1.92 1.37,2.44 0.93,0.53 2.68,1.05 5.26,1.59 4.42,0.9 7.6,2.31 9.54,4.21 1.94,1.9 2.91,4.49 2.91,7.76 0,3.89 -1.46,7 -4.4,9.37 -2.92,2.35 -6.81,3.52 -11.63,3.52 -2.64,0 -5.15,-0.34 -7.55,-1 -2.39,-0.68 -4.75,-1.73 -7.07,-3.14z"/>
   <path id="6" class="fil4" d="M756.29 853.64l-10.62 0 0 -5.57 -0.15 0c-1.3,2.16 -2.9,3.77 -4.83,4.86 -1.93,1.08 -4.12,1.62 -6.55,1.62 -3.43,0 -6.3,-1.01 -8.65,-3.05 -2.34,-2.04 -3.52,-4.89 -3.52,-8.53 0,-3.56 1.17,-6.45 3.5,-8.67 2.33,-2.22 5.94,-3.66 10.83,-4.32l9.45 -1.28 0 -0.74c0,-1.97 -0.61,-3.46 -1.84,-4.46 -1.22,-1 -2.9,-1.5 -5.05,-1.5 -1.64,0 -3.4,0.27 -5.3,0.83 -1.89,0.55 -3.79,1.41 -5.69,2.61l-4 -6.63c2.53,-1.56 5.07,-2.71 7.64,-3.45 2.58,-0.72 5.38,-1.08 8.38,-1.08 5.58,0 9.72,1.33 12.38,4.02 2.68,2.69 4.02,6.74 4.02,12.16l0 23.18zm-10.54 -15.6l0 -2.75 -7.29 0.91c-2.06,0.3 -3.59,0.9 -4.59,1.81 -1,0.93 -1.5,2.15 -1.5,3.69 0,1.41 0.49,2.58 1.47,3.48 0.97,0.91 2.3,1.36 3.96,1.36 2.34,0 4.25,-0.81 5.72,-2.43 1.48,-1.61 2.23,-3.63 2.23,-6.07z"/>
   <path id="7" class="fil4" d="M792.1 848.21c-1.36,2.1 -3.05,3.69 -5.05,4.75 -2,1.07 -4.34,1.59 -7,1.59 -4.77,0 -8.64,-1.7 -11.59,-5.09 -2.93,-3.38 -4.41,-8.11 -4.41,-14.17 0,-6.35 1.63,-11.44 4.87,-15.27 3.25,-3.83 7.48,-5.74 12.7,-5.74 2.51,0 4.62,0.45 6.37,1.35 1.73,0.9 3.11,2.26 4.11,4.06l0.15 0 0 -21.57 11.21 0 0 55.52 -11.21 0 0 -5.43 -0.15 0zm-16.66 -13.25c0,3.49 0.75,6.19 2.25,8.12 1.51,1.91 3.57,2.87 6.21,2.87 2.54,0 4.6,-1 6.19,-2.99 1.58,-1.98 2.38,-4.61 2.38,-7.85l0 -3.22c0,-2.57 -0.76,-4.7 -2.3,-6.41 -1.52,-1.72 -3.48,-2.57 -5.91,-2.57 -2.75,0 -4.91,1.07 -6.47,3.2 -1.57,2.14 -2.35,5.09 -2.35,8.85z"/>
   <path id="8" class="fil4" d="M832.2 854.55c-6.33,0 -11.3,-1.79 -14.94,-5.37 -3.64,-3.6 -5.46,-8.46 -5.46,-14.58 0.02,-6.37 1.91,-11.36 5.67,-14.95 3.77,-3.59 8.85,-5.37 15.28,-5.37 6.32,0 11.27,1.78 14.85,5.36 3.57,3.57 5.36,8.33 5.36,14.3 0,6.35 -1.85,11.36 -5.56,15.06 -3.71,3.7 -8.78,5.55 -15.2,5.55zm0.4 -8.6c2.99,0 5.22,-0.99 6.72,-2.98 1.5,-1.97 2.25,-4.91 2.25,-8.82 0,-3.7 -0.76,-6.51 -2.27,-8.4 -1.51,-1.89 -3.76,-2.84 -6.78,-2.84 -2.95,0 -5.25,1.01 -6.87,3.04 -1.64,2.02 -2.46,4.86 -2.46,8.5 0,3.81 0.8,6.68 2.38,8.6 1.59,1.94 3.93,2.9 7.03,2.9z"/>
   <path id="9" class="fil4" d="M884.96 824.56c-0.49,-0.12 -0.97,-0.21 -1.47,-0.27 -0.5,-0.07 -1.08,-0.09 -1.7,-0.09 -3.07,0 -5.37,0.96 -6.92,2.9 -1.55,1.95 -2.32,4.64 -2.32,8.07l0 18.47 -11.2 0 0 -38.42 11.2 0 0 7.18 0.15 0c0.92,-2.61 2.24,-4.57 3.94,-5.9 1.7,-1.31 3.76,-1.97 6.21,-1.97 0.57,0 1.14,0.05 1.67,0.12 0.54,0.09 1.12,0.19 1.73,0.31l-1.29 9.6z"/>
   <polygon class="fil8 str2" points="449.73,1004.13 449.73,1185.12 924.21,1185.12 924.21,1004.13 "/>
   <path class="fil4" d="M588.62 1110.13l-11.33 0 0 -31.68c0,-1.66 0.04,-3.42 0.12,-5.3 0.07,-1.86 0.18,-3.82 0.32,-5.87l-0.29 0c-0.31,1.59 -0.6,2.95 -0.86,4.09 -0.25,1.13 -0.5,2.03 -0.75,2.72l-12.7 36.04 -9.2 0 -12.89 -35.68c-0.17,-0.48 -0.4,-1.32 -0.67,-2.52 -0.29,-1.19 -0.61,-2.74 -0.98,-4.65l-0.32 0c0.16,2.47 0.28,4.82 0.36,7.07 0.07,2.24 0.11,4.35 0.11,6.34l0 29.44 -10.36 0 0 -52.51 16.74 0 11.09 31.48c0.43,1.18 0.81,2.33 1.09,3.47 0.3,1.13 0.56,2.27 0.78,3.42l0.21 0c0.38,-1.31 0.73,-2.56 1.07,-3.74 0.34,-1.16 0.69,-2.23 1.06,-3.22l11.13 -31.41 16.27 0 0 52.51z"/>
   <path id="1" class="fil4" d="M634.45 1094.05l-25.29 0c0.18,2.98 1.16,5.2 2.88,6.67 1.74,1.46 4.14,2.2 7.22,2.2 1.09,0 2.61,-0.33 4.54,-0.98 1.93,-0.65 3.82,-1.65 5.68,-3.01l4.9 6.47c-2.59,1.95 -5.24,3.39 -7.96,4.29 -2.73,0.9 -5.7,1.35 -8.95,1.35 -6.15,0 -10.93,-1.71 -14.33,-5.16 -3.38,-3.44 -5.1,-8.24 -5.12,-14.39 0,-6.15 1.8,-11.15 5.4,-14.97 3.6,-3.84 8.16,-5.75 13.69,-5.75 5.28,0 9.51,1.61 12.65,4.85 3.13,3.23 4.69,7.87 4.69,13.93l0 4.5zm-10.43 -7c0,-3.05 -0.59,-5.25 -1.78,-6.61 -1.18,-1.35 -2.92,-2.02 -5.21,-2.02 -2.02,0 -3.77,0.77 -5.24,2.32 -1.46,1.55 -2.36,3.65 -2.67,6.31l14.9 0z"/>
   <path id="2" class="fil4" d="M702.49 1110.13l-11.16 0 0 -21.94c0,-2.97 -0.54,-5.19 -1.6,-6.62 -1.06,-1.44 -2.67,-2.17 -4.85,-2.17 -2.02,0 -3.69,0.88 -4.99,2.64 -1.28,1.76 -1.93,3.94 -1.93,6.55l0 21.54 -11.2 0 0 -22.23c0,-2.86 -0.54,-4.98 -1.6,-6.4 -1.07,-1.4 -2.64,-2.1 -4.74,-2.1 -2.13,0 -3.83,0.84 -5.09,2.52 -1.27,1.66 -1.91,3.93 -1.91,6.78l0 21.43 -11.2 0 0 -38.41 11.2 0 0 6 0.15 0c1.25,-2.1 2.96,-3.79 5.15,-5.05 2.17,-1.28 4.59,-1.9 7.22,-1.9 2.72,0 5,0.6 6.85,1.82 1.87,1.23 3.28,3.03 4.25,5.43 1.47,-2.43 3.28,-4.24 5.43,-5.44 2.14,-1.21 4.64,-1.81 7.46,-1.81 4.2,0 7.35,1.28 9.44,3.87 2.09,2.59 3.12,6.46 3.12,11.61l0 23.88z"/>
   <path id="3" class="fil4" d="M730.66 1111.04c-6.33,0 -11.31,-1.79 -14.94,-5.37 -3.64,-3.6 -5.46,-8.45 -5.46,-14.58 0.02,-6.37 1.91,-11.36 5.67,-14.95 3.76,-3.59 8.85,-5.37 15.27,-5.37 6.33,0 11.28,1.78 14.85,5.36 3.58,3.57 5.37,8.34 5.37,14.3 0,6.35 -1.85,11.36 -5.56,15.06 -3.72,3.7 -8.78,5.55 -15.2,5.55zm0.39 -8.6c2.99,0 5.23,-0.99 6.73,-2.97 1.5,-1.98 2.25,-4.92 2.25,-8.83 0,-3.7 -0.76,-6.51 -2.27,-8.4 -1.52,-1.89 -3.77,-2.84 -6.78,-2.84 -2.95,0 -5.25,1.02 -6.87,3.04 -1.64,2.03 -2.47,4.86 -2.47,8.5 0,3.81 0.8,6.68 2.39,8.6 1.59,1.94 3.93,2.9 7.02,2.9z"/>
   <path id="4" class="fil4" d="M783.42 1081.05c-0.49,-0.12 -0.98,-0.21 -1.48,-0.27 -0.5,-0.06 -1.07,-0.09 -1.7,-0.09 -3.06,0 -5.36,0.96 -6.91,2.9 -1.55,1.95 -2.32,4.64 -2.32,8.08l0 18.46 -11.2 0 0 -38.41 11.2 0 0 7.17 0.15 0c0.92,-2.61 2.23,-4.57 3.93,-5.9 1.7,-1.31 3.77,-1.97 6.21,-1.97 0.58,0 1.14,0.05 1.68,0.12 0.54,0.09 1.11,0.19 1.73,0.31l-1.29 9.6z"/>
   <path id="5" class="fil4" d="M796.61 1066.55c-1.95,0 -3.55,-0.6 -4.8,-1.77 -1.25,-1.19 -1.87,-2.66 -1.87,-4.41 0,-1.82 0.62,-3.3 1.87,-4.45 1.25,-1.17 2.85,-1.75 4.8,-1.75 1.95,0 3.55,0.58 4.77,1.75 1.24,1.15 1.85,2.63 1.85,4.45 0,1.8 -0.61,3.28 -1.85,4.45 -1.22,1.15 -2.82,1.73 -4.77,1.73zm5.48 43.58l-11.16 0 0 -38.41 11.16 0 0 38.41z"/>
   <path id="6" class="fil4" d="M844.75 1110.13l-10.61 0 0 -5.56 -0.15 0c-1.3,2.15 -2.9,3.76 -4.84,4.85 -1.92,1.08 -4.11,1.62 -6.55,1.62 -3.42,0 -6.3,-1.01 -8.64,-3.05 -2.34,-2.04 -3.52,-4.89 -3.52,-8.52 0,-3.57 1.16,-6.45 3.5,-8.68 2.33,-2.22 5.94,-3.66 10.83,-4.32l9.45 -1.28 0 -0.74c0,-1.97 -0.61,-3.46 -1.84,-4.46 -1.23,-1 -2.9,-1.5 -5.05,-1.5 -1.64,0 -3.4,0.28 -5.3,0.83 -1.89,0.55 -3.79,1.41 -5.69,2.61l-4 -6.63c2.53,-1.56 5.07,-2.71 7.64,-3.45 2.57,-0.72 5.38,-1.08 8.38,-1.08 5.58,0 9.72,1.33 12.38,4.02 2.68,2.69 4.01,6.74 4.01,12.16l0 23.18zm-10.53 -15.6l0 -2.75 -7.29 0.91c-2.06,0.3 -3.59,0.9 -4.59,1.81 -1,0.93 -1.5,2.15 -1.5,3.69 0,1.41 0.49,2.58 1.46,3.48 0.98,0.91 2.31,1.36 3.97,1.36 2.33,0 4.25,-0.81 5.72,-2.43 1.48,-1.61 2.23,-3.63 2.23,-6.07z"/>
   <polygon class="fil8 str2" points="1100.7,1333.12 1100.7,1514.11 1575.68,1514.11 1575.68,1333.12 "/>
   <path class="fil4" d="M1180.98 1439.12l0 -35.01 12.23 0c6.22,0 10.88,1.41 13.99,4.26 3.11,2.84 4.67,7.1 4.67,12.8 0,5.45 -1.7,9.8 -5.11,13.06 -3.4,3.26 -7.93,4.89 -13.57,4.89l-12.21 0zm7.65 -28.76l0 22.53 4 0c3.5,0 6.24,-1.04 8.22,-3.12 1.99,-2.07 2.99,-4.9 2.99,-8.5 0,-3.42 -0.99,-6.1 -2.95,-8.02 -1.95,-1.93 -4.73,-2.89 -8.31,-2.89l-3.95 0z"/>
   <path id="1" class="fil4" d="M1221.29 1410.07c-1.3,0 -2.36,-0.4 -3.2,-1.19 -0.83,-0.79 -1.24,-1.77 -1.24,-2.94 0,-1.21 0.41,-2.2 1.24,-2.97 0.84,-0.77 1.9,-1.16 3.2,-1.16 1.3,0 2.37,0.39 3.19,1.16 0.82,0.77 1.23,1.76 1.23,2.97 0,1.2 -0.41,2.19 -1.23,2.97 -0.82,0.76 -1.89,1.16 -3.19,1.16zm3.66 29.05l-7.44 0 0 -25.61 7.44 0 0 25.61z"/>
   <path id="2" class="fil4" d="M1229.99 1436.97l3.07 -5c0.86,0.66 1.88,1.23 3.07,1.69 1.17,0.46 2.48,0.7 3.91,0.7 1.09,0 1.99,-0.2 2.68,-0.6 0.69,-0.4 1.03,-1.01 1.03,-1.82 0,-0.67 -0.26,-1.19 -0.81,-1.57 -0.53,-0.39 -1.52,-0.74 -2.97,-1.05 -3.18,-0.68 -5.45,-1.63 -6.83,-2.85 -1.39,-1.22 -2.08,-2.94 -2.08,-5.15 0,-2.57 1.02,-4.62 3.06,-6.15 2.04,-1.54 4.56,-2.3 7.53,-2.3 1.55,0 3,0.2 4.36,0.59 1.36,0.39 2.65,0.98 3.87,1.78l-2.81 4.83c-1.03,-0.65 -1.99,-1.12 -2.89,-1.43 -0.9,-0.3 -1.84,-0.45 -2.79,-0.45 -1.13,0 -2.02,0.22 -2.69,0.63 -0.67,0.43 -1.01,0.98 -1.01,1.65 0,0.73 0.31,1.27 0.92,1.62 0.62,0.35 1.78,0.7 3.51,1.06 2.94,0.6 5.06,1.54 6.36,2.81 1.29,1.26 1.94,2.99 1.94,5.17 0,2.59 -0.98,4.67 -2.94,6.24 -1.95,1.57 -4.54,2.35 -7.75,2.35 -1.76,0 -3.44,-0.22 -5.04,-0.66 -1.59,-0.45 -3.16,-1.15 -4.7,-2.09z"/>
   <path id="3" class="fil4" d="M1262.82 1436.07l-0.08 -0.03 -0.02 14.58 -7.44 0 -0.03 -37.11 7.49 0 -0.02 3.95 0.12 -0.03c0.98,-1.52 2.16,-2.66 3.55,-3.42 1.4,-0.76 2.98,-1.14 4.75,-1.14 3.31,0 5.87,1.14 7.68,3.42 1.81,2.28 2.72,5.38 2.72,9.3 0.02,4.27 -1.03,7.68 -3.15,10.27 -2.11,2.57 -4.92,3.86 -8.42,3.86 -1.56,0 -2.93,-0.3 -4.11,-0.9 -1.18,-0.6 -2.19,-1.52 -3.04,-2.75zm-0.19 -10.5l0 2.22c0,1.8 0.49,3.29 1.47,4.45 0.99,1.17 2.28,1.75 3.87,1.75 1.87,0 3.33,-0.73 4.38,-2.18 1.05,-1.46 1.58,-3.51 1.58,-6.14 0,-2.34 -0.47,-4.09 -1.4,-5.27 -0.95,-1.18 -2.31,-1.76 -4.12,-1.74 -1.71,-0.02 -3.1,0.61 -4.18,1.89 -1.07,1.27 -1.6,2.95 -1.6,5.02z"/>
   <path id="4" class="fil4" d="M1299.22 1439.72c-4.22,0 -7.54,-1.19 -9.96,-3.58 -2.42,-2.4 -3.64,-5.63 -3.64,-9.72 0.02,-4.25 1.27,-7.57 3.78,-9.96 2.51,-2.39 5.9,-3.59 10.19,-3.59 4.21,0 7.51,1.2 9.89,3.58 2.39,2.38 3.58,5.56 3.58,9.53 0,4.24 -1.23,7.58 -3.71,10.04 -2.47,2.47 -5.85,3.7 -10.13,3.7zm0.26 -5.73c2,0 3.49,-0.66 4.49,-1.98 1,-1.32 1.5,-3.28 1.5,-5.89 0,-2.46 -0.51,-4.34 -1.52,-5.6 -1.01,-1.25 -2.51,-1.89 -4.51,-1.89 -1.97,0 -3.51,0.68 -4.59,2.03 -1.09,1.35 -1.64,3.24 -1.64,5.66 0,2.55 0.53,4.45 1.59,5.74 1.06,1.29 2.62,1.93 4.68,1.93z"/>
   <path id="5" class="fil4" d="M1316.26 1436.97l3.07 -5c0.86,0.66 1.89,1.23 3.07,1.69 1.18,0.46 2.48,0.7 3.92,0.7 1.09,0 1.98,-0.2 2.67,-0.6 0.69,-0.4 1.04,-1.01 1.04,-1.82 0,-0.67 -0.27,-1.19 -0.81,-1.57 -0.54,-0.39 -1.53,-0.74 -2.98,-1.05 -3.17,-0.68 -5.45,-1.63 -6.83,-2.85 -1.38,-1.22 -2.08,-2.94 -2.08,-5.15 0,-2.57 1.02,-4.62 3.06,-6.15 2.04,-1.54 4.56,-2.3 7.54,-2.3 1.55,0 3,0.2 4.35,0.59 1.36,0.39 2.65,0.98 3.87,1.78l-2.81 4.83c-1.02,-0.65 -1.98,-1.12 -2.89,-1.43 -0.9,-0.3 -1.83,-0.45 -2.79,-0.45 -1.13,0 -2.02,0.22 -2.68,0.63 -0.67,0.43 -1.01,0.98 -1.01,1.65 0,0.73 0.31,1.27 0.91,1.62 0.62,0.35 1.79,0.7 3.51,1.06 2.94,0.6 5.07,1.54 6.36,2.81 1.29,1.26 1.94,2.99 1.94,5.17 0,2.59 -0.97,4.67 -2.93,6.24 -1.95,1.57 -4.54,2.35 -7.76,2.35 -1.76,0 -3.43,-0.22 -5.03,-0.66 -1.59,-0.45 -3.17,-1.15 -4.71,-2.09z"/>
   <path id="6" class="fil4" d="M1345.36 1410.07c-1.3,0 -2.37,-0.4 -3.2,-1.19 -0.83,-0.79 -1.24,-1.77 -1.24,-2.94 0,-1.21 0.41,-2.2 1.24,-2.97 0.83,-0.77 1.9,-1.16 3.2,-1.16 1.3,0 2.37,0.39 3.18,1.16 0.83,0.77 1.24,1.76 1.24,2.97 0,1.2 -0.41,2.19 -1.24,2.97 -0.81,0.76 -1.88,1.16 -3.18,1.16zm3.66 29.05l-7.44 0 0 -25.61 7.44 0 0 25.61z"/>
   <path id="7" class="fil4" d="M1372.12 1438.7c-0.79,0.34 -1.66,0.6 -2.62,0.77 -0.96,0.17 -1.92,0.25 -2.9,0.25 -2.74,0 -4.8,-0.66 -6.19,-2 -1.39,-1.33 -2.09,-3.32 -2.09,-5.98l0 -12.69 -4.18 -0.03 -0.02 -5.51 4.2 0 0 -5.79 7.45 -2.12 -0.03 7.91 5.86 0 0 5.54 -5.83 -0.03 -0.03 12.26c0,1.04 0.2,1.79 0.61,2.27 0.41,0.47 1.04,0.7 1.91,0.68 0.44,0.02 0.86,-0.03 1.26,-0.16 0.4,-0.12 0.76,-0.26 1.11,-0.42l1.49 5.05z"/>
   <path id="8" class="fil4" d="M1380.37 1410.07c-1.3,0 -2.37,-0.4 -3.2,-1.19 -0.84,-0.79 -1.24,-1.77 -1.24,-2.94 0,-1.21 0.4,-2.2 1.24,-2.97 0.83,-0.77 1.9,-1.16 3.2,-1.16 1.3,0 2.36,0.39 3.18,1.16 0.83,0.77 1.23,1.76 1.23,2.97 0,1.2 -0.4,2.19 -1.23,2.97 -0.82,0.76 -1.88,1.16 -3.18,1.16zm3.66 29.05l-7.45 0 0 -25.61 7.45 0 0 25.61z"/>
   <path id="9" class="fil4" d="M1415.45 1413.51l-9.6 25.61 -8.42 0 -9.18 -25.61 8.01 0 4.71 16.11c0.25,0.88 0.44,1.69 0.59,2.43 0.14,0.74 0.23,1.41 0.27,2.02l0.1 0c0.05,-0.61 0.17,-1.27 0.32,-1.99 0.16,-0.71 0.36,-1.48 0.6,-2.31l4.81 -16.26 7.79 0z"/>
   <path id="10" class="fil4" d="M1430.9 1439.72c-4.22,0 -7.53,-1.19 -9.96,-3.58 -2.42,-2.4 -3.64,-5.63 -3.64,-9.72 0.02,-4.25 1.28,-7.57 3.78,-9.96 2.51,-2.39 5.9,-3.59 10.19,-3.59 4.21,0 7.51,1.2 9.9,3.58 2.38,2.38 3.57,5.56 3.57,9.53 0,4.24 -1.23,7.58 -3.71,10.04 -2.47,2.47 -5.85,3.7 -10.13,3.7zm0.27 -5.73c1.99,0 3.48,-0.66 4.48,-1.98 1,-1.32 1.5,-3.28 1.5,-5.89 0,-2.46 -0.51,-4.34 -1.52,-5.6 -1,-1.25 -2.5,-1.89 -4.51,-1.89 -1.97,0 -3.5,0.68 -4.59,2.03 -1.09,1.35 -1.64,3.24 -1.64,5.66 0,2.55 0.54,4.45 1.59,5.74 1.06,1.29 2.62,1.93 4.69,1.93z"/>
   <path id="11" class="fil4" d="M1461.1 1439.12l12.79 -35.01 9.01 0 12.5 35.01 -8.3 0 -2.47 -7.45 -12.86 0 -2.39 7.45 -8.28 0zm12.35 -13.43l9.37 0 -3.98 -12.38c-0.12,-0.47 -0.23,-0.88 -0.32,-1.22 -0.09,-0.34 -0.17,-0.78 -0.24,-1.32l-0.19 0c-0.08,0.49 -0.17,0.91 -0.26,1.27 -0.09,0.36 -0.21,0.76 -0.36,1.2l-4.02 12.45z"/>
   <polygon class="fil8 str2" points="1653.68,1333.12 1653.68,1514.11 2128.16,1514.11 2128.16,1333.12 "/>
   <path class="fil4" d="M1735.99 1439.12l0 -35.01 12.22 0c6.23,0 10.88,1.41 13.99,4.26 3.11,2.84 4.67,7.1 4.67,12.8 0,5.45 -1.7,9.8 -5.11,13.06 -3.4,3.26 -7.92,4.89 -13.57,4.89l-12.2 0zm7.64 -28.76l0 22.53 4 0c3.5,0 6.24,-1.04 8.22,-3.12 1.99,-2.07 2.99,-4.9 2.99,-8.5 0,-3.42 -0.99,-6.1 -2.95,-8.02 -1.95,-1.93 -4.73,-2.89 -8.31,-2.89l-3.95 0z"/>
   <path id="1" class="fil4" d="M1776.29 1410.07c-1.3,0 -2.36,-0.4 -3.2,-1.19 -0.83,-0.79 -1.24,-1.77 -1.24,-2.94 0,-1.21 0.41,-2.2 1.24,-2.97 0.84,-0.77 1.9,-1.16 3.2,-1.16 1.3,0 2.37,0.39 3.19,1.16 0.82,0.77 1.23,1.76 1.23,2.97 0,1.2 -0.41,2.19 -1.23,2.97 -0.82,0.76 -1.89,1.16 -3.19,1.16zm3.66 29.05l-7.44 0 0 -25.61 7.44 0 0 25.61z"/>
   <path id="2" class="fil4" d="M1784.99 1436.97l3.07 -5c0.86,0.66 1.88,1.23 3.07,1.69 1.17,0.46 2.48,0.7 3.91,0.7 1.1,0 1.99,-0.2 2.68,-0.6 0.69,-0.4 1.03,-1.01 1.03,-1.82 0,-0.67 -0.26,-1.19 -0.81,-1.57 -0.53,-0.39 -1.52,-0.74 -2.97,-1.05 -3.18,-0.68 -5.45,-1.63 -6.83,-2.85 -1.39,-1.22 -2.08,-2.94 -2.08,-5.15 0,-2.57 1.02,-4.62 3.06,-6.15 2.04,-1.54 4.56,-2.3 7.53,-2.3 1.55,0 3,0.2 4.36,0.59 1.36,0.39 2.65,0.98 3.87,1.78l-2.81 4.83c-1.03,-0.65 -1.98,-1.12 -2.89,-1.43 -0.9,-0.3 -1.84,-0.45 -2.79,-0.45 -1.13,0 -2.02,0.22 -2.69,0.63 -0.66,0.43 -1.01,0.98 -1.01,1.65 0,0.73 0.31,1.27 0.92,1.62 0.62,0.35 1.78,0.7 3.51,1.06 2.94,0.6 5.07,1.54 6.36,2.81 1.29,1.26 1.94,2.99 1.94,5.17 0,2.59 -0.98,4.67 -2.93,6.24 -1.95,1.57 -4.55,2.35 -7.76,2.35 -1.76,0 -3.44,-0.22 -5.04,-0.66 -1.59,-0.45 -3.16,-1.15 -4.7,-2.09z"/>
   <path id="3" class="fil4" d="M1817.82 1436.07l-0.08 -0.03 -0.02 14.58 -7.44 0 -0.03 -37.11 7.49 0 -0.02 3.95 0.12 -0.03c0.98,-1.52 2.16,-2.66 3.55,-3.42 1.4,-0.76 2.98,-1.14 4.75,-1.14 3.31,0 5.87,1.14 7.68,3.42 1.82,2.28 2.72,5.38 2.72,9.3 0.02,4.27 -1.03,7.68 -3.15,10.27 -2.11,2.57 -4.92,3.86 -8.42,3.86 -1.56,0 -2.93,-0.3 -4.11,-0.9 -1.18,-0.6 -2.19,-1.52 -3.04,-2.75zm-0.19 -10.5l0 2.22c0,1.8 0.49,3.29 1.47,4.45 0.99,1.17 2.28,1.75 3.87,1.75 1.87,0 3.33,-0.73 4.38,-2.18 1.05,-1.46 1.58,-3.51 1.58,-6.14 0,-2.34 -0.47,-4.09 -1.4,-5.27 -0.94,-1.18 -2.31,-1.76 -4.12,-1.74 -1.71,-0.02 -3.1,0.61 -4.17,1.89 -1.08,1.27 -1.61,2.95 -1.61,5.02z"/>
   <path id="4" class="fil4" d="M1854.22 1439.72c-4.22,0 -7.53,-1.19 -9.96,-3.58 -2.42,-2.4 -3.64,-5.63 -3.64,-9.72 0.02,-4.25 1.27,-7.57 3.78,-9.96 2.51,-2.39 5.9,-3.59 10.19,-3.59 4.21,0 7.51,1.2 9.89,3.58 2.39,2.38 3.58,5.56 3.58,9.53 0,4.24 -1.23,7.58 -3.71,10.04 -2.47,2.47 -5.85,3.7 -10.13,3.7zm0.27 -5.73c1.99,0 3.48,-0.66 4.48,-1.98 1,-1.32 1.5,-3.28 1.5,-5.89 0,-2.46 -0.51,-4.34 -1.52,-5.6 -1.01,-1.25 -2.51,-1.89 -4.51,-1.89 -1.97,0 -3.5,0.68 -4.59,2.03 -1.09,1.35 -1.64,3.24 -1.64,5.66 0,2.55 0.53,4.45 1.59,5.74 1.06,1.29 2.62,1.93 4.69,1.93z"/>
   <path id="5" class="fil4" d="M1871.26 1436.97l3.08 -5c0.85,0.66 1.88,1.23 3.06,1.69 1.18,0.46 2.49,0.7 3.92,0.7 1.09,0 1.98,-0.2 2.67,-0.6 0.7,-0.4 1.04,-1.01 1.04,-1.82 0,-0.67 -0.27,-1.19 -0.81,-1.57 -0.54,-0.39 -1.53,-0.74 -2.98,-1.05 -3.17,-0.68 -5.45,-1.63 -6.83,-2.85 -1.38,-1.22 -2.07,-2.94 -2.07,-5.15 0,-2.57 1.01,-4.62 3.05,-6.15 2.05,-1.54 4.56,-2.3 7.54,-2.3 1.55,0 3,0.2 4.35,0.59 1.36,0.39 2.66,0.98 3.87,1.78l-2.81 4.83c-1.02,-0.65 -1.98,-1.12 -2.89,-1.43 -0.9,-0.3 -1.83,-0.45 -2.79,-0.45 -1.12,0 -2.02,0.22 -2.68,0.63 -0.67,0.43 -1.01,0.98 -1.01,1.65 0,0.73 0.31,1.27 0.92,1.62 0.61,0.35 1.78,0.7 3.5,1.06 2.95,0.6 5.07,1.54 6.36,2.81 1.29,1.26 1.94,2.99 1.94,5.17 0,2.59 -0.97,4.67 -2.93,6.24 -1.95,1.57 -4.54,2.35 -7.76,2.35 -1.76,0 -3.43,-0.22 -5.03,-0.66 -1.59,-0.45 -3.17,-1.15 -4.71,-2.09z"/>
   <path id="6" class="fil4" d="M1900.36 1410.07c-1.3,0 -2.37,-0.4 -3.2,-1.19 -0.83,-0.79 -1.24,-1.77 -1.24,-2.94 0,-1.21 0.41,-2.2 1.24,-2.97 0.83,-0.77 1.9,-1.16 3.2,-1.16 1.3,0 2.37,0.39 3.18,1.16 0.83,0.77 1.24,1.76 1.24,2.97 0,1.2 -0.41,2.19 -1.24,2.97 -0.81,0.76 -1.88,1.16 -3.18,1.16zm3.66 29.05l-7.44 0 0 -25.61 7.44 0 0 25.61z"/>
   <path id="7" class="fil4" d="M1927.12 1438.7c-0.78,0.34 -1.66,0.6 -2.62,0.77 -0.96,0.17 -1.92,0.25 -2.9,0.25 -2.74,0 -4.8,-0.66 -6.19,-2 -1.39,-1.33 -2.09,-3.32 -2.09,-5.98l0 -12.69 -4.18 -0.03 -0.02 -5.51 4.2 0 0 -5.79 7.45 -2.12 -0.03 7.91 5.86 0 0 5.54 -5.83 -0.03 -0.03 12.26c0,1.04 0.2,1.79 0.61,2.27 0.41,0.47 1.04,0.7 1.91,0.68 0.44,0.02 0.86,-0.03 1.26,-0.16 0.4,-0.12 0.77,-0.26 1.11,-0.42l1.49 5.05z"/>
   <path id="8" class="fil4" d="M1935.37 1410.07c-1.3,0 -2.37,-0.4 -3.2,-1.19 -0.83,-0.79 -1.24,-1.77 -1.24,-2.94 0,-1.21 0.41,-2.2 1.24,-2.97 0.83,-0.77 1.9,-1.16 3.2,-1.16 1.3,0 2.37,0.39 3.18,1.16 0.83,0.77 1.23,1.76 1.23,2.97 0,1.2 -0.4,2.19 -1.23,2.97 -0.81,0.76 -1.88,1.16 -3.18,1.16zm3.66 29.05l-7.44 0 0 -25.61 7.44 0 0 25.61z"/>
   <path id="9" class="fil4" d="M1970.45 1413.51l-9.6 25.61 -8.42 0 -9.18 -25.61 8.01 0 4.71 16.11c0.25,0.88 0.44,1.69 0.59,2.43 0.14,0.74 0.23,1.41 0.27,2.02l0.1 0c0.06,-0.61 0.17,-1.27 0.32,-1.99 0.16,-0.71 0.36,-1.48 0.6,-2.31l4.81 -16.26 7.79 0z"/>
   <path id="10" class="fil4" d="M1985.9 1439.72c-4.22,0 -7.53,-1.19 -9.96,-3.58 -2.42,-2.4 -3.64,-5.63 -3.64,-9.72 0.02,-4.25 1.28,-7.57 3.78,-9.96 2.51,-2.39 5.9,-3.59 10.19,-3.59 4.21,0 7.51,1.2 9.9,3.58 2.38,2.38 3.57,5.56 3.57,9.53 0,4.24 -1.23,7.58 -3.71,10.04 -2.47,2.47 -5.85,3.7 -10.13,3.7zm0.27 -5.73c1.99,0 3.48,-0.66 4.48,-1.98 1,-1.32 1.5,-3.28 1.5,-5.89 0,-2.46 -0.51,-4.34 -1.52,-5.6 -1,-1.25 -2.5,-1.89 -4.51,-1.89 -1.97,0 -3.5,0.68 -4.59,2.03 -1.09,1.35 -1.64,3.24 -1.64,5.66 0,2.55 0.54,4.45 1.59,5.74 1.06,1.29 2.62,1.93 4.69,1.93z"/>
   <path id="11" class="fil4" d="M2019.86 1439.12l0 -35.01 12.57 0c3.84,0 6.8,0.74 8.89,2.21 2.08,1.49 3.12,3.57 3.12,6.25 0,1.88 -0.56,3.52 -1.68,4.94 -1.13,1.41 -2.57,2.4 -4.33,2.96l0 0.09c2.27,0.3 4.07,1.19 5.41,2.67 1.34,1.49 2.02,3.31 2.02,5.46 0,3.19 -1.14,5.73 -3.43,7.61 -2.29,1.87 -5.4,2.82 -9.31,2.82l-13.26 0zm7.64 -29.35l0 8.74 3.52 0c1.66,0 2.96,-0.4 3.94,-1.19 0.97,-0.8 1.45,-1.91 1.45,-3.33 0,-1.42 -0.49,-2.47 -1.47,-3.17 -0.97,-0.7 -2.43,-1.05 -4.36,-1.05l-3.08 0zm0 14.45l0 9.23 4.37 0c1.86,0 3.31,-0.43 4.37,-1.3 1.05,-0.88 1.59,-2.06 1.59,-3.56 0,-1.37 -0.53,-2.43 -1.58,-3.21 -1.05,-0.77 -2.52,-1.16 -4.41,-1.16l-4.34 0z"/>
   <polygon class="fil8 str2" points="2206.16,1333.12 2206.16,1514.11 2680.64,1514.11 2680.64,1333.12 "/>
   <path class="fil4" d="M2288.31 1439.12l0 -35.01 12.22 0c6.23,0 10.88,1.41 13.99,4.26 3.11,2.84 4.67,7.1 4.67,12.8 0,5.45 -1.7,9.8 -5.11,13.06 -3.4,3.26 -7.92,4.89 -13.56,4.89l-12.21 0zm7.64 -28.76l0 22.53 4 0c3.5,0 6.24,-1.04 8.22,-3.12 2,-2.07 2.99,-4.9 2.99,-8.5 0,-3.42 -0.99,-6.1 -2.94,-8.02 -1.96,-1.93 -4.74,-2.89 -8.32,-2.89l-3.95 0z"/>
   <path id="1" class="fil4" d="M2328.62 1410.07c-1.31,0 -2.37,-0.4 -3.2,-1.19 -0.84,-0.79 -1.25,-1.77 -1.25,-2.94 0,-1.21 0.41,-2.2 1.25,-2.97 0.83,-0.77 1.89,-1.16 3.2,-1.16 1.3,0 2.36,0.39 3.18,1.16 0.82,0.77 1.23,1.76 1.23,2.97 0,1.2 -0.41,2.19 -1.23,2.97 -0.82,0.76 -1.88,1.16 -3.18,1.16zm3.65 29.05l-7.44 0 0 -25.61 7.44 0 0 25.61z"/>
   <path id="2" class="fil4" d="M2337.31 1436.97l3.07 -5c0.86,0.66 1.89,1.23 3.07,1.69 1.17,0.46 2.48,0.7 3.92,0.7 1.09,0 1.98,-0.2 2.67,-0.6 0.69,-0.4 1.03,-1.01 1.03,-1.82 0,-0.67 -0.26,-1.19 -0.81,-1.57 -0.53,-0.39 -1.52,-0.74 -2.97,-1.05 -3.18,-0.68 -5.45,-1.63 -6.83,-2.85 -1.39,-1.22 -2.08,-2.94 -2.08,-5.15 0,-2.57 1.02,-4.62 3.06,-6.15 2.04,-1.54 4.56,-2.3 7.53,-2.3 1.55,0 3,0.2 4.36,0.59 1.36,0.39 2.65,0.98 3.87,1.78l-2.81 4.83c-1.02,-0.65 -1.98,-1.12 -2.89,-1.43 -0.9,-0.3 -1.84,-0.45 -2.79,-0.45 -1.13,0 -2.02,0.22 -2.69,0.63 -0.66,0.43 -1.01,0.98 -1.01,1.65 0,0.73 0.31,1.27 0.92,1.62 0.62,0.35 1.78,0.7 3.51,1.06 2.94,0.6 5.07,1.54 6.36,2.81 1.29,1.26 1.94,2.99 1.94,5.17 0,2.59 -0.98,4.67 -2.93,6.24 -1.95,1.57 -4.55,2.35 -7.76,2.35 -1.76,0 -3.43,-0.22 -5.04,-0.66 -1.59,-0.45 -3.16,-1.15 -4.7,-2.09z"/>
   <path id="3" class="fil4" d="M2370.14 1436.07l-0.08 -0.03 -0.02 14.58 -7.44 0 -0.03 -37.11 7.49 0 -0.02 3.95 0.13 -0.03c0.97,-1.52 2.15,-2.66 3.55,-3.42 1.39,-0.76 2.97,-1.14 4.74,-1.14 3.31,0 5.87,1.14 7.68,3.42 1.82,2.28 2.73,5.38 2.73,9.3 0.01,4.27 -1.04,7.68 -3.15,10.27 -2.12,2.57 -4.93,3.86 -8.43,3.86 -1.56,0 -2.93,-0.3 -4.11,-0.9 -1.18,-0.6 -2.19,-1.52 -3.04,-2.75zm-0.19 -10.5l0 2.22c0,1.8 0.49,3.29 1.47,4.45 0.99,1.17 2.28,1.75 3.87,1.75 1.88,0 3.33,-0.73 4.38,-2.18 1.05,-1.46 1.58,-3.51 1.58,-6.14 0,-2.34 -0.47,-4.09 -1.4,-5.27 -0.94,-1.18 -2.31,-1.76 -4.12,-1.74 -1.71,-0.02 -3.1,0.61 -4.17,1.89 -1.08,1.27 -1.61,2.95 -1.61,5.02z"/>
   <path id="4" class="fil4" d="M2406.54 1439.72c-4.22,0 -7.53,-1.19 -9.96,-3.58 -2.42,-2.4 -3.64,-5.63 -3.64,-9.72 0.02,-4.25 1.27,-7.57 3.78,-9.96 2.51,-2.39 5.9,-3.59 10.19,-3.59 4.21,0 7.51,1.2 9.9,3.58 2.38,2.38 3.57,5.56 3.57,9.53 0,4.24 -1.23,7.58 -3.71,10.04 -2.47,2.47 -5.85,3.7 -10.13,3.7zm0.27 -5.73c1.99,0 3.48,-0.66 4.48,-1.98 1,-1.32 1.5,-3.28 1.5,-5.89 0,-2.46 -0.51,-4.34 -1.52,-5.6 -1.01,-1.25 -2.51,-1.89 -4.51,-1.89 -1.97,0 -3.5,0.68 -4.59,2.03 -1.09,1.35 -1.64,3.24 -1.64,5.66 0,2.55 0.54,4.45 1.59,5.74 1.06,1.29 2.62,1.93 4.69,1.93z"/>
   <path id="5" class="fil4" d="M2423.58 1436.97l3.08 -5c0.85,0.66 1.88,1.23 3.06,1.69 1.18,0.46 2.49,0.7 3.92,0.7 1.09,0 1.98,-0.2 2.67,-0.6 0.7,-0.4 1.04,-1.01 1.04,-1.82 0,-0.67 -0.27,-1.19 -0.81,-1.57 -0.53,-0.39 -1.53,-0.74 -2.98,-1.05 -3.17,-0.68 -5.45,-1.63 -6.83,-2.85 -1.38,-1.22 -2.07,-2.94 -2.07,-5.15 0,-2.57 1.01,-4.62 3.05,-6.15 2.05,-1.54 4.56,-2.3 7.54,-2.3 1.55,0 3,0.2 4.36,0.59 1.35,0.39 2.65,0.98 3.86,1.78l-2.81 4.83c-1.02,-0.65 -1.98,-1.12 -2.89,-1.43 -0.9,-0.3 -1.83,-0.45 -2.79,-0.45 -1.12,0 -2.02,0.22 -2.68,0.63 -0.67,0.43 -1.01,0.98 -1.01,1.65 0,0.73 0.31,1.27 0.92,1.62 0.61,0.35 1.78,0.7 3.5,1.06 2.95,0.6 5.07,1.54 6.36,2.81 1.29,1.26 1.94,2.99 1.94,5.17 0,2.59 -0.97,4.67 -2.93,6.24 -1.95,1.57 -4.54,2.35 -7.76,2.35 -1.76,0 -3.43,-0.22 -5.03,-0.66 -1.59,-0.45 -3.17,-1.15 -4.71,-2.09z"/>
   <path id="6" class="fil4" d="M2452.68 1410.07c-1.3,0 -2.37,-0.4 -3.2,-1.19 -0.83,-0.79 -1.24,-1.77 -1.24,-2.94 0,-1.21 0.41,-2.2 1.24,-2.97 0.83,-0.77 1.9,-1.16 3.2,-1.16 1.3,0 2.37,0.39 3.18,1.16 0.83,0.77 1.24,1.76 1.24,2.97 0,1.2 -0.41,2.19 -1.24,2.97 -0.81,0.76 -1.88,1.16 -3.18,1.16zm3.66 29.05l-7.44 0 0 -25.61 7.44 0 0 25.61z"/>
   <path id="7" class="fil4" d="M2479.44 1438.7c-0.78,0.34 -1.66,0.6 -2.62,0.77 -0.96,0.17 -1.92,0.25 -2.9,0.25 -2.74,0 -4.8,-0.66 -6.19,-2 -1.39,-1.33 -2.09,-3.32 -2.09,-5.98l0 -12.69 -4.18 -0.03 -0.02 -5.51 4.2 0 0 -5.79 7.45 -2.12 -0.02 7.91 5.85 0 0 5.54 -5.83 -0.03 -0.02 12.26c0,1.04 0.19,1.79 0.6,2.27 0.41,0.47 1.05,0.7 1.91,0.68 0.44,0.02 0.86,-0.03 1.26,-0.16 0.4,-0.12 0.77,-0.26 1.11,-0.42l1.49 5.05z"/>
   <path id="8" class="fil4" d="M2487.69 1410.07c-1.3,0 -2.37,-0.4 -3.2,-1.19 -0.83,-0.79 -1.24,-1.77 -1.24,-2.94 0,-1.21 0.41,-2.2 1.24,-2.97 0.83,-0.77 1.9,-1.16 3.2,-1.16 1.3,0 2.37,0.39 3.18,1.16 0.83,0.77 1.24,1.76 1.24,2.97 0,1.2 -0.41,2.19 -1.24,2.97 -0.81,0.76 -1.88,1.16 -3.18,1.16zm3.66 29.05l-7.44 0 0 -25.61 7.44 0 0 25.61z"/>
   <path id="9" class="fil4" d="M2522.77 1413.51l-9.6 25.61 -8.41 0 -9.19 -25.61 8.01 0 4.71 16.11c0.25,0.88 0.44,1.69 0.59,2.43 0.14,0.74 0.23,1.41 0.27,2.02l0.1 0c0.06,-0.61 0.17,-1.27 0.32,-1.99 0.16,-0.71 0.36,-1.48 0.6,-2.31l4.81 -16.26 7.79 0z"/>
   <path id="10" class="fil4" d="M2538.22 1439.72c-4.21,0 -7.53,-1.19 -9.96,-3.58 -2.42,-2.4 -3.64,-5.63 -3.64,-9.72 0.02,-4.25 1.28,-7.57 3.79,-9.96 2.5,-2.39 5.9,-3.59 10.18,-3.59 4.22,0 7.52,1.2 9.9,3.58 2.38,2.38 3.57,5.56 3.57,9.53 0,4.24 -1.23,7.58 -3.7,10.04 -2.48,2.47 -5.85,3.7 -10.14,3.7zm0.27 -5.73c1.99,0 3.48,-0.66 4.48,-1.98 1,-1.32 1.5,-3.28 1.5,-5.89 0,-2.46 -0.51,-4.34 -1.51,-5.6 -1.01,-1.25 -2.51,-1.89 -4.52,-1.89 -1.97,0 -3.5,0.68 -4.58,2.03 -1.1,1.35 -1.65,3.24 -1.65,5.66 0,2.55 0.54,4.45 1.6,5.74 1.05,1.29 2.61,1.93 4.68,1.93z"/>
   <path id="11" class="fil4" d="M2598.5 1437.28c-1.85,0.85 -3.63,1.47 -5.36,1.86 -1.73,0.39 -3.61,0.58 -5.63,0.58 -5.44,0 -9.71,-1.52 -12.84,-4.59 -3.12,-3.06 -4.69,-7.41 -4.69,-13.08 0,-5.33 1.71,-9.76 5.12,-13.27 3.41,-3.51 7.91,-5.26 13.48,-5.26 1.89,0 3.58,0.15 5.08,0.43 1.5,0.28 3.03,0.73 4.6,1.35l-2.36 6.16c-1.18,-0.48 -2.34,-0.82 -3.46,-1.04 -1.12,-0.22 -2.33,-0.33 -3.63,-0.33 -2.95,0 -5.49,1.03 -7.61,3.08 -2.13,2.06 -3.19,4.85 -3.19,8.35 0,3.6 0.94,6.43 2.8,8.46 1.86,2.04 4.41,3.06 7.65,3.06 0.93,0 2.03,-0.15 3.31,-0.44 1.28,-0.29 2.59,-0.77 3.92,-1.42l2.81 6.1z"/>
   <path class="fil5" d="M1566.18 833.18c-2.46,1.51 -5.29,2.7 -8.49,3.56 -3.2,0.88 -6.71,1.3 -10.55,1.3 -8.24,0 -14.83,-2.2 -19.76,-6.58 -4.91,-4.4 -7.37,-10.98 -7.37,-19.74 0,-8.06 2.51,-14.74 7.52,-20.04 5.02,-5.3 11.95,-7.93 20.79,-7.93 3.26,0 6.3,0.27 9.1,0.85 2.79,0.57 5.65,1.48 8.59,2.73l-3.7 8.86c-2.35,-0.98 -4.6,-1.69 -6.78,-2.16 -2.17,-0.46 -4.57,-0.7 -7.21,-0.7 -4.99,0 -8.94,1.5 -11.87,4.5 -2.93,3.01 -4.39,7.45 -4.39,13.34 0,5.91 1.44,10.26 4.32,13.05 2.88,2.8 6.66,4.2 11.35,4.2 1.46,0 2.78,-0.11 3.94,-0.31 1.16,-0.22 2.17,-0.53 3.05,-0.94l0 -10.59 -10.57 0 0 -9.19 22.03 0 0 25.79z"/>
   <path id="1" class="fil5" d="M1610.28 821.06l-25.3 0c0.19,2.97 1.16,5.2 2.89,6.66 1.74,1.46 4.13,2.2 7.21,2.2 1.1,0 2.61,-0.33 4.55,-0.98 1.93,-0.65 3.81,-1.65 5.68,-3.01l4.89 6.48c-2.58,1.95 -5.23,3.38 -7.96,4.28 -2.72,0.9 -5.7,1.35 -8.95,1.35 -6.15,0 -10.92,-1.71 -14.32,-5.16 -3.39,-3.44 -5.1,-8.24 -5.13,-14.39 0,-6.15 1.8,-11.15 5.4,-14.97 3.6,-3.84 8.17,-5.75 13.69,-5.75 5.29,0 9.51,1.61 12.65,4.85 3.14,3.24 4.7,7.87 4.7,13.94l0 4.5zm-10.44 -7c0,-3.05 -0.58,-5.25 -1.77,-6.62 -1.19,-1.35 -2.93,-2.02 -5.21,-2.02 -2.03,0 -3.78,0.77 -5.24,2.32 -1.46,1.55 -2.36,3.65 -2.68,6.32l14.9 0z"/>
   <path id="2" class="fil5" d="M1614.45 833.91l4.62 -7.5c1.28,1 2.82,1.85 4.6,2.53 1.76,0.7 3.72,1.05 5.87,1.05 1.64,0 2.98,-0.3 4.01,-0.9 1.04,-0.6 1.55,-1.51 1.55,-2.72 0,-1 -0.4,-1.79 -1.21,-2.36 -0.8,-0.58 -2.29,-1.1 -4.46,-1.57 -4.76,-1.02 -8.18,-2.45 -10.25,-4.28 -2.08,-1.83 -3.11,-4.4 -3.11,-7.73 0,-3.85 1.52,-6.92 4.58,-9.22 3.07,-2.3 6.84,-3.44 11.3,-3.44 2.33,0 4.5,0.29 6.54,0.87 2.04,0.59 3.98,1.48 5.8,2.68l-4.21 7.25c-1.54,-0.98 -2.98,-1.69 -4.34,-2.15 -1.35,-0.45 -2.75,-0.67 -4.19,-0.67 -1.68,0 -3.02,0.32 -4.02,0.94 -1,0.64 -1.51,1.47 -1.51,2.47 0,1.1 0.46,1.91 1.37,2.43 0.93,0.53 2.68,1.05 5.26,1.59 4.42,0.9 7.6,2.31 9.54,4.21 1.94,1.9 2.91,4.49 2.91,7.77 0,3.88 -1.46,7 -4.4,9.36 -2.92,2.35 -6.81,3.52 -11.63,3.52 -2.64,0 -5.15,-0.33 -7.55,-1 -2.39,-0.67 -4.75,-1.72 -7.07,-3.13z"/>
   <path id="3" class="fil5" d="M1675.9 836.51c-1.17,0.51 -2.49,0.9 -3.92,1.15 -1.44,0.26 -2.89,0.38 -4.35,0.38 -4.12,0 -7.2,-1 -9.29,-3 -2.09,-2 -3.14,-4.98 -3.14,-8.97l0 -19.04 -6.26 -0.04 -0.04 -8.27 6.3 0 0 -8.69 11.18 -3.17 -0.04 11.86 8.79 0 0 8.31 -8.75 -0.04 -0.04 18.39c0,1.56 0.3,2.69 0.91,3.4 0.61,0.71 1.57,1.05 2.86,1.03 0.67,0.02 1.29,-0.05 1.89,-0.24 0.6,-0.19 1.15,-0.4 1.66,-0.64l2.24 7.58z"/>
   <path id="4" class="fil5" d="M1688.28 793.56c-1.95,0 -3.55,-0.6 -4.8,-1.78 -1.25,-1.18 -1.87,-2.66 -1.87,-4.41 0,-1.81 0.62,-3.3 1.87,-4.45 1.25,-1.16 2.85,-1.75 4.8,-1.75 1.95,0 3.55,0.59 4.77,1.75 1.24,1.15 1.85,2.64 1.85,4.45 0,1.8 -0.61,3.29 -1.85,4.45 -1.22,1.15 -2.82,1.74 -4.77,1.74zm5.48 43.57l-11.16 0 0 -38.41 11.16 0 0 38.41z"/>
   <path id="5" class="fil5" d="M1723.03 838.04c-6.33,0 -11.3,-1.78 -14.94,-5.37 -3.64,-3.6 -5.46,-8.45 -5.46,-14.58 0.02,-6.37 1.91,-11.36 5.67,-14.95 3.76,-3.58 8.85,-5.37 15.27,-5.37 6.33,0 11.28,1.79 14.85,5.36 3.58,3.58 5.37,8.34 5.37,14.3 0,6.35 -1.85,11.36 -5.56,15.06 -3.72,3.7 -8.78,5.55 -15.2,5.55zm0.39 -8.6c2.99,0 5.23,-0.98 6.73,-2.97 1.5,-1.98 2.25,-4.91 2.25,-8.83 0,-3.7 -0.76,-6.51 -2.27,-8.4 -1.52,-1.88 -3.77,-2.83 -6.78,-2.83 -2.95,0 -5.25,1.01 -6.87,3.03 -1.64,2.03 -2.47,4.87 -2.47,8.5 0,3.82 0.8,6.68 2.39,8.6 1.59,1.94 3.93,2.9 7.02,2.9zm-0.13 -36.66l-8.14 0 9.45 -11.82 10 0 -11.31 11.82z"/>
   <path id="6" class="fil5" d="M1788.65 837.13l-11.18 0 0 -21.42c0,-3.08 -0.55,-5.39 -1.66,-6.94 -1.11,-1.55 -2.77,-2.34 -5,-2.36 -2.17,0.02 -3.96,0.86 -5.36,2.51 -1.41,1.65 -2.11,3.74 -2.11,6.27l-0.04 21.94 -11.16 0 -0.04 -38.41 11.24 0 -0.04 6.11 0.19 0c1.41,-2.36 3.15,-4.14 5.21,-5.29 2.07,-1.16 4.45,-1.73 7.16,-1.73 4.25,-0.03 7.44,1.28 9.57,3.95 2.14,2.66 3.22,6.61 3.22,11.86l0 23.51z"/>
   <path id="7" class="fil5" d="M1845.15 831.71c-1.37,2.1 -3.06,3.68 -5.05,4.75 -2,1.06 -4.34,1.58 -7,1.58 -4.78,0 -8.64,-1.7 -11.59,-5.08 -2.94,-3.39 -4.41,-8.12 -4.41,-14.18 0,-6.35 1.62,-11.44 4.87,-15.26 3.25,-3.84 7.48,-5.75 12.7,-5.75 2.5,0 4.61,0.45 6.36,1.35 1.74,0.9 3.12,2.26 4.12,4.06l0.15 0 0 -21.56 11.21 0 0 55.51 -11.21 0 0 -5.42 -0.15 0zm-16.67 -13.25c0,3.48 0.75,6.18 2.25,8.11 1.52,1.91 3.58,2.87 6.22,2.87 2.53,0 4.6,-1 6.18,-2.98 1.59,-1.99 2.39,-4.62 2.39,-7.85l0 -3.23c0,-2.56 -0.76,-4.7 -2.3,-6.41 -1.52,-1.71 -3.49,-2.56 -5.91,-2.56 -2.75,0 -4.91,1.06 -6.48,3.2 -1.56,2.13 -2.35,5.08 -2.35,8.85z"/>
   <path id="8" class="fil5" d="M1901.28 821.06l-25.3 0c0.19,2.97 1.16,5.2 2.89,6.66 1.74,1.46 4.13,2.2 7.21,2.2 1.1,0 2.61,-0.33 4.55,-0.98 1.92,-0.65 3.81,-1.65 5.67,-3.01l4.9 6.48c-2.58,1.95 -5.23,3.38 -7.96,4.28 -2.72,0.9 -5.7,1.35 -8.95,1.35 -6.15,0 -10.92,-1.71 -14.32,-5.16 -3.39,-3.44 -5.1,-8.24 -5.13,-14.39 0,-6.15 1.8,-11.15 5.4,-14.97 3.6,-3.84 8.17,-5.75 13.69,-5.75 5.29,0 9.51,1.61 12.65,4.85 3.14,3.24 4.7,7.87 4.7,13.94l0 4.5zm-10.44 -7c0,-3.05 -0.58,-5.25 -1.77,-6.62 -1.19,-1.35 -2.93,-2.02 -5.22,-2.02 -2.02,0 -3.77,0.77 -5.23,2.32 -1.46,1.55 -2.36,3.65 -2.68,6.32l14.9 0z"/>
   <path id="9" class="fil5" d="M1966.01 837.13l-11.12 0 0 -21.86c0,-2.98 -0.55,-5.2 -1.64,-6.65 -1.08,-1.45 -2.71,-2.18 -4.88,-2.18 -2.2,0 -3.99,0.83 -5.39,2.48 -1.39,1.65 -2.08,3.75 -2.05,6.31l-0.04 21.9 -11.16 0 -0.04 -55.51 11.24 0 -0.04 22.89 0.19 -0.04c1.46,-2.25 3.19,-3.93 5.19,-5.04 1.98,-1.11 4.22,-1.66 6.71,-1.66 4.35,0 7.61,1.31 9.77,3.94 2.18,2.61 3.26,6.56 3.26,11.83l0 23.59z"/>
   <path id="10" class="fil5" d="M2007.58 837.13l-10.62 0 0 -5.56 -0.15 0c-1.3,2.15 -2.9,3.76 -4.83,4.85 -1.93,1.09 -4.12,1.62 -6.55,1.62 -3.43,0 -6.3,-1.01 -8.65,-3.05 -2.34,-2.03 -3.52,-4.88 -3.52,-8.52 0,-3.56 1.17,-6.45 3.5,-8.68 2.33,-2.22 5.94,-3.66 10.83,-4.32l9.45 -1.28 0 -0.73c0,-1.98 -0.61,-3.47 -1.84,-4.47 -1.23,-1 -2.9,-1.5 -5.05,-1.5 -1.64,0 -3.4,0.28 -5.3,0.83 -1.89,0.55 -3.79,1.41 -5.69,2.61l-4 -6.62c2.53,-1.57 5.07,-2.71 7.64,-3.45 2.58,-0.73 5.38,-1.09 8.38,-1.09 5.58,0 9.72,1.34 12.38,4.02 2.68,2.69 4.02,6.74 4.02,12.17l0 23.17zm-10.54 -15.6l0 -2.75 -7.29 0.91c-2.06,0.3 -3.59,0.9 -4.59,1.82 -1,0.92 -1.5,2.15 -1.5,3.68 0,1.42 0.49,2.58 1.47,3.48 0.97,0.91 2.3,1.36 3.96,1.36 2.34,0 4.25,-0.81 5.72,-2.42 1.48,-1.62 2.23,-3.64 2.23,-6.08z"/>
   <path id="11" class="fil5" d="M2041.22 808.06c-0.48,-0.13 -0.97,-0.22 -1.47,-0.28 -0.5,-0.06 -1.08,-0.09 -1.7,-0.09 -3.06,0 -5.36,0.97 -6.91,2.9 -1.55,1.95 -2.33,4.64 -2.33,8.08l0 18.46 -11.2 0 0 -38.41 11.2 0 0 7.17 0.15 0c0.93,-2.61 2.24,-4.57 3.94,-5.9 1.7,-1.31 3.76,-1.97 6.21,-1.97 0.58,0 1.14,0.05 1.68,0.12 0.53,0.09 1.11,0.19 1.72,0.32l-1.29 9.6z"/>
   <path id="12" class="fil5" d="M2073.88 831.71c-1.36,2.1 -3.05,3.68 -5.05,4.75 -2,1.06 -4.33,1.58 -6.99,1.58 -4.78,0 -8.64,-1.7 -11.59,-5.08 -2.94,-3.39 -4.41,-8.12 -4.41,-14.18 0,-6.35 1.62,-11.44 4.87,-15.26 3.25,-3.84 7.47,-5.75 12.7,-5.75 2.5,0 4.61,0.45 6.36,1.35 1.74,0.9 3.11,2.26 4.11,4.06l0.15 0 0 -21.56 11.22 0 0 55.51 -11.22 0 0 -5.42 -0.15 0zm-16.66 -13.25c0,3.48 0.75,6.18 2.25,8.11 1.51,1.91 3.58,2.87 6.21,2.87 2.54,0 4.6,-1 6.19,-2.98 1.59,-1.99 2.39,-4.62 2.39,-7.85l0 -3.23c0,-2.56 -0.76,-4.7 -2.3,-6.41 -1.53,-1.71 -3.49,-2.56 -5.91,-2.56 -2.75,0 -4.92,1.06 -6.48,3.2 -1.56,2.13 -2.35,5.08 -2.35,8.85z"/>
   <path id="13" class="fil5" d="M2150.82 798.72l-11.13 38.41 -11.76 0 -5.92 -23.11c-0.2,-0.7 -0.35,-1.45 -0.45,-2.25 -0.09,-0.79 -0.15,-1.63 -0.18,-2.5l-0.22 0c-0.08,0.95 -0.17,1.8 -0.29,2.56 -0.13,0.75 -0.29,1.45 -0.48,2.09l-6.33 23.21 -11.61 0 -10.95 -38.41 11.42 0 5.6 25.49c0.15,0.58 0.27,1.21 0.38,1.9 0.09,0.68 0.16,1.45 0.21,2.31l0.22 0c0.08,-0.84 0.17,-1.61 0.28,-2.35 0.11,-0.73 0.25,-1.39 0.42,-1.98l6.84 -25.37 10.66 0 6.15 25.52c0.08,0.32 0.15,0.84 0.24,1.55 0.09,0.73 0.17,1.63 0.27,2.7l0.27 0c0.07,-0.71 0.15,-1.42 0.23,-2.12 0.09,-0.71 0.22,-1.43 0.39,-2.13l5.3 -25.52 10.44 0z"/>
   <path id="14" class="fil5" d="M2188.64 837.13l-10.61 0 0 -5.56 -0.15 0c-1.3,2.15 -2.9,3.76 -4.84,4.85 -1.92,1.09 -4.11,1.62 -6.55,1.62 -3.42,0 -6.3,-1.01 -8.65,-3.05 -2.34,-2.03 -3.51,-4.88 -3.51,-8.52 0,-3.56 1.16,-6.45 3.5,-8.68 2.32,-2.22 5.94,-3.66 10.82,-4.32l9.45 -1.28 0 -0.73c0,-1.98 -0.61,-3.47 -1.83,-4.47 -1.23,-1 -2.9,-1.5 -5.05,-1.5 -1.64,0 -3.4,0.28 -5.3,0.83 -1.89,0.55 -3.79,1.41 -5.69,2.61l-4 -6.62c2.52,-1.57 5.06,-2.71 7.64,-3.45 2.57,-0.73 5.37,-1.09 8.37,-1.09 5.59,0 9.73,1.34 12.39,4.02 2.67,2.69 4.01,6.74 4.01,12.17l0 23.17zm-10.54 -15.6l0 -2.75 -7.28 0.91c-2.07,0.3 -3.59,0.9 -4.59,1.82 -1,0.92 -1.5,2.15 -1.5,3.68 0,1.42 0.49,2.58 1.46,3.48 0.98,0.91 2.3,1.36 3.96,1.36 2.34,0 4.25,-0.81 5.73,-2.42 1.47,-1.62 2.22,-3.64 2.22,-6.08z"/>
   <path id="15" class="fil5" d="M2222.29 808.06c-0.49,-0.13 -0.98,-0.22 -1.48,-0.28 -0.5,-0.06 -1.07,-0.09 -1.7,-0.09 -3.06,0 -5.36,0.97 -6.91,2.9 -1.55,1.95 -2.32,4.64 -2.32,8.08l0 18.46 -11.2 0 0 -38.41 11.2 0 0 7.17 0.15 0c0.92,-2.61 2.23,-4.57 3.93,-5.9 1.7,-1.31 3.77,-1.97 6.22,-1.97 0.57,0 1.13,0.05 1.67,0.12 0.54,0.09 1.11,0.19 1.73,0.32l-1.29 9.6z"/>
   <path id="16" class="fil5" d="M2263.34 821.06l-25.3 0c0.19,2.97 1.16,5.2 2.89,6.66 1.73,1.46 4.13,2.2 7.21,2.2 1.1,0 2.61,-0.33 4.55,-0.98 1.92,-0.65 3.81,-1.65 5.67,-3.01l4.9 6.48c-2.59,1.95 -5.24,3.38 -7.96,4.28 -2.73,0.9 -5.7,1.35 -8.95,1.35 -6.15,0 -10.92,-1.71 -14.32,-5.16 -3.39,-3.44 -5.1,-8.24 -5.13,-14.39 0,-6.15 1.8,-11.15 5.4,-14.97 3.6,-3.84 8.16,-5.75 13.69,-5.75 5.28,0 9.51,1.61 12.65,4.85 3.13,3.24 4.7,7.87 4.7,13.94l0 4.5zm-10.44 -7c0,-3.05 -0.59,-5.25 -1.78,-6.62 -1.18,-1.35 -2.92,-2.02 -5.21,-2.02 -2.02,0 -3.77,0.77 -5.23,2.32 -1.47,1.55 -2.37,3.65 -2.68,6.32l14.9 0z"/>
   <polygon class="fil6" points="1909.67,364.1 1891.67,395.1 1873.67,364.1 1873.17,362.6 1873.17,361.1 1873.67,359.6 1875.17,358.6 1876.67,358.1 1878.17,358.1 1879.67,358.6 1880.67,360.1 1887.92,372.6 1887.92,256.1 1895.92,256.1 1895.92,371.74 1902.67,360.1 1903.67,358.6 1905.17,358.1 1906.67,358.1 1908.17,358.6 1909.67,359.6 1910.17,361.1 1910.67,362.6 1909.67,364.1 "/>
   <polygon class="fil6" points="1569.89,230.55 1538.88,230.55 1538.84,178.03 1550.34,178.03 1550.34,221.21 1569.89,221.21 "/>
   <polygon id="1" class="fil6" points="1576.63,230.55 1576.63,175.03 1587.83,175.03 1587.83,230.55 "/>
   <path id="2" class="fil6" d="M1629.98 230.55l-10.61 0 0 -5.57 -0.15 0c-1.3,2.15 -2.9,3.77 -4.84,4.85 -1.93,1.09 -4.11,1.63 -6.55,1.63 -3.42,0 -6.3,-1.01 -8.65,-3.05 -2.34,-2.04 -3.51,-4.89 -3.51,-8.53 0,-3.56 1.16,-6.45 3.5,-8.67 2.32,-2.23 5.93,-3.66 10.82,-4.33l9.45 -1.27 0 -0.74c0,-1.97 -0.61,-3.46 -1.83,-4.46 -1.23,-1 -2.91,-1.5 -5.06,-1.5 -1.63,0 -3.4,0.27 -5.29,0.82 -1.89,0.55 -3.79,1.42 -5.69,2.62l-4 -6.63c2.52,-1.56 5.06,-2.71 7.63,-3.45 2.58,-0.72 5.38,-1.09 8.38,-1.09 5.59,0 9.73,1.34 12.39,4.03 2.67,2.69 4.01,6.74 4.01,12.16l0 23.18zm-10.54 -15.6l0 -2.75 -7.29 0.91c-2.06,0.3 -3.58,0.9 -4.58,1.81 -1,0.93 -1.5,2.15 -1.5,3.69 0,1.41 0.48,2.57 1.46,3.47 0.97,0.92 2.3,1.37 3.96,1.37 2.34,0 4.25,-0.82 5.73,-2.43 1.47,-1.61 2.22,-3.64 2.22,-6.07z"/>
   <path id="3" class="fil6" d="M1700.29 230.55l-11.16 0 0 -21.94c0,-2.98 -0.54,-5.19 -1.6,-6.63 -1.06,-1.43 -2.68,-2.16 -4.85,-2.16 -2.03,0 -3.69,0.88 -4.99,2.64 -1.28,1.76 -1.93,3.94 -1.93,6.55l0 21.54 -11.2 0 0 -22.23c0,-2.86 -0.54,-4.99 -1.61,-6.4 -1.06,-1.4 -2.63,-2.1 -4.73,-2.1 -2.13,0 -3.83,0.84 -5.09,2.51 -1.28,1.67 -1.91,3.94 -1.91,6.79l0 21.43 -11.2 0 0 -38.42 11.2 0 0 6 0.15 0c1.25,-2.1 2.96,-3.78 5.15,-5.05 2.17,-1.27 4.59,-1.9 7.22,-1.9 2.72,0 5,0.6 6.85,1.83 1.87,1.22 3.28,3.02 4.25,5.42 1.46,-2.42 3.28,-4.23 5.43,-5.43 2.14,-1.22 4.64,-1.82 7.46,-1.82 4.2,0 7.35,1.29 9.44,3.88 2.08,2.59 3.12,6.46 3.12,11.61l0 23.88z"/>
   <path id="4" class="fil6" d="M1741.85 230.55l-10.61 0 0 -5.57 -0.15 0c-1.3,2.15 -2.9,3.77 -4.84,4.85 -1.92,1.09 -4.11,1.63 -6.55,1.63 -3.42,0 -6.3,-1.01 -8.64,-3.05 -2.34,-2.04 -3.52,-4.89 -3.52,-8.53 0,-3.56 1.16,-6.45 3.5,-8.67 2.33,-2.23 5.94,-3.66 10.83,-4.33l9.45 -1.27 0 -0.74c0,-1.97 -0.61,-3.46 -1.84,-4.46 -1.23,-1 -2.9,-1.5 -5.05,-1.5 -1.64,0 -3.4,0.27 -5.3,0.82 -1.89,0.55 -3.79,1.42 -5.69,2.62l-4 -6.63c2.53,-1.56 5.07,-2.71 7.64,-3.45 2.57,-0.72 5.38,-1.09 8.38,-1.09 5.58,0 9.72,1.34 12.38,4.03 2.68,2.69 4.01,6.74 4.01,12.16l0 23.18zm-10.53 -15.6l0 -2.75 -7.29 0.91c-2.06,0.3 -3.59,0.9 -4.59,1.81 -1,0.93 -1.5,2.15 -1.5,3.69 0,1.41 0.49,2.57 1.46,3.47 0.98,0.92 2.31,1.37 3.97,1.37 2.33,0 4.25,-0.82 5.72,-2.43 1.48,-1.61 2.23,-3.64 2.23,-6.07z"/>
   <path id="5" class="fil6" d="M1777.67 225.12c-1.36,2.1 -3.05,3.69 -5.05,4.75 -2,1.06 -4.34,1.59 -7,1.59 -4.78,0 -8.64,-1.7 -11.59,-5.09 -2.94,-3.39 -4.41,-8.11 -4.41,-14.17 0,-6.35 1.62,-11.44 4.87,-15.27 3.25,-3.83 7.48,-5.75 12.7,-5.75 2.5,0 4.62,0.45 6.37,1.35 1.73,0.9 3.11,2.27 4.11,4.07l0.15 0 0 -21.57 11.21 0 0 55.52 -11.21 0 0 -5.43 -0.15 0zm-16.66 -13.25c0,3.49 0.75,6.19 2.25,8.11 1.51,1.92 3.57,2.88 6.21,2.88 2.54,0 4.6,-1 6.19,-2.99 1.58,-1.99 2.38,-4.61 2.38,-7.85l0 -3.22c0,-2.57 -0.76,-4.7 -2.3,-6.42 -1.52,-1.71 -3.48,-2.56 -5.91,-2.56 -2.75,0 -4.91,1.06 -6.47,3.2 -1.57,2.14 -2.35,5.09 -2.35,8.85z"/>
   <path id="6" class="fil6" d="M1831.17 230.55l-10.61 0 0 -5.57 -0.15 0c-1.31,2.15 -2.9,3.77 -4.84,4.85 -1.93,1.09 -4.12,1.63 -6.55,1.63 -3.43,0 -6.3,-1.01 -8.65,-3.05 -2.34,-2.04 -3.51,-4.89 -3.51,-8.53 0,-3.56 1.16,-6.45 3.49,-8.67 2.33,-2.23 5.94,-3.66 10.83,-4.33l9.45 -1.27 0 -0.74c0,-1.97 -0.61,-3.46 -1.84,-4.46 -1.22,-1 -2.9,-1.5 -5.05,-1.5 -1.63,0 -3.4,0.27 -5.3,0.82 -1.88,0.55 -3.78,1.42 -5.69,2.62l-3.99 -6.63c2.52,-1.56 5.06,-2.71 7.63,-3.45 2.58,-0.72 5.38,-1.09 8.38,-1.09 5.59,0 9.72,1.34 12.38,4.03 2.68,2.69 4.02,6.74 4.02,12.16l0 23.18zm-10.54 -15.6l0 -2.75 -7.29 0.91c-2.06,0.3 -3.58,0.9 -4.59,1.81 -0.99,0.93 -1.5,2.15 -1.5,3.69 0,1.41 0.49,2.57 1.47,3.47 0.97,0.92 2.3,1.37 3.96,1.37 2.34,0 4.25,-0.82 5.73,-2.43 1.47,-1.61 2.22,-3.64 2.22,-6.07z"/>
   <path id="7" class="fil6" d="M1837.62 227.32l4.61 -7.5c1.29,1 2.83,1.85 4.6,2.54 1.76,0.7 3.72,1.05 5.88,1.05 1.63,0 2.97,-0.3 4.01,-0.9 1.03,-0.6 1.55,-1.51 1.55,-2.73 0,-1 -0.4,-1.78 -1.21,-2.36 -0.81,-0.57 -2.29,-1.1 -4.47,-1.56 -4.76,-1.03 -8.17,-2.45 -10.25,-4.29 -2.07,-1.82 -3.11,-4.4 -3.11,-7.72 0,-3.85 1.53,-6.93 4.59,-9.23 3.06,-2.3 6.84,-3.44 11.3,-3.44 2.32,0 4.5,0.29 6.53,0.88 2.04,0.59 3.98,1.47 5.81,2.67l-4.22 7.25c-1.53,-0.97 -2.97,-1.68 -4.33,-2.15 -1.35,-0.45 -2.75,-0.67 -4.19,-0.67 -1.69,0 -3.03,0.32 -4.03,0.95 -1,0.64 -1.51,1.46 -1.51,2.46 0,1.1 0.46,1.91 1.37,2.44 0.93,0.52 2.68,1.05 5.27,1.59 4.41,0.9 7.6,2.31 9.54,4.21 1.93,1.9 2.91,4.49 2.91,7.76 0,3.89 -1.46,7 -4.4,9.36 -2.93,2.35 -6.81,3.53 -11.64,3.53 -2.64,0 -5.15,-0.34 -7.55,-1 -2.39,-0.68 -4.75,-1.73 -7.06,-3.14z"/>
   <path id="8" class="fil6" d="M1927.77 230.55l-10.62 0 0 -5.57 -0.15 0c-1.3,2.15 -2.89,3.77 -4.83,4.85 -1.93,1.09 -4.12,1.63 -6.55,1.63 -3.43,0 -6.3,-1.01 -8.65,-3.05 -2.34,-2.04 -3.52,-4.89 -3.52,-8.53 0,-3.56 1.17,-6.45 3.5,-8.67 2.33,-2.23 5.94,-3.66 10.83,-4.33l9.45 -1.27 0 -0.74c0,-1.97 -0.61,-3.46 -1.84,-4.46 -1.22,-1 -2.9,-1.5 -5.05,-1.5 -1.63,0 -3.4,0.27 -5.3,0.82 -1.88,0.55 -3.79,1.42 -5.69,2.62l-3.99 -6.63c2.52,-1.56 5.06,-2.71 7.63,-3.45 2.58,-0.72 5.38,-1.09 8.38,-1.09 5.59,0 9.72,1.34 12.38,4.03 2.68,2.69 4.02,6.74 4.02,12.16l0 23.18zm-10.54 -15.6l0 -2.75 -7.29 0.91c-2.06,0.3 -3.59,0.9 -4.59,1.81 -0.99,0.93 -1.5,2.15 -1.5,3.69 0,1.41 0.49,2.57 1.47,3.47 0.97,0.92 2.3,1.37 3.96,1.37 2.34,0 4.25,-0.82 5.73,-2.43 1.47,-1.61 2.22,-3.64 2.22,-6.07z"/>
   <polygon id="9" class="fil6" points="1937.81,230.55 1937.81,175.03 1949.01,175.03 1949.01,230.55 "/>
   <path id="10" class="fil6" d="M1976.73 227.32l4.61 -7.5c1.29,1 2.83,1.85 4.6,2.54 1.77,0.7 3.73,1.05 5.88,1.05 1.64,0 2.97,-0.3 4.01,-0.9 1.04,-0.6 1.55,-1.51 1.55,-2.73 0,-1 -0.4,-1.78 -1.21,-2.36 -0.8,-0.57 -2.29,-1.1 -4.47,-1.56 -4.76,-1.03 -8.17,-2.45 -10.24,-4.29 -2.08,-1.82 -3.12,-4.4 -3.12,-7.72 0,-3.85 1.53,-6.93 4.59,-9.23 3.06,-2.3 6.84,-3.44 11.3,-3.44 2.33,0 4.5,0.29 6.54,0.88 2.03,0.59 3.97,1.47 5.8,2.67l-4.22 7.25c-1.53,-0.97 -2.97,-1.68 -4.33,-2.15 -1.35,-0.45 -2.75,-0.67 -4.19,-0.67 -1.69,0 -3.03,0.32 -4.02,0.95 -1,0.64 -1.52,1.46 -1.52,2.46 0,1.1 0.47,1.91 1.38,2.44 0.92,0.52 2.67,1.05 5.26,1.59 4.41,0.9 7.6,2.31 9.54,4.21 1.93,1.9 2.91,4.49 2.91,7.76 0,3.89 -1.46,7 -4.4,9.36 -2.92,2.35 -6.81,3.53 -11.64,3.53 -2.64,0 -5.15,-0.34 -7.55,-1 -2.38,-0.68 -4.75,-1.73 -7.06,-3.14z"/>
   <path id="11" class="fil6" d="M2020.38 186.97c-1.95,0 -3.55,-0.6 -4.8,-1.77 -1.25,-1.19 -1.86,-2.67 -1.86,-4.42 0,-1.81 0.61,-3.3 1.86,-4.45 1.25,-1.16 2.85,-1.75 4.8,-1.75 1.95,0 3.55,0.59 4.77,1.75 1.24,1.15 1.86,2.64 1.86,4.45 0,1.8 -0.62,3.29 -1.86,4.45 -1.22,1.15 -2.82,1.74 -4.77,1.74zm5.49 43.58l-11.16 0 0 -38.42 11.16 0 0 38.42z"/>
   <path id="12" class="fil6" d="M2033.42 227.32l4.61 -7.5c1.29,1 2.83,1.85 4.6,2.54 1.76,0.7 3.72,1.05 5.88,1.05 1.63,0 2.97,-0.3 4.01,-0.9 1.03,-0.6 1.55,-1.51 1.55,-2.73 0,-1 -0.4,-1.78 -1.21,-2.36 -0.81,-0.57 -2.29,-1.1 -4.47,-1.56 -4.76,-1.03 -8.17,-2.45 -10.25,-4.29 -2.07,-1.82 -3.11,-4.4 -3.11,-7.72 0,-3.85 1.52,-6.93 4.59,-9.23 3.06,-2.3 6.83,-3.44 11.3,-3.44 2.32,0 4.5,0.29 6.53,0.88 2.04,0.59 3.98,1.47 5.8,2.67l-4.21 7.25c-1.53,-0.97 -2.97,-1.68 -4.34,-2.15 -1.35,-0.45 -2.74,-0.67 -4.18,-0.67 -1.69,0 -3.03,0.32 -4.03,0.95 -1,0.64 -1.51,1.46 -1.51,2.46 0,1.1 0.46,1.91 1.37,2.44 0.93,0.52 2.68,1.05 5.27,1.59 4.41,0.9 7.6,2.31 9.53,4.21 1.94,1.9 2.92,4.49 2.92,7.76 0,3.89 -1.46,7 -4.4,9.36 -2.93,2.35 -6.81,3.53 -11.64,3.53 -2.64,0 -5.15,-0.34 -7.55,-1 -2.39,-0.68 -4.75,-1.73 -7.06,-3.14z"/>
   <path id="13" class="fil6" d="M2094.87 229.92c-1.18,0.51 -2.49,0.9 -3.93,1.15 -1.44,0.26 -2.89,0.39 -4.35,0.39 -4.11,0 -7.2,-1 -9.28,-3 -2.09,-2 -3.14,-4.99 -3.14,-8.98l0 -19.03 -6.27 -0.04 -0.03 -8.28 6.3 0 0 -8.68 11.17 -3.18 -0.04 11.86 8.79 0 0 8.32 -8.75 -0.04 -0.04 18.39c0,1.56 0.3,2.68 0.92,3.4 0.61,0.71 1.56,1.05 2.86,1.02 0.66,0.03 1.29,-0.05 1.89,-0.24 0.6,-0.18 1.15,-0.4 1.66,-0.63l2.24 7.57z"/>
   <path id="14" class="fil6" d="M2135.4 214.47l-25.29 0c0.18,2.98 1.16,5.2 2.88,6.66 1.74,1.47 4.14,2.2 7.22,2.2 1.09,0 2.61,-0.32 4.54,-0.97 1.93,-0.65 3.82,-1.65 5.68,-3.01l4.9 6.47c-2.59,1.95 -5.24,3.39 -7.96,4.29 -2.73,0.9 -5.7,1.35 -8.95,1.35 -6.15,0 -10.93,-1.71 -14.33,-5.16 -3.38,-3.44 -5.1,-8.24 -5.12,-14.39 0,-6.15 1.8,-11.15 5.4,-14.98 3.6,-3.83 8.16,-5.75 13.69,-5.75 5.28,0 9.51,1.62 12.65,4.85 3.13,3.24 4.69,7.88 4.69,13.94l0 4.5zm-10.43 -7c0,-3.05 -0.59,-5.25 -1.78,-6.61 -1.18,-1.35 -2.92,-2.03 -5.21,-2.03 -2.02,0 -3.77,0.78 -5.24,2.33 -1.46,1.55 -2.36,3.65 -2.67,6.31l14.9 0z"/>
   <path id="15" class="fil6" d="M2203.44 230.55l-11.16 0 0 -21.94c0,-2.98 -0.54,-5.19 -1.6,-6.63 -1.06,-1.43 -2.67,-2.16 -4.85,-2.16 -2.02,0 -3.69,0.88 -4.99,2.64 -1.28,1.76 -1.93,3.94 -1.93,6.55l0 21.54 -11.2 0 0 -22.23c0,-2.86 -0.54,-4.99 -1.6,-6.4 -1.07,-1.4 -2.64,-2.1 -4.74,-2.1 -2.13,0 -3.83,0.84 -5.09,2.51 -1.27,1.67 -1.91,3.94 -1.91,6.79l0 21.43 -11.2 0 0 -38.42 11.2 0 0 6 0.15 0c1.25,-2.1 2.96,-3.78 5.15,-5.05 2.17,-1.27 4.59,-1.9 7.22,-1.9 2.72,0 5,0.6 6.85,1.83 1.87,1.22 3.28,3.02 4.25,5.42 1.47,-2.42 3.28,-4.23 5.43,-5.43 2.14,-1.22 4.64,-1.82 7.46,-1.82 4.2,0 7.35,1.29 9.44,3.88 2.09,2.59 3.12,6.46 3.12,11.61l0 23.88z"/>
   <path id="16" class="fil6" d="M2245.01 230.55l-10.62 0 0 -5.57 -0.15 0c-1.3,2.15 -2.9,3.77 -4.83,4.85 -1.93,1.09 -4.12,1.63 -6.56,1.63 -3.42,0 -6.3,-1.01 -8.64,-3.05 -2.34,-2.04 -3.52,-4.89 -3.52,-8.53 0,-3.56 1.17,-6.45 3.5,-8.67 2.33,-2.23 5.94,-3.66 10.83,-4.33l9.45 -1.27 0 -0.74c0,-1.97 -0.61,-3.46 -1.84,-4.46 -1.23,-1 -2.9,-1.5 -5.05,-1.5 -1.64,0 -3.4,0.27 -5.3,0.82 -1.89,0.55 -3.79,1.42 -5.69,2.62l-4 -6.63c2.53,-1.56 5.07,-2.71 7.64,-3.45 2.58,-0.72 5.38,-1.09 8.38,-1.09 5.58,0 9.72,1.34 12.38,4.03 2.68,2.69 4.02,6.74 4.02,12.16l0 23.18zm-10.54 -15.6l0 -2.75 -7.29 0.91c-2.06,0.3 -3.59,0.9 -4.59,1.81 -1,0.93 -1.5,2.15 -1.5,3.69 0,1.41 0.49,2.57 1.46,3.47 0.98,0.92 2.31,1.37 3.97,1.37 2.33,0 4.25,-0.82 5.72,-2.43 1.48,-1.61 2.23,-3.64 2.23,-6.07z"/>
   <path class="fil5" d="M1832.76 525.72l19.18 -52.51 13.52 0 18.74 52.51 -12.44 0 -3.7 -11.18 -19.3 0 -3.59 11.18 -12.41 0zm18.52 -20.14l14.06 0 -5.97 -18.57c-0.19,-0.7 -0.35,-1.32 -0.49,-1.83 -0.14,-0.51 -0.25,-1.17 -0.35,-1.97l-0.29 0c-0.12,0.72 -0.25,1.36 -0.38,1.9 -0.14,0.53 -0.32,1.13 -0.54,1.8l-6.04 18.67z"/>
   <path id="1" class="fil5" d="M1901.78 521.14l-0.11 -0.04 -0.04 21.87 -11.16 0 -0.04 -55.66 11.24 0 -0.04 5.92 0.19 -0.04c1.46,-2.28 3.23,-4 5.32,-5.13 2.09,-1.14 4.46,-1.7 7.12,-1.7 4.97,0 8.81,1.7 11.52,5.12 2.72,3.41 4.08,8.06 4.08,13.95 0.03,6.4 -1.54,11.52 -4.72,15.4 -3.18,3.86 -7.39,5.8 -12.64,5.8 -2.33,0 -4.4,-0.45 -6.16,-1.35 -1.77,-0.9 -3.29,-2.29 -4.56,-4.14zm-0.29 -15.75l0 3.34c0,2.7 0.74,4.94 2.21,6.67 1.48,1.75 3.42,2.63 5.8,2.63 2.81,0 5,-1.1 6.58,-3.28 1.57,-2.18 2.36,-5.26 2.36,-9.21 0,-3.5 -0.7,-6.12 -2.1,-7.9 -1.41,-1.76 -3.46,-2.63 -6.17,-2.61 -2.57,-0.02 -4.65,0.93 -6.27,2.84 -1.61,1.91 -2.41,4.42 -2.41,7.52z"/>
   <path id="2" class="fil5" d="M1943.96 482.14c-1.95,0 -3.55,-0.6 -4.8,-1.77 -1.25,-1.19 -1.86,-2.66 -1.86,-4.41 0,-1.82 0.61,-3.3 1.86,-4.45 1.25,-1.17 2.85,-1.75 4.8,-1.75 1.95,0 3.55,0.58 4.78,1.75 1.24,1.15 1.85,2.63 1.85,4.45 0,1.8 -0.61,3.28 -1.85,4.45 -1.23,1.15 -2.83,1.73 -4.78,1.73zm5.49 43.58l-11.16 0 0 -38.41 11.16 0 0 38.41z"/>
   <polygon class="fil6" points="1909.67,644.14 1891.67,675.14 1873.67,644.14 1873.17,642.64 1873.17,641.14 1873.67,639.64 1875.17,638.64 1876.67,638.14 1878.17,638.14 1879.67,638.64 1880.67,640.14 1887.92,652.64 1887.92,600.52 1895.92,600.52 1895.92,651.78 1902.67,640.14 1903.67,638.64 1905.17,638.14 1906.67,638.14 1908.17,638.64 1909.67,639.64 1910.17,641.14 1910.67,642.64 1909.67,644.14 "/>
   <path class="fil9" d="M412.87 533.31l-11.32 0 0 -31.68c0,-1.66 0.03,-3.42 0.11,-5.3 0.07,-1.86 0.19,-3.82 0.32,-5.87l-0.28 0c-0.32,1.59 -0.6,2.95 -0.87,4.09 -0.25,1.13 -0.5,2.03 -0.75,2.72l-12.7 36.04 -9.19 0 -12.89 -35.68c-0.18,-0.48 -0.4,-1.32 -0.68,-2.52 -0.28,-1.19 -0.61,-2.74 -0.97,-4.65l-0.33 0c0.17,2.47 0.29,4.82 0.37,7.07 0.07,2.24 0.11,4.35 0.11,6.34l0 29.44 -10.36 0 0 -52.51 16.73 0 11.09 31.48c0.44,1.18 0.81,2.33 1.1,3.47 0.3,1.13 0.55,2.27 0.78,3.42l0.21 0c0.37,-1.31 0.72,-2.56 1.06,-3.74 0.35,-1.16 0.7,-2.23 1.06,-3.22l11.14 -31.41 16.26 0 0 52.51z"/>
   <path id="1" class="fil9" d="M442.67 534.22c-6.32,0 -11.3,-1.79 -14.94,-5.37 -3.63,-3.6 -5.46,-8.45 -5.46,-14.58 0.03,-6.37 1.91,-11.36 5.68,-14.95 3.76,-3.59 8.85,-5.37 15.27,-5.37 6.32,0 11.27,1.78 14.85,5.36 3.57,3.57 5.36,8.34 5.36,14.3 0,6.35 -1.85,11.36 -5.56,15.06 -3.71,3.7 -8.78,5.55 -15.2,5.55zm0.4 -8.6c2.99,0 5.22,-0.99 6.72,-2.97 1.5,-1.98 2.25,-4.92 2.25,-8.83 0,-3.7 -0.76,-6.51 -2.27,-8.4 -1.51,-1.89 -3.76,-2.84 -6.78,-2.84 -2.95,0 -5.25,1.02 -6.87,3.04 -1.64,2.03 -2.46,4.86 -2.46,8.5 0,3.81 0.8,6.68 2.39,8.6 1.58,1.94 3.92,2.9 7.02,2.9z"/>
   <path id="2" class="fil9" d="M497.59 527.88c-1.36,2.1 -3.05,3.69 -5.05,4.75 -2,1.07 -4.34,1.59 -7,1.59 -4.77,0 -8.63,-1.7 -11.59,-5.09 -2.93,-3.38 -4.41,-8.11 -4.41,-14.17 0,-6.35 1.63,-11.44 4.88,-15.26 3.25,-3.84 7.47,-5.75 12.7,-5.75 2.5,0 4.61,0.45 6.36,1.35 1.74,0.9 3.11,2.26 4.11,4.06l0.15 0 0 -21.56 11.21 0 0 55.51 -11.21 0 0 -5.43 -0.15 0zm-16.66 -13.25c0,3.49 0.75,6.19 2.25,8.12 1.51,1.91 3.57,2.87 6.21,2.87 2.54,0 4.6,-1 6.19,-2.99 1.59,-1.98 2.39,-4.61 2.39,-7.85l0 -3.22c0,-2.56 -0.77,-4.7 -2.3,-6.41 -1.53,-1.72 -3.49,-2.57 -5.92,-2.57 -2.75,0 -4.91,1.07 -6.47,3.2 -1.56,2.14 -2.35,5.09 -2.35,8.85z"/>
   <path id="3" class="fil9" d="M537.69 534.22c-6.33,0 -11.3,-1.79 -14.94,-5.37 -3.63,-3.6 -5.46,-8.45 -5.46,-14.58 0.03,-6.37 1.91,-11.36 5.67,-14.95 3.77,-3.59 8.85,-5.37 15.28,-5.37 6.32,0 11.27,1.78 14.85,5.36 3.57,3.57 5.36,8.34 5.36,14.3 0,6.35 -1.85,11.36 -5.56,15.06 -3.71,3.7 -8.78,5.55 -15.2,5.55zm0.4 -8.6c2.99,0 5.22,-0.99 6.72,-2.97 1.5,-1.98 2.25,-4.92 2.25,-8.83 0,-3.7 -0.76,-6.51 -2.27,-8.4 -1.51,-1.89 -3.76,-2.84 -6.78,-2.84 -2.95,0 -5.25,1.02 -6.87,3.04 -1.64,2.03 -2.46,4.86 -2.46,8.5 0,3.81 0.8,6.68 2.38,8.6 1.59,1.94 3.93,2.9 7.03,2.9z"/>
   <path id="4" class="fil9" d="M598.84 528.73l-0.12 -0.03 -0.03 21.86 -11.17 0 -0.03 -55.66 11.23 0 -0.03 5.92 0.18 -0.04c1.47,-2.28 3.24,-4 5.33,-5.13 2.09,-1.14 4.46,-1.7 7.12,-1.7 4.97,0 8.8,1.7 11.52,5.12 2.72,3.41 4.08,8.06 4.08,13.95 0.03,6.4 -1.55,11.53 -4.72,15.4 -3.18,3.86 -7.39,5.8 -12.64,5.8 -2.34,0 -4.4,-0.45 -6.16,-1.35 -1.78,-0.9 -3.29,-2.29 -4.56,-4.14zm-0.29 -15.75l0 3.34c0,2.7 0.74,4.94 2.21,6.68 1.48,1.75 3.41,2.62 5.8,2.62 2.81,0 5,-1.1 6.58,-3.27 1.57,-2.19 2.36,-5.27 2.36,-9.22 0,-3.5 -0.7,-6.12 -2.1,-7.9 -1.41,-1.76 -3.46,-2.63 -6.18,-2.61 -2.56,-0.02 -4.65,0.93 -6.26,2.84 -1.61,1.91 -2.41,4.42 -2.41,7.52z"/>
   <path id="5" class="fil9" d="M658.92 504.23c-0.49,-0.12 -0.97,-0.21 -1.47,-0.27 -0.5,-0.06 -1.08,-0.09 -1.7,-0.09 -3.07,0 -5.37,0.96 -6.92,2.9 -1.55,1.95 -2.32,4.64 -2.32,8.08l0 18.46 -11.2 0 0 -38.41 11.2 0 0 7.17 0.15 0c0.92,-2.61 2.24,-4.57 3.94,-5.9 1.7,-1.31 3.76,-1.97 6.21,-1.97 0.57,0 1.14,0.05 1.67,0.12 0.54,0.09 1.12,0.19 1.73,0.31l-1.29 9.6z"/>
   <path id="6" class="fil9" d="M683.93 534.22c-6.32,0 -11.3,-1.79 -14.94,-5.37 -3.63,-3.6 -5.46,-8.45 -5.46,-14.58 0.03,-6.37 1.92,-11.36 5.68,-14.95 3.76,-3.59 8.85,-5.37 15.27,-5.37 6.33,0 11.28,1.78 14.85,5.36 3.58,3.57 5.36,8.34 5.36,14.3 0,6.35 -1.85,11.36 -5.56,15.06 -3.71,3.7 -8.77,5.55 -15.2,5.55zm0.4 -8.6c2.99,0 5.23,-0.99 6.73,-2.97 1.5,-1.98 2.25,-4.92 2.25,-8.83 0,-3.7 -0.77,-6.51 -2.28,-8.4 -1.51,-1.89 -3.76,-2.84 -6.77,-2.84 -2.95,0 -5.25,1.02 -6.88,3.04 -1.64,2.03 -2.46,4.86 -2.46,8.5 0,3.81 0.8,6.68 2.39,8.6 1.58,1.94 3.92,2.9 7.02,2.9z"/>
   <path id="7" class="fil9" d="M736.59 532.68c-1.17,0.52 -2.49,0.9 -3.92,1.15 -1.44,0.27 -2.89,0.39 -4.35,0.39 -4.12,0 -7.2,-1 -9.29,-3 -2.09,-2 -3.14,-4.99 -3.14,-8.97l0 -19.04 -6.26 -0.04 -0.04 -8.27 6.3 0 0 -8.69 11.18 -3.17 -0.04 11.86 8.79 0 0 8.31 -8.75 -0.04 -0.04 18.39c0,1.56 0.3,2.69 0.91,3.4 0.61,0.71 1.57,1.05 2.86,1.02 0.67,0.03 1.29,-0.05 1.89,-0.23 0.6,-0.19 1.15,-0.4 1.66,-0.64l2.24 7.57z"/>
   <path id="8" class="fil9" d="M777.13 517.23l-25.3 0c0.19,2.98 1.16,5.2 2.89,6.67 1.73,1.46 4.13,2.2 7.21,2.2 1.1,0 2.61,-0.33 4.55,-0.98 1.92,-0.65 3.81,-1.65 5.67,-3.01l4.9 6.47c-2.59,1.95 -5.23,3.39 -7.96,4.29 -2.72,0.9 -5.7,1.35 -8.95,1.35 -6.15,0 -10.92,-1.71 -14.32,-5.16 -3.39,-3.44 -5.1,-8.24 -5.13,-14.39 0,-6.15 1.8,-11.15 5.4,-14.97 3.6,-3.84 8.16,-5.75 13.69,-5.75 5.29,0 9.51,1.61 12.65,4.85 3.14,3.23 4.7,7.87 4.7,13.93l0 4.5zm-10.44 -7c0,-3.05 -0.59,-5.25 -1.77,-6.61 -1.19,-1.35 -2.93,-2.02 -5.22,-2.02 -2.02,0 -3.77,0.77 -5.23,2.32 -1.47,1.55 -2.37,3.65 -2.68,6.31l14.9 0z"/>
   <path id="9" class="fil9" d="M822.09 528.73c0,6.42 -1.96,11.73 -5.89,15.92 -3.94,4.18 -9.66,6.27 -17.17,6.27 -2.79,0 -5.38,-0.26 -7.75,-0.79 -2.38,-0.52 -4.75,-1.34 -7.13,-2.44l3.38 -7.61c1.92,0.88 3.78,1.53 5.58,1.93 1.79,0.4 3.83,0.6 6.09,0.6 3.79,0 6.68,-1.1 8.69,-3.3 2,-2.19 3,-5.14 3,-8.83l0 -2.81 -0.15 0c-1.36,2.2 -3.06,3.84 -5.09,4.93 -2.02,1.08 -4.37,1.62 -7.04,1.62 -4.9,0 -8.78,-1.72 -11.66,-5.17 -2.86,-3.47 -4.3,-8.07 -4.3,-13.83 0,-6.52 1.6,-11.7 4.8,-15.52 3.2,-3.84 7.43,-5.75 12.68,-5.75 2.36,0 4.43,0.45 6.22,1.36 1.78,0.92 3.24,2.3 4.39,4.12l0.15 0 0 -4.53 11.2 0 0 33.83zm-11.05 -13.77l0 -3.33c0,-2.52 -0.76,-4.65 -2.28,-6.41 -1.51,-1.76 -3.46,-2.64 -5.86,-2.64 -2.75,0 -4.92,1.07 -6.5,3.19 -1.57,2.13 -2.36,5.13 -2.36,9.01 0,3.34 0.75,5.99 2.24,7.93 1.48,1.94 3.52,2.91 6.11,2.91 2.61,0 4.71,-0.97 6.29,-2.94 1.57,-1.95 2.36,-4.52 2.36,-7.72z"/>
   <path id="10" class="fil9" d="M838.35 489.73c-1.95,0 -3.55,-0.6 -4.8,-1.77 -1.25,-1.19 -1.86,-2.66 -1.86,-4.41 0,-1.82 0.61,-3.3 1.86,-4.45 1.25,-1.16 2.85,-1.75 4.8,-1.75 1.95,0 3.55,0.59 4.77,1.75 1.24,1.15 1.85,2.63 1.85,4.45 0,1.8 -0.61,3.28 -1.85,4.45 -1.22,1.15 -2.82,1.73 -4.77,1.73zm5.49 43.58l-11.17 0 0 -38.41 11.17 0 0 38.41z"/>
   <path id="11" class="fil9" d="M880.75 527.88c-1.36,2.1 -3.05,3.69 -5.05,4.75 -2,1.07 -4.34,1.59 -7,1.59 -4.78,0 -8.64,-1.7 -11.59,-5.09 -2.94,-3.38 -4.41,-8.11 -4.41,-14.17 0,-6.35 1.62,-11.44 4.87,-15.26 3.25,-3.84 7.48,-5.75 12.7,-5.75 2.5,0 4.62,0.45 6.37,1.35 1.73,0.9 3.11,2.26 4.11,4.06l0.15 0 0 -21.56 11.21 0 0 55.51 -11.21 0 0 -5.43 -0.15 0zm-16.66 -13.25c0,3.49 0.75,6.19 2.25,8.12 1.51,1.91 3.57,2.87 6.21,2.87 2.54,0 4.6,-1 6.19,-2.99 1.58,-1.98 2.38,-4.61 2.38,-7.85l0 -3.22c0,-2.56 -0.76,-4.7 -2.3,-6.41 -1.52,-1.72 -3.48,-2.57 -5.91,-2.57 -2.75,0 -4.91,1.07 -6.47,3.2 -1.57,2.14 -2.35,5.09 -2.35,8.85z"/>
   <path id="12" class="fil9" d="M920.85 534.22c-6.33,0 -11.3,-1.79 -14.94,-5.37 -3.64,-3.6 -5.46,-8.45 -5.46,-14.58 0.02,-6.37 1.91,-11.36 5.67,-14.95 3.76,-3.59 8.85,-5.37 15.28,-5.37 6.32,0 11.27,1.78 14.85,5.36 3.57,3.57 5.36,8.34 5.36,14.3 0,6.35 -1.85,11.36 -5.56,15.06 -3.72,3.7 -8.78,5.55 -15.2,5.55zm0.4 -8.6c2.98,0 5.22,-0.99 6.72,-2.97 1.5,-1.98 2.25,-4.92 2.25,-8.83 0,-3.7 -0.76,-6.51 -2.27,-8.4 -1.52,-1.89 -3.77,-2.84 -6.78,-2.84 -2.95,0 -5.25,1.02 -6.87,3.04 -1.64,2.03 -2.47,4.86 -2.47,8.5 0,3.81 0.8,6.68 2.39,8.6 1.59,1.94 3.93,2.9 7.03,2.9z"/>
   <line class="fil0 str3" x1="232.5" y1="314.14" x2="2942.5" y2= "314.14" />
  </g>
 </g>
</svg>
