<?xml version="1.0" encoding="UTF-8"?>
<!DOCTYPE svg PUBLIC "-//W3C//DTD SVG 1.1//EN" "http://www.w3.org/Graphics/SVG/1.1/DTD/svg11.dtd">
<!-- Creator: CorelDRAW -->
<svg xmlns="http://www.w3.org/2000/svg" xml:space="preserve" width="100px" height="100px" version="1.1" style="shape-rendering:geometricPrecision; text-rendering:geometricPrecision; image-rendering:optimizeQuality; fill-rule:evenodd; clip-rule:evenodd"
viewBox="0 0 100 100"
 xmlns:xlink="http://www.w3.org/1999/xlink"
 xmlns:xodm="http://www.corel.com/coreldraw/odm/2003">
 <defs>
  <style type="text/css">
   <![CDATA[
    .fil0 {fill:gray}
    .fil1 {fill:#B3B3B3}
   ]]>
  </style>
 </defs>
 <g id="Capa_x0020_1">
  <metadata id="CorelCorpID_0Corel-Layer"/>
  <path class="fil0" d="M50 16.67c18.41,0 33.33,14.92 33.33,33.33 0,18.41 -14.92,33.33 -33.33,33.33 -18.41,0 -33.33,-14.92 -33.33,-33.33 0,-18.41 14.92,-33.33 33.33,-33.33zm0 2.66c16.94,0 30.67,13.73 30.67,30.67 0,16.94 -13.73,30.67 -30.67,30.67 -16.94,0 -30.67,-13.73 -30.67,-30.67 0,-16.94 13.73,-30.67 30.67,-30.67z"/>
  <g id="_2134371491472">
   <path class="fil1" d="M55.18 66.7l-3.59 3.3 0 -11.45c0,-2.25 -2.64,-2.22 -2.64,0l0 11.45 -3.58 -3.3c-1.76,-1.63 -3.81,-0.04 -2.02,1.71l6.93 6.78 6.87 -6.73c1.82,-1.78 -0.15,-3.44 -1.97,-1.76z"/>
   <path class="fil1" d="M44.82 33.3l3.59 -3.3 0 11.45c0,2.25 2.64,2.22 2.64,0l0 -11.45 3.58 3.3c1.76,1.63 3.81,0.04 2.02,-1.71l-6.93 -6.78 -6.87 6.73c-1.82,1.78 0.15,3.44 1.97,1.76z"/>
  </g>
  <path class="fil1" d="M34.63 45.36l3.31 3.59 -11.45 0c-2.26,0 -2.23,2.64 0,2.64l11.45 0 -3.31 3.58c-1.63,1.76 -0.04,3.8 1.72,2.01l6.78 -6.92 -6.73 -6.88c-1.79,-1.82 -3.44,0.16 -1.77,1.98z"/>
  <path class="fil1" d="M65.37 54.64l-3.31 -3.59 11.45 0c2.26,0 2.23,-2.64 0,-2.64l-11.45 0 3.31 -3.58c1.63,-1.76 0.04,-3.8 -1.72,-2.01l-6.78 6.92 6.73 6.88c1.79,1.82 3.44,-0.16 1.77,-1.98z"/>
 </g>
</svg>
